<svg width="42" height="42" viewBox="0 0 42 42" fill="none" xmlns="http://www.w3.org/2000/svg">
<path d="M25.76 15.3825L18.2525 22.9075L15.365 20.02C15.2081 19.8368 15.0151 19.688 14.798 19.583C14.5808 19.4779 14.3444 19.4189 14.1034 19.4096C13.8623 19.4003 13.622 19.4409 13.3974 19.5289C13.1729 19.6169 12.9689 19.7503 12.7984 19.9209C12.6278 20.0914 12.4944 20.2954 12.4064 20.5199C12.3184 20.7445 12.2778 20.9848 12.2871 21.2258C12.2964 21.4669 12.3554 21.7033 12.4605 21.9205C12.5655 22.1376 12.7143 22.3306 12.8975 22.4875L17.01 26.6175C17.1735 26.7797 17.3675 26.908 17.5807 26.9951C17.7939 27.0822 18.0222 27.1263 18.2525 27.125C18.7116 27.1231 19.1516 26.9408 19.4775 26.6175L28.2275 17.8675C28.3915 17.7048 28.5217 17.5113 28.6106 17.298C28.6994 17.0848 28.7452 16.856 28.7452 16.625C28.7452 16.394 28.6994 16.1652 28.6106 15.952C28.5217 15.7387 28.3915 15.5452 28.2275 15.3825C27.8996 15.0566 27.4561 14.8736 26.9938 14.8736C26.5314 14.8736 26.0879 15.0566 25.76 15.3825ZM21 3.5C17.5388 3.5 14.1554 4.52636 11.2775 6.44928C8.39967 8.37221 6.15665 11.1053 4.83212 14.303C3.50758 17.5007 3.16102 21.0194 3.83627 24.4141C4.51151 27.8088 6.17822 30.927 8.62564 33.3744C11.0731 35.8218 14.1913 37.4885 17.5859 38.1637C20.9806 38.839 24.4993 38.4924 27.697 37.1679C30.8947 35.8434 33.6278 33.6003 35.5507 30.7225C37.4736 27.8446 38.5 24.4612 38.5 21C38.5 18.7019 38.0474 16.4262 37.1679 14.303C36.2884 12.1798 34.9994 10.2507 33.3744 8.62563C31.7493 7.00061 29.8202 5.71157 27.697 4.83211C25.5738 3.95265 23.2981 3.5 21 3.5ZM21 35C18.2311 35 15.5243 34.1789 13.222 32.6406C10.9197 31.1022 9.12532 28.9157 8.06569 26.3576C7.00607 23.7994 6.72882 20.9845 7.26901 18.2687C7.80921 15.553 9.14258 13.0584 11.1005 11.1005C13.0584 9.14257 15.553 7.8092 18.2687 7.26901C20.9845 6.72881 23.7994 7.00606 26.3576 8.06569C28.9157 9.12531 31.1022 10.9197 32.6406 13.222C34.1789 15.5243 35 18.2311 35 21C35 24.713 33.525 28.274 30.8995 30.8995C28.274 33.525 24.713 35 21 35Z" fill="#4C9F38"/>
</svg>
