<svg width="28" height="28" viewBox="0 0 28 28" fill="none" xmlns="http://www.w3.org/2000/svg">
<path d="M7.86621 2.0918C11.9481 2.06991 16.0316 2.06991 20.1162 2.0918H20.1172C20.6184 2.09177 21.1147 2.19062 21.5771 2.38379C22.0398 2.57712 22.4602 2.86098 22.8125 3.21777C23.1647 3.57451 23.4425 3.99796 23.6299 4.46289C23.8173 4.92788 23.9107 5.42546 23.9043 5.92676V5.92773C23.918 8.75397 23.9215 11.5822 23.916 14.4111V22.8916C23.9234 23.3008 23.8465 23.7071 23.6895 24.085C23.5323 24.4629 23.2983 24.8045 23.0029 25.0879C22.7076 25.3712 22.3568 25.591 21.9727 25.7324C21.5886 25.8737 21.179 25.9344 20.7705 25.9102H20.7695C20.2348 25.8795 19.7181 25.7062 19.2725 25.4092L19.2705 25.4082C18.527 24.9399 17.7809 24.4755 17.0352 24.0098L14.8018 22.6055C14.5704 22.4339 14.29 22.3408 14.002 22.3408C13.7121 22.3408 13.4295 22.4348 13.1973 22.6084C11.6917 23.5674 10.1805 24.5126 8.66406 25.4443L8.66211 25.4463C8.28721 25.6903 7.86179 25.8465 7.41797 25.9023C6.9739 25.9582 6.5225 25.9123 6.09863 25.7686C5.67486 25.6249 5.28918 25.3866 4.9707 25.0723C4.65224 24.7579 4.40896 24.375 4.25977 23.9531V23.9521C4.17225 23.7081 4.1151 23.4546 4.08984 23.1973L4.0752 22.9385V5.87012C4.07575 5.37306 4.17441 4.88084 4.36523 4.42188C4.55608 3.96294 4.83549 3.54621 5.1875 3.19531C5.53957 2.84437 5.95737 2.56633 6.41699 2.37695C6.8191 2.21128 7.2462 2.11615 7.67969 2.0957L7.86621 2.0918ZM19.959 4.14941H7.95312C7.63189 4.12761 7.31111 4.20239 7.03223 4.36328C6.75348 4.5242 6.52856 4.76476 6.38672 5.05371V5.05469C6.24081 5.3677 6.16644 5.70938 6.16992 6.05469V22.7344C6.16381 22.8397 6.16363 22.9455 6.16992 23.0508L6.1709 23.0537C6.19217 23.2547 6.28462 23.4423 6.43164 23.5811C6.57853 23.7195 6.77005 23.8009 6.97168 23.8105H6.97754C7.21274 23.8047 7.44274 23.7394 7.64551 23.6201L7.64648 23.6191C8.41014 23.149 9.17138 22.6723 9.93164 22.1963L12.2148 20.7744L12.2168 20.7734C12.7432 20.4234 13.362 20.2363 13.9941 20.2363C14.6261 20.2364 15.2442 20.4235 15.7705 20.7734L15.7734 20.7754C16.417 21.1648 17.0514 21.5702 17.6924 21.9688C18.6031 22.5389 19.5112 23.1143 20.4268 23.6768V23.6758C20.5423 23.7571 20.6755 23.811 20.8154 23.8311C20.9568 23.8512 21.1014 23.8369 21.2363 23.79C21.3712 23.7431 21.4934 23.6641 21.5918 23.5605C21.69 23.457 21.7618 23.3314 21.8018 23.1943L21.8037 23.1895C21.8199 23.1141 21.8305 23.0376 21.8369 22.9609L21.8418 22.7314V6.03223C21.8633 5.77965 21.8292 5.52521 21.7422 5.28711C21.6552 5.04899 21.5172 4.8326 21.3379 4.65332C21.1586 4.47405 20.9423 4.33601 20.7041 4.24902C20.4659 4.16204 20.2116 4.12791 19.959 4.14941Z" fill="black" stroke="white" stroke-width="0.15"/>
</svg>
