<svg width="25" height="24" viewBox="0 0 25 24" fill="none" xmlns="http://www.w3.org/2000/svg">
<path d="M4.01172 17.2727C4.01172 16.2118 4.43315 15.1944 5.18329 14.4443C5.93344 13.6941 6.95085 13.2727 8.01172 13.2727H16.0117C17.0726 13.2727 18.09 13.6941 18.8401 14.4443C19.5903 15.1944 20.0117 16.2118 20.0117 17.2727C20.0117 17.8031 19.801 18.3118 19.4259 18.6869C19.0509 19.062 18.5422 19.2727 18.0117 19.2727H6.01172C5.48129 19.2727 4.97258 19.062 4.59751 18.6869C4.22243 18.3118 4.01172 17.8031 4.01172 17.2727Z" stroke="#595959" stroke-width="2" stroke-linejoin="round"/>
<path d="M12.0117 10C13.6686 10 15.0117 8.65685 15.0117 7C15.0117 5.34315 13.6686 4 12.0117 4C10.3549 4 9.01172 5.34315 9.01172 7C9.01172 8.65685 10.3549 10 12.0117 10Z" stroke="#595959" stroke-width="2"/>
</svg>
