<svg width="28" height="28" viewBox="0 0 28 28" fill="none" xmlns="http://www.w3.org/2000/svg">
<path d="M21.875 12.25C21.875 12.4821 21.7828 12.7046 21.6187 12.8687C21.4546 13.0328 21.2321 13.125 21 13.125H16.625C16.3929 13.125 16.1704 13.0328 16.0063 12.8687C15.8422 12.7046 15.75 12.4821 15.75 12.25C15.75 12.0179 15.8422 11.7954 16.0063 11.6313C16.1704 11.4672 16.3929 11.375 16.625 11.375H21C21.2321 11.375 21.4546 11.4672 21.6187 11.6313C21.7828 11.7954 21.875 12.0179 21.875 12.25ZM21 14.875H16.625C16.3929 14.875 16.1704 14.9672 16.0063 15.1313C15.8422 15.2954 15.75 15.5179 15.75 15.75C15.75 15.9821 15.8422 16.2046 16.0063 16.3687C16.1704 16.5328 16.3929 16.625 16.625 16.625H21C21.2321 16.625 21.4546 16.5328 21.6187 16.3687C21.7828 16.2046 21.875 15.9821 21.875 15.75C21.875 15.5179 21.7828 15.2954 21.6187 15.1313C21.4546 14.9672 21.2321 14.875 21 14.875ZM25.375 6.125V21.875C25.375 22.3391 25.1906 22.7842 24.8624 23.1124C24.5342 23.4406 24.0891 23.625 23.625 23.625H4.375C3.91087 23.625 3.46575 23.4406 3.13756 23.1124C2.80937 22.7842 2.625 22.3391 2.625 21.875V6.125C2.625 5.66087 2.80937 5.21575 3.13756 4.88756C3.46575 4.55937 3.91087 4.375 4.375 4.375H23.625C24.0891 4.375 24.5342 4.55937 24.8624 4.88756C25.1906 5.21575 25.375 5.66087 25.375 6.125ZM23.625 21.875V6.125H4.375V21.875H23.625ZM14.8466 18.1562C14.9046 18.3811 14.8709 18.6197 14.753 18.8197C14.635 19.0197 14.4425 19.1646 14.2177 19.2227C13.9928 19.2807 13.7542 19.247 13.5542 19.1291C13.3542 19.0111 13.2093 18.8186 13.1512 18.5938C12.8636 17.4716 11.7228 16.625 10.4989 16.625C9.275 16.625 8.13531 17.4716 7.84656 18.5938C7.78855 18.8186 7.6436 19.0111 7.44361 19.1291C7.24362 19.247 7.00497 19.2807 6.78016 19.2227C6.55534 19.1646 6.36279 19.0197 6.24484 18.8197C6.1269 18.6197 6.09323 18.3811 6.15125 18.1562C6.43519 17.0994 7.10637 16.1881 8.03141 15.6034C7.53984 15.1148 7.20443 14.4912 7.06769 13.8117C6.93095 13.1322 6.99905 12.4274 7.26334 11.7866C7.52763 11.1459 7.97622 10.598 8.55225 10.2125C9.12827 9.82701 9.80578 9.62121 10.4989 9.62121C11.192 9.62121 11.8695 9.82701 12.4456 10.2125C13.0216 10.598 13.4702 11.1459 13.7345 11.7866C13.9988 12.4274 14.0669 13.1322 13.9301 13.8117C13.7934 14.4912 13.458 15.1148 12.9664 15.6034C13.8924 16.1873 14.5642 17.0989 14.8477 18.1562H14.8466ZM10.5 14.875C10.8461 14.875 11.1845 14.7724 11.4722 14.5801C11.76 14.3878 11.9843 14.1145 12.1168 13.7947C12.2492 13.4749 12.2839 13.1231 12.2164 12.7836C12.1489 12.4441 11.9822 12.1323 11.7374 11.8876C11.4927 11.6428 11.1809 11.4761 10.8414 11.4086C10.5019 11.3411 10.1501 11.3758 9.8303 11.5082C9.51053 11.6407 9.23722 11.865 9.04493 12.1528C8.85264 12.4405 8.75 12.7789 8.75 13.125C8.75 13.5891 8.93437 14.0342 9.26256 14.3624C9.59075 14.6906 10.0359 14.875 10.5 14.875Z" fill="black"/>
</svg>
