<svg width="28" height="28" viewBox="0 0 28 28" fill="none" xmlns="http://www.w3.org/2000/svg">
<path d="M1.75 13.4346V9.48337C1.75959 9.47157 1.77558 9.46163 1.77941 9.44858C2.10928 8.25738 2.84382 7.70961 4.11024 7.70961H7.73179C7.73179 7.19971 7.72859 6.72087 7.73179 6.24141C7.74202 4.99618 8.69072 4.02174 9.96929 4.01304C12.6543 3.99565 15.3412 3.99565 18.03 4.01304C18.534 4.0099 19.0238 4.17462 19.4179 4.47975C19.812 4.78487 20.0866 5.21198 20.1959 5.68991C20.2739 6.03274 20.256 6.39668 20.2682 6.75193C20.2784 7.06557 20.2682 7.38045 20.2682 7.71209H20.5609C21.7168 7.71209 22.8732 7.7065 24.0291 7.71209C25.337 7.71955 26.2468 8.6145 26.2493 9.88581C26.2493 10.9162 26.2416 11.9465 26.2493 12.9768C26.2662 13.752 25.9739 14.5035 25.4336 15.0742C25.3833 15.1269 25.3444 15.1888 25.3192 15.2563C25.2939 15.3238 25.2828 15.3956 25.2865 15.4673C25.2912 17.8994 25.2912 20.3317 25.2865 22.7642C25.2865 24.1206 24.3788 25 22.9813 25H5.01738C3.60648 25 2.70062 24.1193 2.70062 22.7486C2.70062 20.3157 2.70062 17.8834 2.70062 15.4518C2.70062 15.363 2.70637 15.2437 2.65395 15.1897C2.18482 14.7015 1.87091 14.092 1.75 13.4346ZM16.4881 16.5504C16.5098 16.5595 16.5325 16.566 16.5558 16.5697C18.3324 16.4355 20.0853 16.1772 21.7775 15.6145C22.6086 15.3375 23.4096 14.9934 24.0834 14.4239C24.5718 14.0115 24.8397 13.5141 24.8218 12.8601C24.7949 11.8769 24.8154 10.8926 24.8148 9.90879C24.8148 9.3753 24.5411 9.10141 23.9971 9.10141H3.99901C3.46584 9.10141 3.18648 9.37406 3.18584 9.88706C3.18584 10.8863 3.20246 11.8863 3.17881 12.8849C3.16474 13.4923 3.40831 13.9631 3.84942 14.3612C4.29052 14.7593 4.81345 15.0444 5.36196 15.281C6.5945 15.8101 7.89353 16.1138 9.21941 16.312C9.97184 16.4244 10.73 16.4983 11.5119 16.5964C11.5119 16.3592 11.5119 16.1672 11.5119 15.9753C11.5176 15.5325 11.8034 15.2419 12.256 15.24C13.4204 15.2359 14.5845 15.2359 15.7484 15.24C16.1889 15.24 16.4778 15.5307 16.4868 15.9567C16.4919 16.1586 16.4881 16.3579 16.4881 16.5504ZM4.14221 16.325V16.5039C4.14221 18.5956 4.14221 20.6865 4.14221 22.7766C4.14221 23.3355 4.41902 23.6045 4.99054 23.6045H23.0049C23.5803 23.6045 23.8571 23.3349 23.8571 22.7791C23.8571 20.6873 23.8571 18.5964 23.8571 16.5063V16.2759C23.8239 16.2848 23.7913 16.2954 23.7593 16.3076C22.6217 16.8702 21.4038 17.264 20.1461 17.4758C19.0267 17.6715 17.8932 17.7938 16.7668 17.9528C16.6242 17.9727 16.4619 17.9224 16.3928 18.1447C16.0853 19.1347 15.3872 19.6974 14.333 19.8265C13.112 19.9768 12.0124 19.3601 11.6602 18.2963C11.5669 18.0149 11.4211 17.9615 11.1603 17.9398C9.6343 17.8155 8.11408 17.6336 6.64501 17.1945C5.80435 16.9473 4.9867 16.6219 4.14221 16.325ZM9.16954 7.69222H18.833C18.833 7.23326 18.833 6.7923 18.833 6.35072C18.833 5.70544 18.5191 5.40298 17.8485 5.40298H12.109C11.4153 5.40298 10.7217 5.39863 10.0287 5.40298C9.55694 5.4067 9.18935 5.71351 9.17401 6.14329C9.15547 6.65194 9.16954 7.16307 9.16954 7.68974V7.69222ZM12.9477 16.6417C12.9477 16.9523 12.9426 17.246 12.9477 17.5379C12.9473 17.7607 13.0312 17.9759 13.1835 18.1424C13.3358 18.3089 13.5459 18.4152 13.7737 18.441C14.365 18.5254 14.8815 18.2981 14.9883 17.8298C15.0753 17.4485 15.0484 17.0429 15.0727 16.6417H12.9477Z" fill="black"/>
</svg>
