<svg width="28" height="28" viewBox="0 0 28 28" fill="none" xmlns="http://www.w3.org/2000/svg">
<path d="M13.1718 26C12.7864 25.9125 12.4083 25.7953 12.0411 25.6493C11.5775 25.4375 11.1674 25.1244 10.841 24.733C10.5146 24.3416 10.2803 23.882 10.1552 23.3879L10.0975 23.1899H3.77562C3.62847 23.204 3.48057 23.1718 3.35259 23.0978C3.22461 23.0239 3.12294 22.9118 3.06174 22.7772C3.00233 22.6436 2.98669 22.4946 3.01708 22.3515C3.04747 22.2085 3.12232 22.0787 3.23091 21.9808L3.26393 21.9478C4.70049 20.4365 5.66553 18.5394 6.04109 16.4884C6.16784 15.7353 6.24094 14.9741 6.25981 14.2106C6.3052 13.2615 6.22678 12.3 6.32169 11.3551C6.41644 10.2089 6.79155 9.10353 7.414 8.13641C8.03645 7.16929 8.88714 6.37004 9.89116 5.80904C10.3275 5.57002 10.7813 5.36448 11.2488 5.1942C11.3726 5.14055 11.4262 5.09103 11.4262 4.9466C11.4103 4.54164 11.4254 4.13605 11.4716 3.73341C11.5551 3.21775 11.8311 2.75296 12.2439 2.43283C12.6567 2.1127 13.1756 1.96108 13.6958 2.00854C14.2111 2.05135 14.6929 2.28088 15.0508 2.65398C15.4088 3.02709 15.6181 3.51807 15.6394 4.03465C15.6394 4.32763 15.6394 4.62887 15.6394 4.92185C15.6394 5.08691 15.6972 5.14468 15.8416 5.19832C17.006 5.57744 18.0532 6.25003 18.8822 7.15129C19.7112 8.05256 20.2941 9.15213 20.5748 10.3441C20.712 10.937 20.7853 11.5429 20.7935 12.1515C20.8347 13.1625 20.7935 14.1817 20.8513 15.1927C20.979 17.2317 21.6958 19.1898 22.9145 20.8295C23.1951 21.2133 23.5129 21.5681 23.8265 21.9271C23.9441 22.0287 24.0258 22.1654 24.0595 22.317C24.0933 22.4686 24.0772 22.6271 24.0137 22.7689C23.9502 22.9107 23.8427 23.0282 23.7072 23.104C23.5716 23.1799 23.4152 23.21 23.2611 23.1899H17.0136C16.9442 23.4222 16.863 23.6509 16.7701 23.8749C16.5379 24.4284 16.1653 24.9118 15.6891 25.2773C15.2129 25.6428 14.6496 25.8776 14.0548 25.9587C14.0094 25.9587 13.9682 25.9876 13.9228 26H13.1718ZM5.2488 21.7703H21.8292C21.8292 21.7415 21.8292 21.725 21.8292 21.7126L21.6807 21.5021C20.3696 19.6596 19.6006 17.4869 19.4606 15.2298C19.3987 14.2271 19.4359 13.2161 19.4111 12.2092C19.4063 11.8114 19.3746 11.4144 19.3162 11.0208C19.066 9.55985 18.271 8.24814 17.0916 7.35029C15.9123 6.45244 14.4363 6.03526 12.9614 6.1829C11.4865 6.33054 10.1225 7.03202 9.14451 8.14584C8.16653 9.25965 7.64736 10.7029 7.69171 12.1845C7.69171 12.9231 7.69171 13.6659 7.69171 14.4087C7.68379 16.6612 7.06021 18.8686 5.88841 20.7924C5.68621 21.1184 5.47163 21.4278 5.2488 21.7703ZM11.583 23.2187C11.728 23.6443 12.0081 24.0108 12.3805 24.2625C12.7529 24.5143 13.1974 24.6375 13.6463 24.6135C14.0583 24.595 14.4549 24.4516 14.7836 24.2026C15.1123 23.9535 15.3575 23.6104 15.4868 23.2187H11.583ZM14.2405 4.8517C14.2405 4.7898 14.2405 4.71964 14.2405 4.65362C14.2405 4.44317 14.2405 4.24097 14.2405 4.02227C14.2152 3.85927 14.1328 3.71054 14.0082 3.60251C13.8835 3.49447 13.7246 3.43412 13.5596 3.43218C13.3938 3.42786 13.232 3.48348 13.1039 3.58884C12.9758 3.6942 12.89 3.84224 12.8623 4.00576C12.8458 4.2875 12.8458 4.56996 12.8623 4.8517H14.2405Z" fill="black"/>
<path d="M3.00413 11.813C3.06552 9.13117 4.15244 6.57486 6.04126 4.67003C6.1052 4.60364 6.18159 4.5505 6.26607 4.51365C6.35056 4.47679 6.44147 4.45693 6.53363 4.4552C6.62579 4.45348 6.71737 4.46992 6.80317 4.5036C6.88898 4.53727 6.96732 4.58751 7.03371 4.65146C7.10009 4.7154 7.1532 4.7918 7.19006 4.87628C7.22692 4.96076 7.2468 5.05167 7.24852 5.14382C7.25025 5.23598 7.23379 5.32757 7.20011 5.41337C7.16644 5.49917 7.11621 5.5775 7.05227 5.64388C6.40631 6.30085 5.85995 7.04878 5.43054 7.86393C4.76473 9.13833 4.41115 10.5526 4.3989 11.9904C4.40174 12.0992 4.38781 12.2078 4.35762 12.3123C4.30883 12.466 4.20797 12.5979 4.07239 12.6853C3.93681 12.7727 3.77501 12.8101 3.61485 12.791C3.45495 12.7701 3.30693 12.6953 3.19517 12.5791C3.08341 12.4628 3.01458 12.312 3 12.1514C3 12.0317 3.00413 11.9203 3.00413 11.813Z" fill="black"/>
<path d="M24.0935 11.8045V12.0769C24.0946 12.1708 24.077 12.264 24.0419 12.351C24.0067 12.4381 23.9546 12.5173 23.8885 12.5841C23.8225 12.6509 23.7439 12.7039 23.6573 12.7401C23.5706 12.7763 23.4776 12.7949 23.3837 12.7949C23.1993 12.7877 23.0244 12.7109 22.8942 12.58C22.7641 12.4491 22.6883 12.2738 22.6822 12.0893C22.6352 11.3596 22.5442 10.6334 22.4099 9.9146C22.0489 8.3307 21.2512 6.87969 20.1073 5.72621C19.9882 5.60959 19.8953 5.46891 19.8349 5.31356C19.7922 5.16542 19.8017 5.0071 19.8618 4.86513C19.9219 4.72315 20.0289 4.60613 20.165 4.53365C20.3031 4.45873 20.4621 4.43146 20.6173 4.45608C20.7725 4.48071 20.9152 4.55584 21.0233 4.66983C22.9242 6.57617 24.0229 9.13811 24.0935 11.8293V11.8045Z" fill="black"/>
</svg>
