<svg width="42" height="42" viewBox="0 0 42 42" fill="none" xmlns="http://www.w3.org/2000/svg">
<path d="M8.5189 8.76723C6.07148 11.2146 4.40477 14.3328 3.72953 17.7275C3.05429 21.1222 3.40085 24.6408 4.72538 27.8386C6.04991 31.0363 8.29293 33.7694 11.1708 35.6923C14.0486 37.6152 17.4321 38.6416 20.8933 38.6416C24.3544 38.6416 27.7379 37.6152 30.6157 35.6923C33.4936 33.7694 35.7366 31.0363 37.0612 27.8386C38.3857 24.6408 38.7322 21.1222 38.057 17.7275C37.3818 14.3328 35.715 11.2146 33.2676 8.76723C31.6426 7.14221 29.7134 5.85316 27.5902 4.97371C25.467 4.09425 23.1914 3.6416 20.8933 3.6416C18.5951 3.6416 16.3195 4.09425 14.1963 4.97371C12.0731 5.85317 10.1439 7.14221 8.5189 8.76723ZM30.7928 31.0411C28.8348 32.999 26.3403 34.3324 23.6245 34.8726C20.9088 35.4128 18.0939 35.1355 15.5357 34.0759C12.9775 33.0163 10.791 31.2219 9.2527 28.9196C7.71436 26.6173 6.89327 23.9105 6.89327 21.1416C6.89327 18.3727 7.71436 15.6659 9.2527 13.3636C10.791 11.0613 12.9775 9.26691 15.5357 8.20729C18.0939 7.14766 20.9088 6.87041 23.6245 7.41061C26.3403 7.9508 28.8348 9.28417 30.7928 11.2421C33.4183 13.8676 34.8933 17.4286 34.8933 21.1416C34.8933 24.8546 33.4183 28.4156 30.7928 31.0411ZM24.6056 14.9544L20.8933 18.6667L17.181 14.9544C16.8528 14.6262 16.4076 14.4418 15.9435 14.4418C15.4794 14.4419 15.0343 14.6262 14.7061 14.9544C14.3779 15.2826 14.1935 15.7277 14.1935 16.1918C14.1935 16.656 14.3779 17.1011 14.7061 17.4293L18.4184 21.1416L14.7061 24.8539C14.3779 25.1821 14.1935 25.6272 14.1935 26.0913C14.1935 26.5555 14.3779 27.0006 14.7061 27.3288C15.0343 27.657 15.4794 27.8413 15.9435 27.8413C16.4076 27.8413 16.8528 27.657 17.181 27.3288L20.8933 23.6165L24.6056 27.3288C24.9338 27.657 25.3789 27.8413 25.843 27.8413C26.3071 27.8413 26.7523 27.657 27.0804 27.3288C27.4086 27.0006 27.593 26.5555 27.593 26.0913C27.593 25.6272 27.4086 25.1821 27.0804 24.8539L23.3681 21.1416L27.0804 17.4293C27.4086 17.1011 27.593 16.656 27.593 16.1918C27.593 15.7277 27.4086 15.2826 27.0804 14.9544C26.7523 14.6262 26.3071 14.4418 25.843 14.4418C25.3789 14.4418 24.9338 14.6262 24.6056 14.9544Z" fill="#C5192D"/>
</svg>
