<svg width="28" height="28" viewBox="0 0 28 28" fill="none" xmlns="http://www.w3.org/2000/svg">
<path d="M13.6357 2.5C19.7714 2.50003 24.7715 7.6341 24.7715 14C24.7715 20.3659 19.7714 25.5 13.6357 25.5C7.50009 25.5 2.5 20.3659 2.5 14C2.5 7.63408 7.50009 2.5 13.6357 2.5Z" stroke="black"/>
<path d="M12.836 10.1566C13.5422 10.1566 14.101 10.3796 14.5126 10.8255C14.9241 11.2714 15.1339 11.8897 15.142 12.6804V16.1356H13.4141V12.9258C13.4246 12.7663 13.404 12.6063 13.3536 12.4552C13.3032 12.304 13.2239 12.1649 13.1205 12.046C13.0176 11.9385 12.8936 11.855 12.7568 11.801C12.6201 11.7471 12.4737 11.7241 12.3277 11.7334C12.18 11.7247 12.0323 11.748 11.8939 11.8018C11.7555 11.8557 11.6296 11.9388 11.5242 12.046C11.3181 12.2878 11.2131 12.6042 11.2322 12.9258V16.1371H9.50724V12.9258C9.51645 12.7657 9.4944 12.6053 9.44241 12.4541C9.39043 12.303 9.30957 12.1642 9.20463 12.046C9.10177 11.9384 8.97778 11.8548 8.84101 11.8009C8.70424 11.747 8.55787 11.724 8.41177 11.7334C8.26414 11.7247 8.11638 11.748 7.978 11.8018C7.83962 11.8557 7.71369 11.9388 7.60831 12.046C7.40729 12.2902 7.30681 12.606 7.32839 12.9258V16.1371H5.58984V10.2207H7.32839V10.963C7.50865 10.7126 7.74624 10.5124 8.01987 10.3801C8.32007 10.228 8.65087 10.1514 8.98523 10.1566C9.38251 10.1491 9.77495 10.2476 10.1246 10.4426C10.4591 10.6312 10.7342 10.9148 10.9174 11.2599C11.1171 10.9305 11.3926 10.6572 11.7194 10.4645C12.0576 10.2589 12.4436 10.1525 12.836 10.1566ZM22.1522 10.2207L18.5858 18.9453H16.7156L18.0169 15.9355L15.7109 10.2207H17.6522L18.9626 13.9212L20.2638 10.2207H22.1522Z" fill="black"/>
</svg>
