<svg width="28" height="28" viewBox="0 0 28 28" fill="none" xmlns="http://www.w3.org/2000/svg">
<mask id="path-1-outside-1_8271_6402" maskUnits="userSpaceOnUse" x="1" y="1" width="26" height="26" fill="black">
<rect fill="white" x="1" y="1" width="26" height="26"/>
<path d="M15.1473 3.19104C15.2362 3.21352 15.3153 3.26477 15.3722 3.3368C15.4327 3.49262 15.4678 3.65711 15.4763 3.82405C15.4763 3.87402 15.4763 3.92399 15.4763 3.97397C15.4763 4.11556 15.5137 4.25715 15.5304 4.39042C15.5637 4.66111 15.597 4.94013 15.6429 5.22331C15.6847 5.45735 15.7822 5.67789 15.9272 5.86634C16.0721 6.05478 16.2603 6.2056 16.4757 6.30607C16.8422 6.47682 17.2295 6.63923 17.6293 6.78916C17.8539 6.87017 18.0948 6.89545 18.3312 6.8628C18.5677 6.83016 18.7927 6.74058 18.9869 6.60176C19.2951 6.37271 19.5991 6.13533 19.8906 5.90629L20.3071 5.57729C20.3835 5.50807 20.4795 5.4644 20.5819 5.45235C20.692 5.47022 20.7922 5.52624 20.8651 5.61061C21.3149 6.05621 21.8021 6.54345 22.3435 7.09316C22.5434 7.29306 22.5517 7.42216 22.3768 7.65121C21.9978 8.14678 21.6855 8.54657 21.3982 8.90055C21.2148 9.1142 21.0991 9.37751 21.0658 9.65706C21.0324 9.93661 21.0829 10.2198 21.2108 10.4706C21.3565 10.7746 21.4856 11.1077 21.5939 11.3909C21.6815 11.6457 21.8402 11.8701 22.0513 12.0376C22.2623 12.2051 22.5169 12.3088 22.785 12.3362L23.6761 12.4445C23.9093 12.4737 24.1467 12.507 24.3841 12.532C24.7131 12.5736 24.8005 12.7277 24.8005 12.9484V15.0307C24.8005 15.3222 24.6798 15.3971 24.4757 15.4471C23.9843 15.5304 23.4887 15.5845 22.964 15.6428H22.8432C22.563 15.6651 22.2955 15.7688 22.0735 15.9412C21.8515 16.1136 21.6848 16.3472 21.5939 16.6132C21.4856 16.9088 21.3524 17.2253 21.2066 17.5502C21.0879 17.7927 21.0416 18.0643 21.0734 18.3324C21.1051 18.6006 21.2136 18.8538 21.3857 19.0619C21.6897 19.4367 22.0062 19.8448 22.3893 20.3487C22.4292 20.3832 22.4607 20.4263 22.4813 20.4749C22.5019 20.5234 22.5112 20.576 22.5084 20.6286C22.5056 20.6813 22.4908 20.7326 22.4651 20.7786C22.4394 20.8247 22.4035 20.8642 22.3602 20.8943C21.8229 21.4356 21.3357 21.9229 20.8651 22.3893C20.7935 22.4695 20.6964 22.5224 20.5903 22.5392C20.4905 22.5295 20.3968 22.487 20.3237 22.4185C19.9073 22.102 19.4908 21.7646 19.0494 21.4273C18.7947 21.2141 18.4737 21.0963 18.1415 21.0942C17.9225 21.0962 17.7064 21.1459 17.5085 21.2399C17.2129 21.3773 16.9047 21.5064 16.5882 21.623C16.3208 21.7116 16.0858 21.8776 15.913 22.1001C15.7402 22.3226 15.6375 22.5914 15.6179 22.8724C15.6179 22.9598 15.6179 23.0473 15.5845 23.1389C15.5304 23.6387 15.4721 24.1092 15.393 24.5757C15.3816 24.6518 15.3418 24.7209 15.2815 24.7688C15.2212 24.8167 15.1449 24.84 15.0682 24.8339H12.8443C12.7645 24.839 12.6856 24.814 12.6231 24.7639C12.5607 24.7139 12.5193 24.6422 12.507 24.5632C12.4154 24.0259 12.3571 23.4846 12.2904 22.8974V22.8724C12.2643 22.591 12.1571 22.3233 11.982 22.1015C11.8068 21.8798 11.5711 21.7136 11.3035 21.623C11.0036 21.5148 10.6996 21.3898 10.3998 21.2524C10.201 21.1561 9.98344 21.1049 9.7626 21.1025C9.43383 21.1054 9.11613 21.2216 8.86309 21.4315C8.44664 21.7521 8.03017 22.0853 7.5929 22.4185C7.5153 22.489 7.41792 22.5341 7.31388 22.5476C7.19893 22.5255 7.09476 22.4653 7.0182 22.3768L5.58564 20.9484C5.37325 20.7318 5.36074 20.6111 5.54398 20.3737C5.90212 19.9031 6.20614 19.5075 6.51848 19.1244C6.70116 18.9103 6.81609 18.6467 6.84871 18.3672C6.88133 18.0877 6.83018 17.8047 6.70172 17.5543C6.58095 17.3045 6.46433 17.0171 6.32274 16.634C6.23527 16.3783 6.07606 16.1532 5.86412 15.9856C5.65218 15.818 5.39647 15.7149 5.12753 15.6887L4.39041 15.597L3.52422 15.4929C3.43284 15.4963 3.3433 15.4666 3.27212 15.4092C3.20094 15.3518 3.15293 15.2706 3.13692 15.1806V12.8526C3.19522 12.6527 3.26185 12.5778 3.52005 12.5445C3.93649 12.4862 4.51537 12.4154 5.09006 12.3529C5.36993 12.3296 5.63698 12.2255 5.85878 12.0532C6.08058 11.881 6.24757 11.648 6.33941 11.3826C6.46434 11.0369 6.58509 10.7454 6.71003 10.483C6.83743 10.2326 6.88838 9.95028 6.85654 9.67112C6.8247 9.39197 6.71148 9.12834 6.53096 8.91304C6.21029 8.51742 5.88964 8.08014 5.5773 7.69285V7.6637C5.39407 7.42632 5.4024 7.29722 5.60646 7.089L7.07234 5.6231C7.14654 5.53669 7.24783 5.47798 7.35969 5.45652C7.46636 5.46937 7.56659 5.5144 7.64704 5.58562C8.0385 5.88546 8.45495 6.21446 8.92554 6.58093C9.1283 6.7516 9.37584 6.86039 9.63869 6.89435C9.90154 6.92832 10.1686 6.88602 10.4081 6.7725C10.5663 6.7017 10.7288 6.63507 10.9037 6.56428L11.4784 6.31857C11.6928 6.21889 11.8803 6.06936 12.0252 5.88244C12.1701 5.69553 12.2682 5.47667 12.3113 5.24413C12.3529 4.96511 12.3862 4.69442 12.4195 4.41123C12.4195 4.26131 12.4529 4.11556 12.4737 3.9698L12.4987 3.77407C12.506 3.62072 12.5355 3.46923 12.5861 3.3243C12.6414 3.24528 12.7223 3.18788 12.8152 3.16189H15.1723M15.3555 2.00833H12.6402C12.2399 2.09513 11.8856 2.32641 11.645 2.65799C11.4437 3.01112 11.3349 3.40932 11.3285 3.81571C11.2743 4.23216 11.2368 4.64861 11.1702 5.04424C11.1576 5.08881 11.1359 5.1303 11.1065 5.16613C11.0771 5.20195 11.0407 5.23134 10.9995 5.25246C10.6455 5.41071 10.279 5.54814 9.92502 5.70639C9.88873 5.72446 9.84893 5.73441 9.80841 5.73554C9.74336 5.73082 9.68178 5.70443 9.6335 5.66058C9.21706 5.32325 8.77563 4.98593 8.34253 4.65277C8.06272 4.42552 7.71586 4.29673 7.35554 4.2863C7.14799 4.29298 6.94385 4.34098 6.75507 4.42751C6.56629 4.51403 6.39666 4.63733 6.25611 4.7902L4.78187 6.26026C4.49288 6.52206 4.31796 6.88666 4.29461 7.2759C4.27125 7.66514 4.40133 8.04803 4.65694 8.34251C4.98594 8.75895 5.31077 9.19623 5.64809 9.61267C5.69324 9.659 5.72116 9.71939 5.72722 9.78379C5.73328 9.84819 5.71712 9.91272 5.68141 9.96666C5.52733 10.2915 5.39407 10.6246 5.26497 10.9578C5.2493 11.0213 5.21299 11.0779 5.16174 11.1186C5.1105 11.1593 5.04722 11.1818 4.98178 11.1827C4.44873 11.2368 3.91567 11.3076 3.38261 11.3784C3.06841 11.4023 2.76975 11.5247 2.52902 11.728C2.2883 11.9314 2.11778 12.2054 2.04166 12.5112C2.04166 12.5361 2.01249 12.5611 2 12.5861V15.3513C2.01776 15.3934 2.03307 15.4365 2.04583 15.4804C2.12676 15.7882 2.30198 16.0629 2.54694 16.2661C2.79191 16.4692 3.09433 16.5906 3.41177 16.6132C3.94898 16.6715 4.48203 16.7464 5.01508 16.8089C5.07206 16.812 5.12647 16.8336 5.17006 16.8705C5.21364 16.9073 5.24403 16.9573 5.25663 17.013C5.38573 17.3545 5.52316 17.6959 5.67308 18.0249C5.70774 18.0798 5.72252 18.1449 5.71494 18.2093C5.70736 18.2737 5.67788 18.3336 5.63144 18.3789C5.29412 18.7954 4.96512 19.2118 4.64029 19.6532C4.38415 19.9484 4.25489 20.3327 4.28063 20.7226C4.30636 21.1126 4.48502 21.4766 4.77773 21.7355L6.2353 23.1931C6.37724 23.3478 6.54878 23.4725 6.73977 23.5598C6.93076 23.647 7.13731 23.6951 7.34721 23.7011C7.70434 23.691 8.04822 23.5637 8.32585 23.3388C8.7423 23.0098 9.19208 22.6725 9.61686 22.331C9.66565 22.2854 9.72919 22.2588 9.79593 22.256C9.84949 22.2599 9.90181 22.274 9.95001 22.2977C10.2748 22.4476 10.6038 22.585 10.9412 22.7141C11.0076 22.7301 11.0667 22.7679 11.109 22.8215C11.1514 22.8752 11.1744 22.9415 11.1744 23.0098C11.241 23.5928 11.3076 24.1717 11.4034 24.7506C11.4548 25.1004 11.6312 25.4197 11.8999 25.6494C12.1687 25.8791 12.5116 26.0037 12.8651 25.9999H15.114C15.4613 26.0026 15.7981 25.8811 16.0638 25.6574C16.3296 25.4337 16.5067 25.1224 16.5632 24.7797C16.6632 24.1967 16.7256 23.6053 16.7964 23.0181C16.7963 22.9531 16.818 22.8899 16.858 22.8385C16.898 22.7872 16.954 22.7508 17.0171 22.735C17.3586 22.61 17.7001 22.4684 18.0291 22.3185C18.0745 22.2958 18.1242 22.2831 18.1749 22.281C18.2448 22.284 18.3113 22.3121 18.3623 22.3602C18.7787 22.7016 19.2201 23.0348 19.6532 23.368C19.9278 23.5921 20.2693 23.7181 20.6236 23.7261C20.8271 23.7213 21.0276 23.6761 21.2134 23.5932C21.3993 23.5103 21.5668 23.3912 21.7063 23.243C22.2102 22.7433 22.7141 22.2436 23.2139 21.7355C23.4972 21.4765 23.6686 21.1174 23.6919 20.7342C23.7153 20.3511 23.5886 19.9739 23.3388 19.6824C23.0056 19.241 22.6683 18.8037 22.3185 18.3706C22.2801 18.3289 22.2563 18.2758 22.2511 18.2194C22.2458 18.1629 22.2593 18.1063 22.2894 18.0582C22.4393 17.7251 22.5809 17.3878 22.7058 17.0463C22.7219 16.9837 22.7578 16.9281 22.808 16.8876C22.8583 16.8471 22.9203 16.8238 22.9848 16.8214C23.5512 16.7589 24.1176 16.7006 24.6798 16.6048C25.0485 16.5591 25.3863 16.3758 25.6257 16.0916C25.8651 15.8075 25.9883 15.4434 25.9708 15.0723V12.9651C25.9879 12.5695 25.8492 12.1831 25.5844 11.8887C25.3196 11.5944 24.95 11.4156 24.5549 11.3909L22.9515 11.1952C22.8947 11.1914 22.8407 11.1696 22.7972 11.1328C22.7538 11.0961 22.7232 11.0465 22.71 10.9911C22.5809 10.6496 22.4476 10.3081 22.2935 9.97498C22.2605 9.92009 22.247 9.85561 22.2553 9.79207C22.2636 9.72853 22.2933 9.66969 22.3393 9.62517C22.6767 9.20872 23.0057 8.79227 23.3347 8.35084C23.5929 8.05723 23.7242 7.6733 23.7 7.28306C23.6758 6.89282 23.4981 6.52806 23.2056 6.2686C22.71 5.76886 22.2144 5.26912 21.7147 4.77771C21.5743 4.62773 21.4056 4.50707 21.2183 4.42272C21.0311 4.33837 20.8289 4.29201 20.6236 4.2863C20.266 4.29392 19.9213 4.42152 19.6449 4.64861C19.2035 4.9901 18.7704 5.33575 18.3289 5.66475C18.2775 5.69592 18.2183 5.71181 18.1582 5.71056C18.1278 5.71518 18.0969 5.71518 18.0666 5.71056C17.7001 5.57313 17.342 5.42321 16.988 5.26079C16.9437 5.23835 16.9048 5.20665 16.8739 5.16785C16.843 5.12905 16.8209 5.08404 16.8089 5.03591C16.7423 4.61946 16.7048 4.20301 16.6506 3.78656C16.6427 3.37178 16.5249 2.96654 16.3092 2.61218C16.0673 2.30286 15.726 2.08659 15.343 2L15.3555 2.00833Z"/>
</mask>
<path d="M15.1473 3.19104C15.2362 3.21352 15.3153 3.26477 15.3722 3.3368C15.4327 3.49262 15.4678 3.65711 15.4763 3.82405C15.4763 3.87402 15.4763 3.92399 15.4763 3.97397C15.4763 4.11556 15.5137 4.25715 15.5304 4.39042C15.5637 4.66111 15.597 4.94013 15.6429 5.22331C15.6847 5.45735 15.7822 5.67789 15.9272 5.86634C16.0721 6.05478 16.2603 6.2056 16.4757 6.30607C16.8422 6.47682 17.2295 6.63923 17.6293 6.78916C17.8539 6.87017 18.0948 6.89545 18.3312 6.8628C18.5677 6.83016 18.7927 6.74058 18.9869 6.60176C19.2951 6.37271 19.5991 6.13533 19.8906 5.90629L20.3071 5.57729C20.3835 5.50807 20.4795 5.4644 20.5819 5.45235C20.692 5.47022 20.7922 5.52624 20.8651 5.61061C21.3149 6.05621 21.8021 6.54345 22.3435 7.09316C22.5434 7.29306 22.5517 7.42216 22.3768 7.65121C21.9978 8.14678 21.6855 8.54657 21.3982 8.90055C21.2148 9.1142 21.0991 9.37751 21.0658 9.65706C21.0324 9.93661 21.0829 10.2198 21.2108 10.4706C21.3565 10.7746 21.4856 11.1077 21.5939 11.3909C21.6815 11.6457 21.8402 11.8701 22.0513 12.0376C22.2623 12.2051 22.5169 12.3088 22.785 12.3362L23.6761 12.4445C23.9093 12.4737 24.1467 12.507 24.3841 12.532C24.7131 12.5736 24.8005 12.7277 24.8005 12.9484V15.0307C24.8005 15.3222 24.6798 15.3971 24.4757 15.4471C23.9843 15.5304 23.4887 15.5845 22.964 15.6428H22.8432C22.563 15.6651 22.2955 15.7688 22.0735 15.9412C21.8515 16.1136 21.6848 16.3472 21.5939 16.6132C21.4856 16.9088 21.3524 17.2253 21.2066 17.5502C21.0879 17.7927 21.0416 18.0643 21.0734 18.3324C21.1051 18.6006 21.2136 18.8538 21.3857 19.0619C21.6897 19.4367 22.0062 19.8448 22.3893 20.3487C22.4292 20.3832 22.4607 20.4263 22.4813 20.4749C22.5019 20.5234 22.5112 20.576 22.5084 20.6286C22.5056 20.6813 22.4908 20.7326 22.4651 20.7786C22.4394 20.8247 22.4035 20.8642 22.3602 20.8943C21.8229 21.4356 21.3357 21.9229 20.8651 22.3893C20.7935 22.4695 20.6964 22.5224 20.5903 22.5392C20.4905 22.5295 20.3968 22.487 20.3237 22.4185C19.9073 22.102 19.4908 21.7646 19.0494 21.4273C18.7947 21.2141 18.4737 21.0963 18.1415 21.0942C17.9225 21.0962 17.7064 21.1459 17.5085 21.2399C17.2129 21.3773 16.9047 21.5064 16.5882 21.623C16.3208 21.7116 16.0858 21.8776 15.913 22.1001C15.7402 22.3226 15.6375 22.5914 15.6179 22.8724C15.6179 22.9598 15.6179 23.0473 15.5845 23.1389C15.5304 23.6387 15.4721 24.1092 15.393 24.5757C15.3816 24.6518 15.3418 24.7209 15.2815 24.7688C15.2212 24.8167 15.1449 24.84 15.0682 24.8339H12.8443C12.7645 24.839 12.6856 24.814 12.6231 24.7639C12.5607 24.7139 12.5193 24.6422 12.507 24.5632C12.4154 24.0259 12.3571 23.4846 12.2904 22.8974V22.8724C12.2643 22.591 12.1571 22.3233 11.982 22.1015C11.8068 21.8798 11.5711 21.7136 11.3035 21.623C11.0036 21.5148 10.6996 21.3898 10.3998 21.2524C10.201 21.1561 9.98344 21.1049 9.7626 21.1025C9.43383 21.1054 9.11613 21.2216 8.86309 21.4315C8.44664 21.7521 8.03017 22.0853 7.5929 22.4185C7.5153 22.489 7.41792 22.5341 7.31388 22.5476C7.19893 22.5255 7.09476 22.4653 7.0182 22.3768L5.58564 20.9484C5.37325 20.7318 5.36074 20.6111 5.54398 20.3737C5.90212 19.9031 6.20614 19.5075 6.51848 19.1244C6.70116 18.9103 6.81609 18.6467 6.84871 18.3672C6.88133 18.0877 6.83018 17.8047 6.70172 17.5543C6.58095 17.3045 6.46433 17.0171 6.32274 16.634C6.23527 16.3783 6.07606 16.1532 5.86412 15.9856C5.65218 15.818 5.39647 15.7149 5.12753 15.6887L4.39041 15.597L3.52422 15.4929C3.43284 15.4963 3.3433 15.4666 3.27212 15.4092C3.20094 15.3518 3.15293 15.2706 3.13692 15.1806V12.8526C3.19522 12.6527 3.26185 12.5778 3.52005 12.5445C3.93649 12.4862 4.51537 12.4154 5.09006 12.3529C5.36993 12.3296 5.63698 12.2255 5.85878 12.0532C6.08058 11.881 6.24757 11.648 6.33941 11.3826C6.46434 11.0369 6.58509 10.7454 6.71003 10.483C6.83743 10.2326 6.88838 9.95028 6.85654 9.67112C6.8247 9.39197 6.71148 9.12834 6.53096 8.91304C6.21029 8.51742 5.88964 8.08014 5.5773 7.69285V7.6637C5.39407 7.42632 5.4024 7.29722 5.60646 7.089L7.07234 5.6231C7.14654 5.53669 7.24783 5.47798 7.35969 5.45652C7.46636 5.46937 7.56659 5.5144 7.64704 5.58562C8.0385 5.88546 8.45495 6.21446 8.92554 6.58093C9.1283 6.7516 9.37584 6.86039 9.63869 6.89435C9.90154 6.92832 10.1686 6.88602 10.4081 6.7725C10.5663 6.7017 10.7288 6.63507 10.9037 6.56428L11.4784 6.31857C11.6928 6.21889 11.8803 6.06936 12.0252 5.88244C12.1701 5.69553 12.2682 5.47667 12.3113 5.24413C12.3529 4.96511 12.3862 4.69442 12.4195 4.41123C12.4195 4.26131 12.4529 4.11556 12.4737 3.9698L12.4987 3.77407C12.506 3.62072 12.5355 3.46923 12.5861 3.3243C12.6414 3.24528 12.7223 3.18788 12.8152 3.16189H15.1723M15.3555 2.00833H12.6402C12.2399 2.09513 11.8856 2.32641 11.645 2.65799C11.4437 3.01112 11.3349 3.40932 11.3285 3.81571C11.2743 4.23216 11.2368 4.64861 11.1702 5.04424C11.1576 5.08881 11.1359 5.1303 11.1065 5.16613C11.0771 5.20195 11.0407 5.23134 10.9995 5.25246C10.6455 5.41071 10.279 5.54814 9.92502 5.70639C9.88873 5.72446 9.84893 5.73441 9.80841 5.73554C9.74336 5.73082 9.68178 5.70443 9.6335 5.66058C9.21706 5.32325 8.77563 4.98593 8.34253 4.65277C8.06272 4.42552 7.71586 4.29673 7.35554 4.2863C7.14799 4.29298 6.94385 4.34098 6.75507 4.42751C6.56629 4.51403 6.39666 4.63733 6.25611 4.7902L4.78187 6.26026C4.49288 6.52206 4.31796 6.88666 4.29461 7.2759C4.27125 7.66514 4.40133 8.04803 4.65694 8.34251C4.98594 8.75895 5.31077 9.19623 5.64809 9.61267C5.69324 9.659 5.72116 9.71939 5.72722 9.78379C5.73328 9.84819 5.71712 9.91272 5.68141 9.96666C5.52733 10.2915 5.39407 10.6246 5.26497 10.9578C5.2493 11.0213 5.21299 11.0779 5.16174 11.1186C5.1105 11.1593 5.04722 11.1818 4.98178 11.1827C4.44873 11.2368 3.91567 11.3076 3.38261 11.3784C3.06841 11.4023 2.76975 11.5247 2.52902 11.728C2.2883 11.9314 2.11778 12.2054 2.04166 12.5112C2.04166 12.5361 2.01249 12.5611 2 12.5861V15.3513C2.01776 15.3934 2.03307 15.4365 2.04583 15.4804C2.12676 15.7882 2.30198 16.0629 2.54694 16.2661C2.79191 16.4692 3.09433 16.5906 3.41177 16.6132C3.94898 16.6715 4.48203 16.7464 5.01508 16.8089C5.07206 16.812 5.12647 16.8336 5.17006 16.8705C5.21364 16.9073 5.24403 16.9573 5.25663 17.013C5.38573 17.3545 5.52316 17.6959 5.67308 18.0249C5.70774 18.0798 5.72252 18.1449 5.71494 18.2093C5.70736 18.2737 5.67788 18.3336 5.63144 18.3789C5.29412 18.7954 4.96512 19.2118 4.64029 19.6532C4.38415 19.9484 4.25489 20.3327 4.28063 20.7226C4.30636 21.1126 4.48502 21.4766 4.77773 21.7355L6.2353 23.1931C6.37724 23.3478 6.54878 23.4725 6.73977 23.5598C6.93076 23.647 7.13731 23.6951 7.34721 23.7011C7.70434 23.691 8.04822 23.5637 8.32585 23.3388C8.7423 23.0098 9.19208 22.6725 9.61686 22.331C9.66565 22.2854 9.72919 22.2588 9.79593 22.256C9.84949 22.2599 9.90181 22.274 9.95001 22.2977C10.2748 22.4476 10.6038 22.585 10.9412 22.7141C11.0076 22.7301 11.0667 22.7679 11.109 22.8215C11.1514 22.8752 11.1744 22.9415 11.1744 23.0098C11.241 23.5928 11.3076 24.1717 11.4034 24.7506C11.4548 25.1004 11.6312 25.4197 11.8999 25.6494C12.1687 25.8791 12.5116 26.0037 12.8651 25.9999H15.114C15.4613 26.0026 15.7981 25.8811 16.0638 25.6574C16.3296 25.4337 16.5067 25.1224 16.5632 24.7797C16.6632 24.1967 16.7256 23.6053 16.7964 23.0181C16.7963 22.9531 16.818 22.8899 16.858 22.8385C16.898 22.7872 16.954 22.7508 17.0171 22.735C17.3586 22.61 17.7001 22.4684 18.0291 22.3185C18.0745 22.2958 18.1242 22.2831 18.1749 22.281C18.2448 22.284 18.3113 22.3121 18.3623 22.3602C18.7787 22.7016 19.2201 23.0348 19.6532 23.368C19.9278 23.5921 20.2693 23.7181 20.6236 23.7261C20.8271 23.7213 21.0276 23.6761 21.2134 23.5932C21.3993 23.5103 21.5668 23.3912 21.7063 23.243C22.2102 22.7433 22.7141 22.2436 23.2139 21.7355C23.4972 21.4765 23.6686 21.1174 23.6919 20.7342C23.7153 20.3511 23.5886 19.9739 23.3388 19.6824C23.0056 19.241 22.6683 18.8037 22.3185 18.3706C22.2801 18.3289 22.2563 18.2758 22.2511 18.2194C22.2458 18.1629 22.2593 18.1063 22.2894 18.0582C22.4393 17.7251 22.5809 17.3878 22.7058 17.0463C22.7219 16.9837 22.7578 16.9281 22.808 16.8876C22.8583 16.8471 22.9203 16.8238 22.9848 16.8214C23.5512 16.7589 24.1176 16.7006 24.6798 16.6048C25.0485 16.5591 25.3863 16.3758 25.6257 16.0916C25.8651 15.8075 25.9883 15.4434 25.9708 15.0723V12.9651C25.9879 12.5695 25.8492 12.1831 25.5844 11.8887C25.3196 11.5944 24.95 11.4156 24.5549 11.3909L22.9515 11.1952C22.8947 11.1914 22.8407 11.1696 22.7972 11.1328C22.7538 11.0961 22.7232 11.0465 22.71 10.9911C22.5809 10.6496 22.4476 10.3081 22.2935 9.97498C22.2605 9.92009 22.247 9.85561 22.2553 9.79207C22.2636 9.72853 22.2933 9.66969 22.3393 9.62517C22.6767 9.20872 23.0057 8.79227 23.3347 8.35084C23.5929 8.05723 23.7242 7.6733 23.7 7.28306C23.6758 6.89282 23.4981 6.52806 23.2056 6.2686C22.71 5.76886 22.2144 5.26912 21.7147 4.77771C21.5743 4.62773 21.4056 4.50707 21.2183 4.42272C21.0311 4.33837 20.8289 4.29201 20.6236 4.2863C20.266 4.29392 19.9213 4.42152 19.6449 4.64861C19.2035 4.9901 18.7704 5.33575 18.3289 5.66475C18.2775 5.69592 18.2183 5.71181 18.1582 5.71056C18.1278 5.71518 18.0969 5.71518 18.0666 5.71056C17.7001 5.57313 17.342 5.42321 16.988 5.26079C16.9437 5.23835 16.9048 5.20665 16.8739 5.16785C16.843 5.12905 16.8209 5.08404 16.8089 5.03591C16.7423 4.61946 16.7048 4.20301 16.6506 3.78656C16.6427 3.37178 16.5249 2.96654 16.3092 2.61218C16.0673 2.30286 15.726 2.08659 15.343 2L15.3555 2.00833Z" fill="black"/>
<path d="M15.3722 3.3368L15.5307 3.27528L15.5214 3.2515L15.5056 3.23148L15.3722 3.3368ZM15.4763 3.82405H15.6465L15.6461 3.81542L15.4763 3.82405ZM15.5304 4.39042L15.6991 4.36965L15.6991 4.36933L15.5304 4.39042ZM15.6429 5.22331L15.475 5.25046L15.4755 5.25323L15.6429 5.22331ZM16.4757 6.30607L16.4039 6.46015L16.404 6.46017L16.4757 6.30607ZM17.6293 6.78916L17.5696 6.94834L17.5716 6.94907L17.6293 6.78916ZM18.9869 6.60176L19.0858 6.74008L19.0884 6.7382L18.9869 6.60176ZM19.8906 5.90629L19.9957 6.03996L19.996 6.03968L19.8906 5.90629ZM20.3071 5.57729L20.4127 5.71099L20.4212 5.70327L20.3071 5.57729ZM20.5819 5.45235L20.6092 5.28455L20.5857 5.28074L20.5621 5.28352L20.5819 5.45235ZM20.8651 5.61061L20.7361 5.72208L20.7455 5.73137L20.8651 5.61061ZM22.3435 7.09316L22.2224 7.21245L22.2233 7.21337L22.3435 7.09316ZM22.3768 7.65121L22.5119 7.75447L22.5119 7.75438L22.3768 7.65121ZM21.3982 8.90055L21.5272 9.0113L21.5302 9.00769L21.3982 8.90055ZM21.2108 10.4706L21.3641 10.397L21.3622 10.3933L21.2108 10.4706ZM21.5939 11.3909L21.7547 11.3356L21.7527 11.3302L21.5939 11.3909ZM22.785 12.3362L22.8055 12.1675L22.8023 12.1671L22.785 12.3362ZM23.6761 12.4445L23.6972 12.2758L23.6966 12.2758L23.6761 12.4445ZM24.3841 12.532L24.4055 12.3633L24.4019 12.3629L24.3841 12.532ZM24.4757 15.4471L24.5042 15.6152L24.5162 15.6122L24.4757 15.4471ZM22.964 15.6428V15.8128H22.9734L22.9828 15.8118L22.964 15.6428ZM22.8432 15.6428V15.4723L22.8298 15.4734L22.8432 15.6428ZM21.5939 16.6132L21.7536 16.6716L21.7548 16.6682L21.5939 16.6132ZM21.2066 17.5502L21.3594 17.625L21.3617 17.6198L21.2066 17.5502ZM21.3857 19.0619L21.5177 18.9548L21.5167 18.9535L21.3857 19.0619ZM22.3893 20.3487L22.254 20.4516L22.2647 20.4657L22.2781 20.4773L22.3893 20.3487ZM22.3602 20.8943L22.2633 20.7545L22.2505 20.7634L22.2395 20.7745L22.3602 20.8943ZM20.8651 22.3893L20.7452 22.2683L20.7383 22.276L20.8651 22.3893ZM20.5903 22.5392L20.5737 22.7084L20.5954 22.7105L20.6169 22.7071L20.5903 22.5392ZM20.3237 22.4185L20.4401 22.2945L20.4336 22.2885L20.4266 22.2831L20.3237 22.4185ZM19.0494 21.4273L18.9402 21.5578L18.9462 21.5624L19.0494 21.4273ZM18.1415 21.0942L18.1426 20.9241L18.14 20.9242L18.1415 21.0942ZM17.5085 21.2399L17.5802 21.3941L17.5815 21.3935L17.5085 21.2399ZM16.5882 21.623L16.6417 21.7845L16.647 21.7826L16.5882 21.623ZM15.6179 22.8724L15.4479 22.8605V22.8724H15.6179ZM15.5845 23.1389L15.4248 23.0808L15.4177 23.1002L15.4155 23.1206L15.5845 23.1389ZM15.393 24.5757L15.2254 24.5472L15.2249 24.5506L15.393 24.5757ZM15.0682 24.8339L15.0817 24.6639H15.0682V24.8339ZM12.8443 24.8339V24.6635L12.8335 24.6642L12.8443 24.8339ZM12.507 24.5632L12.675 24.537L12.6746 24.5346L12.507 24.5632ZM12.2904 22.8974H12.1204V22.907L12.1215 22.9165L12.2904 22.8974ZM12.2904 22.8724H12.4604V22.8645L12.4597 22.8567L12.2904 22.8724ZM11.3035 21.623L11.2457 21.783L11.249 21.7841L11.3035 21.623ZM10.3998 21.2524L10.3256 21.4054L10.3289 21.4069L10.3998 21.2524ZM9.7626 21.1025L9.76448 20.9325L9.76112 20.9325L9.7626 21.1025ZM8.86309 21.4315L8.96687 21.5663L8.97163 21.5623L8.86309 21.4315ZM7.5929 22.4185L7.48987 22.2832L7.48398 22.2877L7.4785 22.2927L7.5929 22.4185ZM7.31388 22.5476L7.28185 22.7145L7.30863 22.7197L7.33568 22.7162L7.31388 22.5476ZM7.0182 22.3768L7.14714 22.2653L7.13823 22.2564L7.0182 22.3768ZM5.58564 20.9484L5.46426 21.0674L5.46561 21.0688L5.58564 20.9484ZM5.54398 20.3737L5.67855 20.4776L5.67926 20.4767L5.54398 20.3737ZM6.51848 19.1244L6.38913 19.014L6.38672 19.0169L6.51848 19.1244ZM6.70172 17.5543L6.54861 17.6283L6.55046 17.6319L6.70172 17.5543ZM6.32274 16.634L6.16184 16.689L6.16328 16.6929L6.32274 16.634ZM5.12753 15.6887L5.10656 15.8574L5.11103 15.8579L5.12753 15.6887ZM4.39041 15.597L4.41138 15.4283L4.4107 15.4282L4.39041 15.597ZM3.52422 15.4929L3.5445 15.3241L3.53122 15.3225L3.51785 15.323L3.52422 15.4929ZM3.13692 15.1806H2.96692V15.1956L2.96955 15.2104L3.13692 15.1806ZM3.13692 12.8526L2.97372 12.805L2.96692 12.8284V12.8526H3.13692ZM3.52005 12.5445L3.5418 12.7131L3.54362 12.7128L3.52005 12.5445ZM5.09006 12.3529L5.07596 12.1834L5.07169 12.1839L5.09006 12.3529ZM6.33941 11.3826L6.17952 11.3248L6.17876 11.327L6.33941 11.3826ZM6.71003 10.483L6.55846 10.4059L6.55654 10.41L6.71003 10.483ZM6.53096 8.91304L6.39887 9.0201L6.40069 9.02227L6.53096 8.91304ZM5.5773 7.69285H5.4073V7.75285L5.44497 7.79957L5.5773 7.69285ZM5.5773 7.6637H5.7473V7.60572L5.71187 7.55982L5.5773 7.6637ZM5.60646 7.089L5.48624 6.96879L5.48504 6.97001L5.60646 7.089ZM7.07234 5.6231L7.19289 5.74365L7.20131 5.73386L7.07234 5.6231ZM7.35969 5.45652L7.38001 5.28774L7.3537 5.28457L7.32766 5.28957L7.35969 5.45652ZM7.64704 5.58562L7.53407 5.71323L7.54367 5.72058L7.64704 5.58562ZM8.92554 6.58093L9.03509 6.45078L9.02999 6.44681L8.92554 6.58093ZM10.4081 6.7725L10.3387 6.61728L10.3353 6.61889L10.4081 6.7725ZM10.9037 6.56428L10.9675 6.72189L10.9705 6.72059L10.9037 6.56428ZM11.4784 6.31857L11.5452 6.47496L11.55 6.47273L11.4784 6.31857ZM12.3113 5.24413L12.4785 5.27511L12.4794 5.26922L12.3113 5.24413ZM12.4195 4.41123L12.5884 4.4311L12.5895 4.4212V4.41123H12.4195ZM12.4737 3.9698L12.642 3.99384L12.6423 3.99133L12.4737 3.9698ZM12.4987 3.77407L12.6678 3.79566L12.6685 3.78221L12.4987 3.77407ZM12.5861 3.3243L12.4468 3.2269L12.4334 3.2461L12.4257 3.26822L12.5861 3.3243ZM12.8152 3.16189V2.99189H12.7918L12.7693 2.99818L12.8152 3.16189ZM15.3555 2.00833V2.17833H15.9164L15.4499 1.86694L15.3555 2.00833ZM12.6402 2.00833V1.83833H12.622L12.6042 1.84219L12.6402 2.00833ZM11.645 2.65799L11.5074 2.55815L11.5019 2.56571L11.4973 2.57382L11.645 2.65799ZM11.3285 3.81571L11.497 3.83763L11.4983 3.82805L11.4984 3.8184L11.3285 3.81571ZM11.1702 5.04424L11.3338 5.0906L11.3363 5.08165L11.3378 5.07247L11.1702 5.04424ZM10.9995 5.25246L11.0689 5.40788L11.077 5.40376L10.9995 5.25246ZM9.92502 5.70639L9.85558 5.55106L9.84924 5.55421L9.92502 5.70639ZM9.80841 5.73554L9.79611 5.9051L9.80462 5.90571L9.81315 5.90548L9.80841 5.73554ZM9.6335 5.66058L9.74799 5.53454L9.74051 5.52848L9.6335 5.66058ZM8.34253 4.65277L8.23531 4.78478L8.23887 4.78752L8.34253 4.65277ZM7.35554 4.2863L7.36047 4.11606L7.35008 4.11639L7.35554 4.2863ZM6.25611 4.7902L6.37627 4.91069L6.38126 4.90526L6.25611 4.7902ZM4.78187 6.26026L4.89614 6.3864L4.90191 6.38064L4.78187 6.26026ZM4.65694 8.34251L4.79048 8.23701L4.78532 8.23107L4.65694 8.34251ZM5.64809 9.61267L5.51599 9.71968L5.5209 9.72574L5.52634 9.73132L5.64809 9.61267ZM5.68141 9.96666L5.53967 9.87281L5.533 9.88288L5.52782 9.8938L5.68141 9.96666ZM5.26497 10.9578L5.10645 10.8964L5.10251 10.9065L5.09991 10.9171L5.26497 10.9578ZM4.98178 11.1827L4.97954 11.0127L4.97206 11.0128L4.96461 11.0136L4.98178 11.1827ZM3.38261 11.3784L3.39554 11.5482L3.40499 11.5469L3.38261 11.3784ZM2.04166 12.5112L1.87669 12.4701L1.87166 12.4903V12.5112H2.04166ZM2 12.5861L1.84795 12.5101L1.83 12.546V12.5861H2ZM2 15.3513H1.83V15.3857L1.84336 15.4174L2 15.3513ZM2.04583 15.4804L2.21029 15.4372L2.20907 15.433L2.04583 15.4804ZM3.41177 16.6132L3.43012 16.444L3.42383 16.4436L3.41177 16.6132ZM5.01508 16.8089L4.99526 16.9781L5.00578 16.9786L5.01508 16.8089ZM5.25663 17.013L5.09082 17.0505L5.09343 17.062L5.09761 17.0731L5.25663 17.013ZM5.67308 18.0249L5.51838 18.0954L5.52318 18.106L5.52937 18.1157L5.67308 18.0249ZM5.63144 18.3789L5.51273 18.2572L5.50561 18.2642L5.49934 18.2719L5.63144 18.3789ZM4.64029 19.6532L4.7691 19.765L4.77722 19.754L4.64029 19.6532ZM4.77773 21.7355L4.89816 21.6151L4.89036 21.6081L4.77773 21.7355ZM6.2353 23.1931L6.36069 23.078L6.35551 23.0729L6.2353 23.1931ZM7.34721 23.7011L7.34232 23.8713L7.35203 23.871L7.34721 23.7011ZM8.32585 23.3388L8.22046 23.2054L8.21885 23.2067L8.32585 23.3388ZM9.61686 22.331L9.72367 22.4639L9.73295 22.4552L9.61686 22.331ZM9.79593 22.256L9.80801 22.0865L9.79848 22.0858L9.78893 22.0862L9.79593 22.256ZM9.95001 22.2977L9.875 22.4503L9.87877 22.452L9.95001 22.2977ZM10.9412 22.7141L10.8804 22.8729L10.8908 22.8769L10.9016 22.8795L10.9412 22.7141ZM11.1744 23.0098L11.0044 23.0098L11.0044 23.0195L11.0055 23.0291L11.1744 23.0098ZM11.4034 24.7506L11.5716 24.7259L11.5711 24.7228L11.4034 24.7506ZM12.8651 25.9999V25.8299L12.8633 25.8299L12.8651 25.9999ZM15.114 25.9999L15.1153 25.8299H15.114V25.9999ZM16.5632 24.7797L16.3957 24.751L16.3955 24.752L16.5632 24.7797ZM16.7964 23.0181L16.9652 23.0385L16.9664 23.0282L16.9664 23.0179L16.7964 23.0181ZM17.0171 22.735L17.0584 22.8999L17.0671 22.8977L17.0755 22.8946L17.0171 22.735ZM18.0291 22.3185L18.0996 22.4733L18.1051 22.4706L18.0291 22.3185ZM18.1749 22.281L18.1822 22.1106L18.1681 22.1112L18.1749 22.281ZM18.3623 22.3602L18.2454 22.4842L18.2545 22.4916L18.3623 22.3602ZM19.6532 23.368L19.7608 23.2362L19.7569 23.2332L19.6532 23.368ZM20.6236 23.7261L20.6198 23.8963L20.6276 23.8961L20.6236 23.7261ZM21.7063 23.243L21.5866 23.1223L21.5825 23.1265L21.7063 23.243ZM23.2139 21.7355L23.099 21.6098L23.0927 21.6163L23.2139 21.7355ZM23.3388 19.6824L23.2029 19.785L23.2097 19.793L23.3388 19.6824ZM22.3185 18.3706L22.4511 18.2635L22.4434 18.2552L22.3185 18.3706ZM22.2894 18.0582L22.4334 18.1485L22.4396 18.1386L22.4444 18.128L22.2894 18.0582ZM22.7058 17.0463L22.8655 17.1047L22.8684 17.0968L22.8705 17.0887L22.7058 17.0463ZM22.9848 16.8214L22.9913 16.9917L23.0035 16.9904L22.9848 16.8214ZM24.6798 16.6048L24.6588 16.436L24.6512 16.4373L24.6798 16.6048ZM25.9708 15.0723H25.8006L25.801 15.0803L25.9708 15.0723ZM25.9708 12.9651L25.8008 12.9577V12.9651H25.9708ZM24.5549 11.3909L24.5342 11.56L24.5442 11.5606L24.5549 11.3909ZM22.9515 11.1952L22.9721 11.0262L22.9628 11.0256L22.9515 11.1952ZM22.71 10.9911L22.8753 10.9516L22.8728 10.9411L22.869 10.931L22.71 10.9911ZM22.2935 9.97498L22.4478 9.90362L22.4439 9.8952L22.4392 9.88725L22.2935 9.97498ZM22.3393 9.62517L22.4575 9.74744L22.4649 9.74023L22.4714 9.73217L22.3393 9.62517ZM23.3347 8.35084L23.2066 8.2382L23.1984 8.24925L23.3347 8.35084ZM23.2056 6.2686L23.0846 6.38854L23.0928 6.39577L23.2056 6.2686ZM21.7147 4.77771L21.5904 4.89396L21.5955 4.89892L21.7147 4.77771ZM20.6236 4.2863L20.6283 4.11616L20.62 4.11634L20.6236 4.2863ZM19.6449 4.64861L19.749 4.78313L19.7528 4.77996L19.6449 4.64861ZM18.3289 5.66475L18.4171 5.8101L18.424 5.8059L18.4305 5.80105L18.3289 5.66475ZM18.1582 5.71056L18.1617 5.54059L18.1471 5.54029L18.1326 5.5425L18.1582 5.71056ZM18.0666 5.71056L18.0069 5.86973L18.0235 5.87595L18.041 5.87861L18.0666 5.71056ZM16.988 5.26079L16.911 5.41252L16.9171 5.4153L16.988 5.26079ZM16.8089 5.03591L16.641 5.06276L16.6422 5.0699L16.6439 5.07691L16.8089 5.03591ZM16.6506 3.78656L16.4807 3.78981L16.4809 3.79918L16.4821 3.80848L16.6506 3.78656ZM16.3092 2.61218L16.4544 2.52378L16.4492 2.51529L16.4431 2.50747L16.3092 2.61218ZM15.343 2L15.3805 1.83419L15.2486 2.14139L15.343 2ZM15.1473 3.19104L15.1056 3.35586C15.1583 3.36917 15.2051 3.3995 15.2387 3.44212L15.3722 3.3368L15.5056 3.23148C15.4256 3.13003 15.3142 3.05788 15.1889 3.02622L15.1473 3.19104ZM15.3722 3.3368L15.2137 3.39832C15.2676 3.53722 15.299 3.68386 15.3065 3.83267L15.4763 3.82405L15.6461 3.81542C15.6367 3.63037 15.5977 3.44802 15.5307 3.27528L15.3722 3.3368ZM15.4763 3.82405H15.3063C15.3063 3.87433 15.3063 3.92368 15.3063 3.97397H15.4763H15.6463C15.6463 3.92368 15.6463 3.87433 15.6463 3.82405H15.4763ZM15.4763 3.97397H15.3063C15.3063 4.05883 15.3175 4.14052 15.3293 4.21284C15.342 4.29017 15.3539 4.34891 15.3617 4.4115L15.5304 4.39042L15.6991 4.36933C15.6903 4.29866 15.6751 4.21997 15.6649 4.15779C15.6538 4.0906 15.6463 4.03069 15.6463 3.97397H15.4763ZM15.5304 4.39042L15.3617 4.41118C15.3949 4.68079 15.4286 4.9634 15.475 5.25046L15.6429 5.22331L15.8107 5.19617C15.7655 4.91685 15.7326 4.64142 15.6991 4.36965L15.5304 4.39042ZM15.6429 5.22331L15.4755 5.25323C15.5221 5.5141 15.6308 5.75993 15.7924 5.96999L15.9272 5.86634L16.0619 5.76269C15.9336 5.59585 15.8472 5.4006 15.8102 5.1934L15.6429 5.22331ZM15.9272 5.86634L15.7924 5.96999C15.954 6.18004 16.1637 6.34816 16.4039 6.46015L16.4757 6.30607L16.5476 6.152C16.3568 6.06305 16.1902 5.92952 16.0619 5.76269L15.9272 5.86634ZM16.4757 6.30607L16.404 6.46017C16.7745 6.63283 17.1659 6.79693 17.5696 6.94833L17.6293 6.78916L17.689 6.62998C17.2932 6.48154 16.9099 6.32081 16.5475 6.15198L16.4757 6.30607ZM17.6293 6.78916L17.5716 6.94907C17.8221 7.03943 18.0907 7.06761 18.3545 7.03121L18.3312 6.8628L18.308 6.6944C18.0988 6.72328 17.8857 6.70092 17.687 6.62925L17.6293 6.78916ZM18.3312 6.8628L18.3545 7.03121C18.6182 6.9948 18.8692 6.89489 19.0858 6.74006L18.9869 6.60176L18.8881 6.46345C18.7163 6.58627 18.5172 6.66552 18.308 6.6944L18.3312 6.8628ZM18.9869 6.60176L19.0884 6.7382C19.3985 6.50768 19.704 6.26909 19.9957 6.03996L19.8906 5.90629L19.7856 5.77261C19.4942 6.00158 19.1917 6.23773 18.8855 6.46531L18.9869 6.60176ZM19.8906 5.90629L19.996 6.03968L20.4125 5.71068L20.3071 5.57729L20.2017 5.44389L19.7852 5.77289L19.8906 5.90629ZM20.3071 5.57729L20.4212 5.70327C20.4714 5.65779 20.5345 5.6291 20.6018 5.62119L20.5819 5.45235L20.5621 5.28352C20.4246 5.29969 20.2955 5.35835 20.1929 5.45131L20.3071 5.57729ZM20.5819 5.45235L20.5547 5.62016C20.6253 5.63162 20.6897 5.66759 20.7365 5.72174L20.8651 5.61061L20.9937 5.49947C20.8948 5.3849 20.7586 5.30881 20.6092 5.28455L20.5819 5.45235ZM20.8651 5.61061L20.7455 5.73137C21.1948 6.17656 21.6816 6.6633 22.2224 7.21245L22.3435 7.09316L22.4646 6.97387C21.9227 6.4236 21.4349 5.93586 20.9848 5.48984L20.8651 5.61061ZM22.3435 7.09316L22.2233 7.21337C22.3166 7.30671 22.3298 7.35072 22.331 7.37153C22.3323 7.39318 22.3239 7.44035 22.2417 7.54803L22.3768 7.65121L22.5119 7.75438C22.6046 7.63301 22.6795 7.50111 22.6704 7.35098C22.6613 7.19999 22.5703 7.07951 22.4637 6.97295L22.3435 7.09316ZM22.3768 7.65121L22.2418 7.54794C21.8633 8.04284 21.5521 8.4412 21.2662 8.79341L21.3982 8.90055L21.5302 9.00769C21.8189 8.65194 22.1324 8.25072 22.5119 7.75447L22.3768 7.65121ZM21.3982 8.90055L21.2692 8.78984C21.0639 9.02906 20.9343 9.3239 20.897 9.63691L21.0658 9.65706L21.2346 9.67721C21.2639 9.43113 21.3658 9.19933 21.5272 9.01126L21.3982 8.90055ZM21.0658 9.65706L20.897 9.63691C20.8596 9.94992 20.9161 10.267 21.0593 10.5478L21.2108 10.4706L21.3622 10.3933C21.2496 10.1725 21.2052 9.92329 21.2346 9.67721L21.0658 9.65706ZM21.2108 10.4706L21.0575 10.5441C21.1998 10.841 21.3267 11.1681 21.4351 11.4516L21.5939 11.3909L21.7527 11.3302C21.6445 11.0474 21.5132 10.7081 21.3641 10.3971L21.2108 10.4706ZM21.5939 11.3909L21.4331 11.4462C21.5313 11.7317 21.7091 11.9831 21.9456 12.1708L22.0513 12.0376L22.1569 11.9045C21.9713 11.7571 21.8317 11.5598 21.7547 11.3356L21.5939 11.3909ZM22.0513 12.0376L21.9456 12.1708C22.182 12.3585 22.4673 12.4746 22.7676 12.5054L22.785 12.3362L22.8023 12.1671C22.5665 12.143 22.3426 12.0518 22.1569 11.9045L22.0513 12.0376ZM22.785 12.3362L22.7644 12.505L23.6556 12.6133L23.6761 12.4445L23.6966 12.2758L22.8055 12.1675L22.785 12.3362ZM23.6761 12.4445L23.655 12.6132C23.8848 12.6419 24.1268 12.6758 24.3663 12.701L24.3841 12.532L24.4019 12.3629C24.1666 12.3381 23.9339 12.3054 23.6972 12.2758L23.6761 12.4445ZM24.3841 12.532L24.3627 12.7006C24.5062 12.7188 24.5635 12.7576 24.5883 12.7856C24.6123 12.8128 24.6305 12.858 24.6305 12.9484H24.8005H24.9705C24.9705 12.8181 24.945 12.6759 24.8431 12.5605C24.7419 12.4459 24.591 12.3868 24.4054 12.3633L24.3841 12.532ZM24.8005 12.9484H24.6305V15.0307H24.8005H24.9705V12.9484H24.8005ZM24.8005 15.0307H24.6305C24.6305 15.1554 24.6045 15.1979 24.5887 15.2153C24.5693 15.2367 24.5317 15.2584 24.4353 15.282L24.4757 15.4471L24.5162 15.6122C24.6238 15.5859 24.7486 15.5451 24.8406 15.4437C24.9362 15.3382 24.9705 15.1974 24.9705 15.0307H24.8005ZM24.4757 15.4471L24.4473 15.2795C23.9616 15.3618 23.4712 15.4154 22.9452 15.4739L22.964 15.6428L22.9828 15.8118C23.5063 15.7536 24.007 15.699 24.5041 15.6147L24.4757 15.4471ZM22.964 15.6428V15.4728H22.8432V15.6428V15.8128H22.964V15.6428ZM22.8432 15.6428L22.8298 15.4734C22.5165 15.4983 22.2174 15.6142 21.9692 15.807L22.0735 15.9412L22.1778 16.0755C22.3736 15.9234 22.6096 15.8319 22.8567 15.8123L22.8432 15.6428ZM22.0735 15.9412L21.9692 15.807C21.7211 15.9997 21.5347 16.2608 21.433 16.5582L21.5939 16.6132L21.7548 16.6682C21.8349 16.4336 21.982 16.2276 22.1778 16.0755L22.0735 15.9412ZM21.5939 16.6132L21.4343 16.5547C21.3279 16.8452 21.1963 17.1578 21.0515 17.4806L21.2066 17.5502L21.3617 17.6198C21.5084 17.2929 21.6434 16.9724 21.7535 16.6716L21.5939 16.6132ZM21.2066 17.5502L21.0539 17.4754C20.9208 17.7473 20.8689 18.0518 20.9046 18.3524L21.0734 18.3324L21.2422 18.3124C21.2143 18.0768 21.2549 17.8381 21.3593 17.6249L21.2066 17.5502ZM21.0734 18.3324L20.9046 18.3524C20.9402 18.653 21.0617 18.937 21.2547 19.1702L21.3857 19.0619L21.5167 18.9535C21.3654 18.7707 21.2701 18.5481 21.2422 18.3124L21.0734 18.3324ZM21.3857 19.0619L21.2536 19.169C21.556 19.5418 21.8713 19.9483 22.254 20.4516L22.3893 20.3487L22.5246 20.2458C22.1411 19.7413 21.8233 19.3316 21.5177 18.9548L21.3857 19.0619ZM22.3893 20.3487L22.2781 20.4773C22.2984 20.4948 22.3144 20.5168 22.3249 20.5414L22.4813 20.4749L22.6377 20.4083C22.6069 20.3359 22.56 20.2716 22.5005 20.2201L22.3893 20.3487ZM22.4813 20.4749L22.3249 20.5414C22.3354 20.5661 22.3401 20.5928 22.3386 20.6196L22.5084 20.6286L22.6782 20.6377C22.6824 20.5592 22.6685 20.4807 22.6377 20.4083L22.4813 20.4749ZM22.5084 20.6286L22.3386 20.6196C22.3372 20.6463 22.3297 20.6724 22.3166 20.6958L22.4651 20.7786L22.6135 20.8615C22.6519 20.7928 22.674 20.7162 22.6782 20.6377L22.5084 20.6286ZM22.4651 20.7786L22.3166 20.6958C22.3036 20.7192 22.2854 20.7393 22.2633 20.7545L22.3602 20.8943L22.457 21.034C22.5216 20.9892 22.5752 20.9302 22.6135 20.8615L22.4651 20.7786ZM22.3602 20.8943L22.2395 20.7745C21.7026 21.3156 21.2156 21.8025 20.7454 22.2686L20.8651 22.3893L20.9848 22.5101C21.4557 22.0433 21.9433 21.5557 22.4808 21.014L22.3602 20.8943ZM20.8651 22.3893L20.7383 22.276C20.6928 22.327 20.6311 22.3606 20.5637 22.3713L20.5903 22.5392L20.6169 22.7071C20.7617 22.6842 20.8942 22.6119 20.9919 22.5026L20.8651 22.3893ZM20.5903 22.5392L20.6068 22.37C20.5444 22.3639 20.4858 22.3374 20.4401 22.2945L20.3237 22.4185L20.2074 22.5424C20.3078 22.6367 20.4367 22.6951 20.5737 22.7084L20.5903 22.5392ZM20.3237 22.4185L20.4266 22.2831C20.2196 22.1258 20.0124 21.9632 19.801 21.797C19.5898 21.6311 19.3744 21.4617 19.1526 21.2922L19.0494 21.4273L18.9462 21.5624C19.1658 21.7302 19.3794 21.8982 19.5909 22.0644C19.8021 22.2303 20.0114 22.3946 20.2209 22.5538L20.3237 22.4185ZM19.0494 21.4273L19.1585 21.297C18.8735 21.0584 18.5143 20.9265 18.1426 20.9242L18.1415 21.0942L18.1405 21.2642C18.4331 21.266 18.7159 21.3698 18.9403 21.5577L19.0494 21.4273ZM18.1415 21.0942L18.14 20.9242C17.8962 20.9264 17.6558 20.9817 17.4356 21.0864L17.5085 21.2399L17.5815 21.3935C17.7571 21.3101 17.9487 21.2659 18.1431 21.2642L18.1415 21.0942ZM17.5085 21.2399L17.4369 21.0857C17.1452 21.2213 16.8414 21.3486 16.5294 21.4635L16.5882 21.623L16.647 21.7826C16.968 21.6643 17.2805 21.5334 17.5802 21.3941L17.5085 21.2399ZM16.5882 21.623L16.5348 21.4617C16.2353 21.5608 15.9722 21.7467 15.7787 21.9958L15.913 22.1001L16.0472 22.2044C16.1993 22.0085 16.4062 21.8624 16.6416 21.7844L16.5882 21.623ZM15.913 22.1001L15.7787 21.9958C15.5852 22.2449 15.4702 22.5459 15.4483 22.8606L15.6179 22.8724L15.7875 22.8842C15.8047 22.6369 15.8951 22.4002 16.0472 22.2044L15.913 22.1001ZM15.6179 22.8724H15.4479C15.4479 22.9628 15.4464 23.0212 15.4248 23.0808L15.5845 23.1389L15.7443 23.197C15.7893 23.0734 15.7879 22.9569 15.7879 22.8724H15.6179ZM15.5845 23.1389L15.4155 23.1206C15.3615 23.6189 15.3037 24.0857 15.2254 24.5472L15.393 24.5757L15.5606 24.6041C15.6405 24.1328 15.6993 23.6584 15.7536 23.1572L15.5845 23.1389ZM15.393 24.5757L15.2249 24.5506C15.2198 24.5842 15.2023 24.6146 15.1757 24.6357L15.2815 24.7688L15.3873 24.9019C15.4813 24.8271 15.5434 24.7195 15.5611 24.6007L15.393 24.5757ZM15.2815 24.7688L15.1757 24.6357C15.1491 24.6568 15.1155 24.6671 15.0817 24.6644L15.0682 24.8339L15.0546 25.0033C15.1743 25.0129 15.2932 24.9766 15.3873 24.9019L15.2815 24.7688ZM15.0682 24.8339V24.6639H12.8443V24.8339V25.0039H15.0682V24.8339ZM12.8443 24.8339L12.8335 24.6642C12.7959 24.6666 12.7589 24.6549 12.7295 24.6314L12.6231 24.7639L12.5167 24.8965C12.6123 24.9732 12.733 25.0113 12.8552 25.0035L12.8443 24.8339ZM12.6231 24.7639L12.7295 24.6314C12.7002 24.6078 12.6808 24.5742 12.675 24.537L12.507 24.5632L12.339 24.5893C12.3579 24.7103 12.4212 24.8199 12.5167 24.8965L12.6231 24.7639ZM12.507 24.5632L12.6746 24.5346C12.584 24.0031 12.5262 23.4673 12.4594 22.8782L12.2904 22.8974L12.1215 22.9165C12.188 23.5019 12.2468 24.0488 12.3394 24.5917L12.507 24.5632ZM12.2904 22.8974H12.4604V22.8724H12.2904H12.1204V22.8974H12.2904ZM12.2904 22.8724L12.4597 22.8567C12.4305 22.5426 12.3109 22.2437 12.1154 21.9962L11.982 22.1015L11.8486 22.2069C12.0034 22.4029 12.0981 22.6395 12.1212 22.8881L12.2904 22.8724ZM11.982 22.1015L12.1154 21.9962C11.9198 21.7486 11.6568 21.5631 11.358 21.462L11.3035 21.623L11.249 21.7841C11.4855 21.8641 11.6938 22.011 11.8486 22.2069L11.982 22.1015ZM11.3035 21.623L11.3612 21.4631C11.0661 21.3566 10.7664 21.2334 10.4706 21.0979L10.3998 21.2524L10.3289 21.4069C10.6328 21.5462 10.9412 21.673 11.2457 21.7829L11.3035 21.623ZM10.3998 21.2524L10.4739 21.0994C10.2526 20.9922 10.0104 20.9352 9.76448 20.9325L9.7626 21.1025L9.76073 21.2725C9.95653 21.2746 10.1494 21.32 10.3257 21.4054L10.3998 21.2524ZM9.7626 21.1025L9.76112 20.9325C9.39322 20.9357 9.0377 21.0657 8.75454 21.3006L8.86309 21.4315L8.97163 21.5623C9.19456 21.3774 9.47445 21.275 9.76409 21.2725L9.7626 21.1025ZM8.86309 21.4315L8.75937 21.2968C8.33741 21.6217 7.9289 21.9487 7.48987 22.2832L7.5929 22.4185L7.69593 22.5537C8.13144 22.2219 8.55586 21.8826 8.9668 21.5662L8.86309 21.4315ZM7.5929 22.4185L7.4785 22.2927C7.42666 22.3399 7.36159 22.37 7.29209 22.379L7.31388 22.5476L7.33568 22.7162C7.47424 22.6982 7.60395 22.6382 7.70729 22.5442L7.5929 22.4185ZM7.31388 22.5476L7.34592 22.3806C7.2685 22.3657 7.19834 22.3252 7.14679 22.2656L7.0182 22.3768L6.88961 22.488C6.99117 22.6055 7.12936 22.6853 7.28185 22.7145L7.31388 22.5476ZM7.0182 22.3768L7.13823 22.2564L5.70567 20.828L5.58564 20.9484L5.46561 21.0688L6.89816 22.4972L7.0182 22.3768ZM5.58564 20.9484L5.70701 20.8294C5.60346 20.7238 5.58764 20.6775 5.58594 20.6557C5.58443 20.6363 5.59083 20.5912 5.67855 20.4776L5.54398 20.3737L5.40941 20.2698C5.3139 20.3936 5.23493 20.5276 5.24696 20.6821C5.25881 20.8341 5.35543 20.9565 5.46427 21.0674L5.58564 20.9484ZM5.54398 20.3737L5.67926 20.4767C6.03733 20.0062 6.33986 19.6125 6.65024 19.2318L6.51848 19.1244L6.38672 19.0169C6.07243 19.4025 5.76692 19.8001 5.4087 20.2707L5.54398 20.3737ZM6.51848 19.1244L6.6478 19.2347C6.85235 18.995 6.98103 18.6999 7.01756 18.3869L6.84871 18.3672L6.67986 18.3475C6.65114 18.5936 6.54996 18.8256 6.38916 19.014L6.51848 19.1244ZM6.84871 18.3672L7.01756 18.3869C7.05409 18.0739 6.99682 17.7571 6.85297 17.4767L6.70172 17.5543L6.55046 17.6319C6.66355 17.8524 6.70858 18.1014 6.67986 18.3475L6.84871 18.3672ZM6.70172 17.5543L6.85478 17.4804C6.73747 17.2377 6.62303 16.9561 6.48219 16.5751L6.32274 16.634L6.16328 16.6929C6.30563 17.0781 6.42443 17.3713 6.54866 17.6283L6.70172 17.5543ZM6.32274 16.634L6.48358 16.579C6.38555 16.2924 6.20711 16.0401 5.96958 15.8523L5.86412 15.9856L5.75866 16.1189C5.945 16.2663 6.08499 16.4642 6.16189 16.689L6.32274 16.634ZM5.86412 15.9856L5.96958 15.8523C5.73205 15.6644 5.44546 15.5488 5.14403 15.5195L5.12753 15.6887L5.11103 15.8579C5.34749 15.8809 5.57231 15.9715 5.75866 16.1189L5.86412 15.9856ZM5.12753 15.6887L5.1485 15.52L4.41138 15.4283L4.39041 15.597L4.36944 15.7657L5.10656 15.8574L5.12753 15.6887ZM4.39041 15.597L4.4107 15.4282L3.5445 15.3241L3.52422 15.4929L3.50393 15.6617L4.37012 15.7658L4.39041 15.597ZM3.52422 15.4929L3.51785 15.323C3.46746 15.3249 3.41808 15.3085 3.37884 15.2769L3.27212 15.4092L3.1654 15.5415C3.26851 15.6247 3.39822 15.6678 3.53058 15.6628L3.52422 15.4929ZM3.27212 15.4092L3.37884 15.2769C3.3396 15.2452 3.31313 15.2005 3.30429 15.1508L3.13692 15.1806L2.96955 15.2104C2.99274 15.3407 3.06228 15.4584 3.1654 15.5415L3.27212 15.4092ZM3.13692 15.1806H3.30692V12.8526H3.13692H2.96692V15.1806H3.13692ZM3.13692 12.8526L3.30012 12.9002C3.32738 12.8068 3.34734 12.7795 3.36376 12.7655C3.38143 12.7505 3.4217 12.7286 3.5418 12.7131L3.52005 12.5445L3.49829 12.3759C3.3602 12.3937 3.23805 12.4259 3.14328 12.5067C3.04727 12.5885 3.00476 12.6986 2.97372 12.805L3.13692 12.8526ZM3.52005 12.5445L3.54362 12.7128C3.95788 12.6548 4.53494 12.5842 5.10843 12.5219L5.09006 12.3529L5.07169 12.1839C4.49579 12.2465 3.91511 12.3175 3.49648 12.3761L3.52005 12.5445ZM5.09006 12.3529L5.10417 12.5223C5.41687 12.4963 5.71525 12.38 5.96306 12.1875L5.85878 12.0532L5.7545 11.919C5.55872 12.071 5.323 12.1629 5.07596 12.1835L5.09006 12.3529ZM5.85878 12.0532L5.96306 12.1875C6.21087 11.995 6.39745 11.7347 6.50006 11.4382L6.33941 11.3826L6.17876 11.327C6.09769 11.5612 5.95029 11.7669 5.7545 11.919L5.85878 12.0532ZM6.33941 11.3826L6.49929 11.4404C6.62269 11.0989 6.74136 10.8127 6.86352 10.5561L6.71003 10.483L6.55654 10.41C6.42883 10.6782 6.306 10.9749 6.17953 11.3248L6.33941 11.3826ZM6.71003 10.483L6.86155 10.5601C7.00407 10.28 7.06106 9.96414 7.02544 9.65186L6.85654 9.67112L6.68763 9.69039C6.7157 9.93642 6.67079 10.1853 6.55851 10.406L6.71003 10.483ZM6.85654 9.67112L7.02544 9.65186C6.98983 9.33958 6.86317 9.04467 6.66123 8.80382L6.53096 8.91304L6.40069 9.02227C6.55979 9.21202 6.65957 9.44436 6.68763 9.69039L6.85654 9.67112ZM6.53096 8.91304L6.66303 8.806C6.50428 8.61015 6.34524 8.40362 6.18578 8.19621C6.02681 7.98944 5.86728 7.78162 5.70963 7.58613L5.5773 7.69285L5.44497 7.79957C5.59966 7.99137 5.75663 8.19584 5.91624 8.40344C6.07535 8.61039 6.23697 8.82032 6.39889 9.02009L6.53096 8.91304ZM5.5773 7.69285H5.7473V7.6637H5.5773H5.4073V7.69285H5.5773ZM5.5773 7.6637L5.71187 7.55982C5.62487 7.44711 5.61516 7.39782 5.6164 7.37446C5.6176 7.35197 5.63151 7.30632 5.72787 7.20799L5.60646 7.089L5.48504 6.97001C5.37735 7.0799 5.28506 7.20291 5.27688 7.35638C5.26876 7.50897 5.3465 7.64291 5.44273 7.76758L5.5773 7.6637ZM5.60646 7.089L5.72667 7.20921L7.19255 5.74331L7.07234 5.6231L6.95213 5.50289L5.48625 6.96879L5.60646 7.089ZM7.07234 5.6231L7.20131 5.73386C7.25047 5.6766 7.31759 5.6377 7.39171 5.62348L7.35969 5.45652L7.32766 5.28957C7.17807 5.31826 7.04261 5.39678 6.94337 5.51234L7.07234 5.6231ZM7.35969 5.45652L7.33936 5.6253C7.41175 5.63402 7.47976 5.66458 7.53435 5.7129L7.64704 5.58562L7.75973 5.45834C7.65342 5.36422 7.52097 5.30472 7.38001 5.28774L7.35969 5.45652ZM7.64704 5.58562L7.54367 5.72058C7.93446 6.01991 8.34916 6.34754 8.82109 6.71506L8.92554 6.58093L9.02999 6.44681C8.56075 6.08138 8.14254 5.75101 7.75041 5.45066L7.64704 5.58562ZM8.92554 6.58093L8.81607 6.71099C9.04376 6.90264 9.32174 7.02481 9.61691 7.06295L9.63869 6.89435L9.66048 6.72576C9.42995 6.69597 9.21284 6.60055 9.03501 6.45087L8.92554 6.58093ZM9.63869 6.89435L9.61691 7.06295C9.91207 7.10109 10.212 7.0536 10.4809 6.92612L10.4081 6.7725L10.3353 6.61889C10.1252 6.71845 9.891 6.75554 9.66048 6.72576L9.63869 6.89435ZM10.4081 6.7725L10.4775 6.92768C10.6327 6.85824 10.7927 6.79259 10.9675 6.72186L10.9037 6.56428L10.8399 6.4067C10.6648 6.47755 10.4999 6.54517 10.3387 6.61732L10.4081 6.7725ZM10.9037 6.56428L10.9705 6.72059L11.5452 6.47488L11.4784 6.31857L11.4115 6.16225L10.8368 6.40796L10.9037 6.56428ZM11.4784 6.31857L11.55 6.47273C11.7891 6.36162 11.9981 6.19495 12.1596 5.9866L12.0252 5.88244L11.8909 5.77829C11.7626 5.94377 11.5966 6.07616 11.4067 6.1644L11.4784 6.31857ZM12.0252 5.88244L12.1596 5.9866C12.3211 5.77825 12.4304 5.53429 12.4784 5.27509L12.3113 5.24413L12.1441 5.21317C12.106 5.41905 12.0192 5.61282 11.8909 5.77829L12.0252 5.88244ZM12.3113 5.24413L12.4794 5.26922C12.5214 4.98752 12.555 4.71471 12.5884 4.4311L12.4195 4.41123L12.2507 4.39137C12.2174 4.67412 12.1844 4.9427 12.1431 5.21903L12.3113 5.24413ZM12.4195 4.41123H12.5895C12.5895 4.27736 12.6185 4.15827 12.642 3.99384L12.4737 3.9698L12.3054 3.94576C12.2872 4.07284 12.2495 4.24526 12.2495 4.41123H12.4195ZM12.4737 3.9698L12.6423 3.99133L12.6673 3.79559L12.4987 3.77407L12.33 3.75254L12.3051 3.94827L12.4737 3.9698ZM12.4987 3.77407L12.6685 3.78221C12.675 3.64521 12.7014 3.50987 12.7466 3.38038L12.5861 3.3243L12.4257 3.26822C12.3696 3.42859 12.337 3.59622 12.3289 3.76592L12.4987 3.77407ZM12.5861 3.3243L12.7255 3.42171C12.7582 3.37494 12.8061 3.34098 12.861 3.32559L12.8152 3.16189L12.7693 2.99818C12.6386 3.03478 12.5246 3.11562 12.4468 3.2269L12.5861 3.3243ZM12.8152 3.16189V3.33189H15.1723V3.16189V2.99189H12.8152V3.16189ZM15.3555 2.00833V1.83833H12.6402V2.00833V2.17833H15.3555V2.00833ZM12.6402 2.00833L12.6042 1.84219C12.163 1.93785 11.7725 2.19274 11.5074 2.55815L11.645 2.65799L11.7826 2.75783C11.9986 2.46009 12.3168 2.25241 12.6763 2.17447L12.6402 2.00833ZM11.645 2.65799L11.4973 2.57382C11.2819 2.95181 11.1653 3.37804 11.1585 3.81303L11.3285 3.81571L11.4984 3.8184C11.5044 3.44061 11.6056 3.07043 11.7927 2.74215L11.645 2.65799ZM11.3285 3.81571L11.1599 3.7938C11.1045 4.22005 11.0686 4.62388 11.0026 5.016L11.1702 5.04424L11.3378 5.07247C11.4051 4.67334 11.4442 4.24428 11.497 3.83763L11.3285 3.81571ZM11.1702 5.04424L11.0066 4.99787C11.0004 5.01997 10.9896 5.04056 10.975 5.05833L11.1065 5.16613L11.238 5.27392C11.2821 5.22005 11.3148 5.15764 11.3338 5.0906L11.1702 5.04424ZM11.1065 5.16613L10.975 5.05833C10.9605 5.07612 10.9424 5.09069 10.922 5.10116L10.9995 5.25246L11.077 5.40376C11.139 5.37199 11.1938 5.32779 11.238 5.27392L11.1065 5.16613ZM10.9995 5.25246L10.9301 5.09726C10.7559 5.17513 10.5782 5.24806 10.3977 5.32215C10.218 5.3959 10.0354 5.47081 9.85564 5.55119L9.92502 5.70639L9.99441 5.86158C10.1686 5.78371 10.3463 5.71078 10.5268 5.63669C10.7065 5.56295 10.8891 5.48804 11.0688 5.40766L10.9995 5.25246ZM9.92502 5.70639L9.84924 5.55421C9.83506 5.56128 9.8195 5.56517 9.80367 5.56561L9.80841 5.73554L9.81315 5.90548C9.87836 5.90366 9.94241 5.88764 10.0008 5.85856L9.92502 5.70639ZM9.80841 5.73554L9.8207 5.56599C9.7936 5.56402 9.76794 5.55302 9.7478 5.53474L9.6335 5.66058L9.51921 5.78642C9.59563 5.85583 9.69312 5.89763 9.79611 5.9051L9.80841 5.73554ZM9.6335 5.66058L9.74051 5.52848C9.32199 5.18948 8.8785 4.85059 8.44618 4.51803L8.34253 4.65277L8.23887 4.78752C8.67276 5.12128 9.11212 5.45703 9.5265 5.79268L9.6335 5.66058ZM8.34253 4.65277L8.4497 4.52081C8.1409 4.27001 7.75811 4.12788 7.36046 4.11637L7.35554 4.2863L7.35063 4.45623C7.67361 4.46558 7.98453 4.58102 8.23535 4.78473L8.34253 4.65277ZM7.35554 4.2863L7.35008 4.11639C7.11993 4.12379 6.89357 4.17702 6.68424 4.27297L6.75507 4.42751L6.8259 4.58205C6.99413 4.50494 7.17605 4.46217 7.36101 4.45622L7.35554 4.2863ZM6.75507 4.42751L6.68424 4.27297C6.47491 4.36891 6.28682 4.50563 6.13097 4.67514L6.25611 4.7902L6.38126 4.90526C6.50651 4.76903 6.65767 4.65915 6.8259 4.58205L6.75507 4.42751ZM6.25611 4.7902L6.13608 4.66982L4.66183 6.13989L4.78187 6.26026L4.90191 6.38064L6.37615 4.91058L6.25611 4.7902ZM4.78187 6.26026L4.66774 6.13427C4.34579 6.42592 4.15093 6.83209 4.12491 7.26572L4.29461 7.2759L4.4643 7.28608C4.485 6.94122 4.63997 6.6182 4.89601 6.38625L4.78187 6.26026ZM4.29461 7.2759L4.12491 7.26572C4.0989 7.69934 4.2438 8.1259 4.52856 8.45395L4.65694 8.34251L4.78532 8.23107C4.55885 7.97017 4.44361 7.63094 4.4643 7.28608L4.29461 7.2759ZM4.65694 8.34251L4.52355 8.44789C4.84667 8.8569 5.17948 9.30422 5.51599 9.71968L5.64809 9.61267L5.78019 9.50567C5.44206 9.08823 5.12521 8.66101 4.79034 8.23712L4.65694 8.34251ZM5.64809 9.61267L5.52634 9.73132C5.54438 9.74983 5.55554 9.77396 5.55797 9.79972L5.72722 9.78379L5.89647 9.76786C5.88677 9.66481 5.8421 9.56817 5.76984 9.49402L5.64809 9.61267ZM5.72722 9.78379L5.55797 9.79972C5.56039 9.82548 5.55393 9.85127 5.53967 9.87281L5.68141 9.96666L5.82316 10.0605C5.88032 9.97417 5.90617 9.87089 5.89647 9.76786L5.72722 9.78379ZM5.68141 9.96666L5.52782 9.8938C5.37092 10.2246 5.23581 10.5625 5.10645 10.8964L5.26497 10.9578L5.42348 11.0192C5.55232 10.6867 5.68373 10.3584 5.83501 10.0395L5.68141 9.96666ZM5.26497 10.9578L5.09991 10.9171C5.09326 10.9441 5.07782 10.9681 5.05602 10.9855L5.16174 11.1186L5.26746 11.2517C5.34816 11.1876 5.40535 11.0986 5.43002 10.9985L5.26497 10.9578ZM5.16174 11.1186L5.05602 10.9855C5.03423 11.0028 5.00734 11.0123 4.97954 11.0127L4.98178 11.1827L4.98403 11.3527C5.08709 11.3513 5.18676 11.3158 5.26746 11.2517L5.16174 11.1186ZM4.98178 11.1827L4.96461 11.0136C4.42851 11.068 3.89284 11.1392 3.36023 11.2099L3.38261 11.3784L3.40499 11.5469C3.93849 11.4761 4.46895 11.4056 4.99896 11.3518L4.98178 11.1827ZM3.38261 11.3784L3.3697 11.2089C3.01987 11.2356 2.68734 11.3717 2.41932 11.5981L2.52902 11.728L2.63873 11.8579C2.85215 11.6776 3.11695 11.5691 3.39552 11.5479L3.38261 11.3784ZM2.52902 11.728L2.41932 11.5981C2.1513 11.8245 1.96144 12.1296 1.87669 12.4701L2.04166 12.5112L2.20663 12.5522C2.27411 12.2811 2.4253 12.0382 2.63873 11.8579L2.52902 11.728ZM2.04166 12.5112H1.87166C1.87166 12.4844 1.8794 12.4654 1.88299 12.4577C1.88495 12.4535 1.88657 12.4509 1.88713 12.4499C1.8877 12.449 1.88775 12.449 1.88681 12.4503C1.88582 12.4517 1.88454 12.4535 1.88218 12.4567C1.88018 12.4594 1.87694 12.4637 1.87375 12.4681C1.87046 12.4727 1.86635 12.4786 1.86207 12.4853C1.8578 12.492 1.85281 12.5004 1.84795 12.5101L2 12.5861L2.15205 12.6621C2.14902 12.6682 2.14685 12.6707 2.14981 12.6666C2.15111 12.6648 2.15253 12.6629 2.15516 12.6594C2.15745 12.6563 2.16079 12.6518 2.16422 12.6469C2.17062 12.6379 2.18148 12.622 2.19082 12.6021C2.20027 12.5819 2.21166 12.5504 2.21166 12.5112H2.04166ZM2 12.5861H1.83V15.3513H2H2.17V12.5861H2ZM2 15.3513L1.84336 15.4174C1.85858 15.4535 1.87168 15.4904 1.88258 15.5279L2.04583 15.4804L2.20907 15.433C2.19447 15.3827 2.17694 15.3334 2.15664 15.2853L2 15.3513ZM2.04583 15.4804L1.88142 15.5237C1.97137 15.8658 2.16613 16.1711 2.43843 16.3969L2.54694 16.2661L2.65546 16.1352C2.43782 15.9547 2.28215 15.7107 2.21024 15.4372L2.04583 15.4804ZM2.54694 16.2661L2.43843 16.3969C2.71072 16.6227 3.04686 16.7576 3.3997 16.7827L3.41177 16.6132L3.42383 16.4436C3.14179 16.4235 2.87311 16.3157 2.65546 16.1352L2.54694 16.2661ZM3.41177 16.6132L3.39342 16.7822C3.932 16.8406 4.45474 16.9144 4.9953 16.9777L5.01508 16.8089L5.03487 16.6401C4.50932 16.5785 3.96597 16.5023 3.43011 16.4442L3.41177 16.6132ZM5.01508 16.8089L5.00578 16.9786C5.02584 16.9797 5.045 16.9874 5.06035 17.0003L5.17006 16.8705L5.27977 16.7406C5.20793 16.6799 5.11827 16.6443 5.02438 16.6392L5.01508 16.8089ZM5.17006 16.8705L5.06035 17.0003C5.07569 17.0133 5.08639 17.0309 5.09082 17.0505L5.25663 17.013L5.42244 16.9754C5.40168 16.8837 5.3516 16.8013 5.27977 16.7406L5.17006 16.8705ZM5.25663 17.013L5.09761 17.0731C5.22751 17.4167 5.36639 17.7619 5.51838 18.0954L5.67308 18.0249L5.82777 17.9544C5.67992 17.63 5.54395 17.2922 5.41564 16.9528L5.25663 17.013ZM5.67308 18.0249L5.52937 18.1157C5.54323 18.1377 5.54913 18.1637 5.54611 18.1894L5.71494 18.2093L5.88378 18.2292C5.89591 18.126 5.87224 18.0219 5.81679 17.9341L5.67308 18.0249ZM5.71494 18.2093L5.54611 18.1894C5.54308 18.2152 5.53129 18.2391 5.51273 18.2572L5.63144 18.3789L5.75015 18.5006C5.82447 18.4281 5.87165 18.3323 5.88378 18.2292L5.71494 18.2093ZM5.63144 18.3789L5.49934 18.2719C5.16121 18.6894 4.83039 19.1081 4.50337 19.5525L4.64029 19.6532L4.77722 19.754C5.09986 19.3155 5.42703 18.9014 5.76354 18.4859L5.63144 18.3789ZM4.64029 19.6532L4.5119 19.5418C4.22639 19.8708 4.08231 20.2992 4.111 20.7338L4.28063 20.7226L4.45026 20.7114C4.42748 20.3662 4.54191 20.026 4.76868 19.7647L4.64029 19.6532ZM4.28063 20.7226L4.111 20.7338C4.13968 21.1685 4.33882 21.5742 4.6651 21.8628L4.77773 21.7355L4.89036 21.6081C4.63121 21.3789 4.47304 21.0567 4.45026 20.7114L4.28063 20.7226ZM4.77773 21.7355L4.65752 21.8557L6.11509 23.3133L6.2353 23.1931L6.35551 23.0729L4.89794 21.6153L4.77773 21.7355ZM6.2353 23.1931L6.11002 23.308C6.26734 23.4795 6.45745 23.6177 6.66912 23.7144L6.73977 23.5598L6.81042 23.4051C6.64011 23.3273 6.48715 23.2161 6.36057 23.0781L6.2353 23.1931ZM6.73977 23.5598L6.66912 23.7144C6.88079 23.8111 7.10971 23.8644 7.34233 23.871L7.34721 23.7011L7.35209 23.5312C7.16492 23.5258 6.98073 23.4829 6.81042 23.4051L6.73977 23.5598ZM7.34721 23.7011L7.35203 23.871C7.74645 23.8599 8.12623 23.7193 8.43285 23.4709L8.32585 23.3388L8.21885 23.2067C7.9702 23.4081 7.66223 23.5221 7.34239 23.5312L7.34721 23.7011ZM8.32585 23.3388L8.43123 23.4722C8.8407 23.1487 9.30023 22.8037 9.72337 22.4635L9.61686 22.331L9.51034 22.1985C9.08392 22.5413 8.6439 22.8709 8.22047 23.2054L8.32585 23.3388ZM9.61686 22.331L9.73295 22.4552C9.75202 22.4374 9.77685 22.427 9.80292 22.4259L9.79593 22.256L9.78893 22.0862C9.68153 22.0906 9.57928 22.1334 9.50076 22.2068L9.61686 22.331ZM9.79593 22.256L9.78384 22.4256C9.81554 22.4279 9.8465 22.4362 9.87503 22.4503L9.95001 22.2977L10.025 22.1451C9.95713 22.1118 9.88345 22.0919 9.80801 22.0865L9.79593 22.256ZM9.95001 22.2977L9.87877 22.452C10.2074 22.6037 10.5399 22.7426 10.8804 22.8729L10.9412 22.7141L11.0019 22.5554C10.6678 22.4275 10.3423 22.2915 10.0212 22.1433L9.95001 22.2977ZM10.9412 22.7141L10.9016 22.8795C10.9309 22.8865 10.9569 22.9031 10.9756 22.9268L11.109 22.8215L11.2425 22.7162C11.1766 22.6326 11.0844 22.5736 10.9807 22.5488L10.9412 22.7141ZM11.109 22.8215L10.9756 22.9268C10.9942 22.9505 11.0044 22.9797 11.0044 23.0098L11.1744 23.0098L11.3444 23.0098C11.3444 22.9033 11.3085 22.7999 11.2425 22.7162L11.109 22.8215ZM11.1744 23.0098L11.0055 23.0291C11.072 23.6116 11.1391 24.1946 11.2357 24.7783L11.4034 24.7506L11.5711 24.7228C11.4762 24.1488 11.41 23.5741 11.3433 22.9905L11.1744 23.0098ZM11.4034 24.7506L11.2352 24.7753C11.2925 25.1658 11.4895 25.5222 11.7895 25.7787L11.8999 25.6494L12.0104 25.5202C11.7729 25.3172 11.617 25.035 11.5716 24.7259L11.4034 24.7506ZM11.8999 25.6494L11.7895 25.7787C12.0895 26.0351 12.4723 26.1741 12.867 26.1699L12.8651 25.9999L12.8633 25.8299C12.5509 25.8332 12.2479 25.7232 12.0104 25.5202L11.8999 25.6494ZM12.8651 25.9999V26.1699H15.114V25.9999V25.8299H12.8651V25.9999ZM15.114 25.9999L15.1127 26.1699C15.5005 26.1729 15.8766 26.0372 16.1733 25.7874L16.0638 25.6574L15.9544 25.5273C15.7196 25.725 15.4221 25.8323 15.1153 25.8299L15.114 25.9999ZM16.0638 25.6574L16.1733 25.7874C16.47 25.5376 16.6678 25.1901 16.7309 24.8074L16.5632 24.7797L16.3955 24.752C16.3455 25.0548 16.1891 25.3297 15.9544 25.5273L16.0638 25.6574ZM16.5632 24.7797L16.7308 24.8085C16.8316 24.22 16.8948 23.6222 16.9652 23.0385L16.7964 23.0181L16.6276 22.9978C16.5564 23.5884 16.4947 24.1734 16.3957 24.751L16.5632 24.7797ZM16.7964 23.0181L16.9664 23.0179C16.9664 22.9908 16.9754 22.9644 16.9921 22.943L16.858 22.8385L16.7239 22.734C16.6606 22.8153 16.6263 22.9154 16.6264 23.0184L16.7964 23.0181ZM16.858 22.8385L16.9921 22.943C17.0088 22.9216 17.0321 22.9065 17.0584 22.8999L17.0171 22.735L16.9758 22.57C16.8759 22.5951 16.7872 22.6528 16.7239 22.734L16.858 22.8385ZM17.0171 22.735L17.0755 22.8946C17.4215 22.768 17.767 22.6247 18.0996 22.4732L18.0291 22.3185L17.9586 22.1638C17.6332 22.3121 17.2957 22.452 16.9587 22.5753L17.0171 22.735ZM18.0291 22.3185L18.1051 22.4706C18.1289 22.4587 18.155 22.452 18.1817 22.4509L18.1749 22.281L18.1681 22.1112C18.0933 22.1142 18.02 22.133 17.9531 22.1664L18.0291 22.3185ZM18.1749 22.281L18.1675 22.4509C18.1967 22.4521 18.2244 22.4638 18.2457 22.4839L18.3623 22.3602L18.4789 22.2365C18.3982 22.1604 18.2929 22.116 18.1822 22.1112L18.1749 22.281ZM18.3623 22.3602L18.2545 22.4916C18.6736 22.8353 19.1183 23.1709 19.5496 23.5027L19.6532 23.368L19.7569 23.2332C19.322 22.8987 18.8838 22.568 18.4701 22.2287L18.3623 22.3602ZM19.6532 23.368L19.5457 23.4996C19.8496 23.7477 20.2276 23.8873 20.6198 23.8961L20.6236 23.7261L20.6274 23.5562C20.311 23.549 20.0059 23.4365 19.7608 23.2363L19.6532 23.368ZM20.6236 23.7261L20.6276 23.8961C20.8536 23.8907 21.0763 23.8406 21.2827 23.7485L21.2134 23.5932L21.1442 23.438C20.9789 23.5117 20.8005 23.5519 20.6196 23.5562L20.6236 23.7261ZM21.2134 23.5932L21.2827 23.7485C21.4891 23.6563 21.6752 23.5242 21.8301 23.3595L21.7063 23.243L21.5825 23.1265C21.4585 23.2583 21.3095 23.3642 21.1442 23.438L21.2134 23.5932ZM21.7063 23.243L21.826 23.3637C22.3298 22.8641 22.8345 22.3636 23.3351 21.8547L23.2139 21.7355L23.0927 21.6163C22.5938 22.1235 22.0907 22.6225 21.5866 23.1223L21.7063 23.243ZM23.2139 21.7355L23.3286 21.8609C23.6445 21.5721 23.8356 21.1718 23.8616 20.7446L23.6919 20.7342L23.5223 20.7239C23.5016 21.063 23.3499 21.3808 23.0992 21.61L23.2139 21.7355ZM23.6919 20.7342L23.8616 20.7446C23.8876 20.3173 23.7464 19.8968 23.4679 19.5718L23.3388 19.6824L23.2097 19.793C23.4308 20.051 23.5429 20.3848 23.5223 20.7239L23.6919 20.7342ZM23.3388 19.6824L23.4745 19.58C23.1407 19.1376 22.8021 18.6988 22.4508 18.2638L22.3185 18.3706L22.1863 18.4774C22.5345 18.9086 22.8706 19.3443 23.2031 19.7848L23.3388 19.6824ZM22.3185 18.3706L22.4434 18.2552C22.4302 18.241 22.4221 18.2228 22.4203 18.2036L22.2511 18.2194L22.0818 18.2351C22.0905 18.3288 22.1299 18.4169 22.1937 18.486L22.3185 18.3706ZM22.2511 18.2194L22.4203 18.2036C22.4185 18.1843 22.4231 18.1649 22.4334 18.1485L22.2894 18.0582L22.1453 17.968C22.0954 18.0476 22.0731 18.1415 22.0818 18.2351L22.2511 18.2194ZM22.2894 18.0582L22.4444 18.128C22.5955 17.7923 22.7387 17.4511 22.8655 17.1047L22.7058 17.0463L22.5462 16.9879C22.423 17.3245 22.2831 17.6579 22.1343 17.9885L22.2894 18.0582ZM22.7058 17.0463L22.8705 17.0887C22.8774 17.0616 22.893 17.0375 22.9147 17.0199L22.808 16.8876L22.7014 16.7552C22.6226 16.8187 22.5664 16.9059 22.5412 17.0039L22.7058 17.0463ZM22.808 16.8876L22.9147 17.0199C22.9365 17.0024 22.9633 16.9923 22.9913 16.9913L22.9848 16.8214L22.9784 16.6515C22.8773 16.6553 22.7801 16.6917 22.7014 16.7552L22.808 16.8876ZM22.9848 16.8214L23.0035 16.9904C23.5677 16.9281 24.14 16.8693 24.7083 16.7724L24.6798 16.6048L24.6512 16.4373C24.0951 16.532 23.5347 16.5897 22.9662 16.6524L22.9848 16.8214ZM24.6798 16.6048L24.7007 16.7736C25.1119 16.7225 25.4887 16.5181 25.7557 16.2012L25.6257 16.0916L25.4957 15.9821C25.2839 16.2335 24.985 16.3957 24.6588 16.4361L24.6798 16.6048ZM25.6257 16.0916L25.7557 16.2012C26.0227 15.8842 26.1601 15.4782 26.1406 15.0643L25.9708 15.0723L25.801 15.0803C25.8165 15.4087 25.7074 15.7307 25.4957 15.9821L25.6257 16.0916ZM25.9708 15.0723H26.1408V12.9651H25.9708H25.8008V15.0723H25.9708ZM25.9708 12.9651L26.1406 12.9724C26.1597 12.5324 26.0053 12.1025 25.7108 11.775L25.5844 11.8887L25.458 12.0024C25.693 12.2637 25.8161 12.6067 25.8009 12.9577L25.9708 12.9651ZM25.5844 11.8887L25.7108 11.775C25.4163 11.4476 25.005 11.2487 24.5655 11.2212L24.5549 11.3909L24.5442 11.5606C24.8949 11.5825 25.223 11.7411 25.458 12.0024L25.5844 11.8887ZM24.5549 11.3909L24.5755 11.2222L22.9721 11.0264L22.9515 11.1952L22.9309 11.3639L24.5343 11.5597L24.5549 11.3909ZM22.9515 11.1952L22.9628 11.0256C22.9423 11.0242 22.9227 11.0163 22.9069 11.003L22.7972 11.1328L22.6875 11.2627C22.7587 11.3228 22.8472 11.3586 22.9402 11.3648L22.9515 11.1952ZM22.7972 11.1328L22.9069 11.003C22.8912 10.9897 22.8801 10.9717 22.8753 10.9516L22.71 10.9911L22.5446 11.0306C22.5663 11.1212 22.6163 11.2026 22.6875 11.2627L22.7972 11.1328ZM22.71 10.9911L22.869 10.931C22.7397 10.5888 22.6046 10.2426 22.4478 9.90362L22.2935 9.97498L22.1392 10.0463C22.2906 10.3737 22.4221 10.7104 22.551 11.0512L22.71 10.9911ZM22.2935 9.97498L22.4392 9.88725C22.4259 9.86531 22.4206 9.83953 22.4239 9.81414L22.2553 9.79207L22.0868 9.76999C22.0734 9.87168 22.095 9.97488 22.1479 10.0627L22.2935 9.97498ZM22.2553 9.79207L22.4239 9.81414C22.4272 9.78874 22.439 9.76523 22.4575 9.74744L22.3393 9.62517L22.2212 9.5029C22.1475 9.57415 22.1001 9.66832 22.0868 9.76999L22.2553 9.79207ZM22.3393 9.62517L22.4714 9.73217C22.8096 9.31468 23.1401 8.89632 23.471 8.45242L23.3347 8.35084L23.1984 8.24925C22.8712 8.68822 22.5437 9.10276 22.2072 9.51817L22.3393 9.62517ZM23.3347 8.35084L23.4623 8.4631C23.7502 8.13573 23.8967 7.70764 23.8697 7.27254L23.7 7.28306L23.5303 7.29358C23.5518 7.63895 23.4355 7.97873 23.207 8.23857L23.3347 8.35084ZM23.7 7.28306L23.8697 7.27254C23.8427 6.83743 23.6445 6.43073 23.3184 6.14142L23.2056 6.2686L23.0928 6.39577C23.3516 6.62539 23.5089 6.94821 23.5303 7.29358L23.7 7.28306ZM23.2056 6.2686L23.3263 6.14889C22.8308 5.64928 22.3345 5.14878 21.8339 4.6565L21.7147 4.77771L21.5955 4.89892C22.0943 5.38946 22.5892 5.88843 23.0849 6.3883L23.2056 6.2686ZM21.7147 4.77771L21.8388 4.66156C21.6831 4.49516 21.4959 4.3613 21.2881 4.26772L21.2183 4.42272L21.1485 4.57773C21.3153 4.65285 21.4656 4.7603 21.5905 4.89386L21.7147 4.77771ZM21.2183 4.42272L21.2881 4.26772C21.0804 4.17414 20.8561 4.1227 20.6283 4.11637L20.6236 4.2863L20.6189 4.45624C20.8017 4.46132 20.9817 4.50261 21.1485 4.57773L21.2183 4.42272ZM20.6236 4.2863L20.62 4.11634C20.2242 4.12477 19.8428 4.26597 19.537 4.51727L19.6449 4.64861L19.7528 4.77996C19.9997 4.57707 20.3077 4.46307 20.6272 4.45626L20.6236 4.2863ZM19.6449 4.64861L19.5409 4.51415C19.0966 4.85782 18.6673 5.20059 18.2274 5.52844L18.3289 5.66475L18.4305 5.80105C18.8735 5.47092 19.3103 5.12238 19.7489 4.78307L19.6449 4.64861ZM18.3289 5.66475L18.2408 5.51939C18.217 5.53382 18.1896 5.54118 18.1617 5.54059L18.1582 5.71056L18.1546 5.88052C18.247 5.88245 18.3381 5.85803 18.4171 5.8101L18.3289 5.66475ZM18.1582 5.71056L18.1326 5.5425C18.1192 5.54454 18.1056 5.54454 18.0922 5.5425L18.0666 5.71056L18.041 5.87861C18.0883 5.88583 18.1365 5.88583 18.1838 5.87861L18.1582 5.71056ZM18.0666 5.71056L18.1263 5.55138C17.7638 5.41545 17.4094 5.2671 17.0589 5.10628L16.988 5.26079L16.9171 5.4153C17.2745 5.57932 17.6364 5.73081 18.0069 5.86973L18.0666 5.71056ZM16.988 5.26079L17.0649 5.10918C17.0424 5.09778 17.0226 5.08167 17.0069 5.06195L16.8739 5.16785L16.741 5.27375C16.7871 5.33164 16.8451 5.37892 16.9111 5.4124L16.988 5.26079ZM16.8739 5.16785L17.0069 5.06195C16.9912 5.04224 16.98 5.01938 16.9739 4.9949L16.8089 5.03591L16.6439 5.07691C16.6618 5.14871 16.6949 5.21585 16.741 5.27375L16.8739 5.16785ZM16.8089 5.03591L16.9768 5.00905C16.9105 4.59473 16.8747 4.19109 16.8192 3.76464L16.6506 3.78656L16.4821 3.80848C16.5349 4.21493 16.5741 4.64418 16.641 5.06276L16.8089 5.03591ZM16.6506 3.78656L16.8206 3.78331C16.8121 3.33846 16.6858 2.90383 16.4544 2.52378L16.3092 2.61218L16.164 2.70058C16.3641 3.02924 16.4733 3.4051 16.4807 3.78981L16.6506 3.78656ZM16.3092 2.61218L16.4431 2.50747C16.1771 2.16727 15.8017 1.92942 15.3805 1.83419L15.343 2L15.3055 2.16581C15.6503 2.24377 15.9575 2.43844 16.1753 2.71689L16.3092 2.61218ZM15.343 2L15.2486 2.14139L15.2611 2.14972L15.3555 2.00833L15.4499 1.86694L15.4374 1.85861L15.343 2Z" fill="black" mask="url(#path-1-outside-1_8271_6402)"/>
<path d="M14.125 8.94409L14.3779 8.95288C15.6334 9.02526 16.8207 9.56117 17.707 10.4617C18.6526 11.4223 19.1786 12.7192 19.168 14.0671C19.1572 15.415 18.611 16.7036 17.6504 17.6492C16.6899 18.5944 15.3934 19.1186 14.0459 19.1082V19.1091H13.8242C12.4763 19.0973 11.188 18.5501 10.2432 17.5886C9.29857 16.6272 8.77435 15.33 8.78613 13.9822C8.79793 12.6342 9.34517 11.3459 10.3066 10.4011C11.2678 9.45675 12.5647 8.93355 13.9121 8.94507V8.94409H14.125ZM13.7354 10.2732C12.85 10.3195 12.0099 10.6895 11.3779 11.3171L11.377 11.3181C10.6729 12.0066 10.2576 12.9377 10.2158 13.9216C10.192 14.9196 10.5644 15.8864 11.251 16.6111C11.9378 17.336 12.8837 17.76 13.8818 17.7898H14.0449C14.9912 17.7867 15.8982 17.4091 16.5674 16.74L16.5684 16.739C17.273 16.0485 17.6892 15.1161 17.7334 14.1306C17.7542 13.6549 17.6803 13.1799 17.5156 12.7332C17.3508 12.2862 17.0982 11.8765 16.7734 11.5281V11.5271C16.4289 11.149 16.0124 10.8428 15.5488 10.6267C15.0851 10.4106 14.5825 10.2881 14.0713 10.2673H13.9131L13.7354 10.2732Z" fill="black" stroke="black" stroke-width="0.17"/>
</svg>
