<svg width="48" height="48" viewBox="0 0 30 30" fill="none" xmlns="http://www.w3.org/2000/svg">
<path d="M24.2675 9.09557C25.4817 11.635 25.7122 14.5343 24.9145 17.2337C24.1168 19.9331 22.3475 22.2414 19.948 23.713C17.5485 25.1846 14.6889 25.7152 11.9212 25.2025C9.15349 24.6897 6.67381 23.1699 4.96074 20.9364C3.24768 18.7029 2.42267 15.9139 2.64495 13.1079C2.86723 10.3019 4.12103 7.67766 6.16438 5.7417C8.20773 3.80574 10.8958 2.69529 13.7097 2.62468C16.5236 2.55407 19.264 3.52829 21.4019 5.35932L23.8814 2.8787C24.0456 2.71451 24.2683 2.62227 24.5005 2.62227C24.7326 2.62227 24.9553 2.71451 25.1195 2.8787C25.2837 3.04288 25.3759 3.26557 25.3759 3.49776C25.3759 3.72995 25.2837 3.95264 25.1195 4.11682L18.3317 10.9057L14.2072 15.0303L11.5876 17.6498C12.2649 18.0977 13.0534 18.3484 13.865 18.3736C14.6765 18.3989 15.4791 18.1978 16.1829 17.7929C16.8867 17.388 17.4639 16.7953 17.85 16.0809C18.2361 15.3666 18.4157 14.559 18.3689 13.7484C18.3558 13.5163 18.4355 13.2886 18.5904 13.1153C18.7452 12.9419 18.9626 12.8372 19.1947 12.8242C19.4267 12.8111 19.6545 12.8908 19.8278 13.0456C20.0011 13.2005 20.1058 13.4179 20.1189 13.6499C20.1895 14.889 19.882 16.1202 19.2372 17.1805C18.5925 18.2409 17.6408 19.0804 16.5083 19.5878C15.3758 20.0953 14.1158 20.2467 12.8953 20.0221C11.6748 19.7975 10.5513 19.2075 9.67358 18.3301C8.58199 17.2344 7.94532 15.7664 7.89141 14.2207C7.8375 12.675 8.37034 11.1661 9.38294 9.99706C10.3955 8.828 11.8129 8.08529 13.3505 7.91808C14.888 7.75086 16.4319 8.17151 17.6722 9.09557L20.1583 6.6051C18.3348 5.09113 16.0162 4.30425 13.6479 4.39559C11.2796 4.48694 9.0285 5.45006 7.32703 7.09999C5.62556 8.74991 4.59366 10.9703 4.42953 13.3347C4.2654 15.6991 4.9806 18.0407 6.43778 19.9099C7.89496 21.7791 9.99136 23.0441 12.3243 23.4618C14.6573 23.8795 17.0624 23.4205 19.0776 22.173C21.0928 20.9255 22.576 18.9774 23.2424 16.703C23.9088 14.4285 23.7114 11.988 22.6881 9.85026C22.588 9.64082 22.5753 9.40021 22.6526 9.18134C22.7299 8.96248 22.891 8.78331 23.1005 8.68323C23.3099 8.58315 23.5505 8.57037 23.7694 8.6477C23.9882 8.72503 24.1674 8.88613 24.2675 9.09557Z" fill="black"/>
</svg>
