<svg width="28" height="28" viewBox="0 0 28 28" fill="none" xmlns="http://www.w3.org/2000/svg">
<path d="M24.8261 8.82365C26.1058 11.5001 26.3488 14.5557 25.5081 17.4007C24.6673 20.2457 22.8026 22.6784 20.2737 24.2294C17.7448 25.7804 14.731 26.3396 11.814 25.7992C8.89704 25.2588 6.28363 23.657 4.47818 21.303C2.67273 18.9491 1.80323 16.0097 2.03749 13.0524C2.27176 10.095 3.59318 7.32926 5.74673 5.2889C7.90028 3.24853 10.7333 2.0782 13.699 2.00378C16.6647 1.92936 19.5528 2.95612 21.806 4.8859L24.4192 2.2715C24.5923 2.09846 24.827 2.00124 25.0717 2.00124C25.3164 2.00124 25.5511 2.09846 25.7241 2.2715C25.8972 2.44454 25.9944 2.67923 25.9944 2.92394C25.9944 3.16866 25.8972 3.40335 25.7241 3.57639L14.6579 14.6427C14.4848 14.8157 14.2501 14.9129 14.0054 14.9129C13.7607 14.9129 13.526 14.8157 13.353 14.6427C13.1799 14.4696 13.0827 14.2349 13.0827 13.9902C13.0827 13.7455 13.1799 13.5108 13.353 13.3378L16.5483 10.1424C15.6824 9.56965 14.6484 9.30594 13.6139 9.39396C12.5794 9.48198 11.6049 9.91656 10.8481 10.6274C10.0913 11.3382 9.59654 12.2836 9.44393 13.3105C9.29131 14.3375 9.48976 15.3859 10.0072 16.2861C10.5245 17.1862 11.3306 17.8854 12.2948 18.2704C13.259 18.6555 14.325 18.7038 15.3201 18.4077C16.3152 18.1115 17.1812 17.4882 17.778 16.6386C18.3747 15.789 18.6673 14.7628 18.6083 13.7262C18.6015 13.6051 18.6186 13.4839 18.6586 13.3694C18.6987 13.2549 18.7609 13.1494 18.8417 13.059C18.9225 12.9685 19.0204 12.8949 19.1296 12.8422C19.2389 12.7896 19.3575 12.759 19.4786 12.7522C19.7232 12.7384 19.9632 12.8224 20.1459 12.9856C20.2363 13.0664 20.31 13.1643 20.3626 13.2735C20.4152 13.3828 20.4458 13.5014 20.4527 13.6225C20.5367 15.0897 20.1177 16.5416 19.2648 17.7384C18.4118 18.9351 17.1761 19.805 15.7618 20.2043C14.3475 20.6036 12.8393 20.5083 11.4864 19.9343C10.1336 19.3603 9.01711 18.3418 8.32151 17.0473C7.62591 15.7528 7.39284 14.2596 7.66081 12.8147C7.92879 11.3697 8.68177 10.0595 9.79531 9.10045C10.9088 8.14143 12.3163 7.59107 13.785 7.54032C15.2537 7.48957 16.6958 7.94147 17.8728 8.82134L20.4953 6.19887C18.5735 4.60325 16.1299 3.77393 13.6338 3.8702C11.1378 3.96647 8.76531 4.98153 6.97208 6.72044C5.17885 8.45935 4.0913 10.7995 3.91832 13.2914C3.74533 15.7833 4.49911 18.2512 6.03487 20.2212C7.57064 22.1912 9.7801 23.5244 12.2389 23.9646C14.6977 24.4048 17.2324 23.9211 19.3563 22.6063C21.4802 21.2915 23.0434 19.2384 23.7458 16.8413C24.4481 14.4442 24.2401 11.8721 23.1616 9.61904C23.0561 9.3983 23.0426 9.14471 23.1241 8.91405C23.2056 8.68338 23.3754 8.49454 23.5962 8.38907C23.8169 8.28359 24.0705 8.27012 24.3012 8.35162C24.5318 8.43312 24.7207 8.60292 24.8261 8.82365Z" fill="black"/>
</svg>
