<svg width="83" height="89" viewBox="0 0 83 89" fill="none" xmlns="http://www.w3.org/2000/svg">
<path d="M79.5588 51.0782C78.2159 49.1997 77.4928 46.9393 77.4928 44.6196C77.4928 42.2999 78.2159 40.0395 79.5588 38.1609L82.3109 34.3077C82.6474 33.8372 82.8688 33.2924 82.957 32.7182C83.0451 32.1441 82.9974 31.5569 82.8178 31.005C82.6364 30.4589 82.3328 29.9628 81.9308 29.5553C81.5288 29.1479 81.0391 28.8402 80.5003 28.6564L76.0462 27.1885C73.8643 26.4753 71.9624 25.0779 70.6151 23.1981C69.2678 21.3182 68.5448 19.0532 68.5503 16.7299V11.9593C68.5499 11.3801 68.4142 10.8092 68.1543 10.2933C67.8944 9.77744 67.5177 9.33124 67.055 8.99121C66.5923 8.65117 66.0568 8.42696 65.4922 8.3369C64.9276 8.24684 64.35 8.29349 63.8066 8.47305L59.3163 9.94093C57.1364 10.6558 54.7892 10.6539 52.6104 9.93545C50.4316 9.21703 48.5327 7.8189 47.1853 5.94096L44.4332 2.08777C44.0818 1.6412 43.6356 1.28061 43.1278 1.03278C42.62 0.784946 42.0636 0.65625 41.5 0.65625C40.9364 0.65625 40.38 0.784946 39.8722 1.03278C39.3644 1.28061 38.9182 1.6412 38.5668 2.08777L35.8147 5.94096C34.4673 7.8189 32.5684 9.21703 30.3896 9.93545C28.2108 10.6539 25.8636 10.6558 23.6837 9.94093L19.1934 8.47305C18.65 8.29349 18.0724 8.24684 17.5078 8.3369C16.9432 8.42696 16.4077 8.65117 15.945 8.99121C15.4823 9.33124 15.1056 9.77744 14.8457 10.2933C14.5858 10.8092 14.4501 11.3801 14.4497 11.9593V16.7299C14.4552 19.0532 13.7322 21.3182 12.3849 23.1981C11.0376 25.0779 9.1357 26.4753 6.95378 27.1885L2.49971 28.6564C1.96084 28.8402 1.47124 29.1479 1.0692 29.5553C0.667148 29.9628 0.36355 30.4589 0.182142 31.005C0.00257272 31.5569 -0.045105 32.1441 0.0430331 32.7182C0.131171 33.2924 0.352605 33.8372 0.68911 34.3077L3.44122 38.1609C4.78412 40.0395 5.50716 42.2999 5.50716 44.6196C5.50716 46.9393 4.78412 49.1997 3.44122 51.0782L0.68911 54.9314C0.352605 55.4019 0.131171 55.9467 0.0430331 56.5209C-0.045105 57.0951 0.00257272 57.6823 0.182142 58.2341C0.36355 58.7802 0.667148 59.2764 1.0692 59.6838C1.47124 60.0913 1.96084 60.3989 2.49971 60.5828L6.95378 62.0506C9.1357 62.7639 11.0376 64.1613 12.3849 66.0411C13.7322 67.9209 14.4552 70.1859 14.4497 72.5093V77.2799C14.4501 77.8591 14.5858 78.43 14.8457 78.9458C15.1056 79.4617 15.4823 79.9079 15.945 80.2479C16.4077 80.588 16.9432 80.8122 17.5078 80.9022C18.0724 80.9923 18.65 80.9456 19.1934 80.7661L23.6475 79.2982C25.8321 78.5713 28.1881 78.5671 30.3752 79.2861C32.5623 80.0051 34.4672 81.4101 35.8147 83.2982L38.5668 87.1514C38.9049 87.6179 39.3466 87.9972 39.8562 88.2586C40.3657 88.52 40.9289 88.6562 41.5 88.6562C42.0711 88.6562 42.6343 88.52 43.1438 88.2586C43.6534 87.9972 44.0951 87.6179 44.4332 87.1514L47.1853 83.2982C48.535 81.4128 50.44 80.0098 52.6264 79.2911C54.8127 78.5723 57.1677 78.5748 59.3525 79.2982L63.8066 80.7661C64.35 80.9456 64.9276 80.9923 65.4922 80.9022C66.0568 80.8122 66.5923 80.588 67.055 80.2479C67.5177 79.9079 67.8944 79.4617 68.1543 78.9458C68.4142 78.43 68.5499 77.8591 68.5503 77.2799V72.5093C68.5448 70.1859 69.2678 67.9209 70.6151 66.0411C71.9624 64.1613 73.8643 62.7639 76.0462 62.0506L80.5003 60.5828C81.0391 60.3989 81.5288 60.0913 81.9308 59.6838C82.3328 59.2764 82.6364 58.7802 82.8178 58.2341C82.9974 57.6823 83.0451 57.0951 82.957 56.5209C82.8688 55.9467 82.6474 55.4019 82.3109 54.9314L79.5588 51.0782ZM58.5558 39.8747L40.4499 58.2231C39.7708 58.9111 38.8499 59.2976 37.8897 59.2976C36.9295 59.2976 36.0085 58.9111 35.3295 58.2231L24.4659 47.214C24.12 46.8755 23.8442 46.4706 23.6544 46.0229C23.4646 45.5752 23.3647 45.0936 23.3605 44.6064C23.3563 44.1191 23.448 43.6359 23.63 43.1849C23.8121 42.7339 24.081 42.3242 24.421 41.9796C24.761 41.6351 25.1653 41.3626 25.6104 41.1781C26.0554 40.9935 26.5322 40.9007 27.013 40.9049C27.4939 40.9091 27.969 41.0104 28.4108 41.2027C28.8526 41.395 29.2522 41.6746 29.5863 42.0251L37.8788 50.4397L53.4246 34.6857C54.1076 34.0172 55.0223 33.6474 55.9718 33.6557C56.9212 33.6641 57.8295 34.05 58.5009 34.7304C59.1723 35.4108 59.5531 36.3312 59.5613 37.2934C59.5696 38.2556 59.2046 39.1825 58.545 39.8747H58.5558Z" fill="#26BDE2"/>
</svg>
