<svg width="28" height="28" viewBox="0 0 28 28" fill="none" xmlns="http://www.w3.org/2000/svg">
<path d="M2.00925 8.10605C2.0417 7.95771 2.07881 7.80472 2.1159 7.64246C2.30764 6.89026 2.74337 6.22285 3.35489 5.7447C3.96641 5.26656 4.71921 5.00466 5.49545 5H22.5045C23.4308 5 24.3192 5.36764 24.9746 6.02217C25.63 6.67669 25.9988 7.56459 26 8.49084C26 12.2552 26 16.0211 26 19.7885C25.9975 20.7144 25.6283 21.6016 24.9732 22.2558C24.3181 22.9101 23.4304 23.2781 22.5045 23.2793C16.8302 23.2793 11.1574 23.2793 5.48617 23.2793C4.65377 23.275 3.85007 22.9746 3.21896 22.4319C2.58784 21.8891 2.17052 21.1394 2.04171 20.317C2.0306 20.2729 2.01667 20.2295 2 20.1872L2.00925 8.10605ZM14.0162 6.41858H5.67162C5.36965 6.39725 5.06662 6.44104 4.78304 6.54696C4.49945 6.65287 4.24192 6.81845 4.02786 7.0325C3.81381 7.24656 3.6482 7.50409 3.54229 7.78768C3.43637 8.07127 3.39261 8.37429 3.41394 8.67626V19.6216C3.39105 19.9252 3.43397 20.2301 3.5398 20.5155C3.64563 20.8009 3.81188 21.0601 4.02713 21.2754C4.24238 21.4907 4.50157 21.6569 4.787 21.7627C5.07242 21.8685 5.37735 21.9114 5.6809 21.8886H22.3469C22.6489 21.9099 22.9519 21.8661 23.2355 21.7602C23.5191 21.6543 23.7766 21.4887 23.9907 21.2747C24.2048 21.0606 24.3703 20.8031 24.4762 20.5195C24.5822 20.2359 24.626 19.9328 24.6046 19.6309V8.68554C24.6275 8.38199 24.5846 8.07709 24.4787 7.79167C24.3729 7.50624 24.2067 7.24702 23.9914 7.03177C23.7762 6.81652 23.517 6.6503 23.2315 6.54447C22.9461 6.43864 22.6412 6.39569 22.3377 6.41858H14.0162Z" fill="black"/>
<path d="M11.1988 14.1508C11.1988 13.015 11.1988 11.8838 11.1988 10.7527C11.181 10.608 11.2071 10.4614 11.2737 10.3318C11.3402 10.2021 11.4441 10.0954 11.572 10.0255C11.6998 9.9556 11.8457 9.92568 11.9908 9.93961C12.1358 9.95354 12.2733 10.0107 12.3856 10.1036C14.1843 11.2348 15.9846 12.3613 17.7864 13.4832C18.3937 13.8634 18.3937 14.4428 17.7864 14.8276L12.3902 18.2072C12.276 18.2972 12.1381 18.3522 11.9932 18.3653C11.8484 18.3785 11.7029 18.3493 11.5743 18.2814C11.4497 18.207 11.349 18.0984 11.2841 17.9686C11.2192 17.8389 11.1928 17.6932 11.208 17.5489C11.2034 16.4177 11.1988 15.2819 11.1988 14.1508ZM12.5895 16.3946L16.1777 14.1508L12.5895 11.9117V16.3946Z" fill="black"/>
</svg>
