<svg id="Layer_1" data-name="Layer 1" xmlns="http://www.w3.org/2000/svg" xmlns:xlink="http://www.w3.org/1999/xlink" viewBox="0 0 70 54"><defs><style>.cls-1{fill-rule:evenodd;fill:url(#linear-gradient);}</style><linearGradient id="linear-gradient" x1="427.47" y1="-236.14" x2="366.59" y2="-265.97" gradientTransform="matrix(1, 0, 0, -1, -361, -223)" gradientUnits="userSpaceOnUse"><stop offset="0" stop-color="#00704e"/><stop offset="1" stop-color="#03d294"/></linearGradient></defs><path class="cls-1" d="M29.27,23.17a18.56,18.56,0,0,1,5.5,20.26H53.18c1.75-5.13,7-8.07,12.95-5.59l2.13-12.38c.36-2.09-1.75-3.85-3.89-3.85H52.48V12.29a1.37,1.37,0,0,0-1.32-1.36V6.11H49.35v4.82a1.37,1.37,0,0,0-1.28,1.36v9.32H38.79c1.77-8.3-.3-11.13-1.49-19.58A2.38,2.38,0,0,0,34.85.51H13.23A2.25,2.25,0,0,0,11,2.17l-1.46,14L6.62,19.54c-1.28,1.46-.9,1.12.27,2.87.2-.15.4-.29.61-.42C13.64,18,23.48,18.73,29.27,23.17ZM50.91,3.52a.23.23,0,0,1,.31,0,.22.22,0,0,1,0,.31c-.16.16-.1.4,0,.63s.19.72-.27,1a.22.22,0,0,1-.3-.08.21.21,0,0,1,.08-.29c.17-.1.12-.29.07-.5A1,1,0,0,1,50.91,3.52Zm-1.32,0a.23.23,0,0,1,.31,0,.22.22,0,0,1,0,.31c-.17.16-.1.4,0,.63s.19.72-.27,1a.21.21,0,0,1-.29-.08.2.2,0,0,1,.07-.29c.17-.1.12-.29.07-.5A1,1,0,0,1,49.59,3.52ZM25.68,5.13v10.3a45.21,45.21,0,0,1,7.13,2.23c1.22.49,2.67-1.1,2.41-2.39L33.65,7.51a2.62,2.62,0,0,0-2.41-2.38ZM23.29,15V5.13h-6c-1.32,0-2.1,1.11-2.41,2.39l-1,4.45c-.3,1.28,1.08,2.36,2.41,2.38A45.41,45.41,0,0,1,23.29,15ZM62.4,38.83a7.23,7.23,0,1,1-7.31,7.23A7.27,7.27,0,0,1,62.4,38.83ZM16.34,22.61a15.45,15.45,0,1,1,0,30.9,15.45,15.45,0,1,1,0-30.9Zm0,7.14a8.31,8.31,0,1,1-8.4,8.31A8.36,8.36,0,0,1,16.34,29.75ZM62.4,42.39a3.67,3.67,0,1,1-3.71,3.67A3.69,3.69,0,0,1,62.4,42.39ZM51.53,26.13h9.24l-.21,1.06H51.35Zm-3.24,5.69H60.77l-.21,1.06H48.1ZM49.44,29H60.77L60.56,30H49.26Z"/></svg>