<svg id="Layer_1" data-name="Layer 1" xmlns="http://www.w3.org/2000/svg" xmlns:xlink="http://www.w3.org/1999/xlink" viewBox="0 0 45 62"><defs><style>.cls-1{fill-rule:evenodd;fill:url(#linear-gradient);}</style><linearGradient id="linear-gradient" x1="328.79" y1="-326.37" x2="283.95" y2="-338.55" gradientTransform="matrix(1, 0, 0, -1, -283.5, -301)" gradientUnits="userSpaceOnUse"><stop offset="0" stop-color="#aa2d2a"/><stop offset="1" stop-color="#e6504c"/></linearGradient></defs><path class="cls-1" d="M12.67.7a7.9,7.9,0,0,1,5.15.74,7.32,7.32,0,0,1,3.42,3.72H7.1A7.18,7.18,0,0,1,9.29,2.25,7.66,7.66,0,0,1,12.69.7ZM.9,34a1.33,1.33,0,0,1,.34-.33c.7-.49,2.53-.49,3.37-.45.52,0,2,0,3.19.06l-.74,5c-1.53,0-3,0-4.31.1a1.63,1.63,0,0,1-.9-.07,1.58,1.58,0,0,1-.71-.51,3.6,3.6,0,0,1-.5-2A4.22,4.22,0,0,1,.9,34ZM.81,40.45a1.3,1.3,0,0,1,.32-.34,2.22,2.22,0,0,1,1.05-.4,11.82,11.82,0,0,1,2.3-.25L7,39.35c-.19,1.78-1,3.88.89,5-1.71.17-3.45.22-4.88.41a1.72,1.72,0,0,1-.9,0,1.54,1.54,0,0,1-.74-.48,4.44,4.44,0,0,1-.52-3.83ZM2,46.91a1.59,1.59,0,0,1,.28-.36,2,2,0,0,1,.94-.45,11.5,11.5,0,0,1,2.18-.42c1-.12,4.84-.64,5.61-.59a1.36,1.36,0,0,1,.74.24,1.13,1.13,0,0,1,.45.61l.48,1.81c.21.73-.18,1.3-1,1.66-2.41.66-5.14,1-7.22,1.44a1.64,1.64,0,0,1-.85.06,1.48,1.48,0,0,1-.75-.4A4.53,4.53,0,0,1,2,46.91ZM4.2,53.58a1.16,1.16,0,0,1,.06-.82,1.31,1.31,0,0,1,.27-.35,2.11,2.11,0,0,1,1-.46,49,49,0,0,1,6.32-1.56c1-.3,1.73-.1,2,.74l.53,1.49c.2.72-.18,1.29-1,1.66-4.28,1.49-7.65,4.14-9.1-.7ZM10,56.74a12.62,12.62,0,0,0,5.81,1.57,22.21,22.21,0,0,1,5.76-.15c1.12.16,2.15.36,3.31.5l10.75,2.9,9-14.75-15.06-.52c-1.2,0-1.05.26-1.31-.78a31,31,0,0,0-2.19-6c-2.38-5-3.08-7.39-8.17-7.66l.24-2h-8l.26,2.37c-2.8,1.59-2.09,6.66-2.09,10.32.68,1.67,4.71,1,5.14-1.38l.52-3,2.29.27c-4.56,5.63-1.16,9.14,4,12.53-3.67-1.22-6-3.18-6.6-5.19a19.68,19.68,0,0,0,1.32,5.09c.18.44.38.87.59,1.31,1,2.27-1,2.87-2.76,3.55-.94.36-1.93.7-2.78,1ZM3.88,13.81H24.44a1.18,1.18,0,0,1,.82.33,1,1,0,0,1,.34.77V27.32a1.08,1.08,0,0,1-.34.78,1.22,1.22,0,0,1-.82.32H3.88a1.24,1.24,0,0,1-.82-.32,1.12,1.12,0,0,1-.34-.78V14.91a1.12,1.12,0,0,1,.34-.78A1.24,1.24,0,0,1,3.88,13.81Zm4.71,4.56v5.46H7.17l-.83-2.48v2.48H5V18.37H6.33l.89,2.48V18.37Zm1,0h2.67v1.1H11.2v1.05h1v1h-1v1.21h1.18v1.09H9.55V18.39Zm9.6,0-.71,5.46h-2C16.26,23,16.1,22,16,21c-.07.46-.22,1.42-.45,2.87h-2l-.72-5.46h1.57l.17,1.92.15,1.85c.07-1,.21-2.21.45-3.77H16.8c0,.17.08.77.17,1.81l.18,2.09q.13-2,.45-3.9Zm4,1.67H21.71v-.41a.76.76,0,0,0-.06-.36.16.16,0,0,0-.08-.06.22.22,0,0,0-.11,0,.27.27,0,0,0-.12,0,.14.14,0,0,0-.09.08.48.48,0,0,0-.08.31.76.76,0,0,0,.09.42,1.25,1.25,0,0,0,.45.33,4.47,4.47,0,0,1,1.34.93,1.9,1.9,0,0,1,.27,1.16,1.86,1.86,0,0,1-.15.87,1.11,1.11,0,0,1-.62.46,2.53,2.53,0,0,1-1,.19,2.46,2.46,0,0,1-1.1-.22,1.1,1.1,0,0,1-.59-.55,2.74,2.74,0,0,1-.14-.95V21.9h1.49v.66a.78.78,0,0,0,.06.4.23.23,0,0,0,.1.07.25.25,0,0,0,.12,0,.32.32,0,0,0,.14,0,.22.22,0,0,0,.1-.09.51.51,0,0,0,.08-.32.88.88,0,0,0-.15-.63,4.26,4.26,0,0,0-.75-.5,6.44,6.44,0,0,1-.78-.5,1,1,0,0,1-.32-.44,1.58,1.58,0,0,1-.14-.71,1.84,1.84,0,0,1,.19-.92,1.16,1.16,0,0,1,.62-.49,2.67,2.67,0,0,1,1-.16,2.7,2.7,0,0,1,1.05.18,1.06,1.06,0,0,1,.6.48,2.27,2.27,0,0,1,.14.93V20Zm-1.69-14a2.1,2.1,0,0,0,.06.24,7.76,7.76,0,0,1,.15,1.36H6.58a7.24,7.24,0,0,1,.21-1.6Zm.16,2.51a7.09,7.09,0,0,1-2.1,4.14H8.71a7,7,0,0,1-2-3.58,5,5,0,0,1-.1-.56Z"/></svg>