<svg width="48" height="60" viewBox="0 0 48 60" fill="none" xmlns="http://www.w3.org/2000/svg">
<path d="M12.6216 13.5H5.5451L2 19.75L5.5451 26H12.6216L16.1667 19.75L12.6216 13.5Z" stroke="url(#paint0_linear_901_33997)" stroke-width="2" stroke-miterlimit="10"/>
<path d="M12.6353 1H5.5451L2 7.243L5.5451 13.5H12.6353L16.1667 7.243L12.6353 1Z" stroke="url(#paint1_linear_901_33997)" stroke-width="2" stroke-miterlimit="10"/>
<path d="M23.4639 6.83301H16.3668L12.832 13.5071L16.3668 20.1663H23.4639L26.9987 13.5071L23.4639 6.83301Z" stroke="url(#paint2_linear_901_33997)" stroke-width="2" stroke-miterlimit="10"/>
<path d="M45.0767 26.631L45.0767 26.6309C45.1284 23.2166 43.7319 19.8554 41.7449 17.0053C40.7602 15.593 38.9745 13.6768 37.4073 12.1036C36.7444 11.4381 36.1261 10.8394 35.6329 10.3738C35.792 11.1498 35.9546 11.9258 36.1174 12.7031C36.55 14.7685 36.9848 16.8438 37.3624 18.9569C37.5517 19.9919 37.7573 21.0323 37.9637 22.0764C38.8345 26.482 39.7183 30.9534 39.4438 35.3687C39.7971 35.2741 40.1305 35.1525 40.458 35.0039C43.3605 33.6327 45.0248 30.0837 45.0767 26.631Z" stroke="url(#paint3_linear_901_33997)"/>
<path d="M29.4852 28.4033L29.4846 28.4015C28.4537 25.0804 28.9447 21.4525 30.2752 18.2268C30.4239 17.8697 31.4933 15.8509 32.6339 13.7791C33.1995 12.7517 33.7752 11.7245 34.2513 10.9036C34.3766 10.6875 34.4932 10.4888 34.5997 10.3101C34.7857 11.2273 34.975 12.138 35.164 13.0478C35.5824 15.0613 35.9998 17.0705 36.3797 19.1356C36.5766 20.2123 36.7881 21.2835 36.9986 22.3497C37.8825 26.8263 38.749 31.2151 38.4468 35.555L29.4852 28.4033ZM29.4852 28.4033C30.0154 30.1337 31.0892 31.9082 32.5076 33.2627C33.9261 34.6173 35.6561 35.5221 37.4985 35.5886L29.4852 28.4033Z" stroke="url(#paint4_linear_901_33997)"/>
<path d="M35.0107 9.91948C35.4943 11.741 35.8885 13.5806 36.2826 15.4381C36.6588 17.2777 37.035 19.1353 37.3933 20.9748C37.7515 22.8144 38.0919 24.6539 38.3965 26.4935C38.701 28.333 38.9697 30.1906 39.0951 32.0482C39.2026 33.8878 39.0055 46.6745 38.7368 48.496C38.701 48.7304 38.6652 48.9468 38.6114 49.1813C38.5756 49.3617 38.289 49.3075 38.3248 49.1092C38.6293 47.2876 38.8981 34.501 38.8264 32.6614C38.7368 30.8218 38.5039 28.9823 38.2173 27.1608C37.9128 25.3212 37.5724 23.4817 37.232 21.6421C36.8917 19.8026 36.5334 17.945 36.1572 16.1054C35.978 15.1857 35.781 14.2659 35.6018 13.3641C35.4227 12.4444 35.2077 11.5426 35.0644 10.6048C35.0286 10.3704 34.9928 10.1539 34.939 9.91948C34.9032 9.86538 34.9928 9.86538 35.0107 9.91948Z" fill="url(#paint5_linear_901_33997)" stroke="url(#paint6_linear_901_33997)" stroke-width="1.5"/>
<path d="M32.3915 16.5757C32.7677 16.756 33.126 17.0265 33.4843 17.279C33.8426 17.5315 34.183 17.802 34.5233 18.0725C35.2041 18.6316 35.8311 19.2268 36.4043 19.876C36.6731 20.1646 36.9239 20.4712 37.1747 20.7778C37.6583 19.353 38.3033 17.9824 39.1094 16.7199C39.3602 16.3412 39.611 15.9805 39.9155 15.6559C39.9693 15.6018 40.0589 15.6739 40.023 15.728C39.6289 16.4133 39.199 17.0626 38.8228 17.7479C38.4466 18.4332 38.1241 19.1546 37.8196 19.876C37.6583 20.2908 37.4971 20.7056 37.3717 21.1385C37.3359 21.2647 37.1747 21.3008 37.0851 21.1926C36.0461 19.8219 34.8279 18.6136 33.4485 17.5856C33.2514 17.4413 33.0723 17.3151 32.8752 17.1708C32.6782 17.0265 32.4632 16.9183 32.2661 16.756C32.1766 16.6839 32.2841 16.5396 32.3915 16.5757Z" stroke="url(#paint7_linear_901_33997)"/>
<path d="M31.8569 24.33C32.878 24.5464 33.8812 24.9432 34.8127 25.4301C35.7443 25.9171 36.6042 26.4942 37.3924 27.1795C37.8044 27.5222 38.1806 27.9009 38.5389 28.2977C39.6138 26.6926 40.7961 25.1596 42.1218 23.789C42.3188 23.5906 42.5159 23.3922 42.7129 23.2119C42.8204 23.1217 42.91 23.0135 43.0175 22.9233C43.125 22.8331 43.2324 22.761 43.3399 22.6708C43.3758 22.6528 43.4116 22.6888 43.3937 22.7249C43.322 22.8151 43.2504 22.9233 43.1787 23.0135C43.0891 23.1036 42.9996 23.2119 42.91 23.302C42.7488 23.4824 42.5875 23.6627 42.4263 23.8431C42.1038 24.2038 41.7635 24.5825 41.4589 24.9432C40.8319 25.6826 40.2228 26.4401 39.6496 27.2156C39.3271 27.6665 39.0047 28.1173 38.7001 28.5862C38.6464 28.6584 38.521 28.7125 38.4493 28.6223C37.0699 27.0893 35.3502 25.881 33.4513 25.0875C32.9138 24.8711 32.3585 24.6907 31.8031 24.5284C31.6777 24.5104 31.7136 24.2939 31.8569 24.33Z" stroke="url(#paint8_linear_901_33997)"/>
<path d="M34.5439 32.0315C35.2426 32.2119 35.9233 32.5726 36.5503 32.9693C37.1773 33.3661 37.7685 33.835 38.3059 34.358C38.5388 34.5925 38.7717 34.863 38.9866 35.1335C39.6853 33.6727 40.6885 32.3381 41.8888 31.256C42.0679 31.0937 42.247 30.9494 42.4262 30.8052C42.6232 30.6428 42.8203 30.5346 43.0353 30.3903C43.0711 30.3723 43.1069 30.4264 43.0711 30.4445C42.892 30.5707 42.7486 30.733 42.5695 30.8773C42.4083 31.0035 42.265 31.1478 42.1216 31.2921C41.8171 31.5806 41.5305 31.8692 41.2618 32.1938C40.7243 32.8251 40.2227 33.4923 39.8107 34.2137C39.5778 34.6285 39.3628 35.0433 39.1658 35.4762C39.112 35.5844 38.9866 35.5663 38.915 35.4942C38.0372 34.358 36.9086 33.4022 35.6367 32.7529C35.2784 32.5726 34.8843 32.4283 34.5081 32.266C34.3468 32.1938 34.4185 31.9954 34.5439 32.0315Z" stroke="url(#paint9_linear_901_33997)"/>
<path d="M36.2299 47.1064C37.7705 46.1325 38.9349 47.8819 40.2964 48.2787C41.7475 48.5492 43.091 48.0082 44.4883 47.8098C45.3124 47.7016 46.0469 48.3328 46.0469 49.1624V56.8452C46.0469 58.1257 45.0078 59.1717 43.7359 59.1717H24.281C23.0091 59.1717 21.9701 58.1257 21.9701 56.8452V48.5672C21.9701 47.8098 22.5792 47.2146 23.3316 47.1966C24.7468 47.1786 26.1979 46.5473 27.7385 46.7277C30.4256 47.1064 33.5248 48.6574 36.2299 47.1064Z" fill="url(#paint10_linear_901_33997)"/>
<path opacity="0.34" d="M20.9136 30.2338H47.0864C47.588 30.2338 48 29.819 48 29.3141V29.1698C48 28.6648 47.588 28.25 47.0864 28.25H20.9136C20.412 28.25 20 28.6648 20 29.1698V29.3141C20 29.819 20.3941 30.2338 20.9136 30.2338Z" fill="url(#paint11_linear_901_33997)"/>
<path opacity="0.34" d="M23.0445 59.75H44.9375C46.1406 59.75 47.125 59.0482 47.125 58.1904V30H20.8753V58.1904C20.857 59.0482 21.8414 59.75 23.0445 59.75Z" fill="url(#paint12_linear_901_33997)"/>
<path opacity="0.42" d="M21.0941 30.2324H46.8906V31.6391H21.0941V30.2324Z" fill="url(#paint13_linear_901_33997)"/>
<defs>
<linearGradient id="paint0_linear_901_33997" x1="15.1691" y1="15.7038" x2="2.05494" y2="21.299" gradientUnits="userSpaceOnUse">
<stop stop-color="#234D86"/>
<stop offset="1" stop-color="#5B8CCC"/>
</linearGradient>
<linearGradient id="paint1_linear_901_33997" x1="15.1691" y1="3.20383" x2="2.05494" y2="8.79898" gradientUnits="userSpaceOnUse">
<stop stop-color="#234D86"/>
<stop offset="1" stop-color="#5B8CCC"/>
</linearGradient>
<linearGradient id="paint2_linear_901_33997" x1="26.0011" y1="9.18376" x2="12.6378" y2="14.5289" gradientUnits="userSpaceOnUse">
<stop stop-color="#234D86"/>
<stop offset="1" stop-color="#5B8CCC"/>
</linearGradient>
<linearGradient id="paint3_linear_901_33997" x1="35.6018" y1="13.76" x2="47.0877" y2="15.4788" gradientUnits="userSpaceOnUse">
<stop stop-color="#234D86"/>
<stop offset="1" stop-color="#5B8CCC"/>
</linearGradient>
<linearGradient id="paint4_linear_901_33997" x1="29.1756" y1="13.7766" x2="40.5044" y2="15.4416" gradientUnits="userSpaceOnUse">
<stop stop-color="#234D86"/>
<stop offset="1" stop-color="#5B8CCC"/>
</linearGradient>
<linearGradient id="paint5_linear_901_33997" x1="35.226" y1="16.8275" x2="39.8082" y2="17.0111" gradientUnits="userSpaceOnUse">
<stop stop-color="#234D86"/>
<stop offset="1" stop-color="#5B8CCC"/>
</linearGradient>
<linearGradient id="paint6_linear_901_33997" x1="35.226" y1="16.8275" x2="39.8082" y2="17.0111" gradientUnits="userSpaceOnUse">
<stop stop-color="#234D86"/>
<stop offset="1" stop-color="#5B8CCC"/>
</linearGradient>
<linearGradient id="paint7_linear_901_33997" x1="32.7819" y1="16.6275" x2="39.4857" y2="20.1295" gradientUnits="userSpaceOnUse">
<stop stop-color="#234D86"/>
<stop offset="1" stop-color="#5B8CCC"/>
</linearGradient>
<linearGradient id="paint8_linear_901_33997" x1="32.5484" y1="23.7245" x2="40.865" y2="29.8114" gradientUnits="userSpaceOnUse">
<stop stop-color="#234D86"/>
<stop offset="1" stop-color="#5B8CCC"/>
</linearGradient>
<linearGradient id="paint9_linear_901_33997" x1="35.0255" y1="31.2975" x2="41.8062" y2="35.5821" gradientUnits="userSpaceOnUse">
<stop stop-color="#234D86"/>
<stop offset="1" stop-color="#5B8CCC"/>
</linearGradient>
<linearGradient id="paint10_linear_901_33997" x1="23.6656" y1="48.895" x2="40.9096" y2="61.4225" gradientUnits="userSpaceOnUse">
<stop stop-color="#234D86"/>
<stop offset="1" stop-color="#5B8CCC"/>
</linearGradient>
<linearGradient id="paint11_linear_901_33997" x1="21.9718" y1="28.5998" x2="23.0199" y2="34.1687" gradientUnits="userSpaceOnUse">
<stop stop-color="#234D86"/>
<stop offset="1" stop-color="#5B8CCC"/>
</linearGradient>
<linearGradient id="paint12_linear_901_33997" x1="22.7235" y1="35.2451" x2="48.5923" y2="43.8379" gradientUnits="userSpaceOnUse">
<stop stop-color="#234D86"/>
<stop offset="1" stop-color="#5B8CCC"/>
</linearGradient>
<linearGradient id="paint13_linear_901_33997" x1="22.9107" y1="30.4804" x2="23.4908" y2="34.4852" gradientUnits="userSpaceOnUse">
<stop stop-color="#234D86"/>
<stop offset="1" stop-color="#5B8CCC"/>
</linearGradient>
</defs>
</svg>
