<svg width="70" height="70" viewBox="0 0 70 70" fill="none" xmlns="http://www.w3.org/2000/svg">
<path d="M4.33928e-05 34.9314C0.0301614 15.6408 15.7988 -0.050701 35.1026 0.000123116C54.3687 0.0509473 70.032 15.7914 70 35.0669C69.9661 54.3612 54.1899 70.0603 34.8974 69.9981C15.6219 69.9379 -0.0300746 54.2088 4.33928e-05 34.9314ZM59.6187 56.5316C63.0879 52.5824 65.4427 48.0515 66.7641 42.9032H65.9397C62.3424 42.9032 58.7452 42.9013 55.148 42.9032C49.3879 42.907 43.6279 42.9145 37.8678 42.9202C34.6019 42.9202 31.3378 42.9221 28.0719 42.9239C27.9307 42.9164 27.7914 42.9032 27.6503 42.9032C19.7725 42.9032 11.8967 42.9108 4.01892 42.8863C3.33561 42.8844 3.22832 43.0256 3.42032 43.6731C6.32483 53.4746 12.4087 60.543 21.6549 64.8781C23.4356 65.7139 25.2879 66.3934 27.2399 66.7473C29.591 67.4231 31.9967 67.6809 34.4343 67.7054C39.9384 67.8315 45.1281 66.5967 50.011 64.0743C52.7536 62.6569 55.276 60.9232 57.4615 58.7265C58.2652 58.0752 58.941 57.2996 59.6205 56.5279L59.6187 56.5316ZM27.0968 26.1143C28.4183 25.2334 29.6173 24.4145 30.839 23.6296C31.3887 23.2776 31.6296 22.8333 31.6221 22.1726C31.5976 19.8441 31.6127 17.5156 31.6127 15.1871C31.6127 13.5306 31.6127 13.557 33.2899 13.5325C33.815 13.525 33.8847 13.7057 33.8809 14.1688C33.8583 16.8493 33.8546 19.5317 33.8772 22.2122C33.8885 23.6258 33.335 24.695 32.1473 25.4687C30.5943 26.4814 29.0677 27.5355 27.5128 28.5463C27.1985 28.7496 27.0855 28.9567 27.0855 29.3332C27.1025 32.9304 27.1006 36.5295 27.0874 40.1286C27.0874 40.4976 27.1364 40.6557 27.5693 40.6557C34.0372 40.6406 40.5031 40.6406 46.971 40.6557C47.3681 40.6557 47.4321 40.5145 47.4227 40.1719C47.402 39.3719 47.3832 38.5719 47.4284 37.7738C47.4547 37.3032 47.274 37.2392 46.8693 37.2505C45.93 37.2787 44.9888 37.2712 44.0476 37.2561C39.8914 37.1865 37.2127 33.0076 38.9257 29.2184C39.2043 28.6009 39.0951 28.2866 38.6584 27.8047C36.0438 24.9265 35.3548 21.5929 36.8664 18.0163C38.3892 14.4172 41.2674 12.5537 45.1846 12.4332C47.4171 12.3654 49.6534 12.3711 51.8859 12.4332C55.7786 12.5405 58.6492 14.389 60.189 17.9392C61.7457 21.527 61.0737 24.8927 58.4403 27.7934C57.9735 28.3073 57.9019 28.6386 58.188 29.2729C59.709 32.6575 57.6798 36.4712 54.0336 37.1507C52.7743 37.386 51.5 37.241 50.2331 37.2467C49.7606 37.2486 49.6439 37.3841 49.6646 37.834C49.7004 38.6076 49.6985 39.387 49.6646 40.1606C49.6458 40.5747 49.7927 40.6726 50.1785 40.6557C50.8129 40.6256 51.4473 40.6481 52.0835 40.6481C56.9287 40.6481 61.7721 40.6481 66.6173 40.6463C66.9223 40.6463 67.2404 40.763 67.3232 40.2321C67.9275 36.3601 67.8898 32.4993 67.1162 28.6593C64.2756 14.5189 52.6783 3.9117 38.3459 2.43592C30.4606 1.62461 23.0817 3.35452 16.6365 7.96069C5.65658 15.8083 0.990173 26.5623 2.65231 40.01C2.71631 40.522 2.85937 40.6576 3.37326 40.6576C10.3343 40.6387 17.2953 40.6406 24.2563 40.6538C24.6874 40.6538 24.8587 40.5879 24.8512 40.0947C24.8192 38.0486 24.8211 36.0024 24.8512 33.9563C24.8568 33.5196 24.6799 33.3426 24.3297 33.1713C22.6657 32.3582 21.0262 31.496 19.3546 30.6998C16.9038 29.5327 15.6539 27.6127 15.8346 24.9115C15.9231 23.6032 15.5146 22.8296 14.3663 22.1839C12.8096 21.3105 12.8717 21.2296 13.9183 19.7538C14.1405 19.4394 14.2929 19.4319 14.5753 19.6408C14.9442 19.9138 15.3395 20.1528 15.8064 20.4615C15.8064 20.1415 15.8064 19.9364 15.8064 19.7312C15.8101 18.0578 15.8101 18.0785 17.461 18.0559C17.9504 18.0483 18.0859 18.165 18.0784 18.6658C18.0483 20.9001 18.0596 23.1345 18.0671 25.3689C18.0727 26.6376 18.5734 27.6899 19.6916 28.3035C21.3499 29.2146 23.061 30.0278 24.8135 30.9144C24.8267 30.7468 24.838 30.6621 24.838 30.5774C24.838 25.8037 24.8342 21.03 24.8436 16.2544C24.8436 15.637 24.5839 15.238 24.0436 14.9725C22.6958 14.3118 21.3518 13.6473 20.0135 12.9659C18.8859 12.3918 18.2177 11.4732 18.0821 10.2064C17.956 9.03364 17.9711 9.03364 19.1495 9.03364C19.3377 9.03364 19.5297 9.05811 19.7123 9.02988C20.1923 8.95647 20.3956 9.10894 20.3297 9.62471C20.2412 10.325 20.5838 10.7617 21.2238 11.0459C21.9523 11.3678 22.6507 11.7556 23.3603 12.1189C23.5749 12.228 23.7613 12.2826 24.0097 12.149C24.8361 11.7066 25.6813 11.2981 26.5208 10.8784C26.8597 10.709 27.063 10.4624 27.0968 10.0633C27.1853 9.03176 27.1928 9.03364 28.2526 9.03364C28.5105 9.03364 28.7703 9.03364 29.0282 9.03364C29.1995 9.03364 29.3143 9.03364 29.3632 9.2727C29.6268 10.5941 28.9679 12.085 27.7632 12.7702C27.2267 13.0751 26.6677 13.3405 26.0766 13.6455C26.9293 14.5339 27.1194 15.5561 27.1081 16.6799C27.078 19.782 27.0968 22.8842 27.0968 26.1143ZM47.4171 24.7402C47.4171 23.9157 47.4171 23.2343 47.4171 22.551C47.4171 22.3176 47.4058 22.0992 47.6053 21.9072C48.3319 21.2051 49.0435 20.486 49.7569 19.7688C49.9037 19.6201 50.0242 19.5185 50.2143 19.7218C50.6473 20.1848 51.3042 20.5707 51.4661 21.1091C51.579 21.4893 50.8073 21.8677 50.4552 22.2705C50.348 22.3947 50.2369 22.5209 50.1051 22.6187C49.7512 22.8823 49.6609 23.2173 49.6665 23.6541C49.6929 25.3463 49.6741 27.0404 49.6816 28.7346C49.6816 28.9021 49.5762 29.1129 49.8077 29.2466C50.2011 28.9548 50.6002 28.6631 50.9917 28.3675C52.443 27.2701 52.4299 27.2795 53.467 28.7402C53.7118 29.0847 53.6327 29.2353 53.3296 29.448C52.6953 29.8941 52.1343 30.4701 51.4548 30.8184C49.9075 31.6109 49.3729 32.8231 49.6759 34.4796C49.6797 34.5022 49.6797 34.5267 49.6759 34.5492C49.6063 34.9351 49.7927 35.0161 50.1447 35.0067C51.0858 34.9841 52.027 35.0104 52.9663 34.9973C55.5603 34.9596 57.1716 32.4391 56.1099 30.0786C55.869 29.544 55.6073 29.0188 55.3193 28.5087C55.1179 28.1529 55.1122 27.9045 55.4511 27.6108C55.9461 27.1797 56.4073 26.7035 56.844 26.2122C58.7641 24.0399 59.2723 21.559 58.1429 18.8898C57.0022 16.1942 54.8525 14.7843 51.9254 14.6977C49.6703 14.6299 47.4077 14.6262 45.1526 14.6977C42.2293 14.7918 40.0796 16.2017 38.9445 18.9029C37.8207 21.5759 38.3327 24.055 40.2603 26.2235C40.697 26.7148 41.1657 27.1816 41.6514 27.624C41.9431 27.8875 42.0053 28.1021 41.7982 28.4579C41.482 29.0038 41.2034 29.5779 40.953 30.1577C39.9535 32.4617 41.5535 34.9483 44.0683 34.9973C45.0095 35.0161 45.9507 34.9747 46.89 35.0123C47.3343 35.0311 47.434 34.8975 47.4284 34.4683C47.4039 32.3525 47.4077 30.2348 47.4284 28.1191C47.4321 27.7407 47.2891 27.5261 47.0067 27.3077C45.8397 26.3986 44.6876 25.4668 43.5337 24.5388C42.1483 23.4244 42.1615 23.4319 43.321 22.0446C43.5695 21.7472 43.7013 21.7642 43.9761 21.9882C45.0792 22.8917 46.2011 23.7726 47.419 24.7421L47.4171 24.7402Z" fill="url(#paint0_linear_1682_33327)"/>
<path d="M27.2403 66.7507C25.2883 66.3968 23.4361 65.7154 21.6553 64.8815C12.411 60.5463 6.32715 53.478 3.42076 43.6765C3.22876 43.029 3.33606 42.8878 4.01936 42.8897C11.8971 42.9141 19.773 42.9047 27.6507 42.9066C27.7919 42.9066 27.9312 42.9198 28.0724 42.9273C28.8197 45.5306 26.7528 47.6295 24.2944 47.445C22.6116 47.3189 20.9099 47.4093 19.2177 47.4281C18.5682 47.4356 18.1259 47.8629 18.0732 48.4502C18.0242 49.0074 18.3932 49.5307 18.9504 49.6493C19.1537 49.6926 19.372 49.6794 19.5828 49.6794C22.781 49.6794 25.9792 49.6832 29.1773 49.6794C29.8192 49.6794 30.4441 49.7641 31.0352 50.0145C33.0437 50.8653 34.1995 52.9434 33.7948 54.9576C33.3317 57.2503 31.5905 58.7035 29.2658 58.711C26.9618 58.7204 24.6558 58.7129 22.3518 58.7129C22.0695 58.7129 21.7871 58.7035 21.5047 58.7167C20.7894 58.7506 20.3207 59.2099 20.3283 59.8555C20.3358 60.5012 20.8045 60.9379 21.5311 60.9699C21.6478 60.9755 21.7664 60.9699 21.8831 60.9699C22.7302 60.9699 23.5772 60.9981 24.4224 60.9642C25.9867 60.9021 27.1952 61.5026 27.8879 62.9106C28.5749 64.3092 28.2399 65.6043 27.2422 66.7544L27.2403 66.7507Z" fill="url(#paint1_linear_1682_33327)"/>
<path d="M59.6178 56.5316C59.3505 56.3998 59.0644 56.4525 58.7858 56.4525C55.9905 56.4488 53.1952 56.4525 50.3979 56.4488C48.3123 56.4469 46.7461 54.988 46.748 53.0605C46.7499 51.1292 48.3123 49.6816 50.3998 49.676C51.0097 49.676 51.6215 49.6835 52.2314 49.6741C53.0427 49.6609 53.4907 49.2675 53.5057 48.5785C53.5208 47.8463 53.0709 47.4228 52.2257 47.4209C48.5852 47.4134 44.9428 47.4209 41.3023 47.4171C39.3296 47.4152 37.9536 46.1992 37.7484 44.2453C37.7032 43.8124 37.8218 43.3625 37.8651 42.9201C43.6252 42.9145 49.3852 42.9069 55.1453 42.9032C58.7425 42.9013 62.3397 42.9032 65.937 42.9032H66.7614C65.44 48.0515 63.0833 52.5824 59.6159 56.5316H59.6178Z" fill="url(#paint2_linear_1682_33327)"/>
<path d="M34.4362 67.7087C33.6945 66.1651 33.6343 64.6347 34.5472 63.1383C35.4131 61.7208 36.712 61.0168 38.3534 60.9754C39.7633 60.9396 41.1751 60.9585 42.5869 60.9754C42.9276 60.9792 43.1158 60.8926 43.2965 60.565C43.9723 59.3302 45.034 58.7034 46.4608 58.709C50.1296 58.7222 53.7964 58.726 57.4652 58.7316C55.2779 60.9283 52.7555 62.662 50.0147 64.0794C45.1318 66.6018 39.9421 67.8367 34.4381 67.7105L34.4362 67.7087Z" fill="url(#paint3_linear_1682_33327)"/>
<defs>
<linearGradient id="paint0_linear_1682_33327" x1="84" y1="9.76466" x2="-5.12109" y2="84.0684" gradientUnits="userSpaceOnUse">
<stop stop-color="#266D4A"/>
<stop offset="1" stop-color="#66BC91"/>
</linearGradient>
<linearGradient id="paint1_linear_1682_33327" x1="39.983" y1="46.2187" x2="9.15951" y2="79.104" gradientUnits="userSpaceOnUse">
<stop stop-color="#266D4A"/>
<stop offset="1" stop-color="#66BC91"/>
</linearGradient>
<linearGradient id="paint2_linear_1682_33327" x1="72.5661" y1="44.8036" x2="57.4802" y2="71.5869" gradientUnits="userSpaceOnUse">
<stop stop-color="#266D4A"/>
<stop offset="1" stop-color="#66BC91"/>
</linearGradient>
<linearGradient id="paint3_linear_1682_33327" x1="62.184" y1="59.9659" x2="53.3531" y2="79.2449" gradientUnits="userSpaceOnUse">
<stop stop-color="#266D4A"/>
<stop offset="1" stop-color="#66BC91"/>
</linearGradient>
</defs>
</svg>
