<svg width="67" height="76" viewBox="0 0 67 76" fill="none" xmlns="http://www.w3.org/2000/svg">
<path d="M62.5748 58.3475C63.9061 58.3475 64.9798 58.3475 66.3971 58.3475C58.9242 68.9491 49.0892 75.0257 36.4197 75.8876C21.3022 76.9219 9.44874 70.8453 0.601562 58.6923C0.64451 58.563 0.64451 58.4768 0.687457 58.3475C1.20283 58.3475 1.7182 58.3475 2.23357 58.3475C2.74894 58.3475 3.22136 58.3475 3.86557 58.3475C3.90852 57.9166 3.95146 57.5287 3.95146 57.1409C3.95146 55.2446 3.99441 53.3484 3.95146 51.4522C3.95146 50.7627 4.1662 50.5041 4.85336 50.4179C6.01294 50.3317 7.12958 50.1162 8.24621 50.03C9.14811 49.9869 9.49169 49.6853 9.44874 48.7372C9.36284 47.4443 9.44874 46.1514 9.40579 44.8585C9.36284 44.169 9.62053 43.8673 10.3077 43.6949C12.3262 43.1778 14.3018 42.5744 16.3203 42.0573C17.0504 41.8849 17.3511 41.5401 17.2652 40.8075C17.2222 40.6351 17.2652 40.4627 17.2652 40.2904C17.2652 38.0494 17.2652 38.0063 19.4984 37.5753C21.9035 37.1013 24.3086 37.1875 26.7995 37.7477C26.7995 40.2904 26.7995 42.7899 26.7995 45.505C27.7014 45.3326 28.4745 45.2895 29.2046 45.0309C29.4623 44.9447 29.634 44.3845 29.677 43.9966C29.8488 38.3941 29.9776 32.7917 30.1065 27.1892C30.1924 24.0863 30.2353 20.9403 30.3212 17.8374C30.3212 17.4495 30.3642 17.0617 30.4071 16.6307C31.2231 16.6307 31.9532 16.6307 32.8122 16.6307C33.1557 25.8101 33.4993 34.9465 33.8 44.2552C35.0454 44.0397 36.205 43.8673 37.3646 43.6518C37.5364 43.6087 37.7511 43.2209 37.7511 43.0054C37.6652 42.1435 38.1376 41.928 38.8678 41.7556C39.8126 41.5401 41.0151 41.4539 41.5305 40.8075C42.0029 40.2473 41.7452 39.0406 41.7882 38.0925C42.0029 30.0766 42.1747 22.1039 42.3894 14.088C42.3894 13.7002 42.5183 12.9676 42.6471 12.9676C43.2913 12.8383 43.9785 12.8814 44.6657 12.9676C44.7945 12.9676 44.8804 13.5709 44.9233 13.9157C45.181 20.1215 45.3958 26.3273 45.6105 32.5331C45.6964 34.5586 45.7393 36.541 45.8252 38.5665C45.8252 38.9544 45.8682 39.3422 45.9111 39.8594C46.6842 39.687 47.3284 39.4715 47.9726 39.3422C49.7764 38.9544 51.5802 38.4803 53.4269 38.2218C54.4577 38.0925 54.6724 37.6615 54.6724 36.7134C54.8442 28.3959 55.0589 20.0784 55.2737 11.7178C55.2737 10.8559 55.2737 9.99394 55.2737 9.04583C55.9179 9.00273 56.3903 9.00273 56.9057 8.95963C57.5928 8.91654 57.8505 9.17511 57.8935 9.90774C57.9364 12.1918 58.0653 14.519 58.1512 16.8031C58.4088 23.5691 58.6665 30.2921 58.8383 37.0582C58.8813 38.0063 59.139 38.351 60.0838 38.2648C60.8998 38.1787 61.7158 38.2648 62.6606 38.2648C62.5748 44.8585 62.5748 51.5384 62.5748 58.3475ZM52.7398 58.3044C55.5314 58.3044 58.1941 58.3044 60.8998 58.2613C61.1145 58.2613 61.5011 57.7873 61.5011 57.5287C61.544 51.6677 61.544 45.8497 61.544 39.9887C61.544 39.3853 61.3293 39.1699 60.728 39.1699C59.6114 39.213 58.4947 39.1699 57.4211 39.1699C55.8749 39.1699 54.3718 39.1699 52.7827 39.1699C52.7398 45.6342 52.7398 51.8832 52.7398 58.3044ZM22.3759 38.2218C22.29 38.4372 22.2471 38.6096 22.2471 38.7389C22.2471 42.4021 22.2471 46.0652 22.2041 49.6853C22.2041 50.5903 22.8483 50.5041 23.2778 50.3748C24.0509 50.1162 25.554 51.2367 25.597 49.6422C25.7688 46.1945 25.6399 42.7037 25.6399 39.213C25.6399 38.9544 25.3393 38.5234 25.1246 38.4803C24.2656 38.3079 23.3208 38.3079 22.3759 38.2218ZM31.9962 58.3044C32.2968 58.3044 32.6833 58.3044 33.0698 58.3044C36.1621 58.3044 39.2113 58.3044 42.3035 58.3044C44.4509 58.3044 44.4509 58.3044 44.2362 56.1496C44.2362 56.0635 44.1503 55.9342 44.0644 55.7187C43.7208 55.7187 43.3343 55.7187 42.9478 55.7187C39.8555 55.7187 36.8063 55.7187 33.7141 55.7187C31.5667 55.7187 31.5237 55.7618 31.8244 57.9597C31.8244 58.089 31.9103 58.1321 31.9962 58.3044ZM34.6589 54.6844C35.9473 54.6844 37.1499 54.7275 38.3953 54.6413C38.6101 54.6413 38.9966 54.1672 38.9966 53.9087C39.0395 52.4003 39.0395 50.8919 38.9966 49.3836C38.9966 49.125 38.6101 48.6941 38.3524 48.651C37.1499 48.5648 35.9473 48.6079 34.6589 48.6079C34.6589 50.6765 34.6589 52.6158 34.6589 54.6844ZM22.2471 54.8999C22.2471 55.8049 22.2471 56.7099 22.2471 57.5718C22.2471 58.1321 22.4618 58.4337 23.0201 58.3044C23.922 58.1321 24.9957 58.8647 25.7258 57.7873C25.7688 57.7442 25.7258 57.658 25.7258 57.5718C25.7258 55.7618 25.7258 53.9087 25.7258 52.0986C25.7258 51.0643 24.8669 51.3229 24.3945 51.4091C23.6644 51.5815 22.5907 50.6765 22.29 52.0555C22.2471 52.2279 22.29 52.4003 22.29 52.5727C22.2471 53.3915 22.2471 54.1241 22.2471 54.8999ZM18.253 58.3044C19.1549 58.3044 19.885 58.3475 20.5721 58.2613C20.7869 58.2613 21.0875 57.9597 21.1304 57.7873C21.1734 55.7187 21.1734 53.6501 21.1734 51.4953C20.3144 51.5384 19.5843 51.5384 18.8972 51.6677C18.6824 51.7108 18.2959 52.0555 18.2959 52.2279C18.21 54.2103 18.253 56.1927 18.253 58.3044ZM44.9233 48.2631C45.0092 48.3493 45.1381 48.4786 45.224 48.5648C45.7823 48.22 46.813 47.9183 46.856 47.4874C47.0707 45.9359 46.9419 44.2983 46.9419 42.7037C45.4817 42.7037 44.9233 42.9192 44.9233 43.5656C44.8804 45.1171 44.9233 46.6685 44.9233 48.2631ZM50.6783 41.4539C49.8623 41.8418 48.7886 42.1004 48.7457 42.4451C48.5739 44.0828 48.6598 45.7635 48.6598 47.4012C48.7886 47.4874 48.9175 47.5736 49.0034 47.6598C49.5617 47.2719 50.5065 46.9271 50.5495 46.4962C50.8071 44.9447 50.6783 43.3933 50.6783 41.4539ZM43.1196 43.2209C42.2606 43.738 41.2728 44.0397 41.2299 44.4276C41.0151 45.979 41.144 47.6167 41.144 49.2112C41.2299 49.2974 41.3158 49.3836 41.4017 49.4698C41.96 49.125 42.9907 48.8233 43.0337 48.3924C43.2484 46.8409 43.1196 45.2464 43.1196 43.2209ZM15.4184 43.738C14.5595 43.9104 14.3877 44.7292 14.8601 46.1514C15.6761 45.8928 15.805 45.2895 15.4184 43.738ZM13.7005 44.169C12.8416 44.2983 12.7127 44.7723 13.0563 46.5393C13.9582 46.3669 14.0871 45.8497 13.7005 44.169ZM11.3814 46.9271C12.2403 46.7547 12.4551 45.7635 11.8967 44.5138C11.1237 44.8154 10.9948 45.4188 11.3814 46.9271Z" fill="url(#paint0_linear_908_33818)"/>
<path d="M43.4207 11.6742C41.531 10.9415 39.5124 10.3813 37.7087 9.47629C36.0767 8.61437 36.0337 6.80434 37.1074 5.59766C37.3221 6.41648 37.3651 7.53697 37.9234 8.22651C38.5247 8.95914 39.5983 9.347 40.5002 9.77796C41.1874 10.1227 41.9605 10.2951 42.6906 10.6399C43.0341 10.7692 43.2918 11.1139 43.5925 11.3294C43.5495 11.4156 43.4636 11.5449 43.4207 11.6742Z" fill="url(#paint1_linear_908_33818)"/>
<path d="M54.5036 8.82996C52.614 8.09733 50.5954 7.53708 48.7916 6.58897C47.2455 5.81325 47.1596 3.91703 48.448 2.58105C47.9756 5.38229 49.6506 6.37349 51.7979 7.01993C52.5281 7.23541 53.2152 7.49399 53.9024 7.83875C54.203 7.96804 54.4177 8.26971 54.7184 8.48519C54.6325 8.57138 54.5895 8.70067 54.5036 8.82996Z" fill="url(#paint2_linear_908_33818)"/>
<path d="M55.2742 7.75238C53.9429 6.76118 52.6544 5.89926 51.4949 4.86496C50.1205 3.70137 50.1205 2.2792 51.409 0.986328C51.0224 3.14112 52.225 4.34781 53.6852 5.4683C54.3723 6.02855 55.3601 6.5026 55.2742 7.75238Z" fill="url(#paint3_linear_908_33818)"/>
<path d="M39.5125 3.18457C39.2978 5.38246 40.5003 6.58915 41.9176 7.66654C42.6477 8.22679 43.6355 8.74394 43.4637 9.90753C42.2611 9.00252 41.0157 8.1406 39.8561 7.19249C38.5247 6.11509 38.31 4.86531 39.083 3.61553C39.126 3.48624 39.2119 3.44315 39.5125 3.18457Z" fill="url(#paint4_linear_908_33818)"/>
<path d="M31.3088 15.2505C29.6768 14.6472 28.0018 14.1731 26.4128 13.4405C24.7808 12.6648 24.609 11.0271 25.6397 9.77734C25.8544 10.5531 25.8974 11.5874 26.4557 12.2338C27.014 12.8802 28.0018 13.1819 28.8178 13.5698C29.7197 14.0007 30.6646 14.3455 31.5665 14.7334C31.4806 14.9489 31.3947 15.1212 31.3088 15.2505Z" fill="url(#paint5_linear_908_33818)"/>
<path d="M31.395 13.6567C30.2784 12.8379 29.1618 12.0622 28.0881 11.2003C26.8426 10.166 26.7138 9.04547 27.8733 7.53711C27.5727 10.0367 29.2477 10.9848 30.622 12.1915C31.0515 12.5362 31.2662 13.0965 31.6098 13.5705C31.5239 13.5705 31.438 13.6136 31.395 13.6567Z" fill="url(#paint6_linear_908_33818)"/>
<path d="M56.3077 46.8403C55.7494 46.8403 55.2341 46.8403 54.5898 46.8403C54.5898 45.2027 54.5898 43.565 54.5898 41.7981C55.1052 41.755 55.6635 41.755 56.3077 41.7119C56.3077 43.4788 56.3077 45.1165 56.3077 46.8403Z" fill="url(#paint7_linear_908_33818)"/>
<path d="M58.105 46.7975C58.105 45.2892 58.0621 43.8239 58.105 42.3586C58.105 41.6691 58.3627 41.626 59.8659 41.8415C59.8659 43.436 59.8659 45.0737 59.8659 46.7975C59.3505 46.7975 58.7922 46.7975 58.105 46.7975Z" fill="url(#paint8_linear_908_33818)"/>
<defs>
<linearGradient id="paint0_linear_908_33818" x1="61.7638" y1="20.7756" x2="-1.58427" y2="44.1788" gradientUnits="userSpaceOnUse">
<stop stop-color="#07338C"/>
<stop offset="1" stop-color="#3265CB"/>
</linearGradient>
<linearGradient id="paint1_linear_908_33818" x1="43.0845" y1="6.66898" x2="36.5053" y2="9.6092" gradientUnits="userSpaceOnUse">
<stop stop-color="#07338C"/>
<stop offset="1" stop-color="#3265CB"/>
</linearGradient>
<linearGradient id="paint2_linear_908_33818" x1="54.2136" y1="3.68277" x2="47.6033" y2="6.53713" gradientUnits="userSpaceOnUse">
<stop stop-color="#07338C"/>
<stop offset="1" stop-color="#3265CB"/>
</linearGradient>
<linearGradient id="paint3_linear_908_33818" x1="54.9396" y1="2.17922" x2="50.0138" y2="3.50198" gradientUnits="userSpaceOnUse">
<stop stop-color="#07338C"/>
<stop offset="1" stop-color="#3265CB"/>
</linearGradient>
<linearGradient id="paint4_linear_908_33818" x1="43.1421" y1="4.36987" x2="38.2026" y2="5.7104" gradientUnits="userSpaceOnUse">
<stop stop-color="#07338C"/>
<stop offset="1" stop-color="#3265CB"/>
</linearGradient>
<linearGradient id="paint5_linear_908_33818" x1="31.1038" y1="10.7423" x2="25.1337" y2="13.4403" gradientUnits="userSpaceOnUse">
<stop stop-color="#07338C"/>
<stop offset="1" stop-color="#3265CB"/>
</linearGradient>
<linearGradient id="paint6_linear_908_33818" x1="31.2904" y1="8.61604" x2="26.686" y2="9.90071" gradientUnits="userSpaceOnUse">
<stop stop-color="#07338C"/>
<stop offset="1" stop-color="#3265CB"/>
</linearGradient>
<linearGradient id="paint7_linear_908_33818" x1="56.1868" y1="42.6161" x2="54.3365" y2="42.8494" gradientUnits="userSpaceOnUse">
<stop stop-color="#07338C"/>
<stop offset="1" stop-color="#3265CB"/>
</linearGradient>
<linearGradient id="paint8_linear_908_33818" x1="59.7405" y1="42.6206" x2="57.8263" y2="42.8735" gradientUnits="userSpaceOnUse">
<stop stop-color="#07338C"/>
<stop offset="1" stop-color="#3265CB"/>
</linearGradient>
</defs>
</svg>
