<svg width="68" height="69" viewBox="0 0 68 69" fill="none" xmlns="http://www.w3.org/2000/svg">
<path d="M30.787 60.4397H0.601562V0.158203H57.1663V38.0153H55.2512V2.06059H2.51658V58.5373H30.787V60.4397Z" fill="url(#paint0_linear_1647_33360)"/>
<path d="M25.9272 36.0182H12.4264V37.9206H25.9272V36.0182Z" fill="url(#paint1_linear_1647_33360)"/>
<path d="M23.3659 43.2227H12.4264V45.1251H23.3659V43.2227Z" fill="url(#paint2_linear_1647_33360)"/>
<path d="M24.108 50.4288H12.4264V52.3312H24.108V50.4288Z" fill="url(#paint3_linear_1647_33360)"/>
<path d="M48.9307 8.48997H12.4258V10.3924H48.9307V8.48997Z" fill="url(#paint4_linear_1647_33360)"/>
<path d="M48.9307 16.1706H12.4258V18.073H48.9307V16.1706Z" fill="url(#paint5_linear_1647_33360)"/>
<path d="M48.9307 23.8747H12.4258V25.7771H48.9307V23.8747Z" fill="url(#paint6_linear_1647_33360)"/>
<path d="M62.1745 68.9994C60.9058 68.9994 59.6611 68.5475 58.6557 67.6439L50.7563 60.4386C47.7401 62.4361 44.2691 63.5062 40.6306 63.5062C30.5768 63.5062 22.4141 55.3973 22.4141 45.4097C22.4141 35.4222 30.5768 27.3132 40.6306 27.3132C50.6844 27.3132 58.8472 35.4222 58.8472 45.4097C58.8472 47.8353 58.3684 50.1895 57.4109 52.4486L65.7173 60.0106C66.7945 60.9855 67.3929 62.3886 67.3929 63.8154C67.3929 65.1232 66.9142 66.3598 66.0045 67.311C64.9992 68.4524 63.5868 68.9994 62.1745 68.9994ZM50.8999 57.9893L59.9483 66.2409C61.2888 67.4537 63.3714 67.3823 64.6162 66.0507C65.1667 65.4562 65.4779 64.6714 65.4779 63.8391C65.4779 62.9355 65.0949 62.0319 64.4007 61.4136L55.065 52.9004L55.3523 52.2583C56.3816 50.0706 56.9082 47.7639 56.9082 45.3859C56.9082 36.4447 49.5833 29.1918 40.6067 29.1918C31.6061 29.1918 24.3051 36.4685 24.3051 45.3859C24.3051 54.3272 31.6301 61.58 40.6067 61.58C44.0776 61.58 47.405 60.4862 50.2296 58.4411L50.8999 57.9893ZM40.6306 58.7978C33.186 58.7978 27.1298 52.7815 27.1298 45.4097C27.1298 38.0142 33.186 31.9979 40.6306 31.9979C48.0752 31.9979 54.1315 38.0142 54.1315 45.4097C54.1315 52.8053 48.0752 58.7978 40.6306 58.7978ZM40.6306 33.9002C34.2393 33.9002 29.0448 39.0605 29.0448 45.4097C29.0448 51.7589 34.2393 56.8954 40.6306 56.8954C47.022 56.8954 52.2165 51.7352 52.2165 45.4097C52.2165 39.0605 47.022 33.9002 40.6306 33.9002Z" fill="url(#paint7_linear_1647_33360)"/>
<path d="M38.8078 52.2589L31.5547 45.2201L32.8952 43.8646L38.7839 49.5956C40.0286 48.359 41.1776 47.2176 42.2309 46.1475L44.0023 44.364C45.1992 43.1512 46.6115 41.7244 48.1435 40.2263L49.484 41.5818C47.9759 43.0799 46.5636 44.5067 45.3667 45.6957L43.5953 47.4792C42.3506 48.7395 40.9861 50.095 39.4541 51.5931L38.8078 52.2589Z" fill="url(#paint8_linear_1647_33360)"/>
<defs>
<linearGradient id="paint0_linear_1647_33360" x1="62.6895" y1="12.2953" x2="-1.79198" y2="35.8471" gradientUnits="userSpaceOnUse">
<stop stop-color="#EF8E48"/>
<stop offset="1" stop-color="#CD5A19"/>
</linearGradient>
<linearGradient id="paint1_linear_1647_33360" x1="62.6895" y1="12.2953" x2="-1.79198" y2="35.8471" gradientUnits="userSpaceOnUse">
<stop stop-color="#EF8E48"/>
<stop offset="1" stop-color="#CD5A19"/>
</linearGradient>
<linearGradient id="paint2_linear_1647_33360" x1="62.6895" y1="12.2953" x2="-1.79198" y2="35.8471" gradientUnits="userSpaceOnUse">
<stop stop-color="#EF8E48"/>
<stop offset="1" stop-color="#CD5A19"/>
</linearGradient>
<linearGradient id="paint3_linear_1647_33360" x1="62.6895" y1="12.2953" x2="-1.79198" y2="35.8471" gradientUnits="userSpaceOnUse">
<stop stop-color="#EF8E48"/>
<stop offset="1" stop-color="#CD5A19"/>
</linearGradient>
<linearGradient id="paint4_linear_1647_33360" x1="62.6895" y1="12.2953" x2="-1.79198" y2="35.8471" gradientUnits="userSpaceOnUse">
<stop stop-color="#EF8E48"/>
<stop offset="1" stop-color="#CD5A19"/>
</linearGradient>
<linearGradient id="paint5_linear_1647_33360" x1="62.6895" y1="12.2953" x2="-1.79198" y2="35.8471" gradientUnits="userSpaceOnUse">
<stop stop-color="#EF8E48"/>
<stop offset="1" stop-color="#CD5A19"/>
</linearGradient>
<linearGradient id="paint6_linear_1647_33360" x1="62.6895" y1="12.2953" x2="-1.79198" y2="35.8471" gradientUnits="userSpaceOnUse">
<stop stop-color="#EF8E48"/>
<stop offset="1" stop-color="#CD5A19"/>
</linearGradient>
<linearGradient id="paint7_linear_1647_33360" x1="62.6895" y1="12.2953" x2="-1.79198" y2="35.8471" gradientUnits="userSpaceOnUse">
<stop stop-color="#EF8E48"/>
<stop offset="1" stop-color="#CD5A19"/>
</linearGradient>
<linearGradient id="paint8_linear_1647_33360" x1="62.6895" y1="12.2953" x2="-1.79198" y2="35.8471" gradientUnits="userSpaceOnUse">
<stop stop-color="#EF8E48"/>
<stop offset="1" stop-color="#CD5A19"/>
</linearGradient>
</defs>
</svg>
