<svg id="Layer_1" data-name="Layer 1" xmlns="http://www.w3.org/2000/svg" xmlns:xlink="http://www.w3.org/1999/xlink" viewBox="0 0 62 62"><defs><style>.cls-1{fill-rule:evenodd;fill:url(#linear-gradient);}</style><linearGradient id="linear-gradient" x1="336.36" y1="-325.7" x2="279.36" y2="-346.45" gradientTransform="matrix(1, 0, 0, -1, -275, -301)" gradientUnits="userSpaceOnUse"><stop offset="0" stop-color="#ef8e48"/><stop offset="1" stop-color="#cd5a19"/></linearGradient></defs><path class="cls-1" d="M52.19,22.13H22.65l.49,2.44c9.13.62,15.85,4.6,19.15,8.47a13.18,13.18,0,0,1,2.63,4.64,8.19,8.19,0,0,1-.56,6.44,7.85,7.85,0,0,1-.44.73,8.88,8.88,0,0,1,.47,1.3,3.58,3.58,0,0,1,.11.35h0a5.93,5.93,0,0,1,.24,1.65,2.48,2.48,0,0,1,0,.29v.13h0c0,.14,0,.29,0,.43h7.44l6.13-26.86h-6.1ZM3,54.09q17.51,0,35,0a1.29,1.29,0,0,1,1.26,1.29c0,1.91-.79,5.67-5.06,5.67H6.81c-4.27,0-5.06-3.75-5.06-5.67A1.28,1.28,0,0,1,3,54.09ZM29.14,34.33a2,2,0,1,1-1.94,2A2,2,0,0,1,29.14,34.33Zm-17,.14a2,2,0,1,1-1.94,2A2,2,0,0,1,12.19,34.47Zm8.41-1.89a2,2,0,1,1-2,2A2,2,0,0,1,20.6,32.58ZM36.36,42.8H5.07a3.66,3.66,0,0,1-3.62-3.67c0-5.23,10.27-9,18.88-9.12C37.28,29.83,44.89,42.8,36.36,42.8Zm2.84,5a.64.64,0,0,1,.08.3v.43a.67.67,0,0,1-.08.3c-.29,1.27-1.44,2.94-5,2.94H6.81c-3.54,0-4.69-1.67-5-2.94a.55.55,0,0,1-.09-.3c0-.07,0-.14,0-.22a1.48,1.48,0,0,1,0-.21.58.58,0,0,1,.09-.3c.28-1.27,1.43-2.94,5-2.94H21l5.23,5.49,5.21-5.49h2.78C37.76,44.9,38.91,46.57,39.2,47.84Zm5.52.73c0,.43,0,.16,0,0Zm-22-37.46H38l1.68-7.54C40.19,1.75,41.6.73,44.08,0h6.31a2.09,2.09,0,0,1,1.66,2.05v2a2.18,2.18,0,0,1-1.94,1.7H44.84l-1.11,5.35H58.24a2.24,2.24,0,0,1,2.21,2.25v2.56a2.23,2.23,0,0,1-2.21,2.25H22.69a2.24,2.24,0,0,1-2.21-2.25V13.36A2.25,2.25,0,0,1,22.69,11.11Zm21,49.44h4.16a4.2,4.2,0,0,0,3.54-3l.4-4.26H44.4a6.77,6.77,0,0,1,.34,2.12A13,13,0,0,1,43.65,60.55Z"/></svg>