<svg width="140" height="91" viewBox="0 0 140 91" fill="none" xmlns="http://www.w3.org/2000/svg">
<path d="M106.839 90.1383C106.839 65.7269 90.1544 45.8672 69.652 45.8672C49.1497 45.8672 32.4648 65.7269 32.4648 90.1383H106.839Z" fill="url(#paint0_linear_2007_33578)"/>
<path d="M69.6513 45.8678C80.8971 45.8678 90.0135 35.5999 90.0135 22.9339C90.0135 10.2679 80.8971 0 69.6513 0C58.4056 0 49.2891 10.2679 49.2891 22.9339C49.2891 35.5999 58.4056 45.8678 69.6513 45.8678Z" fill="url(#paint1_linear_2007_33578)"/>
<path d="M57.542 50.973L67.2713 77.4783C68.0838 79.6981 71.2289 79.6981 72.0414 77.4783L81.7707 50.973C82.2541 49.6635 81.5956 48.1859 80.2788 47.7167C76.9096 46.5193 73.3513 45.875 69.6599 45.875C65.9685 45.875 62.4102 46.5193 59.041 47.7167C57.7241 48.1859 57.0657 49.6635 57.549 50.973H57.542Z" fill="white"/>
<path d="M69.1831 56.5896L65.0924 51.7437C64.8963 51.5126 64.8963 51.1765 65.0924 50.9454L69.1831 46.0995C69.4282 45.8054 69.8835 45.8054 70.1287 46.0995L74.2193 50.9454C74.4155 51.1765 74.4155 51.5126 74.2193 51.7437L70.1287 56.5896C69.8835 56.8837 69.4282 56.8837 69.1831 56.5896Z" fill="url(#paint2_linear_2007_33578)"/>
<path d="M68.9677 85.2018L64.5058 62.9402C64.4638 62.7301 64.5198 62.513 64.6599 62.345L69.1218 57.0509C69.402 56.7148 69.9204 56.7148 70.2005 57.0509L74.6624 62.345C74.8025 62.506 74.8586 62.7301 74.8165 62.9402L70.3546 85.2018C70.2005 85.9581 69.1218 85.9581 68.9677 85.2018Z" fill="url(#paint3_linear_2007_33578)"/>
<path d="M108.898 44.579C118.307 44.579 125.933 35.9885 125.933 25.3915C125.933 14.7946 118.307 6.2041 108.898 6.2041C99.4901 6.2041 91.8633 14.7946 91.8633 25.3915C91.8633 35.9885 99.4901 44.579 108.898 44.579Z" fill="url(#paint4_linear_2007_33578)"/>
<path d="M108.901 44.5791C102.078 44.5791 95.7672 47.2121 90.6328 51.6659C99.3745 58.3534 105.693 69.0886 107.696 81.6165H140.001C140.001 61.1965 126.048 44.5861 108.894 44.5861L108.901 44.5791Z" fill="url(#paint5_linear_2007_33578)"/>
<path d="M98.92 49.2497L106.52 69.9568C107.332 72.1766 110.477 72.1766 111.29 69.9568L118.89 49.2497C119.387 47.8982 118.666 46.4136 117.3 45.9585C114.631 45.0621 111.815 44.5859 108.908 44.5859C106.002 44.5859 103.186 45.0691 100.517 45.9585C99.1512 46.4136 98.4297 47.9052 98.927 49.2497H98.92Z" fill="white"/>
<path d="M108.5 53.5432L105.082 49.4886C104.921 49.2925 104.921 49.0124 105.082 48.8234L108.5 44.7688C108.71 44.5237 109.088 44.5237 109.292 44.7688L112.71 48.8234C112.871 49.0194 112.871 49.2995 112.71 49.4886L109.292 53.5432C109.081 53.7883 108.703 53.7883 108.5 53.5432Z" fill="url(#paint6_linear_2007_33578)"/>
<path d="M108.319 77.4847L104.585 58.8644C104.55 58.6894 104.599 58.5073 104.711 58.3672L108.445 53.9415C108.683 53.6614 109.11 53.6614 109.348 53.9415L113.082 58.3672C113.201 58.5073 113.243 58.6894 113.208 58.8644L109.475 77.4847C109.348 78.1149 108.445 78.1149 108.319 77.4847Z" fill="url(#paint7_linear_2007_33578)"/>
<path d="M31.1093 44.579C40.5175 44.579 48.1444 35.9885 48.1444 25.3915C48.1444 14.7946 40.5175 6.2041 31.1093 6.2041C21.7011 6.2041 14.0742 14.7946 14.0742 25.3915C14.0742 35.9885 21.7011 44.579 31.1093 44.579Z" fill="url(#paint8_linear_2007_33578)"/>
<path d="M49.0459 51.3857C43.9746 47.1071 37.7825 44.5791 31.1072 44.5791C13.9531 44.5791 0 61.1895 0 81.6095H31.6115C33.6429 68.9065 40.1151 58.0523 49.0459 51.3857Z" fill="url(#paint9_linear_2007_33578)"/>
<path d="M21.127 49.2497L28.727 69.9568C29.5395 72.1766 32.6845 72.1766 33.4971 69.9568L41.097 49.2497C41.5943 47.8982 40.8729 46.4136 39.507 45.9585C36.8382 45.0621 34.0224 44.5859 31.1155 44.5859C28.2086 44.5859 25.3928 45.0691 22.7241 45.9585C21.3582 46.4136 20.6367 47.9052 21.134 49.2497H21.127Z" fill="white"/>
<path d="M30.7148 53.5432L27.2966 49.4886C27.1355 49.2925 27.1355 49.0124 27.2966 48.8234L30.7148 44.7688C30.925 44.5237 31.3032 44.5237 31.5063 44.7688L34.9246 48.8234C35.0857 49.0194 35.0857 49.2995 34.9246 49.4886L31.5063 53.5432C31.2962 53.7883 30.9179 53.7883 30.7148 53.5432Z" fill="url(#paint10_linear_2007_33578)"/>
<path d="M30.5258 77.4847L26.7924 58.8644C26.7574 58.6894 26.8064 58.5073 26.9185 58.3672L30.6519 53.9415C30.89 53.6614 31.3173 53.6614 31.5555 53.9415L35.2889 58.3672C35.408 58.5073 35.45 58.6894 35.415 58.8644L31.6816 77.4847C31.5555 78.1149 30.6519 78.1149 30.5258 77.4847Z" fill="url(#paint11_linear_2007_33578)"/>
<defs>
<linearGradient id="paint0_linear_2007_33578" x1="101.602" y1="53.6725" x2="43.4715" y2="90.4363" gradientUnits="userSpaceOnUse">
<stop stop-color="#32889E"/>
<stop offset="1" stop-color="#75C9DE"/>
</linearGradient>
<linearGradient id="paint1_linear_2007_33578" x1="87.1457" y1="8.08677" x2="47.0627" y2="21.4843" gradientUnits="userSpaceOnUse">
<stop stop-color="#32889E"/>
<stop offset="1" stop-color="#75C9DE"/>
</linearGradient>
<linearGradient id="paint2_linear_2007_33578" x1="73.703" y1="47.8062" x2="64.3761" y2="50.8323" gradientUnits="userSpaceOnUse">
<stop stop-color="#32889E"/>
<stop offset="1" stop-color="#75C9DE"/>
</linearGradient>
<linearGradient id="paint3_linear_2007_33578" x1="74.1022" y1="61.9065" x2="62.9908" y2="63.3991" gradientUnits="userSpaceOnUse">
<stop stop-color="#32889E"/>
<stop offset="1" stop-color="#75C9DE"/>
</linearGradient>
<linearGradient id="paint4_linear_2007_33578" x1="123.534" y1="12.9698" x2="90.0004" y2="24.1778" gradientUnits="userSpaceOnUse">
<stop stop-color="#32889E"/>
<stop offset="1" stop-color="#75C9DE"/>
</linearGradient>
<linearGradient id="paint5_linear_2007_33578" x1="136.524" y1="51.109" x2="93.3711" y2="72.7629" gradientUnits="userSpaceOnUse">
<stop stop-color="#32889E"/>
<stop offset="1" stop-color="#75C9DE"/>
</linearGradient>
<linearGradient id="paint6_linear_2007_33578" x1="112.276" y1="46.1968" x2="104.484" y2="48.722" gradientUnits="userSpaceOnUse">
<stop stop-color="#32889E"/>
<stop offset="1" stop-color="#75C9DE"/>
</linearGradient>
<linearGradient id="paint7_linear_2007_33578" x1="112.611" y1="58.0026" x2="103.319" y2="59.2511" gradientUnits="userSpaceOnUse">
<stop stop-color="#32889E"/>
<stop offset="1" stop-color="#75C9DE"/>
</linearGradient>
<linearGradient id="paint8_linear_2007_33578" x1="45.7451" y1="12.9698" x2="12.2113" y2="24.1778" gradientUnits="userSpaceOnUse">
<stop stop-color="#32889E"/>
<stop offset="1" stop-color="#75C9DE"/>
</linearGradient>
<linearGradient id="paint9_linear_2007_33578" x1="45.5921" y1="51.1078" x2="2.61118" y2="72.5385" gradientUnits="userSpaceOnUse">
<stop stop-color="#32889E"/>
<stop offset="1" stop-color="#75C9DE"/>
</linearGradient>
<linearGradient id="paint10_linear_2007_33578" x1="34.4912" y1="46.1968" x2="26.6986" y2="48.722" gradientUnits="userSpaceOnUse">
<stop stop-color="#32889E"/>
<stop offset="1" stop-color="#75C9DE"/>
</linearGradient>
<linearGradient id="paint11_linear_2007_33578" x1="34.8181" y1="58.0026" x2="25.5256" y2="59.2511" gradientUnits="userSpaceOnUse">
<stop stop-color="#32889E"/>
<stop offset="1" stop-color="#75C9DE"/>
</linearGradient>
</defs>
</svg>
