<svg id="Layer_1" data-name="Layer 1" xmlns="http://www.w3.org/2000/svg" xmlns:xlink="http://www.w3.org/1999/xlink" viewBox="0 0 72 52"><defs><style>.cls-1{fill-rule:evenodd;fill:url(#linear-gradient);}</style><linearGradient id="linear-gradient" x1="424.74" y1="-233.07" x2="365.29" y2="-263.96" gradientTransform="matrix(1, 0, 0, -1, -360, -226)" gradientUnits="userSpaceOnUse"><stop offset="0" stop-color="#8d3670"/><stop offset="1" stop-color="#ad799c"/></linearGradient></defs><path class="cls-1" d="M50.9,12.45a24.24,24.24,0,0,0,9.31.67c.79-.09,1.57-.2,2.33-.3,3.63-.48,6.66-.75,7.74,2,1.9,4.83-2.4,15.31-4.67,19.55-4.67,8.73-14,18.49-24.75,15.59a13.36,13.36,0,0,1-4.54-2.18,23.64,23.64,0,0,0,8.49-8.62h0c2.68.15,5.46,1.57,8,3.08.19-3.39-3.06-5.64-6-7.05a50.58,50.58,0,0,0,3.93-16.42C50.91,17.14,51,14.92,50.9,12.45ZM3.22,4.16a4.76,4.76,0,0,1,3.71-1A43.73,43.73,0,0,1,15.41,5,24.82,24.82,0,0,0,32.88,3.45l2.23-1.08c3.46-1.68,6.4-3,8.37-.59C47,6,46.11,17.87,45.24,22.85,43.44,33.12,37.36,46,25.65,46.67c-6.21.36-11.5-3.15-16.06-9.8a49.71,49.71,0,0,1-6.28-14C2.39,19.43.37,6.89,3.22,4.16ZM9,19.88c-1.07-.28-1.69-.63-1.9-1-.82-1.66,6-5.83,10.8-2C24.75,22.2,11.45,20.61,9,19.88ZM20.08,36a8.21,8.21,0,0,1-3.31-5.1c6,3.05,11.6,2.83,16.82-1.37a10.56,10.56,0,0,1-1.84,5C28.7,38.85,24.24,39,20.08,36ZM39.42,17.48c1-.47,1.55-.93,1.68-1.38.51-1.77-6.94-4.63-11,0C24.37,22.64,37.17,18.64,39.42,17.48Zm13.33,6.8a7.37,7.37,0,0,1,9.4.41c.69.57,2.57,2.23,1.49,3.15a2.58,2.58,0,0,1-1.48.42,13.39,13.39,0,0,1-6-1A5.56,5.56,0,0,1,52.75,24.28Z"/></svg>