<svg id="Layer_1" data-name="Layer 1" xmlns="http://www.w3.org/2000/svg" xmlns:xlink="http://www.w3.org/1999/xlink" viewBox="0 0 93 53"><defs><style>.cls-1{fill-rule:evenodd;fill:url(#linear-gradient);}</style><linearGradient id="linear-gradient" x1="431.64" y1="-231.14" x2="362.48" y2="-278.55" gradientTransform="matrix(1, 0, 0, -1, -349.5, -226.5)" gradientUnits="userSpaceOnUse"><stop offset="0" stop-color="#278011"/><stop offset="1" stop-color="#73d75b"/></linearGradient></defs><path class="cls-1" d="M27.68,28.15,27.29,30l1.29,5.27c-.08,1.36.27,2.82-.24,4.08a7.81,7.81,0,0,0-.3,5.16c-.76,1.14-.58,2.29-2.17,3.42-2.06.7-3.08,1.77-2.85,3.28,1.57.71,3.9.82,6.81.47s4.58-1.59,1.38-4c1.68-.31,2.27-2,2.27-4.38a2.24,2.24,0,0,0,.78-.72,2.3,2.3,0,0,0,.38-1c.11-2.64.71-4.13,1.69-4.65-.43,4.24,1.6,5.18,1.29,8a4.85,4.85,0,0,1-.76,2.08c-3.5.84-1.88,3.23.83,4,1.8.52,6.72.22,4.67-2.51C42,48.06,42,47.3,41.2,46.77a4.77,4.77,0,0,0,1.19-2.29c1.14-4.32-1.45-6.93.85-10.69A42.87,42.87,0,0,0,57.85,35.6c7.51-.65,9.56-3.26,14.42-8.13a16.07,16.07,0,0,0,3.79,6.43c1.08.64,1.86,1.91,2.27,3.9A17.92,17.92,0,0,1,78,46.35c-1.88-.72-7.57,1.13-5.13,3.3a1.3,1.3,0,0,0,.92.34c-3.19,3.81,6,3,7.26,2.46s1.84-1.49,1.42-3.14C84.73,47,86,43.66,86.74,39.65c2.27-.42,1.65-2.54,1-4s-1.4-2.22-2.08-3.68A22.79,22.79,0,0,0,89.17,20c.69,6.57,2.47,10.07,3.79,11.36-3.71-11.83-1.74-9.21-2.27-13.82.33-2.56-1-4.4-3.46-5.82-3.52-8.2-9.18-7.48-16.34-8.28a44.56,44.56,0,0,1-5.13-1,15.79,15.79,0,0,0-2.66-.28c-2.82,0-3.78.62-6.4,1.27a33.12,33.12,0,0,1-8.87,1C35.23,4.24,40.16-.4,24.46,3.32c-5.17,1.22-8.14,3.61-9.5,7.21C13.34,9,9,8.5,6.4,9.39c1.22,1.66,4.24,4.26,7.48,3.72-1.37,4.51-2.81,7.64-5.3,8.12a8.06,8.06,0,0,1-4-3.78C5.41,23.4,7.1,23,9.33,24.33c-4.8-.29-7.54-4.68-8.18-8.7-3.23,8.54,1.17,12.93,5.88,14a9.59,9.59,0,0,0,2.28,3.11,9.46,9.46,0,0,0,3.3,2c-1.91-4.16,6.5-1.6,10-4.26A9.67,9.67,0,0,0,25.28,27a10.63,10.63,0,0,1,2.4,1.22ZM15.94,19.67a1.49,1.49,0,0,0-1.1,0,1.61,1.61,0,0,0-.85.71,1,1,0,0,0-.1.41,1,1,0,0,0,.09.41.93.93,0,0,0,.26.33.87.87,0,0,0,.37.19C15.37,21.78,16,20.42,15.94,19.67Z"/></svg>