<svg width="57" height="61" viewBox="0 0 57 61" fill="none" xmlns="http://www.w3.org/2000/svg">
<path d="M18.4084 3.22872C20.2191 2.42398 21.4262 9.16368 22.8345 9.76723C26.2546 11.2761 27.9647 11.0749 29.9766 7.95657V0.110352C13.3788 0.210944 0 13.6903 0 30.2881C0 35.6195 1.4083 40.7497 3.92311 45.0752V45.1758C3.92311 45.377 4.0237 45.4776 4.22488 45.5782C9.45569 54.4303 19.012 60.3653 29.9766 60.4658V58.8564C21.8286 58.7558 14.4853 55.3356 9.15392 49.9036C9.45569 49.6019 9.55629 49.0989 9.05332 49.0989C8.85214 49.0989 8.75155 49.1995 8.65095 49.3001C7.24266 47.7912 6.03555 46.0811 5.02962 44.2705C5.43199 42.7616 8.0474 43.2645 8.34918 41.4539C8.85214 38.9391 4.0237 35.1165 9.95866 36.0219C11.5681 36.3237 13.077 34.6136 14.0829 33.4065C15.3907 31.797 12.4735 30.7911 17.4025 30.4893C18.6096 30.3887 20.0179 30.8917 21.225 30.6905C22.5327 30.4893 23.3375 29.584 23.2369 28.1757C23.2369 25.2585 24.8463 23.146 24.9469 20.3294C25.0475 18.4182 21.6274 17.4123 20.3197 16.9093C17.3019 15.8028 9.3551 12.1815 10.864 8.05716C10.864 7.95657 10.864 7.85597 10.864 7.75538C13.077 5.84412 15.4912 4.23464 18.2072 3.02753C18.3078 3.22872 18.3078 3.22872 18.4084 3.22872Z" fill="url(#paint0_linear_1670_33450)"/>
<path d="M38.7687 11.7104C35.9687 12.6104 33.0688 13.9104 30.0688 15.5104V17.3104C32.0688 18.2104 34.0688 19.3104 35.9688 20.5104C37.7687 21.6104 39.5688 22.8104 41.1688 24.0104C41.3688 26.0104 41.4688 28.2104 41.4688 30.3104C41.4688 32.3104 41.3687 34.2104 41.2687 36.1104C39.7687 37.3104 38.2688 38.5104 36.6688 39.6104C34.6688 41.0104 32.5688 42.3104 30.5688 43.5104C30.3688 43.4104 30.1688 43.3104 30.0688 43.2104V45.1104C30.2688 45.0104 30.4688 44.9104 30.6688 44.8104C33.5688 46.1104 36.3688 47.2104 39.0688 47.9104C36.9688 54.8104 33.6688 59.3104 30.0688 59.3104H29.9688V60.5104H30.0688C34.2688 60.5104 37.9687 55.7104 40.2687 48.3104C42.9687 49.0104 45.4688 49.3104 47.6688 49.3104C51.6688 49.3104 54.5688 48.1104 55.8688 45.9104C57.6688 42.9104 56.5687 38.5104 52.7687 33.5104C51.7687 32.2104 50.6688 30.9104 49.3688 29.6104C50.5688 28.2104 51.5688 26.8104 52.4688 25.5104C55.8688 20.2104 56.6688 15.7104 54.6688 12.9104C53.3688 11.0104 50.8688 10.1104 47.5688 10.1104C45.2688 10.1104 42.6688 10.6104 39.8688 11.4104C37.6688 4.41035 34.1688 0.110352 30.0688 0.110352H29.9688V1.31035H30.0688C33.5688 1.31035 36.6687 5.31035 38.7687 11.7104ZM41.0688 37.7104C40.7688 41.0103 40.1688 44.1104 39.3688 46.8104C36.9688 46.1104 34.4688 45.2104 31.8688 44.1104C33.6688 43.0104 35.5688 41.9104 37.3688 40.6104C38.6688 39.6104 39.9688 38.7104 41.0688 37.7104ZM42.3688 36.6104C44.7688 34.6104 46.8688 32.5104 48.6688 30.4104C49.8688 31.6104 50.9688 32.9104 51.8688 34.1104C55.2688 38.7104 56.3688 42.7104 54.8688 45.2104C53.5688 47.6104 50.2688 48.1104 47.6688 48.1104C45.5688 48.1104 43.1688 47.8104 40.5688 47.1104C41.4688 44.0104 42.0688 40.5104 42.3688 36.6104ZM42.6688 30.3104C42.6688 28.5104 42.5688 26.7104 42.4688 24.9104C44.4688 26.4104 46.2688 28.0104 47.8688 29.6104C46.2688 31.4104 44.4688 33.2104 42.4688 35.0104C42.6688 33.5104 42.6688 31.9104 42.6688 30.3104ZM40.2687 12.4104C42.9687 11.6104 45.4688 11.1104 47.5688 11.1104C50.4688 11.1104 52.5688 11.9104 53.6688 13.4104C55.3688 15.8104 54.5687 19.9104 51.4688 24.7104C50.6687 26.0104 49.6688 27.3104 48.5688 28.6104C46.6688 26.8104 44.5687 25.0104 42.2687 23.2104C41.9687 19.3104 41.2687 15.6104 40.2687 12.4104ZM39.1688 12.8104C40.0688 15.7104 40.6688 18.9104 41.0688 22.5104C39.6688 21.5104 38.1688 20.5104 36.5688 19.6104C34.6688 18.4104 32.7688 17.4104 30.8688 16.5104C33.6688 14.9104 36.4688 13.7104 39.1688 12.8104Z" fill="url(#paint1_linear_1670_33450)"/>
<path d="M29.0703 33.1107C29.0703 33.7107 29.1703 34.3107 29.4703 34.8107C29.4703 34.9107 29.5703 35.0107 29.6703 35.1107C29.7703 35.2107 29.7703 35.3107 29.8703 35.4107C29.9703 35.5107 29.9703 35.6107 30.0703 35.7107C30.1703 35.8107 30.2703 35.9107 30.3703 36.0107C30.4703 36.1107 30.5703 36.2107 30.6703 36.2107C30.7703 36.3107 30.8703 36.3107 30.9703 36.4107C31.0703 36.5107 31.1703 36.5107 31.2703 36.6107C31.3703 36.6107 31.3703 36.7107 31.4703 36.7107C31.5703 36.7107 31.6703 36.8107 31.7703 36.8107C32.0703 36.9107 32.4703 37.0107 32.8703 37.0107C34.9703 37.0107 36.5703 35.3107 36.5703 33.3107C36.5703 31.2107 34.8703 29.5107 32.8703 29.5107C32.4703 29.5107 32.0703 29.6107 31.7703 29.7107C31.6703 29.7107 31.6703 29.7107 31.5703 29.8107C31.4703 29.8107 31.3703 29.9107 31.2703 29.9107C31.1703 29.9107 31.0703 30.0107 30.9703 30.1107C30.8703 30.2107 30.7703 30.2107 30.6703 30.3107C30.5703 30.4107 30.4703 30.5107 30.3703 30.5107C30.2703 30.6107 30.1703 30.7107 30.0703 30.8107C29.9703 30.9107 29.8703 31.0107 29.8703 31.1107C29.7703 30.9107 29.6703 31.0107 29.6703 31.1107C29.5703 31.2107 29.5703 31.3107 29.4703 31.4107C29.3703 31.5107 29.3703 31.7107 29.2703 31.8107C29.2703 31.9107 29.2703 31.9107 29.1703 32.0107C29.1703 32.3107 29.0703 32.7107 29.0703 33.1107Z" fill="url(#paint2_linear_1670_33450)"/>
<path d="M27.168 26.5105C27.268 26.6105 27.368 26.6105 27.568 26.6105C27.668 26.6105 27.868 26.6105 27.968 26.7105C28.068 26.7105 28.168 26.7105 28.268 26.8105C28.568 26.9105 28.868 27.0105 29.168 27.1105C29.268 27.1105 29.368 27.2105 29.468 27.3105C29.568 27.3105 29.668 27.4105 29.768 27.5105C29.868 27.5105 29.968 27.6105 29.968 27.7105C30.168 27.9105 30.368 28.1105 30.568 28.3105C30.668 28.5105 31.068 28.9105 31.268 29.5105C31.968 29.1105 32.868 28.9105 33.768 29.1105C34.368 28.4105 34.668 27.6105 34.668 26.6105C34.668 24.5105 32.968 22.8105 30.968 22.8105C30.768 22.8105 30.668 22.8105 30.568 22.8105C30.368 22.8105 30.268 22.8105 30.168 22.9105C29.968 22.9105 29.768 23.0105 29.568 23.1105C29.368 23.2105 29.168 23.3105 29.068 23.4105C28.968 23.5105 28.768 23.6105 28.668 23.7105C28.568 23.8105 28.468 23.8105 28.368 23.9105C28.168 24.1105 27.868 24.4105 27.768 24.7105C27.668 24.8105 27.668 24.9105 27.668 25.0105C27.668 25.1105 27.568 25.2105 27.568 25.3105C27.568 25.4105 27.568 25.4105 27.468 25.5105C27.468 25.6105 27.368 25.7105 27.368 25.8105C27.368 25.9105 27.268 26.1105 27.268 26.2105C27.168 26.3105 27.168 26.4105 27.168 26.5105Z" fill="url(#paint3_linear_1670_33450)"/>
<path d="M23.4688 30.7105C23.4688 32.8105 25.1688 34.4105 27.1688 34.4105C27.7688 34.4105 28.2688 34.3105 28.6688 34.1105C28.5688 33.7105 28.5688 33.2105 28.6688 32.7105C28.6688 32.5105 28.7688 32.3105 28.7688 32.1105C28.7688 31.9105 28.8688 31.8105 28.8688 31.6105C28.8688 31.4105 28.9688 31.2105 29.0688 31.1105C29.1688 30.9105 29.1688 30.8105 29.2688 30.7105C29.3688 30.5105 29.5688 30.3105 29.6688 30.1105L29.7688 30.0105C29.8688 29.9105 29.8687 29.9105 29.9688 29.8105C30.0688 29.7105 30.1688 29.7105 30.2688 29.6105C30.3688 29.5105 30.4688 29.5105 30.6688 29.4105C30.5688 29.0105 30.2688 28.6105 29.9688 28.2105C29.8687 28.1105 29.7688 28.0105 29.7688 27.9105C29.6688 27.8105 29.6688 27.8105 29.5688 27.7105C29.4688 27.6105 29.4688 27.6105 29.3688 27.5105C29.2688 27.4105 29.0688 27.3105 28.9688 27.2105C28.7687 27.1105 28.5688 27.0105 28.3688 27.0105C28.2688 26.9105 28.1688 26.9105 27.9688 26.9105C27.8687 26.9105 27.7688 26.9105 27.5688 26.8105C27.4688 26.8105 27.4688 26.8105 27.3688 26.8105C27.2688 26.8105 27.1688 26.8105 26.9688 26.8105C25.0688 26.9105 23.4688 28.6105 23.4688 30.7105Z" fill="url(#paint4_linear_1670_33450)"/>
<path d="M29.0688 33.1102C29.0688 33.7102 29.1687 34.3102 29.4688 34.8102C29.4688 34.9102 29.5688 35.0102 29.6688 35.1102C29.7688 35.2102 29.7688 35.3102 29.8688 35.4102C29.9688 35.5102 29.9688 35.6102 30.0688 35.7102V30.7102C29.9688 30.8102 29.8688 30.9102 29.8688 31.0102C29.7688 30.9102 29.6688 31.0102 29.6688 31.1102C29.5688 31.2102 29.5688 31.3102 29.4688 31.4102C29.3687 31.5102 29.3688 31.7102 29.2688 31.8102C29.2688 31.9102 29.2688 31.9102 29.1688 32.0102C29.1688 32.3102 29.0688 32.7102 29.0688 33.1102ZM27.1688 26.5102C27.2688 26.6102 27.3688 26.6102 27.5688 26.6102C27.6688 26.6102 27.8687 26.6102 27.9688 26.7102C28.0688 26.7102 28.1688 26.7102 28.2688 26.8102C28.5688 26.9102 28.8688 27.0102 29.1688 27.1102C29.2688 27.1102 29.3687 27.2102 29.4688 27.3102C29.5688 27.3102 29.6688 27.4102 29.7688 27.5102C29.8688 27.5102 29.9688 27.6102 29.9688 27.7102V23.0102C29.7687 23.0102 29.5688 23.1102 29.3688 23.2102C29.1688 23.3102 28.9688 23.4102 28.8688 23.5102C28.7688 23.6102 28.5688 23.7102 28.4688 23.8102C28.3687 23.9102 28.2688 23.9102 28.1688 24.0102C27.9688 24.2102 27.6688 24.5102 27.5688 24.8102C27.4688 24.9102 27.4688 25.0102 27.4688 25.1102C27.4688 25.2102 27.3688 25.3102 27.3688 25.4102C27.3688 25.5102 27.3688 25.5102 27.2688 25.6102C27.2688 25.7102 27.1688 25.8102 27.1688 25.9102C27.1688 26.0102 27.0688 26.2102 27.0688 26.3102C27.1688 26.3102 27.1688 26.4102 27.1688 26.5102ZM23.4688 30.7102C23.4688 32.8102 25.1688 34.4102 27.1688 34.4102C27.7688 34.4102 28.2688 34.3102 28.6688 34.1102C28.5688 33.7102 28.5688 33.2102 28.6688 32.7102C28.6688 32.5102 28.7688 32.3102 28.7688 32.1102C28.7688 31.9102 28.8688 31.8102 28.8688 31.6102C28.8688 31.4102 28.9688 31.2102 29.0688 31.1102C29.1688 30.9102 29.1688 30.8102 29.2688 30.7102C29.3688 30.5102 29.5688 30.3102 29.6688 30.1102L29.7688 30.0102C29.8688 29.9102 29.8687 29.9102 29.9688 29.8102V28.3102C29.8687 28.2102 29.7688 28.1102 29.7688 28.0102C29.6688 27.9102 29.6688 27.9102 29.5688 27.8102C29.4688 27.7102 29.4688 27.7102 29.3688 27.6102C29.2688 27.5102 29.0688 27.4102 28.9688 27.3102C28.7687 27.2102 28.5688 27.1102 28.3688 27.1102C28.2688 27.0102 28.1688 27.0102 27.9688 27.0102C27.8687 27.0102 27.7688 27.0102 27.5688 26.9102C27.4688 26.9102 27.4688 26.9102 27.3688 26.9102C27.2688 26.9102 27.1688 26.9102 26.9688 26.9102C25.0688 26.9102 23.4688 28.6102 23.4688 30.7102ZM29.0688 33.1102C29.0688 33.7102 29.1687 34.3102 29.4688 34.8102C29.4688 34.9102 29.5688 35.0102 29.6688 35.1102C29.7688 35.2102 29.7688 35.3102 29.8688 35.4102C29.9688 35.5102 29.9688 35.6102 30.0688 35.7102V30.7102C29.9688 30.8102 29.8688 30.9102 29.8688 31.0102C29.7688 30.9102 29.6688 31.0102 29.6688 31.1102C29.5688 31.2102 29.5688 31.3102 29.4688 31.4102C29.3687 31.5102 29.3688 31.7102 29.2688 31.8102C29.2688 31.9102 29.2688 31.9102 29.1688 32.0102C29.1688 32.3102 29.0688 32.7102 29.0688 33.1102ZM27.1688 26.5102C27.2688 26.6102 27.3688 26.6102 27.5688 26.6102C27.6688 26.6102 27.8687 26.6102 27.9688 26.7102C28.0688 26.7102 28.1688 26.7102 28.2688 26.8102C28.5688 26.9102 28.8688 27.0102 29.1688 27.1102C29.2688 27.1102 29.3687 27.2102 29.4688 27.3102C29.5688 27.3102 29.6688 27.4102 29.7688 27.5102C29.8688 27.5102 29.9688 27.6102 29.9688 27.7102V23.0102C29.7687 23.0102 29.5688 23.1102 29.3688 23.2102C29.1688 23.3102 28.9688 23.4102 28.8688 23.5102C28.7688 23.6102 28.5688 23.7102 28.4688 23.8102C28.3687 23.9102 28.2688 23.9102 28.1688 24.0102C27.9688 24.2102 27.6688 24.5102 27.5688 24.8102C27.4688 24.9102 27.4688 25.0102 27.4688 25.1102C27.4688 25.2102 27.3688 25.3102 27.3688 25.4102C27.3688 25.5102 27.3688 25.5102 27.2688 25.6102C27.2688 25.7102 27.1688 25.8102 27.1688 25.9102C27.1688 26.0102 27.0688 26.2102 27.0688 26.3102C27.1688 26.3102 27.1688 26.4102 27.1688 26.5102ZM23.4688 30.7102C23.4688 32.8102 25.1688 34.4102 27.1688 34.4102C27.7688 34.4102 28.2688 34.3102 28.6688 34.1102C28.5688 33.7102 28.5688 33.2102 28.6688 32.7102C28.6688 32.5102 28.7688 32.3102 28.7688 32.1102C28.7688 31.9102 28.8688 31.8102 28.8688 31.6102C28.8688 31.4102 28.9688 31.2102 29.0688 31.1102C29.1688 30.9102 29.1688 30.8102 29.2688 30.7102C29.3688 30.5102 29.5688 30.3102 29.6688 30.1102L29.7688 30.0102C29.8688 29.9102 29.8687 29.9102 29.9688 29.8102V28.3102C29.8687 28.2102 29.7688 28.1102 29.7688 28.0102C29.6688 27.9102 29.6688 27.9102 29.5688 27.8102C29.4688 27.7102 29.4688 27.7102 29.3688 27.6102C29.2688 27.5102 29.0688 27.4102 28.9688 27.3102C28.7687 27.2102 28.5688 27.1102 28.3688 27.1102C28.2688 27.0102 28.1688 27.0102 27.9688 27.0102C27.8687 27.0102 27.7688 27.0102 27.5688 26.9102C27.4688 26.9102 27.4688 26.9102 27.3688 26.9102C27.2688 26.9102 27.1688 26.9102 26.9688 26.9102C25.0688 26.9102 23.4688 28.6102 23.4688 30.7102ZM29.0688 33.1102C29.0688 33.7102 29.1687 34.3102 29.4688 34.8102C29.4688 34.9102 29.5688 35.0102 29.6688 35.1102C29.7688 35.2102 29.7688 35.3102 29.8688 35.4102C29.9688 35.5102 29.9688 35.6102 30.0688 35.7102V30.7102C29.9688 30.8102 29.8688 30.9102 29.8688 31.0102C29.7688 30.9102 29.6688 31.0102 29.6688 31.1102C29.5688 31.2102 29.5688 31.3102 29.4688 31.4102C29.3687 31.5102 29.3688 31.7102 29.2688 31.8102C29.2688 31.9102 29.2688 31.9102 29.1688 32.0102C29.1688 32.3102 29.0688 32.7102 29.0688 33.1102ZM27.1688 26.5102C27.2688 26.6102 27.3688 26.6102 27.5688 26.6102C27.6688 26.6102 27.8687 26.6102 27.9688 26.7102C28.0688 26.7102 28.1688 26.7102 28.2688 26.8102C28.5688 26.9102 28.8688 27.0102 29.1688 27.1102C29.2688 27.1102 29.3687 27.2102 29.4688 27.3102C29.5688 27.3102 29.6688 27.4102 29.7688 27.5102C29.8688 27.5102 29.9688 27.6102 29.9688 27.7102V23.0102C29.7687 23.0102 29.5688 23.1102 29.3688 23.2102C29.1688 23.3102 28.9688 23.4102 28.8688 23.5102C28.7688 23.6102 28.5688 23.7102 28.4688 23.8102C28.3687 23.9102 28.2688 23.9102 28.1688 24.0102C27.9688 24.2102 27.6688 24.5102 27.5688 24.8102C27.4688 24.9102 27.4688 25.0102 27.4688 25.1102C27.4688 25.2102 27.3688 25.3102 27.3688 25.4102C27.3688 25.5102 27.3688 25.5102 27.2688 25.6102C27.2688 25.7102 27.1688 25.8102 27.1688 25.9102C27.1688 26.0102 27.0688 26.2102 27.0688 26.3102C27.1688 26.3102 27.1688 26.4102 27.1688 26.5102ZM23.4688 30.7102C23.4688 32.8102 25.1688 34.4102 27.1688 34.4102C27.7688 34.4102 28.2688 34.3102 28.6688 34.1102C28.5688 33.7102 28.5688 33.2102 28.6688 32.7102C28.6688 32.5102 28.7688 32.3102 28.7688 32.1102C28.7688 31.9102 28.8688 31.8102 28.8688 31.6102C28.8688 31.4102 28.9688 31.2102 29.0688 31.1102C29.1688 30.9102 29.1688 30.8102 29.2688 30.7102C29.3688 30.5102 29.5688 30.3102 29.6688 30.1102L29.7688 30.0102C29.8688 29.9102 29.8687 29.9102 29.9688 29.8102V28.3102C29.8687 28.2102 29.7688 28.1102 29.7688 28.0102C29.6688 27.9102 29.6688 27.9102 29.5688 27.8102C29.4688 27.7102 29.4688 27.7102 29.3688 27.6102C29.2688 27.5102 29.0688 27.4102 28.9688 27.3102C28.7687 27.2102 28.5688 27.1102 28.3688 27.1102C28.2688 27.0102 28.1688 27.0102 27.9688 27.0102C27.8687 27.0102 27.7688 27.0102 27.5688 26.9102C27.4688 26.9102 27.4688 26.9102 27.3688 26.9102C27.2688 26.9102 27.1688 26.9102 26.9688 26.9102C25.0688 26.9102 23.4688 28.6102 23.4688 30.7102ZM29.0688 33.1102C29.0688 33.7102 29.1687 34.3102 29.4688 34.8102C29.4688 34.9102 29.5688 35.0102 29.6688 35.1102C29.7688 35.2102 29.7688 35.3102 29.8688 35.4102C29.9688 35.5102 29.9688 35.6102 30.0688 35.7102V30.7102C29.9688 30.8102 29.8688 30.9102 29.8688 31.0102C29.7688 30.9102 29.6688 31.0102 29.6688 31.1102C29.5688 31.2102 29.5688 31.3102 29.4688 31.4102C29.3687 31.5102 29.3688 31.7102 29.2688 31.8102C29.2688 31.9102 29.2688 31.9102 29.1688 32.0102C29.1688 32.3102 29.0688 32.7102 29.0688 33.1102ZM27.1688 26.5102C27.2688 26.6102 27.3688 26.6102 27.5688 26.6102C27.6688 26.6102 27.8687 26.6102 27.9688 26.7102C28.0688 26.7102 28.1688 26.7102 28.2688 26.8102C28.5688 26.9102 28.8688 27.0102 29.1688 27.1102C29.2688 27.1102 29.3687 27.2102 29.4688 27.3102C29.5688 27.3102 29.6688 27.4102 29.7688 27.5102C29.8688 27.5102 29.9688 27.6102 29.9688 27.7102V23.0102C29.7687 23.0102 29.5688 23.1102 29.3688 23.2102C29.1688 23.3102 28.9688 23.4102 28.8688 23.5102C28.7688 23.6102 28.5688 23.7102 28.4688 23.8102C28.3687 23.9102 28.2688 23.9102 28.1688 24.0102C27.9688 24.2102 27.6688 24.5102 27.5688 24.8102C27.4688 24.9102 27.4688 25.0102 27.4688 25.1102C27.4688 25.2102 27.3688 25.3102 27.3688 25.4102C27.3688 25.5102 27.3688 25.5102 27.2688 25.6102C27.2688 25.7102 27.1688 25.8102 27.1688 25.9102C27.1688 26.0102 27.0688 26.2102 27.0688 26.3102C27.1688 26.3102 27.1688 26.4102 27.1688 26.5102ZM23.4688 30.7102C23.4688 32.8102 25.1688 34.4102 27.1688 34.4102C27.7688 34.4102 28.2688 34.3102 28.6688 34.1102C28.5688 33.7102 28.5688 33.2102 28.6688 32.7102C28.6688 32.5102 28.7688 32.3102 28.7688 32.1102C28.7688 31.9102 28.8688 31.8102 28.8688 31.6102C28.8688 31.4102 28.9688 31.2102 29.0688 31.1102C29.1688 30.9102 29.1688 30.8102 29.2688 30.7102C29.3688 30.5102 29.5688 30.3102 29.6688 30.1102L29.7688 30.0102C29.8688 29.9102 29.8687 29.9102 29.9688 29.8102V28.3102C29.8687 28.2102 29.7688 28.1102 29.7688 28.0102C29.6688 27.9102 29.6688 27.9102 29.5688 27.8102C29.4688 27.7102 29.4688 27.7102 29.3688 27.6102C29.2688 27.5102 29.0688 27.4102 28.9688 27.3102C28.7687 27.2102 28.5688 27.1102 28.3688 27.1102C28.2688 27.0102 28.1688 27.0102 27.9688 27.0102C27.8687 27.0102 27.7688 27.0102 27.5688 26.9102C27.4688 26.9102 27.4688 26.9102 27.3688 26.9102C27.2688 26.9102 27.1688 26.9102 26.9688 26.9102C25.0688 26.9102 23.4688 28.6102 23.4688 30.7102ZM23.4688 30.7102C23.4688 32.8102 25.1688 34.4102 27.1688 34.4102C27.7688 34.4102 28.2688 34.3102 28.6688 34.1102C28.5688 33.7102 28.5688 33.2102 28.6688 32.7102C28.6688 32.5102 28.7688 32.3102 28.7688 32.1102C28.7688 31.9102 28.8688 31.8102 28.8688 31.6102C28.8688 31.4102 28.9688 31.2102 29.0688 31.1102C29.1688 30.9102 29.1688 30.8102 29.2688 30.7102C29.3688 30.5102 29.5688 30.3102 29.6688 30.1102L29.7688 30.0102C29.8688 29.9102 29.8687 29.9102 29.9688 29.8102V28.3102C29.8687 28.2102 29.7688 28.1102 29.7688 28.0102C29.6688 27.9102 29.6688 27.9102 29.5688 27.8102C29.4688 27.7102 29.4688 27.7102 29.3688 27.6102C29.2688 27.5102 29.0688 27.4102 28.9688 27.3102C28.7687 27.2102 28.5688 27.1102 28.3688 27.1102C28.2688 27.0102 28.1688 27.0102 27.9688 27.0102C27.8687 27.0102 27.7688 27.0102 27.5688 26.9102C27.4688 26.9102 27.4688 26.9102 27.3688 26.9102C27.2688 26.9102 27.1688 26.9102 26.9688 26.9102C25.0688 26.9102 23.4688 28.6102 23.4688 30.7102ZM30.0688 27.6102V22.9102C29.8688 22.9102 29.6688 23.0102 29.4688 23.1102C29.2687 23.2102 29.0688 23.3102 28.9688 23.4102C28.8687 23.5102 28.6688 23.6102 28.5688 23.7102C28.4688 23.8102 28.3688 23.8102 28.2688 23.9102C28.0688 24.1102 27.7688 24.4102 27.6688 24.7102C27.5688 24.8102 27.5688 24.9102 27.5688 25.0102C27.5688 25.1102 27.4688 25.2102 27.4688 25.3102C27.4688 25.4102 27.4688 25.4102 27.3688 25.5102C27.3688 25.6102 27.2688 25.7102 27.2688 25.8102C27.2688 25.9102 27.1688 26.1102 27.1688 26.2102C27.1688 26.3102 27.1688 26.4102 27.1688 26.6102C27.2688 26.6102 27.3688 26.6102 27.5688 26.7102C27.6688 26.7102 27.8687 26.7102 27.9688 26.8102C28.0688 26.8102 28.1688 26.8102 28.2688 26.9102C28.5688 27.0102 28.8688 27.1102 29.1688 27.2102C29.2688 27.2102 29.3687 27.3102 29.4688 27.4102C29.5688 27.4102 29.6688 27.5102 29.7688 27.6102C29.8688 27.5102 29.9688 27.5102 30.0688 27.6102ZM29.2688 32.0102C29.1688 32.3102 29.0688 32.7102 29.0688 33.0102C29.0688 33.6102 29.1687 34.2102 29.4688 34.7102C29.4688 34.8102 29.5688 34.9102 29.6688 35.0102C29.7688 35.1102 29.7688 35.2102 29.8688 35.3102C29.9688 35.4102 29.9688 35.5102 30.0688 35.6102V30.6102C29.9688 30.7102 29.8688 30.8102 29.8688 30.9102C29.7688 30.9102 29.6688 31.0102 29.6688 31.1102C29.5688 31.2102 29.5688 31.3102 29.4688 31.4102C29.3687 31.5102 29.3688 31.7102 29.2688 31.8102C29.2688 31.9102 29.2688 31.9102 29.2688 32.0102ZM23.4688 30.7102C23.4688 32.8102 25.1688 34.4102 27.1688 34.4102C27.7688 34.4102 28.2688 34.3102 28.6688 34.1102C28.5688 33.7102 28.5688 33.2102 28.6688 32.7102C28.6688 32.5102 28.7688 32.3102 28.7688 32.1102C28.7688 31.9102 28.8688 31.8102 28.8688 31.6102C28.8688 31.4102 28.9688 31.2102 29.0688 31.1102C29.1688 30.9102 29.1688 30.8102 29.2688 30.7102C29.3688 30.5102 29.5688 30.3102 29.6688 30.1102L29.7688 30.0102C29.8688 29.9102 29.8687 29.9102 29.9688 29.8102V28.3102C29.8687 28.2102 29.7688 28.1102 29.7688 28.0102C29.6688 27.9102 29.6688 27.9102 29.5688 27.8102C29.4688 27.7102 29.4688 27.7102 29.3688 27.6102C29.2688 27.5102 29.0688 27.4102 28.9688 27.3102C28.7687 27.2102 28.5688 27.1102 28.3688 27.1102C28.2688 27.0102 28.1688 27.0102 27.9688 27.0102C27.8687 27.0102 27.7688 27.0102 27.5688 26.9102C27.4688 26.9102 27.4688 26.9102 27.3688 26.9102C27.2688 26.9102 27.1688 26.9102 26.9688 26.9102C25.0688 26.9102 23.4688 28.6102 23.4688 30.7102ZM27.1688 26.5102C27.2688 26.6102 27.3688 26.6102 27.5688 26.6102C27.6688 26.6102 27.8687 26.6102 27.9688 26.7102C28.0688 26.7102 28.1688 26.7102 28.2688 26.8102C28.5688 26.9102 28.8688 27.0102 29.1688 27.1102C29.2688 27.1102 29.3687 27.2102 29.4688 27.3102C29.5688 27.3102 29.6688 27.4102 29.7688 27.5102C29.8688 27.5102 29.9688 27.6102 29.9688 27.7102V23.0102C29.7687 23.0102 29.5688 23.1102 29.3688 23.2102C29.1688 23.3102 28.9688 23.4102 28.8688 23.5102C28.7688 23.6102 28.5688 23.7102 28.4688 23.8102C28.3687 23.9102 28.2688 23.9102 28.1688 24.0102C27.9688 24.2102 27.6688 24.5102 27.5688 24.8102C27.4688 24.9102 27.4688 25.0102 27.4688 25.1102C27.4688 25.2102 27.3688 25.3102 27.3688 25.4102C27.3688 25.5102 27.3688 25.5102 27.2688 25.6102C27.2688 25.7102 27.1688 25.8102 27.1688 25.9102C27.1688 26.0102 27.0688 26.2102 27.0688 26.3102C27.1688 26.3102 27.1688 26.4102 27.1688 26.5102ZM29.0688 33.1102C29.0688 33.7102 29.1687 34.3102 29.4688 34.8102C29.4688 34.9102 29.5688 35.0102 29.6688 35.1102C29.7688 35.2102 29.7688 35.3102 29.8688 35.4102C29.9688 35.5102 29.9688 35.6102 30.0688 35.7102V30.7102C29.9688 30.8102 29.8688 30.9102 29.8688 31.0102C29.7688 30.9102 29.6688 31.0102 29.6688 31.1102C29.5688 31.2102 29.5688 31.3102 29.4688 31.4102C29.3687 31.5102 29.3688 31.7102 29.2688 31.8102C29.2688 31.9102 29.2688 31.9102 29.1688 32.0102C29.1688 32.3102 29.0688 32.7102 29.0688 33.1102ZM23.4688 30.7102C23.4688 32.8102 25.1688 34.4102 27.1688 34.4102C27.7688 34.4102 28.2688 34.3102 28.6688 34.1102C28.5688 33.7102 28.5688 33.2102 28.6688 32.7102C28.6688 32.5102 28.7688 32.3102 28.7688 32.1102C28.7688 31.9102 28.8688 31.8102 28.8688 31.6102C28.8688 31.4102 28.9688 31.2102 29.0688 31.1102C29.1688 30.9102 29.1688 30.8102 29.2688 30.7102C29.3688 30.5102 29.5688 30.3102 29.6688 30.1102L29.7688 30.0102C29.8688 29.9102 29.8687 29.9102 29.9688 29.8102V28.3102C29.8687 28.2102 29.7688 28.1102 29.7688 28.0102C29.6688 27.9102 29.6688 27.9102 29.5688 27.8102C29.4688 27.7102 29.4688 27.7102 29.3688 27.6102C29.2688 27.5102 29.0688 27.4102 28.9688 27.3102C28.7687 27.2102 28.5688 27.1102 28.3688 27.1102C28.2688 27.0102 28.1688 27.0102 27.9688 27.0102C27.8687 27.0102 27.7688 27.0102 27.5688 26.9102C27.4688 26.9102 27.4688 26.9102 27.3688 26.9102C27.2688 26.9102 27.1688 26.9102 26.9688 26.9102C25.0688 26.9102 23.4688 28.6102 23.4688 30.7102ZM27.1688 26.5102C27.2688 26.6102 27.3688 26.6102 27.5688 26.6102C27.6688 26.6102 27.8687 26.6102 27.9688 26.7102C28.0688 26.7102 28.1688 26.7102 28.2688 26.8102C28.5688 26.9102 28.8688 27.0102 29.1688 27.1102C29.2688 27.1102 29.3687 27.2102 29.4688 27.3102C29.5688 27.3102 29.6688 27.4102 29.7688 27.5102C29.8688 27.5102 29.9688 27.6102 29.9688 27.7102V23.0102C29.7687 23.0102 29.5688 23.1102 29.3688 23.2102C29.1688 23.3102 28.9688 23.4102 28.8688 23.5102C28.7688 23.6102 28.5688 23.7102 28.4688 23.8102C28.3687 23.9102 28.2688 23.9102 28.1688 24.0102C27.9688 24.2102 27.6688 24.5102 27.5688 24.8102C27.4688 24.9102 27.4688 25.0102 27.4688 25.1102C27.4688 25.2102 27.3688 25.3102 27.3688 25.4102C27.3688 25.5102 27.3688 25.5102 27.2688 25.6102C27.2688 25.7102 27.1688 25.8102 27.1688 25.9102C27.1688 26.0102 27.0688 26.2102 27.0688 26.3102C27.1688 26.3102 27.1688 26.4102 27.1688 26.5102ZM29.0688 33.1102C29.0688 33.7102 29.1687 34.3102 29.4688 34.8102C29.4688 34.9102 29.5688 35.0102 29.6688 35.1102C29.7688 35.2102 29.7688 35.3102 29.8688 35.4102C29.9688 35.5102 29.9688 35.6102 30.0688 35.7102V30.7102C29.9688 30.8102 29.8688 30.9102 29.8688 31.0102C29.7688 30.9102 29.6688 31.0102 29.6688 31.1102C29.5688 31.2102 29.5688 31.3102 29.4688 31.4102C29.3687 31.5102 29.3688 31.7102 29.2688 31.8102C29.2688 31.9102 29.2688 31.9102 29.1688 32.0102C29.1688 32.3102 29.0688 32.7102 29.0688 33.1102ZM23.4688 30.7102C23.4688 32.8102 25.1688 34.4102 27.1688 34.4102C27.7688 34.4102 28.2688 34.3102 28.6688 34.1102C28.5688 33.7102 28.5688 33.2102 28.6688 32.7102C28.6688 32.5102 28.7688 32.3102 28.7688 32.1102C28.7688 31.9102 28.8688 31.8102 28.8688 31.6102C28.8688 31.4102 28.9688 31.2102 29.0688 31.1102C29.1688 30.9102 29.1688 30.8102 29.2688 30.7102C29.3688 30.5102 29.5688 30.3102 29.6688 30.1102L29.7688 30.0102C29.8688 29.9102 29.8687 29.9102 29.9688 29.8102V28.3102C29.8687 28.2102 29.7688 28.1102 29.7688 28.0102C29.6688 27.9102 29.6688 27.9102 29.5688 27.8102C29.4688 27.7102 29.4688 27.7102 29.3688 27.6102C29.2688 27.5102 29.0688 27.4102 28.9688 27.3102C28.7687 27.2102 28.5688 27.1102 28.3688 27.1102C28.2688 27.0102 28.1688 27.0102 27.9688 27.0102C27.8687 27.0102 27.7688 27.0102 27.5688 26.9102C27.4688 26.9102 27.4688 26.9102 27.3688 26.9102C27.2688 26.9102 27.1688 26.9102 26.9688 26.9102C25.0688 26.9102 23.4688 28.6102 23.4688 30.7102ZM27.1688 26.5102C27.2688 26.6102 27.3688 26.6102 27.5688 26.6102C27.6688 26.6102 27.8687 26.6102 27.9688 26.7102C28.0688 26.7102 28.1688 26.7102 28.2688 26.8102C28.5688 26.9102 28.8688 27.0102 29.1688 27.1102C29.2688 27.1102 29.3687 27.2102 29.4688 27.3102C29.5688 27.3102 29.6688 27.4102 29.7688 27.5102C29.8688 27.5102 29.9688 27.6102 29.9688 27.7102V23.0102C29.7687 23.0102 29.5688 23.1102 29.3688 23.2102C29.1688 23.3102 28.9688 23.4102 28.8688 23.5102C28.7688 23.6102 28.5688 23.7102 28.4688 23.8102C28.3687 23.9102 28.2688 23.9102 28.1688 24.0102C27.9688 24.2102 27.6688 24.5102 27.5688 24.8102C27.4688 24.9102 27.4688 25.0102 27.4688 25.1102C27.4688 25.2102 27.3688 25.3102 27.3688 25.4102C27.3688 25.5102 27.3688 25.5102 27.2688 25.6102C27.2688 25.7102 27.1688 25.8102 27.1688 25.9102C27.1688 26.0102 27.0688 26.2102 27.0688 26.3102C27.1688 26.3102 27.1688 26.4102 27.1688 26.5102ZM29.0688 33.1102C29.0688 33.7102 29.1687 34.3102 29.4688 34.8102C29.4688 34.9102 29.5688 35.0102 29.6688 35.1102C29.7688 35.2102 29.7688 35.3102 29.8688 35.4102C29.9688 35.5102 29.9688 35.6102 30.0688 35.7102V30.7102C29.9688 30.8102 29.8688 30.9102 29.8688 31.0102C29.7688 30.9102 29.6688 31.0102 29.6688 31.1102C29.5688 31.2102 29.5688 31.3102 29.4688 31.4102C29.3687 31.5102 29.3688 31.7102 29.2688 31.8102C29.2688 31.9102 29.2688 31.9102 29.1688 32.0102C29.1688 32.3102 29.0688 32.7102 29.0688 33.1102ZM23.4688 30.7102C23.4688 32.8102 25.1688 34.4102 27.1688 34.4102C27.7688 34.4102 28.2688 34.3102 28.6688 34.1102C28.5688 33.7102 28.5688 33.2102 28.6688 32.7102C28.6688 32.5102 28.7688 32.3102 28.7688 32.1102C28.7688 31.9102 28.8688 31.8102 28.8688 31.6102C28.8688 31.4102 28.9688 31.2102 29.0688 31.1102C29.1688 30.9102 29.1688 30.8102 29.2688 30.7102C29.3688 30.5102 29.5688 30.3102 29.6688 30.1102L29.7688 30.0102C29.8688 29.9102 29.8687 29.9102 29.9688 29.8102V28.3102C29.8687 28.2102 29.7688 28.1102 29.7688 28.0102C29.6688 27.9102 29.6688 27.9102 29.5688 27.8102C29.4688 27.7102 29.4688 27.7102 29.3688 27.6102C29.2688 27.5102 29.0688 27.4102 28.9688 27.3102C28.7687 27.2102 28.5688 27.1102 28.3688 27.1102C28.2688 27.0102 28.1688 27.0102 27.9688 27.0102C27.8687 27.0102 27.7688 27.0102 27.5688 26.9102C27.4688 26.9102 27.4688 26.9102 27.3688 26.9102C27.2688 26.9102 27.1688 26.9102 26.9688 26.9102C25.0688 26.9102 23.4688 28.6102 23.4688 30.7102ZM27.1688 26.5102C27.2688 26.6102 27.3688 26.6102 27.5688 26.6102C27.6688 26.6102 27.8687 26.6102 27.9688 26.7102C28.0688 26.7102 28.1688 26.7102 28.2688 26.8102C28.5688 26.9102 28.8688 27.0102 29.1688 27.1102C29.2688 27.1102 29.3687 27.2102 29.4688 27.3102C29.5688 27.3102 29.6688 27.4102 29.7688 27.5102C29.8688 27.5102 29.9688 27.6102 29.9688 27.7102V23.0102C29.7687 23.0102 29.5688 23.1102 29.3688 23.2102C29.1688 23.3102 28.9688 23.4102 28.8688 23.5102C28.7688 23.6102 28.5688 23.7102 28.4688 23.8102C28.3687 23.9102 28.2688 23.9102 28.1688 24.0102C27.9688 24.2102 27.6688 24.5102 27.5688 24.8102C27.4688 24.9102 27.4688 25.0102 27.4688 25.1102C27.4688 25.2102 27.3688 25.3102 27.3688 25.4102C27.3688 25.5102 27.3688 25.5102 27.2688 25.6102C27.2688 25.7102 27.1688 25.8102 27.1688 25.9102C27.1688 26.0102 27.0688 26.2102 27.0688 26.3102C27.1688 26.3102 27.1688 26.4102 27.1688 26.5102ZM29.0688 33.1102C29.0688 33.7102 29.1687 34.3102 29.4688 34.8102C29.4688 34.9102 29.5688 35.0102 29.6688 35.1102C29.7688 35.2102 29.7688 35.3102 29.8688 35.4102C29.9688 35.5102 29.9688 35.6102 30.0688 35.7102V30.7102C29.9688 30.8102 29.8688 30.9102 29.8688 31.0102C29.7688 30.9102 29.6688 31.0102 29.6688 31.1102C29.5688 31.2102 29.5688 31.3102 29.4688 31.4102C29.3687 31.5102 29.3688 31.7102 29.2688 31.8102C29.2688 31.9102 29.2688 31.9102 29.1688 32.0102C29.1688 32.3102 29.0688 32.7102 29.0688 33.1102Z" fill="url(#paint5_linear_1670_33450)"/>
<defs>
<linearGradient id="paint0_linear_1670_33450" x1="27.8656" y1="10.7514" x2="-3.82705" y2="16.6771" gradientUnits="userSpaceOnUse">
<stop stop-color="#269A14"/>
<stop offset="1" stop-color="#62D750"/>
</linearGradient>
<linearGradient id="paint1_linear_1670_33450" x1="54.8295" y1="10.7592" x2="26.357" y2="15.5053" gradientUnits="userSpaceOnUse">
<stop stop-color="#269A14"/>
<stop offset="1" stop-color="#62D750"/>
</linearGradient>
<linearGradient id="paint2_linear_1670_33450" x1="36.0422" y1="30.833" x2="28.8543" y2="33.539" gradientUnits="userSpaceOnUse">
<stop stop-color="#269A14"/>
<stop offset="1" stop-color="#62D750"/>
</linearGradient>
<linearGradient id="paint3_linear_1670_33450" x1="34.1398" y1="23.9918" x2="27.1708" y2="26.9286" gradientUnits="userSpaceOnUse">
<stop stop-color="#269A14"/>
<stop offset="1" stop-color="#62D750"/>
</linearGradient>
<linearGradient id="paint4_linear_1670_33450" x1="30.1617" y1="28.1505" x2="23.1724" y2="30.6432" gradientUnits="userSpaceOnUse">
<stop stop-color="#269A14"/>
<stop offset="1" stop-color="#62D750"/>
</linearGradient>
<linearGradient id="paint5_linear_1670_33450" x1="29.604" y1="25.1669" x2="22.6444" y2="26.5178" gradientUnits="userSpaceOnUse">
<stop stop-color="#269A14"/>
<stop offset="1" stop-color="#62D750"/>
</linearGradient>
</defs>
</svg>
