<svg id="Layer_1" data-name="Layer 1" xmlns="http://www.w3.org/2000/svg" xmlns:xlink="http://www.w3.org/1999/xlink" viewBox="0 0 82 52"><defs><style>.cls-1{fill:url(#linear-gradient);}</style><linearGradient id="linear-gradient" x1="427.3" y1="-231.04" x2="363.06" y2="-269.73" gradientTransform="matrix(1, 0, 0, -1, -355, -226)" gradientUnits="userSpaceOnUse"><stop offset="0" stop-color="#32889e"/><stop offset="1" stop-color="#75c9de"/></linearGradient></defs><path class="cls-1" d="M26.44,6.27a1.1,1.1,0,0,1,0-2.19H49.63V1.82a1.09,1.09,0,0,1,2.18,0V4.08H79.43a1.1,1.1,0,1,1,0,2.19H76.92V37.76h2.63a1.1,1.1,0,0,1,0,2.19H51.38v1.12a.36.36,0,0,1,.13.11l6.69,6.38a1.09,1.09,0,0,1-1.5,1.58l-5.3-5.06v5.55a1.1,1.1,0,1,1-2.19,0V43.86l-5.53,5.28a1.09,1.09,0,0,1-1.5-1.58l6.68-6.38a1.92,1.92,0,0,1,.35-.23V40H26.12a1.1,1.1,0,0,1,0-2.19H74.74V6.27ZM47.78,33.13a1,1,0,0,1-.38-.08,1.07,1.07,0,0,1-.54-.54,1,1,0,0,1,.92-1.39H69.09a1,1,0,0,1,0,2Zm1.51-6.74a1,1,0,0,1,0-2h19.8a1,1,0,0,1,0,2Zm-3.24-6.74a1,1,0,0,1,0-2h23a1,1,0,0,1,0,2ZM35.77,12.91a1,1,0,0,1,0-2H69.09a1,1,0,0,1,0,2Zm-.72,13.25,7.58-8a1.16,1.16,0,0,1,1.65,0,1.18,1.18,0,0,1,0,1.66l-7.14,7.51a3.2,3.2,0,0,1-3,5.19L26.2,31a3.22,3.22,0,0,1-2-1.28l-2.57-3.56v.09l-.21,11.89.31,1.78H8.4l.28-1.65-.25-11.8h0l0-2h0C7,25.82,7,29.07,6.81,31.05l-.34,4.53a2.77,2.77,0,0,1-1,2.31,3,3,0,0,1-4.18-.06,4.91,4.91,0,0,1-.64-3.34c.35-6,1-15.07,7.76-18v.08c2.85-1.14,6.21-.64,9.27-.64a10.67,10.67,0,0,1,3.88.65,3.2,3.2,0,0,1,1.86,1.24l5.15,7.15ZM15,1.22A6.78,6.78,0,1,1,8.23,8,6.76,6.76,0,0,1,15,1.22Z"/></svg>