<svg id="Layer_1" data-name="Layer 1" xmlns="http://www.w3.org/2000/svg" xmlns:xlink="http://www.w3.org/1999/xlink" viewBox="0 0 66 49"><defs><style>.cls-1{fill-rule:evenodd;fill:url(#linear-gradient);}</style><linearGradient id="linear-gradient" x1="423.25" y1="-241.42" x2="367.79" y2="-269.84" gradientTransform="matrix(1, 0, 0, -1, -363, -232.5)" gradientUnits="userSpaceOnUse"><stop offset="0" stop-color="#234d86"/><stop offset="1" stop-color="#5b8ccc"/></linearGradient></defs><path class="cls-1" d="M2.62,1.29H55.81a1.54,1.54,0,0,1,1.53,1.54v3.6h-2V4.85A1.35,1.35,0,0,0,54,3.49H4.45A1.35,1.35,0,0,0,3.1,4.85V32.63A1.36,1.36,0,0,0,4.45,34H44.18v5.88H2.62a1.54,1.54,0,0,1-1.53-1.54V2.83A1.54,1.54,0,0,1,2.62,1.29Zm46.6,8.29h14a1.92,1.92,0,0,1,1.91,1.93v31.1a1.93,1.93,0,0,1-1.91,1.93h-14a1.93,1.93,0,0,1-1.91-1.93V11.51A1.92,1.92,0,0,1,49.22,9.58Zm11.09,8.14h1.76v.64H60.31ZM56.2,36.55a2.1,2.1,0,1,1-2.08,2.1A2.09,2.09,0,0,1,56.2,36.55ZM49.9,15.89H62.5a.4.4,0,0,1,.4.4v2.48a.4.4,0,0,1-.4.4H49.9a.4.4,0,0,1-.4-.4V16.29a.41.41,0,0,1,.4-.4ZM22.28,42H36.15a7.22,7.22,0,0,0,3.7,6.29H18.58C20.72,46.72,22.29,44.82,22.28,42Z"/></svg>