<svg id="Layer_1" data-name="Layer 1" xmlns="http://www.w3.org/2000/svg" xmlns:xlink="http://www.w3.org/1999/xlink" viewBox="0 0 61 57"><defs><style>.cls-1{fill:url(#linear-gradient);}</style><linearGradient id="linear-gradient" x1="425.74" y1="-242.78" x2="370.22" y2="-265.2" gradientTransform="matrix(1, 0, 0, -1, -365.5, -220.5)" gradientUnits="userSpaceOnUse"><stop offset="0" stop-color="#924545"/><stop offset="1" stop-color="#c66f6f"/></linearGradient></defs><path class="cls-1" d="M26.31,4.49A1,1,0,0,1,26,4.43c-3.07,1.37-5.55,4.36-6.24,9.34a1.06,1.06,0,0,1-1.18.87.89.89,0,0,1-.38-.12,1.07,1.07,0,0,1-.31-.25,1.06,1.06,0,0,1-.18-.35,1.09,1.09,0,0,1,0-.4c.81-5.81,3.81-9.32,7.52-10.93a12.94,12.94,0,0,1,5.93-1,14.5,14.5,0,0,1,5.8,1.57,12.27,12.27,0,0,1,6.9,10.5,1,1,0,0,1-.3.71,1.05,1.05,0,0,1-.71.31,1,1,0,0,1-.73-.26,1.06,1.06,0,0,1-.36-.68,10.25,10.25,0,0,0-5.8-8.79l-.4-.22a1.21,1.21,0,0,1-.38.06c-1,0-1.2,1.66-1.26,3.94V12c0,.92,0,1.85,0,2.47a1,1,0,0,1-.31.74,1.06,1.06,0,0,1-1.48,0,1,1,0,0,1-.31-.74V12c0-1.18,0-2.32,0-3.38.06-2,.3-3.81,1.06-4.84A11.58,11.58,0,0,0,31,3.57a11.34,11.34,0,0,0-2.33.1,9.61,9.61,0,0,1,1,4.81V12c0,.72,0,1.46,0,2.49a1,1,0,0,1-.3.71,1,1,0,0,1-1.44,0,1,1,0,0,1-.29-.71c0-.64,0-1.59,0-2.53,0-1.19,0-2.36,0-3.41-.05-2.34-.31-4.07-1.28-4ZM38.54,32.66c1.81,6.42,6.18,7.56,10.39,8.66,5.63,1.47,11,2.86,11,14.41a.8.8,0,0,1-.24.57.78.78,0,0,1-.58.24H1.74a.78.78,0,0,1-.58-.24.8.8,0,0,1-.24-.57c0-11.52,5.65-12.88,11.52-14.26,4.47-1.07,9.07-2.16,10.8-8.76a15.67,15.67,0,0,1-2.71-5.18,3.62,3.62,0,0,0-.17-.53,2.27,2.27,0,0,1-.92-.42,2.33,2.33,0,0,1-.65-.79,8.29,8.29,0,0,1-1-3.1,6.73,6.73,0,0,1,.25-2.32,15.28,15.28,0,0,1,.68-2c-.2-.11-.41-.22-.59-.34a5.83,5.83,0,0,1-2.29-2.38l1.92-.83a3.92,3.92,0,0,0,1.52,1.53c2.34,1.43,6.45,2.15,10.69,2.16s8.64-.67,11.43-2a5.47,5.47,0,0,0,2.35-1.79l1.81,1a6.88,6.88,0,0,1-2.76,2.34c.08.18.16.37.23.57s.21.6.3.9v0c.12.59.19.89.23,1.07a2.73,2.73,0,0,1,.06.31,2.54,2.54,0,0,1,0,.39v1.05a8.37,8.37,0,0,1-.17,1.1,9.55,9.55,0,0,1-.33,1.16,5.7,5.7,0,0,1-1,1.76,2.11,2.11,0,0,1-1.11.74l-.22.84a12.93,12.93,0,0,1-2.27,4.56ZM20,40.4A20,20,0,0,0,30.54,43a19.57,19.57,0,0,0,10.57-3.27,11.77,11.77,0,0,1-3.79-5.61,6.93,6.93,0,0,1-1.7,1.06,9,9,0,0,1-4.8,1.23,9.45,9.45,0,0,1-4.36-1.09A9.68,9.68,0,0,1,25,34.63l-.53-.35a11.21,11.21,0,0,1-4.44,6.1Zm.61-21.19a4.05,4.05,0,0,0-.82,3.09,7.71,7.71,0,0,0,.4,2,2.6,2.6,0,0,0,.7,1.14.19.19,0,0,0,.1.05.12.12,0,0,0,.1,0,.71.71,0,0,1,.25,0,.63.63,0,0,1,.23.08.69.69,0,0,1,.32.37c.12.32.22.7.32,1a10.94,10.94,0,0,0,4.27,5.94,8.31,8.31,0,0,0,4.43,1.39A7.48,7.48,0,0,0,35.26,33,9.7,9.7,0,0,0,39,27.62c.08-.32.17-.61.26-.95l.1-.37a.76.76,0,0,1,.27-.37.94.94,0,0,1,.23-.1h.25c.17,0,.39-.1.61-.33a4,4,0,0,0,.73-1.29,7.58,7.58,0,0,0,.19-2.64,13.66,13.66,0,0,0-.7-2.5.24.24,0,0,1,0-.12C35.49,20.85,26.37,21.21,20.61,19.21Z"/></svg>