<svg id="Layer_1" data-name="Layer 1" xmlns="http://www.w3.org/2000/svg" xmlns:xlink="http://www.w3.org/1999/xlink" viewBox="0 0 59 59"><defs><style>.cls-1{fill-rule:evenodd;fill:url(#linear-gradient);}</style><linearGradient id="linear-gradient" x1="339.5" y1="-309.32" x2="266.93" y2="-369.82" gradientTransform="matrix(1, 0, 0, -1, -276.5, -307.5)" gradientUnits="userSpaceOnUse"><stop offset="0" stop-color="#266d4a"/><stop offset="1" stop-color="#66bc91"/></linearGradient></defs><path class="cls-1" d="M29.36,1.37A28.5,28.5,0,1,1,.86,29.87,28.5,28.5,0,0,1,29.36,1.37Zm7.83,3A26.87,26.87,0,0,1,55.31,26.23l-.91-.09a4.48,4.48,0,0,0-.31,1.54c0,.74.93,1.23.93,2.79,0,.41-1,1.25-1,1.39l-1.45-1.7v2.16h-.22l-.4-4-.81.25-1-3L47,28.92l0,2.43-1,.7-1.1-6.24-.66.49-1.49-2-2.24.07-.85-1-.88.24-1.72-2-.33.22,1.06,2.73h1.24V24h.62c.45,1.23.93.5.93,1.24,0,2.57-3.18,4.46-5.26,4.95.11.46.07.93.62.93,1.16,0,.58-.21,1.85-.31,0,2.63-3,5.77-4.27,7.72l.56,4c.15.88-1.82,1.81-2.48,2.79l.32,1.55-.91.36a3.85,3.85,0,0,1-3.43,3.35H25.63c0-2.17-1.55-5.27-1.55-6.81,0-1.3.62-1.48.62-3.09s-1.55-3.63-1.55-4V34.18H21.92c-.19-.69-.08-.93-.93-.93h-.31c-1.35,0-1.12.62-2.48.62H17c-1.12,0-3.1-3.58-3.1-4V26.14c0-1.61,1.47-3.35,2.48-4V20.57l1.39-1.42.77-.13c1.66,0,1.47-.93,2.48-.93h2.78v2.17l3.06,1.31.29-1.33c1.39.33,1.75,1,3.46,1h.62c1.17,0,1.24-1.56,1.24-2.79L30,18.65,28.88,16.3l-1.07.28c.19.84.3.49.3,1.2,0,.42-.35.47-.62.62l-1.08-2.72L24.11,14l-.31.3,2,2.06c-.26.74-.3,2.88-1.38,1.38l1-.48-2.52-2.65-1.51.59-1.49,1.43c-.16,1.15-.47,1.73-1.67,1.73-.81,0-.32-.21-1.55-.31V15h2.78l-.9-2.06-.33.2v-.62l4.52-2.08c-.09-.65-.19-.3-.19-1,0,0,.3-.61.31-.62L24,9.54,23.74,8.2l-1.81.38L21.6,7C23,6.2,26.18,3.55,27.18,3.55h.93a8.53,8.53,0,0,1,4,1.55l-2.49-.25,1.85,1.51.17-.64L33,5.34V4.48h.62v.93ZM55.11,34.69c-.07.39-.15.78-.23,1.17l-.15-1Zm-.89,3.51-.21.62h-.23V38.2ZM6.31,44.6a26.81,26.81,0,0,1-3.67-8.46l5,2.42,0,1.5c0,.55-.94,1.72-1.24,2.16Z"/></svg>