<svg id="Layer_1" data-name="Layer 1" xmlns="http://www.w3.org/2000/svg" xmlns:xlink="http://www.w3.org/1999/xlink" viewBox="0 0 72 52"><defs><style>.cls-1{fill-rule:evenodd;fill:url(#linear-gradient);}.cls-2{fill:url(#linear-gradient-2);}</style><linearGradient id="linear-gradient" x1="429.82" y1="-242.71" x2="370.41" y2="-274.66" gradientTransform="matrix(1, 0, 0, -1, -360, -226)" gradientUnits="userSpaceOnUse"><stop offset="0" stop-color="#23856d"/><stop offset="1" stop-color="#56cfb2"/></linearGradient><linearGradient id="linear-gradient-2" x1="381.57" y1="-251.92" x2="373.28" y2="-253.93" xlink:href="#linear-gradient"/></defs><path class="cls-1" d="M66.59,22.38V49.8a.84.84,0,0,1-.83.83H58.65a.83.83,0,0,1-.83-.83V29.4l5.06-4.87,2.87-2.76A7.19,7.19,0,0,0,66.59,22.38Zm-38.37-8L33.69,9.6c4.16,4.06,8.2,9,12.32,13l15-15L56.19,2.76,71.28,1.63,70.43,17l-4.64-4.63c-3.33,3.36-11.21,10.78-14.54,14.1-4.21,4.2-6.23,4.28-10.44.08l-7.12-7.9-1.38,1.22c-.21-.46-.45-.91-.7-1.35A16.55,16.55,0,0,0,29.8,16h0A16.87,16.87,0,0,0,28.22,14.37Zm-9.67.16a12.12,12.12,0,0,0-4.63.6h0A11.9,11.9,0,0,0,6.06,29.07a11.77,11.77,0,0,0,1,2.82L1.46,37.26a.55.55,0,0,0-.18.4.57.57,0,0,0,.16.41l3.18,3.32a.57.57,0,0,0,.81,0l5.42-5.21a12,12,0,0,0,2.65,1.41,12.23,12.23,0,0,0,3.43.74,11.93,11.93,0,0,0,8.68-2.92,11.95,11.95,0,0,0,4.07-8.18,12.05,12.05,0,0,0-.59-4.62l0,0a12,12,0,0,0-2.32-4,12,12,0,0,0-8.2-4.06Zm-7.09,4.74a9.47,9.47,0,0,1,3.23-1.86,9.61,9.61,0,0,1,7.29.5,9.36,9.36,0,0,1,2.95,2.27l0,0a9.51,9.51,0,0,1,1.83,3.19v0A9.47,9.47,0,0,1,24,33.61a9.57,9.57,0,0,1-3.23,1.86A9.66,9.66,0,0,1,13.5,35l0,0a9.59,9.59,0,0,1-4.79-5.48v0a9.41,9.41,0,0,1-.46-3.65,9.56,9.56,0,0,1,1-3.59A9.32,9.32,0,0,1,11.46,19.27Zm12.2,22V49.8a.83.83,0,0,1-.83.83H15.72a.83.83,0,0,1-.83-.83V42.16a16.48,16.48,0,0,0,1.77.21,16.26,16.26,0,0,0,6.18-.8C23.11,41.48,23.39,41.38,23.66,41.27ZM38,33V49.8a.84.84,0,0,1-.83.83H30a.83.83,0,0,1-.83-.83V37.58a16,16,0,0,0,2.89-4.06A15.14,15.14,0,0,0,33.2,30.6a14.94,14.94,0,0,0,.41-2l1.9,2.1a3,3,0,0,0,.24.26A28.44,28.44,0,0,0,38,33Zm14.31,1.25V49.8a.84.84,0,0,1-.83.83H44.34a.83.83,0,0,1-.83-.83V35.86a11,11,0,0,0,2.6.26A11.3,11.3,0,0,0,52.28,34.24Z"/><path class="cls-2" d="M18.77,22h1.94l.72-1.14H14.11L13.4,22h1.23c1.29,0,2.47.1,2.95,1.24H14.11l-.71,1.14h4.32v.05c0,.85-.66,2.14-2.85,2.14H13.78v1.09l4.27,5.61H20l-4.46-5.81a3.77,3.77,0,0,0,3.8-3.08h1.37l.72-1.14H19.29A2.45,2.45,0,0,0,18.77,22Z"/></svg>