<svg id="Layer_1" data-name="Layer 1" xmlns="http://www.w3.org/2000/svg" xmlns:xlink="http://www.w3.org/1999/xlink" viewBox="0 0 77 45"><defs><style>.cls-1{fill-rule:evenodd;fill:url(#linear-gradient);}</style><linearGradient id="linear-gradient" x1="425.34" y1="-243.08" x2="367.99" y2="-280.73" gradientTransform="matrix(1, 0, 0, -1, -357.5, -238.5)" gradientUnits="userSpaceOnUse"><stop offset="0" stop-color="#3e5fa2"/><stop offset="1" stop-color="#7696d5"/></linearGradient></defs><path class="cls-1" d="M51.48,8.64,55.57,4.4c-5.68-4.29-18.31-2-23.75,2a24,24,0,0,0-8-.75c-6.49.29-1,5.66,1,7.8-1.74,2.82-3.32,5.74-4.84,8.71-1.15,3.15-3.57,4.38-7,4l-3.84-.76c-2-.41-9.24-2.5-8,1.72,1.25,2.74,4.32,5.12,7.55,7.48A50.6,50.6,0,0,0,10,40.25c1.52,5.52,3.86,5.41,5.49.3l2.19-7c.68-2.51,2.1-3.63,3.94-3.79,5.61-.49,10.24,1.52,17.77-.84A31.27,31.27,0,0,0,41,34.69c.79,1.39,1.92,1.53,3.53-.19a25.85,25.85,0,0,0,3.19-9.2c5.6-5.83,9.55-14,9-18.83L51.51,8.66ZM73.4,1.38V6.64a4.81,4.81,0,0,1,1.9,6.77,4.9,4.9,0,0,1-1.9,1.77v9a10,10,0,0,1-5.12,8.91,9.16,9.16,0,0,1-3.84,1.07,8.21,8.21,0,0,1-4-.82c-2.72-1.32-4.88-4.29-5.22-9.07l2.25-5.11,2,4.81c.21,3,1.38,4.82,2.83,5.52a4.07,4.07,0,0,0,1.91.39,4.75,4.75,0,0,0,2-.57,5.67,5.67,0,0,0,2.14-2.18,5.75,5.75,0,0,0,.73-3V15.2a4.82,4.82,0,0,1-2.65-4.29,4.82,4.82,0,0,1,.72-2.53,4.68,4.68,0,0,1,1.93-1.76V1.38ZM46.91,4.61a2.16,2.16,0,0,0-1.26,0,2.19,2.19,0,0,0-1,.73,2.17,2.17,0,0,0-.44,1.18,2.19,2.19,0,0,0,.28,1.23,2.12,2.12,0,0,0,.92.86,2.23,2.23,0,0,0,1.24.21,2.17,2.17,0,0,0,1.58-3.24A2.13,2.13,0,0,0,46.91,4.61Z"/></svg>