<svg width="54" height="54" viewBox="0 0 54 54" fill="none" xmlns="http://www.w3.org/2000/svg">
<path d="M52.8754 29.5515C53.0563 27.6739 53.0423 25.7963 52.8198 23.9048L48.4376 22.8617C48.2011 21.7073 47.8812 20.5668 47.4777 19.4403L50.6913 16.2692C50.3018 15.4208 49.8705 14.5724 49.3836 13.7519C48.8967 12.9313 48.382 12.1524 47.8116 11.4014L43.4851 12.6948C42.7061 11.7908 41.8575 10.9563 40.9532 10.2053L42.1496 5.86594C40.6055 4.7672 38.95 3.83535 37.225 3.09822L34.1227 6.38054C33.0098 5.99111 31.8551 5.69904 30.6865 5.49042L29.5458 1.12326C27.6817 0.942459 25.7897 0.956367 23.9116 1.19281L22.8544 5.57387C21.6997 5.7964 20.5729 6.11629 19.446 6.53353L16.2742 3.32075C15.4256 3.69627 14.577 4.12742 13.7562 4.62811C12.9355 5.1149 12.1564 5.64341 11.4052 6.19973L12.699 10.5252C11.7947 11.3179 10.96 12.1524 10.2088 13.0564L5.8545 11.8603C4.74158 13.4041 3.82342 15.0453 3.08611 16.7699L6.36923 19.8714C5.97971 20.9841 5.70148 22.1385 5.49281 23.3067L1.12459 24.4472C0.94374 26.3109 0.957652 28.2024 1.18024 30.0939L5.56236 31.137C5.78495 32.2914 6.10491 33.4319 6.52226 34.5584L3.3087 37.7295C3.69822 38.5779 4.12948 39.4124 4.61638 40.2329C5.10328 41.0535 5.63192 41.8463 6.18838 42.5834L10.5149 41.29C11.2939 42.194 12.1564 43.0285 13.0468 43.7795L11.8504 48.1467C13.3945 49.2454 15.0361 50.1773 16.7611 50.9144L19.8773 47.6321C21.0041 48.0215 22.131 48.3136 23.3134 48.5083L24.4542 52.8754C26.3183 53.0562 28.2103 53.0423 30.1023 52.8198L31.1456 48.4387C32.3003 48.2162 33.441 47.8963 34.5679 47.4791L37.7536 50.6919C38.6022 50.3163 39.4369 49.8713 40.2577 49.3845C41.0784 48.8977 41.8575 48.3692 42.6087 47.8129L41.3149 43.4874C42.2192 42.7086 43.0539 41.8463 43.8051 40.9562L48.1594 42.1523C49.2584 40.6085 50.1905 38.9534 50.9278 37.2288L47.6447 34.1134C48.0342 33.0007 48.3263 31.8602 48.535 30.692L52.8754 29.5515ZM26.6383 43.7934C17.3732 43.6126 10.0001 35.9075 10.1949 26.6447C10.3897 17.3819 18.0827 10.0106 27.3478 10.2053C36.6129 10.4 43.986 18.0912 43.8051 27.354C43.6103 36.6168 35.9034 44.0021 26.6383 43.7934Z" stroke="url(#paint0_linear_906_33753)" stroke-width="2"/>
<path fill-rule="evenodd" clip-rule="evenodd" d="M31.3537 33.266C31.9006 32.9633 32.428 32.6796 32.6819 32.8309C33.3265 33.1146 33.4242 39.7163 28.6581 39.9811C27.994 40.0567 27.0954 37.2194 29.3417 34.8171C28.8534 34.9495 28.2869 35.1008 28.1502 34.7414C28.2283 34.7414 27.5056 33.7956 27.9939 32.2445C28.5799 30.3718 31.0216 28.8775 31.5685 28.8775C32.7405 28.31 31.8029 33.266 31.3537 33.266ZM28.8729 39.2434C31.4513 38.9029 32.3694 36.2358 32.1545 33.701C27.4275 35.8196 28.912 39.2434 28.8729 39.2434ZM31.3341 29.7665C29.5566 30.6367 28.0916 32.358 28.7167 34.1928C31.5099 33.7767 31.4904 29.7665 31.3341 29.7665ZM27.7986 27.8182C28.326 26.2104 30.4356 24.9241 30.8849 24.9241C32.0178 24.5458 31.8225 29.9746 28.3065 30.1827C27.6033 30.2205 27.5642 28.4992 27.7986 27.8182ZM30.6505 25.8131C29.2245 26.5319 28.033 27.9128 28.5409 29.4071C30.8653 29.0099 30.6895 25.8131 30.6505 25.8131ZM30.2012 21.7273C31.2365 21.2166 31.1974 25.8321 28.2479 26.0023C27.6228 26.059 27.0173 23.9405 28.9901 22.4083C27.701 23.0136 27.4275 21.8597 27.74 20.8383C28.1893 19.5142 28.9901 19.6466 28.1697 19.7033C27.8963 19.7222 27.7596 19.4574 27.7986 19.4763C27.0173 17.6982 29.6152 15.9012 29.9668 16.7525C30.1035 17.1497 30.0645 18.2657 29.5761 18.9278C31.1193 18.3036 30.4161 21.2355 29.5957 21.9921C30.0449 21.7462 30.2403 21.7273 30.2012 21.7273ZM30.0059 22.6164C29.0292 23.146 28.1697 24.1485 28.4823 25.2267C30.1035 24.8863 30.0449 22.6164 30.0059 22.6164ZM29.6738 19.7222C28.912 20.1573 28.2283 20.9518 28.4432 21.803C29.7129 21.5192 29.7129 19.7222 29.6738 19.7222ZM29.2636 17.4713C28.3846 18.0387 28.1307 19.1737 28.6385 18.7954C29.2441 18.436 29.3027 17.4713 29.2636 17.4713ZM24.6733 34.8171C27.3298 37.6544 25.4742 39.773 25.7086 39.773C25.4742 40.3216 23.931 39.7352 23.345 39.3758C20.7471 37.749 20.5127 32.812 21.6456 32.812C23.1302 33.3795 22.6418 33.6254 22.2121 32.358C21.7433 30.9772 21.9191 29.2558 21.9777 29.1423C21.9777 28.2533 24.1459 29.7098 24.8296 30.4097C26.8024 32.3769 26.0992 34.7414 25.8648 34.7414C25.6695 35.2143 24.7905 34.8171 24.6733 34.8171ZM21.841 33.6821C21.6261 36.2168 22.5442 38.884 25.1226 39.2244C26.2555 36.1979 22.3488 33.6821 21.841 33.6821ZM25.2788 34.1928C25.9234 32.358 24.4194 30.6178 22.6614 29.7665C22.5442 31.2609 22.9153 33.0011 24.224 33.8145C24.7905 34.1739 25.3374 34.1928 25.2788 34.1928ZM23.1692 24.9241C27.0564 26.3806 26.6852 30.2205 25.7086 30.1827C22.3488 29.9746 21.9386 24.9241 23.1692 24.9241ZM25.4742 29.4071C25.943 27.8939 24.771 26.5319 23.3646 25.8131C23.1497 29.653 26.0797 29.4071 25.4742 29.4071ZM24.5756 25.624C23.1106 24.6971 23.1106 22.3326 23.306 21.9732C23.306 21.4814 24.0092 21.7651 24.4194 21.9921C23.6185 21.2544 22.8372 18.2657 24.4389 18.9278C24.0092 18.3414 23.638 16.5066 24.4194 16.5066C26.568 16.9227 26.7438 19.779 25.8258 19.6844C25.4351 19.6655 25.4156 19.5898 25.5328 19.6844C26.7048 20.8572 26.8024 23.146 25.0249 22.3705C26.7634 23.7513 26.4508 25.4537 26.1383 25.7564C26.236 25.7753 25.7476 26.3428 24.5756 25.624ZM25.5328 25.2267C25.8258 24.1485 24.9858 23.1649 23.9896 22.6164C23.931 25.0943 25.6109 25.2267 25.5328 25.2267ZM25.5523 21.803C25.7867 20.9518 25.103 20.1573 24.3217 19.7222C24.3217 21.9354 25.9234 21.803 25.5523 21.803ZM25.5718 18.9089C25.6695 18.3225 25.2398 17.7928 24.7319 17.4713C24.7905 19.0413 25.9234 18.9089 25.5718 18.9089ZM27.6033 15.3905C27.0564 19.8736 27.8377 40 26.9782 40C26.2555 40 26.529 16.1093 27.0954 13.48C27.2126 12.7801 27.8377 12.9504 27.8963 13.3287C27.8963 13.3476 27.6424 15.3905 27.6033 15.3905Z" fill="url(#paint1_linear_906_33753)"/>
<defs>
<linearGradient id="paint0_linear_906_33753" x1="49.3382" y1="10.1679" x2="-0.497912" y2="28.9291" gradientUnits="userSpaceOnUse">
<stop stop-color="#924545"/>
<stop offset="1" stop-color="#C66F6F"/>
</linearGradient>
<linearGradient id="paint1_linear_906_33753" x1="32.155" y1="17.7603" x2="19.382" y2="19.8974" gradientUnits="userSpaceOnUse">
<stop stop-color="#924545"/>
<stop offset="1" stop-color="#C66F6F"/>
</linearGradient>
</defs>
</svg>
