<?xml version="1.0" encoding="UTF-8"?>
<svg id="Layer_1" data-name="Layer 1" xmlns="http://www.w3.org/2000/svg" xmlns:xlink="http://www.w3.org/1999/xlink" viewBox="0 0 90 90">
  <defs>
    <style>
      .cls-1 {
        fill: url(#linear-gradient-2);
      }

      .cls-2 {
        fill: url(#linear-gradient-6);
      }

      .cls-3 {
        fill: url(#linear-gradient-5);
      }

      .cls-4 {
        fill: url(#linear-gradient-3);
      }

      .cls-5 {
        fill: url(#linear-gradient);
      }

      .cls-6 {
        fill: url(#linear-gradient-4);
      }
    </style>
    <linearGradient id="linear-gradient" x1="10.35" y1="10.1" x2="64.09" y2="63.28" gradientUnits="userSpaceOnUse">
      <stop offset="0" stop-color="#ff333e"/>
      <stop offset="1" stop-color="#932a28"/>
    </linearGradient>
    <linearGradient id="linear-gradient-2" x1="9.58" y1="10.88" x2="63.32" y2="64.06" xlink:href="#linear-gradient"/>
    <linearGradient id="linear-gradient-3" x1="37.43" y1="-17.25" x2="91.16" y2="35.92" xlink:href="#linear-gradient"/>
    <linearGradient id="linear-gradient-4" x1="7.39" y1="13.1" x2="61.13" y2="66.28" xlink:href="#linear-gradient"/>
    <linearGradient id="linear-gradient-5" x1="-3.57" y1="24.17" x2="50.17" y2="77.35" xlink:href="#linear-gradient"/>
    <linearGradient id="linear-gradient-6" x1="9.42" y1="11.04" x2="63.16" y2="64.22" xlink:href="#linear-gradient"/>
  </defs>
  <path class="cls-5" d="M45,85.77L15.08,55.86c-6.41-6.41-6.41-16.84,0-23.25,3.1-3.1,7.23-4.81,11.62-4.81s8.52,1.71,11.62,4.81c.77,.77,.77,2.01,0,2.77-.77,.76-2.01,.77-2.77,0-2.36-2.36-5.51-3.67-8.85-3.67s-6.49,1.3-8.85,3.67c-4.88,4.88-4.88,12.82,0,17.71l27.15,27.15,27.15-27.15c2.36-2.36,3.67-5.51,3.67-8.85s-1.3-6.49-3.67-8.85c-2.36-2.36-5.51-3.67-8.85-3.67s-6.49,1.3-8.85,3.67c-.76,.77-2.01,.77-2.77,0-.77-.77-.77-2.01,0-2.77,3.1-3.1,7.23-4.81,11.62-4.81s8.52,1.71,11.62,4.81c3.1,3.1,4.81,7.23,4.81,11.62s-1.71,8.52-4.81,11.62l-29.92,29.92Z"/>
  <g>
    <path class="cls-1" d="M16.86,31.95c-3.7,0-7.18-1.44-9.8-4.06-2.62-2.62-4.06-6.1-4.06-9.8s1.44-7.18,4.06-9.8c2.62-2.62,6.1-4.06,9.8-4.06s7.18,1.44,9.8,4.06c2.62,2.62,4.06,6.1,4.06,9.8s-1.44,7.18-4.06,9.8c-2.62,2.62-6.1,4.06-9.8,4.06Zm0-23.8c-2.66,0-5.15,1.03-7.03,2.91-1.88,1.88-2.91,4.37-2.91,7.03s1.03,5.15,2.91,7.03c1.88,1.88,4.37,2.91,7.03,2.91s5.15-1.03,7.03-2.91c1.88-1.88,2.91-4.37,2.91-7.03s-1.03-5.15-2.91-7.03c-1.88-1.88-4.37-2.91-7.03-2.91Z"/>
    <path class="cls-4" d="M73.14,31.95c-3.7,0-7.18-1.44-9.8-4.06-2.62-2.62-4.06-6.1-4.06-9.8s1.44-7.18,4.06-9.8c2.62-2.62,6.1-4.06,9.8-4.06s7.18,1.44,9.8,4.06c2.62,2.62,4.06,6.1,4.06,9.8s-1.44,7.18-4.06,9.8c-2.62,2.62-6.1,4.06-9.8,4.06Zm0-23.8c-2.66,0-5.15,1.03-7.03,2.91-1.88,1.88-2.91,4.37-2.91,7.03s1.03,5.15,2.91,7.03c1.88,1.88,4.37,2.91,7.03,2.91s5.15-1.03,7.03-2.91c1.88-1.88,2.91-4.37,2.91-7.03s-1.03-5.15-2.91-7.03c-1.88-1.88-4.37-2.91-7.03-2.91Z"/>
  </g>
  <path class="cls-6" d="M45,61.68c-3.04,0-5.89-1.18-8.03-3.33-4.43-4.43-4.43-11.64,0-16.07,2.15-2.15,5-3.33,8.03-3.33s5.89,1.18,8.03,3.33c4.43,4.43,4.43,11.64,0,16.07-2.15,2.15-5,3.33-8.03,3.33Zm0-18.81c-1.99,0-3.86,.77-5.26,2.18-2.9,2.9-2.9,7.63,0,10.53,1.41,1.41,3.28,2.18,5.26,2.18s3.86-.77,5.26-2.18c2.9-2.9,2.9-7.63,0-10.53-1.41-1.41-3.28-2.18-5.26-2.18Z"/>
  <g>
    <path class="cls-3" d="M28,67.69c-.13,0-.27-.01-.4-.04-1.06-.22-1.74-1.26-1.52-2.32,2.08-10.04,8.6-13.92,8.88-14.08,.94-.54,2.13-.22,2.68,.71,.54,.93,.22,2.13-.7,2.67-.24,.14-5.31,3.27-7.01,11.49-.19,.93-1.01,1.56-1.92,1.56Z"/>
    <path class="cls-2" d="M62,67.69c-.91,0-1.72-.64-1.92-1.56-1.73-8.34-6.95-11.45-7-11.48-.94-.54-1.26-1.74-.71-2.68,.54-.94,1.74-1.26,2.68-.71,.28,.16,6.8,4.04,8.88,14.08,.22,1.06-.46,2.1-1.52,2.32-.13,.03-.27,.04-.4,.04Z"/>
  </g>
</svg>