<svg width="90" height="46" viewBox="0 0 90 46" fill="none" xmlns="http://www.w3.org/2000/svg">
<path d="M89.5417 38.5907L89.4829 38.1826L80.6576 37.4181C80.3947 36.1729 80.0644 34.9364 79.6735 33.7344L86.9372 28.6585L86.7832 28.2763C85.187 24.2917 83.0269 20.5561 80.3653 17.1768L80.1111 16.8534L72.0813 20.608C71.2339 19.6672 70.3311 18.7644 69.3903 17.917L73.1449 9.8872L72.8215 9.63297C69.4422 6.97137 65.7083 4.8113 61.7219 3.21503L61.3397 3.06111L56.2638 10.3247C55.0601 9.9339 53.8253 9.60357 52.5801 9.3407L51.8157 0.515373L51.4076 0.456572C49.2838 0.15392 47.1272 0 44.9983 0C42.8693 0 40.7127 0.15392 38.589 0.456572L38.1808 0.515373L37.4164 9.3407C36.1712 9.60357 34.9347 9.9339 33.7327 10.3247L28.6568 3.06111L28.2746 3.21503C24.29 4.8113 20.5561 6.97137 17.1768 9.63297L16.8534 9.8872L20.608 17.917C19.6672 18.7644 18.7644 19.6672 17.917 20.608L9.8872 16.8534L9.63297 17.1768C6.97137 20.5561 4.8113 24.29 3.21503 28.2763L3.06111 28.6585L10.3247 33.7344C9.9339 34.9381 9.60357 36.1747 9.3407 37.4181L0.515373 38.1826L0.456572 38.5907C0.15392 40.7145 0 42.8711 0 45V45.5188H14.2661V45H29.378H46.9093V28.3144L58.5467 32.7884V45H75.7339V45.5188H90V45C90 42.8693 89.8461 40.7127 89.5434 38.5907H89.5417ZM1.42852 39.1458L10.2037 38.3866L10.2798 38.0044C10.5721 36.5465 10.9595 35.0972 11.4299 33.6964L11.5544 33.328L4.33224 28.2815C5.82302 24.6583 7.79285 21.2513 10.195 18.1435L18.1799 21.8757L18.4375 21.5851C19.4181 20.4748 20.4766 19.4147 21.5869 18.4358L21.8774 18.1781L18.1453 10.1933C21.2513 7.79285 24.6583 5.82302 28.2832 4.33052L33.3297 11.5527L33.6981 11.4281C35.0972 10.9577 36.5465 10.5703 38.0061 10.2781L38.3884 10.202L39.1476 1.42679C41.0915 1.16737 43.0578 1.03766 45.0035 1.03766C46.9491 1.03766 48.9154 1.1691 50.8593 1.42679L51.6186 10.202L52.0008 10.2781C53.4604 10.5703 54.9097 10.9577 56.3088 11.4281L56.6772 11.5527L61.7237 4.33052C65.3486 5.82129 68.7538 7.79112 71.8616 10.1933L68.1295 18.1781L68.4201 18.4358C69.5304 19.4147 70.5905 20.4748 71.5694 21.5851L71.8271 21.8757L79.8119 18.1435C82.2123 21.2496 84.1822 24.6566 85.6747 28.2815L78.4525 33.328L78.5771 33.6964C79.0475 35.0955 79.4349 36.5448 79.7271 38.0044L79.8032 38.3866L88.5784 39.1458C88.8136 40.9168 88.9433 42.7068 88.9658 44.4829H84.9967C82.9404 44.2754 80.1906 44.0281 76.7542 43.7807C76.1109 26.8253 62.118 13.2302 45.0069 13.2302C27.8958 13.2302 13.7542 26.9637 13.244 44.0384C10.9837 44.1958 8.91353 44.3463 7.13048 44.4812H1.04112C1.06188 42.7068 1.19158 40.9151 1.42852 39.1441V39.1458ZM32.5083 41.1745V37.5461L35.3169 36.4912V40.1195L32.5083 41.1745ZM39.2928 39.3413V35.009L42.6462 33.7483V38.0805L39.2928 39.3413ZM60.6774 42.942V31.2371L46.911 26.0644L39.2928 28.9266L41.3837 27.0052L40.2855 19.3542C40.2561 19.1466 40.078 18.991 39.867 18.991H38.6184C38.3987 18.991 38.2154 19.1587 38.1964 19.3784L37.342 29.6599L34.5369 30.7131L35.5642 29.4904L34.7444 23.0206C34.715 22.813 34.5369 22.6574 34.3259 22.6574H33.3315C33.1118 22.6574 32.9285 22.8251 32.9095 23.0448L32.1987 31.5899L29.378 32.6501V43.0665C24.1603 43.3242 18.8786 43.6545 14.2852 43.9675C14.8317 27.4981 28.3991 14.2679 45 14.2679C61.6009 14.2679 75.0231 27.358 75.7045 43.7064C71.5936 43.4228 66.5782 43.146 60.6756 42.9402L60.6774 42.942Z" fill="url(#paint0_linear_1683_33344)"/>
<path d="M50.8203 45.0005H54.5905V39.0408L50.8203 37.5898V45.0005Z" fill="url(#paint1_linear_1683_33344)"/>
<defs>
<linearGradient id="paint0_linear_1683_33344" x1="83.6622" y1="8.02525" x2="20.2923" y2="55.1935" gradientUnits="userSpaceOnUse">
<stop stop-color="#815C2F"/>
<stop offset="1" stop-color="#C09E74"/>
</linearGradient>
<linearGradient id="paint1_linear_1683_33344" x1="54.325" y1="38.8964" x2="50.3456" y2="39.6585" gradientUnits="userSpaceOnUse">
<stop stop-color="#815C2F"/>
<stop offset="1" stop-color="#C09E74"/>
</linearGradient>
</defs>
</svg>
