<svg id="Layer_1" data-name="Layer 1" xmlns="http://www.w3.org/2000/svg" xmlns:xlink="http://www.w3.org/1999/xlink" viewBox="0 0 74 55"><defs><style>.cls-1{fill-rule:evenodd;fill:url(#linear-gradient);}.cls-2{fill:url(#linear-gradient-2);}.cls-3{fill:url(#linear-gradient-3);}.cls-4{fill:url(#linear-gradient-4);}.cls-5{fill:url(#linear-gradient-5);}.cls-6{fill:url(#linear-gradient-6);}.cls-7{fill:url(#linear-gradient-7);}.cls-8{fill:url(#linear-gradient-8);}.cls-9{fill:url(#linear-gradient-9);}.cls-10{fill:url(#linear-gradient-10);}.cls-11{fill:url(#linear-gradient-11);}.cls-12{fill:url(#linear-gradient-12);}.cls-13{fill:url(#linear-gradient-13);}.cls-14{fill:url(#linear-gradient-14);}.cls-15{fill:url(#linear-gradient-15);}.cls-16{fill:url(#linear-gradient-16);}.cls-17{fill:url(#linear-gradient-17);}.cls-18{fill:url(#linear-gradient-18);}.cls-19{fill:url(#linear-gradient-19);}.cls-20{fill:url(#linear-gradient-20);}.cls-21{fill:url(#linear-gradient-21);}.cls-22{fill:url(#linear-gradient-22);}.cls-23{fill:url(#linear-gradient-23);}.cls-24{fill:url(#linear-gradient-24);}.cls-25{fill:url(#linear-gradient-25);}.cls-26{fill:url(#linear-gradient-26);}.cls-27{fill:url(#linear-gradient-27);}.cls-28{fill:url(#linear-gradient-28);}.cls-29{fill:url(#linear-gradient-29);}.cls-30{fill:url(#linear-gradient-30);}.cls-31{fill:url(#linear-gradient-31);}.cls-32{fill:url(#linear-gradient-32);}.cls-33{fill:url(#linear-gradient-33);}.cls-34{fill:url(#linear-gradient-34);}.cls-35{fill:url(#linear-gradient-35);}.cls-36{fill:url(#linear-gradient-36);}.cls-37{fill:url(#linear-gradient-37);}</style><linearGradient id="linear-gradient" x1="430.59" y1="-240.59" x2="368.14" y2="-272.53" gradientTransform="matrix(1, 0, 0, -1, -359, -223.5)" gradientUnits="userSpaceOnUse"><stop offset="0" stop-color="#815c2f"/><stop offset="1" stop-color="#c09e74"/></linearGradient><linearGradient id="linear-gradient-2" x1="415.56" y1="-270.32" x2="386.63" y2="-280.22" xlink:href="#linear-gradient"/><linearGradient id="linear-gradient-3" x1="412.65" y1="-261.84" x2="383.73" y2="-271.74" xlink:href="#linear-gradient"/><linearGradient id="linear-gradient-4" x1="410.23" y1="-254.75" x2="381.3" y2="-264.65" xlink:href="#linear-gradient"/><linearGradient id="linear-gradient-5" x1="410.66" y1="-256.02" x2="381.74" y2="-265.92" xlink:href="#linear-gradient"/><linearGradient id="linear-gradient-6" x1="409.87" y1="-253.71" x2="380.95" y2="-263.61" xlink:href="#linear-gradient"/><linearGradient id="linear-gradient-7" x1="407.34" y1="-246.31" x2="378.41" y2="-256.21" xlink:href="#linear-gradient"/><linearGradient id="linear-gradient-8" x1="411.13" y1="-257.38" x2="382.2" y2="-267.28" xlink:href="#linear-gradient"/><linearGradient id="linear-gradient-9" x1="410.01" y1="-254.11" x2="381.08" y2="-264.01" xlink:href="#linear-gradient"/><linearGradient id="linear-gradient-10" x1="408.1" y1="-248.53" x2="379.17" y2="-258.43" xlink:href="#linear-gradient"/><linearGradient id="linear-gradient-11" x1="410.46" y1="-255.43" x2="381.54" y2="-265.33" xlink:href="#linear-gradient"/><linearGradient id="linear-gradient-12" x1="412.08" y1="-260.17" x2="383.16" y2="-270.07" xlink:href="#linear-gradient"/><linearGradient id="linear-gradient-13" x1="409.59" y1="-252.87" x2="380.66" y2="-262.77" xlink:href="#linear-gradient"/><linearGradient id="linear-gradient-14" x1="406.99" y1="-245.29" x2="378.06" y2="-255.18" xlink:href="#linear-gradient"/><linearGradient id="linear-gradient-15" x1="407.85" y1="-247.79" x2="378.92" y2="-257.69" xlink:href="#linear-gradient"/><linearGradient id="linear-gradient-16" x1="410.71" y1="-256.15" x2="381.78" y2="-266.05" xlink:href="#linear-gradient"/><linearGradient id="linear-gradient-17" x1="405.9" y1="-242.11" x2="376.98" y2="-252.01" xlink:href="#linear-gradient"/><linearGradient id="linear-gradient-18" x1="412.51" y1="-261.41" x2="383.58" y2="-271.31" xlink:href="#linear-gradient"/><linearGradient id="linear-gradient-19" x1="413.78" y1="-265.12" x2="384.85" y2="-275.02" xlink:href="#linear-gradient"/><linearGradient id="linear-gradient-20" x1="413.6" y1="-264.61" x2="384.67" y2="-274.5" xlink:href="#linear-gradient"/><linearGradient id="linear-gradient-21" x1="411.01" y1="-257.03" x2="382.08" y2="-266.92" xlink:href="#linear-gradient"/><linearGradient id="linear-gradient-22" x1="410.66" y1="-256.01" x2="381.73" y2="-265.91" xlink:href="#linear-gradient"/><linearGradient id="linear-gradient-23" x1="411.21" y1="-257.62" x2="382.28" y2="-267.51" xlink:href="#linear-gradient"/><linearGradient id="linear-gradient-24" x1="409.86" y1="-253.68" x2="380.93" y2="-263.58" xlink:href="#linear-gradient"/><linearGradient id="linear-gradient-25" x1="411.57" y1="-258.67" x2="382.64" y2="-268.57" xlink:href="#linear-gradient"/><linearGradient id="linear-gradient-26" x1="410.8" y1="-256.41" x2="381.87" y2="-266.31" xlink:href="#linear-gradient"/><linearGradient id="linear-gradient-27" x1="411.5" y1="-258.46" x2="382.57" y2="-268.36" xlink:href="#linear-gradient"/><linearGradient id="linear-gradient-28" x1="407.1" y1="-245.61" x2="378.17" y2="-255.51" xlink:href="#linear-gradient"/><linearGradient id="linear-gradient-29" x1="413.31" y1="-263.75" x2="384.38" y2="-273.65" xlink:href="#linear-gradient"/><linearGradient id="linear-gradient-30" x1="408.45" y1="-249.57" x2="379.53" y2="-259.46" xlink:href="#linear-gradient"/><linearGradient id="linear-gradient-31" x1="409.67" y1="-253.11" x2="380.74" y2="-263.01" xlink:href="#linear-gradient"/><linearGradient id="linear-gradient-32" x1="411.74" y1="-259.17" x2="382.81" y2="-269.07" xlink:href="#linear-gradient"/><linearGradient id="linear-gradient-33" x1="413.97" y1="-265.7" x2="385.05" y2="-275.6" xlink:href="#linear-gradient"/><linearGradient id="linear-gradient-34" x1="411.3" y1="-257.89" x2="382.38" y2="-267.79" xlink:href="#linear-gradient"/><linearGradient id="linear-gradient-35" x1="408.93" y1="-250.97" x2="380.01" y2="-260.86" xlink:href="#linear-gradient"/><linearGradient id="linear-gradient-36" x1="407.84" y1="-247.78" x2="378.92" y2="-257.68" xlink:href="#linear-gradient"/><linearGradient id="linear-gradient-37" x1="410.72" y1="-256.18" x2="381.79" y2="-266.08" xlink:href="#linear-gradient"/></defs><path class="cls-1" d="M7,53.75V31.54c-5.51,2.08-7.63-4.61-4.49-7L36.25,1A1.09,1.09,0,0,1,37.65,1L71.42,24.48a4.26,4.26,0,0,1-4.6,7.13V53.69H63.93V30.37c0-.51-24.51-17.21-26.75-18.91-2.36,1.76-27.25,18.34-27.25,19V53.76ZM58,2.56l8.86.35V14.62L58,8.9Z"/><path class="cls-2" d="M48.25,53.29v0h0v.12l.06.08h0l0,0h0l0,0v.11l0,0,0,.07,0,0v0h0v-.06l0,0v0l-.06-.05h0v-.1h0l0-.06h0l0,0h0v0Zm-.14-.2,0,.08-.11.11,0-.06v-.06l.08,0Zm-.33-.58,0,0v0h0l0,0v0l0,0-.07,0v0l0,0h0v-.07Zm.17,0,0,0v.07l-.07-.06,0,0,0,0Zm0-.1v.09l0-.08Zm0-.1v0l0,0,.05.06v0h0v0l0,0h0v0l0,0v0l0,0v-.06Zm-.3,0v0l0,0Zm-.11-.09h0l0,.07.08.06v0l-.07,0,0,0V52.2Zm-.08-.11v0h0ZM48,52l0,.1h0V52Zm-.84-.67,0,.05h0l0,0v0l0,0h-.06v-.09h0v0Zm-.28-1.64,0,0v0l0,0v.06h0v.11l-.06.07,0,0-.06.07-.08,0,0,0,0-.09,0,0v-.11l0,0,.06-.1,0,0v0Zm.13-.61,0,.07,0,0,0,0v0l-.09,0,0,0v0h0v-.06Zm0,0h0v0ZM46.6,49h.06V49H46.6Zm.33,0h0l0,0Zm.48-.24h.06l0,0,0,0Zm0-.19h0l0,0,.05.12v0l0-.07h0l0,0,0-.05Zm0-.07v.06l0,0v0Zm0-.06,0,.12,0,0v0l0,0h0l0,0Zm0,0,0,.07,0,.06,0,0Zm-.37,0v.08h0l0,.09.06,0,0,0,0,0v0l0,0,0,0v.11l0-.08h0v0l0,.2h0v0l0,0v0l0,0v0l0,0v0l0,0v0l0,0,0,.18v0H47v0h0v-.06h0v0h0l0,0,0-.09,0,0,0-.14h0v0l.05-.1,0,.06h0v0h0v-.23Zm0,0h0v0h0Zm.16,0,0,0h0v0Zm.18,0v0l0,0v.06l0,0Zm-.14,0,0,0,0-.06h0v0Zm-.16,0,.06,0,0,0,0,0,0,0,0,.06h0v0h0l0,0v0l0,0,0,0,0-.15h0v0h0v0Zm1.07,0,0,0v0h-.05v0Zm-.89-.09,0,.05h0v-.06Zm-.25-.42v.11l0-.08Zm.19-.09h0v0h0l0,.08,0,0,0,.06,0,.07v.14l0,0h0l0,0v0l-.09,0,.07.11-.07,0-.06,0v0h0l0,0V48h0l0-.06,0,0,0,0,0-.11,0,0,.07-.09,0,0h0Zm-.2-.07h0v.09l0,0h0v0l0,0,0-.08,0-.1Zm.31,0,0,0v0h0v0l0,0Zm0-.58,0,.05v.12l0,0v0l0,0,0,0,0,0h0l0,0,0,0h0l.06,0v0h0v0l0,0,0,.1v.1l0,.05h0v0l0,0h0l0,0,0,.05,0,0v0h0l0,.05v0h0l0,0v-.07h0v0h0v-.07h0v0h0l0,0,0-.08,0,0,0,0,0,0h0l0-.07h0l0,0h0l0,0,0-.05.06,0v0h0l0,0V47l0,0Zm0-.1v0l-.05,0ZM48,45.64l0,.07v0Z"/><path class="cls-3" d="M36.61,43.79l0,.12,0,0v0Zm0,0v0l0,0H36.5v0l0,0,.08,0v0h0l0,.07-.37.17-.22.09-.18-.05-.15,0-.13.06-.13.27v0l-.14.15,0,0,0,0,0,0-.15,0,0-.07v0h0v0l-.12,0-.15,0-.11,0-.09.06-.07.08-.07.21-.1.16,0,.23.06.35.09.15-.07.47.12.3v.18l.08.21-.15-.26h0v.09l0,0,0,0h0l-.06.09.11.1h.08l.07.06v.06l0,0,0-.09h-.08L34.33,47h-.08v0h0v0h0v0h0v0h0l0,0,0,0-.07,0h0l0,0,0,0,0,0,.06,0,0,0,0,0h0v0h0v-.06l-.09,0,0,0v0l-.11,0,0,0,0,0,0,.06h0v0l-.08,0v0l0,0,0,0h-.05v0l0,0,0,.08h-.08l-.09-.06h-.07l0,0,0,0h0v-.07l-.13,0h0v0h0l0,0,0,.06h0l0,.15,0,0v0h0v0h0v0h0v0h-.09l-.08,0,0,0h-.08l0,0v0l0-.1h.06l.05-.08,0,0h.06v-.07h0v-.06l.06,0v0l0,0,0,0,.06,0,0,0,0,0v-.06l0,0,0,0,0,0h0v0h-.06l0,0,0,0,0-.22h-.16l0,0v-.06h0v0h-.08l0,0v0h0v0l0,0,0,0v-.07l-.07,0v0h-.06l0,0h0v-.06h0l0-.06-.05.06,0,0h-.07v0l0,0-.05,0v0l-.06,0v0h0v0h0l0,0,0,0h0l0,0,0,0,0,0v.06l0,0v0h0v-.12h-.05l0,0h-.07l0,0v0h-.06l0-.05,0,0v0l0,0v-.06l0,0v.05h0l0,0v.07h-.08l0,0,0,0v0h0l0-.07.05-.08h0v0l-.1-.1,0,0-.05-.07h0v0h0v0l.08,0v.12h.1l0,.05.16,0,.05,0v.09h0v0l0,0,0,0,0,0h-.05v0h-.05l.07-.08v0l0,0v0h0v0l.11,0v-.12h0l0,0-.05,0v0l0,.09,0,0,0,0v0h-.08v-.05l-.05,0-.08,0,0,0v.08h0l0,0h-.12v0l0,0-.07,0v0l0,0,0,0v0l0,0h-.1L31.05,46h0l0-.08,0-.13v-.05l.06,0,0-.16h0l-.06,0,0,0v-.05l0,0,.08.06.11,0,0,0h0v0h0l.07-.12,0,0h0v0l0,0,0,0v0h0v0h-.05l0-.11L31.2,45h.05V44.9l0,0,0,0v0l-.08-.07,0-.1h0l0-.07.08,0,.11,0,.26,0h.1l.05,0H32l.09,0,.08,0,.12,0,0-.05,0,.06.05,0,0,0h0l0,0,.06,0,0-.11h.06l.09-.06.15,0,.06,0,.1.08H33l.06-.06v-.07h0v0h0v-.08l0,0,.11,0,.15,0,0,0V44l0-.06.16,0,.07,0,.15,0,.13-.07,0,0h0l0,.06h.06l.09-.11,0-.07,0,0h0l0,0,0-.06.08,0,0-.06,0,0h.06l0,.06,0,.09h0l0,.05,0,0,.06,0v0l.11,0,0,0,0,0v0h0v-.05l-.09,0v0l-.13-.06,0,0,0,0,0,0,0,.06h0l0,0v-.06l.06,0,.1,0v0H35l.11,0,0,0v-.1h0V43.3l.09,0,.06,0,.11,0,0-.1h.09l.06-.08,0,0h0l.08-.09V43l0,0,0,0,.07-.1v0l.21-.11v0l0,0,0-.05.15,0,.07-.07h.14l0,0,.06,0h0v-.06l0,0v0h0v-.11l0,0v0l-.06,0,0,0V42.2h0l0,0h-.06l.05,0,0,0,.12-.14,0,0h0V42h0l0,0,.07,0v0l0,0v0l0,0,0-.06.1,0,0-.07,0,0,0,0,0,0h0v.05l0,0,.09,0h0V42h0l0,0,.07-.1h-.06v0l0,0h0v0l0,0,.08-.12.07,0v0h.05v0h.08v0h0l0,0-.07-.07h0l0,0,0,0,0-.07,0,0,.06,0,0,0v0h0v0l0-.05h0l0,0h0v0h0v-.07l0,0,0,0v0l0,0,.07.14h0l0,0,0,.07h0l0-.07,0,0,.09.19.07,0h.09l.05.06h0l0,0,.19,0v-.08l0,0v0h0l0,0h0l0,0v0l0,0,0,0,.06,0v0l.08,0,0,0,0,0h0v0h0l0,0H39v0h0v0l0,0,0,0-.18.2,0,.09-.09.08-.11.16-.23.22v0l-.41.2-.15.1,0,.07-.12.11v0l-.06.09-.13.14-.62.3-.24.18-.07.09,0,.09,0,0v0l.05.05h0v.11Z"/><path class="cls-4" d="M50.58,30.28l0,0v0l.06.08h0l.07-.06,0,0,0,.09-.08,0-.08.07-.07,0,0,0,0,.07,0,.06,0,0,.09,0,.09-.1h.09l.1,0-.05.09v0h0l0,.09.08.12L51,31l-.12,0,0,.06-.06.06h0v0h-.06l0,0,0,.05-.11.08.06,0h0l0,.06h0l0-.08h0l.07,0h.09l.08.05,0,0h.08l0,0,0,.05.07,0,.1-.06.08.08.11,0,.12.09h0l0,0v.05l0,0h.06v0h0l0,.05v.09h-.07v0l-.06,0-.15.13v.05h-.07l-.05.08h0l-.05.05,0,.1,0,.07.26.36,0,0,0,0h0l-.09-.06-.11,0v0l0,0v0h0l-.06-.09-.1,0H51L51,32.6l-.05,0-.24,0-.2.1-.1.16-.06,0h-.07l-.08.15-.06,0-.06.1H50l-.1.14-.13,0-.07,0,0-.05,0-.06h0v-.06l0,0,0,0,0-.16h0l.11-.08.11,0v-.09l.06-.06.07,0,.22-.07h.05l0,0v0l.11-.08,0-.08v0l0,0h0l0,0v0l0,0,0,0,0-.08v-.06h0v0l0,0v0l0,0h0l0-.05h0v0l0-.06.1-.08,0-.1h-.15l-.22,0-.09.08L49.8,32l-.07,0-.28.11-.18,0,0,0h0l0,0H49.1v0l-.22.1,0-.05-.07,0-.07,0h0l0-.05,0,0,0,.06v0l-.11,0-.09.12-.11.08-.16.17,0,0v.05l-.07,0-.09.1-.19,0-.15,0-.33.06-.1-.06v0l-.05,0-.21,0,0,0v0L47,33h-.12l-.06,0h0l-.08,0h-.17v-.12l-.07-.07v-.1l0-.07,0,0h.07v0l-.06,0v-.08l0-.08-.08,0-.08,0-.14,0,0,0,0,0-.08-.1v-.06l.06-.08,0-.07v0l0,0h0l0,0H46l.05.05h.12l0,.08.06,0,.07-.07.07,0L46.6,32h0l.05.09.07,0,0,0,.05,0,0,0L47,32,47,32l.07,0,.07-.1-.08-.08,0-.07.11-.08,0,0,.07,0,.07-.06,0,0,0,0v-.05l.19,0,0-.08-.05,0,.09-.07,0-.07v0h0v0l.11,0,0,0,0,0,0,0H48l.11,0,0,0,.07,0,.08,0,.08-.11,0,0v-.05l.16-.12.06-.15.07-.07h.07l0,0,.06,0H49l.07-.14.08.05.07.07,0,.09.07,0,.16.06,0,0,.1,0,0,0h.13v.06l.15,0h0l0,0,0-.08h0v-.09h0v-.05h0l.14-.11,0,0,.08-.06h.08l.13-.1Z"/><path class="cls-5" d="M44.23,34.51v.07h0ZM46.49,33h.17l.08,0h0l.06,0H47l.07,0v0l0,0,.21,0,.05,0v0l.1.06.33-.06.15,0,.19,0,.09-.1.07,0v-.05l0,0,.16-.17.11-.08.09-.12.11,0v0l0-.06,0,0,0,.05h0l.07,0,.07,0,0,.05.22-.1v0h.07l0,0h0l0,0,.18,0,.28-.11.07,0,.14-.05.09-.08.22,0h.15l0,.1-.1.08,0,.06v0h0l0,.05h0l0,0v0l0,0v0h0v.06l0,.08,0,0,0,0v0l0,0h0l0,0v0l0,.08-.11.08v0l0,0h-.05l-.22.07-.07,0-.06.06v.09l-.11,0-.11.08h0l-.08.08-.09,0h0l-.06,0,0,0-.09.14-.11.08H49l0,0,0,0,0,0-.07,0v0l0,0v.09l-.05,0,0,0,0,0V33.4h0l-.09.11v.12l-.07,0-.1.17,0,.11,0,.07,0,.1-.06,0,0,0,0,0,0,0,0,0,0-.07,0-.06,0,0-.06,0,0,.06-.14.1-.07.11-.07,0-.1.09.06.09.07,0,0,.06,0,0,0,0-.08.07-.06.16,0,0h0l0,0,0,.08h0v0l0,.05,0,0v.05l0,0,0,0h0v.07l0,0,0,0,0,.09h0l0,0,0,.07v.09h-.1l0,0v0h0l0,0-.06-.16-.08.18-.07,0v.09h-.06l0,.07-.05,0v0h0v-.11H46.6l.06-.14,0-.08v0l0-.17,0-.08,0-.18,0,0,.1.08h0l0,0h0v-.09l0,0h0v0h0v-.06h0l0-.07h.06l0,0,.1,0,.05-.07.14,0,0,0,0,0v-.06h0l0-.05h0l0-.05h0v0l0,0v-.06h0l.07-.08v-.06l0,0h0v-.06h-.06l0-.06h0v0l0,0-.05,0h-.11l-.06.05v-.16l0-.06,0,0h-.06v0l.14-.15,0,0-.07,0,0,0h-.15L46.3,34l0-.06v-.05l-.06,0-.09.06v.12l-.05,0-.06,0,0,0V34L46,34l-.07.13h0l-.06.06h0l0,0v0l-.08,0h0l-.09,0-.06.09,0,0h0l0-.05,0-.09-.13,0h0l0,0h0l-.05,0,0-.07h-.06l0-.06h0v0l0,0,0,0,0,0,0,0h0v0h-.06l-.07.06h0l0,0,0,0-.07.07,0-.06L44.84,34l0,0,0,0h0l0,0-.14,0-.07,0-.11.09v0l-.06,0v.06l0,0h0l.13.14-.15.07,0-.1,0-.09v-.06l0-.05.08-.14h0v0h0l0,0v0h0l0-.06h0l0,0v0l0,0v0l0,0h0l0,0,0,0h0l0,0,0,0,0,0,0,0,0,0h0v0h0v0l.08,0v0h0l0-.07,0,0v-.1h0l0,0,0,0,0-.06v0l.1,0,.19,0h0v0l0,0h.09l0-.05h.06l.15.11.15,0h.35l0-.05.17,0,.07,0,.07-.06.09,0,.13,0,.07,0,.11,0,.06-.07h0l.09.06h.1Z"/><path class="cls-6" d="M38.42,32.36h0v0l.06,0v0h.05l0,.07.33,0,.07.14,0,.13,0,0,.12.05h0l0,0,0,0,.06.06h.07l0,0v0l.09,0,0,0h.17l0,.06,0,.06.13,0,.07-.06h.05l.18-.09.1.08v.15l.09.06h0v0l.1,0v0l.07,0,.11,0v0h.06l0,0,0,0h.07l.22.09,0,0,.16.08,0,0,.07,0,.06,0v0h0v0h.08l0-.06h0l0,.15.07,0h.09v0h0l0,0,0-.07.1,0,.14.06h0l0-.05,0,0h0l0-.06.06,0,0,0,0,.07.07,0v0h0v0l.06-.05v-.11l0,0,0,0h.07v0l-.06,0,0,0h0v0l0,0,0,0v0h0l0,0-.08.08-.07,0-.08.09h0l0,0,0,0v.08h0l0,0-.07,0v.12l0,0,0,0,.09,0,0,0h0v.05h0l0,0,.09,0v0h0l0,0,0,.05,0,0v0h0l0,0v0h0v0l-.06,0,0,0h0l0,.05h0l0,0h0l0,.05v0h0v0l.08.06,0,.05,0,0,0,0v0h-.07l0-.06h-.08l0,0,0,0v0h-.06v0l0,0v0l-.08,0,0,0,0,0,0,.15-.05,0,0,0-.06.07v.18h0l0,0,0,0,0,.21-.12,0,0,.06v.05l0,0,0,0v0h0v0l0,0h0l0,0-.06,0-.07,0-.06.08h0l0,.1h0v.06l0,0-.06-.07-.08,0,0,0v-.05l0,0h-.06l-.05,0,0,0-.06,0v-.11l0,0h0v0l-.1,0-.07-.07h-.1l-.05,0,0,.11,0,0v.12l-.09,0v0h0l0,0,0,0-.2,0v0l-.14,0,0,0-.08.05h0v-.06l0,0H39.3l0,0h-.07l0-.1h0v-.06l0,0-.11.08,0,.07-.08,0v0h0v0l0,0,0,0h0v0l0,0h0l0,0h0l0,0v0l0,0,0-.07h0v0l0,0,0,0,0,0,0,0h0v0l0,0v0l0,0-.06-.14-.06,0-.06.1-.06,0-.16,0-.22,0,.05-.1-.05,0,0,0,0,0v0h0l-.07,0v-.06l0,0v-.15h0l0-.12,0-.06v0h0l0-.05h0l.08-.07h0l.06,0,0,0h0l0,0,0,0,0,0v0h0l0,0h0l.07-.09.16-.09v-.06l0,0h.05l0,0v0h.09v0h0V34.3h0l0,.06,0,0,0,0h0v0h0v0h.08l0,0,0,0-.07,0h0v-.05h-.1l0,0-.06,0,0,0L38.5,34h0v0l-.08-.08h0l0,0v-.1l.07,0,0-.05.05,0,0-.08v-.06h-.1l-.06-.07H38.2v-.08h.06v0h.08l0-.07v0l.19,0,.15,0v0l-.08,0,0-.07-.05,0h0v0l0-.06v-.05h0l0,0,0,0v0l0,0v0l0,0v0h0l0,0v-.09l-.05,0,0,0h-.08l0-.12,0,0,0,0,0,0v0h-.09l0,0,.05,0h0v0l.06,0,.1,0,.07-.07v0Z"/><path class="cls-7" d="M31.05,28.8l0,0-.07,0,0-.07.06,0v0h0v0h0Z"/><path class="cls-8" d="M37.62,36.07l.1,0,0,0h.06l0,.14h0v0l.13,0,0,.07,0,.08.06.09.16,0v-.06l.07,0v.1l0,.09v.08l0,0,0,0,0,0,0,.2.1.06,0,.13,0-.07,0,.05h0v0h.09l0,0,0,.08h0l0,.1h0l0,0v.07l-.07,0h-.07l-.07.07v0h0v0l.06,0,0,.1-.14,0-.11.1H38l-.05,0-.09.13,0,0h-.07v.1l0,0,0,0,0,0v0l-.05,0v0l0,0,0,0,0,0-.07.07.07.05,0,0v0l-.07,0,0,.12v0l0,0V39h0l-.11,0V39l0,0-.06,0,0,.13-.07,0-.08,0-.08-.06-.08,0H37.1l0,0,0,0h-.12v0l0,0v0l-.07.1-.07,0,0,.09h0v0l-.06,0v.13l0,.15,0,.07,0,0v.06l0,0,0,.05,0,.1,0,0,0,0v.07l0,.06v.08l.21.08H37v.16h-.06l-.06.06v-.06l0,0-.15,0-.06,0-.05,0-.11-.17,0,0-.12-.08,0,0-.08-.1-.08.07,0,.09v0l.11.06,0,.06h.08l0,.08v.18l0,0h.07l0,.09h.06v.06h0l0,0,0,.06,0,.11,0,0h0v.06l0,0v.11h-.07v.11l0,0h0v0h0l-.06,0,0,.06-.07,0v0l.06,0v0h0v0l0,0-.1.1,0,.07h-.09v0h-.06l-.07,0,0,.08,0,0,0,.06,0,.07v.06l0,.1h0v.08h-.13l-.1,0-.09.07h0l-.09-.3,0-.09-.11,0v-.07h0l0,0,0,.07H35v0l.06,0-.05,0,0-.09v0h0v0l0,0,0-.05-.15-.11-.15,0-.07-.13,0-.05h0l.07-.06-.08-.11v-.06l0-.09V41.3l.06,0v0l.05,0,0-.07.09-.07.05.1.06,0v0H35l.09-.08L35.05,41l.11,0v-.05h0v0H35l0,0h-.07v-.08l-.13-.09v0h-.08v0l0,0h-.06v0h0l.07-.06v0h-.08v0l0,0,0,0h0l0-.06v-.13l0,0h-.1v0l0,0,0-.06.12,0,0,0,.07,0,0-.07,0-.21h-.06l0,0,0,0,0,0,.07,0,0-.08v-.18h-.09l0-.08,0,0v-.06l0-.08.18-.08,0-.05,0,0,.08-.14,0-.13v-.13l0,0,.07,0,0-.07v-.16h0l.07-.17h0v.06h0v0l0,0,0,0v-.1l.06,0,0,0v-.16l.07-.05,0,0,.06,0,0,0,0,0,0,0,0,.07,0,0h0v0h0l0,0h.1v0h0v-.07l0,0,0,0,0,0h0l0-.07,0,0,0-.07v0l.08,0v0l.08-.05,0-.08,0,0h.08l.05,0,0,0,0,0V37l0-.06V36.9l0,0h0v0l-.05,0h0v0h0l-.06-.13-.1,0,0,0-.07,0,0,0h0l0,0,0,0v-.05h0v0h0v-.07h0l0-.06v0h0v-.07l0,0,0-.06,0,0,.06.07v0l.06,0h.07l.07,0,0,0h.05l0,0h.11l.05,0v0l0,0,0,0,.07,0h.13l.06,0h0l0,0h.06l.07,0v0l.1,0,.06,0,.13.09h.15l.1,0,0-.08.06,0V36.1Z"/><path class="cls-9" d="M24.84,39.61v-.09l.06-.15,0,0H25l0,0v.06l-.08,0,.08,0v0h0v0h0l0,.06h0l-.05,0Z"/><path class="cls-10" d="M31.42,30.85l0,0,0,0h0l.07.09h0v.08l0,0-.05.05.05.06-.1,0v.06l-.07,0,0,0v-.06l0,0h0l-.05,0v0l0,0-.09,0-.05-.05v0h0l0-.05h.06l0,0,0-.06v-.12l.09,0,0-.06.06,0v0Z"/><path class="cls-11" d="M27.4,40.28l0,.07,0,0-.08,0v0l0-.05v0l0,0,0,0v-.08l-.05-.07,0,0,0,0v0h0v0l0,0v0h0v0h.05l0,0h0l-.05.06h0v.07h.07v0h.07l0,0,0,0Z"/><path class="cls-12" d="M27.87,44.81l.16,0,0-.06,0,.05h.06l0,.1,0,0h0l.1,0h.05l0,0,0,0,0,0,0,0,0,0,0,0,0,0,0,0,0,.05v.06l.05,0v.07l-.08,0,.05,0v0l0,0v0l0,.06,0,0v0l-.06,0,0,0v0h0l0,0-.06,0v0l-.09-.11h-.05l0-.07-.05-.19,0,0h0L28,45.12l.09,0,0,0-.05,0H28l0,0h0l0-.12Z"/><path class="cls-13" d="M23.78,37.82l0,0,0,0-.05,0Zm-.5,0v0l-.06,0v0Zm.88-.12,0,0-.07,0v0Zm-1.46-.77.05,0v0h-.05v0l0,0h0Zm0-.06,0,0v0l0,0v0Zm-.12-.11,0,0v.06l0,0v0l0,0h0Zm0-.13v0l-.05.06v-.06Zm0,0v0h0v0Zm-.1-.19,0,0h0l0,.15-.08.08h0l0,0h0v0h0v0h0v0l0,0h.07l.06-.08Zm0,0v.07l0,0v-.09Zm.18,0,0,.08-.08,0,0,0v0Zm-.12,0h0l0,.05h-.06v0Zm.06-.08v.07h-.06l0,0v-.06Zm.09,0,0,0h0l-.06,0h0v0l.05,0Zm-.05-.06,0,.07-.08.08,0-.09h0l0,0Zm-.05,0,0,.06-.07,0v.08l0,0,0,0,0,0v.11h0l-.05-.05,0,0,0-.06h0l0-.09h.06l0-.07,0,0Zm2.7-.74.2.08.05-.05,0,0,.11,0h.13l0,0,.14,0,0,0,0,0,0-.07h.05l0,0,.11-.09h0v0l.08,0h.05l0,0,.08,0h0l0,0h-.05l0,0,0,0h.07l0,0h.05v0l0,.05h0v0l.05-.06,0,0,.11,0v0l0,.06h.13l.06,0,.07,0,0,0,0-.09v0l0,0,0,0,0,.07,0,0,.09,0,0,0h0l0,0h0v0h0l-.06.13,0,.05.11,0,0,.05,0,0,.05,0,0,0v0l0,0v.05l0,0v.06l0,.06-.07.08v.08l0,0h0l.06.07h0v.09l.06,0,.08,0,0,.08,0,.05,0,.06h0l0,0,0,.05,0-.05,0,0,.05,0,.06.12h.05v0h0l0,0h0v0h.06l0,0v.1l.05,0,0-.05h0l0,.07v0l0,0,.05.09,0,0,0,0,0,0,0,0,0,.07-.08.14,0,.09h-.12l-.11.13-.09,0,0,0v0l0,0v0h0l0,0,0,0,0,0h0v0h.05l0,0h0l0,0h0l0,0h-.06l0,0h0V38l0,0,0,0h.05v.13h0l0,0-.08.07.05,0v0L28,38.5l0,0v0l.06.07v0l-.1,0,0,0,0,.11.21-.07h.11l0,0,0,0,0,0,0,0,0,0v.05l-.08,0,0,0v0h-.09l0,0,0,0v.06l-.08,0h0v.11l-.05,0H28v.1h-.08v0l-.06,0,0,0,0,0h0l.07.06H28v.06l0,.05h0v0h.09v0l.05.11v.1l0,0h0l0,0h0l0,0v0l-.09.05h-.05l0,0,0,0,0-.06-.07,0,0,0,0-.06h0v.05l0,0,0,0h0v0h0l-.07.13,0,0,0,0v.15l-.06,0v0l0,0h0l0,.06-.08,0,0,0,0,0,0,0h-.07v0h-.07v-.07h0l.05-.06h0l0,0H27.3v0h0v0l0,0v0h0v0l0,0,0,0,.05.07-.1,0,0,0v0h0v0l-.07,0,0-.16L27,40l.06-.14v-.09l-.1-.32v0h0l-.05-.12,0,0h-.06v-.07h0v.07h0v-.15l0-.07,0-.1.07-.09-.05,0,0-.1h0l-.06.05,0-.06,0-.07.07,0H27l.05,0H27l0,0-.2,0,0,0,0,0,0-.1-.05,0,0-.1.05-.21,0,0,.07,0,.11.05,0-.08.07,0h0v0l0,0h0l0,0-.09.05h-.07L26.82,38l-.1,0v0l0,.08v0h0l0-.07-.05,0,0,0,0,0,0,0,0,0,0,0h0v.08l0,0,0-.08v.07l0,0v0l0,0,0,.06h0l0,.21,0-.12,0,0h0v-.05l-.07.06v.11l0,0v.17l0,.12-.09.2-.1.11v.05l0,0,0,0v0l0,.06-.1,0v0l0,.06-.16.06h0v0l-.09,0-.15.07h0v0l-.08.06h-.06v0l-.17.06-.06,0v0h-.06l0,0h-.11l-.08,0,0-.05h0v0h0v0l-.08,0,.08,0v-.06l0,0h-.08l0,0-.06.15v.09h-.06l-.18-.08-.34-.27-.39-.44.05-.06,0-.07v0h-.05l0,0h0l0,0,0,0-.48-.42-.28-.31,0-.08.05-.11.08-.07h0l0,0,0,0,.13,0v0l-.05.1.08.06.09,0v0l.09,0,.07,0,0-.05,0,0,.05,0v0h.1v0h0v0h0l.06,0,0,0h0l0,0,0-.06h0l.07-.07h0v0l.08,0,0,0h.1l.08-.12v-.08l.05,0,.05-.12.07-.07.07-.15h0l0,0v.08l0,0-.11,0,0,0-.06,0,0,0v0l-.34.08,0,0-.05.08-.06,0h-.05l0,0-.09,0-.12-.06h-.16L23,37.18l-.06,0L22.73,37v0l.08,0h0v-.08l0,0H22.7v0h0l0,0v-.2h0v0l.11-.07,0,0,.07,0,0,0-.11,0-.08.09v-.07h0l0,0,.09,0h0l0,0v0h0l0,0v0h.2l0-.35,0,0L23,36h0l.06-.09.06.06.09,0,.11,0,.11,0,.19,0,.1,0,.13.11h.28l.06,0,.06-.1.46-.14,0,0,0,.06,0,0v.06l.08,0H25l.09,0v0l.08-.06,0,0,.05,0,.09-.06v0h-.12v-.09l0,0,0-.1Z"/><path class="cls-14" d="M30.09,26.62l.05-.07,0-.06,0-.08,0-.06L30,26.28v-.07h.06l.08.05.14-.09v-.05l.15,0,0-.08.11-.1h.08l.08,0h0l0,.05.1,0,0-.08h0l0,0h0L31,26l0,.05h0l0,.09.09.05h0l0,0h.07v.08l0,0,.06,0v0l0,0,.05,0,0,0h0l0-.07.07,0,0,0h0l.07-.06.07,0v0H32l.08.08,0,.05.08,0,0,.06h0v.09l.08.12h.05v-.06l0,0,0-.05,0,0,0-.05.06,0,.09-.05v0l.08,0v.1l0,.06-.09.05v.06l0,0,0,0,.07-.06,0,0,0,0v0l.08,0,0,.07V27l0,.05h.1l.06,0,0,.07,0,0,0,0,.09.11h0l-.08.24,0,0v0l0,.06H33l0,.09-.13.11v0h0l0,0L33,28l0,0v.06l.07.08v0l.06.06,0,.07h-.13l0-.05,0-.06h-.15v0l0,0-.06,0h-.07l0-.05,0,0,0,0,0-.05h-.06v0h0l0,0h-.08l-.06,0h-.06l0,0-.06,0-.07,0,0,.09,0,0,0,.06,0,.05h0l0,0,0,0v0H32v.07l-.05,0v.06l-.06.07.06.06v0l0,0v.05l-.06,0,0,0h0V29l-.13.07-.1,0v.05h0l0-.06,0,0h-.07l0,0v0l-.05.05-.05,0h0l-.06,0h-.05V29l-.06,0,0,0,.05,0v-.1l-.07-.07h0l0,0,0,0v-.05l0,0h0l-.05-.1-.05,0,0,0v0l0,0-.06-.07-.11,0v-.06l0-.06,0,0v-.07l.05,0v0H30.8l0,0,0,0,0,0v0l0,0v0h0l0,0,0,0,0,0L30.6,28l0,0v0h0l0,.06h0v0h-.13v0l0,0,0-.06-.15-.27-.08-.2h.05l-.08-.16L30,27.3l-.1-.08,0,0-.05,0,0,0,.09-.1-.05,0V27L30,27l.11-.13.09,0-.08-.11Z"/><path class="cls-15" d="M31,28.55l0,0v0l0,0,.05,0,.05.1h0l0,0v.05l0,0,0,0h0l.07.07v.1l-.05,0,0,0,.06,0V29h.05l.06,0h0l.05,0,.05-.05v0l0,0h.07l0,0,0,.06h0l0,0,0,.07,0,0-.05.11-.05,0,0,.05,0,0-.15.06v.06l-.08.11,0,.12,0,0,0,.07-.06.12,0,0,0,0,.06.1,0,0,0,0h0v0l0,0,0,.07v0l0,0,0,.05,0,.09.09.11,0,.05,0,.06,0,0v0l-.05,0v0l-.06,0,0,.06-.09,0V31l0,.06,0,0H31.1l0,.05h0v0l.05.05.09,0,0,0v0l.05,0h0l0,0v.06l0,0,.07,0v-.06l.1,0,.14.11,0,.06,0,0,0,0v0h0l.07,0,0,0v0l0,0v0h.05l-.05,0v.07h0v.07l.06.06,0,0h0l0,0H31.7V32h-.05v0h-.07l-.06.05h0l0,0,0,0,0,0v0h0v0l0,0-.09,0,0,0h.05v0h-.09l0,.09,0,0,0,0,0-.05h0l0,0,0-.11h0l0-.09h0v-.08l0-.16-.11-.09,0,0v.06l-.14.06v.09h-.06l-.06,0v-.07l-.08,0h0l0,0v0h0l0-.05-.09,0,0-.05H30.5l.08.06-.06,0,.06,0,0,0h0l0,0h-.1l0,0-.06,0,0,0v.06l0,0v0l0,0-.05,0L30.31,32l0,0-.09,0v0h0v0l0,0,0,0,0-.05,0,0h0l0,0h0v0l0,0,0,0,0,0v0h-.05l.1-.09h0v0h0l0-.06v0l0,0v0l-.07,0,0-.06,0,0H30v-.06l-.15-.1v-.06h-.06l0-.16,0,0,0-.05-.05-.1.05-.06v0h-.07v-.06h-.05l0-.07h0l0-.06v-.08h0v0h0v-.06l-.1.06,0,0-.07.05h0l0-.06-.05,0h0l0-.09-.08-.05-.09.06-.11,0v0H28.8v0l0-.06h0v0l0,0h0l0-.08-.05,0,0-.21,0,0-.06,0h-.06v-.05l.09-.09,0,0h0v0l.13.05v0l.05-.06h0l.08,0,0,0,0,0v0h0l.08.1.07,0,0,0,0,0,0,0,0,0,0,0,.06,0v0l0,0,.05.1,0,0v0l0,0v0l.05,0v.07l.08,0v0l0,0,0-.07h0v0l0,0,.07-.11.06.05h.05v0h0v0l.07,0V29.8l.07,0,0,0h0l.06.07.08,0,.06,0v0l.05-.07h0l.12-.08-.06,0v-.05l0,0v-.08h0l.06-.08-.07,0h0v0l0,0,.07,0,0,0,0,0,.06,0v0l0,0,0,0,0,.12h0v0l.06,0,0,0h0l0,0v-.11h0v0l0,0,0,0v0h.06l.07-.06h0l0,0h0l0,0,.06-.05.05,0,0,0,.05.05v0l0,0,0-.06v0l0,0,0,0,0-.07-.06,0v0l0,0v-.12l0,0,0-.05L31,28.58Z"/><path class="cls-16" d="M37.79,35.61l.22,0,.16,0,.06,0,.06-.09.06,0,.06.14,0,0v0l0,0v0h0l0,0,0,0,0,0,0,0v0h0l0,.07,0,0v0l0,0h0l0,0h0l0,0v0h0l0,0,0,0v0h0v0l.09,0,0-.07.11-.08,0,0v.06h0l0,.1h.07l0,0h.06l0,0v.06h0l.08-.05,0,0,.14,0v0l.2,0,0,0,0,0h0v0l.09,0v-.12l0,0,0-.11.05,0h.1l.07.07.1,0v0h0l0,0v.11l.06,0,0,0,.05,0h.06l0,0v.05l0,0,.08,0,.06.07,0,0v-.06h0l0-.1h0l.06-.08.07,0,.06,0,0,0h0l0,0v0h0v0l0,0,0,0v-.05l0-.06.12,0,0-.21,0,0,0,0h0v-.18l.06-.07,0,0,.05,0,0-.15,0,0,0,0,.08,0v0l0,0v0h.06v0l0,0,0,0H42l0,.06h.07V35l.1.06.09.11v0l-.08,0v0h0v0l0,0h0v0l0,0,0,0,.06,0v.05h0l0,0h0l0,0,0,0h0l-.08,0,0,0,0,0,0,0v0l0,.09h0l0,.11-.05,0,0,.05H42v0L42,36v0h-.12l0,0,0,0v0l-.08,0v.07h0l0,0h0l0,0-.1,0,0,0h0l0,0h-.1l0,.08h0v.06l0,0,0,0v.09h0l-.07,0,0,0,0,0h0l-.16-.07,0,0,0,0,0,0v0l-.05,0,0,0,0,.08,0,.08h0v0h0l-.1,0-.06,0h-.09v0l-.06,0,0,0v0h0l-.08.05h0l0,0,0,0,0,0v0h0l-.07,0v-.1h-.1l0,0,0,.06-.11,0h-.07v.06l0,0h0v0l-.05.07V37h0l.06.07h.12v0l.09,0v.05l.07,0,.08,0,.1.05,0,0h.08l0,0,0,0,0,.05h0v0l0,0,0,0,0,0,0,.09.09.08,0,0,.08.05,0,.1h.11l0,.08v0h0l0,0,.08,0V38l.06,0v0h-.07v0h-.08l-.07,0v0h0v0h0l0,0-.07,0v0l-.08-.05-.08-.1-.17,0-.07-.09,0,0-.05,0,0,0,.06,0v0l0,0h0v0h0l-.07.06.06.06,0,.08-.06.1h0v0l-.15,0,0-.09h0l0,0-.12.07,0,0-.05,0h0l-.15-.08h0v0h0l0,0-.07.11,0-.05,0,0v0h0l0,0h-.06l0,0h0l0,0,.05-.17,0,0v0h0v0h0l0-.14-.11,0h0l-.06,0v0l0,0,0,0h-.06v0h-.22l0,0v0h0l0,0h-.14l0,0h0l0,0v-.07l-.14-.05v0l.07-.07h.07l.07,0v-.07l0,0h0l0-.1h0l0-.08,0,0h-.09v0h0l0-.05,0,.07,0-.13-.1-.06,0-.2,0,0,0,0,0,0v-.08l0-.09v-.1l-.07,0v.06l-.16,0L38,36.52l0-.08,0-.07-.13,0v0h0l0-.14h-.06l0,0-.1,0,.08-.17,0-.06.08-.05,0,0h0v-.1Z"/><path class="cls-17" d="M29.07,21.33l.06.07h.19l.08-.06.07,0,.08,0,.08.12.1.13.12.14.06.11.16.1.16.08.13.12.16.05.13.13.07.06.13,0,.11.11v.09l0,.07,0,.09.06.08.13,0h.15l.18.05.11.09,0,.13.05.08.17,0,.19-.09.17,0h.13l.1-.15.11-.09.13,0,.11,0,.09-.07.17,0,.14.05.08,0,.06,0v-.12l.06-.06.08,0,.12.1.06.07.08,0,.15,0,.12,0,.09,0,.07,0,.06.1.06.09.08,0,.1.07,0,.08,0,.08v.14l0,.08v.06l-.05.06v.19l0,.1,0,.09,0,.06,0,.11-.07,0-.08,0-.1,0v.1l0,.06h-.19l0,0v0l0,.08,0,.09,0,.18-.1.11-.06,0-.1,0-.11,0-.06,0-.1,0h-.06l0,.06,0,.08,0,.08,0,.06.06.11v.06l-.06.05-.07,0v.14l0,0,.15.13v.08l.12.05h.22v0l-.06.13v.06l.1.11,0,.1.07.05,0,.1,0,.08-.1,0-.14.12-.05,0h-.06l-.07.05,0,.11H33.3l-.07,0-.07,0L33,26.74l0-.11,0,0,0-.12-.09.06,0,.05h-.08l-.06.05h0l-.05,0v.05l0,0-.07.06,0,0,0,0v-.06l.09-.05,0-.06v-.1l-.08,0v0l-.09.05-.06,0,0,.05,0,0,0,.05,0,0v.06h-.05l-.08-.12V26.4h0l0-.06-.08,0,0-.05L32,26.16H31.9v0l-.07,0-.07.06h0l0,0-.07,0,0,.07h0l0,0-.05,0,0,0v0l-.06,0,0,0v-.08H31.3l0,0h0l-.09-.05,0-.09h0L31,26l0-.11h0l0,0h0l0,.08-.1,0,0-.05h0l-.08,0h-.08l-.11.1,0,.08-.15,0v.05l-.14.09-.08-.05H30v.07l.08.07,0,.06,0,.08,0,.06-.05.07-.07.11H30l0,.07-.19.08,0,.08v0h0v0l-.05,0-.1,0-.13-.08v0h0l-.06-.07-.05,0,0,.05L29,26.72H28.9l0-.15,0,0,0-.07,0-.14,0,0,0,.07-.09,0-.05,0-.14,0-.07,0-.1-.05-.08-.07-.12,0-.1-.07h-.15l0-.07-.05-.05L27.76,26l0-.11,0-.09v-.14l.05-.06,0-.15,0-.06v-.07l-.07-.07v-.07l.05-.05,0-.15-.07-.07v-.24l-.05-.12,0-.12v-.08l.06-.06.11,0,.08,0v-.09l.07-.11h.23l.06-.05,0-.14.05-.08v-.1l-.09-.08-.12-.05-.1,0,0,0,0-.07,0-.08.07,0,0-.06L28,23.1h-.22l-.09,0h-.17L27.4,23l0-.09,0-.12-.13-.06-.15,0-.09.06h-.11l0-.05v-.11l0-.05,0-.07,0-.08.05-.11.11-.08.12-.09.11-.12.11-.13,0-.13.1-.06h.15l.18,0H28l.11,0-.1-.09-.08-.05,0-.05.1,0,.09.08.12,0,.07-.08.08,0,.08,0,.18-.09.07-.05H29Z"/><path class="cls-18" d="M28.32,44.88l0,0h0v0l.07,0,0,0,0,0h0l.08,0,0-.08h-.05l0,0,0,0h0l0,0,.08-.15h0l-.05,0,0,0,.07-.06.05,0v-.06l0-.05v0l-.09,0v0h-.07l0,0,0,0,0,0v0h0l0,0v0h0v-.06h0V44l0,0,0,0h0v0l0,0,0,0h0v0h0v-.06l.07,0v-.06l0,0h.05l0,.08.06,0v0h0l0,0,0,0v0l.16-.06h.07v-.09l.05,0v0l0,0v0h.1v0l.06,0,.05.07h0v0h0l.06,0v-.08h.06l.05,0h0l0,0,0,0,.08,0v0h0v0h.07v-.07h0l0,0v0l-.05-.08,0,0v0l-.05-.05v0h0v0h0l0-.09,0,0,0,0h0l.07,0,0,0,0,0,0,0v.06l0,0,.12,0,0,0,0,0,0,0,0,.05v-.05l.07,0,0,.05.06,0v0h0l0,0h-.05v-.06h0v0l.05,0h0l0,0,0,0v-.06h.09v0h.06v-.06h0v0h.05v.06l0-.06.05.08h0v-.05h0v0h0l0,0-.05,0v0l.06,0,.11,0v-.13h0v0l0,0-.05,0,0-.07h0l0,0v0l0,0h.05l0,0,.06,0,0-.06h0v0l.05-.06v0l.08-.05,0,0h0v0l0,0-.05.08h.08l0,.05,0,0v0l0,0h.06l0,.08,0,0v.06l0,0,0,0h.05v.05h0v.06h0v0h0l0,0h0l0,0v0l.06,0v0l-.12.06v.11h0v0l0,0,0,0h0v0l.09,0v0h0v0l0,0h0v0h0v0h-.07l0,0v0l0,0-.05,0v.09h0l-.08.06h0l0,.05.11.06,0,.1,0,.1v.13h0v.07h0v0l-.05,0,0,0h0v.06l-.08,0,0,0h0v0h-.07v0h-.05l.05.06.05,0,.07,0,.09,0,.1,0v0h0l0,0h0v0h0l0,.06v0h0l0,.07,0,0v.09l-.26,0-.11,0-.08,0,0,.07h0l0,.09.08.07v0l0,0,0,0V45H31.2l.06.06,0,.11h.05v0h0v0l0,0,0,0v0h0l0,0-.07.12h0v0h0l0,0-.11,0L31,45.45l0,0v.05l0,0,.06,0h0l0,.16-.06,0v.05l0,.13L31,46h0l.05.06h.1l0,0v0l0,0,0,0v0l.07.06,0,0v0h.12l0,0h0v-.08l0,0,.08,0,.05,0v.05h.08v0l0,0,0,0,0-.09v0l.05,0,0,0h0v.12h-.11v0h0v0l0,0v0l-.07.08h.05v0h.05l0,0,0,0,0,0h0v-.09l0,0-.16,0,0-.05h-.1v-.12l-.08,0v0h0v0h0l.05.07,0,0,.1.1v0h0l-.05.08,0,.07h0v0l0,0,0,0h.08v-.07l0,0h0v-.05h0v0l0,0v0l0,0,0,.05h.06v0l0,0h.07l0,0h.05v.12h0v0l0,0v-.06l0,0,0,0,0,0h0l0,0,0,0h0v0h0v0l.06,0v0l.05,0,0,0v0h.07l0,0,.05-.06,0,.06h0v.06h0l0,0h.06v0l.07,0v.07l0,0,0,0v0h0v0l0,0h.08v0h0V47l0,0h.16l0,.22,0,0,0,0h.06v0h0l0,0,0,0,0,0v.06l0,0,0,0-.06,0,0,0,0,0v0l-.06,0v.07h0v.07h-.06l0,0-.05.08h-.06l0,.1-.1,0-.07-.07h0v0h0l0,0,0,0h0l0,0,0,0-.13,0,0,0L32,47.9h0l0,0,0,0h-.07v0l0,.06v0h0l0,0h.05v.13l-.06.07-.08,0v.06l.26,0,0,.06-.08.1,0,.07h-.17v0h0v0l0,.09-.06,0,0,0,0,0h-.05v0l-.13,0v.05h0l0-.06,0,0v0l0,0h0v0l-.06,0-.08.14,0,0,0,0,0,0h-.26l0-.06,0,0-.06,0h0l0,0,0,0v0l-.07,0-.07-.07h0l0-.06h-.07v-.12l-.12,0-.12,0-.05,0,0-.09h-.08v0h0l0,0h-.06l-.1-.14h-.06v-.08l-.05,0v0h.05v0l-.08,0v0l-.06,0v0l.05,0-.05,0-.06,0,0-.07h-.06v0l-.07,0v0h0v-.06h-.07l0,0,0,0-.13,0,0-.09-.13-.5,0-.29-.06-.23,0-.08,0,0,0-.06,0-.16,0,0L28.55,46l0,0,0,0v0h0l0-.09,0,0h0v-.08l0,0,0,0-.11-.09h0v0h0l0-.05.05,0h0v0l0,0,.06,0v0l0,0,0-.06v0l0,0v0l-.05,0,.08,0v-.07l-.05,0v-.06l0-.05,0,0,0,0,0,0,0,0,0,0,0,0,0,0,0,0Z"/><path class="cls-19" d="M29.07,47.8l.13,0,0,0,0,0h.07v.06h0v0l.07,0v0h.06l0,.07.06,0,.05,0-.05,0v0l.06,0v0l.08,0v0h-.05v0l.05,0v.08h.06l.1.14h.06l0,0h0v0H30l0,.09.05,0,.12,0,.12,0v.12h.07l0,.06h0l.07.07.07,0v0l0,0,0,0v0h0l0,0-.05,0,0,0,0,0v.1h0l0,0v0l.08,0,0,0,.06,0h0v.06l-.09.06v.05l0,0h.14l.07,0,0,0,0,.07,0,0v.07h0l-.06.1.17.07,0,0h0v0l0,.09,0,0H31l0,0,0,.17,0,.06,0,.06v0h0v0l0,0,.07,0,.07,0v0l.11-.06h.06v0l0,0v0h0l0,.09-.07,0,.06.07v.07h0l0,.08h0v0l0,0h0v.06h0l0,.11h.05l.06,0,.05,0,0,0v0l.05,0,0,.05,0,0,0,.1h0v.12l0,0v0l-.05.06,0,0-.05,0,.05.07v0h0l0,.06,0,.08,0,0h0l.12.19,0,0h-.06l0,.05-.08.06,0,.07h0l0,0-.13-.08-.34-.45-.09-.07,0-.11-.18-.4-.1-.54h0l.05.08.06.07v.12l0,0,0,.16h.14l-.08,0V50.9h0l0,0h0v-.16l0-.06h0l0,0h0l-.07-.14v0l-.05-.07,0,.16h0l-.12-.4-.19-.41-.06-.23L30,49.21l-.05-.1-.07,0-.08-.2-.13-.16-.05,0-.09-.15h0l0,0,0-.09-.21-.41Z"/><path class="cls-20" d="M27.26,52.23v0h0Zm.59-1.78v0h0v0h0Zm-1.34,0h0Zm1.35,0v0h0Zm-1-.42h0l0,0Zm1.05-.24h0Zm-1.53,0,0,0v0h0Zm.12-.13h0Zm0,0h0Zm.41-.18h0v0h0Zm-.64-.08Zm.7-.05v0l0,0,0-.06Zm.21-.24h0v0h0v0h0Zm-.82-.1h0Zm.53-.1h0Z"/><path class="cls-21" d="M28.34,38.36l.06,0h.09v0h.06l0,0h.06v.06l.05,0,0,0,0,.1v.09h0v0l.24.08.11,0,.16.07.05.11.11,0h.08v0h.06l0,0h.07l.08,0,.06,0h.07l.21,0h.09l.08,0,.05,0,.06.12,0,0,0,0v0h-.06l.06.08h.09l0,0h.1l.07,0,0-.08h.14l0-.1,0-.05.16-.14v0l0,0,0,0v-.06h0l0,0,.05,0,.17-.13h.1l0,0v0h.06v0h.19l.07.07,0,.08v.07l0,0h0l-.11,0,0,0,0,.06,0,0,0,.08.1,0h0v0h.05v0l0,0v0h0l0,0h0v0l.08,0h.06l.23-.11v-.07h.09v0l0,0,0,0h0l0,0,0,0v.1l.08,0h.06l0,0,.14,0,0,0,0,0v0h.15v0l0,0h0l0,0,.08,0,0,0h.08l.06-.06h.07V38.6l.12,0h0l0,0,.07,0,0,.14h.11l.09-.05.12.07h.06l0,0,.06,0,.07,0,0-.06.08,0,.07,0,.11.1,0,.09,0,0,0,0h0v0h0l.11.08h.06l0,0,0,.05-.18.08,0,.08v.06l0,0,0,.08h.09v.18l0,.08-.07,0,0,0,0,0,0,0h.06l0,.21,0,.07-.07,0,0,0-.12,0,0,.06,0,0v0h.1l0,0v.13l0,.06h0l0,0,0,0v0h.08v0l-.07.06h0v0h.06l0,0v0h.08v0l.13.09v.08H35l0,0h.06l0,0h0V41l-.11,0,.06.07-.09.08H35v0l-.06,0-.05-.1-.09.07,0,.07-.05,0v0l-.06,0v.07l0,.09v.06l.08.11-.07.06h0l0,.05-.07,0v0l0,0-.05,0-.1-.09-.08,0,0-.05.05,0v-.17l0,0h-.05v-.07l.08-.07,0-.06,0-.07V41l0-.07-.11-.07L34,40.83h0l-.11,0,0,.07h0v0l-.08,0-.1-.08h0v0l-.07,0v.09l0,0v0h0l-.08-.07h-.08l0,0h0l0,0v-.07l-.06,0h0l0-.1-.06,0H33l-.11,0h-.08l0,0,0,0-.08,0v0h-.05l0,0,0,.07h0l0,.06,0,.07-.06,0,0,0,0,.06v0l0,0,0,.1-.13.05,0,.08,0,.1-.09,0h0v0l-.09-.07-.09,0v0l0,0h0l0,.06v0l0,0v.05h0v0h0v.08h0v0h0v0h0l.06.09h-.11l0,.13,0,0,0,0v.13l-.08,0v0h-.05V42h0l0,0,0,0-.06,0h0l0,.07.05,0,0,0,0,0v0l0,0,0-.05h-.08l.05-.08,0,0v0h0l0,0-.08.05v0l-.06.06,0,0h0l0,.06-.06,0,0,0h-.05l0,0v0l0,0h0l0,.07.05,0,0,0v0h0v.12l-.11,0-.06,0v0l.05,0,0,0h0v0h0v.05h0l-.05-.08,0,.06v-.06h-.05v0h0v.06h-.06v0h-.09V43l0,0,0,0h0l-.05,0v0h0v.06h.05l0,0h0v0l-.06,0,0-.05-.07,0v.05l0-.05,0,0,0,0,0,0-.12,0,0,0v-.06l0,0,0,0,0,0-.07,0h0l0,0,0,0,0,.09h0v0h0v0l.05.05v0l0,0,.05.08v0l0,0h0v.07h-.07v0h0v0l-.08,0,0,0,0,0h0l-.05,0H29.5v.08l-.06,0h0v0h0l-.05-.07-.06,0v0h-.1v0l0,0v0l-.05,0v.09h-.07l-.16.06v0l0,0,0,0h0v0l-.06,0,0-.08H28.7l0,0v.06l-.07,0V44h0v0h0l0,0,0,0v0h0l0,0,0,0v.05h0v.06h0v0l0,0h0v0l0,0,0,0,0,0h.07v0l.09,0v0l0,.05v.06l-.05,0-.07.06,0,0,.05,0h0l-.08.15,0,0h0l0,0,0,0h.05l0,.08-.08,0h0l0,0,0,0-.07,0v0h0l0,0-.1,0h0l0,0,0-.1h-.06l0-.05,0,.06-.16,0,0,0h0l-.09-.17-.08,0,0-.1,0,0v0l0-.13-.05-.16h0l0,0h0v0l0-.08v0h0l0,0,0,0h0V43.7l0-.09v-.09h0v0h0l0-.06,0,0-.05-.16,0,0h0v0l0-.08,0,0,0,0h0V43l0-.06,0,0-.05-.06v-.06l0,0,0-.1,0-.09h0l0-.06v0l-.05-.07v0l0-.06v-.06l-.05,0v-.06h0l0,0,.09,0,0,0,0,0v-.08l0,0h-.06l0-.07,0,0v0l0-.09,0-.07L27,41.76v-.11h.05l0,0,0,0v-.08l-.06,0,0-.05h.05v-.07h0l0,0h0v-.06h0v0l-.05,0h0l0,.08,0,0,0-.05h0l0-.08h0v0h0v0L27,41.27v-.11l0-.06,0,0V41l0,0v0l0,0-.05,0v-.06h0l-.05-.2,0,0v0h0v-.07l0,0v-.11l0-.07.07,0v0h0v0l0,0h.1v.09l0,0,0,0v0l0,.05v0l.08,0,0,0,0-.07.08,0,0-.06h0l0,0v0l.06,0V40l0,0,0,0,.07-.13h0v0h0l0,0,0,0v-.05h0l0,.06,0,0,.07,0,0,.06,0,0,0,0h.05l.09-.05v0l0,0h0l0,0h0l0,0v-.1l-.05-.11v0H28v0h0l0-.05v-.06h-.1l-.07-.07h0l0,0,0,0,.06,0v0H28v-.1h.06l.05,0v-.11h0l.08,0v-.07l0,0,0,0h.09v0h0l.08,0v-.05l0,0,0,0,0,0,0,0,0,0h-.11l-.21.07,0-.11,0,0,.1,0v-.06L28,38.56v0l0,0Z"/><path class="cls-22" d="M44.23,34.51l.15-.06-.13-.14h0l0,0v0l.06,0v0l.11-.09.07,0,.14,0,0,0h0l0,0,0,0,.06.07,0,.06.07-.07,0,0,0,0v0l.07-.06h.06v0h0l0,0,0,0,0,0,0,0v0h0l0,.06h.06l0,.07.05,0h0l0,0h0l.13,0,0,.09,0,.05h0l0,0,.06-.1h.11l.08,0v0l0,0h0l.06-.06h0L46,34H46v.07l0,0,.06,0,.05,0V34l.09-.06.06,0V34l0,.06.07-.05h.15l0,0,.07,0,0,0-.14.15v0h.06l0,0,0,.06v.16l.06-.05h.11l.05,0,0,0v0h0l0,.07H47v.06h0l0,0v.06L47,34.6h0v.06l0,0v0h0l0,.05h0l0,.05h0v.06l0,0,0,0-.14,0L47,35l-.1,0,0,0h-.06l0,.07h0l-.08,0v0l-.11,0-.17-.1-.29,0h0v0h0L46,35l0,0,0,0-.15.05-.05,0h-.08l-.07,0h-.19l-.22,0-.08,0,0,0,0,0h-.18l-.06,0-.11-.05-.23,0-.15-.08h-.12l0-.08,0-.1h0Z"/><path class="cls-23" d="M47.87,34.77v0h0v0H48l.06.06.08-.18h0l.09-.11v0h0v0l.12,0h.12v0l.07,0v0h0l0,0h0l0,.05h.07l0,0,.11,0v-.06l0,0h0l.07-.09h0l0,0h0l0,.06v.08l.07.05h.05v0l0,0,0,.18.16.09v.12l0,.05,0,0-.08.1,0,.13H49l0,.09-.07.06,0,.09h0v.07l0,0,0,0-.06,0v0l-.07.13,0,.13,0,.12h0v.09h0l0-.06-.14-.06h0l-.09,0-.06-.09H48l0,0,0,0-.05.05,0,0-.06-.11-.06,0h0v0h0l0,0v0l0,0h0v0h0l0,0,0,0,0-.06h0l-.08,0,.05-.1,0-.08,0-.07h0v-.05h0v-.09l0-.07,0,0h0l0-.09,0,0,0,0v-.07h0l0,0,0,0v-.05l0,0,0-.05v0h0l0-.08,0,0h0l0,0,.06-.16Z"/><path class="cls-24" d="M32.45,33.1l0,0,0,0h.07l0,.06h0l0,0,.12,0h.09l.06,0v0l0,0,0,0h.05l0,.07h0l.05,0v0l.05,0v.08l0,0h0v0h0l0,0v.05h.08v0h0v.06l.05,0h0v0h0v0h0l0,0,0,0h0v0h0l0,0-.06,0,.06.06-.06,0v.09l-.06,0v0h0l0,.07,0,0v0h0v0l-.08,0,.07.08v.06l-.13,0,0,0,0,0,0,0-.1,0,0,0,0,0,0,0v.06l0,0h0l0,.06,0,0,0,0,0,0h0v.06l0,0v0l.06,0,0,0,0,0h0l-.07,0v.1l-.16.12v0l.05.05v.07l0,.08v.12l0,0,0,.05v0l.09.07,0,.06,0,.06.06,0,.07-.1.07,0,.09.12h0l0,0h0l0,0L33,36l0,0,.07,0,0-.08.06-.06v-.09l-.07,0v0l0,0h0l-.08-.16-.11,0h0v-.06l0,0v-.09l0,0,0,0-.1,0v-.05l0,0,0-.1,0,0,0-.18-.07,0,0,0,0,0h0l0,0v0h0l0,0,0,0h0v0h0l0,0h0l0,0h0l0,0,0,0v0H33v0h0l0-.06.07,0H33l0,0v0l0,0h.06l0,0,0,0,0-.05h0v0h0v0l0,0v0h0l0,0,0,0,0,0h0l0,.07,0,0,0,0h0l0,0h-.08l0,0v0l-.05,0v0h0v0l0,0,0-.13.06,0,0,0,0,.07,0,0h0l0,0h0v.09l.08-.05,0,0v0h0l0,0v0l.05,0,0,0V35h0l0-.06,0,0v0l0,0h0v0h0l0,0h0v0h0v0h0l0,0,0,0v0l.06,0,0,0h0v0h0l0,0,0,0v0l0,0h.05l0,0,0,0v0l.05,0,0,0h0l0,0h0l0,0V35l0,0v0l0,0v0l0,0,.08-.11,0,0h0v0H34l.11,0v0l0,0,0-.1h.06v0l0,0h.06l0-.08h.06l0,0,.07-.05v0l.06,0v0l0,0v.1l.07.06h0l0,.08-.08,0-.08.12,0,0,0,0h0V35l.07,0,0,0h0V35l0,0h0l0,0,0,0,0,0v-.09l0,0,0,0,.05,0h0v0L35,35h0v0h0v0h.08l0,0V34.9h0l0,0,0,0V35l0,0,0,0-.06,0v0l0,0,0,0h0v0l0,0v0h.07v0h.07l0,.06,0-.07,0,0h0v-.07l.06-.08v0l0-.07h0v0h0l.06,0h0v0h0l.09,0,0,0,0,0,0,0h0l0-.05h.06l0,0h0l0,0v0l0,0,0,0v0l0,0,0,0h0l.06,0h0l0,0,0,0v.09l0,0,.07.07,0,0,.11.06h0l0,0,0,0,0,0h0l0,0h0l0,0h0v0l0,.11h0v0l0,0v.06h0l.08,0v-.09l0,0v0h.07v0l.13,0,0,0v0h.07v0h0v.05H37l0,0v.05h0l0,.13h.06v.15h0V36l0,0,0,0,.06.05h0l0,.06.06,0v0l-.06,0-.1,0v0l-.07,0h-.06l0,0h0l-.06,0h-.13l-.07,0,0,0,0,0v0l-.05,0h-.11l0,0h-.05l0,0-.07,0h-.07l-.06,0v0l-.06-.07,0,0,0,.06,0,0v.07h0v0l0,.06h0v.07h0v0h0v.05l0,0,0,0h0l0,0,.07,0,0,0,.1,0,.06.13h0v0h0l.05,0v0h0l0,0V37l0,.06v.09l0,0,0,0-.05,0h-.08l0,0,0,.08-.08.05v0l-.08,0v0l0,.07,0,0,0,.07h0l0,0,0,0,0,0v.07h0v0h-.1l0,0h0v0h0l0,0,0-.07,0,0,0,0,0,0-.06,0,0,0-.07.05V38l0,0-.06,0v.1l0,0,0,0v0h0v-.06h0l-.07.17h0v.16l0,.07-.07,0,0,0v.13l0,.13-.08.14h-.06l-.11-.08h0v0h0l0,0,0,0,0-.09-.11-.1-.07,0-.08,0,0,.06-.07,0-.06,0,0,0h-.06L34,38.73l-.09.05h-.11l0-.14-.07,0,0,0h0l-.12,0v.08H33.4l-.06.06h-.08l0,0-.08,0,0,0h0l0,0v0H33v0l0,0,0,0-.14,0,0,0h-.06l-.08,0v-.1l-.05,0,0,0h0l0,0,0,0v0h-.09v.07l-.23.11h-.06l-.08,0v0h0l0,0h0v0l0,0v0h-.05v0h0l-.1,0,0-.08,0,0,0-.06,0,0,.11,0h0l0,0V38.7l0-.08-.07-.07h-.19v0h-.06v0l0,0h-.1l-.17.13-.05,0,0,0h0v.06l0,0,0,0v0l-.16.14,0,.05,0,.1h-.14l0,.08-.07,0h-.1l0,0h-.09l-.06-.08h.06v0l0,0,0,0L30.32,39l-.05,0-.08,0H30.1l-.21,0h-.07l-.06,0-.08,0h-.07l0,0h-.06v0h-.08l-.11,0-.05-.11-.16-.07-.11,0-.24-.08v0h0v-.09l0-.1,0,0-.05,0v-.06h-.06l0,0H28.5v0H28.4l-.06,0v0l-.05,0,.08-.07,0,0h0v-.13h-.05l0,0,0,0v-.08h0l0,0h.06l0,0h0l0,0h0l0,0H28.4v0h0l0,0,0,0,0,0h0v0l0,0v0l0,0,.09,0,.11-.13h.12l0-.09.08-.14,0-.07,0,0,0,0,0,0,0,0-.05-.09.07,0,.12,0,0,0,.06,0,.06-.06h.05l0,0v0H28.9l0,0,0,0h-.06l-.08,0v0l0-.05.05,0V36.8l0,0h0l0,0h0l0-.06,0,0,0,0,.06-.08h0l0-.06,0-.06,0-.14,0-.07.07-.1-.11-.2,0,0v0l0,0H29l0,0v-.06l.07-.1h0v0h0l-.06,0,0,0v-.05l.05,0v0l0,0,0,0,0-.11.1.15h0l0,0h0v-.05h0l0,0h-.09l-.06,0v-.05l0-.08,0,0,0,0h0l0,0v0l.12,0v0h.07v-.08l.05,0v0h.19v0l0,0,0,0,0,.07,0-.08v0l0,0,0,0,.05,0,0,0h.1v0l-.11.06,0-.05h0l0,0h0v0l.05.05,0,0,0,0,0,0h.05l.18,0,.14,0,0,0,.14-.08.08,0v.06l0,0,0,0v0l0,0,.05,0v0l0,0,0,0,0,0v0l-.07,0,0-.06-.05,0v0h0v.06l0,0H30v.06l-.05,0L30,36h0v0h.05v0H30v.07l-.07,0,0-.07,0,0H29.8l0,0-.05,0-.05.07v.07l.1.06,0,0,0,0,0,0h.07l0,0v-.07h0v0l0,0v0l0,0,0,0,0,0,.07,0h0l.1,0v-.1l.08,0,.09,0V36l0,0v-.05l0,0,0,0,0,0,0,.07h.06l.05,0,.09.05v0h0v0l.06.08.05,0v0l0,0v0h0v0l.08,0v0l0,.06,0,0H31l.05,0,0,0h.05V36l0,0-.07-.07,0-.07v-.14l0-.07.05,0,0,0,0,0v.06l.05,0,0,0,0-.06h0v-.13l0-.07-.05,0,0,0,0,0h-.07l0-.07,0,0h.09l0,0h0v0h0l0-.1.14-.07.09,0h0L31.4,35h.09l0,0,.1,0V34.9h0v0l-.06,0,0-.05h0l0-.09-.05,0,0,0-.06.05v.07l-.14,0-.05,0h-.06l0,0-.05-.05h-.05l-.07,0v0h-.08l-.08,0,0,0h0l-.05-.1v-.15l0,0v0l.05,0v-.07l.07-.08h0l0,0H31l0,0v0H31l0-.06v0l.05-.07.1-.05.05,0h.06l0-.05h.08l.09-.06.05-.07h.09v0h.1l.14-.11H32l0,0h.07v0l.06,0v0h.06l0,0,.09,0v-.06l0,0,0,0h.08l0,0Z"/><path class="cls-25" d="M46.68,35.91h.13V36h0v0l.05,0,0-.07H47v-.09l.07,0,.08-.18.06.16,0,0h0v0l0,0h.09v.05h0l0,.07,0,.08-.05.1.08,0h0l0,.06,0,0,0,0h0v0h0l0,0v0l0,0h0v.07l.07.07v.18l0,.08-.05.27,0,.05-.05,0,0,.14,0,.08h0l-.1.14h0l-.06-.06-.06,0v0l0,.08h0l0,.1h0l0,.07,0,0,0,.11,0,.08h0v.06l.05,0V38l-.06,0,0,.05v0l-.08,0h0l0,.1h-.05v.13h0l0,0h0l0,.08,0-.13h0l-.13-.09h0l0,.14-.07,0v-.08l0-.08h0l0,0v0l-.08-.42v-.1l0-.08,0,0,0-.07v-.08h0v0h-.05l0-.13,0,0V37h0l0-.09v0l-.06-.12,0-.16h0v-.07l0,0v-.09h0v0l0,0h0v0l0-.06,0,0,0,0,0-.12Z"/><path class="cls-26" d="M49.61,32.88l0,.16,0,0,0,0v.06h0l0,.06,0,.05-.08.07v0l-.09.14,0,0v0l0,0v.16l0,0,0,0v.07l.06,0-.08.12-.07,0v.07l0,.12-.12.1,0,.06,0,0,0,0h-.06l0,.07-.13,0H49L49,34.55v-.08l0-.06h0l0,0h0l-.07.09h0l0,0v.06l-.11,0,0,0h-.07l0-.05h0l0,0h0v0l-.07,0v0h-.12l-.12,0v0h0v0l-.09.11h0l-.08.18L48,34.83H47.9v0h0v0l0,0,0,0,0-.06-.07,0-.06-.09.1-.09.07,0,.07-.11.14-.1,0-.06.06,0,0,0,0,.06,0,.07,0,0,0,0,0,0,0,0,.06,0,0-.1,0-.07,0-.11.1-.17.07,0v-.12l.09-.11h0v.09l0,0,0,0,.05,0v-.09l0,0v0l.07,0,0,0,0,0,0,0h.06l.11-.08L49.3,33l0,0,.06,0h0l.09,0Z"/><path class="cls-27" d="M41.2,39.6h.12v.06h-.07l-.09.07v0h0l0,0h0l0-.12Zm-2.9-1.84.14.05v.07l0,0h0l0,0h.14l0,0h0v0l0,0h.22v0h.06l0,0,0,0v0l.06,0h0l.11,0,0,.14h0v0h0v0l0,0-.05.17,0,0h0l0,0h.06l0,0h0v0l0,0,0,.05.07-.11,0,0h0v0h0l.15.08h0l.05,0,0,0,.12-.07,0,0h0l0,.09.15,0v0h0l.06-.1,0-.08-.06-.06.07-.06h0v0h0l0,0v0l-.06,0,0,0,.05,0,0,0,.07.09.17,0,.08.1.08.05v0l.07,0,0,0h0v0h0v0l.07,0v.08h.08l0,.06h.13l.06.05,0,0,0,.09,0,0h.07v-.05l.06,0v0l.07,0,0,.15.09,0,0,0h.07v0l0,0,0,.06,0,0-.1.07h-.19l-.08,0-.14.1-.09.1-.07.13v.06l.15.33v0l-.08,0-.05,0-.06.13h0l0,0h0v0l.09-.07.07,0h.05l-.27.18,0,.13,0,0v0l-.1.08-.13.06-.14.18,0,.06h0l-.06-.08h0v0h.06l.07.07-.71.23-.28.14-.25.16-.07.09-.16.11-.09.09-.06.1,0,0,0,0v0h0v0H38.9l0,0h0v0h0l0,0,0,0-.08,0v0l-.06,0,0,0,0,0v0l0,0h0l0,0h0v0l0,0v.08l-.19,0,0,0h0l-.05-.06h-.09l-.07,0-.08-.19-.05,0,0,.07h0l0-.07,0,0h0l-.07-.14,0,0v0l0,0,0,0v.07h0v0h0l0,0h0l0,.05v0h0v0l0,0h-.06l0,0,0,.07,0,0,0,0h0l.07.07,0,0h0v0h-.08v0h-.05v0l-.07,0-.08.12,0,0v0h0l0,0v0h.06l-.07.1,0,0h0v.05h0l-.09,0,0,0v-.05h0l0,0,0,0,0,0,0,.07-.1,0,0,.06,0,0v0l0,0v0l-.07,0,0,0h0V42h0l0,0-.12.14,0,0-.05,0h.06l0,0h0v.06l0,0,.06,0v0l0,0v.11h0v0l0,0v.06h0l-.06,0,0,0H36.3l-.07.07-.15,0,0,.05-.06,0,0,0h0l0,.07,0,0-.08,0,0,0-.07,0V42.6h0l0-.1v-.06l0-.07,0-.06,0,0,0-.08.07,0h.06v0H36l0-.07.1-.1,0,0v0h0v0l-.06,0v0l.07,0,0-.06.06,0h0v0h0l0,0v-.11h.07v-.11l0,0v-.06h0l0,0,0-.11,0-.06,0,0h0V41H36.4l0-.09H36.3l0,0v-.18l0-.08h-.08l0-.06-.11-.06v0l0-.09.07-.07.08.1,0,0,.12.08,0,0,.11.17.05,0,.06,0,.15,0,0,0v.06l.06-.06H37v-.16h-.11l-.21-.08v-.08l0-.06v-.07l0,0,0,0,0-.1,0-.05,0,0v-.06l0,0,0-.07,0-.15v-.13l.06,0v0h0l0-.09.07,0,.07-.1v0l0,0v0H37l0,0,0,0h.07l.08,0,.08.06.08,0,.07,0,0-.13.06,0,0,0V39l.11,0h0v-.06l0,0v0l0-.12.07,0v0l0,0-.07-.05.07-.07,0,0,0,0,0,0v0l.05,0v0l0,0,0,0,0,0v-.1h.07l0,0,.08-.13.05,0h.06l.11-.1.14,0,0-.1-.06,0v0Z"/><path class="cls-28" d="M30.09,26.62l0,.08.08.11-.09,0L30,27l-.11,0v.06l.05,0-.09.1,0,0,.05,0,0,0,.1.08.11.05.08.16h-.05l.08.2.15.27,0,.06,0,0v0h.13v0h0l0-.06h0v0l0,0,.07.1,0,0,0,0,0,0h0v0l0,0v0l0,0,0,0,0,0h.05v0l-.05,0v.07l0,0,0,.06v.06l.11,0,.06.07v0l.06.05,0,.05,0,0h0v0h0v0l-.06,0,0,.07.07,0,0,0v0l0,0v0l.06,0,0,.07,0,0,0,0v0l0,.06,0,0v0l-.05-.05,0,0-.05,0-.06.05,0,0h0l0,0h0l-.07.06h-.06v0l0,0,0,0v0h0v.11l0,0h0l0,0-.06,0v0h0l0-.12,0,0,0,0v0l-.06,0,0,0,0,0-.07,0,0,0v0h0l.07,0-.06.08h0v.08l0,0v.05l.06,0-.12.08h0l-.05.07v0l-.06,0-.08,0L30,29.79h0l0,0-.07,0v.06l-.07,0v0h0v0h-.05l-.06-.05-.07.11,0,0v0h0l0,.07,0,0v0l-.08,0V30l-.05,0v0l0,0v0l0,0-.05-.1,0,0v0l-.06,0,0,0,0,0,0,0,0,0,0,0-.07,0-.08-.1h0v0l0,0,0,0-.08,0h0l-.05.06v0l-.13-.05-.63,0v-.08l.07-.09v-.16l-.08-.12,0-.05h0v-.05h0l0,0,.05,0h.05v0l0,0v-.05h0v0h0l.08-.1h.05l0,0,0,0v0l0-.05h0v-.05l.05,0,.05-.07.07,0,0-.09.07,0,.05,0,0,0,0,0h-.05v0h0v0h0v0l0,0v-.15l0,0,.1-.19,0,0h-.06l0,0v0l-.08-.18v0h0v-.09l0-.07h0l0,0h.05v0l0,0H29v0l.05,0v0h.05l.08,0,.11-.06h.05l0-.05.05,0,.12-.17v0l0-.08.1,0,.05,0v0h0v0l0-.08.19-.08,0-.07H30Z"/><path class="cls-29" d="M34.11,49.74h0v-.05l-.09,0,0,0h0v0l0,0,0,0h0Zm0-1,0,0,0,0v0l0,0-.05,0,0,0,0,0v0l0,0h0l0,0-.05,0,0,0,0,0h0l0,.06.06,0,0,0Zm2.48-4.93-.08,0,0,0v0h.06l0,0v0h0Z"/><path class="cls-30" d="M28.16,29.36v.08l-.07.09v.08l.63,0v0h0l0,0-.09.09v.05h.06l.06,0,0,0,0,.21.05,0,0,.08h0l0,0v0h0l0,.06v0h.05v0l.11,0,.09-.06.08.05,0,.09h0l.05,0,0,.06h0l.07-.05,0,0,.1-.06v.06h0v0h0v.08l0,.06h0l0,.07h.05v.06h.07v0l-.05.06.05.1,0,.05,0,0,0,.16h.06v.06l.15.1v.06h.12l0,0,0,.06.07,0v0l0,0v0l0,.06h0v0h0l-.1.09h.05v0l0,0,0,0,0,0v0h0l0,0h0l0,0,0,.05,0,0,0,0v0h0v0l.09,0,0,0,.08.06.05,0,0,0v0l0,0v-.06l0,0,.06,0,0,0h.1l0,0h0l0,0-.06,0,.06,0-.08-.06h.06l0,.05.09,0,0,.05h0v0l0,0h0l.08,0v.07l.06,0h.06v-.09l.14-.06v-.06l0,0,.11.09,0,.16v.08h0l0,.09h0l0,.11,0,0h0l0,.05,0,0,0,0,0-.09h.09v0h-.05l0,0,.09,0,0,0v0h0v0l0,0,0,0,0,0h0l0,0v.07l0,0v0l0,0,0,0,0,0v.05l0,0,0,0,0,0v.06l.07,0,.08.06h0l0,0,.05.07v0h0l0,0h-.05l0,0-.09,0,0,0h.05v0l.07,0,.05,0,0,.05h0v0h0l0,0h-.09l-.23.12,0,0v.06h0l0,0,.05,0,0,0,0-.07,0,0h.09l.11-.06v0l0,0,.14.06v0l0,0h.06l0,.06,0,0v0h.06V33h.11l0,0,0,0h0l0,.05H32.4l0,0h-.08l0,0,0,0v.06l-.09,0,0,0h-.06v0l-.06,0v0H32l0,0H31.9l-.14.11h-.1v0h-.09l-.05.07-.09.06h-.08l0,.05h-.06l-.05,0-.1.05-.05.07v0l0,.06H31v0l0,0h-.09l0,0h0l-.07.08v.07l-.05,0v0l0,0v.15l.05.1h0l0,0,.08,0H31v0l.07,0h.05l.05.05,0,0h.06l.05,0,.14,0V34.7l.06-.05,0,0,.05,0,0,.09h0l0,.05.06,0v0h0V35l-.1,0,0,0H31.4l-.06.05h0l-.09,0-.14.07,0,.1h0v0h0l0,0h-.09l0,0,0,.07h.07l0,0,0,0,.05,0,0,.07v.13h0l0,.06,0,0-.05,0V35.6l0,0,0,0-.05,0,0,.07v.14l0,.07.07.07,0,0V36h-.05l0,0L31,36h-.05l0,0,0-.06v0l-.08,0v0h0v0l0,0v0l-.05,0-.06-.08v0h0v0l-.09-.05-.05,0h-.06l0-.07,0,0,0,0,0,0v.05l0,0v.11l-.09,0-.08,0v.1l-.1,0h0l-.07,0,0,0,0,0,0,0v0l0,0v0h0v.07l0,0H29.8l0,0,0,0,0,0-.1-.06V36.2l.05-.07.05,0,0,0h.05l0,0,0,.07.07,0v-.07h.06v0H30v0h0l0-.09.05,0v-.06H30l0,0v-.06h0v0l.05,0,0,.06.07,0v0l0,0,0,0,0,0v0l-.05,0,0,0v0l0,0,0,0V35.4l-.08,0-.14.08,0,0-.14,0-.18,0h-.05l0,0,0,0,0,0-.05-.05v0h0l0,0h0l0,.05.11-.06v0h-.1l0,0-.05,0,0,0,0,0v0l0,.08,0-.07,0,0,0,0v0h-.19v0l-.05,0v.08h-.07v0l-.12,0v0l0,0h0l0,0,0,0,0,.08v.05l.06,0h.09l0,0h0v.05h0l0,0h0l-.1-.15,0,.11,0,0,0,0v0l-.05,0v.05l0,0,.06,0h0v0h0l-.07.1v.06l0,0h.12l0,0v0l0,0,.11.2-.07.1,0,.07,0,.14,0,.06,0,.06h0l-.06.08,0,0,0,0,0,.06h0l0,0h0l0,0v.05l-.05,0,0,.05v0l.08,0h.06l0,0,0,0H29v0l0,0h-.05l-.06.06-.06,0,0,0-.12,0-.07,0,0,0v0l0-.07h0l0,.05-.05,0V37l0,0h-.06v0h0l0,0h0v0h-.05L28,36.77l-.05,0,0,0,0,.05,0-.05,0,0h0l0-.06,0-.05,0-.08-.08,0-.06,0V36.5h0l-.06-.07h0l0,0v-.08l.07-.08,0-.06v-.06l0,0V36l0,0v0l0,0-.05,0,0,0,0-.05-.11,0,0-.05.06-.13h0v0h0l0,0h0l0,0-.09,0,0,0,0-.07,0,0,0,0v0l0,.09,0,0-.07,0-.06,0h-.13l0-.06v0l-.11,0,0,0-.05.06v0h0l0-.05v0h-.05l0-.06h-.07l0,0,0,0h.05l0,0h0l-.08,0,0,0h-.05l-.08,0v0h0l-.11.09,0,0h-.05l0,.07,0,0,0,0-.14,0,0,0h-.13l-.11,0,0,0-.05.05-.2-.08-.16-.27L25.06,35l-.13-.13,0-.06-.07-.08v-.14l0-.19h0l-.08,0-.14,0-.12,0-.19-.26v-.14l.09-.19v-.26l0-.07-.1-.06-.19,0H24l-.1-.07-.21-.1,0-.06,0-.23.07-.17.29-.26.07-.11.08-.06.09-.23,0-.08.22-.19.11,0,.08,0,.11.12V32l.08.13.13,0,.39-.15.14,0h.25l.24-.1,0-.19.06-.09.19-.17.12-.34.08-.11.33-.19.24-.11.06-.13.09-.11.18-.35.12-.43.22-.1L28,29.5Z"/><path class="cls-31" d="M43,31.71l0,0h.08l.08.07v.09h0l0,.07,0,.05v.17l-.08.11,0,.18.11.09,0,0-.1,0v.07l0,0h0l0,0,0,0,0,0h-.1v0l-.1.07-.11,0,0,0h-.07l0,0-.06,0,0,0V32.7l-.06,0,0-.12,0,0v0l0,0,0-.07.15-.33,0,0,0,0v0l-.07,0v-.08h0l.05,0,0,0,0,0,.1-.05h.05l.09-.07h.06v-.05l.06,0v0Z"/><path class="cls-32" d="M31.78,42.18l0,0-.05,0,0-.07h0l.06,0,0,0,0,0h0v-.08h.05v0l.08,0v-.13l0,0,0,0,0-.13h.11l-.06-.09h0v0h0v0h0v-.08h0v0h0V41.3l0,0,0,0,0-.06h0l0,0v0l.09,0,.09.07v0h0l.09,0,0-.1,0-.08.13-.05,0-.1,0,0v0l0-.06,0,0,.06,0,0-.07,0-.06h0l0-.07,0,0h.05v0l.08,0,0,0,0,0h.08l.11,0H33l.06,0,0,.1h0l.06,0v.07l0,0h0l0,0h.08l.08.07h0v0l0,0v-.09l.07,0v0h0l.1.08.08,0v0h0l0-.07.11,0h0l.05.06.11.07,0,.07v.11l0,.07,0,.06-.08.07v.07h.05l0,0v.17l-.05,0,0,.05.08,0,.1.09.05,0,0,0v0l.07,0,.07.13.15,0,.15.11,0,.05,0,0v0h0v0l0,.09.05,0-.06,0v0h.07l0-.07,0,0h0v.07l.11,0,0,.09.09.3h0l.09-.07.1,0h.13l.07,0,0,0,.08,0,0,0,0-.07h0l0,0,.06,0,0,0v0l-.21.11v0l-.07.1,0,0,0,0V43l-.08.09h0l0,0-.06.08h-.09l0,.1-.11,0-.06,0-.09,0v.05h0v.1l0,0-.11,0h-.08v0l-.1,0-.06,0v.06l0,0h0l0-.06,0,0,0,0,0,0,.13.06v0l.09,0v.05h0v0l0,0,0,0-.11,0v0l-.06,0,0,0,0-.05h0l0-.09,0-.06h-.06l0,0,0,.06-.08,0,0,.06,0,0h0l0,0,0,.07-.09.11h-.06l0-.06h0l0,0-.13.07-.15,0-.07,0-.16,0,0,.06v.27l0,0-.15,0-.11,0,0,0v.08h0v0h0v.07L33,44.5H33l-.1-.08-.06,0-.15,0-.09.06H32.5l0,.11-.06,0,0,0h0l0,0-.05,0,0-.06,0,.05-.12,0-.08,0-.09,0h-.06l-.05,0h-.1v-.09l0,0,0-.07h0v0l0-.06h0v0h0l0,0h0v0l-.1,0-.09,0-.07,0-.05,0-.05-.06h.05v0h.07v0h0l0,0,.08,0v-.06h0l0,0,.05,0v0h0v-.07h0V43.6l0-.1,0-.1-.11-.06,0-.05h0l.08-.06h0v-.09l.05,0,0,0v0l0,0h.07v0h0v0h0l0,0v0h0v0l-.09,0v0h0l0,0,0,0v0h0V42.8l.12-.06v0l-.06,0v0l0,0h0l0,0h0v0h0v-.06h0v-.05h-.05l0,0,0,0v-.06l0,0,0-.08Z"/><path class="cls-33" d="M33.56,51.22l0,0,0,0v0l.11.1-.14-.09h-.08l0,0h.07Zm-1.1-3.41v0l0,0h.08l0,0,.08,0h.09v0h0v0h0v0h0v0l0,0,0-.15h0l0-.06,0,0h0v0h0l.13,0v.07h0l0,0,0,0h.07l.09.06h.08l0-.08,0,0v0h.05l0,0,0,0v0l.08,0v0h0l0-.06,0,0,0,0,.11,0v0l0,0,.09,0v.06h0v0h0l0,0,0,0-.06,0,0,0,0,0,0,0h0l.07,0,0,0,0,0h0v0h0v0h0v0h0v0h.08l.08.06h.08l0,.09,0,0v-.06l0,.15,0,.14,0,.36-.1.31-.28.41,0,.12,0,0-.06,0,0-.06h0l0,0,0,0,.05,0,0,0h0l0,0v0l0,0,0,0,.05,0,0,0v0l0,0,0,0L34,49l.09.21v.37h0l0,0,0,0v0h0l0,0,.09,0v.05h0l0,.52,0,0H34l-.36,0-.09.06-.07.11v.05l0,.06-.11.1,0,.08-.13.14-.06.1,0,.13,0,.07.12.11.13,0-.1,0h-.22l-.15.05v0h-.07v0l-.08,0-.17,0-.2.15,0,.07v.11h0l0,0h-.06l-.07.09V52h0V52l-.07.08v0h0l-.27.12-.06.07-.17,0,0,.06-.23,0-.22-.18,0,0h0l0-.07.08-.06,0-.05h.06l0,0-.12-.19h0l0,0,0-.08,0-.06h0v0l-.05-.07.05,0,0,0,.05-.06v0l0,0v-.12h0l0-.1,0,0,0-.05-.05,0v0l0,0-.05,0-.06,0h-.05l0-.11h0v-.06h0l0,0v0h0l0-.08h0v-.07l-.06-.07.07,0,0-.09h0v0l0,0v0h-.06l-.11.06v0l-.07,0-.07,0,0,0v0h0v0l0-.06,0-.06,0-.17,0,0h.07l0,0,0-.09v0h0l0,0-.17-.07.06-.1h0v-.07l0,0,0-.07,0,0-.07,0h-.14l0,0v-.05l.09-.06v-.06h0l-.06,0,0,0-.08,0v0l0,0h0V49l0,0,0,0,.05,0,0,0h0v0h0l.06,0,0,0,0,.06H31l0,0,0,0,0,0,.08-.14.06,0v0h0l0,0v0l0,0v.06h0V48.8l.13,0v0h.05l0,0,0,0,.06,0,0-.09v0h0v0h.18l0-.07.08-.1,0-.06-.26,0V48.3l.08,0,.06-.07v-.13h-.05l0,0h0v0l0-.06v0h.07l0,0,0,0h0l.07-.13,0,0,.14,0v0l0,0h0l0,0,0,0h0v0h0l.07.07Z"/><path class="cls-34" d="M46.57,35.62l0,0v0l0,.08-.06.14h.08l0,.11,0,.12,0,0,0,0,0,.06v0h0l0,0v0h0v.09h0l0,.07v0l0,0v0h0l-.1.1h0l0-.08h0l0,.05,0,.21,0,0v0h0l-.06,0-.07.13.06.2,0,0h0l-.06.08H46l-.05,0,0,0-.07-.19v0h0v0l0,0h0l0,.08,0,.13h0l0-.1V37l0,0h0l0,0,0,0h0l0-.14-.05,0v0h0l0,0v-.08l0,0v0h0v0h.07l0-.11,0,0v0h0V36.2h0v0l.07,0,0-.08,0-.07.17,0,.09,0L46,36v0l0,0V36l0,0h0l0-.11.08,0,0,0v0l.05.06h0l0-.14,0-.07,0,0,0,0,0-.08h.14l0,0h0l0-.08v0Z"/><path class="cls-35" d="M31.8,29.12h.07l.08.09.22.1-.09.15,0,0h0l0,.05,0,0,0,0v0l0,0,0,0,0,0,.06.1v.08l0,0v0h0l0,0h.08l0,.11h0v0h0v.05h.05v0h0l.06-.08,0,0h0l.1-.1.09,0,.07,0,0,.13.08.07.18.1.14,0-.05.07,0,0h0l0,.06,0,0,0,0,.09.07h.05l0,.07v.06h0l0,0,.06.05v-.06l.1,0v.07l0,0v0h0l.1.09h.05v0l0,0h0v.09h.1l0,0,0,.05.06,0,.05,0,0,0H34l0,0,0,.06h0v0h0l0,0h0l0,.06,0,0,0,0,0-.05,0,0,0,0h.05l.1.08h0v0l.06,0,0,.07h.1l.06.09,0,0,0-.1.07,0,0,.06h.06l0,.06.08,0,0,0,.08,0v0l0,0v0l.07,0,0,0,0,0,0,0,.13,0,0,.08.08.1v0h0l0,0h0v0l.07,0,0,.05v0l.15.09H36l.19.15h0l0-.08h.1l.06.06.08,0,.24.19.27,0v.06l0,.09,0,.09h.2l0,0,.08,0h.15l.12.14h0l.06-.08,0,0,0,0,0,0h.23l.25.13,0,0h.09v0l0,0,0,0,0,0,0,.12h.08l0,0,.05,0V33l0,0h0v0l0,0v0l0,0v0l0,0,0,0h0l0,.05,0,.06v0h0l.05,0,0,.07.08,0v0l-.14,0-.2,0v0l0,.07h-.08v0H38.2v.08h.11l.06.07h.1v.06l0,.08-.05,0,0,.05-.07,0v.1l0,0h0l.08.08v0h0l.1.06.06,0,.05,0,0,0h.1v.05h0l.07,0,0,0,0,0h-.08v0h0v0h0l0,0,0,0,0-.06h0v.08h0v0h-.08v0l0,0H38.4l0,0v.06l-.16.09-.07.09h0l0,0h0v0l0,0,0,0,0,0h0l0,0-.06,0h0l-.08.07h0l0,.05h0v0l0,.06,0,.12h0v.15l0,0v.06l.07,0h0v0l0,0,0,0,.05,0-.05.1-.1,0v.1h0l0,0-.08.05,0,.06-.08.17,0,0v.06l-.06,0,0,.08-.1,0h-.15l-.13-.09v0l-.06,0,0-.06h0L36.94,36l0,0,0,0v-.09h0v-.15H37l0-.13h0v-.05l0,0h.06v-.05h0v0H37v0l0,0-.13,0v0h-.07v0l0,0v.09l-.08,0h0v-.06l0,0v0h0l0-.11v0h0l0,0h0l0,0h0l0,0,0,0,0,0h0l-.11-.06,0,0-.07-.07,0,0v-.09l0,0,0,0h0l-.06,0h0l0,0,0,0v0l0,0,0,0v0l0,0h0l0,0h-.06l0,.05h0l0,0,0,0,0,0-.09,0h0v0h0l-.06,0h0v0h0l0,.07v0l-.06.08v.07h0l0,0,0,.07,0-.06h-.07v0h-.07v0l0,0v0h0l0,0,0,0v0l.06,0,0,0,0,0V35l0,0,0,0h0V35l0,0H35v0h0v0h0l-.05,0v0h0l-.05,0,0,0,0,0V35l0,0,0,0,0,0h0l0,0v.05h0l0,0-.07,0v.05h0l0,0,0,0,.08-.12.08,0,0-.08h0l-.07-.06v-.1l0,0v0l-.06,0v0l-.07.05,0,0h-.06l0,.08H34.2l0,0v0H34.1l0,.1,0,0v0L34,35h-.15v0h0l0,0-.08.11,0,0v0l0,0v0l0,0v-.06l0,0h0l0,0h0l0,0-.05,0v0l0,0,0,0h-.05l0,0v0l0,0,0,0h0v0h0l0,0-.06,0v0l0,0,0,0h0v0h0v0h0l0,0h0v0h0l0,0v0l0,0,0,.06h0V34.9l0,0-.05,0v0l0,0h0v0l0,0-.08.05v-.09h0l0,0h0l0,0,0-.07,0,0-.06,0,0,.13,0,0v0h0v0l.05,0v0l0,0h.08l0,0h0l0,0,0,0,0-.07h0l0,0,0,0,0,0h0v0l0,0v0h0v0h0l0,.05,0,0,0,0H33l0,0v0l0,0h.06l-.07,0,0,.06h0v0H32.9v0l0,0,0,0h0l0,0h0l0,0h0v0h0l0,0,0,0h0v0l0,0h0l0,0,0,0,.07,0,0,.18,0,0,0,.1,0,0v.05l.1,0,0,0,0,0v.09l0,0v.06h0l.11,0,.08.16h0l0,0v0l.07,0v.09l-.06.06,0,.08-.07,0,0,0,0-.09,0,0h0l0,0h0l-.09-.12-.07,0-.07.1-.06,0,0-.06,0-.06-.09-.07v0l0-.05,0,0v-.12l0-.08v-.07l-.05-.05v0l.16-.12V35l.07,0h0l0,0,0,0-.06,0v0l0,0v-.06h0l0,0,0,0,0,0,0-.06h0l0,0v-.06l0,0,0,0,0,0,.1,0,0,0,0,0,0,0,.13,0v-.06L33,34.29l.08,0v0h0v0l0,0,0-.07h0v0l.06,0V34l.06,0-.06-.06.06,0,0,0h0v0h0l0,0,0,0h0v0h0v0h0l-.05,0v-.06h0v0H33.3v-.05l0,0h0v0h0l0,0v-.08l-.05,0v0l-.05,0h0l0-.07H33l0,0,0,0v0l-.06,0h-.09l-.12,0,0,0h0l0-.06h-.07l0,0,0,0,0-.05h0l0,0,0,0h-.11V33h-.06v0l0,0,0-.06h-.06l0,0v0L32,33l0,0v0l-.11.06h-.09l0,0,0,.07,0,0-.05,0,0,0h0v-.06l0,0,.23-.12H32l0,0h0v0h0l0-.05-.05,0-.07,0v0h-.05l0,0,.09,0,0,0h.05l0,0h0v0l-.05-.07,0,0h0l-.08-.06-.07,0v-.06l0,0,0,0,0,0v-.05l0,0,0,0,0,0v0l0,0v-.07l0,0,.06-.05h.07v0h.05v-.06h.05l0,0h0l0,0-.06-.06V31.7h0v-.07l.05,0h-.05v0l0,0v0l0,0-.07,0h0v0l0,0,0,0,0-.06-.14-.11-.05-.06.05-.05,0,0V31h0l-.07-.09h0l0,0,0,0v0l0,0,0-.06,0-.05-.09-.11,0-.09,0-.05,0,0v0l0-.07,0,0v0h0l0,0,0,0-.06-.1,0,0,0,0,.06-.12,0-.07,0,0,0-.12.08-.11v-.06l.15-.06,0,0,0-.05.05,0,.05-.11,0,0,0-.07,0,0Z"/><path class="cls-36" d="M33.45,28l0,.06,0,0,0,0,0,.07,0,0,.05,0,0,.09h.08l0,.07.05,0,.07-.05H34l0,0,.06,0h0l.06.09.13.06.06.07.06,0,0,.05h0l0,0,0,.05,0,0,0,0v.07l.09,0,.06,0h0l.13.08.06,0,.15.1.08.09.21.07v0h0l-.08,0,0,.06,0,0-.12.09v.05l-.08.06h-.07l0,.12-.06.06H34.7l-.07.06,0,.09,0,0,0,.05,0,0h0v0l-.06.05,0,0h-.06v0l0,0v0l0,0,0,.13-.05,0,0,.09,0,0,0,0,0,0v.11l0,0h0l0,.08v.1l0,0,0,0,0,.05,0,0,0,0,0-.06h0l0,0h0v0h0l0-.06,0,0H34l0,0-.05,0-.06,0,0-.05,0,0h-.1v-.09h0l0,0v0h-.05l-.1-.09h0v0l0,0v-.07l-.1,0v.06l-.06-.05,0,0h0v-.06l0-.07h-.05L33,30.35l0,0,0,0,0-.06h0l0,0,.05-.07-.14,0-.18-.1L32.77,30l0-.13-.07,0-.09,0-.1.1h0l0,0-.06.08h0v0h-.05V30h0v0h0l0-.11h-.08l0,0h0v0l0,0v-.08l-.06-.1,0,0,0,0,0,0v0l0,0,0,0,0-.05h0l0,0,.09-.15L32,29.2l-.08-.09H31.8v0l.1,0L32,29v-.06h0l0,0,.06,0v-.05l0,0v0l-.06-.06.06-.07v-.06l.05,0v-.07H32v0l0,0,0,0h0l0-.05,0-.06,0,0,0-.09.07,0,.06,0,0,0h.06l.06,0h.08l0,0h0v0h.06l0,.05,0,0,0,0,0,.05h.07l.06,0,0,0v0H33l0,.06,0,.05h.13l0-.07-.06-.06v0l0-.08.07,0,.06-.12.08,0Z"/><path class="cls-37" d="M42.84,38.73l0,0v0h-.05Zm.35,0,.06.06h-.06Zm-.12,0,0,0v0l0,0Zm-.19,0,.06,0,0,0,0,0v0Zm.24,0,0,.07,0,0,0,0,0,0Zm.2,0,0,0h0v-.05Zm-.38,0v.06l0,0Zm.4,0v0l0,0,0,0h0v0l0,0,0-.06Zm-.19,0v0l0,0Zm-.49,0,0,0v0l0,0Zm.14,0,0,0,0,.05v-.05Zm-.25,0v.13l0-.09Zm.86,0,0,.08-.05,0,0-.06v0Zm-.51,0h0l0,0,0,0,0-.06Zm.33,0,.06.05,0,.07-.05-.07Zm-.47,0v.08l0,0,0,0v-.09l0,0,0,0,0,0Zm-.2,0h0l0,.07,0,.08,0,0,0,0h0Zm.73,0,0,0h0Zm-.57,0v0l0,0,0,0v-.07Zm.65,0,0,0h0Zm-.18,0h0l0,.06,0,.07h-.05v-.08h-.05l0,0Zm-.26,0,0,.05v0l0-.06Zm.4,0,0,.06h0l-.06-.06Zm-.37,0v0h0v0Zm-.15,0v.06l0,0v-.06Zm.26,0,0,.05v0h0v0h0l0,0-.06,0v-.07Zm-.18,0,0,0v.06l-.05,0,0-.06Zm-.12,0h0l0,.06,0,0Zm.58,0h0v.05l0,0Zm-.17,0v0h0l0-.07Zm.11-.05,0,0v0l0,0,0,0Zm-.35,0v.05l0,0Zm-.26,0,0,.06h0v0h0v0h0l0-.07Zm.53,0,0,0,0,.12-.07-.06Zm-.73,0,0,.07v.07l0,.07v0l0,0-.07,0v0l0-.11Zm.66,0,0,0h0l0,.07v0Zm.19,0,.05,0v0l-.06,0Zm-.36,0,0,0v.09l0-.09Zm-.06,0v0l0,.05v0Zm-.12,0,0,0v0l-.05,0h0l0-.08Zm.27,0h0l0,0,0,.08-.06-.06Zm-.07,0h0l0,0Zm.2,0,.08,0,0,0,0,0,0,0Zm-.12,0h.08v0l0,0,0,0h0Zm0-.05v0h0v0h0l0,0Zm-.08,0,.05,0,0,.06-.05,0Zm-.53,0,0,.1,0,0,0-.09Zm.68,0h.09v.08h0l-.1,0v0Zm.23,0,0,.06v.06h0l-.05-.1v0Zm-.17,0,0,0h-.09Zm0,0,0,0h-.07v0h0l0,0,0,0Zm0-.09.06.1h-.05l0,0h0l0-.06Zm.1,0,0,0,0,.06,0,0v0l0,0v-.06h0v.07l0,.07v0l-.07,0,0-.07v-.07l0,0,0-.08h0Zm0,0,0,.07v.07h-.07l0-.07,0-.06Zm-.31,0,.1,0-.11.09.06.06v0l-.07,0,0-.08Zm.16,0-.07,0,0,.06h0l0,0,.11-.1h0Zm.1-.08v0l0,0v0ZM43.16,38l0,0,0,0,0,0h0l0,0v0Zm0-.07h.05l0,0h0v.07h0l0,0-.11,0h0l0-.09Zm.15,0V38l0,0,0,0,.07.09v0h0l0,0,0-.08h0v-.2Zm-.1-.16v.08l0,.06,0,0,0-.14Zm0,0h0l0,.12,0,0,0,.11,0,0v0l0,0,0-.08v-.08Zm-.93-5,.06,0v.07l0,0,.06,0,0,0h.07l0,0,.11,0,.1-.07v0H43l0,0,0,0,0,0h0l.12,0V33l0,0,0,0,0,0,0,0,.07,0,0,0h0l0,.06,0,0h.13l.12-.06,0,0h.06v0h.1l.06,0h0l0,0H44v0l.06,0,0,0v0h.09l0,.06,0,0,0,0h0v.1l0,0,0,.07h0v0l-.08,0v0h0v0h0l0,0,0,0,0,0,0,0,0,0h0l0,0,0,0h0l0,0v0h0l0,.06h0v0h0l0,0,0,0h0l0,0L44,34l-.07,0v.06h0v0h-.1v0l0,0h0l-.07,0v0h0v0l-.05,0-.06,0,0,0v-.06l0,0,0,0h-.06l0,0,0,0v0h-.06l-.07-.07,0,0h0l0,0v0h.07l0,0,0,0,0,0h0v0l-.1,0,0-.06h0l0,0,0,0h0l0,0v-.05h-.06v-.06l-.05,0,0,0h0L43,33.54v0h0v0H42.9v0h0l0-.06h0l0-.09,0,0,0,.13,0,0v0l.12,0,0,.11h0l0,0,0,0h0l-.06,0v.07l-.11,0-.07,0,0,.07h0v0h0l0,0-.06.1,0,0v.1l0,0,0,0h0l.06,0v0l.1.07,0,.05h0v.07h.06v0l.09.06h0l0,0h0v0h.06v0h0l0,.06,0,.06,0,0v0l.05,0,0,0,0,0h.08l0,0v0h0v0h0l-.07,0-.05,0,0,0h0l0,0H43l-.06,0-.06,0h-.06l0,.06,0,0V35l0,0,0,0-.06.07v0h-.06l0,0,0,0,0,0-.05,0v0l0,0-.09,0,0,.08,0,0v0h0l0,0h0v.06l-.06.05.14.18,0,0,.08,0,.06.06h.11l.09,0,0,0,0,0h0l0,0h.07l0,0V36l0,0v0h0v0h0v.11l0,0v0h0v.07h0l0,0h-.09l0,.05,0,0,0,0,0,.13h0v0H43l0,.06.08.08.06,0v.06h0v.08l0,0,0,0h-.05l0,0,.08,0h0v0l0,0h.06v0h.08l0,0h0l0,.07-.05,0v.09h0v0h0l0,0v0h0l0,0v0l0,0,0,.08,0,.07h0l0,.05-.07,0,0,0,0,0v.1l0,0h-.06l0,.09-.06.05v0H43l-.06.1,0,.07,0,.08v.06l0,0v0h0v.05l0,0,0-.06-.1,0,0,0v.09h0v-.06h0l-.06,0,0,.06h-.06l-.05-.12v0l0,0,0-.06,0-.06,0-.1,0,0h-.1l0-.1-.06.09-.06,0,0,0v-.13l0,0h0l.06.08V38l.07.07h.13l.05.09-.13.1h0l-.08.16,0,.06h0l-.1.1h0l-.06,0-.21,0,0,0,0-.06,0,0v0h-.07l0,0-.09,0,0-.15-.07,0v0l-.06,0v.05h-.07l0,0,0-.09,0,0-.06-.05h-.13l0-.06H41v-.08h.08v0h.07v0l-.06,0v-.08l-.08,0,0,0h0v0l0-.08H41l0-.1-.08-.05,0,0-.09-.08,0-.09,0,0,0,0,0,0v0h0l0-.05,0,0,0,0h-.08l0,0-.1,0-.08,0-.07,0v-.05l-.09,0v0h-.12L40.18,37h0V37l.05-.07v0h0l0,0v-.06h.07l.11,0,0-.06,0,0h.1v.11h.09v0h0l0,0,0,0h0l.08-.05h0v0l0,0,.06,0v0h.09l.06,0,.1,0h0v0h0l0-.08,0-.08,0,0,.05,0v0l0,0,0,0,0,0,.16.07h0l0,0,0,0,.07,0h0v-.09l0,0,0,0v-.06h0l0-.08h.1l0,0h0l0,0,.1,0,0,0h0l0,0h0v-.07l.08,0v0l0,0,0,0H42v0L42,36v0H42l0-.05h.05l0-.12h0l0-.09v0l0,0,0,0,0,0,.08,0h0l0,0,0,0h0l0,0h0v-.05l-.06,0,0,0,0,0v0h0l0,0v0h0v0l.09,0v0l-.09-.11-.1-.06v-.14l0,0,0,0,0-.05-.08,0v0h0v0l0-.05h0l0,0h0l0-.05h0l0,0,.06,0v0h0v0l0,0h0v0l0,0,0-.05,0,0h0v0l-.09,0,0,0h0v-.05h0l0,0-.09,0,0,0,0,0V34l.07,0,0,0h0v-.08l0,0,0,0h0l.08-.09.07,0,.08-.08,0,0h0v0l0,0,0,0v0h0l0,0,.06,0v0h-.07l0,0,0,0h0l.06-.11,0-.14v-.11l0,0v0l0,0v0l0,0,0,0h0v-.05l0,0,0-.07Z"/></svg>