<svg id="Layer_1" data-name="Layer 1" xmlns="http://www.w3.org/2000/svg" xmlns:xlink="http://www.w3.org/1999/xlink" viewBox="0 0 65 60"><defs><style>.cls-1{fill-rule:evenodd;fill:url(#linear-gradient);}</style><linearGradient id="linear-gradient" x1="427.39" y1="-235.97" x2="368.32" y2="-260.12" gradientTransform="matrix(1, 0, 0, -1, -363.5, -214)" gradientUnits="userSpaceOnUse"><stop offset="0" stop-color="#3c6a81"/><stop offset="1" stop-color="#96c1d6"/></linearGradient></defs><path class="cls-1" d="M10.64,38.64,31.4,18c1.1-1.09,1.23-1.14,2.37,0l20.7,20.61V59.32H39.09v-14a1.72,1.72,0,0,0-.5-1.21,1.82,1.82,0,0,0-1.22-.51H27.76a1.78,1.78,0,0,0-1.22.51A1.69,1.69,0,0,0,26,45.35v14H10.65V38.64ZM31.91,1.75,1.06,30.5l7.61,4L30.45,12.66c1.87-1.87,1.89-1.91,3.74-.08L56.45,34.46l7.61-4L33.16,1.71C32.61,1.2,32.53,1.13,31.91,1.75Z"/></svg>