<svg id="Layer_1" data-name="Layer 1" xmlns="http://www.w3.org/2000/svg" xmlns:xlink="http://www.w3.org/1999/xlink" viewBox="0 0 69 51"><defs><style>.cls-1{fill:url(#linear-gradient);}</style><linearGradient id="linear-gradient" x1="425.4" y1="-239.93" x2="367.44" y2="-269.76" gradientTransform="matrix(1, 0, 0, -1, -361.5, -229.5)" gradientUnits="userSpaceOnUse"><stop offset="0" stop-color="#427099"/><stop offset="1" stop-color="#81b2df"/></linearGradient></defs><path class="cls-1" d="M65.88,39.52a1.4,1.4,0,1,1,1.84,2.1c-8.49,7.41-12.8,4.6-17.2,1.73C35.6,33.61,34.52,58.18,17.33,47c-3.5-2.28-6.94-4.53-13.83,1.49a1.39,1.39,0,1,1-1.84-2.09c8.49-7.41,12.8-4.6,17.2-1.73,14.92,9.74,16-14.83,33.19-3.62C55.55,43.3,59,45.54,65.88,39.52ZM3.5,11.4A1.39,1.39,0,1,1,1.66,9.31c8.49-7.42,12.8-4.6,17.2-1.74C33.78,17.31,34.86-7.26,52.05,4,55.55,6.25,59,8.49,65.87,2.47a1.41,1.41,0,0,1,2,.13,1.39,1.39,0,0,1-.13,2C59.22,12,54.91,9.16,50.52,6.3c-14.92-9.74-16,14.83-33.19,3.61C13.83,7.62,10.39,5.38,3.5,11.4Zm0,12.35a1.39,1.39,0,1,1-1.84-2.09c8.49-7.41,12.8-4.6,17.2-1.73,14.92,9.73,16-14.84,33.19-3.62,3.5,2.29,6.93,4.53,13.82-1.49a1.41,1.41,0,0,1,2,.13,1.39,1.39,0,0,1-.13,2c-8.49,7.41-12.8,4.59-17.19,1.73-14.92-9.74-16,14.83-33.19,3.61C13.83,20,10.39,17.73,3.5,23.75Zm0,12.35A1.39,1.39,0,1,1,1.66,34c8.49-7.41,12.8-4.6,17.2-1.73,14.92,9.74,16-14.84,33.19-3.62C55.55,31,59,33.19,65.87,27.17a1.41,1.41,0,0,1,2,.13,1.39,1.39,0,0,1-.13,2c-8.49,7.41-12.8,4.59-17.19,1.73-14.92-9.74-16,14.83-33.19,3.61C13.83,32.33,10.39,30.08,3.5,36.1Z"/></svg>