<svg width="71" height="64" viewBox="0 0 71 64" fill="none" xmlns="http://www.w3.org/2000/svg">
<path d="M38.3176 6.33897H65.9744V3.67275H38.3176V0H32.6813V3.67275H5.02456V6.33897H32.6813V58.3624H24.4865V64H46.5124V58.3624H38.3176V6.33897Z" fill="url(#paint0_linear_1684_33363)"/>
<path d="M70.9405 33.9647L71 33.9487L63.1189 8.68381H61.5124L69.3989 33.9701H49.2391L57.1256 8.68381H55.5191L47.6002 34.0611L47.6651 34.0825C48.7902 38.2853 53.5718 41.4494 59.3163 41.4494C65.0608 41.4494 69.9344 38.2317 71 33.9701H70.9405V33.9647Z" fill="url(#paint1_linear_1684_33363)"/>
<path d="M15.4809 8.68381H13.8744L21.7609 33.9701H1.60651L9.49299 8.68381H7.88649L0 33.9487L0.0595002 33.9647H0C1.0656 38.2264 5.89052 41.4441 11.6837 41.4441C17.4768 41.4441 22.2098 38.2799 23.3349 34.0772L23.3998 34.0557L15.4809 8.68381Z" fill="url(#paint2_linear_1684_33363)"/>
<defs>
<linearGradient id="paint0_linear_1684_33363" x1="62.2278" y1="14.9511" x2="-0.266199" y2="51.3849" gradientUnits="userSpaceOnUse">
<stop stop-color="#8D3670"/>
<stop offset="1" stop-color="#AD799C"/>
</linearGradient>
<linearGradient id="paint1_linear_1684_33363" x1="62.2278" y1="14.9511" x2="-0.266199" y2="51.3849" gradientUnits="userSpaceOnUse">
<stop stop-color="#8D3670"/>
<stop offset="1" stop-color="#AD799C"/>
</linearGradient>
<linearGradient id="paint2_linear_1684_33363" x1="62.2278" y1="14.9511" x2="-0.266199" y2="51.3849" gradientUnits="userSpaceOnUse">
<stop stop-color="#8D3670"/>
<stop offset="1" stop-color="#AD799C"/>
</linearGradient>
</defs>
</svg>
