<svg width="70" height="55" viewBox="0 0 70 55" fill="none" xmlns="http://www.w3.org/2000/svg">
<path d="M30.0807 17.709C30.0825 17.6907 30.0844 17.6706 30.0862 17.6523C30.0807 17.6688 30.077 17.6852 30.0716 17.7017L30.0807 17.709Z" fill="url(#paint0_linear_1006_97)"/>
<path d="M0 34.832C0.330102 34.6806 0.667501 34.5985 1.04137 34.604C2.45297 34.6223 3.86639 34.6058 5.27799 34.6131C6.08592 34.6168 6.24459 34.7736 6.24459 35.5688C6.24824 40.4127 6.24824 45.2548 6.24459 50.0988C6.24459 50.8866 6.0768 51.0435 5.26887 51.0453C3.85727 51.049 2.44385 51.0362 1.03225 51.0544C0.654734 51.0599 0.319162 50.9833 0.00182555 50.7973C1.78107e-06 45.4755 0 40.1538 0 34.832Z" fill="url(#paint1_linear_1006_97)"/>
<path d="M70 25.4157C69.7374 25.6036 69.4584 25.6966 69.121 25.6929C67.62 25.6765 66.119 25.6692 64.6181 25.6966C63.9998 25.7075 63.75 25.4504 63.7518 24.8522C63.7573 19.9499 63.7573 15.0476 63.7518 10.1453C63.7518 9.5471 63.9998 9.2936 64.6199 9.30637C66.1209 9.33555 67.6218 9.32825 69.121 9.31184C69.4584 9.30819 69.7392 9.39208 70 9.58723C70 14.8616 70 20.1396 70 25.4157Z" fill="url(#paint2_linear_1006_97)"/>
<path fill-rule="evenodd" clip-rule="evenodd" d="M26.4603 31.2807C26.9041 31.7058 27.288 32.2335 27.5715 32.9043C27.5939 33.0115 27.6178 33.1184 27.6417 33.2253L27.6417 33.2254C27.7068 33.5166 27.7717 33.8073 27.807 34.1024C27.8314 34.3004 27.8877 34.4216 27.9981 34.4866L28 34.5L28.0099 34.4932C28.0884 34.5353 28.1929 34.5511 28.3305 34.5474C28.9694 34.5308 29.6105 34.5342 30.2513 34.5376H30.2515H30.2516H30.2518C30.454 34.5386 30.6562 34.5397 30.8582 34.5401C33.2783 34.5438 34.8668 35.8204 35.3246 38.1786C35.414 38.6418 35.5271 38.7312 35.9575 38.5087C37.9235 37.4928 39.6488 36.1742 41.0367 34.4471C43.5316 31.3412 44.666 27.8068 44.2009 23.8364C43.6282 18.9469 41.0604 15.1589 37.4438 11.9783C37.1812 11.7485 36.9879 11.7011 36.6815 11.9272C35.9265 12.4871 35.0474 12.7041 34.1136 12.7041C30.446 12.7041 26.7784 12.7041 23.1108 12.6968C22.2062 12.695 21.3363 12.5072 20.6031 11.9509C20.2548 11.6865 20.0451 11.7521 19.7405 12.0166C17.3404 14.0993 15.389 16.5122 14.1579 19.4649C12.7245 22.9063 12.4709 26.4043 13.6637 29.9734C13.7914 30.3564 13.9135 30.5242 14.3768 30.3655C15.2175 30.0774 16.1057 30.0135 16.9994 30.0172C17.4753 30.0195 17.9515 30.0249 18.4278 30.0303H18.4278H18.4278H18.4278C19.8203 30.0461 21.2131 30.0619 22.602 30.0008C24.1739 29.9326 25.4607 30.3308 26.4603 31.2807ZM29.5864 19.114L29.5823 17.7025L28.7969 17.7047L26.0711 17.7125L24.853 17.7159C24.3917 17.7172 24.0057 17.334 24.0044 16.8734C24.0031 16.4129 24.3869 16.0275 24.8482 16.0262L24.8866 16.0261L26.4495 16.0216L29.2902 16.0135L30.4231 16.0103L30.4237 16.0103L30.4243 16.0103L32.016 16.0058L33.2341 16.0023C33.6953 16.001 34.0813 16.3842 34.0827 16.8448C34.084 17.3054 33.7001 17.6908 33.2389 17.6921L33.2005 17.6922L31.6376 17.6966L31.2746 17.6977L31.2772 18.5855L31.279 19.2337L32.0233 19.2316L33.2414 19.2281C33.7026 19.2268 34.0886 19.61 34.0899 20.0706C34.0912 20.5311 33.7074 20.9165 33.2462 20.9178L33.2078 20.9179L31.6449 20.9224L31.1118 20.9239C31.0396 21.1778 30.9426 21.4239 30.8309 21.6653C30.4976 22.3859 29.9501 22.9887 29.3049 23.4444C28.6413 23.9132 27.8465 24.1673 27.0404 24.2309C26.949 24.2381 26.8573 24.2426 26.7654 24.2453L28.2035 25.6926L30.162 27.6636L31.0577 28.565C31.3824 28.8918 31.3878 29.4318 31.0611 29.7599C30.7377 30.0846 30.1892 30.0901 29.8645 29.7633L29.8635 29.7623L28.92 28.8128L26.9465 26.8266L25.0358 24.9037L24.4455 24.3097L24.3014 24.1647L24.2746 24.1377C24.1131 23.9751 24.024 23.7612 24.0234 23.5319L24.023 23.4062C24.0217 22.9456 24.4055 22.5602 24.8667 22.5589L24.8824 22.5588L26.0576 22.5555C26.1383 22.5553 26.2194 22.5558 26.3006 22.5563L26.3009 22.5563C26.5767 22.5581 26.8543 22.56 27.128 22.532C27.3754 22.4896 27.6175 22.4227 27.8515 22.332C28.0748 22.2286 28.2872 22.1037 28.4862 21.959C28.6746 21.8032 28.8474 21.6297 29.0024 21.4407C29.1193 21.2784 29.2231 21.1075 29.3128 20.929L28.8042 20.9305L26.0784 20.9382L24.8603 20.9417C24.399 20.943 24.013 20.5598 24.0117 20.0992C24.0104 19.6386 24.3942 19.2532 24.8554 19.2519L24.8939 19.2518L26.4567 19.2474L29.2974 19.2393L29.5871 19.2385C29.5868 19.1969 29.5865 19.1554 29.5864 19.114Z" fill="url(#paint3_linear_1006_97)"/>
<path d="M24.0209 36.7654C26.4319 36.7654 28.6861 36.7562 30.9403 36.769C32.2899 36.7763 33.1726 37.6918 33.1087 38.9448C33.0832 39.4427 32.9154 39.6506 32.3665 39.6469C29.1548 39.6232 25.9432 39.6414 22.7297 39.636C22.1078 39.6342 21.5862 39.7965 21.3618 40.4257C21.0901 41.188 21.6573 41.892 22.5619 41.9011C24.247 41.9193 25.934 41.9084 27.6192 41.9084C30.0795 41.9102 32.5397 41.9394 35 41.8938C35.7386 41.881 35.6803 42.3187 35.6857 42.7619C35.6894 43.2179 35.7131 43.6647 34.9982 43.6592C31.5585 43.6355 28.1189 43.6501 24.6793 43.6537C24.4075 43.6537 24.1285 43.6465 23.8622 43.6993C23.3388 43.8051 22.9649 44.3468 23.0215 44.8629C23.0817 45.41 23.5449 45.8751 24.0665 45.8769C27.0283 45.8842 29.9901 45.8806 32.9501 45.8933C33.2364 45.8952 33.6231 45.7274 33.7489 46.187C33.8911 46.7122 33.8656 47.2229 33.5775 47.697C33.5483 47.7463 33.417 47.7554 33.3367 47.7499C29.722 47.5037 26.1036 47.7062 22.4871 47.6533C21.7558 47.6423 21.3035 48.1202 21.3181 48.784C21.3327 49.4205 21.7704 49.8527 22.4762 49.8582C24.7996 49.871 27.1231 49.8892 29.4466 49.8509C30.0703 49.84 30.2418 50.0989 30.2691 50.6333C30.3184 51.5926 29.6655 52.4844 28.7244 52.6942C28.5037 52.7434 28.2721 52.7653 28.046 52.7653C24.1048 52.7544 20.1654 52.7489 16.2243 52.7179C14.5865 52.7051 13.102 52.1835 11.7579 51.2406C10.8296 50.5895 9.93227 49.8673 8.77965 49.6302C8.36565 49.5445 8.47873 49.24 8.47873 48.9901C8.47326 45.9882 8.47508 42.9881 8.47508 39.9861C8.47508 38.8499 8.48055 37.7119 8.47143 36.5757C8.46961 36.2821 8.48237 36.0851 8.85989 36.003C9.9578 35.7641 10.8496 35.1422 11.6685 34.3963C13.2862 32.9227 15.1756 32.1804 17.3878 32.2315C19.2098 32.2734 21.0317 32.2406 22.8555 32.2424C24.3163 32.2424 25.179 32.7859 25.5073 33.9093C25.8118 34.9617 25.365 35.8827 24.0209 36.7654Z" fill="url(#paint4_linear_1006_97)"/>
<path d="M45.9335 13.6852C47.5056 13.687 49.0758 13.6997 50.6479 13.6815C51.051 13.676 51.2407 13.7818 51.3574 14.1958C51.7057 15.4214 52.3732 16.4755 53.2924 17.3582C53.9927 18.0294 54.631 18.0841 55.1381 17.5625C55.6487 17.0391 55.5721 16.4153 54.8663 15.7369C54.104 15.0037 53.6079 14.132 53.3909 13.1034C53.3307 12.817 53.2723 12.5106 53.3088 12.2261C53.3982 11.5513 53.0735 11.4529 52.4899 11.462C50.5768 11.493 48.6637 11.4912 46.7505 11.4693C45.3298 11.4547 44.345 10.3933 44.4161 9.01083C44.4726 7.92387 45.3645 6.95362 46.559 6.92261C48.9245 6.86243 51.2954 6.7913 53.659 6.96456C55.4572 7.09587 57.0111 7.86733 58.3315 9.07831C59.1503 9.82971 60.0367 10.4443 61.1383 10.6832C61.4592 10.7525 61.5176 10.9331 61.5176 11.2158C61.5121 15.3995 61.514 19.5814 61.5158 23.7651C61.5158 24.0369 61.4939 24.2484 61.1583 24.3159C60.1935 24.5092 59.3966 25.0491 58.6415 25.6327C57.0275 26.8801 55.1873 27.4254 53.172 27.44C51.1221 27.4564 49.0722 27.4364 47.0223 27.4619C46.5609 27.4674 46.4314 27.3215 46.4733 26.8747C46.5317 26.2436 46.5499 25.6053 46.539 24.9725C46.5335 24.6661 46.6283 24.5585 46.9201 24.5694C47.1481 24.5785 47.3779 24.5858 47.6022 24.5621C48.2387 24.4928 48.66 24.0405 48.6637 23.4441C48.6673 22.8441 48.2551 22.3973 47.6168 22.3079C47.5275 22.2952 47.4344 22.2988 47.3433 22.297C46.2891 22.266 46.3055 22.2605 46.0192 21.2155C45.908 20.8143 45.8769 20.5754 46.3694 20.3948C46.8654 20.2124 47.0369 19.731 46.9238 19.2075C46.8016 18.6458 46.415 18.3814 45.8551 18.323C45.5706 18.2938 45.1949 18.4707 45.0161 18.2081C44.7243 17.7795 44.4891 17.2999 44.314 16.8129C44.19 16.4719 44.5383 16.5594 44.7097 16.5576C45.5979 16.5467 46.4861 16.5576 47.3743 16.5521C48.1822 16.5467 48.6527 16.1454 48.6655 15.4725C48.6783 14.7758 48.1931 14.3618 47.3524 14.3417C46.8764 14.3308 46.4004 14.3089 45.9225 14.2925C45.928 14.09 45.9298 13.8876 45.9335 13.6852Z" fill="url(#paint5_linear_1006_97)"/>
<path d="M28.5712 10.4224C26.7493 10.4224 24.9291 10.4279 23.1072 10.4206C21.8597 10.4151 21.0463 9.67646 21.0336 8.56031C21.0208 7.4551 21.8378 6.62711 23.0507 6.62164C26.762 6.60158 30.4734 6.6034 34.1829 6.62529C35.383 6.63258 36.2329 7.49158 36.211 8.56943C36.1873 9.64363 35.3246 10.4096 34.1027 10.4151C32.2589 10.4242 30.415 10.4169 28.5712 10.4169C28.5712 10.4187 28.5712 10.4206 28.5712 10.4224Z" fill="url(#paint6_linear_1006_97)"/>
<path d="M28.615 4.39316C27.0447 4.39316 25.4726 4.37857 23.9042 4.4041C23.5194 4.40957 23.3279 4.28555 23.202 3.93539C23.0415 3.48856 22.8136 3.06363 22.6512 2.61681C22.3357 1.74504 22.6129 0.811275 23.3096 0.293324C23.9115 -0.153499 24.6373 -0.0951437 25.4416 0.504877C26.0781 0.982705 26.7383 0.946232 27.3219 0.513999C28.2283 -0.155325 29.0563 -0.126145 29.939 0.535883C30.5372 0.984531 31.2065 0.958996 31.7737 0.499406C32.6291 -0.197275 33.5647 -0.0386051 34.0279 0.369919C34.7064 0.968116 34.876 1.85994 34.4784 2.85936C33.8693 4.38768 33.8693 4.38769 32.237 4.38951C31.0315 4.38951 29.8241 4.38951 28.6186 4.38951C28.615 4.38951 28.615 4.39133 28.615 4.39316Z" fill="url(#paint7_linear_1006_97)"/>
<path d="M45.9335 13.6852C45.9299 13.8877 45.928 14.0901 45.9244 14.2925C44.9687 14.3035 44.0149 14.3126 43.0592 14.3254C42.8714 14.3272 42.6963 14.3108 42.5741 14.143C41.9084 13.2329 41.1297 12.4159 40.2816 11.4766C41.1078 11.4766 41.8027 11.4858 42.4975 11.473C42.813 11.4675 42.9097 11.7083 43.0574 11.8998C43.7906 12.8554 44.7645 13.4281 45.9335 13.6852Z" fill="url(#paint8_linear_1006_97)"/>
<path d="M27.5572 32.8367C27.5171 32.7382 27.4788 32.6416 27.4386 32.5431C27.4642 32.523 27.4915 32.503 27.5171 32.4829C27.5645 32.5705 27.6119 32.6598 27.6593 32.7474C27.6247 32.7784 27.5918 32.8075 27.5572 32.8367Z" fill="url(#paint9_linear_1006_97)"/>
<defs>
<linearGradient id="paint0_linear_1006_97" x1="30.0789" y1="17.6523" x2="30.0789" y2="17.709" gradientUnits="userSpaceOnUse">
<stop stop-color="#82DCF0"/>
<stop offset="1" stop-color="#0FA2C2"/>
</linearGradient>
<linearGradient id="paint1_linear_1006_97" x1="3.12366" y1="34.6038" x2="3.12366" y2="51.0547" gradientUnits="userSpaceOnUse">
<stop stop-color="#82DCF0"/>
<stop offset="1" stop-color="#0FA2C2"/>
</linearGradient>
<linearGradient id="paint2_linear_1006_97" x1="66.8759" y1="9.30591" x2="66.8759" y2="25.6969" gradientUnits="userSpaceOnUse">
<stop stop-color="#82DCF0"/>
<stop offset="1" stop-color="#0FA2C2"/>
</linearGradient>
<linearGradient id="paint3_linear_1006_97" x1="28.6046" y1="11.7798" x2="28.6046" y2="38.625" gradientUnits="userSpaceOnUse">
<stop stop-color="#82DCF0"/>
<stop offset="1" stop-color="#0FA2C2"/>
</linearGradient>
<linearGradient id="paint4_linear_1006_97" x1="22.0756" y1="32.229" x2="22.0756" y2="52.7653" gradientUnits="userSpaceOnUse">
<stop stop-color="#82DCF0"/>
<stop offset="1" stop-color="#0FA2C2"/>
</linearGradient>
<linearGradient id="paint5_linear_1006_97" x1="52.9027" y1="6.85571" x2="52.9027" y2="27.4621" gradientUnits="userSpaceOnUse">
<stop stop-color="#82DCF0"/>
<stop offset="1" stop-color="#0FA2C2"/>
</linearGradient>
<linearGradient id="paint6_linear_1006_97" x1="28.6224" y1="6.60767" x2="28.6224" y2="10.4243" gradientUnits="userSpaceOnUse">
<stop stop-color="#82DCF0"/>
<stop offset="1" stop-color="#0FA2C2"/>
</linearGradient>
<linearGradient id="paint7_linear_1006_97" x1="28.6059" y1="0" x2="28.6059" y2="4.40427" gradientUnits="userSpaceOnUse">
<stop stop-color="#82DCF0"/>
<stop offset="1" stop-color="#0FA2C2"/>
</linearGradient>
<linearGradient id="paint8_linear_1006_97" x1="43.1076" y1="11.4729" x2="43.1076" y2="14.3255" gradientUnits="userSpaceOnUse">
<stop stop-color="#82DCF0"/>
<stop offset="1" stop-color="#0FA2C2"/>
</linearGradient>
<linearGradient id="paint9_linear_1006_97" x1="27.549" y1="32.4829" x2="27.549" y2="32.8367" gradientUnits="userSpaceOnUse">
<stop stop-color="#82DCF0"/>
<stop offset="1" stop-color="#0FA2C2"/>
</linearGradient>
</defs>
</svg>
