<svg width="58" height="56" viewBox="0 0 58 56" fill="none" xmlns="http://www.w3.org/2000/svg">
<path d="M47.036 42.8408C45.4445 46.0617 43.0514 48.8191 40.0865 50.848C37.1217 52.8769 33.6848 54.109 30.1062 54.4261C26.5277 54.7431 22.9277 54.1344 19.6523 52.6584C16.377 51.1823 13.5363 48.8886 11.4034 45.9977" stroke="url(#paint0_linear_1669_33389)" stroke-width="2"/>
<path d="M9.79405 23.6733C12.1202 19.3302 15.903 15.946 20.4774 14.1159" stroke="url(#paint1_linear_1669_33389)" stroke-width="2"/>
<path d="M46.7216 23.6733C44.3954 19.3302 40.6126 15.946 36.0382 14.1159" stroke="url(#paint2_linear_1669_33389)" stroke-width="2"/>
<path d="M28.2239 7.13534C29.9321 7.13534 31.2916 5.74095 31.2916 4.06767C31.2916 2.3944 29.8972 1 28.2239 1C26.5158 1 25.1562 2.3944 25.1562 4.06767C25.1562 5.74095 26.5158 7.13534 28.2239 7.13534ZM28.2239 1.80178C29.4789 1.80178 30.4898 2.81271 30.4898 4.06767C30.4898 5.32263 29.4789 6.33357 28.2239 6.33357C26.969 6.33357 25.958 5.32263 25.958 4.06767C25.958 2.81271 26.969 1.80178 28.2239 1.80178Z" fill="url(#paint3_linear_1669_33389)" stroke="url(#paint4_linear_1669_33389)" stroke-width="0.4"/>
<path d="M28.2242 7.51855C25.296 7.51855 22.8906 9.92389 22.8906 12.8521V13.7585C22.8906 14.0025 23.0649 14.1768 23.3089 14.1768C23.553 14.1768 23.7273 14.0025 23.7273 13.7585V12.8521C23.7273 10.3771 25.7491 8.32033 28.2591 8.32033C30.7341 8.32033 32.7908 10.3422 32.7908 12.8521V13.7585C32.7908 14.0025 32.9651 14.1768 33.2092 14.1768C33.4532 14.1768 33.6275 14.0025 33.6275 13.7585V12.8521C33.5578 9.92389 31.1524 7.51855 28.2242 7.51855Z" fill="url(#paint5_linear_1669_33389)" stroke="url(#paint6_linear_1669_33389)" stroke-width="0.4"/>
<path d="M55.2046 26.8174H41.1274C39.837 26.8174 38.7812 27.8732 38.7812 29.1636V37.9618C38.7812 39.2522 39.837 40.308 41.1274 40.308H55.2046C56.495 40.308 57.5508 39.2522 57.5508 37.9618V29.1636C57.5508 27.8732 56.495 26.8174 55.2046 26.8174ZM56.3777 37.9618C56.3777 38.607 55.8498 39.1349 55.2046 39.1349H41.1274C40.4822 39.1349 39.9543 38.607 39.9543 37.9618V29.1636C39.9543 28.5184 40.4822 27.9905 41.1274 27.9905H55.2046C55.8498 27.9905 56.3777 28.5184 56.3777 29.1636V37.9618Z" fill="url(#paint7_linear_1669_33389)"/>
<path d="M54.264 29.9257L48.1639 34.9114L42.0638 29.9257C41.8292 29.7498 41.4186 29.7498 41.2426 29.9844C41.0667 30.219 41.0667 30.6296 41.3013 30.8055L47.7533 36.0845C47.8706 36.2018 47.9879 36.2018 48.1052 36.2018C48.2225 36.2018 48.3398 36.1431 48.4572 36.0845L54.9092 30.8055C55.1438 30.6296 55.2025 30.219 54.9678 29.9844C54.8505 29.7498 54.4986 29.6911 54.264 29.9257Z" fill="url(#paint8_linear_1669_33389)"/>
<path d="M17.5431 34.1139C16.0372 30.5783 13.2873 27.8939 9.81726 26.4535C9.55537 26.3226 9.228 26.4535 9.09705 26.7809C8.96611 27.1082 9.09705 27.4356 9.42442 27.5665C12.6326 28.876 15.1206 31.4295 16.561 34.6377C16.6265 34.8341 16.8884 34.965 17.0848 34.965C17.1503 34.965 17.2158 34.965 17.2812 34.8996C17.5431 34.7686 17.6741 34.4412 17.5431 34.1139Z" fill="url(#paint9_linear_1669_33389)"/>
<path d="M9.1627 30.6427C11.0614 31.4284 12.6328 32.9997 13.4839 34.8984C13.5494 35.0949 13.7458 35.2258 14.0077 35.2258C14.0732 35.2258 14.1387 35.2258 14.2042 35.1603C14.466 35.0294 14.597 34.702 14.466 34.4401C13.4839 32.214 11.7816 30.5117 9.55554 29.5951C9.29365 29.4642 8.96628 29.5951 8.83534 29.9225C8.70439 30.1844 8.83534 30.5117 9.1627 30.6427Z" fill="url(#paint10_linear_1669_33389)"/>
<path d="M14.5977 37.388C14.2703 37.0607 13.9429 36.9297 13.6156 36.9297C13.2882 36.9297 12.8954 37.0607 12.6335 37.388C12.1751 37.8463 11.7168 38.3046 11.2585 38.763C11.193 38.8284 11.1276 38.8939 11.0621 38.8939C10.9966 38.8939 10.9311 38.8939 10.9311 38.8284C10.6038 38.632 10.2764 38.5011 10.0145 38.3701C8.63958 37.519 7.52654 36.4059 6.54444 35.1619C6.02065 34.5727 5.62781 33.9179 5.30044 33.1323C5.23497 33.0013 5.23497 32.8704 5.36591 32.7394C5.82423 32.2811 6.28254 31.8228 6.74086 31.3645C7.39559 30.7097 7.39559 29.9895 6.74086 29.3348C6.34801 28.942 6.02065 28.6146 5.62781 28.2218C5.23497 27.8289 4.9076 27.4361 4.51476 27.1087C4.18739 26.7813 3.86003 26.6504 3.53266 26.6504C3.20529 26.6504 2.81245 26.7813 2.55056 27.1087C2.09225 27.567 1.63393 28.0253 1.17562 28.4836C0.717306 28.8765 0.520886 29.4003 0.455412 29.9895C0.389939 30.9716 0.651833 31.8883 0.979199 32.8049C1.69941 34.6381 2.74698 36.3404 3.99097 37.8463C5.69328 39.876 7.78843 41.5128 10.2109 42.6914C11.324 43.2151 12.437 43.608 13.6156 43.6735C13.681 43.6735 13.7465 43.6735 13.812 43.6735C14.5322 43.6735 15.1869 43.477 15.7762 42.8223C16.169 42.364 16.6273 41.9712 17.0856 41.5128C17.7404 40.8581 17.7404 40.1379 17.0856 39.4832C16.1035 38.8939 15.3833 38.1082 14.5977 37.388ZM16.0381 40.8581C15.9071 40.9891 15.7762 41.12 15.5798 41.251C15.2524 41.5128 14.9905 41.8402 14.6631 42.1676C14.4012 42.4949 14.0739 42.6259 13.5501 42.6259C13.4846 42.6259 13.4191 42.6259 13.4191 42.6259C12.5025 42.5604 11.5859 42.2985 10.4074 41.7093C8.18127 40.5962 6.21707 39.0903 4.58023 37.1261C3.27077 35.5548 2.35414 34.0489 1.76488 32.412C1.43751 31.4954 1.30657 30.7752 1.30657 30.1205C1.30657 29.7931 1.43751 29.5312 1.69941 29.3348C2.02677 29.0729 2.28867 28.7455 2.55056 28.4836C2.74698 28.2872 2.9434 28.0908 3.07435 27.9599C3.20529 27.8289 3.27077 27.8289 3.27077 27.8289C3.27077 27.8289 3.40171 27.8289 3.46719 27.9599C3.72908 28.2218 3.99097 28.4836 4.18739 28.6801L4.58023 29.0729C4.77665 29.2693 4.97307 29.4657 5.16949 29.6622C5.36591 29.8586 5.49686 29.9895 5.69328 30.186C5.8897 30.3824 5.8897 30.4478 5.69328 30.6443L5.49686 30.8407C5.10402 31.2335 4.71118 31.6264 4.31834 32.0192C3.86003 32.4775 3.72908 33.0668 3.99097 33.656C4.31834 34.4417 4.77665 35.1619 5.43139 35.9476C6.60991 37.388 7.8539 38.5011 9.22884 39.3522C9.42526 39.4832 9.68716 39.6141 9.88358 39.6796C10.0145 39.7451 10.08 39.8105 10.2109 39.8105C10.4728 39.9415 10.6693 40.007 10.9311 40.007C11.193 40.007 11.5859 39.9415 11.9787 39.5486C12.437 39.0903 12.8954 38.632 13.3537 38.1737C13.4846 38.0428 13.5501 38.0428 13.5501 38.0428C13.5501 38.0428 13.681 38.0428 13.7465 38.1737C14.4667 38.8939 15.2524 39.6796 15.9726 40.3998C16.2345 40.5962 16.2345 40.6617 16.0381 40.8581Z" fill="url(#paint11_linear_1669_33389)"/>
<defs>
<linearGradient id="paint0_linear_1669_33389" x1="47.1124" y1="19.3554" x2="5.04819" y2="35.1907" gradientUnits="userSpaceOnUse">
<stop stop-color="#427099"/>
<stop offset="1" stop-color="#81B2DF"/>
</linearGradient>
<linearGradient id="paint1_linear_1669_33389" x1="47.1124" y1="19.3554" x2="5.04819" y2="35.1907" gradientUnits="userSpaceOnUse">
<stop stop-color="#427099"/>
<stop offset="1" stop-color="#81B2DF"/>
</linearGradient>
<linearGradient id="paint2_linear_1669_33389" x1="9.40327" y1="19.3554" x2="51.4674" y2="35.1907" gradientUnits="userSpaceOnUse">
<stop stop-color="#427099"/>
<stop offset="1" stop-color="#81B2DF"/>
</linearGradient>
<linearGradient id="paint3_linear_1669_33389" x1="30.8595" y1="2.0817" x2="24.9795" y2="4.29528" gradientUnits="userSpaceOnUse">
<stop stop-color="#427099"/>
<stop offset="1" stop-color="#81B2DF"/>
</linearGradient>
<linearGradient id="paint4_linear_1669_33389" x1="30.8595" y1="2.0817" x2="24.9795" y2="4.29528" gradientUnits="userSpaceOnUse">
<stop stop-color="#427099"/>
<stop offset="1" stop-color="#81B2DF"/>
</linearGradient>
<linearGradient id="paint5_linear_1669_33389" x1="32.8714" y1="8.69244" x2="24.2867" y2="13.9039" gradientUnits="userSpaceOnUse">
<stop stop-color="#427099"/>
<stop offset="1" stop-color="#81B2DF"/>
</linearGradient>
<linearGradient id="paint6_linear_1669_33389" x1="32.8714" y1="8.69244" x2="24.2867" y2="13.9039" gradientUnits="userSpaceOnUse">
<stop stop-color="#427099"/>
<stop offset="1" stop-color="#81B2DF"/>
</linearGradient>
<linearGradient id="paint7_linear_1669_33389" x1="56.229" y1="29.1959" x2="40.1125" y2="37.6372" gradientUnits="userSpaceOnUse">
<stop stop-color="#427099"/>
<stop offset="1" stop-color="#81B2DF"/>
</linearGradient>
<linearGradient id="paint8_linear_1669_33389" x1="54.1313" y1="30.9092" x2="44.9737" y2="38.4207" gradientUnits="userSpaceOnUse">
<stop stop-color="#427099"/>
<stop offset="1" stop-color="#81B2DF"/>
</linearGradient>
<linearGradient id="paint9_linear_1669_33389" x1="16.9926" y1="27.9128" x2="8.7973" y2="30.9929" gradientUnits="userSpaceOnUse">
<stop stop-color="#427099"/>
<stop offset="1" stop-color="#81B2DF"/>
</linearGradient>
<linearGradient id="paint10_linear_1669_33389" x1="14.1138" y1="30.5465" x2="8.63239" y2="32.6287" gradientUnits="userSpaceOnUse">
<stop stop-color="#427099"/>
<stop offset="1" stop-color="#81B2DF"/>
</linearGradient>
<linearGradient id="paint11_linear_1669_33389" x1="16.3703" y1="29.6517" x2="-0.0221983" y2="35.862" gradientUnits="userSpaceOnUse">
<stop stop-color="#427099"/>
<stop offset="1" stop-color="#81B2DF"/>
</linearGradient>
</defs>
</svg>
