<svg id="Layer_1" data-name="Layer 1" xmlns="http://www.w3.org/2000/svg" xmlns:xlink="http://www.w3.org/1999/xlink" viewBox="0 0 60 55"><defs><style>.cls-1{fill:url(#linear-gradient);}</style><linearGradient id="linear-gradient" x1="424.19" y1="-241.96" x2="369.93" y2="-264.31" gradientTransform="matrix(1, 0, 0, -1, -366, -223.5)" gradientUnits="userSpaceOnUse"><stop offset="0" stop-color="#192fab"/><stop offset="1" stop-color="#4d65f1"/></linearGradient></defs><path class="cls-1" d="M17.9,35.24a.69.69,0,0,1-.19.48.69.69,0,0,1-1,0,.69.69,0,0,1-.19-.48V17.68H2.27v33.6H4.63v1.36h-3A.68.68,0,0,1,.91,52V17.32a1,1,0,0,1,.3-.71,1,1,0,0,1,.32-.22,1,1,0,0,1,.38-.07H16.55V2.14a1.13,1.13,0,0,1,.09-.45,1,1,0,0,1,.25-.38A1.25,1.25,0,0,1,17.28,1,1.22,1.22,0,0,1,17.74,1H42a1.2,1.2,0,0,1,.84.35l0,.06a1.22,1.22,0,0,1,.31.79V16.33H57.91a1,1,0,0,1,.71.29,1,1,0,0,1,.29.7V52a.67.67,0,0,1-.2.48.72.72,0,0,1-.48.2H53.92V51.29h3.63V17.68H43.17V35a.7.7,0,0,1-.2.49.7.7,0,0,1-1,0,.7.7,0,0,1-.2-.49V2.31H17.9ZM20.92,7H25a.18.18,0,0,1,.09,0,.11.11,0,0,1,0,.08v4.06a.11.11,0,0,1,0,.08l-.09,0H20.87l0,0,0,0V7l0,0,0,0ZM34.73,7h4.05a.12.12,0,0,1,.08,0,.11.11,0,0,1,0,.08v4.06a.1.1,0,0,1-.11.11H34.84l-.09,0a.11.11,0,0,1,0-.08V7.07a.11.11,0,0,1,0-.08.18.18,0,0,1,.09,0Zm-7,0h4s.05,0,.08,0a.11.11,0,0,1,0,.08v4.06a.11.11,0,0,1,0,.08.13.13,0,0,1-.08,0h-4a.11.11,0,0,1-.08,0,.12.12,0,0,1,0-.08V7.07A.14.14,0,0,1,27.76,7ZM46.64,34.17h7.73v2.39H46.65V34.17Zm-41.28,0h7.75v2.39H5.38V34.17ZM45,48.85a22.31,22.31,0,0,1,3.83,1.72A4.16,4.16,0,0,1,50.92,54H41.48V52c1.31.17,3.84-.61,3.55-3.15Zm-31.79.31a2.26,2.26,0,0,0,4.32,0,2.22,2.22,0,0,0,.63.37,6.07,6.07,0,0,0-.24.59,7.6,7.6,0,0,0-.36,1.78,0,0,0,0,1,0,.05l-.14,2H7.9L8,52.66a2.87,2.87,0,0,1,.53-1.57,2.27,2.27,0,0,1,.71-.6c.86-.48,3.17-.64,4-1.34Zm-.58-5a.61.61,0,0,0-.27.08.18.18,0,0,0-.08.09.45.45,0,0,0,0,.16,1.44,1.44,0,0,0,.31.75l.67,1.09a5.53,5.53,0,0,0,.89,1.15,1.78,1.78,0,0,0,1.25.51,1.8,1.8,0,0,0,.72-.13,2,2,0,0,0,.61-.39,6.32,6.32,0,0,0,.91-1.26L18.38,45c.15-.34.19-.55.15-.65s-.16-.07-.36-.06a.58.58,0,0,1-.41-.07l.37-1.12a6,6,0,0,1-3.43-1c-.36-.23-.47-.5-.84-.47a1.19,1.19,0,0,0-.69.38,1.76,1.76,0,0,0-.4.78L13,44.16a.32.32,0,0,1-.18.06.29.29,0,0,1-.18,0Zm5.95-.33a.58.58,0,0,1,.21.1.49.49,0,0,1,.14.18,1.24,1.24,0,0,1,0,.54,1.16,1.16,0,0,1-.18.51v0L18,46.44a6.32,6.32,0,0,1-1,1.36,2.36,2.36,0,0,1-.76.49,2.42,2.42,0,0,1-.89.16,2.23,2.23,0,0,1-1.56-.63,6,6,0,0,1-1-1.27l-.68-1.06a2,2,0,0,1-.38-1,.67.67,0,0,1,.07-.37.6.6,0,0,1,.24-.28.66.66,0,0,1,.19-.09,15,15,0,0,1,0-1.9,2.17,2.17,0,0,1,.08-.43A2.53,2.53,0,0,1,13.49,40a3.14,3.14,0,0,1,.61-.3,3.79,3.79,0,0,1,3.89.77,2.64,2.64,0,0,1,.65,1.64l-.05,1.7Zm6.72-4.73a.8.8,0,0,0-.35.11.28.28,0,0,0-.12.14.45.45,0,0,0,0,.23,2.28,2.28,0,0,0,.47,1.12l1,1.59A8.42,8.42,0,0,0,27.59,44a2.66,2.66,0,0,0,1.89.75,2.76,2.76,0,0,0,1.06-.19,2.91,2.91,0,0,0,.91-.59,9,9,0,0,0,1.37-1.89l1.11-1.85c.23-.51.3-.83.23-.94s-.24-.12-.58-.09h-.1a1.12,1.12,0,0,1-.47-.11l.5-1.68c-3.4,0-6.29-2.36-7.4-1.15-.27.29-.47.23-.6.73l.36,2a.73.73,0,0,1-.3.06.72.72,0,0,1-.29-.06Zm.94,7.43c1.36,4,5.25,3.89,6.44,0A8.74,8.74,0,0,0,36,47.81c3,.77,3.77,1.68,4.07,4.86,0,.37.07.79.1,1.26H18.76l.16-2.16a4.4,4.4,0,0,1,.8-2.37,3.32,3.32,0,0,1,1.07-.9c1.28-.72,4.28-.94,5.44-2Zm8-7.94a.83.83,0,0,1,.31.16.64.64,0,0,1,.22.27,1.93,1.93,0,0,1-.21,1.57v0l-1.14,1.89a9.4,9.4,0,0,1-1.48,2,3.43,3.43,0,0,1-2.45,1,3.28,3.28,0,0,1-2.34-.94,9.22,9.22,0,0,1-1.45-1.89l-1-1.59a3,3,0,0,1-.57-1.48,1.28,1.28,0,0,1,.1-.55,1,1,0,0,1,.37-.43,1.74,1.74,0,0,1,.27-.14c-.06-.92-.07-1.85,0-2.78a4.94,4.94,0,0,1,.12-.65,3.79,3.79,0,0,1,1.69-2.14,4.25,4.25,0,0,1,.91-.44,5.63,5.63,0,0,1,5.81,1.16,3.85,3.85,0,0,1,1,2.44l-.07,2.52Zm3.43,8.68h1.61a6.47,6.47,0,0,1,1.48-7.09,4.67,4.67,0,0,0,.94,1.63,4.59,4.59,0,0,0,1.51,1.11,12.92,12.92,0,0,1,1.84,1.7c.11-.43-.29-.94-.78-1.5a2.36,2.36,0,0,1,1.16,1.13,3.25,3.25,0,0,1,.22,2,4.89,4.89,0,0,1-.26,1h1.21c1.28-2.74.47-6.81-2.15-8.54a3.52,3.52,0,0,0-2.32-.51,3.73,3.73,0,0,0-2.55.65,6.46,6.46,0,0,0-2.55,4.63c-.07,1.08-.12,2.94.64,3.81Zm9.07-18.78h7.5c.06,0,.12,0,.12.09V30.8c0,.05-.06.08-.12.08h-7.5c-.06,0-.12,0-.12-.08V28.58S46.71,28.49,46.77,28.49Zm0-5.75h7.5c.06,0,.12,0,.12.09v2.23s-.06.08-.12.08h-7.5c-.06,0-.12,0-.12-.08V22.84c0-.05.06-.09.12-.09ZM5.5,28.49H13a.1.1,0,0,1,.11.09V30.8c0,.05,0,.08-.11.08H5.5c-.07,0-.12,0-.12-.08V28.58S5.43,28.49,5.5,28.49Zm0-5.75H13a.1.1,0,0,1,.11.09v2.23s0,.08-.11.08H5.5c-.07,0-.12,0-.12-.08V22.84c0-.05,0-.09.12-.09ZM34.76,25h4.05l0,0,0,0a.09.09,0,0,1,0,.05v4a.1.1,0,0,1-.11.11h-4a.1.1,0,0,1-.11-.11v-4a.09.09,0,0,1,0-.05l0,0,0,0h.06Zm-6.91,0h4a.11.11,0,0,1,.08,0,.12.12,0,0,1,0,.08v4a.12.12,0,0,1,0,.08.11.11,0,0,1-.08,0h-4a.13.13,0,0,1-.08,0,.11.11,0,0,1,0-.08v-4a.09.09,0,0,1,0-.05l0,0,0,0h0Zm-6.88,0h4a.11.11,0,0,1,.08,0,.09.09,0,0,1,0,.08v4a.09.09,0,0,1,0,.08.11.11,0,0,1-.08,0H21a.11.11,0,0,1-.08,0,.12.12,0,0,1,0-.08v-4s0,0,0-.05l0,0,0,0h0Zm13.77-9.59h4a.11.11,0,0,1,.08,0,.13.13,0,0,1,0,.08v4a.1.1,0,0,1-.11.11h-4a.1.1,0,0,1-.11-.11v-4a.1.1,0,0,1,.11-.11Zm-6.89,0h4a.11.11,0,0,1,.08,0s0,.05,0,.08v4a.12.12,0,0,1,0,.08.11.11,0,0,1-.08,0h-4a.13.13,0,0,1-.08,0,.11.11,0,0,1,0-.08v-4a.11.11,0,0,1,0-.08.13.13,0,0,1,.08,0Zm-6.88,0h4a.11.11,0,0,1,.08,0,.1.1,0,0,1,0,.08v4a.09.09,0,0,1,0,.08.11.11,0,0,1-.08,0H21a.11.11,0,0,1-.08,0,.12.12,0,0,1,0-.08v-4a.12.12,0,0,1,0-.08.11.11,0,0,1,.08,0Z"/></svg>