<svg id="Layer_1" data-name="Layer 1" xmlns="http://www.w3.org/2000/svg" xmlns:xlink="http://www.w3.org/1999/xlink" viewBox="0 0 60 55"><defs><style>.cls-1{fill-rule:evenodd;fill:url(#linear-gradient);}.cls-2{fill:url(#linear-gradient-2);}</style><linearGradient id="linear-gradient" x1="420.36" y1="-245.17" x2="372.42" y2="-272.42" gradientTransform="matrix(1, 0, 0, -1, -366, -223.5)" gradientUnits="userSpaceOnUse"><stop offset="0" stop-color="#7a7d84"/><stop offset="1" stop-color="#afb2b8"/></linearGradient><linearGradient id="linear-gradient-2" x1="421.25" y1="-225.65" x2="396.68" y2="-242.85" xlink:href="#linear-gradient"/></defs><path class="cls-1" d="M33.25,44.89v7.37a1.83,1.83,0,0,0,.62,1.29,1.91,1.91,0,0,0,1.37.5,2,2,0,0,0,1.38-.5,1.88,1.88,0,0,0,.61-1.31V44.88h.94v7.36a1.87,1.87,0,0,0,.62,1.3,2.13,2.13,0,0,0,2.74,0,1.83,1.83,0,0,0,.62-1.3V44.88H45l-2.83-13c.1.21.19.43.29.64a23.34,23.34,0,0,1,1.48,4.77,1.88,1.88,0,0,0,1.8,1.48h0a1.48,1.48,0,0,0,.72-.09,1.38,1.38,0,0,0,.58-.43,1.85,1.85,0,0,0,.49-.74,1.8,1.8,0,0,0,.07-.89l0-.21a17.86,17.86,0,0,1,.7-2.4c.1-.27.21-.53.32-.79v.51l-2,9h1.92v5a1.3,1.3,0,0,0,.42.91,1.31,1.31,0,0,0,1,.36,1.34,1.34,0,0,0,.95-.36,1.3,1.3,0,0,0,.42-.91v-5h.85v5a1.28,1.28,0,0,0,.41.91,1.34,1.34,0,0,0,1,.36,1.33,1.33,0,0,0,1-.36,1.3,1.3,0,0,0,.42-.91v-5H57l-2.13-9.21v-.19c.11.25.21.51.31.77a17.1,17.1,0,0,1,.93,3.61,1.41,1.41,0,0,0,.59.75,1.5,1.5,0,0,0,.95.2,1.42,1.42,0,0,0,.86-.45,1.36,1.36,0,0,0,.36-.88,19.8,19.8,0,0,0-1-4.14,17.78,17.78,0,0,0-1.89-3.68,1.33,1.33,0,0,0-.46-.42,1.37,1.37,0,0,0-.6-.19,16.44,16.44,0,0,0-6.3-.12A1.55,1.55,0,0,0,48,29a1.46,1.46,0,0,0-.46.43,17.23,17.23,0,0,0-1.32,2.33c-.08-.21-.17-.42-.26-.62a23.31,23.31,0,0,0-2.76-4.82A1.85,1.85,0,0,0,42,25.62a23.67,23.67,0,0,0-8.64,0,1.88,1.88,0,0,0-1.24.73,23.54,23.54,0,0,0-2.49,4.18,22.25,22.25,0,0,0-2.24-4.23,1.84,1.84,0,0,0-.53-.51,1.82,1.82,0,0,0-.7-.27v0a21.51,21.51,0,0,0-8.65-.07v0a1.86,1.86,0,0,0-.8.24,1.64,1.64,0,0,0-.61.56,23.13,23.13,0,0,0-2.51,4.93l-.09.22a17.37,17.37,0,0,0-1.2-2.09,1.57,1.57,0,0,0-.46-.43,1.65,1.65,0,0,0-.61-.18c-.67-.28-6-.46-6.68.06a1.45,1.45,0,0,0-.74.55A18.28,18.28,0,0,0,2,33a19.8,19.8,0,0,0-1,4.14,1.3,1.3,0,0,0,.37.87,1.38,1.38,0,0,0,.85.44,1.44,1.44,0,0,0,1-.19,1.39,1.39,0,0,0,.59-.74,17.56,17.56,0,0,1,.85-3.43V47.67a1.25,1.25,0,0,0,.12.54,1.42,1.42,0,0,0,.32.45,1.57,1.57,0,0,0,.47.3,1.53,1.53,0,0,0,.56.09A1.35,1.35,0,0,0,6.55,49a1.57,1.57,0,0,0,.47-.3,1.2,1.2,0,0,0,.32-.45,1.41,1.41,0,0,0,.11-.54V40.26h.91v7.41a1.63,1.63,0,0,0,.12.54,1.6,1.6,0,0,0,.32.45,1.5,1.5,0,0,0,.48.3,1.45,1.45,0,0,0,.55.09,1.35,1.35,0,0,0,.56-.09,1.45,1.45,0,0,0,.47-.3,1.2,1.2,0,0,0,.32-.45,1.24,1.24,0,0,0,.11-.54V33.18c.11.25.22.51.32.77a16.57,16.57,0,0,1,.68,2.31l-.07.46A1.73,1.73,0,0,0,12.57,38a1.86,1.86,0,0,0,2.55.34,1.77,1.77,0,0,0,.7-1.17A23,23,0,0,1,17,32.38c.17-.46.34-.87.53-1.28V52.22a1.84,1.84,0,0,0,.61,1.29,2.14,2.14,0,0,0,2.75,0,1.89,1.89,0,0,0,.62-1.29V40.71h.67V52.22a1.85,1.85,0,0,0,.62,1.29,2.13,2.13,0,0,0,2.74,0,1.81,1.81,0,0,0,.62-1.29V31.58c.12.28.23.57.34.86a23,23,0,0,1,1.14,4.39A1.84,1.84,0,0,0,28.17,38a1.93,1.93,0,0,0,2.42.32,1.9,1.9,0,0,0,.78-1,22.77,22.77,0,0,1,1.46-4.76c.14-.34.3-.68.47-1L30.42,44.91ZM51.76,21.8a3,3,0,0,1,1.69.5,3,3,0,0,1,1.13,1.33,2.87,2.87,0,0,1,.17,1.71,3,3,0,0,1-.83,1.52,3.11,3.11,0,0,1-3.32.64,3,3,0,0,1-1.87-2.74,2.91,2.91,0,0,1,.89-2.09A3.05,3.05,0,0,1,51.76,21.8ZM8,21.43A3.28,3.28,0,0,1,9.77,22,3.21,3.21,0,0,1,11,23.39a3.11,3.11,0,0,1,.19,1.83,3.18,3.18,0,0,1-.9,1.63,3.26,3.26,0,0,1-1.66.87,3.35,3.35,0,0,1-1.88-.18,3.26,3.26,0,0,1-1.47-1.17A3.19,3.19,0,0,1,4.7,24.6a3.13,3.13,0,0,1,1-2.24A3.28,3.28,0,0,1,8,21.43Zm13.79-5.76a4.4,4.4,0,0,1,2.4.7,4.34,4.34,0,0,1,1.58,1.89A4.11,4.11,0,0,1,26,20.68a4.2,4.2,0,0,1-1.18,2.15A4.3,4.3,0,0,1,22.59,24a4.38,4.38,0,0,1-2.48-.24,4.33,4.33,0,0,1-1.94-1.54,4.17,4.17,0,0,1-.72-2.34,4.11,4.11,0,0,1,1.26-3A4.35,4.35,0,0,1,21.75,15.67Zm15.83,0a4.4,4.4,0,0,1,2.4.7,4.27,4.27,0,0,1,1.58,1.89,4.11,4.11,0,0,1,.25,2.42,4.2,4.2,0,0,1-1.18,2.15A4.3,4.3,0,0,1,38.42,24a4.38,4.38,0,0,1-2.48-.24A4.25,4.25,0,0,1,34,22.2a4.11,4.11,0,0,1,.53-5.3A4.35,4.35,0,0,1,37.58,15.67Z"/><path class="cls-2" d="M36.77,5.09l-11.32,10h6.3l5-4.51,4.29,4.83c2.54,2.57,3.75,2.52,6.29,0,2-2,6.76-6.56,8.76-8.62l2.8,2.83V.84L50.33.91l2.91,3-9.05,9.19C41.71,10.58,39.28,7.57,36.77,5.09Z"/></svg>