<svg width="70" height="73" viewBox="0 0 70 73" fill="none" xmlns="http://www.w3.org/2000/svg">
<g clip-path="url(#clip0_964_33780)">
<path d="M52.0869 72.8423H0V0H52.0869V72.8423ZM1.322 71.5203H50.7649V1.322H1.322V71.5203ZM42.3702 68.7441L39.9906 67.6204L37.611 68.7441L36.3551 66.4306L33.7771 65.9679L34.1077 63.39L32.389 61.5392L34.1738 59.6223L33.8433 57.0444L36.4212 56.5817L37.6771 54.2682L40.0567 55.3919L42.4363 54.2682L43.6922 56.5817L46.2701 57.0444L45.9396 59.6223L47.7243 61.5392L45.9396 63.4561L46.2701 66.034L43.6922 66.4967L42.3702 68.7441ZM39.9906 66.1662L41.7753 67.0255L42.7007 65.3069L44.6176 64.9764L44.3532 62.9934L45.7413 61.5392L44.3532 60.085L44.6176 58.102L42.6346 57.7715L41.7092 56.0529L39.9245 56.9122L38.1398 56.0529L37.2144 57.7715L35.2975 58.102L35.5619 60.085L34.1738 61.5392L35.5619 62.9934L35.2975 64.9764L37.2144 65.3069L38.1398 67.0255L39.9906 66.1662ZM46.4684 43.1634H5.61851C4.36261 43.1634 3.3711 42.3702 3.3711 41.3787C3.3711 40.3872 4.36261 39.6601 5.61851 39.6601H46.4684C47.7243 39.6601 48.7158 40.4533 48.7158 41.4448C48.7158 42.4363 47.7904 43.1634 46.4684 43.1634ZM5.61851 40.9821C5.02361 40.9821 4.69311 41.2465 4.69311 41.4448C4.69311 41.577 5.02361 41.9075 5.61851 41.9075H46.4684C47.0633 41.9075 47.3938 41.6431 47.3938 41.4448C47.3938 41.3126 47.0633 40.9821 46.4684 40.9821H5.61851ZM46.4684 38.6025H5.61851C4.36261 38.6025 3.3711 37.8093 3.3711 36.8178C3.3711 35.8262 4.36261 35.033 5.61851 35.033H46.4684C47.7243 35.033 48.7158 35.8262 48.7158 36.8178C48.7819 37.8754 47.7904 38.6025 46.4684 38.6025ZM5.61851 36.4212C5.02361 36.4212 4.69311 36.6856 4.69311 36.8839C4.69311 37.0821 5.02361 37.3465 5.61851 37.3465H46.4684C47.0633 37.3465 47.3938 37.0821 47.3938 36.8839C47.3938 36.6856 47.0633 36.4212 46.4684 36.4212H5.61851ZM46.4684 34.1076H5.61851C4.36261 34.1076 3.3711 33.3144 3.3711 32.3229C3.3711 31.3314 4.36261 30.5382 5.61851 30.5382H46.4684C47.7243 30.5382 48.7158 31.3314 48.7158 32.3229C48.7819 33.3144 47.7904 34.1076 46.4684 34.1076ZM5.61851 31.8602C5.02361 31.8602 4.69311 32.1246 4.69311 32.3229C4.69311 32.4551 5.02361 32.7856 5.61851 32.7856H46.4684C47.0633 32.7856 47.3938 32.5212 47.3938 32.3229C47.3938 32.1907 47.0633 31.8602 46.4684 31.8602H5.61851ZM46.4684 29.5467H5.61851C4.36261 29.5467 3.3711 28.7535 3.3711 27.762C3.3711 26.7705 4.36261 25.9773 5.61851 25.9773H46.4684C47.7243 25.9773 48.7158 26.7705 48.7158 27.762C48.7819 28.7535 47.7904 29.5467 46.4684 29.5467ZM5.61851 27.3654C5.02361 27.3654 4.69311 27.6298 4.69311 27.8281C4.69311 27.9603 5.02361 28.2908 5.61851 28.2908H46.4684C47.0633 28.2908 47.3938 28.0264 47.3938 27.8281C47.3938 27.6959 47.0633 27.3654 46.4684 27.3654H5.61851ZM40.7838 16.7894H11.3031C10.0472 16.7894 9.05571 15.9962 9.05571 15.0047C9.05571 14.0132 10.0472 13.22 11.3031 13.22H40.8499C42.1058 13.22 43.0973 14.0132 43.0973 15.0047C43.0973 15.9962 42.1058 16.7894 40.7838 16.7894ZM11.3031 14.542C10.7082 14.542 10.3777 14.8064 10.3777 15.0047C10.3777 15.1369 10.7082 15.4674 11.3031 15.4674H40.8499C41.4448 15.4674 41.7753 15.203 41.7753 15.0047C41.7753 14.8725 41.4448 14.542 40.8499 14.542H11.3031Z" fill="url(#paint0_linear_964_33780)"/>
<path d="M64.8459 15.4676H58.5664L58.6986 14.8727C60.3511 7.00684 61.3426 7.00684 61.7392 7.00684C62.1358 7.00684 63.1273 7.00684 64.7798 14.8727L64.8459 15.4676ZM59.7562 14.4761H63.59C62.9951 11.766 62.2019 8.85764 61.6731 8.06444C61.2104 8.85764 60.3511 11.766 59.7562 14.4761Z" fill="url(#paint1_linear_964_33780)"/>
<path d="M64.7101 41.9077H58.6289V15.8643H64.7101V41.9077ZM59.6204 40.9162H63.7186V16.8558H59.6204V40.9162Z" fill="url(#paint2_linear_964_33780)"/>
<path d="M61.6699 71.5868C60.9428 71.5868 60.2818 71.3224 59.8191 70.7936C58.5632 69.4716 58.6954 66.8276 58.6954 66.7615V66.2988H64.7105V66.7615C64.7105 66.8937 64.8427 69.4716 63.5868 70.7936C63.058 71.3224 62.4631 71.5868 61.6699 71.5868ZM59.6208 67.2903C59.6208 68.0174 59.8191 69.4055 60.4801 70.1326C60.8106 70.4631 61.1411 70.5953 61.6699 70.5953C62.1987 70.5953 62.5292 70.4631 62.8597 70.1326C63.5868 69.4055 63.719 68.0174 63.719 67.2903H59.6208Z" fill="url(#paint3_linear_964_33780)"/>
<path d="M68.7428 65.703H58.8278L58.6956 65.4386C58.6295 65.3725 54.5974 55.3914 58.6956 43.0307L58.8278 42.7002H64.5785L64.7107 43.0307C64.7768 43.1629 65.3717 44.6832 65.9005 47.195H69.1394L69.2055 47.5916C71.0563 55.5897 68.9411 64.9759 68.8089 65.3725L68.7428 65.703ZM59.4888 64.7115H67.9496C68.2801 62.9929 69.6682 55.8541 68.5445 49.3102C68.6767 51.6237 69.0733 59.4896 67.8174 64.2488L67.7513 64.6454H63.9175L64.1158 63.9844C67.1564 53.6728 64.5124 45.3442 63.9175 43.6917H59.4888C56.1177 54.3338 58.8939 62.9929 59.4888 64.7115ZM65.2395 63.6539H67.0242C68.214 58.6964 67.6852 50.4339 67.6191 48.9797L66.0327 47.856C66.6276 51.5576 67.0242 57.1761 65.2395 63.6539ZM68.0818 48.1865L68.3462 48.3848C68.3462 48.3187 68.3462 48.2526 68.2801 48.1865H68.0818Z" fill="url(#paint4_linear_964_33780)"/>
</g>
<defs>
<linearGradient id="paint0_linear_964_33780" x1="48.4189" y1="12.8425" x2="-4.72405" y2="27.1482" gradientUnits="userSpaceOnUse">
<stop stop-color="#07338C"/>
<stop offset="1" stop-color="#3265CB"/>
</linearGradient>
<linearGradient id="paint1_linear_964_33780" x1="64.4037" y1="8.49853" x2="58.0302" y2="10.2793" gradientUnits="userSpaceOnUse">
<stop stop-color="#07338C"/>
<stop offset="1" stop-color="#3265CB"/>
</linearGradient>
<linearGradient id="paint2_linear_964_33780" x1="64.2819" y1="20.4559" x2="57.6788" y2="21.0363" gradientUnits="userSpaceOnUse">
<stop stop-color="#07338C"/>
<stop offset="1" stop-color="#3265CB"/>
</linearGradient>
<linearGradient id="paint3_linear_964_33780" x1="64.2904" y1="67.2311" x2="58.7234" y2="69.6182" gradientUnits="userSpaceOnUse">
<stop stop-color="#07338C"/>
<stop offset="1" stop-color="#3265CB"/>
</linearGradient>
<linearGradient id="paint4_linear_964_33780" x1="69.0384" y1="46.7557" x2="55.3326" y2="49.6945" gradientUnits="userSpaceOnUse">
<stop stop-color="#07338C"/>
<stop offset="1" stop-color="#3265CB"/>
</linearGradient>
<clipPath id="clip0_964_33780">
<rect width="70" height="72.8423" fill="white"/>
</clipPath>
</defs>
</svg>
