<svg id="Layer_1" data-name="Layer 1" xmlns="http://www.w3.org/2000/svg" xmlns:xlink="http://www.w3.org/1999/xlink" viewBox="0 0 53 62"><defs><style>.cls-1{fill:url(#linear-gradient);}.cls-2{fill:none;stroke:url(#linear-gradient-2);}</style><linearGradient id="linear-gradient" x1="329.86" y1="-317.59" x2="281.68" y2="-335.63" gradientTransform="matrix(1, 0, 0, -1, -279.5, -301)" gradientUnits="userSpaceOnUse"><stop offset="0" stop-color="#ad8716"/><stop offset="1" stop-color="#ddb12f"/></linearGradient><linearGradient id="linear-gradient-2" x1="312.85" y1="-348.3" x2="297.33" y2="-364.3" xlink:href="#linear-gradient"/></defs><path class="cls-1" d="M21.32,34l3.62,6-1.53.92-3.62-6ZM16,33.61c.72,1.12,1.36,2.09,1.92,2.93,3.35,5,3.7,5.57,3.72,13.7h7.85c.2-8.08,1-9.92,3.62-16,.33-.76.69-1.59,1.06-2.46-.2-.15-.4-.32-.6-.49a14.56,14.56,0,0,1-1.17,1.09,8.15,8.15,0,0,1-5.52,2.12,8.81,8.81,0,0,1-5.41-2.41,16,16,0,0,1-1.31-1.3A15.54,15.54,0,0,1,16,33.61Zm-1.71.63a10.23,10.23,0,0,1-2.33.39A8.57,8.57,0,0,1,7.06,33.5a8.43,8.43,0,0,1-3.33-3.75C2.61,27.29,2.39,24,3.57,20.11a11.16,11.16,0,0,1-2.1-7.77,9.63,9.63,0,0,1,2.6-5.41A12.41,12.41,0,0,1,9.55,3.64,17.87,17.87,0,0,1,21.94,4.79c.47-.37.94-.71,1.41-1a11.64,11.64,0,0,1,8.3-2.13c2.78.43,5.51,2.07,8.08,5.16a24.59,24.59,0,0,1,1.55,2.06,12,12,0,0,1,7.4,2,7,7,0,0,1,2.55,3.28,6.31,6.31,0,0,1,0,4.14A11.5,11.5,0,0,1,46.56,24a14.8,14.8,0,0,1-1.73,6,7.46,7.46,0,0,1-3.29,3.19,6.08,6.08,0,0,1-4.48.21,9.31,9.31,0,0,1-1.41-.6c-.34.81-.65,1.52-.93,2.18-2.62,6.08-3.34,7.76-3.5,16.22l0,.88H19.82v-.89c0-8.46-.23-8.81-3.42-13.61C15.8,36.62,15.09,35.57,14.25,34.24Zm13.34,6.65v5.62H25.28V44.73h.52V40.9h1.79Z"/><path class="cls-2" d="M11.4,58.9V51.83l0,0a3.51,3.51,0,0,1,.74-.27A22,22,0,0,1,15.24,51a95.54,95.54,0,0,1,10.29-.49A95.68,95.68,0,0,1,35.82,51a22.51,22.51,0,0,1,3.06.52,3.75,3.75,0,0,1,.74.27l0,0V58.9l0,0a3.75,3.75,0,0,1-.74.27,22.51,22.51,0,0,1-3.06.52,93.14,93.14,0,0,1-10.29.49,93,93,0,0,1-10.29-.49,22,22,0,0,1-3.06-.52,3.51,3.51,0,0,1-.74-.27Z"/></svg>