<svg id="Layer_1" data-name="Layer 1" xmlns="http://www.w3.org/2000/svg" xmlns:xlink="http://www.w3.org/1999/xlink" viewBox="0 0 38 57"><defs><style>.cls-1{fill-rule:evenodd;fill:url(#linear-gradient);}</style><linearGradient id="linear-gradient" x1="324.76" y1="-334.34" x2="287.63" y2="-343.49" gradientTransform="matrix(1, 0, 0, -1, -287, -310.5)" gradientUnits="userSpaceOnUse"><stop offset="0" stop-color="#815520"/><stop offset="1" stop-color="#d39140"/></linearGradient></defs><path class="cls-1" d="M10.35,6.64c2,0,3.58.72,3.58,1.61s-1.6,1.61-3.58,1.61S6.77,9.14,6.77,8.25,8.37,6.64,10.35,6.64Zm8.69,19A16,16,0,0,0,20.18,29a13.06,13.06,0,0,0,1.95,2.74l.37.42A5.75,5.75,0,0,1,24.21,36a4.93,4.93,0,0,1-1.52,3.61,5.15,5.15,0,0,1-7.29,0A4.87,4.87,0,0,1,13.88,36a5.73,5.73,0,0,1,1.7-3.81l.38-.42A13.28,13.28,0,0,0,17.91,29,16,16,0,0,0,19,25.59ZM15.62,35.2a.52.52,0,0,1,1-.1A5.12,5.12,0,0,0,17.17,37a3.26,3.26,0,0,0,1.31,1.35.52.52,0,0,1,.18.72.51.51,0,0,1-.71.18,4.37,4.37,0,0,1-1.71-1.76A6.26,6.26,0,0,1,15.62,35.2ZM19,1A36.16,36.16,0,0,1,31.29,2.87C34.72,4.15,36.84,6,36.84,8.15a3.59,3.59,0,0,1-.78,2.18v7.82a8.56,8.56,0,0,1-1.43,1.18c-3.72,2.45-10.39,3.4-16.81,3.2S5.29,21,2.66,18.87A4.4,4.4,0,0,1,2,18.28l0-.06V10.51a3.68,3.68,0,0,1-.92-2.36c0-2.13,2.13-4,5.55-5.28A36.22,36.22,0,0,1,19,1ZM36.74,19.29a2.47,2.47,0,0,1,.31,1.3,3.89,3.89,0,0,1-1,2.3V38.52a8.57,8.57,0,0,1-1.44,1.18c-3.71,2.45-10.38,3.4-16.81,3.21S5.29,41.38,2.66,39.24A4.31,4.31,0,0,1,2,38.62l.08-.09V23a4,4,0,0,1-1-2.38,2.35,2.35,0,0,1,.26-1.2,6.17,6.17,0,0,0,.54.48c2.85,2.31,9.27,3.75,15.94,3.95S31.39,23,35.34,20.4A9.91,9.91,0,0,0,36.74,19.29Zm0,20.35a2.42,2.42,0,0,1,.29,1.26,3.94,3.94,0,0,1-1,2.31v3.84a3.25,3.25,0,0,1,.82,2.06c0,3.77-8,6.84-17.84,6.84S1.21,52.89,1.21,49.11A3.27,3.27,0,0,1,2.09,47V43.27a4,4,0,0,1-1-2.37,2.35,2.35,0,0,1,.24-1.17,5.47,5.47,0,0,0,.56.51c2.85,2.3,9.27,3.74,15.94,3.95s13.6-.82,17.55-3.42A10.07,10.07,0,0,0,36.76,39.64ZM30.5,4.53A34.12,34.12,0,0,0,19,2.76,34.22,34.22,0,0,0,7.51,4.53c-2.65,1-4.3,2.29-4.3,3.62s1.65,2.63,4.3,3.63A34.22,34.22,0,0,0,19,13.55,34.12,34.12,0,0,0,30.5,11.78c2.66-1,4.3-2.29,4.3-3.63S33.16,5.53,30.5,4.53Zm-20.15,3c1.2,0,2.18.34,2.18.76s-1,.76-2.18.76-2.18-.34-2.18-.76S9.15,7.49,10.35,7.49Z"/></svg>