<svg width="84" height="56" viewBox="0 0 84 56" fill="none" xmlns="http://www.w3.org/2000/svg">
<path fill-rule="evenodd" clip-rule="evenodd" d="M46.8704 42.6384V53.3802C46.9024 54.1009 47.2228 54.7801 47.762 55.2703C48.3011 55.7605 49.0156 56.0222 49.7502 55.9985C50.4882 56.0221 51.2056 55.7577 51.7454 55.2631C52.2851 54.7686 52.6032 54.0843 52.63 53.3601V42.6182H53.998V53.3601C54.0318 54.0813 54.3537 54.7605 54.894 55.2506C55.4342 55.7406 56.1494 56.0021 56.8847 55.9784C57.6193 56.002 58.3337 55.7404 58.8729 55.2501C59.4121 54.7599 59.7325 54.0807 59.7645 53.3601V42.6182H63.8687L59.7645 23.6723C59.9081 23.9811 60.045 24.29 60.1818 24.6055C61.1486 26.8403 61.8709 29.1696 62.3365 31.5541C62.4557 32.1522 62.7787 32.6926 63.2523 33.0867C63.7259 33.4808 64.322 33.705 64.9427 33.7226H64.9837C65.3374 33.7675 65.6969 33.7212 66.0268 33.5881C66.3566 33.4551 66.6455 33.24 66.8648 32.964C67.1907 32.6652 67.4357 32.2915 67.5778 31.8767C67.7199 31.4618 67.7546 31.0187 67.6788 30.5874L67.6241 30.2718C67.8744 29.0862 68.2105 27.9195 68.6296 26.7807C68.7801 26.3846 68.9375 25.9952 69.1016 25.6193V26.3712L66.256 39.5501H69.0469V46.8478C69.0595 47.3506 69.2746 47.828 69.6452 48.1753C70.0157 48.5226 70.5115 48.7116 71.0238 48.7008C71.5367 48.7116 72.0332 48.5229 72.4049 48.1757C72.7765 47.8285 72.9932 47.3512 73.0075 46.8478V39.5501H74.2388V46.8478C74.2513 47.3506 74.4665 47.828 74.837 48.1753C75.2076 48.5226 75.7033 48.7116 76.2156 48.7008C76.7286 48.7116 77.2251 48.5229 77.5967 48.1757C77.9684 47.8285 78.185 47.3512 78.1993 46.8478V39.5501H81.2912L78.1993 26.1228V25.8475C78.3567 26.2101 78.5003 26.5793 78.644 26.962C79.2826 28.6645 79.7343 30.429 79.9915 32.2255C80.1372 32.6794 80.4419 33.0679 80.8516 33.3224C81.2613 33.5768 81.7496 33.6806 82.2298 33.6155C82.7101 33.5503 83.1513 33.3204 83.4753 32.9664C83.7994 32.6125 83.9852 32.1573 84 31.6817C83.7075 29.6209 83.1963 27.5958 82.4746 25.6394C81.7751 23.7522 80.857 21.9501 79.7384 20.2685C79.5671 20.0174 79.3405 19.8074 79.0752 19.654C78.81 19.5006 78.513 19.4077 78.2062 19.3823C76.0446 18.7109 71.9814 18.7109 69.0743 19.2077C68.7653 19.2282 68.4654 19.319 68.1983 19.4728C67.9312 19.6266 67.7042 19.8392 67.5352 20.0939C66.8105 21.1785 66.1724 22.3165 65.6267 23.4978C65.5036 23.1889 65.3805 22.8868 65.2505 22.5847C64.1973 20.098 62.8545 17.7393 61.2489 15.5555C60.8521 15.0189 60.2632 14.6496 59.6003 14.5216C55.4671 13.7492 51.2225 13.7492 47.0893 14.5216C46.7317 14.5691 46.3877 14.6877 46.0784 14.8701C45.7691 15.0524 45.5009 15.2948 45.2902 15.5824C43.8774 17.4892 42.6694 19.5343 41.6853 21.6851C40.8194 19.5251 39.7306 17.4578 38.4362 15.5152C38.2339 15.2145 37.9702 14.9583 37.6616 14.763C37.3531 14.5676 37.0065 14.4374 36.644 14.3806V14.3269C33.4769 13.4273 27.5189 13.4273 24.1192 14.2262V14.3068C23.7083 14.3286 23.3083 14.4451 22.9518 14.6469C22.5952 14.8487 22.2922 15.1301 22.0671 15.4682C20.5721 17.7173 19.3507 20.1305 18.428 22.6586L18.3049 22.9875C17.7996 21.9305 17.219 20.9097 16.5674 19.9328C16.3933 19.6784 16.1623 19.4663 15.892 19.3127C15.6218 19.1591 15.3193 19.0681 15.0078 19.0466C14.0365 18.6371 6.29316 18.3752 5.32866 19.1339C4.89178 19.2753 4.51597 19.5566 4.26156 19.9328C3.14298 21.6144 2.22491 23.4165 1.52541 25.3037C0.80371 27.2601 0.29246 29.2852 0 31.346C0.0191737 31.8182 0.206873 32.2687 0.530263 32.6187C0.853653 32.9687 1.29215 33.1961 1.76904 33.2609C2.24592 33.3257 2.73085 33.2238 3.13898 32.9732C3.54711 32.7226 3.85247 32.3391 4.00163 31.8898C4.24148 30.1887 4.65395 28.5154 5.2329 26.8949V46.6934C5.23735 46.9629 5.29596 47.2289 5.40537 47.4761C5.51478 47.7233 5.67284 47.9469 5.87049 48.134C6.06813 48.3211 6.30147 48.4681 6.55712 48.5665C6.81277 48.6649 7.0857 48.7128 7.36026 48.7075C7.63545 48.7165 7.90967 48.6711 8.16659 48.5739C8.42352 48.4767 8.65789 48.3298 8.85575 48.1419C9.05361 47.9539 9.21092 47.7288 9.3183 47.48C9.42568 47.2312 9.48093 46.9637 9.48078 46.6934V35.8777H10.801V46.6934C10.8054 46.9629 10.864 47.2289 10.9734 47.4761C11.0829 47.7233 11.2409 47.9469 11.4386 48.134C11.6362 48.3211 11.8695 48.4681 12.1252 48.5665C12.3808 48.6649 12.6538 48.7128 12.9283 48.7075C13.2035 48.7165 13.4777 48.6711 13.7347 48.5739C13.9916 48.4767 14.226 48.3298 14.4238 48.1419C14.6217 47.9539 14.779 47.7288 14.8864 47.48C14.9938 47.2312 15.049 46.9637 15.0489 46.6934V25.5521C15.2062 25.9214 15.3567 26.2906 15.5003 26.68C15.9104 27.7749 16.2418 28.8966 16.4922 30.0369L16.3896 30.7082C16.2934 31.3875 16.4762 32.0765 16.8976 32.6235C17.319 33.1706 17.9445 33.5309 18.6366 33.6253C19.3288 33.7197 20.0307 33.5403 20.5881 33.1267C21.1455 32.7131 21.5126 32.0992 21.6088 31.4199C21.945 29.0198 22.5388 26.6614 23.3805 24.384C23.6199 23.7126 23.873 23.1084 24.1397 22.5109V53.3265C24.1718 54.0472 24.4922 54.7263 25.0313 55.2166C25.5705 55.7068 26.285 55.9685 27.0195 55.9448C27.7548 55.9685 28.47 55.707 29.0103 55.217C29.5505 54.7269 29.8724 54.0478 29.9062 53.3265V36.5424H30.8844V53.3265C30.9181 54.0478 31.24 54.7269 31.7803 55.217C32.3206 55.707 33.0357 55.9685 33.771 55.9448C34.5056 55.9685 35.22 55.7068 35.7592 55.2166C36.2984 54.7263 36.6188 54.0472 36.6508 53.3265V23.2225C36.8218 23.6253 36.986 24.0416 37.1433 24.4645C37.9014 26.5475 38.4557 28.6966 38.7987 30.8828C38.8197 31.5178 39.0694 32.1249 39.5034 32.5963C39.9374 33.0677 40.5277 33.3728 41.1693 33.4573C41.8109 33.5419 42.4622 33.4004 43.0076 33.0581C43.5529 32.7158 43.957 32.1948 44.1479 31.5877C44.599 29.2095 45.3052 26.8848 46.2547 24.6525C46.4668 24.149 46.6925 23.6589 46.9388 23.1889L42.7661 42.6585L46.8704 42.6384ZM73.6984 8.94929C74.5702 8.94796 75.4229 9.20058 76.1483 9.67515C76.8738 10.1497 77.4395 10.8249 77.7738 11.6152C78.1081 12.4055 78.1959 13.2754 78.0261 14.1147C77.8563 14.954 77.4367 15.725 76.8202 16.3301C76.2037 16.9352 75.4181 17.3471 74.5629 17.5137C73.7078 17.6803 72.8215 17.5941 72.0162 17.2661C71.211 16.938 70.5231 16.3828 70.0396 15.6707C69.556 14.9587 69.2986 14.1219 69.3 13.2662C69.3 12.1213 69.7634 11.0232 70.5883 10.2137C71.4131 9.4041 72.5319 8.94929 73.6984 8.94929ZM10.2195 8.40549C11.153 8.40549 12.0656 8.67717 12.8418 9.18619C13.6179 9.6952 14.2229 10.4187 14.5801 11.2652C14.9374 12.1116 15.0308 13.043 14.8487 13.9416C14.6666 14.8402 14.2171 15.6657 13.557 16.3135C12.8969 16.9614 12.0559 17.4026 11.1403 17.5813C10.2248 17.76 9.27577 17.6683 8.41333 17.3177C7.55088 16.9671 6.81374 16.3733 6.29511 15.6115C5.77649 14.8497 5.49967 13.9541 5.49967 13.0379C5.49967 11.8093 5.99694 10.631 6.88209 9.76229C7.76724 8.89354 8.96776 8.40549 10.2195 8.40549ZM30.2072 0C31.441 0 32.6471 0.359099 33.6731 1.03189C34.699 1.70467 35.4986 2.66093 35.9707 3.77973C36.4429 4.89854 36.5664 6.12964 36.3257 7.31735C36.085 8.50507 35.4909 9.59606 34.6184 10.4524C33.7459 11.3086 32.6344 11.8918 31.4242 12.128C30.2141 12.3643 28.9597 12.243 27.8198 11.7796C26.6799 11.3162 25.7056 10.5314 25.0201 9.52452C24.3346 8.51762 23.9687 7.33383 23.9687 6.12285C23.9687 4.49897 24.626 2.9416 25.7959 1.79334C26.9659 0.645084 28.5526 0 30.2072 0ZM53.1498 0C54.3837 0 55.5898 0.359099 56.6157 1.03189C57.6416 1.70467 58.4412 2.66093 58.9134 3.77973C59.3856 4.89854 59.5091 6.12964 59.2684 7.31735C59.0277 8.50507 58.4335 9.59606 57.5611 10.4524C56.6886 11.3086 55.577 11.8918 54.3669 12.128C53.1568 12.3643 51.9024 12.243 50.7625 11.7796C49.6226 11.3162 48.6483 10.5314 47.9628 9.52452C47.2773 8.51762 46.9114 7.33383 46.9114 6.12285C46.9114 4.49897 47.5687 2.9416 48.7386 1.79334C49.9085 0.645084 51.4953 0 53.1498 0Z" fill="url(#paint0_linear_1688_33518)"/>
<defs>
<linearGradient id="paint0_linear_1688_33518" x1="78.0847" y1="9.87314" x2="8.39363" y2="49.2267" gradientUnits="userSpaceOnUse">
<stop stop-color="#9A242D"/>
<stop offset="1" stop-color="#E6505C"/>
</linearGradient>
</defs>
</svg>
