<svg width="54" height="63" viewBox="0 0 54 63" fill="none" xmlns="http://www.w3.org/2000/svg">
<path d="M0.700169 49.0062C1.16299 48.5535 1.70889 48.3232 2.3339 48.3232H51.6701C52.3148 48.3232 52.8647 48.5495 53.3196 49.0062C53.7745 49.4628 54 50.0108 54 50.6621C54 51.3133 53.7745 51.8375 53.3196 52.3021C52.8687 52.7667 52.3188 53.001 51.6701 53.001H2.32994C1.70493 53.001 1.15904 52.7707 0.696213 52.3021C0.23339 51.8375 0 51.2895 0 50.6621C0 50.0347 0.229434 49.4628 0.696213 49.0062H0.700169ZM3.17252 14.1169C3.17252 12.5166 3.62347 11.2459 4.52934 10.3048C5.43521 9.36363 6.76038 8.79578 8.50487 8.6012C10.9851 8.27558 13.8491 8.03732 17.1047 7.88642C20.3603 7.73552 23.6554 7.66007 26.998 7.66007C30.3406 7.66007 33.5764 7.73552 36.8439 7.88642C40.1074 8.03732 42.9793 8.27558 45.4595 8.6012C47.204 8.79578 48.5371 9.36363 49.4509 10.3048C50.3686 11.2459 50.8235 12.5166 50.8235 14.1169V48.7481H3.17252V14.1169ZM7.94315 62.2137C7.67416 61.6935 7.70977 61.1416 8.05787 60.5578L14.6838 49.8798H19.9845L12.4527 62.0827C12.0651 62.6903 11.5271 62.9921 10.8348 62.9921H9.3158C8.67101 62.9921 8.21215 62.7339 7.94315 62.2137ZM8.88067 33.5232C9.12593 33.7615 9.44634 33.8806 9.83401 33.8806H16.9465C17.8523 33.8806 18.3033 33.4478 18.3033 32.5821V19.7319C18.3033 18.3699 17.8246 17.2103 16.8634 16.2573C15.9021 15.3043 14.755 14.8277 13.4179 14.8277C12.0809 14.8277 10.8744 15.3043 9.92499 16.2573C8.97561 17.2103 8.50092 18.3659 8.50092 19.7319V32.5861C8.50092 32.9752 8.62354 33.2889 8.87276 33.5272L8.88067 33.5232ZM10.9495 1.44545C11.4124 1.02452 11.9662 0.770375 12.6149 0.683013C14.5334 0.444753 16.7526 0.273999 19.2764 0.162811C21.8002 0.0555941 24.3714 0 27.002 0C29.6326 0 32.1761 0.0555941 34.6959 0.162811C37.2197 0.270028 39.4389 0.444753 41.3574 0.683013C42.0022 0.770375 42.56 1.02452 43.0228 1.44545C43.4856 1.86637 43.719 2.40246 43.719 3.0537C43.719 3.70495 43.4856 4.24898 43.0228 4.75726C42.56 5.26555 42.0022 5.47602 41.3574 5.38865C39.4389 5.15039 37.2236 4.97964 34.7157 4.86845C32.2038 4.76124 29.6326 4.70564 27.0059 4.70564C24.3793 4.70564 21.8041 4.76124 19.2962 4.86845C16.7843 4.97567 14.5611 5.15039 12.6189 5.38865C11.9741 5.47602 11.4163 5.26555 10.9535 4.75726C10.4907 4.24898 10.2573 3.68112 10.2573 3.0537C10.2573 2.42628 10.4867 1.87034 10.9535 1.44545H10.9495ZM16.9148 2.33892V9.73691H13.1647V2.33495H16.9148V2.33892ZM22.8643 33.8846H31.0764C31.9388 33.8846 32.3699 33.4517 32.3699 32.5861V19.0171C32.3699 17.393 31.8794 16.0905 30.8984 15.1057C29.9174 14.1209 28.6199 13.6285 27.002 13.6285C25.3841 13.6285 24.047 14.1209 23.0581 15.1057C22.0652 16.0905 21.5707 17.393 21.5707 19.0171V32.5821C21.5707 33.4478 22.0019 33.8806 22.8643 33.8806V33.8846ZM29.9767 44.92C30.7955 44.1417 31.2069 43.1569 31.2069 41.9656C31.2069 40.7743 30.7955 39.7379 29.9767 38.9159C29.1579 38.0939 28.165 37.6809 27.002 37.6809C25.839 37.6809 24.7986 38.0939 24.0114 38.9159C23.2242 39.7379 22.8326 40.7544 22.8326 41.9656C22.8326 43.1767 23.2242 44.1417 24.0114 44.92C24.7986 45.6983 25.7955 46.0875 27.002 46.0875C28.2085 46.0875 29.1579 45.6983 29.9767 44.92ZM41.3258 62.0906L33.794 49.8877H39.0947L45.689 60.5658C46.0568 61.1495 46.0964 61.7015 45.8195 62.2217C45.5386 62.7419 45.0877 63 44.4627 63H42.9437C42.2316 63 41.6937 62.6982 41.3258 62.0906ZM36.9942 33.8886H44.1067C44.5141 33.8886 44.8464 33.7694 45.0916 33.5312C45.3409 33.2929 45.4635 32.9792 45.4635 32.59V19.7319C45.4635 18.3699 44.9848 17.2103 44.0236 16.2573C43.0663 15.3043 41.9152 14.8277 40.5821 14.8277C39.249 14.8277 38.0662 15.3043 37.105 16.2573C36.1477 17.2103 35.6651 18.3659 35.6651 19.7319V32.5861C35.6651 33.4517 36.1081 33.8846 36.9903 33.8846L36.9942 33.8886ZM40.8392 2.33495V9.73691H37.0892V2.33495H40.8392Z" fill="url(#paint0_linear_1688_33601)"/>
<defs>
<linearGradient id="paint0_linear_1688_33601" x1="50.1973" y1="11.1073" x2="-3.31789" y2="28.3755" gradientUnits="userSpaceOnUse">
<stop stop-color="#AB7342"/>
<stop offset="1" stop-color="#F1A35E"/>
</linearGradient>
</defs>
</svg>
