<svg width="33" height="57" viewBox="0 0 33 57" fill="none" xmlns="http://www.w3.org/2000/svg">
<path d="M22.478 53.5889C22.2312 53.7863 21.9021 54.0167 21.5072 54.2471C20.5528 54.7901 18.9402 55.4483 16.7188 55.4483C14.4809 55.4483 12.8847 54.8065 11.9468 54.2471C11.5519 54.0167 11.2228 53.7863 10.9759 53.5889H22.478ZM23.3008 53.2598H10.1367C10.1367 53.2598 12.2101 55.7774 16.7023 55.7774C21.1945 55.7774 23.3008 53.2598 23.3008 53.2598Z" fill="url(#paint0_linear_907_33788)" stroke="url(#paint1_linear_907_33788)"/>
<path d="M23.0517 45.5654C23.3808 45.5654 23.6605 45.7793 23.7593 46.092C23.8251 46.273 23.7922 46.4869 23.7099 46.6515C23.6112 46.8325 23.4631 46.9477 23.2821 47.0135C20.2708 47.9514 11.1053 49.2349 10.7104 49.3007C10.6775 49.3007 10.6446 49.3007 10.6117 49.3007C10.2496 49.3007 9.937 49.021 9.88763 48.659C9.83827 48.2476 10.118 47.8856 10.5129 47.8198C10.6117 47.8033 19.9581 46.4869 22.8542 45.5819C22.9036 45.5654 22.9694 45.5654 23.0517 45.5654ZM23.0517 45.2363C22.953 45.2363 22.8378 45.2528 22.739 45.2857C19.8759 46.1743 10.5458 47.4907 10.4471 47.5071C9.85472 47.5894 9.4598 48.1324 9.54208 48.7084C9.62435 49.2349 10.0686 49.6298 10.5952 49.6298C10.6446 49.6298 10.6939 49.6298 10.7433 49.6134C11.1382 49.564 20.3366 48.2641 23.3643 47.3261C23.9238 47.1451 24.2365 46.5527 24.0719 45.9933C23.9238 45.5161 23.5124 45.2363 23.0517 45.2363Z" fill="url(#paint2_linear_907_33788)" stroke="url(#paint3_linear_907_33788)"/>
<path d="M22.9881 49.1816C23.3336 49.1816 23.6298 49.4285 23.7121 49.774C23.7615 49.9715 23.7121 50.1689 23.6134 50.3335C23.4982 50.498 23.3336 50.6132 23.1526 50.6626C21.0135 51.1233 19.2857 51.4689 19.1047 51.5018C19.0553 51.5183 19.006 51.5183 18.9566 51.5183C18.611 51.5183 18.2984 51.2714 18.2326 50.9259C18.1503 50.531 18.4136 50.136 18.8085 50.0538C18.825 50.0538 20.635 49.6918 22.84 49.2146C22.8894 49.1816 22.9387 49.1816 22.9881 49.1816ZM22.9881 48.8525C22.9058 48.8525 22.84 48.8525 22.7577 48.869C20.5363 49.3462 18.7591 49.6918 18.7427 49.7082C18.1667 49.8234 17.7883 50.3829 17.9035 50.9588C18.0022 51.4689 18.4465 51.8145 18.9566 51.8145C19.0224 51.8145 19.0882 51.8145 19.1705 51.798C19.187 51.798 20.997 51.436 23.2349 50.9588C23.8108 50.8272 24.1729 50.2677 24.0577 49.6917C23.926 49.1816 23.4817 48.8525 22.9881 48.8525Z" fill="url(#paint4_linear_907_33788)" stroke="url(#paint5_linear_907_33788)"/>
<path d="M14.7425 39.8301C15.1045 39.8301 15.4171 40.0934 15.4665 40.4554C15.5323 40.8667 15.2526 41.2452 14.8577 41.311C12.6198 41.673 10.7768 41.9199 10.7603 41.9199C10.7274 41.9199 10.6945 41.9199 10.6616 41.9199C10.2996 41.9199 9.98695 41.6401 9.93758 41.2781C9.88822 40.8667 10.168 40.5047 10.5629 40.4389H10.5793C10.892 40.3896 12.5704 40.1592 14.6437 39.8301C14.6602 39.8301 14.7096 39.8301 14.7425 39.8301ZM14.7425 39.501C14.6931 39.501 14.6273 39.501 14.5779 39.5174C12.34 39.8794 10.53 40.1263 10.5135 40.1263C9.92113 40.2085 9.52621 40.7516 9.60848 41.3275C9.69076 41.8541 10.135 42.249 10.6616 42.249C10.711 42.249 10.7603 42.249 10.8097 42.2325C10.8262 42.2325 12.6527 41.9692 14.907 41.6072C15.4829 41.5085 15.8943 40.9655 15.7956 40.3896C15.7133 39.8794 15.2526 39.501 14.7425 39.501Z" fill="url(#paint6_linear_907_33788)" stroke="url(#paint7_linear_907_33788)"/>
<path d="M23.0517 41.7842C23.3808 41.7842 23.6605 41.9981 23.7593 42.3107C23.8251 42.4917 23.7922 42.7057 23.7099 42.8702C23.6112 43.0512 23.4631 43.1664 23.2821 43.2322C20.2708 44.1702 11.1053 45.4537 10.7104 45.5195C10.6775 45.5195 10.6446 45.5195 10.6117 45.5195C10.2496 45.5195 9.937 45.2397 9.88763 44.8777C9.83827 44.4664 10.118 44.1043 10.5129 44.0385C10.6117 44.0221 19.9581 42.7057 22.8542 41.8006C22.9036 41.7842 22.9694 41.7842 23.0517 41.7842ZM23.0517 41.4551C22.953 41.4551 22.8378 41.4715 22.739 41.5044C19.8759 42.393 10.5458 43.7094 10.4471 43.7259C9.85472 43.8082 9.4598 44.3512 9.54208 44.9271C9.62435 45.4537 10.0686 45.8486 10.5952 45.8486C10.6446 45.8486 10.6939 45.8486 10.7433 45.8321C11.1382 45.7828 20.3366 44.4828 23.3643 43.5449C23.9238 43.3639 24.2365 42.7715 24.0719 42.212C23.9238 41.7348 23.5124 41.4551 23.0517 41.4551Z" fill="url(#paint8_linear_907_33788)" stroke="url(#paint9_linear_907_33788)"/>
<path d="M16.6999 1.3291C25.2237 1.3291 32.1677 8.27315 32.1677 16.7969C32.1677 21.2727 30.226 25.5345 26.8363 28.48C24.4832 30.5204 23.1339 33.4494 23.1339 36.5265V37.6619H10.266V36.5265C10.266 33.4659 8.91668 30.5369 6.54715 28.4635C3.20677 25.551 1.26507 21.3549 1.23216 16.9285C1.16634 8.45415 8.01165 1.46074 16.486 1.34556C16.5518 1.34556 16.6341 1.3291 16.6999 1.3291ZM16.6999 1C16.6177 1 16.5518 1 16.4696 1C7.83065 1.11519 0.820785 8.2896 0.903061 16.9285C0.935971 21.6347 3.04222 25.8472 6.33324 28.7104C8.60404 30.685 9.9369 33.5152 9.9369 36.5101V37.9746H23.463V36.5101C23.463 33.5152 24.7958 30.685 27.0502 28.7104C30.3906 25.8143 32.4968 21.5359 32.4968 16.7804C32.4968 8.07568 25.4376 1 16.6999 1Z" fill="url(#paint10_linear_907_33788)" stroke="url(#paint11_linear_907_33788)"/>
<path d="M8.8391 14.132C6.3499 17.9672 7.17963 18.8338 7.17963 18.8338L9.48445 22.7612C9.15256 21.4705 9.98229 20.4564 9.98229 20.4564L12.5268 16.3999L13.6147 17.0637L12.1212 13.2285L8.04624 13.671L8.8391 14.132Z" fill="url(#paint12_linear_907_33788)"/>
<path d="M10.2229 23.5914C10.8867 24.7162 14.4269 24.4396 14.4269 24.4396L14.5191 20.2356L10.8498 20.125L10.0385 21.471C10.0385 21.4526 9.55909 22.4483 10.2229 23.5914Z" fill="url(#paint13_linear_907_33788)"/>
<path d="M18.9256 24.5128C23.4984 24.6234 23.8118 23.4802 23.8118 23.4802L25.9323 19.4606C25.0103 20.4194 23.7012 20.2535 23.7012 20.2535L18.9072 20.2166V18.9443L16.418 22.2264L18.9256 25.4716V24.5128Z" fill="url(#paint14_linear_907_33788)"/>
<path d="M26.2442 18.3731C26.8527 17.2115 24.7691 14.3535 24.7691 14.3535L21.1367 16.4739L22.9621 19.6638L24.5294 19.6454C24.5294 19.6638 25.6357 19.5347 26.2442 18.3731Z" fill="url(#paint15_linear_907_33788)"/>
<path d="M22.5204 10.5736C20.4738 6.48027 19.3121 6.75685 19.3121 6.75685H14.7578C16.0301 7.12562 16.5095 8.361 16.5095 8.361L18.7221 12.6203L17.5973 13.2103L21.6538 13.8741L23.3502 10.1495L22.5204 10.5736Z" fill="url(#paint16_linear_907_33788)"/>
<path d="M13.6705 6.97852C12.3613 6.97852 10.8125 10.1684 10.8125 10.1684L14.3896 12.381L16.3625 9.28333L15.625 7.90044C15.6065 7.90044 14.9796 6.97852 13.6705 6.97852Z" fill="url(#paint17_linear_907_33788)"/>
<defs>
<linearGradient id="paint0_linear_907_33788" x1="22.3738" y1="53.7036" x2="19.4188" y2="59.5202" gradientUnits="userSpaceOnUse">
<stop stop-color="#815520"/>
<stop offset="1" stop-color="#D39140"/>
</linearGradient>
<linearGradient id="paint1_linear_907_33788" x1="22.3738" y1="53.7036" x2="19.4188" y2="59.5202" gradientUnits="userSpaceOnUse">
<stop stop-color="#815520"/>
<stop offset="1" stop-color="#D39140"/>
</linearGradient>
<linearGradient id="paint2_linear_907_33788" x1="23.0887" y1="46.0109" x2="16.859" y2="53.796" gradientUnits="userSpaceOnUse">
<stop stop-color="#815520"/>
<stop offset="1" stop-color="#D39140"/>
</linearGradient>
<linearGradient id="paint3_linear_907_33788" x1="23.0887" y1="46.0109" x2="16.859" y2="53.796" gradientUnits="userSpaceOnUse">
<stop stop-color="#815520"/>
<stop offset="1" stop-color="#D39140"/>
</linearGradient>
<linearGradient id="paint4_linear_907_33788" x1="23.6427" y1="49.3747" x2="19.4581" y2="52.6703" gradientUnits="userSpaceOnUse">
<stop stop-color="#815520"/>
<stop offset="1" stop-color="#D39140"/>
</linearGradient>
<linearGradient id="paint5_linear_907_33788" x1="23.6427" y1="49.3747" x2="19.4581" y2="52.6703" gradientUnits="userSpaceOnUse">
<stop stop-color="#815520"/>
<stop offset="1" stop-color="#D39140"/>
</linearGradient>
<linearGradient id="paint6_linear_907_33788" x1="15.3728" y1="39.9855" x2="11.4305" y2="43.3407" gradientUnits="userSpaceOnUse">
<stop stop-color="#815520"/>
<stop offset="1" stop-color="#D39140"/>
</linearGradient>
<linearGradient id="paint7_linear_907_33788" x1="15.3728" y1="39.9855" x2="11.4305" y2="43.3407" gradientUnits="userSpaceOnUse">
<stop stop-color="#815520"/>
<stop offset="1" stop-color="#D39140"/>
</linearGradient>
<linearGradient id="paint8_linear_907_33788" x1="23.0887" y1="42.2297" x2="16.859" y2="50.0147" gradientUnits="userSpaceOnUse">
<stop stop-color="#815520"/>
<stop offset="1" stop-color="#D39140"/>
</linearGradient>
<linearGradient id="paint9_linear_907_33788" x1="23.0887" y1="42.2297" x2="16.859" y2="50.0147" gradientUnits="userSpaceOnUse">
<stop stop-color="#815520"/>
<stop offset="1" stop-color="#D39140"/>
</linearGradient>
<linearGradient id="paint10_linear_907_33788" x1="30.2719" y1="7.51884" x2="-1.05714" y2="17.5968" gradientUnits="userSpaceOnUse">
<stop stop-color="#815520"/>
<stop offset="1" stop-color="#D39140"/>
</linearGradient>
<linearGradient id="paint11_linear_907_33788" x1="30.2719" y1="7.51884" x2="-1.05714" y2="17.5968" gradientUnits="userSpaceOnUse">
<stop stop-color="#815520"/>
<stop offset="1" stop-color="#D39140"/>
</linearGradient>
<linearGradient id="paint12_linear_907_33788" x1="13.1522" y1="14.9092" x2="6.41861" y2="16.6557" gradientUnits="userSpaceOnUse">
<stop stop-color="#815520"/>
<stop offset="1" stop-color="#D39140"/>
</linearGradient>
<linearGradient id="paint13_linear_907_33788" x1="14.1917" y1="20.891" x2="9.81569" y2="22.6534" gradientUnits="userSpaceOnUse">
<stop stop-color="#815520"/>
<stop offset="1" stop-color="#D39140"/>
</linearGradient>
<linearGradient id="paint14_linear_907_33788" x1="25.2623" y1="20.0951" x2="17.2609" y2="24.4857" gradientUnits="userSpaceOnUse">
<stop stop-color="#815520"/>
<stop offset="1" stop-color="#D39140"/>
</linearGradient>
<linearGradient id="paint15_linear_907_33788" x1="25.988" y1="15.2898" x2="20.9651" y2="17.1481" gradientUnits="userSpaceOnUse">
<stop stop-color="#815520"/>
<stop offset="1" stop-color="#D39140"/>
</linearGradient>
<linearGradient id="paint16_linear_907_33788" x1="22.7451" y1="8.00844" x2="14.9513" y2="11.5486" gradientUnits="userSpaceOnUse">
<stop stop-color="#815520"/>
<stop offset="1" stop-color="#D39140"/>
</linearGradient>
<linearGradient id="paint17_linear_907_33788" x1="15.9717" y1="7.93101" x2="10.6889" y2="9.97404" gradientUnits="userSpaceOnUse">
<stop stop-color="#815520"/>
<stop offset="1" stop-color="#D39140"/>
</linearGradient>
</defs>
</svg>
