<svg width="49" height="63" viewBox="0 0 49 63" fill="none" xmlns="http://www.w3.org/2000/svg">
<path d="M0.0513869 60.1607C1.9527 53.797 4.77898 47.7985 7.09139 41.6435C8.633 37.575 10.226 33.6108 11.819 29.5422C12.3329 28.2903 12.8981 27.873 14.2342 27.873C16.8035 27.873 19.4242 27.873 21.9936 27.873C22.1478 27.873 22.3019 27.873 22.4561 27.873C21.9422 28.2382 21.9422 28.7598 21.8908 29.2814C21.788 30.7419 21.6853 32.2024 21.5311 33.6629C21.4797 34.4975 21.7367 34.8626 22.5588 34.8626C23.8949 34.8626 25.231 34.8626 26.5156 34.8626C27.3378 34.8626 27.6462 34.4975 27.5434 33.6629C27.4406 32.2024 27.2864 30.6897 27.1837 29.2292C27.1323 28.7076 27.0809 28.2382 26.6184 27.873C26.7726 27.873 26.9781 27.873 27.1323 27.873C29.753 27.873 32.3224 27.873 34.9431 27.873C36.125 27.873 36.7416 28.2903 37.2041 29.49C38.8999 33.8716 40.647 38.2531 42.3428 42.5824C44.3983 47.7985 46.4538 52.9625 48.4578 58.1786C48.9203 59.3261 49.1259 60.4736 48.9203 61.7255C48.8176 62.5079 48.4065 62.873 47.6357 62.873C41.5206 62.873 35.457 62.873 29.3419 62.873C29.2905 62.873 29.2391 62.873 29.085 62.873C29.753 62.5079 29.5989 61.9341 29.5475 61.4125C29.3933 59.3261 29.2391 57.2397 29.085 55.1011C29.0336 54.4751 28.6739 54.11 28.0059 54.11C25.6421 54.11 23.3297 54.11 20.9659 54.11C20.3492 54.11 19.9381 54.4751 19.8867 55.1011C19.7326 57.2918 19.527 59.5347 19.3729 61.7255C19.3215 62.1428 19.3729 62.5079 19.784 62.8209C19.6298 62.8209 19.4756 62.8209 19.3215 62.8209C13.412 62.8209 7.50249 62.8209 1.54161 62.8209C0.513869 62.8209 0.256934 62.6122 0.0513869 61.5169C0.0513869 61.4647 0 61.4125 0 61.3604C0.0513869 60.9953 0.0513869 60.578 0.0513869 60.1607ZM24.5629 48.8939C25.5907 48.8939 26.6184 48.8939 27.6462 48.8939C28.417 48.8939 28.6739 48.6331 28.6225 47.8507C28.417 45.034 28.2114 42.2695 28.0059 39.4528C27.9545 38.7225 27.5948 38.4096 26.8753 38.4096C25.3337 38.4096 23.7921 38.4096 22.2505 38.4096C21.5311 38.4096 21.1714 38.7747 21.12 39.5049C20.9145 42.2695 20.7089 45.034 20.5034 47.7985C20.452 48.6853 20.6575 48.9461 21.5825 48.9461C22.5588 48.8939 23.5866 48.8939 24.5629 48.8939Z" fill="url(#paint0_linear_908_33816)"/>
<path d="M31.1947 24.0059V24.4058C31.1947 24.6724 30.9725 24.8946 30.7058 24.8946H18.174C17.9073 24.8946 17.6851 24.6724 17.6851 24.4058V24.0059H13.1523V29.6496C13.1523 30.2718 13.6412 30.7162 14.2189 30.7162H34.972C35.5942 30.7162 36.0386 30.2274 36.0386 29.6496V24.0059H31.1947ZM16.0853 28.1831C16.0853 28.3609 15.952 28.4498 15.8187 28.4498H13.7745C13.5967 28.4498 13.5079 28.3165 13.5079 28.1831V27.6499C13.5079 27.4721 13.6412 27.3832 13.7745 27.3832H15.8187C15.9965 27.3832 16.0853 27.5166 16.0853 27.6499V28.1831ZM16.0853 26.4945C16.0853 26.6722 15.952 26.7611 15.8187 26.7611H13.7745C13.5967 26.7611 13.5079 26.6278 13.5079 26.4945V25.9612C13.5079 25.7834 13.6412 25.6945 13.7745 25.6945H15.8187C15.9965 25.6945 16.0853 25.8279 16.0853 25.9612V26.4945ZM31.2391 28.9831H17.9073C17.8629 28.9831 17.8185 28.9386 17.8185 28.8942C17.8185 28.8497 17.8629 28.8053 17.9073 28.8053H31.2391C31.2836 28.8053 31.328 28.8497 31.328 28.8942C31.328 28.9386 31.2836 28.9831 31.2391 28.9831ZM31.2391 28.4942H17.9073C17.8629 28.4942 17.8185 28.4498 17.8185 28.4053C17.8185 28.3609 17.8629 28.3165 17.9073 28.3165H31.2391C31.2836 28.3165 31.328 28.3609 31.328 28.4053C31.328 28.4498 31.2836 28.4942 31.2391 28.4942ZM31.2391 28.0498H17.9073C17.8629 28.0498 17.8185 28.0054 17.8185 27.961C17.8185 27.9165 17.8629 27.8721 17.9073 27.8721H31.2391C31.2836 27.8721 31.328 27.9165 31.328 27.961C31.328 28.0054 31.2836 28.0498 31.2391 28.0498ZM31.2391 27.561H17.9073C17.8629 27.561 17.8185 27.5166 17.8185 27.4721C17.8185 27.4277 17.8629 27.3832 17.9073 27.3832H31.2391C31.2836 27.3832 31.328 27.4277 31.328 27.4721C31.328 27.5166 31.2836 27.561 31.2391 27.561ZM31.2391 27.0722H17.9073C17.8629 27.0722 17.8185 27.0277 17.8185 26.9833C17.8185 26.9388 17.8629 26.8944 17.9073 26.8944H31.2391C31.2836 26.8944 31.328 26.9388 31.328 26.9833C31.328 27.0277 31.2836 27.0722 31.2391 27.0722ZM31.2836 26.6278H17.9073C17.8629 26.6278 17.8185 26.5833 17.8185 26.5389C17.8185 26.4945 17.8629 26.45 17.9073 26.45L31.2836 26.4056C31.328 26.4056 31.3724 26.45 31.3724 26.4945C31.328 26.5833 31.328 26.6278 31.2836 26.6278ZM31.2836 26.1389L17.9073 26.1834C17.8629 26.1834 17.8185 26.1389 17.8185 26.0945C17.8185 26.0501 17.8629 26.0056 17.9073 26.0056L31.2836 25.9612C31.328 25.9612 31.3724 26.0056 31.3724 26.0501C31.3724 26.0945 31.328 26.1389 31.2836 26.1389ZM31.2836 25.6501L17.9073 25.6945C17.8629 25.6945 17.8185 25.6501 17.8185 25.6057C17.8185 25.5612 17.8629 25.5168 17.9073 25.5168L31.2836 25.4724C31.328 25.4724 31.3724 25.5168 31.3724 25.5612C31.3724 25.6057 31.328 25.6501 31.2836 25.6501ZM35.7275 28.1831C35.7275 28.3609 35.5942 28.4498 35.4608 28.4498H33.4166C33.2389 28.4498 33.15 28.3165 33.15 28.1831V27.6499C33.15 27.4721 33.2833 27.3832 33.4166 27.3832H35.4608C35.6386 27.3832 35.7275 27.5166 35.7275 27.6499V28.1831ZM35.7275 26.4945C35.7275 26.6722 35.5942 26.7611 35.4608 26.7611H33.4166C33.2389 26.7611 33.15 26.6278 33.15 26.4945V25.9612C33.15 25.7834 33.2833 25.6945 33.4166 25.6945H35.4608C35.6386 25.6945 35.7275 25.8279 35.7275 25.9612V26.4945Z" fill="#526A7F"/>
<path d="M30.8835 24.0059H17.9961V24.4058C17.9961 24.4947 18.085 24.5836 18.1738 24.5836H30.7057C30.7946 24.5836 30.8835 24.4947 30.8835 24.4058V24.0059Z" fill="#526A7F"/>
<path d="M13.1523 18.6295V23.0734C13.1523 23.3845 13.419 23.6511 13.7301 23.6511H35.5053C35.8164 23.6511 36.083 23.3845 36.083 23.0734V18.6295C36.083 18.3184 35.8164 18.0518 35.5053 18.0518H13.7301C13.3745 18.0518 13.1523 18.3184 13.1523 18.6295Z" fill="#526A7F"/>
<path d="M33.4625 6.40918H15.6869C14.2648 6.40918 13.1094 7.5646 13.1094 8.98666V17.2524C13.1094 17.5634 13.376 17.8301 13.6871 17.8301H35.4623C35.7734 17.8301 36.04 17.5634 36.04 17.2524V8.98666C36.04 7.5646 34.8846 6.40918 33.4625 6.40918ZM34.929 15.297C34.929 16.0525 34.3069 16.6746 33.5514 16.6746H15.6424C14.8869 16.6746 14.2648 16.0525 14.2648 15.297V8.89778C14.2648 8.14231 14.8869 7.52016 15.6424 7.52016H33.5514C34.3069 7.52016 34.929 8.14231 34.929 8.89778V15.297Z" fill="#526A7F"/>
<path d="M33.4632 6.05357C33.0632 4.45375 31.5967 3.34277 29.9525 3.34277H19.2426C17.5984 3.34277 16.1319 4.45375 15.7319 6.05357L15.6875 6.18688H33.4632V6.05357Z" fill="#526A7F"/>
<path d="M36.3555 21.6504V28.3607H37.7331V23.028C37.7331 22.2725 37.1109 21.6504 36.3555 21.6504Z" fill="#526A7F"/>
<path d="M12.8464 21.6504V28.3607H11.4688V23.028C11.4688 22.2725 12.0909 21.6504 12.8464 21.6504Z" fill="#526A7F"/>
<path d="M37.0193 9.51911L35.4639 9.03027L35.375 9.20803L36.9304 9.69686C37.0193 9.7413 37.0637 9.78574 37.0637 9.87462V15.8739C37.0637 15.9628 37.0193 16.0072 36.9748 16.0517L35.6861 16.9405L35.8194 17.1182L37.1081 16.2294C37.2414 16.1406 37.2859 16.0072 37.2859 15.8739V9.91906C37.3303 9.7413 37.197 9.56354 37.0193 9.51911Z" fill="#526A7F"/>
<path d="M37.7316 10.7196L36.754 10.4529C36.5762 10.4085 36.3984 10.5418 36.3984 10.7196V15.2079C36.3984 15.4301 36.5762 15.519 36.754 15.4746L37.7316 15.2079C37.8649 15.1635 37.9982 14.9858 37.9982 14.808V11.1195C37.9982 10.9418 37.9094 10.764 37.7316 10.7196Z" fill="#526A7F"/>
<path d="M12.1854 9.51911L13.7408 9.03027L13.8297 9.25247L12.2743 9.7413C12.1854 9.78574 12.141 9.83018 12.141 9.91906V15.9184C12.141 16.0072 12.1854 16.0517 12.2298 16.0961L13.5186 16.9849L13.3853 17.1627L12.0965 16.2739C11.9632 16.185 11.9188 16.0517 11.9188 15.9184V9.91906C11.8743 9.7413 12.0076 9.56354 12.1854 9.51911Z" fill="#526A7F"/>
<path d="M11.4698 10.7196L12.4474 10.4529C12.6252 10.4085 12.8029 10.5418 12.8029 10.7196V15.2079C12.8029 15.4301 12.6252 15.519 12.4474 15.4746L11.4698 15.2079C11.3364 15.1635 11.2031 14.9858 11.2031 14.808V11.1195C11.2031 10.9418 11.292 10.764 11.4698 10.7196Z" fill="#526A7F"/>
<path d="M36.4345 28.7158V29.6046C36.4345 30.4045 35.8124 31.0267 35.0125 31.0267H32.7461V32.582C32.7461 33.0709 33.146 33.4708 33.6349 33.4708H36.0346C36.5234 33.4708 36.9234 33.0709 36.9234 32.582V28.7158H36.4345Z" fill="#526A7F"/>
<path d="M12.7062 29.6046V28.7158H11.9062V32.582C11.9062 33.0709 12.3062 33.4708 12.795 33.4708H15.1948C15.6836 33.4708 16.0835 33.0709 16.0835 32.582V31.0267H14.1282C13.3283 31.0267 12.7062 30.4045 12.7062 29.6046Z" fill="#526A7F"/>
<path d="M36.3547 0.765625H12.8019C12.0465 0.765625 11.4688 1.34334 11.4688 2.0988V21.3854L12.002 21.0744V10.2312L12.3575 10.0979V8.94245C12.3575 7.29819 13.513 5.96502 15.0239 5.65394C15.6016 3.83193 17.2903 2.54319 19.2456 2.54319H29.911C31.8664 2.54319 33.5995 3.83193 34.1328 5.69838C35.6437 6.00946 36.7991 7.38707 36.7991 8.98688V10.1423L37.6435 10.3645V2.0988C37.6879 1.34334 37.1102 0.765625 36.3547 0.765625Z" fill="#526A7F"/>
<path d="M12.3555 15.7852L12 15.6963V21.029C12.0889 20.9846 12.2222 20.9401 12.3111 20.9401V18.6293C12.3111 18.3626 12.4 18.1404 12.4888 17.9183C12.3555 17.6961 12.3111 17.4739 12.3111 17.2072V15.7852H12.3555Z" fill="#526A7F"/>
<path d="M36.8457 15.7866V17.2087C36.8457 17.4753 36.7568 17.6975 36.668 17.9197C36.8013 18.1419 36.8457 18.3641 36.8457 18.6308V20.9416C36.979 20.986 37.0679 20.986 37.1568 21.0305L37.6901 21.3416V15.5645L36.8457 15.7866Z" fill="#526A7F"/>
<defs>
<linearGradient id="paint0_linear_908_33816" x1="27.2621" y1="127.356" x2="15.0922" y2="36.7561" gradientUnits="userSpaceOnUse">
<stop stop-color="#4C6378"/>
<stop offset="1" stop-color="#8DABC5"/>
</linearGradient>
</defs>
</svg>
