<svg id="Layer_1" data-name="Layer 1" xmlns="http://www.w3.org/2000/svg" xmlns:xlink="http://www.w3.org/1999/xlink" viewBox="0 0 65 62"><defs><style>.cls-1{fill:url(#linear-gradient);}</style><linearGradient id="linear-gradient" x1="427.79" y1="-235.69" x2="368.44" y2="-259.55" gradientTransform="matrix(1, 0, 0, -1, -363.5, -211)" gradientUnits="userSpaceOnUse"><stop offset="0" stop-color="#ab7342"/><stop offset="1" stop-color="#f1a35e"/></linearGradient></defs><path class="cls-1" d="M11.24,35.18a1.71,1.71,0,0,1,0,.32l-3.65,23H22.86V47.15a9.34,9.34,0,0,1,9.36-9.32,9.34,9.34,0,0,1,9.36,9.32V58.54H57.4L54.21,35.43a1,1,0,0,1,0-.25ZM26,58.54H38.43V47.15a6.14,6.14,0,0,0-1.82-4.37A6.22,6.22,0,0,0,26,47.15ZM57.34,35.18l3.39,24.6a1.24,1.24,0,0,1,0,.33,1.58,1.58,0,0,1-.46,1.11,1.75,1.75,0,0,1-.51.34,1.57,1.57,0,0,1-.6.12H5.5a1.59,1.59,0,0,1-1.32-1.79L8.1,35.18h-7A70.8,70.8,0,0,1,23,8.37C33.18.77,32.4.77,42.41,8.42A72.23,72.23,0,0,1,64.06,35.18Z"/></svg>