<svg id="Layer_1" data-name="Layer 1" xmlns="http://www.w3.org/2000/svg" xmlns:xlink="http://www.w3.org/1999/xlink" viewBox="0 0 53 58"><defs><style>.cls-1{fill:url(#linear-gradient);}</style><linearGradient id="linear-gradient" x1="330.93" y1="-327.78" x2="281.6" y2="-344.08" gradientTransform="matrix(1, 0, 0, -1, -279.5, -307)" gradientUnits="userSpaceOnUse"><stop offset="0" stop-color="#b49916"/><stop offset="1" stop-color="#efd034"/></linearGradient></defs><path class="cls-1" d="M26.57.5c2.61,0,4.83,3.38,6.3,8.85a52.75,52.75,0,0,1,1.3,6.43,58.1,58.1,0,0,1,6.2-2.09c5.45-1.45,9.47-1.2,10.78,1.06s-.51,5.89-4.48,9.9A57,57,0,0,1,41.77,29c.75.59,1.46,1.19,2.14,1.77a4.64,4.64,0,0,0-1.47,1.67q-1.17-1-2.49-2c-1.55,1.15-3.21,2.31-5,3.46-.1,2.12-.27,4.15-.49,6.07a54.13,54.13,0,0,0,6.47,2.21c4.44,1.18,7.55,1.27,8.29,0,.39-.68.11-1.76-.72-3.1a4.83,4.83,0,0,0,1.74-1.29c1.33,2.19,1.71,4.1.9,5.5-1.31,2.26-5.33,2.51-10.78,1.06a55.94,55.94,0,0,1-6.2-2.09,52.75,52.75,0,0,1-1.3,6.43c-1.47,5.47-3.69,8.85-6.3,8.85s-4.83-3.38-6.31-8.85A56.84,56.84,0,0,1,19,42.21c-.8.32-1.59.62-2.35.89A4.63,4.63,0,0,0,15.92,41c.89-.32,1.8-.67,2.75-1-.22-1.93-.4-4-.49-6.08-1.78-1.15-3.44-2.31-5-3.46A54.27,54.27,0,0,0,8.05,34.9c-3.25,3.29-4.88,6-4.14,7.24.41.71,1.56,1,3.26.91a3,3,0,0,0,0,.43,4.73,4.73,0,0,0,.32,1.72c-2.71.11-4.65-.51-5.48-2-1.3-2.27.5-5.89,4.48-9.9A54,54,0,0,1,11.37,29a57,57,0,0,1-4.9-4.35c-4-4-5.78-7.63-4.48-9.9s5.33-2.51,10.78-1.06A53.93,53.93,0,0,1,19,15.78c.12-.86.26-1.69.41-2.49a4.62,4.62,0,0,0,2.13.51h0c-.17.91-.32,1.87-.46,2.87,1.77.76,3.61,1.63,5.48,2.6,1.87-1,3.71-1.84,5.48-2.6a56.24,56.24,0,0,0-1.33-6.74C29.52,5.49,28,2.74,26.57,2.74c-.82,0-1.64.85-2.41,2.36a4.68,4.68,0,0,0-2-.77C23.38,1.89,24.9.5,26.57.5Zm19.72,31a3.09,3.09,0,1,1-3.08,3.08A3.08,3.08,0,0,1,46.29,31.46Zm-34.4,8.83a3.09,3.09,0,1,1-3.07,3.09A3.09,3.09,0,0,1,11.89,40.29ZM21.5,6A3.09,3.09,0,1,1,18.43,9,3.09,3.09,0,0,1,21.5,6Zm5.07,19A4.1,4.1,0,1,1,22.48,29,4.09,4.09,0,0,1,26.57,24.9ZM13.18,27.6c1.55-1.16,3.22-2.32,5-3.46.1-2.12.27-4.15.49-6.08a55.86,55.86,0,0,0-6.46-2.21c-4.44-1.18-7.55-1.27-8.29,0S4.8,19.81,8,23.08A55.55,55.55,0,0,0,13.18,27.6ZM32.05,41.34c-1.77-.77-3.61-1.64-5.48-2.61q-2.82,1.46-5.48,2.61a53.89,53.89,0,0,0,1.32,6.73c1.21,4.44,2.68,7.19,4.16,7.19s3-2.75,4.16-7.19A58.21,58.21,0,0,0,32.05,41.34Zm-7.88-3.89L22.33,36.4l-.06,0L20.48,35.3c.09,1.28.19,2.53.32,3.72C21.9,38.54,23,38,24.17,37.45ZM29,20.55l1.85,1.05c.62.36,1.23.72,1.83,1.09-.08-1.28-.19-2.52-.32-3.72C31.23,19.46,30.11,20,29,20.55Zm6,3.59c1.78,1.14,3.44,2.3,5,3.46a54.27,54.27,0,0,0,5.14-4.52c3.24-3.27,4.87-5.93,4.14-7.22s-3.85-1.19-8.29,0a54.13,54.13,0,0,0-6.47,2.21C34.69,20,34.86,22,35,24.14ZM38.1,29c-1-.71-2-1.42-3-2.13,0,.7,0,1.41,0,2.13s0,1.43,0,2.14C36.12,30.43,37.13,29.71,38.1,29Zm-5.31-3.61c-1-.63-2-1.25-3.08-1.85s-2.1-1.2-3.14-1.75c-1,.55-2.09,1.13-3.14,1.75h0c-1.05.61-2.08,1.22-3.07,1.85,0,1.18-.07,2.39-.07,3.61s0,2.43.07,3.61q1.47.93,3,1.83h.05c1.05.62,2.1,1.2,3.14,1.75,1-.54,2.07-1.12,3.11-1.73l.06,0c1-.61,2.06-1.22,3.05-1.84,0-1.18.06-2.39.06-3.61S32.83,26.57,32.79,25.39Zm-8.62-4.84C23,20,21.9,19.46,20.8,19c-.13,1.2-.23,2.44-.32,3.72q.9-.56,1.83-1.08C22.93,21.24,23.55,20.89,24.17,20.55ZM15,29c1,.71,2,1.43,3,2.14,0-.71,0-1.42,0-2.14s0-1.43,0-2.14C17,27.57,16,28.29,15,29ZM29,37.45c1.15.56,2.27,1.09,3.37,1.58.13-1.2.23-2.44.32-3.72-.6.36-1.21.73-1.84,1.09l0,0C30.18,36.77,29.57,37.11,29,37.45Z"/></svg>