<svg width="56" height="64" viewBox="0 0 56 64" fill="none" xmlns="http://www.w3.org/2000/svg">
<path d="M26.6049 56.4322C26.2059 56.225 25.5179 55.763 24.5409 55.05C23.6981 54.4207 22.5175 53.6838 20.999 52.8354C19.4805 51.991 17.6893 51.5649 15.6253 51.5649C14.3836 51.5649 13.2234 51.7321 12.1486 52.0707C11.0738 52.4053 9.9258 52.935 8.70449 53.648L1.21784 40.9539C0.0860912 39.0222 -0.255877 37.3373 0.187867 35.8915C0.631611 34.4496 1.84071 33.2825 3.81517 32.3903L23.1811 23.6993C23.69 23.4842 24.3454 23.2173 25.1434 22.9027C25.9413 22.588 26.8939 22.4287 28.0053 22.4287C29.1167 22.4287 30.0368 22.588 30.8347 22.9027C31.6326 23.2173 32.288 23.4842 32.7969 23.6993L52.1629 32.3903C54.1373 33.2786 55.3505 34.4456 55.8065 35.8915C56.2624 37.3333 55.9123 39.0222 54.7602 40.9539L47.2736 53.652C46.0523 52.935 44.9042 52.4093 43.8295 52.0747C42.7547 51.7401 41.6067 51.5688 40.3854 51.5688C38.301 51.5688 36.4975 51.991 34.979 52.8394C33.4605 53.6838 32.2799 54.4247 31.4331 55.054C30.4561 55.771 29.7681 56.233 29.3691 56.4361C28.9701 56.6433 28.5142 56.7468 28.0053 56.7468C27.4964 56.7468 27.0079 56.6433 26.6089 56.4361L26.6049 56.4322ZM23.4946 63.2193C22.3303 62.6975 21.341 62.0961 20.5349 61.411C19.7248 60.7259 18.9472 60.1245 18.2063 59.6027C17.4613 59.0809 16.6023 58.822 15.6293 58.822C14.6564 58.822 13.7363 59.0809 13.0157 59.6027C12.2952 60.1245 11.5217 60.7259 10.7034 61.411C9.88102 62.0961 8.84698 62.6975 7.5931 63.2193C6.33921 63.7411 4.67009 64 2.58571 64H2.45137C1.87328 64 1.38068 63.8008 0.969508 63.3986C0.558332 62.9963 0.35478 62.5143 0.35478 61.9487C0.35478 61.3831 0.558332 60.9052 0.969508 60.5148C1.38068 60.1245 1.87328 59.9293 2.45137 59.9293H2.58571C3.9373 59.9293 5.06498 59.6903 5.96468 59.2124C6.86438 58.7344 7.80072 58.1489 8.77777 57.4558C9.62048 56.8464 10.6016 56.245 11.7211 55.6475C12.8407 55.05 14.1434 54.7513 15.6293 54.7513C17.1153 54.7513 18.4913 55.07 19.623 55.7112C20.7548 56.3525 21.74 56.9739 22.5827 57.5833C23.4905 58.2564 24.3414 58.814 25.1271 59.2601C25.9128 59.7062 26.8736 59.9253 28.0053 59.9253C29.1371 59.9253 30.0612 59.7023 30.851 59.2601C31.6367 58.814 32.4875 58.2564 33.3954 57.5833C34.2381 56.9739 35.2273 56.3525 36.355 55.7112C37.4868 55.07 38.8302 54.7513 40.3813 54.7513C41.8469 54.7513 43.1374 55.05 44.2569 55.6475C45.3765 56.245 46.3576 56.8464 47.2003 57.4558C48.1773 58.1489 49.1137 58.7344 50.0134 59.2124C50.9131 59.6903 52.0489 59.9293 53.4249 59.9293H53.5593C54.1373 59.9293 54.6259 60.1245 55.0248 60.5148C55.4238 60.9052 55.6233 61.3831 55.6233 61.9487C55.6233 62.5143 55.4238 62.9963 55.0248 63.3986C54.6259 63.8008 54.1373 64 53.5593 64H53.4249C51.3161 64 49.6388 63.7411 48.385 63.2193C47.1311 62.6975 46.093 62.0961 45.2747 61.411C44.4523 60.7259 43.6829 60.1245 42.9623 59.6027C42.2418 59.0809 41.3828 58.822 40.3854 58.822C39.3879 58.822 38.5167 59.0809 37.7717 59.6027C37.0267 60.1245 36.2532 60.7259 35.4431 61.411C34.633 62.0961 33.6478 62.6975 32.4835 63.2193C31.3191 63.7411 29.8251 64 28.0094 64C26.1937 64 24.6671 63.7411 23.5027 63.2193H23.4946ZM24.8584 18.9953C23.9587 19.2462 22.8554 19.6644 21.5486 20.2499L7.84143 26.4038L10.0724 10.6786C10.3166 9.00573 10.8499 7.68733 11.6682 6.72343C12.4906 5.75952 13.5979 5.27359 14.9943 5.27359H41.0123C42.4087 5.27359 43.5363 5.72766 44.3872 6.63978C45.238 7.5519 45.7551 8.69106 45.9342 10.0573L48.1651 26.4317L34.4253 20.246C33.1145 19.6604 32.0112 19.2422 31.1156 18.9913C30.2159 18.7404 29.1818 18.6169 28.0053 18.6169C26.8288 18.6169 25.7581 18.7404 24.8625 18.9913L24.8584 18.9953ZM24.378 15.8208C25.3103 15.8208 25.7744 15.4623 25.7744 14.7453V10.7742C25.7744 10.0373 25.3103 9.66692 24.378 9.66692H16.3906C15.6578 9.66692 15.2914 10.0373 15.2914 10.7742V14.7453C15.2914 15.4623 15.6578 15.8208 16.3906 15.8208H24.378ZM16.9565 4.0707C16.9565 2.79213 17.3229 1.79238 18.0557 1.07543C18.7885 0.358477 19.8062 0 21.1171 0H34.8569C36.1637 0 37.1896 0.358477 37.9346 1.07543C38.6796 1.79238 39.0501 2.79213 39.0501 4.0707V6.09012H16.9565V4.0707ZM39.2821 15.8208C40.2144 15.8208 40.6785 15.4623 40.6785 14.7453V10.7742C40.6785 10.0373 40.2144 9.66692 39.2821 9.66692H31.2621C30.5538 9.66692 30.1955 10.0373 30.1955 10.7742V14.7453C30.1955 15.4623 30.5497 15.8208 31.2621 15.8208H39.2821Z" fill="url(#paint0_linear_1688_33608)"/>
<defs>
<linearGradient id="paint0_linear_1688_33608" x1="52.0565" y1="11.2836" x2="-3.22131" y2="29.4921" gradientUnits="userSpaceOnUse">
<stop stop-color="#427099"/>
<stop offset="1" stop-color="#81B2DF"/>
</linearGradient>
</defs>
</svg>
