<svg id="Layer_1" data-name="Layer 1" xmlns="http://www.w3.org/2000/svg" xmlns:xlink="http://www.w3.org/1999/xlink" viewBox="0 0 54 62"><defs><style>.cls-1{fill:url(#linear-gradient);}</style><linearGradient id="linear-gradient" x1="333.65" y1="-327.44" x2="282.22" y2="-344.23" gradientTransform="matrix(1, 0, 0, -1, -279, -301)" gradientUnits="userSpaceOnUse"><stop offset="0" stop-color="#4c6378"/><stop offset="1" stop-color="#8dabc5"/></linearGradient></defs><path class="cls-1" d="M41.36,39.48V33.34H53.45V61H9.93v-9H20.39V45.7H30.54V39.48ZM11.63,26.25l-.93-.75h-.08s0,0,0,0L9,27.48v.08s0,0,0,0l.91.72H10l0,0,1.59-2v0s0,0,0,0l0,0ZM9,17.21l3.23,2.61,1.51-1.77a.65.65,0,0,1,.92-.1c.68-.78,1.35-1.57,2-2.36a21.93,21.93,0,0,1,1.46-1.71,8.81,8.81,0,0,1,1.57-1.36,7.41,7.41,0,0,1,2-.9,11.08,11.08,0,0,1,2.69-.34h0c.74,0,1.61,0,2.34,0h.89a8.91,8.91,0,0,1,6.88,3.18c.29.28.56.55.82.76a2.55,2.55,0,0,0,.72.49c.11,0,.43-.12.77-.29a6.6,6.6,0,0,1,.86-.38c1.22-.56,2.47-1.24,3.69-1.74a1.59,1.59,0,0,1,.81-.12,2.25,2.25,0,0,1,.84.24,2.75,2.75,0,0,1,.53.36,2.91,2.91,0,0,1,.44.49v0a2.43,2.43,0,0,1,.31.6,2.55,2.55,0,0,1-.08,1.86,2.25,2.25,0,0,1-.37.68,2.56,2.56,0,0,1-1.2.9c-.91.45-1.83.9-2.75,1.3a13.84,13.84,0,0,1-2.41.86,7.3,7.3,0,0,1-2.87,0h-.08a7.59,7.59,0,0,1-3-1.74l-.49,4.71c.37.19.75.36,1.11.52s.87.35,1.28.52c2.65,1,4.83,1.88,5.55,5.92.09.49.17,1.47.24,2.59.11,1.69.2,3.65.21,4.37a.14.14,0,0,1,0,.09.34.34,0,0,1-.11.18.38.38,0,0,1-.21.07h-.05l-.31,0H35c-.21,0-.31,0-.43-.14a.4.4,0,0,1-.1-.18.44.44,0,0,1,0-.2V37c0-.81-.13-2.18-.22-3.41-.07-.88-.13-1.67-.19-2.09a3,3,0,0,0-.09-.43,2.26,2.26,0,0,0-.15-.39l-.05-.08c-.14-.27-.27-.51-.38-.55s-.44-.16-.73-.25l-1.11-.31-1.31-.32L29.15,29c-.32,1.35-.58,2.76-.84,4.25A49.7,49.7,0,0,1,25.7,43.47a.3.3,0,0,1-.18.17.35.35,0,0,1-.25,0,6.05,6.05,0,0,1-1.05.06c-1,0-2.48,0-3.1,0H21c-.21,0-.32,0-.44-.18a.48.48,0,0,1-.07-.2.5.5,0,0,1,0-.21l0-.16c.07-.33.17-.84.3-1.47l.55-2.54c.36-1.68.85-3.91,1.33-6,.62-2.8,1.17-5.25,1.36-6.09a5.8,5.8,0,0,1-.49-.62,6.91,6.91,0,0,1-.54-.86,4.76,4.76,0,0,1-.4-1.09A3.79,3.79,0,0,1,22.59,23l.84-6.54a2,2,0,0,0-.86.2,3.11,3.11,0,0,0-.72.58,8.7,8.7,0,0,0-.73.89c-.2.25-.41.53-.67.83L18.54,21.2a.57.57,0,0,1,0,.34.73.73,0,0,1-.14.31l-1.56,1.78,3.22,2.61a1,1,0,0,1,.33.6.74.74,0,0,1,0,.36.79.79,0,0,1-.17.31l-1.39,1.77a20.35,20.35,0,0,1-3.64-.61,18.12,18.12,0,0,1-3.4-1.28l.56-.69a.6.6,0,0,0,.13-.25.72.72,0,0,0,0-.29.9.9,0,0,0-.08-.28.79.79,0,0,0-.19-.22l-1.07-.87a.82.82,0,0,0-.26-.14.93.93,0,0,0-.29,0,.84.84,0,0,0-.27.08.67.67,0,0,0-.22.19l-.55.67a18.22,18.22,0,0,1-1.9-3A20.63,20.63,0,0,1,6.33,19l1.36-1.68A.91.91,0,0,1,8.31,17a.87.87,0,0,1,.67.2Zm4.81,2.41-.74.87,3,2.44.57-.65c-.87-.74-2.06-1.81-2.82-2.6l-.05-.06ZM18,30.26l-3.8,4.68a.82.82,0,0,1-.27.22.9.9,0,0,1-.34.11,1,1,0,0,1-.68-.2l-11.14-9a.91.91,0,0,1-.33-.62.74.74,0,0,1,0-.36.79.79,0,0,1,.17-.31l3.83-4.72A21.27,21.27,0,0,0,6.69,23a19.53,19.53,0,0,0,2.2,3.42l-.6.74a.66.66,0,0,0-.14.26.7.7,0,0,0,0,.29.86.86,0,0,0,.09.27.67.67,0,0,0,.19.22l1.07.88a.79.79,0,0,0,.26.13.67.67,0,0,0,.28,0,.66.66,0,0,0,.28-.09.65.65,0,0,0,.22-.18l.63-.78,0,.06A19.77,19.77,0,0,0,15,29.69,20.88,20.88,0,0,0,18,30.26Zm20.88,7.18ZM27.17,1.3A4.37,4.37,0,0,1,28.92,1a4.54,4.54,0,0,1,4.21,2.8,4.51,4.51,0,0,1,.35,1.74A4.42,4.42,0,0,1,32.72,8a4.55,4.55,0,0,1-3.78,2,4.5,4.5,0,0,1-4.18-2.78,4.41,4.41,0,0,1-.35-1.75A4.47,4.47,0,0,1,25.16,3a4.53,4.53,0,0,1,2-1.68Z"/></svg>