<svg id="Layer_1" data-name="Layer 1" xmlns="http://www.w3.org/2000/svg" xmlns:xlink="http://www.w3.org/1999/xlink" viewBox="0 0 56 62"><defs><style>.cls-1{fill-rule:evenodd;fill:url(#linear-gradient);}</style><linearGradient id="linear-gradient" x1="332.94" y1="-322.57" x2="279.94" y2="-340.52" gradientTransform="matrix(1, 0, 0, -1, -278, -301)" gradientUnits="userSpaceOnUse"><stop offset="0" stop-color="#9a242d"/><stop offset="1" stop-color="#e6505c"/></linearGradient></defs><path class="cls-1" d="M28.68,1.09A61,61,0,0,0,42.54,7.92a29,29,0,0,0,11.89,1.6.73.73,0,0,1,.53.16.77.77,0,0,1,.26.5v0c.66,13.39-1.39,24.13-5.73,32.42A38.12,38.12,0,0,1,28.6,60.91a.82.82,0,0,1-.49,0A36.84,36.84,0,0,1,8,43.82c-4.62-8.37-7-19.51-6.59-34a.77.77,0,0,1,.22-.52.77.77,0,0,1,.52-.2A39,39,0,0,0,15.7,7.55,36.91,36.91,0,0,0,27.8,1.1a.72.72,0,0,1,.88,0ZM40.47,12.76A55.58,55.58,0,0,1,28.33,6.81,34.17,34.17,0,0,1,17,12.63,35.65,35.65,0,0,1,5.81,13.92c0,11.55,2,20.51,5.84,27.24A30.47,30.47,0,0,0,25.27,53.88l-2.85-8.5c-.42-1-.73-2-1.12-2.93a19.9,19.9,0,0,0-2.79-4.59,11.58,11.58,0,0,1-1.36-5.53c.68.53,1.44,1.15,2.17,1.74,1.39,1.1,2.84,2.44,4.29.49.27-.4.55-.78.84-1.13a20.08,20.08,0,0,1,3.7-3.61c-1.44,1.47-2,4.36-1.32,8,.48-5.86,1.89-10.39,8.77-9.48l-.83-2L32,27.41c-2.19.82-4.66-2.13-3.56-3.51,3.75-2.18,8.75-6.27,11.17-1.84l2,3.67c2.63,4.76.9,6.48-2.36,11.09a31.53,31.53,0,0,1-4.08,4.77c-.77.73-.64.49-.06,1.47l3.42,6.16a30.52,30.52,0,0,0,6.77-8.38c3.74-6.69,5.61-15.48,5.52-26.55A28.39,28.39,0,0,1,40.47,12.76ZM17.14,26.05a1.16,1.16,0,0,1,.72-.36,1.18,1.18,0,0,1,.42,0,1.87,1.87,0,0,1,.83.55,42.77,42.77,0,0,1,4.26,4.36c.72.67.88,1.36.32,2l-1,1.16c-.51.52-1.17.48-1.89,0C17.53,31.05,13.71,29.63,17.14,26.05Zm15-12.41a1.16,1.16,0,0,1,.44.12,6.4,6.4,0,0,1,1.92,2.51c.23.44.9,1.63,1.45,2.63l-4.63,1.89c-.74-1.21-1.41-2.44-2.08-3.45a1.54,1.54,0,0,1-.36-.76,1.57,1.57,0,0,1,.11-.83,3.58,3.58,0,0,1,1.45-1.41A6,6,0,0,1,32.18,13.64Zm-5.47,3.13a1.33,1.33,0,0,1,.44.09,2,2,0,0,1,.81.64,10.53,10.53,0,0,1,1.29,1.75c.22.36.72,1.14,1.24,1.95-1.6.73-3.75,1.12-3.83,3.19-.94-1.3-1.78-2.69-2.61-3.76a1.5,1.5,0,0,1-.34-1.58,4.59,4.59,0,0,1,3-2.3ZM21.77,21a1.24,1.24,0,0,1,.43,0,1.92,1.92,0,0,1,.83.55,10.56,10.56,0,0,1,1.36,1.55c.56.79,2.78,3.63,3.1,4.29a1.17,1.17,0,0,1,.14.71,1.21,1.21,0,0,1-.3.67L26,30.07a1.35,1.35,0,0,1-1.9,0c-1.68-1.63-3.21-3.7-4.56-5.17a1.36,1.36,0,0,1-.44-.66,1.45,1.45,0,0,1,0-.8A4.54,4.54,0,0,1,21.77,21Z"/></svg>