<svg width="61" height="59" viewBox="0 0 61 59" fill="none" xmlns="http://www.w3.org/2000/svg">
<path d="M48.6479 47.0093C45.4359 47.0093 42.4159 45.7582 40.1448 43.4871C37.8738 41.2161 36.6227 38.1961 36.6227 34.984C36.6227 31.772 37.8738 28.752 40.1448 26.4809C42.4159 24.2099 45.4359 22.9587 48.6479 22.9587C51.86 22.9587 54.88 24.2099 57.151 26.4809C59.4221 28.752 60.6732 31.772 60.6732 34.984C60.6732 38.1961 59.4221 41.2161 57.151 43.4871C54.88 45.7582 51.86 47.0093 48.6479 47.0093ZM48.6479 24.0514C45.728 24.0514 42.9821 25.1888 40.9174 27.2535C38.8527 29.3182 37.7153 32.0635 37.7153 34.984C37.7153 37.9046 38.8527 40.6498 40.9174 42.7146C42.9821 44.7793 45.7274 45.9167 48.6479 45.9167C51.5685 45.9167 54.3137 44.7793 56.3785 42.7146C58.4432 40.6498 59.5806 37.9046 59.5806 34.984C59.5806 32.0635 58.4432 29.3182 56.3785 27.2535C54.3137 25.1888 51.5685 24.0514 48.6479 24.0514Z" fill="url(#paint0_linear_1691_33637)"/>
<path d="M48.6492 44.2764C46.1668 44.2764 43.8336 43.3099 42.0784 41.5547C40.3232 39.7995 39.3567 37.4663 39.3567 34.984C39.3567 32.5016 40.3232 30.1684 42.0784 28.4132C43.8336 26.658 46.1668 25.6915 48.6492 25.6915C51.1315 25.6915 53.4647 26.658 55.2199 28.4132C56.9751 30.1684 57.9416 32.5016 57.9416 34.984C57.9416 37.4663 56.9745 39.7995 55.2199 41.5547C53.4647 43.3099 51.1315 44.2764 48.6492 44.2764ZM48.6492 26.7848C46.4589 26.7848 44.3998 27.6375 42.8516 29.1864C41.3027 30.7352 40.45 32.7937 40.45 34.984C40.45 37.1742 41.3027 39.2333 42.8516 40.7815C44.4004 42.3304 46.4589 43.1831 48.6492 43.1831C50.8394 43.1831 52.8985 42.3304 54.4468 40.7815C55.9956 39.2327 56.8483 37.1742 56.8483 34.984C56.8483 32.7937 55.9956 30.7346 54.4468 29.1864C52.8979 27.6375 50.8394 26.7848 48.6492 26.7848Z" fill="url(#paint1_linear_1691_33637)"/>
<path d="M53.0223 58.4886H2.73285C1.22565 58.4886 0 57.2623 0 55.7557V9.83991C0 8.33271 1.22627 7.10706 2.73285 7.10706H4.37243C4.67449 7.10706 4.91875 7.35194 4.91875 7.65338C4.91875 7.95482 4.67387 8.1997 4.37243 8.1997H2.73285C1.82853 8.1997 1.09326 8.93559 1.09326 9.83928V55.7557C1.09326 56.66 1.82915 57.3953 2.73285 57.3953H53.0223C53.9267 57.3953 54.6619 56.6594 54.6619 55.7557V47.5566C54.6619 47.2545 54.9068 47.0102 55.2082 47.0102C55.5097 47.0102 55.7546 47.2551 55.7546 47.5566V55.7557C55.7546 57.2629 54.5289 58.4886 53.0223 58.4886Z" fill="url(#paint2_linear_1691_33637)"/>
<path d="M55.2069 22.9585C54.9049 22.9585 54.6606 22.7136 54.6606 22.4122V9.83994C54.6606 8.93562 53.9247 8.20035 53.021 8.20035H36.6227C36.3206 8.20035 36.0764 7.95547 36.0764 7.65403C36.0764 7.35259 36.3212 7.10771 36.6227 7.10771H53.021C54.5282 7.10771 55.7539 8.33398 55.7539 9.84056V22.4128C55.7539 22.7148 55.5084 22.9585 55.2069 22.9585Z" fill="url(#paint3_linear_1691_33637)"/>
<path d="M55.2081 14.7592H39.9031C39.601 14.7592 39.3567 14.5143 39.3567 14.2128C39.3567 13.9114 39.6016 13.6665 39.9031 13.6665H55.2081C55.5102 13.6665 55.7544 13.9114 55.7544 14.2128C55.7544 14.5143 55.5096 14.7592 55.2081 14.7592Z" fill="url(#paint4_linear_1691_33637)"/>
<path d="M43.1841 12.5727C42.2798 12.5727 41.5445 11.8368 41.5445 10.9331C41.5445 10.0294 42.2804 9.29354 43.1841 9.29354C44.0878 9.29354 44.8237 10.0294 44.8237 10.9331C44.8237 11.8368 44.0878 12.5727 43.1841 12.5727ZM43.1841 10.3862C42.8827 10.3862 42.6378 10.6317 42.6378 10.9325C42.6378 11.2333 42.8833 11.4788 43.1841 11.4788C43.4849 11.4788 43.7304 11.2333 43.7304 10.9325C43.7304 10.6317 43.4849 10.3862 43.1841 10.3862Z" fill="url(#paint5_linear_1691_33637)"/>
<path d="M47.5571 12.5727C46.6528 12.5727 45.9175 11.8368 45.9175 10.9331C45.9175 10.0294 46.6534 9.29354 47.5571 9.29354C48.4608 9.29354 49.1967 10.0294 49.1967 10.9331C49.1967 11.8368 48.4608 12.5727 47.5571 12.5727ZM47.5571 10.3862C47.2556 10.3862 47.0108 10.6317 47.0108 10.9325C47.0108 11.2333 47.2563 11.4788 47.5571 11.4788C47.8579 11.4788 48.1034 11.2333 48.1034 10.9325C48.1034 10.6317 47.8579 10.3862 47.5571 10.3862Z" fill="url(#paint6_linear_1691_33637)"/>
<path d="M51.9301 12.5727C51.0257 12.5727 50.2905 11.8368 50.2905 10.9331C50.2905 10.0294 51.0264 9.29354 51.9301 9.29354C52.8338 9.29354 53.5696 10.0294 53.5696 10.9331C53.5696 11.8368 52.8338 12.5727 51.9301 12.5727ZM51.9301 10.3862C51.6286 10.3862 51.3837 10.6317 51.3837 10.9325C51.3837 11.2333 51.6292 11.4788 51.9301 11.4788C52.2309 11.4788 52.4764 11.2333 52.4764 10.9325C52.4764 10.6317 52.2309 10.3862 51.9301 10.3862Z" fill="url(#paint7_linear_1691_33637)"/>
<path d="M23.3221 33.8912H18.2206C17.939 33.8912 17.7029 33.6767 17.6761 33.3964L17.3119 29.5747C17.2473 28.896 16.8147 28.3136 16.1838 28.0544C15.5263 27.7828 14.8103 27.8891 14.287 28.3217L11.3272 30.7668C11.1103 30.9458 10.7915 30.9315 10.5926 30.7319L6.98527 27.124C6.78576 26.9245 6.77084 26.6069 6.95046 26.3893L9.39555 23.4296C9.82813 22.9057 9.93503 22.1897 9.67461 21.5601C9.40425 20.9019 8.82126 20.4693 8.14317 20.4047L4.32141 20.0405C4.0411 20.0137 3.82668 19.7782 3.82668 19.496V14.3945C3.82668 14.113 4.0411 13.8768 4.32141 13.8501L8.14317 13.4859C8.82188 13.4212 9.40425 12.9886 9.66342 12.3578C9.93503 11.7008 9.82813 10.9848 9.39555 10.4609L6.95046 7.50119C6.77084 7.28428 6.78576 6.96606 6.98527 6.76655L10.5926 3.15921C10.7921 2.9597 11.1103 2.94479 11.3272 3.12441L14.287 5.56949C14.8109 6.00207 15.5269 6.10897 16.1565 5.84793C16.8147 5.57757 17.2473 4.99458 17.3119 4.31649L17.6761 0.494734C17.7029 0.214426 17.9384 0 18.2206 0H23.3221C23.6036 0 23.8398 0.214426 23.8665 0.494734L24.2307 4.31649C24.2954 4.9952 24.728 5.57757 25.3588 5.83675C26.0151 6.10773 26.7318 6.00145 27.2557 5.56949L30.2154 3.12441C30.4323 2.94479 30.7505 2.9597 30.9501 3.15921L34.5574 6.76655C34.7569 6.96544 34.7718 7.28366 34.5922 7.50119L32.1471 10.4609C31.7145 10.9848 31.6076 11.7008 31.868 12.3304C32.1384 12.9886 32.7214 13.4212 33.3995 13.4859L37.2212 13.8501C37.5015 13.8768 37.716 14.1124 37.716 14.3945V19.496C37.716 19.7776 37.5015 20.0137 37.2212 20.0405L33.3995 20.4047C32.7208 20.4693 32.1384 20.9019 31.8792 21.5327C31.6076 22.1897 31.7145 22.9057 32.1471 23.4296L34.5922 26.3893C34.7718 26.6069 34.7569 26.9245 34.5574 27.124L30.9501 30.7319C30.7505 30.9315 30.4323 30.9464 30.2154 30.7668L27.2557 28.3217C26.7324 27.8897 26.017 27.7828 25.3862 28.0432C24.728 28.3136 24.2954 28.8966 24.2307 29.5747L23.8665 33.3964C23.8398 33.6767 23.6042 33.8912 23.3221 33.8912ZM18.7172 32.7979H22.8248L23.1418 29.4715C23.245 28.3876 23.9355 27.4571 24.943 27.0432C25.9729 26.6181 27.1159 26.7877 27.9518 27.4789L30.5287 29.6076L33.433 26.7026L31.3049 24.1264C30.6144 23.2904 30.4429 22.1468 30.8587 21.1424C31.2826 20.1101 32.213 19.4196 33.2969 19.3164L36.6233 18.9994V14.8917L33.2969 14.5748C32.213 14.4716 31.2826 13.7811 30.8686 12.7736C30.4429 11.7443 30.6138 10.6007 31.3043 9.76479L33.4324 7.18856L30.528 4.28417L27.9512 6.4129C27.1152 7.10341 25.971 7.27433 24.9672 6.85853C23.9349 6.43465 23.245 5.50423 23.1412 4.42029L22.8242 1.09388H18.7166L18.3996 4.42029C18.2964 5.50423 17.6059 6.43465 16.5984 6.84859C15.5692 7.27496 14.4268 7.10404 13.5896 6.4129L11.0128 4.28417L8.10837 7.18856L10.2365 9.76541C10.927 10.6014 11.0985 11.745 10.6827 12.7494C10.2588 13.7817 9.32842 14.4722 8.24448 14.5754L4.91807 14.8924V19L8.24448 19.317C9.32842 19.4202 10.2588 20.1107 10.6728 21.1182C11.0985 22.1474 10.9276 23.291 10.2371 24.127L8.10899 26.7032L11.0134 29.6082L13.5902 27.4795C14.4262 26.789 15.5704 26.6174 16.5742 27.0339C17.6065 27.4578 18.2964 28.3882 18.4002 29.4721L18.7172 32.7979Z" fill="url(#paint8_linear_1691_33637)"/>
<path d="M20.7718 25.1449C16.2508 25.1449 12.5726 21.4667 12.5726 16.9458C12.5726 12.4248 16.2508 8.74659 20.7718 8.74659C25.2928 8.74659 28.9709 12.4248 28.9709 16.9458C28.9709 21.4667 25.2928 25.1449 20.7718 25.1449ZM20.7718 9.83986C16.8531 9.83986 13.6659 13.0277 13.6659 16.9458C13.6659 20.8639 16.8537 24.0517 20.7718 24.0517C24.6899 24.0517 27.8777 20.8639 27.8777 16.9458C27.8777 13.0277 24.6899 9.83986 20.7718 9.83986Z" fill="url(#paint9_linear_1691_33637)"/>
<path d="M20.7724 21.8651C18.06 21.8651 15.853 19.658 15.853 16.9457C15.853 14.2334 18.06 12.0263 20.7724 12.0263C23.4847 12.0263 25.6917 14.2334 25.6917 16.9457C25.6917 19.658 23.4847 21.8651 20.7724 21.8651ZM20.7724 13.119C18.6623 13.119 16.9463 14.8356 16.9463 16.9451C16.9463 19.0545 18.6629 20.7712 20.7724 20.7712C22.8818 20.7712 24.5985 19.0545 24.5985 16.9451C24.5985 14.8356 22.8818 13.119 20.7724 13.119Z" fill="url(#paint10_linear_1691_33637)"/>
<path d="M49.671 42.0905H47.6305C47.349 42.0905 47.1128 41.8761 47.086 41.5958L46.9406 40.0674C46.9263 39.9176 46.8306 39.789 46.6908 39.7318C46.5397 39.669 46.3819 39.6927 46.2656 39.7884L45.0816 40.766C44.8647 40.945 44.5465 40.9301 44.347 40.7312L42.9044 39.2887C42.7049 39.0898 42.69 38.7716 42.8696 38.554L43.8473 37.37C43.943 37.2544 43.9666 37.0959 43.9088 36.9567C43.8467 36.8057 43.718 36.7093 43.5676 36.6957L42.0393 36.5502C41.759 36.5235 41.5445 36.2879 41.5445 36.0058V33.9653C41.5445 33.6837 41.759 33.4476 42.0393 33.4208L43.5676 33.2754C43.7174 33.2611 43.846 33.1654 43.9032 33.0256C43.966 32.8745 43.9424 32.716 43.8467 32.6004L42.869 31.4164C42.6894 31.1989 42.7043 30.8813 42.9038 30.6818L44.3464 29.2392C44.5459 29.0403 44.8641 29.0248 45.081 29.2044L46.265 30.1821C46.38 30.2778 46.5391 30.3014 46.6783 30.2436C46.8294 30.1815 46.9257 30.0528 46.9394 29.9024L47.0848 28.3741C47.1115 28.0937 47.3471 27.8793 47.6293 27.8793H49.6697C49.9513 27.8793 50.1875 28.0937 50.2142 28.3741L50.3596 29.9024C50.3739 30.0522 50.4696 30.1808 50.6089 30.2386C50.7599 30.3008 50.9184 30.2772 51.0346 30.1821L52.2186 29.2044C52.4355 29.0248 52.7537 29.0397 52.9533 29.2392L54.3958 30.6818C54.5953 30.8807 54.6102 31.1989 54.4306 31.4164L53.453 32.6004C53.3572 32.716 53.3336 32.8745 53.3914 33.0137C53.4536 33.1648 53.5822 33.2611 53.7326 33.2748L55.261 33.4202C55.5413 33.4469 55.7557 33.6825 55.7557 33.9647V36.0051C55.7557 36.2867 55.5413 36.5229 55.261 36.5496L53.7326 36.695C53.5829 36.7093 53.4542 36.805 53.3964 36.9443C53.3336 37.0953 53.3572 37.2544 53.453 37.3694L54.4306 38.5534C54.6102 38.7709 54.5953 39.0885 54.3958 39.288L52.9533 40.7306C52.7537 40.9301 52.4355 40.9444 52.2186 40.7654L51.0346 39.7878C50.9196 39.6927 50.7611 39.669 50.6213 39.7262C50.4703 39.7884 50.3739 39.917 50.3602 40.0674L50.2148 41.5958C50.1881 41.8761 49.9531 42.0905 49.671 42.0905ZM48.1271 40.9972H49.1738L49.272 39.9636C49.3248 39.408 49.6784 38.9319 50.1949 38.72C50.7189 38.5043 51.3031 38.5913 51.7313 38.945L52.5325 39.6063L53.2721 38.8666L52.6108 38.0655C52.2571 37.6373 52.1695 37.0518 52.3821 36.5378C52.5977 36.0126 53.0744 35.659 53.6288 35.6061L54.6631 35.5079V34.4613L53.6295 34.3631C53.0738 34.3102 52.5977 33.9566 52.3858 33.4401C52.1695 32.9168 52.2571 32.3319 52.6108 31.9037L53.2721 31.1026L52.5325 30.3629L51.7313 31.0242C51.3031 31.3779 50.717 31.4655 50.2036 31.253C49.6784 31.0373 49.3248 30.5606 49.272 30.0062L49.1738 28.972H48.1271L48.0289 30.0056C47.9761 30.5606 47.6224 31.0373 47.1066 31.2492C46.5832 31.4668 45.9978 31.3785 45.5695 31.0242L44.7684 30.3629L44.0288 31.1026L44.6901 31.9037C45.0437 32.3319 45.1314 32.9174 44.9188 33.4314C44.7031 33.9566 44.227 34.3102 43.672 34.3631L42.6378 34.4613V35.5079L43.6714 35.6061C44.2264 35.659 44.7031 36.0126 44.9151 36.5285C45.132 37.0518 45.0437 37.6373 44.6901 38.0655L44.0288 38.8666L44.7684 39.6063L45.5695 38.945C45.9971 38.5907 46.5832 38.5024 47.0972 38.7162C47.6224 38.9319 47.9761 39.408 48.0289 39.963L48.1271 40.9972Z" fill="url(#paint11_linear_1691_33637)"/>
<path d="M48.6503 37.7173C47.1431 37.7173 45.9175 36.4911 45.9175 34.9845C45.9175 33.4779 47.1438 32.2516 48.6503 32.2516C50.1569 32.2516 51.3832 33.4779 51.3832 34.9845C51.3832 36.4911 50.1569 37.7173 48.6503 37.7173ZM48.6503 33.3443C47.746 33.3443 47.0108 34.0802 47.0108 34.9839C47.0108 35.8876 47.7466 36.6234 48.6503 36.6234C49.554 36.6234 50.2899 35.8876 50.2899 34.9839C50.2899 34.0802 49.554 33.3443 48.6503 33.3443Z" fill="url(#paint12_linear_1691_33637)"/>
<path d="M1.63958 14.7592H0.546321C0.244259 14.7592 0 14.5143 0 14.2128C0 13.9114 0.244881 13.6665 0.546321 13.6665H1.63958C1.94165 13.6665 2.1859 13.9114 2.1859 14.2128C2.1859 14.5143 1.94102 14.7592 1.63958 14.7592Z" fill="url(#paint13_linear_1691_33637)"/>
<path d="M38.9866 47.5127C38.8468 47.5127 38.707 47.4593 38.6001 47.3524L36.2811 45.0335C36.0673 44.8197 36.0673 44.4741 36.2811 44.2603L39.0718 41.4696C39.2856 41.2558 39.6312 41.2558 39.845 41.4696C40.0588 41.6834 40.0588 42.029 39.845 42.2428L37.4409 44.6469L38.9873 46.1932L41.3913 43.7892C41.6051 43.5754 41.9507 43.5754 42.1645 43.7892C42.3783 44.003 42.3783 44.3485 42.1645 44.5623L39.3739 47.353C39.2669 47.4599 39.1265 47.5127 38.9866 47.5127Z" fill="url(#paint14_linear_1691_33637)"/>
<path d="M30.8694 55.4956C30.1695 55.4956 29.4697 55.229 28.9371 54.6963C27.8718 53.6304 27.8718 51.897 28.9371 50.8311L35.8944 43.8737C36.1082 43.6599 36.4538 43.6599 36.6676 43.8737L39.7597 46.9658C39.9735 47.1796 39.9735 47.5252 39.7597 47.739L32.8023 54.6963C32.2697 55.229 31.5692 55.4956 30.8694 55.4956ZM29.7096 53.9238C30.3492 54.5627 31.389 54.5627 32.0285 53.9238L38.6001 47.3524L36.2811 45.0335L29.7096 51.6049C29.0701 52.2438 29.0701 53.2842 29.7096 53.9238Z" fill="url(#paint15_linear_1691_33637)"/>
<path d="M8.74605 54.6625H4.373C4.07094 54.6625 3.82668 54.4177 3.82668 54.1162V36.6246C3.82668 36.3226 4.07156 36.0783 4.373 36.0783H8.74605C9.04811 36.0783 9.29237 36.3232 9.29237 36.6246V54.1162C9.29237 54.4183 9.04749 54.6625 8.74605 54.6625ZM4.91994 53.5693H8.19973V37.171H4.91994V53.5693Z" fill="url(#paint16_linear_1691_33637)"/>
<path d="M15.8531 54.6626H11.4801C11.178 54.6626 10.9337 54.4177 10.9337 54.1163V34.4381C10.9337 34.1361 11.1786 33.8918 11.4801 33.8918H15.8531C16.1552 33.8918 16.3994 34.1367 16.3994 34.4381V54.1163C16.3994 54.4183 16.1545 54.6626 15.8531 54.6626ZM12.027 53.5693H15.3068V34.9845H12.027V53.5693Z" fill="url(#paint17_linear_1691_33637)"/>
<path d="M22.9576 54.6625H18.5845C18.2824 54.6625 18.0382 54.4177 18.0382 54.1162V36.0777C18.0382 35.7756 18.2831 35.5314 18.5845 35.5314H22.9576C23.2596 35.5314 23.5039 35.7762 23.5039 36.0777V54.1162C23.5039 54.4183 23.259 54.6625 22.9576 54.6625ZM19.1314 53.5693H22.4112V36.624H19.1314V53.5693Z" fill="url(#paint18_linear_1691_33637)"/>
<path d="M26.7848 54.6625H25.6916C25.3895 54.6625 25.1452 54.4176 25.1452 54.1162V37.7179C25.1452 37.4158 25.3901 37.1716 25.6916 37.1716H30.0646C30.3667 37.1716 30.6109 37.4164 30.6109 37.7179V47.5572C30.6109 47.8593 30.366 48.1036 30.0646 48.1036C29.7632 48.1036 29.5183 47.8587 29.5183 47.5572V38.2648H26.2385V53.5699H26.7848C27.0869 53.5699 27.3311 53.8148 27.3311 54.1162C27.3311 54.4176 27.0863 54.6625 26.7848 54.6625Z" fill="url(#paint19_linear_1691_33637)"/>
<path d="M32.796 45.3702C32.4939 45.3702 32.2497 45.1253 32.2497 44.8239V32.2517C32.2497 31.9496 32.4946 31.7053 32.796 31.7053H35.5288C35.8309 31.7053 36.0752 31.9502 36.0752 32.2517C36.0752 32.5531 35.8303 32.798 35.5288 32.798H33.3423V44.8239C33.3423 45.1259 33.0974 45.3702 32.796 45.3702Z" fill="url(#paint20_linear_1691_33637)"/>
<defs>
<linearGradient id="paint0_linear_1691_33637" x1="56.4006" y1="10.3119" x2="-1.20363" y2="32.8074" gradientUnits="userSpaceOnUse">
<stop stop-color="#815520"/>
<stop offset="1" stop-color="#D39140"/>
</linearGradient>
<linearGradient id="paint1_linear_1691_33637" x1="56.4006" y1="10.3119" x2="-1.20363" y2="32.8074" gradientUnits="userSpaceOnUse">
<stop stop-color="#815520"/>
<stop offset="1" stop-color="#D39140"/>
</linearGradient>
<linearGradient id="paint2_linear_1691_33637" x1="56.4006" y1="10.3119" x2="-1.20363" y2="32.8074" gradientUnits="userSpaceOnUse">
<stop stop-color="#815520"/>
<stop offset="1" stop-color="#D39140"/>
</linearGradient>
<linearGradient id="paint3_linear_1691_33637" x1="56.4006" y1="10.3119" x2="-1.20363" y2="32.8074" gradientUnits="userSpaceOnUse">
<stop stop-color="#815520"/>
<stop offset="1" stop-color="#D39140"/>
</linearGradient>
<linearGradient id="paint4_linear_1691_33637" x1="56.4006" y1="10.3119" x2="-1.20363" y2="32.8074" gradientUnits="userSpaceOnUse">
<stop stop-color="#815520"/>
<stop offset="1" stop-color="#D39140"/>
</linearGradient>
<linearGradient id="paint5_linear_1691_33637" x1="56.4006" y1="10.3119" x2="-1.20363" y2="32.8074" gradientUnits="userSpaceOnUse">
<stop stop-color="#815520"/>
<stop offset="1" stop-color="#D39140"/>
</linearGradient>
<linearGradient id="paint6_linear_1691_33637" x1="56.4006" y1="10.3119" x2="-1.20363" y2="32.8074" gradientUnits="userSpaceOnUse">
<stop stop-color="#815520"/>
<stop offset="1" stop-color="#D39140"/>
</linearGradient>
<linearGradient id="paint7_linear_1691_33637" x1="56.4006" y1="10.3119" x2="-1.20363" y2="32.8074" gradientUnits="userSpaceOnUse">
<stop stop-color="#815520"/>
<stop offset="1" stop-color="#D39140"/>
</linearGradient>
<linearGradient id="paint8_linear_1691_33637" x1="56.4006" y1="10.3119" x2="-1.20363" y2="32.8074" gradientUnits="userSpaceOnUse">
<stop stop-color="#815520"/>
<stop offset="1" stop-color="#D39140"/>
</linearGradient>
<linearGradient id="paint9_linear_1691_33637" x1="56.4006" y1="10.3119" x2="-1.20363" y2="32.8074" gradientUnits="userSpaceOnUse">
<stop stop-color="#815520"/>
<stop offset="1" stop-color="#D39140"/>
</linearGradient>
<linearGradient id="paint10_linear_1691_33637" x1="56.4006" y1="10.3119" x2="-1.20363" y2="32.8074" gradientUnits="userSpaceOnUse">
<stop stop-color="#815520"/>
<stop offset="1" stop-color="#D39140"/>
</linearGradient>
<linearGradient id="paint11_linear_1691_33637" x1="56.4006" y1="10.3119" x2="-1.20363" y2="32.8074" gradientUnits="userSpaceOnUse">
<stop stop-color="#815520"/>
<stop offset="1" stop-color="#D39140"/>
</linearGradient>
<linearGradient id="paint12_linear_1691_33637" x1="56.4006" y1="10.3119" x2="-1.20363" y2="32.8074" gradientUnits="userSpaceOnUse">
<stop stop-color="#815520"/>
<stop offset="1" stop-color="#D39140"/>
</linearGradient>
<linearGradient id="paint13_linear_1691_33637" x1="56.4006" y1="10.3119" x2="-1.20363" y2="32.8074" gradientUnits="userSpaceOnUse">
<stop stop-color="#815520"/>
<stop offset="1" stop-color="#D39140"/>
</linearGradient>
<linearGradient id="paint14_linear_1691_33637" x1="56.4006" y1="10.3119" x2="-1.20363" y2="32.8074" gradientUnits="userSpaceOnUse">
<stop stop-color="#815520"/>
<stop offset="1" stop-color="#D39140"/>
</linearGradient>
<linearGradient id="paint15_linear_1691_33637" x1="56.4006" y1="10.3119" x2="-1.20363" y2="32.8074" gradientUnits="userSpaceOnUse">
<stop stop-color="#815520"/>
<stop offset="1" stop-color="#D39140"/>
</linearGradient>
<linearGradient id="paint16_linear_1691_33637" x1="56.4006" y1="10.3119" x2="-1.20363" y2="32.8074" gradientUnits="userSpaceOnUse">
<stop stop-color="#815520"/>
<stop offset="1" stop-color="#D39140"/>
</linearGradient>
<linearGradient id="paint17_linear_1691_33637" x1="56.4006" y1="10.3119" x2="-1.20363" y2="32.8074" gradientUnits="userSpaceOnUse">
<stop stop-color="#815520"/>
<stop offset="1" stop-color="#D39140"/>
</linearGradient>
<linearGradient id="paint18_linear_1691_33637" x1="56.4006" y1="10.3119" x2="-1.20363" y2="32.8074" gradientUnits="userSpaceOnUse">
<stop stop-color="#815520"/>
<stop offset="1" stop-color="#D39140"/>
</linearGradient>
<linearGradient id="paint19_linear_1691_33637" x1="56.4006" y1="10.3119" x2="-1.20363" y2="32.8074" gradientUnits="userSpaceOnUse">
<stop stop-color="#815520"/>
<stop offset="1" stop-color="#D39140"/>
</linearGradient>
<linearGradient id="paint20_linear_1691_33637" x1="56.4006" y1="10.3119" x2="-1.20363" y2="32.8074" gradientUnits="userSpaceOnUse">
<stop stop-color="#815520"/>
<stop offset="1" stop-color="#D39140"/>
</linearGradient>
</defs>
</svg>
