<svg width="58" height="63" viewBox="0 0 58 63" fill="none" xmlns="http://www.w3.org/2000/svg">
<path d="M44.932 49.1084L4.42542 49.5109L0.325565 53.1784L0.385199 59.5593L3.50109 62.3919L46.1844 61.9596L49.017 59.0673L48.9424 52.6864L44.932 49.1084Z" fill="url(#paint0_linear_1694_33678)"/>
<path d="M44.7406 12.881L4.23404 13.2985L0.0596343 9.70548L0 3.32461L3.05626 0.432344L45.7395 0L48.6169 2.83263L48.6914 9.2135L44.7406 12.881Z" fill="url(#paint1_linear_1694_33678)"/>
<path d="M5.52002 14.5556L5.53783 16.3148L43.3739 15.9317L43.3561 14.1726L5.52002 14.5556Z" fill="url(#paint2_linear_1694_33678)"/>
<path d="M5.54903 17.2988L5.56684 19.0579L43.4029 18.6749L43.3851 16.9157L5.54903 17.2988Z" fill="url(#paint3_linear_1694_33678)"/>
<path d="M5.5716 19.9371L5.58941 21.6963L43.4254 21.3132L43.4076 19.5541L5.5716 19.9371Z" fill="url(#paint4_linear_1694_33678)"/>
<path d="M5.61995 22.5755L5.63776 24.3346L43.4738 23.9516L43.456 22.1925L5.61995 22.5755Z" fill="url(#paint5_linear_1694_33678)"/>
<path d="M5.62962 25.2131L5.64743 26.9722L43.4835 26.5892L43.4657 24.83L5.62962 25.2131Z" fill="url(#paint6_linear_1694_33678)"/>
<path d="M5.65541 27.8692L5.67321 29.6283L43.5093 29.2453L43.4914 27.4861L5.65541 27.8692Z" fill="url(#paint7_linear_1694_33678)"/>
<path d="M5.68442 30.5188L5.70223 32.2779L43.5383 31.8949L43.5205 30.1358L5.68442 30.5188Z" fill="url(#paint8_linear_1694_33678)"/>
<path d="M5.71343 33.1564L5.73124 34.9155L43.5673 34.5325L43.5495 32.7733L5.71343 33.1564Z" fill="url(#paint9_linear_1694_33678)"/>
<path d="M5.75211 35.7947L5.76992 37.5539L43.606 37.1708L43.5881 35.4117L5.75211 35.7947Z" fill="url(#paint10_linear_1694_33678)"/>
<path d="M5.765 38.4387L5.78281 40.1979L43.6189 39.8148L43.601 38.0557L5.765 38.4387Z" fill="url(#paint11_linear_1694_33678)"/>
<path d="M5.78757 41.0771L5.80537 42.8362L43.6414 42.4532L43.6236 40.6941L5.78757 41.0771Z" fill="url(#paint12_linear_1694_33678)"/>
<path d="M5.81658 43.7147L5.83439 45.4738L43.6704 45.0908L43.6526 43.3316L5.81658 43.7147Z" fill="url(#paint13_linear_1694_33678)"/>
<path d="M5.84236 46.353L5.86017 48.1122L43.6962 47.7291L43.6784 45.97L5.84236 46.353Z" fill="url(#paint14_linear_1694_33678)"/>
<path d="M57.0104 42.37C52.5826 42.4148 49.0045 38.9112 48.9598 34.543L48.8107 19.5301C48.7958 17.5622 47.1707 15.9669 45.1879 15.9818C44.6661 15.9818 44.2338 15.5793 44.2188 15.0575C44.2188 14.5357 44.6065 14.1183 45.1134 14.1183H45.1581C48.1547 14.0885 50.6295 16.5036 50.6593 19.5003L50.8084 34.5132C50.8383 37.8378 53.5814 40.5214 56.906 40.4916C57.4278 40.4916 57.8751 40.8941 57.89 41.4159C57.9049 41.9377 57.5173 42.3551 56.9955 42.3551L57.0104 42.37Z" fill="url(#paint15_linear_1694_33678)"/>
<defs>
<linearGradient id="paint0_linear_1694_33678" x1="53.8138" y1="11.0001" x2="-2.64232" y2="30.72" gradientUnits="userSpaceOnUse">
<stop stop-color="#A9451C"/>
<stop offset="1" stop-color="#FB8656"/>
</linearGradient>
<linearGradient id="paint1_linear_1694_33678" x1="53.8138" y1="11.0001" x2="-2.64232" y2="30.72" gradientUnits="userSpaceOnUse">
<stop stop-color="#A9451C"/>
<stop offset="1" stop-color="#FB8656"/>
</linearGradient>
<linearGradient id="paint2_linear_1694_33678" x1="53.8138" y1="11.0001" x2="-2.64232" y2="30.72" gradientUnits="userSpaceOnUse">
<stop stop-color="#A9451C"/>
<stop offset="1" stop-color="#FB8656"/>
</linearGradient>
<linearGradient id="paint3_linear_1694_33678" x1="53.8138" y1="11.0001" x2="-2.64232" y2="30.72" gradientUnits="userSpaceOnUse">
<stop stop-color="#A9451C"/>
<stop offset="1" stop-color="#FB8656"/>
</linearGradient>
<linearGradient id="paint4_linear_1694_33678" x1="53.8138" y1="11.0001" x2="-2.64232" y2="30.72" gradientUnits="userSpaceOnUse">
<stop stop-color="#A9451C"/>
<stop offset="1" stop-color="#FB8656"/>
</linearGradient>
<linearGradient id="paint5_linear_1694_33678" x1="53.8138" y1="11.0001" x2="-2.64232" y2="30.72" gradientUnits="userSpaceOnUse">
<stop stop-color="#A9451C"/>
<stop offset="1" stop-color="#FB8656"/>
</linearGradient>
<linearGradient id="paint6_linear_1694_33678" x1="53.8138" y1="11.0001" x2="-2.64232" y2="30.72" gradientUnits="userSpaceOnUse">
<stop stop-color="#A9451C"/>
<stop offset="1" stop-color="#FB8656"/>
</linearGradient>
<linearGradient id="paint7_linear_1694_33678" x1="53.8138" y1="11.0001" x2="-2.64232" y2="30.72" gradientUnits="userSpaceOnUse">
<stop stop-color="#A9451C"/>
<stop offset="1" stop-color="#FB8656"/>
</linearGradient>
<linearGradient id="paint8_linear_1694_33678" x1="53.8138" y1="11.0001" x2="-2.64232" y2="30.72" gradientUnits="userSpaceOnUse">
<stop stop-color="#A9451C"/>
<stop offset="1" stop-color="#FB8656"/>
</linearGradient>
<linearGradient id="paint9_linear_1694_33678" x1="53.8138" y1="11.0001" x2="-2.64232" y2="30.72" gradientUnits="userSpaceOnUse">
<stop stop-color="#A9451C"/>
<stop offset="1" stop-color="#FB8656"/>
</linearGradient>
<linearGradient id="paint10_linear_1694_33678" x1="53.8138" y1="11.0001" x2="-2.64232" y2="30.72" gradientUnits="userSpaceOnUse">
<stop stop-color="#A9451C"/>
<stop offset="1" stop-color="#FB8656"/>
</linearGradient>
<linearGradient id="paint11_linear_1694_33678" x1="53.8138" y1="11.0001" x2="-2.64232" y2="30.72" gradientUnits="userSpaceOnUse">
<stop stop-color="#A9451C"/>
<stop offset="1" stop-color="#FB8656"/>
</linearGradient>
<linearGradient id="paint12_linear_1694_33678" x1="53.8138" y1="11.0001" x2="-2.64232" y2="30.72" gradientUnits="userSpaceOnUse">
<stop stop-color="#A9451C"/>
<stop offset="1" stop-color="#FB8656"/>
</linearGradient>
<linearGradient id="paint13_linear_1694_33678" x1="53.8138" y1="11.0001" x2="-2.64232" y2="30.72" gradientUnits="userSpaceOnUse">
<stop stop-color="#A9451C"/>
<stop offset="1" stop-color="#FB8656"/>
</linearGradient>
<linearGradient id="paint14_linear_1694_33678" x1="53.8138" y1="11.0001" x2="-2.64232" y2="30.72" gradientUnits="userSpaceOnUse">
<stop stop-color="#A9451C"/>
<stop offset="1" stop-color="#FB8656"/>
</linearGradient>
<linearGradient id="paint15_linear_1694_33678" x1="53.8138" y1="11.0001" x2="-2.64232" y2="30.72" gradientUnits="userSpaceOnUse">
<stop stop-color="#A9451C"/>
<stop offset="1" stop-color="#FB8656"/>
</linearGradient>
</defs>
</svg>
