<svg width="70" height="69" viewBox="0 0 70 69" fill="none" xmlns="http://www.w3.org/2000/svg">
<path d="M25.932 62H25.8612C25.3301 62 25.1885 62 24.8521 61.6487C24.622 61.3676 24.4981 61.2446 24.4096 61.1568C24.1972 60.946 24.0909 60.8406 23.4891 59.8569C23.1173 59.3826 23.0819 59.2069 22.9757 58.7326C22.9403 58.6096 22.9049 58.4515 22.8695 58.2583L21.7543 55.1666C21.6126 54.6923 21.4887 54.5166 21.3117 54.3058C21.2232 54.1828 21.1347 54.0599 21.0285 53.8842C20.5682 53.2869 20.462 52.5843 20.3558 51.9167C20.285 51.46 20.2142 51.0208 20.0371 50.6168C19.8424 50.2128 19.7716 49.9668 19.7185 49.7736C19.6654 49.5628 19.63 49.4398 19.3999 49.1763L19.3822 49.1588C18.9396 48.4912 18.9219 48.3507 18.9042 48.1575C18.9042 48.0696 18.9042 47.9642 18.7626 47.6656C18.6918 47.4899 18.5679 47.2791 18.4439 47.0507C18.3023 46.8048 18.143 46.5237 18.0191 46.2602C17.8244 45.8211 17.8067 45.5049 17.789 45.136C17.7713 44.9076 17.7713 44.6792 17.7005 44.363L17.2579 41.7105C17.2048 41.447 17.2579 41.2889 17.2933 41.1483C17.3287 41.0254 17.3641 40.92 17.3287 40.7443V40.7092C17.3287 40.4457 17.2756 40.3051 17.2048 40.1295C17.0986 39.866 16.9747 39.5498 17.1163 38.8295C17.1694 38.6714 17.2048 38.5485 17.2402 38.4431C17.3641 38.0917 17.4172 37.9336 17.3287 37.5296C17.311 37.5472 17.2933 37.5472 17.2756 37.5647C17.1163 37.6877 16.957 37.8282 16.5852 37.9336C16.4259 37.9688 16.2666 38.0215 16.1073 38.0742C15.8594 38.162 15.6293 38.2323 15.4346 38.2323C13.7883 38.4431 12.9386 37.3188 12.1774 36.3351C12.0889 36.2297 12.018 36.1243 11.9472 36.0364C11.841 35.8959 11.7525 35.8081 11.664 35.7202C11.2923 35.3513 11.1506 35.1405 11.31 33.8757C10.7789 33.5068 10.5134 33.0677 10.3009 32.7339C10.2124 32.5758 10.1239 32.4353 10.0354 32.365L10 32.3123V31.1353L10.0354 31.0826C10.0885 31.0299 10.1239 30.9597 10.1593 30.907C10.3894 30.5908 10.5842 30.38 11.2746 30.3624C11.3454 29.9232 11.4162 29.7827 11.8941 29.6246H11.9118C12.6199 29.4841 13.1156 29.7476 13.4696 29.9584C13.6467 30.0638 13.7883 30.134 13.8945 30.134C13.9122 30.134 13.9122 30.1165 13.9299 30.0989C14.0007 30.0286 14.0892 29.9584 14.3724 29.9057H14.4078H14.7796C14.6203 29.5895 14.6026 29.4314 14.5849 29.3435C14.5849 29.326 14.5849 29.3084 14.5849 29.3084C14.5672 29.2908 14.4255 29.2206 14.2485 29.1327L14.2308 29.1152C13.7175 28.7814 13.7175 28.0085 13.7706 27.5166C13.6289 27.4288 13.5227 27.3936 13.4165 27.3585C12.9917 27.2004 12.8855 27.0423 12.8855 26.2518C12.8855 24.9694 13.7883 24.1965 14.6557 23.5992C14.9212 23.3357 15.1159 23.2655 15.5054 23.2655C16.001 23.2655 16.1604 23.2655 16.4082 23.5641L17.0809 23.6344C17.6296 22.7912 18.0191 22.4925 18.4085 22.2115C18.6918 22.0007 18.975 21.7899 19.3291 21.3507C19.3999 21.2277 19.453 21.1223 19.4884 20.9993C19.5769 20.7534 19.6831 20.5075 19.9486 20.2791C20.1434 20.1386 20.2673 20.0859 20.3558 20.0507C20.4797 19.998 20.5151 19.9805 20.7275 19.594L20.7452 19.5764C20.7983 19.5062 20.8514 19.4183 20.9045 19.3305C21.0639 19.0846 21.2232 18.8211 21.5418 18.6454L21.5595 18.6278C21.8074 18.5224 21.8782 18.4697 21.8782 18.4522C21.8782 18.4346 21.8605 18.3643 21.8428 18.3116C21.8074 18.2062 21.772 18.0657 21.7543 17.8549C21.7011 17.363 21.8959 17.1171 22.0375 16.9063C22.1083 16.8185 22.1614 16.7482 22.1791 16.6604C22.1614 16.6077 22.1437 16.555 22.126 16.5198C22.0729 16.5198 21.9844 16.5023 21.8428 16.4496L21.8251 16.432C21.5949 16.2915 21.5064 16.2212 21.5064 16.0455C21.5064 16.0104 21.5064 15.9401 21.4533 15.8347C21.4179 15.7469 21.3648 15.6942 21.294 15.6239C21.117 15.4307 20.8868 15.1848 21.0639 14.4821C21.0816 14.3064 21.1347 14.2362 21.1701 14.1835C21.1701 14.0956 21.0993 13.7794 20.9931 13.393C20.9577 13.2349 20.94 13.1119 20.9222 13.0065C20.9045 12.9011 20.8868 12.7957 20.8514 12.6552V12.62C20.8514 12.4971 20.8337 12.4619 20.7806 12.3917C20.7452 12.339 20.7098 12.2863 20.6744 12.1984C20.0194 12.1809 19.8955 11.9349 19.7362 11.3377C19.5415 10.5296 19.5592 10.0202 19.7716 9.72154C19.984 9.4229 20.3381 9.3702 20.6744 9.33507C20.7806 9.3175 20.8691 9.3175 20.9754 9.28237C21.4002 9.1594 21.4002 9.12427 21.471 9.01887C21.5064 8.9486 21.5595 8.82563 21.7011 8.66753L21.7365 8.61483L21.8074 8.59727C22.1083 8.56213 22.3207 8.54457 22.4623 8.54457C22.7102 8.54457 22.7102 8.54457 23.0111 8.12297L23.0996 8H24.1972L24.2326 8.01757C24.3565 8.08783 24.4981 8.12297 24.6397 8.1581C24.799 8.19323 24.9583 8.22837 25.1177 8.3162C25.2947 8.40403 25.4009 8.49187 25.5071 8.5797C25.6133 8.66753 25.7018 8.7378 25.8789 8.8432C25.9851 8.91347 26.0205 8.96617 26.0559 9.0013C26.0736 9.01887 26.0913 9.01887 26.1975 9.054H26.2152C26.286 9.07157 26.3391 9.08913 26.3745 9.1067C26.6578 9.19453 26.764 9.28237 26.9056 9.7391C26.941 9.82694 26.9587 9.87964 26.9764 9.93234C26.9941 9.9499 27.0295 9.96747 27.0649 9.98504L27.1357 10.0202C27.8969 10.4242 27.9146 10.4242 28.1978 10.1783C28.2864 10.0904 28.4103 10.0026 28.5696 9.87964C28.9413 9.61614 29.4016 9.581 29.8796 9.56344C30.1274 9.54587 30.3929 9.5283 30.6407 9.4756C30.8355 9.4229 31.4373 9.28237 31.7737 9.59857C31.9507 9.80937 31.9684 9.93234 31.9861 10.0202C32.0746 10.0553 32.2871 10.1256 32.3756 10.1431L32.411 10.1607C32.7119 10.231 33.1368 10.3364 33.243 10.7228C33.3138 11.0917 33.2076 11.4958 33.1191 11.7944L33.0836 11.9349L33.0659 11.9525C32.9951 12.0579 32.942 12.216 32.8712 12.3565C32.8181 12.4795 32.765 12.6025 32.6942 12.743C32.5526 13.0065 32.4464 13.1295 32.3225 13.2173C32.2339 13.2876 32.1631 13.3578 32.0923 13.4984C32.0215 13.6038 31.9507 13.7443 31.8799 13.8673C31.8091 13.9902 31.7383 14.1132 31.6675 14.2362C31.5082 14.5875 31.3665 14.7105 31.1895 14.7632C31.3842 14.8686 31.4019 14.9037 31.4905 15.1848L31.5259 15.2902C31.5436 15.4131 31.5967 15.5361 31.6498 15.6766C31.7383 15.8874 31.8268 16.1334 31.8268 16.432V16.4496C31.7383 17.1874 30.8355 17.5914 30.3398 17.7495C30.3398 18.5224 30.3752 18.5224 30.623 18.5576C30.8886 18.5927 31.3488 18.6454 32.0392 19.1548C32.2339 19.2602 32.3402 19.3656 32.4641 19.471C32.5349 19.5413 32.6057 19.6116 32.7119 19.6818C32.8712 19.7697 32.9951 19.8048 33.1191 19.8399C33.2784 19.8751 33.4377 19.9278 33.6147 20.0507C33.9511 20.2615 34.1458 20.5602 34.1458 20.8764C34.1458 21.2453 33.898 21.5966 33.4554 21.8777L33.4377 21.8953C32.8712 22.1763 32.8535 22.2466 32.7827 22.6506C32.765 22.7912 32.7296 22.9317 32.6765 23.1425C33.2784 23.2655 33.7563 23.6519 34.2874 24.1087C34.4998 24.2843 34.6945 24.46 34.9424 24.6357C35.8806 25.391 35.9868 25.391 36.394 25.3559C36.6595 25.3383 37.0489 25.3032 37.757 25.4086C38.6598 25.4789 38.9077 25.7248 39.1555 25.9707C39.3856 26.1991 39.6158 26.4099 40.5009 26.5153L40.6425 26.5504C40.908 26.6031 41.0142 26.6207 41.2798 26.7437L43.5633 27.1477C43.5633 27.0774 43.5633 27.0072 43.5456 26.9369C43.4748 25.637 43.404 24.6005 44.891 24.1614C45.2274 24.056 45.6168 23.933 45.8646 24.0033C46.6966 24.0911 46.7143 25.0573 46.732 25.4789C46.732 25.5491 46.732 25.6194 46.732 25.6545L46.7497 25.6721V25.7072C46.7497 25.8478 46.7674 25.918 46.8028 26.0586C46.8205 26.1464 46.856 26.2694 46.8737 26.4275C47.3693 26.4626 47.4755 26.445 47.7588 26.3748C47.9004 26.3396 48.0597 26.3045 48.3252 26.2694C48.5377 26.2342 48.7324 26.2518 48.9271 26.2518C49.2457 26.2518 49.5113 26.2518 49.7945 26.1288C49.7414 25.8478 49.7414 25.514 49.7414 25.1978C49.7414 24.6708 49.8653 24.5303 50.3079 24.3722C50.7681 24.2141 51.0691 24.1438 51.2815 24.0911C51.7772 23.9681 51.7949 23.9506 52.5561 23.3006C52.8039 23.0898 52.9986 22.9668 53.1933 22.8614C53.3881 22.7385 53.5828 22.6155 53.8837 22.3696C54.043 22.1412 54.2555 21.8601 54.4148 21.702L54.4502 21.6845C54.7157 21.5088 55.1052 21.5263 55.5123 21.5439C55.8841 21.5615 56.2735 21.579 56.5567 21.4561C57.2294 21.1223 57.7605 21.0345 58.1676 21.1926C58.6279 21.3682 58.7872 21.8074 58.858 22.0358C58.8757 22.0885 58.8934 22.1412 58.9111 22.1588C58.9465 22.1939 58.9642 22.1939 59.0174 22.2115C59.1059 22.2466 59.1944 22.2993 59.3006 22.4574L59.3183 22.4925C59.3714 22.6331 59.3714 22.7209 59.3714 22.7912C59.3714 22.8439 59.3714 22.8614 59.3891 22.8966C59.4599 22.9668 59.69 22.9844 59.8671 22.9844C59.991 22.9844 60.1326 23.002 60.2565 23.0371C60.4866 23.1074 60.6283 23.2655 60.7876 23.4411C60.8407 23.4938 60.8938 23.5465 60.9469 23.5992L61 23.6519V24.8992L60.9469 24.9519C60.9292 24.9694 60.9115 25.0221 60.9115 25.0573C60.8938 25.11 60.8761 25.1978 60.8407 25.2681L60.823 25.2856L60.7876 25.3208C60.6637 25.4437 60.5928 25.514 60.5397 25.5667C60.5043 25.7599 60.5043 25.9005 60.5043 26.041C60.522 26.2342 60.522 26.4099 60.3804 26.5504C60.2211 26.7261 59.9025 26.7964 59.1944 26.8315C58.8757 26.8842 58.858 26.9018 58.7341 27.0423C58.6987 27.095 58.6456 27.1477 58.5571 27.2355C58.4155 27.3761 58.2031 27.5166 58.0083 27.6396C57.7251 27.8152 57.4065 28.026 57.3533 28.2368C57.3533 28.3247 57.3888 28.4125 57.4242 28.5355C57.4773 28.7287 57.5481 28.9746 57.5127 29.2733C57.5127 29.73 57.2117 29.8354 56.9816 29.9408C56.9639 29.9584 56.9285 29.9584 56.9108 29.9759C56.8931 30.6083 56.7692 30.784 56.5213 31.0475C56.362 31.2232 56.1673 31.4164 55.9372 31.9083C55.9195 32.0137 55.9195 32.0839 55.9195 32.1542C55.9195 32.3474 55.9195 32.5231 55.6716 32.769C55.4415 33.0677 55.1583 33.1379 54.9458 33.1906C54.7157 33.2433 54.6272 33.2785 54.5918 33.5595C54.521 34.3149 54.3971 34.5081 54.2555 34.6838C54.1847 34.7716 54.1493 34.8243 54.1493 35.1581C54.1493 35.2635 54.1493 35.3513 54.1493 35.4567C54.167 35.9837 54.167 36.5459 53.9014 37.0202C53.7598 37.3364 53.512 37.5647 53.2287 37.635C53.034 37.6877 52.7154 37.6701 52.3613 37.3715C51.6355 36.7215 51.4408 35.6851 51.2461 34.6135L51.2284 34.5608C50.8566 34.7189 50.4318 34.7189 50.0246 34.5608C49.4582 34.3325 49.0333 33.7879 48.874 33.0852C48.6439 32.3123 48.6439 31.9434 49.1395 31.4515L49.1572 31.434L49.9715 30.8191C49.8122 30.8191 49.6175 30.8367 49.4051 30.8543C48.4314 30.9245 47.2277 31.0299 46.7143 30.1867C46.5727 29.9935 46.5196 29.8354 46.4842 29.73C46.4488 29.6422 46.4311 29.5895 46.3603 29.5368C46.4311 29.9408 46.4488 30.4678 46.0239 30.7489C45.9531 30.8191 45.9 30.8543 45.8469 30.8718C46.3072 31.3988 46.3072 32.2245 46.3072 33.0501C46.2895 33.6298 46.5019 34.2622 46.7143 34.8595C47.0684 35.8783 47.4401 36.9499 46.4488 37.6174C45.5814 38.2498 44.9264 37.8282 44.3422 37.3891C44.0944 37.5472 43.8466 37.6174 43.5456 37.7228L43.4748 37.7404C43.4748 37.9336 43.4925 38.0917 43.4925 38.2323C43.5279 38.7417 43.5456 39.0052 43.05 39.4971C42.4304 40.2876 41.8462 40.5159 41.2798 40.7267C40.6425 40.9727 40.0052 41.2186 39.1909 42.2902C38.6952 42.9928 38.412 43.1861 38.058 43.432C37.7747 43.6252 37.4384 43.8536 36.8719 44.4509C36.571 44.7495 36.5533 44.7671 36.2523 44.9954C36.0753 45.1184 35.9337 45.2238 35.8098 45.2941C35.4911 45.5049 35.3141 45.6278 35.1194 45.944C35.0309 46.2778 34.8539 46.4535 34.6414 46.6643L34.6237 46.6818L34.5883 46.6994C34.3405 46.8048 34.075 46.8926 33.8094 46.9629C33.4908 47.0683 33.1899 47.1561 32.9597 47.2791C32.6234 47.4899 32.3225 47.5777 32.0923 47.6656C31.8445 47.7534 31.6675 47.8061 31.5436 47.9466C31.3488 48.3331 31.3842 48.7372 31.4019 49.2115C31.4196 49.3871 31.4196 49.5804 31.4196 49.7736C31.4373 50.0371 31.4905 50.2479 31.5082 50.4236C31.579 50.81 31.6498 51.1262 31.4905 51.8113C31.4373 52.0924 31.4196 52.3383 31.4196 52.5667C31.4019 52.9532 31.3842 53.3221 31.1895 53.7612C31.1187 53.972 31.1187 53.972 31.0479 54.1301C31.0302 54.2004 31.0302 54.2531 31.0302 54.3234C31.0302 54.3936 31.0302 54.499 30.9771 54.6396C30.924 54.7977 30.8886 54.8679 30.8178 54.9206C30.8001 54.9733 30.7647 55.0963 30.6762 55.4301C30.5699 55.8165 30.1982 57.134 29.5078 57.7313C29.2954 57.9421 29.1184 58.0299 29.0121 58.1002C28.9059 58.1529 28.9059 58.1529 28.8882 58.2407C28.7997 58.6623 28.782 58.7326 28.6227 58.838C28.5696 58.8731 28.4634 58.9258 28.2687 59.1893L28.251 59.2069C28.127 59.3299 28.0562 59.3826 28.0031 59.4177C27.95 59.4528 27.9146 59.488 27.8084 59.5758L27.773 59.5934C27.5606 59.7339 27.5606 59.769 27.5606 59.8744C27.5429 60.1555 27.4721 60.4541 26.764 61.1217C26.5869 61.2973 26.4276 61.4554 26.2683 61.6135L25.932 62ZM19.6831 48.948C19.9486 49.2642 20.0017 49.4398 20.0725 49.6682C20.1257 49.8439 20.1788 50.0722 20.3735 50.4587C20.5682 50.9154 20.639 51.3897 20.7098 51.864C20.816 52.5316 20.9045 53.1464 21.3117 53.691L21.3294 53.7085C21.4179 53.8666 21.5064 53.9896 21.5949 54.1126C21.772 54.3409 21.9313 54.5693 22.0906 55.0787L23.2058 58.1705C23.2589 58.3813 23.2943 58.5394 23.3297 58.6799C23.436 59.1191 23.4537 59.242 23.7723 59.6812L23.79 59.6988C24.3742 60.6649 24.4627 60.7528 24.6574 60.946C24.7636 61.0514 24.8875 61.1744 25.1177 61.4554C25.3478 61.6838 25.3655 61.6838 25.7903 61.6838L26.0559 61.4203C26.2152 61.2622 26.3745 61.1041 26.5515 60.9284C27.2419 60.296 27.2419 60.0677 27.2419 59.9096C27.2419 59.7163 27.2773 59.5758 27.596 59.365C27.7199 59.2596 27.773 59.2069 27.8261 59.1718C27.8792 59.1366 27.9146 59.1015 28.0208 59.0137C28.251 58.715 28.3926 58.6448 28.4634 58.5921C28.4811 58.5921 28.4811 58.5745 28.4988 58.5745C28.5165 58.5394 28.5519 58.3461 28.5873 58.2232C28.6404 57.9772 28.7643 57.9245 28.8882 57.8543C28.9767 57.8016 29.1184 57.7313 29.3131 57.5381C29.8264 57.0989 30.1982 56.1503 30.3752 55.4125C30.4991 54.8504 30.5345 54.7625 30.623 54.7098C30.623 54.6923 30.6407 54.6571 30.6585 54.5869C30.6939 54.499 30.6939 54.4463 30.6939 54.3761C30.6939 54.3058 30.6939 54.2004 30.747 54.0599L30.7647 54.0423C30.8355 53.9018 30.8355 53.9018 30.9063 53.691C31.0833 53.3045 31.101 52.9883 31.1187 52.6194C31.1364 52.3735 31.1364 52.11 31.2072 51.7938C31.3488 51.1789 31.2957 50.933 31.2249 50.5465C31.1895 50.3533 31.1541 50.1425 31.1187 49.8439C31.1187 49.6331 31.101 49.4574 31.101 49.2817C31.0656 48.7723 31.0479 48.298 31.2957 47.8237L31.3134 47.7885C31.5082 47.5426 31.756 47.4723 32.0392 47.3669C32.2694 47.2967 32.5349 47.2088 32.8535 47.0156C33.1191 46.8751 33.4377 46.7872 33.774 46.6818C34.0219 46.6116 34.2697 46.5237 34.4821 46.4359C34.6768 46.2427 34.8008 46.1197 34.8539 45.8738L34.8716 45.8386C35.1017 45.4346 35.3495 45.2765 35.6859 45.0481C35.8098 44.9603 35.9514 44.8725 36.1107 44.7495C36.394 44.5387 36.394 44.5387 36.6949 44.2576C37.2791 43.6428 37.6508 43.3969 37.9341 43.1861C38.2704 42.9577 38.5182 42.782 38.9785 42.1321C39.8459 40.9902 40.5717 40.7092 41.2267 40.4632C41.7931 40.2349 42.2888 40.0416 42.8553 39.3214L42.873 39.3038C43.2624 38.9174 43.2624 38.7944 43.227 38.3025C43.2093 38.1269 43.2093 37.9336 43.2093 37.6701V37.5472L43.5279 37.4418C43.8643 37.3364 44.0944 37.2485 44.3245 37.0904L44.4308 37.0202L44.537 37.0904C45.1211 37.5296 45.6168 37.8985 46.3426 37.3891C47.1215 36.8621 46.8205 36.0189 46.4665 35.0351C46.2364 34.4027 46.0062 33.7352 46.0417 33.1028C46.0417 32.242 46.0417 31.434 45.5106 31.0299L45.3159 30.8894L45.5283 30.7489C45.6522 30.6786 45.7053 30.6435 45.7584 30.6259C45.7938 30.6083 45.8115 30.6083 45.8646 30.5556L45.8823 30.5381C46.2187 30.3097 46.0948 29.7476 46.0417 29.4138L45.9885 29.1152L46.2541 29.1679C46.732 29.2733 46.8205 29.3962 46.9091 29.6597C46.9445 29.7651 46.9799 29.8881 47.1038 30.0462C47.5109 30.7137 48.5908 30.6259 49.4759 30.5556C49.9361 30.5205 50.3433 30.4854 50.5911 30.5732L50.9098 30.6786L49.4582 31.7677C49.1041 32.1191 49.0687 32.3299 49.2811 33.0677C49.4228 33.6649 49.7591 34.1217 50.2194 34.3149C50.5911 34.473 50.9983 34.4379 51.3169 34.2271L51.5293 34.0865L51.6355 34.6311C51.8303 35.7027 52.0073 36.6337 52.6446 37.1958C52.8216 37.3539 53.0163 37.4242 53.1933 37.3715C53.3704 37.3364 53.5297 37.1783 53.6182 36.9499V36.9323C53.8483 36.5459 53.8306 36.0364 53.8129 35.5446C53.8129 35.4392 53.8129 35.3338 53.8129 35.2459C53.8129 34.8068 53.8837 34.6838 53.9899 34.5433C54.0607 34.4379 54.1847 34.3149 54.2555 33.5947C54.3086 33.0677 54.6272 32.9974 54.875 32.9271C55.0698 32.8744 55.2468 32.8393 55.4061 32.6285L55.4238 32.6109C55.5654 32.4704 55.5654 32.4001 55.5654 32.2245C55.5654 32.1366 55.5654 32.0137 55.6008 31.8731L55.6185 31.838C55.8841 31.2934 56.0965 31.0475 56.2735 30.8718C56.4859 30.6435 56.5745 30.5381 56.5745 29.9232V29.8178L56.6807 29.7651C56.7515 29.73 56.8223 29.7124 56.8754 29.6773C57.0878 29.5895 57.1763 29.5543 57.1763 29.326V29.2908C57.2117 29.0625 57.1586 28.8692 57.1055 28.6936C57.0701 28.5706 57.017 28.4301 57.017 28.2895V28.2544C57.0701 27.9031 57.4596 27.6571 57.8313 27.4112C58.0083 27.2882 58.2031 27.1653 58.327 27.0423C58.3978 26.972 58.4332 26.9193 58.4863 26.8842C58.6633 26.691 58.7518 26.6207 59.1767 26.5504C59.4068 26.5329 60.0264 26.5153 60.1326 26.3748C60.168 26.3396 60.168 26.2518 60.1503 26.1288C60.1503 25.9707 60.1326 25.7599 60.2034 25.4964L60.2211 25.4437L60.2565 25.4086C60.3273 25.3383 60.3981 25.2681 60.522 25.1451C60.5397 25.11 60.5574 25.0573 60.5574 25.0221C60.5751 24.9519 60.5928 24.8816 60.6283 24.8289V23.81C60.5928 23.7749 60.5574 23.7222 60.5043 23.6871C60.3804 23.5465 60.2742 23.4236 60.1503 23.3884C60.0795 23.3709 59.9556 23.3709 59.8494 23.3533C59.5661 23.3357 59.2475 23.3182 59.1059 23.0898L59.0882 23.0722C59.0351 22.9668 59.0351 22.879 59.0351 22.8087C59.0351 22.756 59.0351 22.7033 59.0174 22.6331C58.9642 22.5628 58.9465 22.5452 58.8934 22.5277C58.8403 22.5101 58.7695 22.475 58.681 22.3871C58.6279 22.3344 58.5925 22.2642 58.5571 22.1588C58.4863 21.948 58.3624 21.6318 58.0614 21.5088C57.7605 21.3858 57.3002 21.4737 56.7338 21.7547C56.3443 21.9304 55.9018 21.8953 55.5123 21.8777C55.176 21.8601 54.8573 21.8426 54.6803 21.948C54.5387 22.0885 54.3263 22.3696 54.2024 22.5804L54.167 22.6155C53.8483 22.8966 53.6182 23.0371 53.4058 23.1601C53.2287 23.2655 53.0517 23.3709 52.8216 23.5817C52.025 24.2668 51.9542 24.3019 51.4054 24.4424C51.193 24.4951 50.9098 24.5654 50.4672 24.7235C50.1663 24.8465 50.1486 24.8465 50.1486 25.2154C50.1486 25.5667 50.1486 25.9356 50.2194 26.1991L50.2548 26.3221L50.1309 26.3923C49.7414 26.6207 49.352 26.6031 48.9802 26.6207C48.8032 26.6207 48.6262 26.6207 48.4314 26.6383C48.1836 26.6734 48.0243 26.7085 47.8827 26.7437C47.5463 26.8139 47.4224 26.8491 46.7497 26.7788L46.6081 26.7612L46.5904 26.6207C46.555 26.3923 46.5196 26.2518 46.5019 26.1464C46.4665 26.0059 46.4488 25.9005 46.4488 25.7424C46.4311 25.6897 46.4311 25.6018 46.4311 25.4789C46.4134 24.9519 46.3603 24.3897 45.8646 24.337H45.8292C45.6699 24.2843 45.2274 24.4249 45.068 24.4776C43.8466 24.8465 43.882 25.5667 43.9705 26.9018C43.9705 27.0423 43.9882 27.1828 43.9882 27.3409L44.0059 27.5517L41.209 27.0599C40.9788 26.9369 40.8903 26.9369 40.6425 26.8842L40.5009 26.8491C39.5095 26.7261 39.2263 26.4626 38.9785 26.2167C38.7483 26.0059 38.5536 25.8126 37.7747 25.7424C37.0843 25.637 36.7303 25.6721 36.4648 25.6897C35.9337 25.7248 35.7744 25.7072 34.7654 24.8992C34.5352 24.7235 34.3228 24.5478 34.1104 24.3722C33.5616 23.9154 33.0837 23.5114 32.4818 23.4587L32.2694 23.4411L32.3225 23.2303C32.3933 22.9493 32.4464 22.756 32.4641 22.5804C32.5526 22.0885 32.6057 21.9128 33.2961 21.5791C33.6324 21.3683 33.8094 21.1223 33.8094 20.8764C33.8094 20.6656 33.6678 20.4723 33.4377 20.3318C33.2961 20.2264 33.1899 20.2088 33.0482 20.1561C32.9066 20.121 32.7473 20.0683 32.5526 19.9629L32.5349 19.9453C32.411 19.8575 32.3225 19.7697 32.2516 19.6994C32.1277 19.594 32.0569 19.5237 31.8976 19.4359L31.8622 19.4183C31.2426 18.944 30.8532 18.9089 30.6053 18.8738C30.0566 18.8035 30.0212 18.5927 30.0212 17.5914V17.486L30.1451 17.4509C30.446 17.363 31.4196 17.0468 31.5082 16.432C31.5082 16.2036 31.4373 16.0104 31.3488 15.8172C31.2957 15.6766 31.2426 15.5361 31.2072 15.378L31.1895 15.2902C31.1541 15.2023 31.1364 15.1145 31.1187 15.1145C31.1187 15.1145 31.0833 15.0969 31.0479 15.0794C30.9948 15.0618 30.9417 15.0267 30.8355 14.974L30.8001 14.9564L30.6053 14.5699L30.8178 14.5172C30.8709 14.4997 30.924 14.4997 30.9771 14.4821C31.1541 14.447 31.2249 14.447 31.3842 14.0956L31.4019 14.0605C31.4728 13.9551 31.5436 13.8321 31.6144 13.7092C31.6852 13.5862 31.7737 13.4457 31.8445 13.3227C31.9507 13.147 32.0569 13.0416 32.1454 12.9714C32.2339 12.8835 32.3225 12.8133 32.4287 12.6025C32.4818 12.4795 32.5349 12.3565 32.588 12.2511C32.6588 12.093 32.7119 11.9349 32.8004 11.812L32.8181 11.7066C32.8889 11.4431 32.9951 11.0917 32.9243 10.8107C32.8889 10.635 32.6057 10.5823 32.3579 10.512L32.3048 10.4945C31.8268 10.3539 31.6852 10.3188 31.6675 10.0729C31.6675 10.0202 31.6498 9.96747 31.5436 9.8445C31.4728 9.77424 31.2603 9.70397 30.7647 9.82694C30.4814 9.87964 30.1982 9.8972 29.9504 9.91477C29.5078 9.93234 29.1184 9.96747 28.8174 10.1783C28.6581 10.2837 28.5519 10.3715 28.4634 10.4593C28.0208 10.8282 27.8969 10.8107 26.9941 10.3539L26.9056 10.2837C26.7286 10.1783 26.6578 10.1431 26.6401 10.0026C26.6401 9.98504 26.6401 9.96747 26.6047 9.87964L26.5869 9.8445C26.4984 9.51074 26.463 9.51074 26.2683 9.44047C26.2152 9.4229 26.1621 9.40534 26.0913 9.38777C25.9143 9.33507 25.8435 9.3175 25.7726 9.22967C25.7549 9.2121 25.7372 9.19453 25.6664 9.14183C25.4894 9.03643 25.3655 8.93103 25.2593 8.86077C25.1531 8.77293 25.0823 8.70267 24.9406 8.64997C24.8167 8.5797 24.6751 8.54457 24.5335 8.50943C24.3919 8.4743 24.2503 8.43917 24.0909 8.3689H23.2766C22.9403 8.82563 22.8872 8.8959 22.48 8.91347C22.3561 8.91347 22.1968 8.93103 21.9313 8.9486C21.8605 9.054 21.8251 9.12427 21.7897 9.17697C21.6834 9.38777 21.5949 9.45804 21.0639 9.61614C20.94 9.6337 20.8337 9.65127 20.7275 9.66884C20.4443 9.70397 20.1788 9.7391 20.0725 9.91477C19.9309 10.1256 19.9309 10.5823 20.0902 11.2498C20.2319 11.7768 20.2496 11.8471 20.816 11.8471H20.9577L20.9931 11.9876C21.0108 12.093 21.0462 12.1457 21.0993 12.1984C21.1524 12.2863 21.2232 12.3917 21.2232 12.5849C21.2586 12.7254 21.2763 12.8308 21.294 12.9362C21.3117 13.0416 21.3294 13.147 21.3648 13.3051C21.5772 14.2186 21.5772 14.2362 21.4887 14.3767C21.471 14.3943 21.4533 14.4294 21.4356 14.5699C21.294 15.1145 21.4179 15.255 21.5772 15.4131C21.648 15.501 21.7365 15.5888 21.8074 15.7293C21.8782 15.905 21.8782 15.9928 21.8782 16.0631C21.8959 16.0807 21.9313 16.0982 22.0198 16.1509C22.1083 16.1861 22.1614 16.1861 22.2145 16.2036C22.4269 16.2212 22.4623 16.3266 22.5509 16.6252L22.5686 16.6779V16.7306C22.5331 16.9063 22.4446 17.0293 22.3384 17.1522C22.1968 17.3279 22.0729 17.5036 22.126 17.8549C22.1437 18.0306 22.1791 18.1535 22.2145 18.2589C22.3207 18.6454 22.2499 18.7684 21.7365 18.9967C21.5064 19.1373 21.3648 19.3481 21.2232 19.5589C21.1701 19.6467 21.117 19.7345 21.0462 19.8224C20.7983 20.2615 20.7275 20.3142 20.5151 20.4196C20.4443 20.4548 20.3381 20.4899 20.1788 20.6129C19.984 20.771 19.9132 20.9466 19.8247 21.175C19.7716 21.3155 19.7185 21.4561 19.63 21.5966L19.6123 21.6142C19.2228 22.1061 18.9042 22.3344 18.621 22.5452C18.2315 22.8263 17.8598 23.0898 17.3287 23.9506L17.2579 24.0033L16.2489 23.9154L16.1958 23.8452C16.0187 23.6168 16.0187 23.6168 15.5231 23.6168C15.2044 23.6168 15.0982 23.6695 14.9035 23.8627L14.8681 23.8803C14.0538 24.4073 13.2395 25.11 13.2395 26.2518C13.2395 26.9193 13.2926 26.9369 13.5404 27.0247C13.6644 27.0774 13.8414 27.1477 14.0538 27.2882L14.1423 27.3585L14.1246 27.4639C14.0715 27.7801 14.0184 28.553 14.4078 28.8341C14.8327 29.0449 14.8858 29.08 14.9212 29.3084C14.9389 29.3962 14.9566 29.5895 15.2044 30.0111L15.3638 30.2746H14.4078C14.2308 30.3097 14.1954 30.3448 14.16 30.38C14.1246 30.4151 14.0892 30.4502 14.0184 30.4854L13.9653 30.5029C13.7352 30.5381 13.5227 30.4151 13.2749 30.2746C12.9386 30.0813 12.5491 29.853 11.9826 29.9759C11.664 30.0813 11.664 30.0813 11.5932 30.5381V30.7137H11.4339C10.7258 30.7137 10.6196 30.8718 10.4426 31.1178C10.4072 31.1705 10.3717 31.2056 10.3363 31.2583V32.1718C10.4249 32.2772 10.5134 32.4001 10.6019 32.5582C10.8143 32.892 11.0798 33.3136 11.5932 33.6474L11.6817 33.7001L11.664 33.8055C11.5047 35.0527 11.6286 35.1757 11.9118 35.4743C12.0003 35.5621 12.1066 35.6675 12.2305 35.8256C12.3013 35.931 12.3898 36.0364 12.4783 36.1418C13.2218 37.108 13.983 38.0917 15.4169 37.8985H15.4346C15.5762 37.8985 15.7886 37.8282 16.001 37.758C16.1781 37.7053 16.3551 37.635 16.5144 37.5999C16.7976 37.512 16.9216 37.4242 17.0632 37.3012C17.1517 37.231 17.2402 37.1607 17.3641 37.0904L17.5588 37.0026L17.6119 37.2134C17.789 37.8985 17.7359 38.1093 17.5765 38.566C17.5411 38.6714 17.5057 38.7944 17.4526 38.9349C17.3287 39.5322 17.4349 39.7606 17.5234 40.0241C17.5942 40.1997 17.6827 40.4105 17.6827 40.7267C17.7182 40.9727 17.6827 41.1308 17.6473 41.2713C17.6119 41.3943 17.5765 41.4997 17.6119 41.6753L18.0545 44.3279C18.1076 44.6441 18.1253 44.9076 18.143 45.136C18.1607 45.4873 18.1784 45.7508 18.3377 46.1373C18.4439 46.4008 18.6033 46.6467 18.7449 46.8926C18.8865 47.121 19.0104 47.3494 19.0812 47.5426C19.2405 47.8764 19.2405 48.0169 19.2582 48.175C19.2936 48.2453 19.2936 48.3507 19.6831 48.948Z" stroke="url(#paint0_linear_903_33999)"/>
<path d="M66.506 33.1195C66.5489 33.8152 66.5723 34.5338 66.5725 35.2334L66.1842 35.227C66.184 34.5274 66.1838 33.8278 66.1196 33.1341L66.506 33.1195ZM66.2686 31.0215L65.8861 31.0781C65.7791 30.3884 65.6702 29.6777 65.5438 29.011L65.9244 28.9333C66.0741 29.6191 66.181 30.3088 66.2686 31.0215ZM65.4948 26.8531L65.1375 26.9498C64.9665 26.266 64.7954 25.5823 64.5836 24.9235L64.9409 24.8268C65.1313 25.4875 65.3237 26.1693 65.4948 26.8531ZM66.4468 37.3651C66.3829 38.0706 66.2976 38.7781 66.1677 39.4686L65.7949 39.3971C65.9034 38.7086 66.0101 37.9991 66.0759 37.3146L66.4468 37.3651ZM64.2569 22.7913L63.9016 22.909C63.6684 22.2522 63.3925 21.5993 63.1186 20.9675L63.4719 20.8288C63.7672 21.4586 64.0237 22.1345 64.2569 22.7913ZM65.7371 41.5649C65.5625 42.2383 65.3685 42.9346 65.1512 43.612L64.7958 43.4965C65.0151 42.8402 65.2091 42.1438 65.3837 41.4704L65.7371 41.5649ZM62.5821 18.8971L62.2521 19.0549C61.9354 18.427 61.5974 17.8011 61.2419 17.2192L61.5681 17.0194C61.9061 17.6453 62.2441 18.2712 62.5821 18.8971ZM64.3866 45.5908C64.1227 46.2301 63.818 46.8943 63.5113 47.5375L63.1734 47.378C63.482 46.7558 63.7887 46.1126 64.0506 45.4523L64.3866 45.5908ZM62.5001 49.412C62.1469 50.0171 61.7509 50.6262 61.353 51.2143L61.0325 51.0107C61.4304 50.4227 61.807 49.8366 62.1603 49.2315L62.5001 49.412ZM60.0912 52.9423C59.6467 53.4923 59.2041 54.0633 58.7362 54.5943L58.4546 54.3447C58.9225 53.8138 59.367 53.2638 59.8115 52.7138L60.0912 52.9423ZM57.2648 56.151C56.7503 56.6438 56.2359 57.1367 55.6981 57.6105L55.4572 57.336C55.995 56.8622 56.5114 56.3903 57.0026 55.8784L57.2648 56.151ZM54.0363 58.9728C53.4733 59.4066 52.8869 59.8213 52.3006 60.236L52.0792 59.9385C52.6674 59.5448 53.2324 59.1321 53.7954 58.6983L54.0363 58.9728ZM50.4679 61.3809C49.8543 61.7346 49.2195 62.0902 48.5807 62.4037L48.4214 62.0793C49.0602 61.7657 49.6756 61.4331 50.2891 61.0795L50.4679 61.3809ZM46.6158 63.2853C45.9518 63.5588 45.2645 63.8133 44.5946 64.0237L44.4761 63.6743C45.1459 63.4639 45.8119 63.2114 46.4759 62.9379L46.6158 63.2853ZM42.5171 64.6189C41.8219 64.7893 41.1035 64.9407 40.4026 65.048L40.3462 64.6716C41.0471 64.5643 41.7442 64.4149 42.4393 64.2445L42.5171 64.6189ZM38.2394 64.9515L38.2745 65.3299C38.1463 65.3418 37.9968 65.3556 37.8686 65.3675C37.29 65.3999 36.69 65.4342 36.1094 65.4456L36.0957 65.0653C36.6763 65.0539 37.2569 65.0425 37.8336 64.9891C37.9617 64.9772 38.0899 64.9654 38.2394 64.9515ZM30.0423 4.35698C29.3433 4.48532 28.6462 4.63468 27.9511 4.80506L27.8539 4.45366C28.5491 4.28328 29.2461 4.13391 29.9665 4.00359L30.0423 4.35698ZM33.9811 65.0279L33.9715 65.3892C33.2569 65.3494 32.5404 65.2885 31.8239 65.2277L31.8762 64.8625C32.55 64.9272 33.2665 64.9881 33.9811 65.0279ZM25.9143 5.3753C25.2445 5.58575 24.5552 5.81919 23.9106 6.06969L23.7707 5.72225C24.4367 5.46976 25.1259 5.23632 25.7958 5.02588L25.9143 5.3753ZM29.7363 64.5518L29.6626 64.9191C28.9616 64.7932 28.2586 64.6463 27.5537 64.4784L27.6488 64.1092C28.3537 64.2771 29.0566 64.424 29.7363 64.5518ZM21.9399 6.88822C21.2992 7.18076 20.6604 7.49433 20.0236 7.82891L19.8429 7.50644C20.4797 7.17186 21.1185 6.85829 21.7806 6.56377L21.9399 6.88822ZM18.183 8.8898C17.5928 9.26246 16.9832 9.65813 16.4182 10.0709L16.1968 9.77336C16.7831 9.35865 17.3714 8.96497 17.983 8.59032L18.183 8.8898ZM14.7273 11.3511C14.1875 11.8039 13.6498 12.2777 13.1334 12.7495L12.8712 12.477C13.3856 11.9841 13.9234 11.5103 14.4845 11.0556L14.7273 11.3511ZM17.9176 59.986L17.7099 60.302C17.1136 59.912 16.5174 59.522 15.9387 59.088L16.1697 58.791C16.7271 59.227 17.3233 59.617 17.9176 59.986ZM11.658 14.2642C11.1882 14.7741 10.7223 15.3261 10.2778 15.876L9.97676 15.6495C10.4213 15.0995 10.8872 14.5476 11.355 14.0166L11.658 14.2642ZM14.4994 57.5041L14.2451 57.782C13.7071 57.3231 13.1672 56.8431 12.6487 56.3611L12.9049 56.1041C13.4429 56.5631 13.9615 57.0451 14.4994 57.5041ZM9.03546 17.5811C8.63754 18.1692 8.26097 18.7553 7.90771 19.3604L7.58922 19.1779C7.94248 18.5728 8.33845 17.9637 8.73638 17.3756L9.03546 17.5811ZM11.4696 54.5623L11.19 54.8001C10.7103 54.2722 10.2499 53.7212 9.81096 53.1682L10.1138 52.9494C10.5314 53.5043 10.9918 54.0553 11.4696 54.5623ZM6.91591 21.2119C6.60731 21.8341 6.32397 22.4963 6.06004 23.1356L5.70273 22.9991C5.96471 22.3388 6.25 21.6976 6.55664 21.0544L6.91591 21.2119ZM8.88039 51.2616L8.55422 51.4614C8.15602 50.8835 7.77528 50.2615 7.43921 49.6566L7.76733 49.4779C8.1034 50.0827 8.48219 50.6837 8.88039 51.2616ZM5.35954 25.1085C5.14027 25.7648 4.96762 26.4592 4.79302 27.1326L4.41824 27.0401C4.59089 26.3457 4.78685 25.6703 4.9828 24.995L5.35954 25.1085ZM6.79794 47.6172L6.44652 47.777C6.15122 47.1471 5.85202 46.4752 5.59749 45.8204L5.95086 45.6816C6.20539 46.3365 6.48128 46.9893 6.79794 47.6172ZM4.37991 29.1849C4.27134 29.8733 4.16276 30.5618 4.09885 31.2673L3.72991 31.2379C3.79382 30.5324 3.90045 29.8229 4.00902 29.1344L4.37991 29.1849ZM5.25135 43.7112L4.89604 43.8289C4.68228 43.1491 4.48988 42.4673 4.3402 41.7815L4.69746 41.6849C4.8685 42.3686 5.03954 43.0524 5.25135 43.7112ZM3.94789 33.3589C3.92475 34.0395 3.92687 34.7601 3.92704 35.4597L3.54063 35.4743C3.5191 34.7767 3.51699 34.0561 3.55954 33.3525L3.94789 33.3589ZM4.29309 39.6447L3.91057 39.7013C3.80945 39.0747 3.72774 38.425 3.66739 37.7734C3.66155 37.7103 3.65571 37.6473 3.64987 37.5842L4.03433 37.5486C4.04017 37.6117 4.04601 37.6747 4.04991 37.7168C4.13162 38.3664 4.21333 39.0161 4.29309 39.6447Z" stroke="url(#paint1_linear_903_33999)"/>
<path d="M58.2318 13.001C57.4784 13.001 54.2341 12.3129 51.8201 11.7813C51.5433 11.7187 51.3588 11.6875 51.3127 11.6718C51.0052 11.6093 35.8754 5.05732 35.2296 4.77585H35.2142L35.1989 4.76021C35.1835 4.74458 34.8145 4.22855 35.122 3.77508C35.4449 3.29032 38.7353 2.71175 40.0422 3.16523C41.3338 3.6187 52.9579 8.99787 53.6037 9.29498C54.1726 8.95096 58.1395 6.63667 58.6623 6.73049C59.1236 6.82431 59.9846 7.18397 60 7.35598C60 7.43416 59.0467 8.70077 57.1555 11.0932C57.6783 11.3591 59.0159 12.0627 58.9544 12.3911C58.9391 12.4537 58.9391 12.5162 58.9391 12.5631C58.9237 12.8133 58.8776 12.9072 58.3087 12.9697C58.2933 13.001 58.2625 13.001 58.2318 13.001ZM35.2911 4.66639C40.7341 7.0276 51.0513 11.4842 51.3281 11.5467C51.3742 11.5624 51.5587 11.5936 51.8355 11.6562C53.2808 11.9689 57.6936 12.9384 58.2933 12.8602C58.8161 12.7977 58.8161 12.7351 58.8314 12.5631C58.8314 12.5006 58.8314 12.438 58.8468 12.3755C58.8776 12.2035 57.9396 11.6093 57.0479 11.1714L56.9863 11.1402L57.0325 11.0776C58.1242 9.68591 59.7694 7.59053 59.8924 7.35598C59.8155 7.26215 59.1543 6.94941 58.6469 6.83995C58.2779 6.76177 55.4488 8.32548 53.6498 9.40444L53.619 9.42008L53.5883 9.40444C53.4807 9.35753 41.3338 3.7438 40.0269 3.27469C38.6892 2.80557 35.491 3.4467 35.2296 3.83762C34.999 4.18164 35.245 4.58821 35.2911 4.66639Z" stroke="url(#paint2_linear_903_33999)"/>
<defs>
<linearGradient id="paint0_linear_903_33999" x1="57.4086" y1="17.5205" x2="7.86659" y2="35.1348" gradientUnits="userSpaceOnUse">
<stop stop-color="#815C2F"/>
<stop offset="1" stop-color="#C09E74"/>
</linearGradient>
<linearGradient id="paint1_linear_903_33999" x1="12.2515" y1="10.0171" x2="39.6423" y2="67.2647" gradientUnits="userSpaceOnUse">
<stop stop-color="#92762E"/>
<stop offset="1" stop-color="#DEBF6C"/>
</linearGradient>
<linearGradient id="paint2_linear_903_33999" x1="58.2395" y1="4.76404" x2="43.7332" y2="18.4165" gradientUnits="userSpaceOnUse">
<stop stop-color="#815C2F"/>
<stop offset="1" stop-color="#C09E74"/>
</linearGradient>
</defs>
</svg>
