<svg width="70" height="52" viewBox="0 0 70 52" fill="none" xmlns="http://www.w3.org/2000/svg">
<path d="M53.9533 35.7069C53.4132 35.3972 53.156 35.7327 52.9246 36.0682C51.5102 38.0037 49.7872 39.6037 47.6785 40.7134C41.6608 43.8617 35.7718 43.5521 30.1399 39.7327C27.0025 37.5908 24.9966 34.5972 23.8908 31.0101C23.1707 28.7134 23.0936 26.365 23.325 23.9908C23.4022 23.294 23.3765 22.5714 23.3508 21.8746C23.2993 20.5327 23.2222 19.1908 23.145 17.7198C22.9393 17.8488 22.785 17.9005 22.7078 18.0037C20.4448 20.4295 18.1818 22.8811 15.9187 25.3069C15.5587 25.694 15.5844 25.9521 15.9187 26.3134C18.2332 28.6875 20.5477 31.0875 22.8621 33.4617C22.9393 33.565 23.0422 33.6424 23.1193 33.7456C23.8394 34.5198 23.8137 34.5972 22.8364 35.0617C22.9136 35.1908 22.9907 35.3456 23.0936 35.4746C24.5337 37.3069 25.9738 39.1134 27.3625 40.9456C27.5682 41.2037 27.6454 41.6682 27.5682 41.9779C26.9253 44.1972 26.2567 46.4166 25.5109 48.6359C25.2538 49.3843 25.3824 49.9263 25.9224 50.4166C26.051 50.5198 26.1796 50.6746 26.231 50.8295C26.2824 50.9843 26.2567 51.2424 26.1538 51.3198C26.051 51.3972 25.7424 51.3714 25.6652 51.294C25.2795 50.8811 24.8937 50.4424 24.5594 49.9521C24.4308 49.7714 24.4566 49.4359 24.508 49.2295C25.2281 46.8553 25.9738 44.4553 26.6682 42.0811C26.7453 41.823 26.6939 41.4359 26.5396 41.2295C25.1252 39.3972 23.6851 37.5908 22.245 35.7585C21.9878 35.4488 21.7306 35.3456 21.3449 35.4746C19.7505 36.0424 18.156 36.5843 16.5616 37.2037C16.253 37.3327 15.893 37.6424 15.7901 37.9521C15.0186 40.1198 14.2729 42.2875 13.5271 44.4553C13.2185 45.3327 13.1414 45.3843 12.447 44.765C10.2868 42.8553 8.10094 40.9456 5.94077 39.0101C5.55502 38.6488 5.27214 38.623 4.93783 39.0359C4.86068 39.1392 4.75781 39.2424 4.65495 39.294C4.47493 39.3456 4.2692 39.3456 4.06347 39.3714C4.08919 39.165 4.1149 38.9585 4.14062 38.7521C4.14062 38.7263 4.19205 38.7005 4.21777 38.6488C5.34929 37.3585 5.34929 37.3585 6.60939 38.4682C8.40954 40.0424 10.184 41.6166 11.9584 43.1908C12.1898 43.3972 12.447 43.5779 12.8585 43.8875C13.5528 41.8488 14.2214 39.9134 14.9158 37.823C14.2472 38.0037 13.7328 38.1327 13.0642 38.2875C13.1928 37.3843 13.2957 36.6101 13.4242 35.8359C13.9386 32.6101 14.53 29.3843 14.9929 26.1585C15.0958 25.4359 14.8644 24.6359 14.7101 23.8617C14.1957 20.9714 13.6557 18.0811 13.1414 15.165C13.0642 14.7521 12.8842 14.7521 12.5499 14.8811C11.1869 15.4746 9.69536 16.0424 8.22952 16.6359C7.7152 16.8424 7.50946 16.7392 7.53518 16.1714C7.61233 13.4101 7.7152 10.6746 7.74091 7.91335C7.74091 7.16497 7.32945 6.51981 6.81512 6.05529C5.29786 4.71335 3.72916 3.44884 2.16046 2.18432C1.98044 2.05529 1.67185 2.00368 1.4404 2.05529C0.746055 2.15852 0.154578 1.87464 0.0259966 1.2811C-0.102585 0.661742 0.257444 0.119806 0.848921 0.0165804C1.41468 -0.0866454 1.90329 0.300451 2.08331 0.945613C2.16046 1.20368 2.34047 1.48755 2.5462 1.66819C4.06347 2.98432 5.55502 4.37787 7.17515 5.53916C7.84378 6.02948 8.58955 6.26174 9.00102 7.08755C9.25818 7.60368 9.92681 7.88755 10.3897 8.32626C10.544 8.4811 10.5954 8.73916 10.6726 8.94561C10.4668 8.894 10.2354 8.86819 10.0554 8.76497C9.56678 8.40368 9.10388 7.99077 8.64099 7.60368C8.56384 7.62948 8.5124 7.65529 8.43525 7.6811C8.43525 10.2875 8.43525 12.8682 8.43525 15.5521C9.05245 15.294 9.69536 15.0617 10.3126 14.8037C10.5697 14.7005 10.8526 14.623 11.084 14.4682C12.807 13.2811 14.53 14.0037 16.2273 14.494C16.7674 14.6488 17.3074 14.7779 17.8475 14.9069C18.0018 14.9327 18.2846 14.9327 18.3103 14.8553C18.4904 14.4166 18.5932 13.9521 18.7475 13.5134C18.979 12.9456 18.6704 12.7134 18.2589 12.4295C17.076 11.6037 16.6131 10.0553 17.076 8.71335C17.5131 7.42303 18.8247 6.57142 20.2905 6.59723C21.5763 6.62303 22.8364 7.60368 23.2222 8.91981C23.7365 10.6746 22.5793 12.5843 20.7534 12.9456C20.3934 13.023 19.8533 13.023 19.7505 13.2295C19.4676 13.7456 19.3647 14.365 19.2619 14.9585C19.2361 15.0875 19.519 15.3456 19.699 15.3972C20.7534 15.7069 21.8078 15.965 22.8621 16.223C23.8394 16.4553 23.8651 16.4553 23.9165 17.4359C23.9422 18.365 23.9165 19.2682 23.9165 20.1972C23.9937 20.223 24.0451 20.223 24.1223 20.2488C24.2251 20.0682 24.328 19.9134 24.4051 19.7327C26.411 15.1392 29.7541 11.9392 34.5117 10.4682C40.1436 8.68755 45.4154 9.66819 50.0186 13.4359C50.9702 14.2101 51.7931 15.165 52.616 16.094C52.9503 16.4553 53.1303 16.4811 53.4904 16.1456C54.8019 14.8553 56.1906 13.6166 57.4764 12.3005C57.9907 11.7843 58.4022 11.7069 59.0194 12.094C59.8937 12.6617 60.8195 13.1521 61.7453 13.6682C61.9511 13.7714 62.1568 13.8746 62.4139 14.0037C62.7483 13.4359 63.0826 12.9456 63.314 12.4037C63.3912 12.223 63.2626 11.8359 63.1083 11.6553C62.0539 10.365 62.0282 8.58432 63.0826 7.39723C64.1884 6.13271 65.9885 5.92626 67.4029 6.8811C68.5345 7.65529 69.0231 9.25529 68.5344 10.5972C67.9944 12.0682 66.58 12.9198 64.9599 12.6617C64.3427 12.5585 64.1112 12.7908 63.8798 13.2553C63.2112 14.5714 63.2112 14.5456 64.497 15.2424C65.5256 15.8101 66.5543 16.3779 67.5572 17.023C67.763 17.1521 67.9173 17.565 67.8915 17.823C67.6087 19.9908 67.2743 22.1585 66.9657 24.3263C66.9143 24.765 66.6572 24.9198 66.2457 25.0488C64.7284 25.4617 63.2112 25.9263 61.6167 26.3908C61.7968 26.5972 61.9253 26.7521 62.1568 27.0359C61.231 27.0359 60.4081 27.0359 59.5594 27.0359C59.6109 27.1392 59.688 27.3456 59.7909 27.5263C61.1281 29.9779 62.4654 32.4295 63.8026 34.8811C64.0598 35.3714 63.9569 35.5521 63.4169 35.5521C62.9797 35.5779 62.5168 35.5004 62.0796 35.5779C61.8482 35.6295 61.5139 35.8359 61.4624 36.0424C60.9481 37.9779 60.5109 39.9134 60.048 41.8746C59.9195 42.4166 60.2795 42.365 60.6138 42.3134C62.6197 42.0037 64.6256 41.7198 66.6572 41.4101C67.3772 41.3069 68.0973 41.1779 68.8173 41.0488C69.3831 40.9456 69.7174 41.1263 69.7946 41.7198C69.846 42.0295 70.0003 42.3392 70.0003 42.6746C70.0003 42.9069 69.846 43.1392 69.7431 43.3714C69.5888 43.2166 69.4088 43.0359 69.2802 42.8811C69.2288 42.8295 69.2288 42.7263 69.2288 42.623C69.1516 42.1843 68.9459 42.0037 68.483 42.0811C66.3486 42.4166 64.2141 42.7263 62.0539 43.0359C61.2824 43.165 60.4852 43.294 59.7137 43.3972C59.0194 43.5004 58.8908 43.3714 59.0451 42.7004C59.5594 40.6101 60.0738 38.5198 60.5881 36.4553C60.7938 35.6811 60.7681 35.6295 59.9966 35.6295C58.5822 35.6037 57.1678 35.6295 55.7534 35.5521C55.0591 35.5263 54.7762 35.7585 54.5704 36.4553C54.0304 38.5714 53.3875 40.6359 52.8217 42.7263C52.7446 43.0101 52.8217 43.4746 53.0275 43.7069C54.4933 45.5392 55.9848 47.3714 57.5278 49.1779C57.965 49.694 58.1193 50.1327 57.8107 50.7521C57.6564 51.0617 57.605 51.423 57.4507 51.7069C57.3735 51.8359 57.1678 51.9134 57.0392 52.0166C56.9364 51.8617 56.7821 51.7069 56.7821 51.5521C56.8078 51.2682 56.8849 50.9585 56.9878 50.6746C57.1935 50.2359 57.1164 49.9263 56.8078 49.565C55.3162 47.7585 53.8504 45.9521 52.3331 44.1714C51.9217 43.6811 51.7931 43.2424 51.9988 42.5972C52.616 40.5843 53.1818 38.5456 53.7475 36.5327C53.8504 36.223 53.9018 35.965 53.9533 35.7069ZM28.4169 35.5779C29.0598 35.5779 29.5998 35.6037 30.1399 35.5779C30.7571 35.5263 30.9885 35.8101 30.9885 36.4037C30.9885 36.8166 31.0142 37.2295 31.04 37.6166C31.0657 37.9263 31.1943 38.0811 31.5543 37.9779C31.9915 37.8488 32.4286 37.7714 32.8658 37.6424C33.3287 37.5134 33.6116 37.6424 33.7402 38.1069C33.843 38.494 33.9973 38.8811 34.1002 39.2682C34.2288 39.7327 34.4345 39.8101 34.846 39.5521C35.1803 39.3198 35.566 39.165 35.9004 38.9585C36.3375 38.7005 36.6461 38.8037 36.9033 39.2424C37.1862 39.7327 37.5205 40.1972 37.8548 40.7392C38.3434 40.2488 38.8063 39.8617 39.2178 39.423C39.5264 39.1134 39.7835 39.0875 40.0921 39.3972C40.4264 39.7327 40.7865 40.0424 41.1208 40.3779C41.4037 40.6617 41.6094 40.6359 41.8151 40.2746C42.0466 39.8617 42.3037 39.4746 42.5609 39.0617C42.7666 38.7521 43.0238 38.6488 43.3581 38.8811C43.7181 39.1134 44.1296 39.2682 44.4896 39.5005C44.9268 39.7843 45.1325 39.6553 45.2611 39.1908C45.364 38.7779 45.5183 38.365 45.6469 37.9521C45.7754 37.565 45.9812 37.4359 46.3926 37.565C46.9584 37.7198 47.5499 37.8488 48.2442 38.0295C48.2957 37.3585 48.3728 36.7392 48.3985 36.1198C48.4242 35.6811 48.6042 35.5004 49.0414 35.5263C49.4529 35.5521 49.8643 35.5263 50.2501 35.5521C50.713 35.5779 50.9444 35.4488 50.8159 34.9327C50.713 34.5456 50.6616 34.1327 50.5844 33.7198C50.5073 33.2811 50.6101 33.023 51.0987 32.9198C51.6645 32.7908 52.2303 32.6101 52.796 32.4553C52.7703 32.3005 52.7703 32.2488 52.7446 32.1714C52.5646 31.7585 52.3846 31.3456 52.1788 30.9327C51.8445 30.2101 51.8702 30.1327 52.5646 29.7456C53.0275 29.4875 53.4646 29.2295 53.979 28.9456C53.5161 28.3779 53.156 27.9134 52.7703 27.4488C52.5131 27.1134 52.5131 26.8553 52.8475 26.5714C53.2332 26.2617 53.5932 25.8746 54.0047 25.4875C53.8247 25.3843 53.7475 25.3327 53.6447 25.3069C52.1531 24.9456 50.6358 24.6101 49.1443 24.2488C48.6814 24.1456 48.2699 24.094 47.807 24.4037C47.3699 24.6875 46.7527 24.4037 46.4955 23.9134C46.2383 23.4488 46.3926 22.8553 46.8555 22.5456C47.3184 22.2359 48.0128 22.2875 48.1928 22.8037C48.4757 23.5521 49.0414 23.6553 49.6843 23.7843C50.1729 23.8875 50.6358 24.0424 51.1245 24.1456C51.6902 24.2746 52.256 24.3521 52.796 24.4553C52.1531 23.965 52.3074 23.5263 52.6674 23.0101C52.9503 22.623 53.1818 22.1843 53.5161 21.6682C52.8989 21.4101 52.3331 21.1521 51.7674 20.9714C51.3045 20.8166 51.253 20.5585 51.4073 20.1198C51.6131 19.5779 51.7674 19.0101 51.9731 18.365C51.2788 18.2617 50.6616 18.1585 50.0444 18.0811C49.6072 18.0295 49.4529 17.8488 49.5043 17.4101C49.5558 16.9714 49.5815 16.5069 49.6329 16.0682C49.6843 15.6811 49.53 15.5005 49.1186 15.5779C48.6814 15.6553 48.2185 15.7069 47.7813 15.7585C47.3699 15.8101 47.1127 15.6811 47.0613 15.2424C47.0098 14.8295 46.8813 14.4424 46.8298 14.0295C46.7527 13.5134 46.5984 13.2553 46.0583 13.5908C45.7497 13.7714 45.3897 13.8746 45.0554 14.0037C44.5668 14.2101 44.2582 14.1585 44.0524 13.6166C43.9239 13.2037 43.6924 12.8424 43.5124 12.4553C43.3581 12.1198 43.1781 12.0424 42.8695 12.3005C42.5095 12.5843 42.098 12.8424 41.738 13.1263C41.4037 13.3843 41.1465 13.3843 40.8636 13.023C40.6064 12.6617 40.2979 12.3263 40.015 11.965C39.7321 11.6037 39.5006 11.6553 39.2435 11.9908C38.9606 12.3521 38.7034 12.7134 38.4206 13.0488C38.1891 13.3585 37.9062 13.4101 37.5976 13.1521C37.2376 12.8682 36.8519 12.6359 36.5175 12.3521C36.1318 12.0166 35.9261 12.1456 35.7461 12.5585C35.6175 12.894 35.4375 13.2295 35.3089 13.565C35.1031 14.1069 34.7688 14.2875 34.2031 14.0037C33.7145 13.7714 33.2001 13.6166 32.6344 13.3843C32.5058 14.0295 32.3258 14.5456 32.2743 15.0617C32.2229 15.6295 31.94 15.7843 31.4257 15.7327C31.0142 15.6811 30.5771 15.6553 30.1399 15.6037C29.8056 15.5521 29.6513 15.6811 29.677 16.0166C29.7027 16.5069 29.7027 16.9972 29.7541 17.4875C29.7799 17.8746 29.6513 18.0295 29.2655 18.0811C28.6483 18.1585 28.0569 18.2617 27.3625 18.365C27.5168 18.9069 27.6711 19.3972 27.8254 19.8875C28.0826 20.6875 28.0311 20.7908 27.2596 21.0746C26.771 21.2553 26.3081 21.4617 25.7938 21.694C26.1281 22.2359 26.3596 22.6746 26.6425 23.0617C27.0539 23.6037 26.9511 23.965 26.411 24.3263C25.9738 24.6101 25.5881 24.9456 25.1509 25.2811C25.2795 25.4617 25.3566 25.5392 25.4338 25.6166C25.7167 25.8746 25.9995 26.1327 26.2824 26.4166C26.8996 26.9843 26.8996 27.0617 26.3596 27.7327C26.051 28.1198 25.6909 28.5069 25.3052 28.9456C25.9224 29.2811 26.4367 29.5908 26.9511 29.8746C27.3625 30.0811 27.4654 30.3392 27.2339 30.7521C27.0025 31.1392 26.8482 31.5521 26.6425 31.965C26.4624 32.3263 26.5653 32.5327 26.9511 32.6101C27.3882 32.7134 27.8254 32.8682 28.2626 32.9456C28.6998 33.023 28.8283 33.2553 28.7512 33.6682C28.6483 34.2617 28.5455 34.8553 28.4169 35.5779ZM55.0848 25.7456C55.0333 25.823 55.0076 25.9005 54.9819 25.9521C54.9562 26.1069 54.9305 26.2617 54.9305 26.3908C54.9305 28.0166 54.6476 29.5908 54.1333 31.1392C52.1017 37.2037 46.4955 41.4359 40.1178 41.5392C33.7402 41.6424 29.0084 38.7779 25.9995 33.1779C24.2508 29.9263 23.8908 26.4166 24.7137 22.8037C25.7167 18.4166 28.1597 15.0617 32.0172 12.9198C37.3662 9.92626 42.7666 10.0811 47.9613 13.3843C51.3045 15.5005 53.4389 18.5714 54.4162 22.4166C54.5962 23.165 54.699 23.9392 54.879 24.6875C54.9048 24.8424 55.1362 24.9456 55.2905 25.1005C55.3677 24.9456 55.4962 24.765 55.4962 24.6101C55.4962 24.3521 55.3934 24.094 55.3677 23.8617C54.8019 19.8875 52.9246 16.5843 49.8901 14.0295C43.461 8.61013 34.0488 9.04884 28.2112 15.0875C24.0194 19.423 22.7078 24.6359 24.2508 30.494C25.3566 34.6746 27.8511 37.8746 31.5543 40.0424C34.7174 41.9004 38.1634 42.5714 41.8151 42.0553C45.5697 41.5392 48.6814 39.8359 51.3045 37.1263C52.6674 35.7069 53.3875 33.9521 54.2361 32.2488C55.1619 30.3908 55.5477 28.4553 55.5734 26.3908C55.6248 26.0037 55.5991 25.7198 55.0848 25.7456ZM67.1458 18.2875C67.0943 18.2617 67.0429 18.2101 66.9915 18.1843C66.76 18.3134 66.5286 18.4424 66.2971 18.5972C63.9312 20.2746 61.5653 21.9779 59.1994 23.6553C57.9136 24.5585 58.1707 24.2746 58.8651 25.6424C58.9679 25.8488 59.3537 26.0037 59.6109 26.0037C60.1766 25.9779 60.7424 25.8488 61.2824 25.694C62.7483 25.2811 64.1884 24.8682 65.6542 24.4037C65.8599 24.3263 66.1685 24.1198 66.1943 23.9392C66.5029 22.0811 66.8115 20.1972 67.1458 18.2875ZM58.0679 13.1263C57.8364 13.3069 57.6821 13.4101 57.5535 13.5392C56.3963 14.5972 55.2648 15.6553 54.0818 16.6875C53.6189 17.0746 53.6704 17.3843 53.9018 17.9005C54.4933 19.165 55.0848 20.4295 55.4962 21.7456C55.8306 22.7263 55.8563 23.8101 56.1134 24.8166C56.1649 25.0488 56.4735 25.3327 56.7049 25.4359C56.9106 25.5134 57.3735 25.4617 57.425 25.3327C57.6564 24.8682 57.9136 24.3521 57.9136 23.8359C58.0164 21.4875 58.0422 19.1134 58.0679 16.765C58.0936 15.6037 58.0679 14.4424 58.0679 13.1263ZM56.062 27.8617C56.1134 27.8875 56.1649 27.9134 56.2163 27.9134C56.3963 27.5263 56.5763 27.1392 56.7563 26.7521C57.0649 26.0811 57.0135 26.0037 56.2163 26.0295C56.1649 26.6488 56.1134 27.2424 56.062 27.8617Z" fill="url(#paint0_linear_897_33962)"/>
<path d="M39.6277 21.1006C42.4822 21.1006 44.7709 23.3457 44.7709 26.1586C44.7709 29.0748 42.5336 31.3457 39.6791 31.3716C36.7988 31.3716 34.4844 29.1006 34.4844 26.2619C34.5101 23.3974 36.7731 21.1006 39.6277 21.1006Z" fill="url(#paint1_linear_897_33962)"/>
<defs>
<linearGradient id="paint0_linear_897_33962" x1="69" y1="8" x2="-8.98805e-07" y2="42.5" gradientUnits="userSpaceOnUse">
<stop stop-color="#8D3670"/>
<stop offset="1" stop-color="#AD799C"/>
</linearGradient>
<linearGradient id="paint1_linear_897_33962" x1="43.5" y1="23.5" x2="34" y2="28.5" gradientUnits="userSpaceOnUse">
<stop stop-color="#8D3670"/>
<stop offset="1" stop-color="#AD799C"/>
</linearGradient>
</defs>
</svg>
