<svg id="Layer_1" data-name="Layer 1" xmlns="http://www.w3.org/2000/svg" xmlns:xlink="http://www.w3.org/1999/xlink" viewBox="0 0 50 62"><defs><style>.cls-1{fill-rule:evenodd;fill:url(#linear-gradient);}</style><linearGradient id="linear-gradient" x1="331.66" y1="-328.15" x2="283.51" y2="-342.65" gradientTransform="matrix(1, 0, 0, -1, -281, -301)" gradientUnits="userSpaceOnUse"><stop offset="0" stop-color="#8d9a17"/><stop offset="1" stop-color="#c4d532"/></linearGradient></defs><path class="cls-1" d="M21.63,2.47C24.35.63,27.46,1,30,3a6.8,6.8,0,0,1,1.71,1.9c.38.65,1.07,2-.21,2.19-.5.07-1.37-.6-2.05-.82a13.27,13.27,0,0,0-7.32-.2,14.05,14.05,0,0,0-2.2.79c-.33.15-1,.59-1.18,0C18.34,5.54,20.65,3.13,21.63,2.47ZM11.27,44.8a.27.27,0,0,1-.37,0,.27.27,0,0,1,0-.38,5.56,5.56,0,0,1,.95-.78A6.19,6.19,0,0,1,13,43.06a.26.26,0,1,1,.2.49,5.56,5.56,0,0,0-1.09.55A5.36,5.36,0,0,0,11.27,44.8ZM34,37.94a54.6,54.6,0,0,1,9.52,4.28A8.53,8.53,0,0,1,47,45.53c1.54,2.86,1.7,5.44,1.93,8.55l.54,7.2H41.66l-.88-6.6-.63,6.6h-11a17.78,17.78,0,0,0-4.15-4,8.05,8.05,0,0,0,2.16-1.77,8.16,8.16,0,0,0,1.46-1.39c.8-1,1.05-1.76.34-2.9-.13-.2-.42-.14-.65-.24s-.31-.36-.71-.21c-.2-.07-.08-.39-.13-.5s-.12-.17-.19-.18a.69.69,0,0,0-.43.26,2.7,2.7,0,0,0-.43.73c-.13.31-.25.58-.37.81-.51,1-.68.94-1.59,1.33a7.69,7.69,0,0,1-1.84.61A3,3,0,0,1,21,53.25l-1-.51A3.54,3.54,0,0,0,22.09,49c-.23-1.4-.65-1.26-1.16-2.12a4.59,4.59,0,0,1-.48-1.44,4.73,4.73,0,0,0-.64-1.27c-2.35-3.25-7.65-2.93-10.14.08-1.73,2.11-1.7,5.76-.35,8a4.28,4.28,0,0,0,2.71,2c.58.17,1.54.16,1.72.51-.92,3.66.57,5.57,3,6.49h-4.6l-.84-6.6-.66,6.6H1.44L2,54.08c.23-3.11.39-5.69,1.93-8.55a8.47,8.47,0,0,1,3.44-3.31A54.47,54.47,0,0,1,16.83,38C18.78,45.85,34,43.63,34,37.94ZM23.44,34.4a.42.42,0,0,1,.25-.53.41.41,0,0,1,.53.26.74.74,0,0,0,.44.38,1.63,1.63,0,0,0,.67.13,2,2,0,0,0,.7-.1.89.89,0,0,0,.55-.44.42.42,0,0,1,.55-.22.41.41,0,0,1,.22.54,1.7,1.7,0,0,1-1,.9,2.79,2.79,0,0,1-1,.15,2.58,2.58,0,0,1-1-.2A1.47,1.47,0,0,1,23.44,34.4Zm6.32-7.29-.49.59a.41.41,0,1,1-.64-.52l.33-.41a.4.4,0,0,1-.1-.56.43.43,0,0,1,.58-.12,2.64,2.64,0,0,0,1.42.32A2.88,2.88,0,0,0,32.32,26a.42.42,0,0,1,.45.7l0,0,.37.41a.42.42,0,0,1-.62.56l-.57-.63a4.21,4.21,0,0,1-.6.11v.58a.42.42,0,1,1-.84,0v-.56A5.27,5.27,0,0,1,29.76,27.11Zm-11,0-.47.58a.42.42,0,0,1-.59.06.41.41,0,0,1-.06-.58l.32-.4h0a.4.4,0,0,1-.11-.57.43.43,0,0,1,.58-.12,2.71,2.71,0,0,0,1.39.34l.1,0h.1a3.14,3.14,0,0,0,1.38-.36.41.41,0,0,1,.57.15.4.4,0,0,1-.15.56l0,0,.34.37a.42.42,0,0,1-.62.56L21,27.1a4.23,4.23,0,0,1-.62.11v.56a.42.42,0,0,1-.84,0v-.54A3.38,3.38,0,0,1,18.8,27.12Zm10.55-2.74a.42.42,0,0,1-.58-.1.42.42,0,0,1,.1-.58,4.21,4.21,0,0,1,2.4-.84,4.34,4.34,0,0,1,2.46.84.4.4,0,0,1,.11.57.42.42,0,0,1-.58.11,3.54,3.54,0,0,0-2-.69A3.28,3.28,0,0,0,29.35,24.38Zm-11.72,0a.42.42,0,0,1-.58-.1.41.41,0,0,1,.09-.58,4.27,4.27,0,0,1,2.41-.84A4.34,4.34,0,0,1,22,23.7a.41.41,0,0,1,.11.57.42.42,0,0,1-.58.11,3.54,3.54,0,0,0-2-.69A3.28,3.28,0,0,0,17.63,24.38Zm-5.27-2.06a.67.67,0,0,1,.38-.09,15.62,15.62,0,0,1-.14-3.65c.12-3.47,1-6.24,3.76-8.65,4.15-3.63,12.37-3.95,17-.82a10.45,10.45,0,0,1,1.87,1.66,17.58,17.58,0,0,1,3.48,9.63,6.6,6.6,0,0,1-.35,2c0,.07,0,.14,0,.23a3.88,3.88,0,0,1,1.18,1.13A3.51,3.51,0,0,1,40,26a5.09,5.09,0,0,1-.77,2.33,8.5,8.5,0,0,1-2.51,2.54,23.48,23.48,0,0,1-4,6.36A12.34,12.34,0,0,1,28,40.59a7.62,7.62,0,0,1-5.7-.13,11.4,11.4,0,0,1-3.14-2,15.49,15.49,0,0,1-2.62-3.18,24.93,24.93,0,0,1-2-3.9,7.51,7.51,0,0,1-.76-.28,5.64,5.64,0,0,1-.92-.56,5,5,0,0,1-1.69-2.43,7.32,7.32,0,0,1-.28-3.28,3.87,3.87,0,0,1,.46-1.44A3,3,0,0,1,12.36,22.32Zm.69,1.05h0a1.8,1.8,0,0,0-.56.6,2.83,2.83,0,0,0-.31,1,6.12,6.12,0,0,0,.22,2.72,3.61,3.61,0,0,0,2,2.24,4.28,4.28,0,0,0,.83.29.65.65,0,0,1,.44.38,24.74,24.74,0,0,0,2,4A14.09,14.09,0,0,0,20,37.49a9.9,9.9,0,0,0,2.77,1.82,6.34,6.34,0,0,0,4.78.1,11,11,0,0,0,4.23-3,22.21,22.21,0,0,0,3.84-6.17.62.62,0,0,1,.25-.3,7.39,7.39,0,0,0,2.28-2.24,3.8,3.8,0,0,0,.59-1.75,2.36,2.36,0,0,0-.36-1.43,2.68,2.68,0,0,0-.57-.6,21.92,21.92,0,0,1-2.31,3.89V21.34c-3-1.36-4.9-4.36-5.88-8.87-1.18,8.58-11.78,8.21-14.44,9.77v5a22.93,22.93,0,0,1-1.37-2.16A9.83,9.83,0,0,1,13.05,23.37Z"/></svg>