<svg id="Layer_1" data-name="Layer 1" xmlns="http://www.w3.org/2000/svg" xmlns:xlink="http://www.w3.org/1999/xlink" viewBox="0 0 55 56"><defs><style>.cls-1{fill-rule:evenodd;fill:url(#linear-gradient);}</style><linearGradient id="linear-gradient" x1="331.62" y1="-328.32" x2="280.59" y2="-347.17" gradientTransform="matrix(1, 0, 0, -1, -278.5, -310)" gradientUnits="userSpaceOnUse"><stop offset="0" stop-color="#269a14"/><stop offset="1" stop-color="#62d750"/></linearGradient></defs><path class="cls-1" d="M27.4.82A26.17,26.17,0,0,1,46.14,8.73a27.36,27.36,0,0,1,0,38.18,26.15,26.15,0,0,1-37.48,0,27.36,27.36,0,0,1,0-38.18A26.17,26.17,0,0,1,27.4.82Zm6.65,51.45-.06,0,3-10.15-6.13-6.93-7.23-.06-5.72,7.3,2.87,9.81-.07,0a24.71,24.71,0,0,0,13.36,0ZM6.17,41.08l10.5.05,5.49-7-2.27-7.08L10.65,23,2.53,29A25.52,25.52,0,0,0,6.17,41.08Zm2-29.33,3.19,9.73,8.62,3.82L26.6,20V10L18.37,4.17A24.94,24.94,0,0,0,9.79,9.89,24.47,24.47,0,0,0,8.13,11.75Zm28-7.69L28.2,10V20L34.46,25l9-3.92,3.1-9.44A22.5,22.5,0,0,0,45,9.88,24.89,24.89,0,0,0,36.14,4.06Zm16.13,25h0l-8.62-6.4-8.55,3.73-2.62,7.93,5.92,6.69a.2.2,0,0,1,0,.09l10.18,0A25.7,25.7,0,0,0,52.27,29.1Z"/></svg>