<svg width="640" height="186" viewBox="0 0 640 186" fill="none" xmlns="http://www.w3.org/2000/svg">
<path d="M4.44636 31.1688H-3V186.367L330.127 184.407C296.814 169.514 305.828 176.569 275.651 149.135C245.473 121.701 227.053 113.863 210.593 110.727C194.133 107.592 163.955 117.39 129.859 113.863C95.7622 110.335 86.7482 82.1176 56.5709 55.0756C32.429 33.4419 11.7621 30.1237 4.44636 31.1688Z" fill="white" fill-opacity="0.25"/>
<path d="M279.177 152.493C217.646 152.493 195.699 183.846 154.156 184.826C246.191 184.826 424.628 186.577 402.042 186.002C375.783 185.333 335.612 152.493 279.177 152.493Z" fill="white" fill-opacity="0.25"/>
<path d="M293.876 186.164C293.772 186.166 293.664 186.166 293.555 186.164H-32C-2.47584 183.725 4.44797 176.406 51.2817 134.667C70.8322 117.243 93.5662 82.3413 130.252 82.3413C173.363 82.3413 203.932 127.809 221.176 142.897C243.3 162.256 282.273 185.935 293.555 186.164H293.876Z" fill="#40002A"/>
<rect x="452" y="152" width="10" height="34" fill="white"/>
<rect x="471" y="130" width="10" height="56" fill="#40002A"/>
<rect x="505" y="51" width="10" height="135" fill="white"/>
<rect x="524" y="82" width="10" height="104" fill="#40002A"/>
<rect x="558" y="31" width="10" height="155" fill="white"/>
<rect x="577" y="51" width="10" height="135" fill="#40002A"/>
<rect x="611" width="10" height="186" fill="white"/>
<rect x="630" y="42" width="10" height="144" fill="#40002A"/>
</svg>
