<svg width="604" height="813" viewBox="0 0 604 813" fill="none" xmlns="http://www.w3.org/2000/svg">
<circle cx="100" cy="116" r="20" fill="white" fill-opacity="0.25"/>
<circle cx="467" cy="462" r="20" fill="white" fill-opacity="0.25"/>
<circle cx="12" cy="430" r="12" fill="white" fill-opacity="0.25"/>
<ellipse cx="118" cy="498" rx="25" ry="26" fill="white" fill-opacity="0.25"/>
<circle cx="576" cy="406" r="12" fill="white" fill-opacity="0.25"/>
<path d="M560.779 82.9356C560.84 82.2507 560.874 81.6207 560.874 80.9495C560.874 77.4363 559.958 73.9839 558.216 70.9329C556.475 67.8818 553.968 65.3378 550.942 63.5517C547.917 61.7656 544.478 60.7989 540.965 60.7477C537.453 60.6964 533.987 61.5621 530.911 63.2591C528.48 58.2534 524.732 54.0042 520.069 50.9671C515.406 47.93 510.004 46.2197 504.443 46.0198C498.882 45.8199 493.371 47.138 488.502 49.8324C483.633 52.5269 479.59 56.496 476.806 61.3142C474.692 59.295 472.201 57.7121 469.476 56.6555C466.751 55.5988 463.844 55.0892 460.922 55.1559C457.999 55.2227 455.119 55.8644 452.445 57.0444C449.77 58.2244 447.354 59.9196 445.335 62.0331C443.316 64.1467 441.733 66.6374 440.677 69.3628C439.62 72.0882 439.111 74.9948 439.177 77.9171C439.244 80.8394 439.886 83.7198 441.066 86.3941C442.246 89.0684 443.941 91.4843 446.055 93.5034C442.676 94.4839 439.579 96.251 437.015 98.66C434.452 101.069 432.496 104.051 431.308 107.362C430.12 110.673 429.733 114.219 430.18 117.708C430.627 121.197 431.895 124.531 433.879 127.435C435.864 130.34 438.508 132.733 441.596 134.418C444.683 136.103 448.127 137.033 451.643 137.13C455.159 137.227 458.649 136.489 461.825 134.978C465.001 133.466 467.774 131.223 469.916 128.432C472.626 131.172 476.238 132.836 480.082 133.116C483.925 133.396 487.74 132.271 490.818 129.952C491.367 134.034 493.275 137.811 496.235 140.675C499.195 143.539 503.033 145.323 507.13 145.737C511.228 146.152 515.345 145.174 518.819 142.961C522.292 140.749 524.919 137.43 526.275 133.541C529.592 135.967 533.363 137.7 537.364 138.638C541.366 139.576 545.515 139.7 549.565 139.001C553.615 138.303 557.483 136.797 560.939 134.573C564.395 132.35 567.368 129.453 569.682 126.057C571.996 122.66 573.603 118.833 574.407 114.803C575.212 110.773 575.197 106.622 574.365 102.597C573.532 98.573 571.898 94.7574 569.56 91.3772C567.223 87.997 564.229 85.1214 560.758 82.9219L560.779 82.9356Z" fill="white" fill-opacity="0.25"/>
<path fill-rule="evenodd" clip-rule="evenodd" d="M551.57 711.662L559.321 697.859C560.164 697.587 560.874 697.007 561.309 696.235L567.855 698.27L602.98 693.862L576.421 692.648L561.331 692.831C561.036 692.282 560.601 691.822 560.071 691.496C559.54 691.17 558.933 690.991 558.31 690.977C558.19 690.974 558.074 690.971 557.953 690.969L556.666 685.227L535.295 657L547.522 680.613L554.982 693.169C554.717 693.814 554.653 694.524 554.796 695.207C554.939 695.89 555.284 696.514 555.785 696.999L550.993 701.415L537.238 734.065L551.57 711.662Z" fill="white"/>
<path fill-rule="evenodd" clip-rule="evenodd" d="M555.5 812.529L558.047 696.173L561.205 694.91L563.701 812.529" fill="white"/>
<path fill-rule="evenodd" clip-rule="evenodd" d="M424.509 731.954L430.749 720.839C431.428 720.62 432 720.153 432.35 719.531L437.621 721.169L465.903 717.615L444.518 716.64L432.367 716.79C432.13 716.349 431.78 715.978 431.353 715.716C430.925 715.453 430.436 715.309 429.935 715.298C429.838 715.296 429.745 715.294 429.648 715.291L428.611 710.668L411.402 687.944L421.248 706.954L427.255 717.063C427.042 717.583 426.99 718.155 427.105 718.704C427.221 719.254 427.498 719.757 427.902 720.147L424.044 723.704L412.969 749.995L424.509 731.954Z" fill="white"/>
<path fill-rule="evenodd" clip-rule="evenodd" d="M426.586 812.466L428.628 719.177L431.16 718.165L433.161 812.466" fill="white"/>
<g clip-path="url(#clip0_4492_4538)">
<path d="M93.3516 686.6V813H96.0935V686.6M97.1903 686.6V813H98.8354V686.6M99.9322 686.6V813H101.577V686.6" fill="white"/>
<path d="M95.4375 805.8H102.238M95.4375 777H102.238M95.4375 747.667H102.238M95.4375 718.867H102.238" stroke="white" stroke-width="3" stroke-linecap="square"/>
<path d="M85.1328 698.707H103.778M85.1328 686.44H104.875" stroke="white" stroke-width="2" stroke-linecap="square"/>
<path fill-rule="evenodd" clip-rule="evenodd" d="M111.565 749.533C107.507 749.213 103.997 746.44 102.955 742.44C101.858 738.387 103.723 734.333 107.123 732.307L111.729 749.48L111.565 749.533Z" fill="white"/>
<path d="M106.844 741.107L109.586 740.467" stroke="white" stroke-width="3" stroke-linecap="round"/>
<path d="M84.0312 675.24H105.418" stroke="white" stroke-width="2" stroke-linecap="square"/>
<path fill-rule="evenodd" clip-rule="evenodd" d="M92.8047 664.2H97.7402V708.467H92.8047V664.2ZM105.966 664.093L110.901 664.413L107.611 708.573L102.676 708.253L105.966 664.093Z" fill="white"/>
<path d="M95.2734 665.373V653.96" stroke="white" stroke-width="2" stroke-linecap="square"/>
<path fill-rule="evenodd" clip-rule="evenodd" d="M78 664.413L82.9355 664.093L86.2258 708.253L81.2903 708.573L78 664.413ZM88.4194 770.867H92.2581V789H88.4194V770.867Z" fill="white"/>
</g>
<g clip-path="url(#clip1_4492_4538)">
<path d="M46.9912 26.5908L35.3651 33.4525C34.7535 33.8134 34.5504 34.6017 34.9113 35.2132L36.8718 38.535C37.2327 39.1465 38.021 39.3496 38.6325 38.9887L50.2587 32.127C50.8702 31.7661 51.0733 30.9778 50.7124 30.3663L48.7519 27.0445C48.391 26.433 47.6027 26.2298 46.9912 26.5908Z" fill="white" stroke="white" stroke-width="3"/>
<path d="M79.1084 7.63959L67.4823 14.5013C66.8707 14.8622 66.6676 15.6505 67.0285 16.262L68.989 19.5838C69.3499 20.1953 70.1382 20.3985 70.7497 20.0375L82.3759 13.1758C82.9874 12.8149 83.1905 12.0266 82.8296 11.4151L80.8691 8.09335C80.5082 7.48183 79.7199 7.27867 79.1084 7.63959Z" fill="white" stroke="white" stroke-width="3"/>
<path d="M50.2891 28.3789L53.0572 26.7452M65.237 19.5567L68.0051 17.923" stroke="white" stroke-width="3" stroke-linecap="square"/>
<path fill-rule="evenodd" clip-rule="evenodd" d="M62.3925 46.9889C61.7101 43.0248 63.482 38.8811 67.1526 36.7148C70.8176 34.5517 75.3016 35.0031 78.4476 37.5132L62.3925 46.9889Z" fill="white" stroke="white" stroke-width="3"/>
<path d="M71.8929 44.7423L70.5859 42.5278" stroke="white" stroke-width="3" stroke-linecap="round"/>
<path d="M64.7031 32.5625L66.9904 36.4379" stroke="white" stroke-width="3" stroke-linecap="square"/>
<path fill-rule="evenodd" clip-rule="evenodd" d="M52.0851 16.8705C50.701 17.6873 50.2472 19.4481 51.0641 20.8321L58.2526 33.0119C59.0694 34.396 60.8302 34.8497 62.2142 34.0329L66.6432 31.4189C68.0273 30.602 68.4811 28.8413 67.6642 27.4572L60.4757 15.2774C59.6589 13.8934 57.8981 13.4396 56.5141 14.2565L52.0851 16.8705Z" fill="white" stroke="white" stroke-width="3"/>
</g>
<defs>
<clipPath id="clip0_4492_4538">
<rect width="34" height="160" fill="white" transform="translate(78 653)"/>
</clipPath>
<clipPath id="clip1_4492_4538">
<rect width="55.2857" height="36" fill="white" transform="translate(30 28.7832) rotate(-30.5489)"/>
</clipPath>
</defs>
</svg>
