<svg width="395" height="254" viewBox="0 0 395 254" fill="none" xmlns="http://www.w3.org/2000/svg">
<path d="M217.167 253.918C214.075 253.905 211.096 252.755 208.8 250.688C207.512 249.552 206.482 248.154 205.779 246.588C205.076 245.021 204.717 243.324 204.725 241.607V153.553C204.725 152.334 202.623 151.242 201.632 151.242H199.93V52.5659H227.504C242.741 54.0137 254.231 66.43 254.231 81.4454V139.683C254.231 145.172 250.241 149.154 244.746 149.154C239.252 149.154 235.262 145.172 235.262 139.683V89.7592C235.262 87.5684 234.448 86.7521 232.255 86.7521C231.099 86.7521 230.632 88.8753 230.632 89.7592V240.145C230.804 241.881 230.611 243.633 230.066 245.29C229.52 246.947 228.633 248.471 227.463 249.765C226.333 251.044 224.944 252.069 223.388 252.771C221.832 253.473 220.144 253.837 218.437 253.839C218.015 253.887 217.591 253.914 217.167 253.918ZM202.241 148.987C204.196 149.28 207.033 150.972 207.033 153.553V241.604C207.027 242.996 207.32 244.373 207.89 245.642C208.461 246.912 209.296 248.045 210.34 248.967C211.403 249.927 212.656 250.654 214.018 251.099C215.38 251.544 216.82 251.698 218.246 251.551H218.372C219.765 251.556 221.144 251.264 222.415 250.694C223.686 250.125 224.82 249.29 225.743 248.247C226.704 247.186 227.432 245.934 227.877 244.574C228.323 243.213 228.477 241.774 228.33 240.35V240.224V89.7769C228.33 87.7212 229.397 84.4644 232.26 84.4644C234.686 84.4644 237.579 85.3865 237.579 89.7769V139.701C237.579 143.921 240.519 146.866 244.752 146.866C248.986 146.866 251.926 143.93 251.926 139.701V81.4513C251.926 67.6488 241.363 56.2339 227.345 54.8713H202.246L202.241 148.987Z" fill="white"/>
<path d="M202.519 44.7269C202.105 44.7269 201.661 44.727 201.158 44.6859L200.047 44.6389V0.118438L201.158 0.056779C201.652 0.0303487 202.099 0.015625 202.519 0.015625C208.646 0.015625 214.309 2.3005 218.463 6.453C222.617 10.6055 224.907 16.2586 224.907 22.3787C224.907 28.4988 222.617 34.1548 218.463 38.3073C214.309 42.4598 208.646 44.7269 202.519 44.7269ZM202.399 42.3775H202.519C213.941 42.3775 222.555 33.773 222.555 22.364C222.555 10.9549 213.941 2.35036 202.519 2.35036H202.399V42.3775Z" fill="white"/>
<path d="M202.402 52.5659H179.282C164.832 52.5659 158.329 69.1642 158.329 69.1642L140.269 127.622C140.269 127.622 136.656 138.447 146.049 140.611C155.439 143.498 158.329 132.682 158.329 132.682L172.779 84.3293C172.779 84.3293 173.502 80.7201 176.392 81.4425C179.282 82.165 177.839 86.4936 177.839 86.4936L152.555 177.426H176.398V242.38C176.398 245.442 177.616 248.379 179.784 250.545C181.952 252.71 184.892 253.927 187.958 253.927C191.024 253.927 193.964 252.71 196.132 250.545C198.3 248.379 199.518 245.442 199.518 242.38V177.417H202.402V52.5659Z" fill="white"/>
<path d="M202.403 0C189.676 0 179.941 9.72339 179.941 22.4364C179.941 35.1494 190.425 44.8699 202.403 44.8699V0Z" fill="white"/>
<path d="M58.1856 254.251C55.8668 254.242 53.6328 253.379 51.9103 251.829C50.9444 250.977 50.172 249.928 49.6449 248.753C49.1178 247.579 48.8482 246.305 48.8541 245.018V178.977C48.8541 178.063 47.2776 177.244 46.5345 177.244H45.2578V103.236H65.9382C77.3665 104.322 85.9836 113.634 85.9836 124.896V168.574C85.9836 172.691 82.9914 175.678 78.8703 175.678C74.7492 175.678 71.7571 172.691 71.7571 168.574V131.131C71.7571 129.488 71.1464 128.876 69.5015 128.876C68.6349 128.876 68.2843 130.468 68.2843 131.131V243.921C68.4137 245.223 68.269 246.538 67.8597 247.78C67.4503 249.023 66.7854 250.166 65.9074 251.137C65.0601 252.096 64.0183 252.864 62.8514 253.391C61.6844 253.918 60.4187 254.191 59.1381 254.192C58.8218 254.228 58.5039 254.248 58.1856 254.251ZM46.991 175.552C48.4573 175.772 50.585 177.041 50.585 178.977V245.016C50.5811 246.06 50.8004 247.092 51.2282 248.045C51.656 248.997 52.2824 249.847 53.0656 250.538C53.8626 251.258 54.8023 251.803 55.8238 252.137C56.8453 252.471 57.9257 252.586 58.9948 252.476H59.0896C60.1345 252.48 61.1682 252.261 62.1215 251.834C63.0748 251.406 63.9258 250.781 64.6175 249.998C65.3388 249.202 65.8843 248.263 66.2186 247.243C66.5529 246.223 66.6685 245.143 66.5578 244.076V243.981V131.144C66.5578 129.603 67.3582 127.16 69.5059 127.16C71.325 127.16 73.4946 127.851 73.4946 131.144V168.588C73.4946 171.753 75.6996 173.962 78.8747 173.962C82.0499 173.962 84.2549 171.759 84.2549 168.588V124.9C84.2549 114.548 76.3324 105.987 65.8191 104.965H46.9954L46.991 175.552Z" fill="white"/>
<path d="M47.206 97.3546C46.8951 97.3546 46.562 97.3547 46.185 97.3238L45.3516 97.2886V63.8979L46.185 63.8517C46.5554 63.8318 46.8907 63.8208 47.206 63.8208C51.8011 63.8208 56.0479 65.5345 59.1635 68.6489C62.2791 71.7633 63.9968 76.0032 63.9968 80.5933C63.9968 85.1834 62.2791 89.4254 59.1635 92.5398C56.0479 95.6542 51.8011 97.3546 47.206 97.3546ZM47.1155 95.5925H47.206C55.7723 95.5925 62.2328 89.1391 62.2328 80.5822C62.2328 72.0253 55.7723 65.5719 47.206 65.5719H47.1155V95.5925Z" fill="white"/>
<path d="M47.1121 103.236H29.7722C18.9348 103.236 14.0574 115.685 14.0574 115.685L0.512371 159.529C0.512371 159.529 -2.19761 167.647 4.84726 169.27C11.8899 171.436 14.0574 163.324 14.0574 163.324L24.8949 127.059C24.8949 127.059 25.4372 124.352 27.6047 124.894C29.7722 125.435 28.6896 128.682 28.6896 128.682L9.72694 196.882H27.6091V245.598C27.6091 247.894 28.5226 250.097 30.1485 251.721C31.7744 253.345 33.9797 254.258 36.2791 254.258C38.5785 254.258 40.7837 253.345 42.4096 251.721C44.0356 250.097 44.949 247.894 44.949 245.598V196.875H47.1121V103.236Z" fill="white"/>
<path d="M47.1115 63.8105C37.5662 63.8105 30.2656 71.1032 30.2656 80.638C30.2656 90.1728 38.1285 97.4633 47.1115 97.4633V63.8105Z" fill="white"/>
<path d="M366.604 254.251C364.285 254.242 362.051 253.379 360.328 251.829C359.362 250.977 358.59 249.928 358.063 248.753C357.536 247.579 357.266 246.305 357.272 245.018V178.977C357.272 178.063 355.696 177.244 354.952 177.244H353.676V103.236H374.356C385.785 104.322 394.402 113.634 394.402 124.896V168.574C394.402 172.691 391.409 175.678 387.288 175.678C383.167 175.678 380.175 172.691 380.175 168.574V131.131C380.175 129.488 379.564 128.876 377.919 128.876C377.053 128.876 376.702 130.468 376.702 131.131V243.921C376.832 245.223 376.687 246.538 376.278 247.78C375.868 249.023 375.203 250.166 374.325 251.137C373.478 252.096 372.436 252.864 371.269 253.391C370.102 253.918 368.837 254.191 367.556 254.192C367.24 254.228 366.922 254.248 366.604 254.251ZM355.409 175.552C356.875 175.772 359.003 177.041 359.003 178.977V245.016C358.999 246.06 359.218 247.092 359.646 248.045C360.074 248.997 360.7 249.847 361.484 250.538C362.281 251.258 363.22 251.803 364.242 252.137C365.263 252.471 366.344 252.586 367.413 252.476H367.508C368.552 252.48 369.586 252.261 370.539 251.834C371.493 251.406 372.344 250.781 373.035 249.998C373.757 249.202 374.302 248.263 374.637 247.243C374.971 246.223 375.086 245.143 374.976 244.076V243.981V131.144C374.976 129.603 375.776 127.16 377.924 127.16C379.743 127.16 381.913 127.851 381.913 131.144V168.588C381.913 171.753 384.118 173.962 387.293 173.962C390.468 173.962 392.673 171.759 392.673 168.588V124.9C392.673 114.548 384.75 105.987 374.237 104.965H355.413L355.409 175.552Z" fill="white"/>
<path d="M355.624 97.3546C355.313 97.3546 354.98 97.3547 354.603 97.3238L353.77 97.2886V63.8979L354.603 63.8517C354.973 63.8318 355.309 63.8208 355.624 63.8208C360.219 63.8208 364.466 65.5345 367.581 68.6489C370.697 71.7633 372.415 76.0032 372.415 80.5933C372.415 85.1834 370.697 89.4254 367.581 92.5398C364.466 95.6542 360.219 97.3546 355.624 97.3546ZM355.534 95.5925H355.624C364.19 95.5925 370.651 89.1391 370.651 80.5822C370.651 72.0253 364.19 65.5719 355.624 65.5719H355.534V95.5925Z" fill="white"/>
<path d="M355.53 103.236H338.19C327.353 103.236 322.475 115.685 322.475 115.685L308.93 159.529C308.93 159.529 306.22 167.647 313.265 169.27C320.308 171.436 322.475 163.324 322.475 163.324L333.313 127.059C333.313 127.059 333.855 124.352 336.023 124.894C338.19 125.435 337.108 128.682 337.108 128.682L318.145 196.882H336.027V245.598C336.027 247.894 336.941 250.097 338.566 251.721C340.192 253.345 342.398 254.258 344.697 254.258C346.997 254.258 349.202 253.345 350.828 251.721C352.454 250.097 353.367 247.894 353.367 245.598V196.875H355.53V103.236Z" fill="white"/>
<path d="M355.53 63.8105C345.984 63.8105 338.684 71.1032 338.684 80.638C338.684 90.1728 346.546 97.4633 355.53 97.4633V63.8105Z" fill="white"/>
</svg>
