<svg width="564" height="552" viewBox="0 0 564 552" fill="none" xmlns="http://www.w3.org/2000/svg">
<path d="M563.302 247.05C563.302 167.289 500.72 102.254 420.959 99.7994C393.964 22.4929 310.522 -18.001 233.215 8.99496C190.267 23.72 157.136 56.8514 142.411 99.7994C61.4229 102.254 -2.38569 169.743 0.0684865 251.958C1.29557 296.133 22.1561 336.627 56.5145 363.623C52.8332 377.121 50.3791 390.619 50.3791 404.117C50.3791 485.105 115.415 551.368 197.63 551.368C227.08 551.368 256.53 542.778 281.072 525.599C348.561 571.001 440.593 552.595 485.995 485.105C501.947 460.563 510.537 432.34 510.537 402.89C510.537 389.392 508.083 375.894 504.401 362.396C542.441 335.4 563.302 292.452 563.302 247.05ZM400.099 148.883C400.099 207.783 357.151 256.867 299.478 265.456C298.251 259.321 298.251 253.185 298.251 247.05C298.251 188.15 341.199 139.066 398.872 130.477C398.872 136.612 400.099 142.748 400.099 148.883ZM283.526 487.559C236.896 442.157 235.669 368.532 281.072 321.902C281.072 320.675 282.299 320.675 283.526 319.448C330.155 364.85 331.382 439.703 285.98 486.332C283.526 486.332 283.526 487.559 283.526 487.559ZM165.725 130.477C223.398 139.066 266.346 188.15 266.346 247.05C266.346 253.185 266.346 259.321 265.119 265.456C207.446 256.867 164.498 207.783 164.498 148.883C164.498 142.748 164.498 136.612 165.725 130.477ZM254.076 299.815C224.625 357.488 154.682 382.03 97.0084 352.579C95.7813 352.579 95.7813 351.352 94.5542 351.352C114.188 312.086 154.681 286.317 200.084 286.317C218.49 286.317 236.896 291.225 254.076 299.815ZM310.522 298.588C327.701 289.998 346.107 285.09 364.513 285.09C409.916 285.09 450.41 310.859 470.043 351.352C412.37 380.802 342.426 358.715 311.749 302.269C311.749 301.042 310.522 299.815 310.522 298.588ZM282.299 31.0825C328.928 31.0825 371.876 59.3055 390.282 102.254C342.426 110.843 303.159 141.52 282.299 185.696C261.438 141.52 222.171 110.843 174.315 102.254C192.721 59.3055 235.669 31.0825 282.299 31.0825ZM30.7457 247.05C30.7457 186.923 76.1479 136.612 136.275 130.477C135.048 136.612 135.048 142.748 135.048 148.883C135.048 190.604 152.227 229.871 182.905 258.094C135.048 264.229 93.3271 292.452 70.0125 335.4C45.4707 312.086 30.7457 280.181 30.7457 247.05ZM82.2833 404.117C82.2833 395.527 83.5104 388.165 84.7375 379.575C127.686 400.436 177.996 399.209 219.717 375.894C218.49 384.484 217.263 394.3 217.263 402.89C217.263 440.93 231.988 477.742 258.984 505.965C240.578 517.009 220.944 521.918 200.084 521.918C135.048 521.918 82.2833 469.153 82.2833 404.117ZM483.541 402.89C483.541 467.926 430.776 520.69 365.74 520.69C344.88 520.69 325.247 515.782 306.84 504.738C332.609 477.742 347.334 440.93 347.334 402.89C347.334 393.073 346.107 384.484 344.88 374.667C366.968 386.938 391.509 393.073 416.051 393.073C438.139 393.073 460.226 388.165 479.86 378.348C482.314 386.938 482.314 395.527 483.541 402.89ZM382.92 256.867C413.597 228.644 430.776 189.377 429.549 148.883C429.549 142.748 429.549 136.612 428.322 130.477C493.358 137.839 539.987 195.512 532.624 259.321C530.17 287.544 515.445 314.54 494.585 334.173C472.497 291.225 430.776 263.002 382.92 256.867Z" fill="white" fill-opacity="0.15"/>
</svg>
