<svg width="620" height="195" viewBox="0 0 620 195" fill="none" xmlns="http://www.w3.org/2000/svg">
<path d="M411.563 17.0604C411.563 13.7975 412.565 10.6078 414.442 7.89395C416.32 5.18012 418.988 3.06385 422.112 1.81241C425.235 0.560981 428.673 0.230496 431.991 0.862625C435.308 1.49475 438.357 3.06117 440.753 5.36412C443.149 7.66707 444.783 10.6033 445.451 13.802C446.118 17.0007 445.789 20.3186 444.503 23.3365C443.218 26.3545 441.034 28.9373 438.228 30.7589C435.422 32.5804 432.121 33.559 428.739 33.5711C426.486 33.5791 424.254 33.158 422.17 32.3319C420.087 31.5058 418.193 30.2909 416.597 28.7569C415.001 27.223 413.735 25.4001 412.872 23.3929C412.008 21.3858 411.562 19.2338 411.563 17.0604Z" fill="white"/>
<path d="M448.714 39.625C454.374 40.143 459.629 42.6809 463.451 46.7415C467.273 50.8022 469.386 56.0931 469.376 61.5781V107.319C469.376 109.014 468.678 110.639 467.436 111.837C466.194 113.036 464.51 113.709 462.753 113.709C460.997 113.709 459.312 113.036 458.069 111.837C456.827 110.639 456.13 109.014 456.13 107.319V67.999C456.13 66.5313 455.686 64.5134 452.897 64.5134C450.109 64.5134 450.552 66.5313 450.489 67.7543V185.531C450.219 187.781 449.102 189.857 447.349 191.364C445.596 192.871 443.33 193.704 440.982 193.704C438.634 193.704 436.369 192.871 434.616 191.364C432.863 189.857 431.745 187.781 431.475 185.531V117.653C431.512 117.302 431.47 116.946 431.351 116.612C431.233 116.277 431.04 115.972 430.787 115.716C430.534 115.46 430.227 115.261 429.886 115.131C429.545 115.001 429.179 114.943 428.813 114.963C428.445 114.944 428.077 115.002 427.733 115.132C427.389 115.261 427.079 115.46 426.821 115.714C426.563 115.969 426.365 116.273 426.238 116.608C426.112 116.942 426.061 117.298 426.088 117.653V185.531C425.818 187.781 424.701 189.857 422.948 191.364C421.195 192.871 418.929 193.704 416.581 193.704C414.234 193.704 411.968 192.871 410.215 191.364C408.462 189.857 407.344 187.781 407.074 185.531V67.7543C407.074 66.5313 406.631 64.5134 404.729 64.5134C401.877 64.5134 401.497 66.5313 401.497 67.999V107.319C401.497 109.022 400.796 110.655 399.548 111.859C398.3 113.063 396.607 113.74 394.842 113.74C393.077 113.74 391.384 113.063 390.136 111.859C388.888 110.655 388.188 109.022 388.188 107.319V61.5781C388.194 56.0874 390.32 50.7961 394.153 46.7369C397.985 42.6777 403.247 40.1421 408.913 39.625H448.905" fill="white"/>
<path d="M309.912 25.4383C309.912 22.3421 308.96 19.3154 307.177 16.741C305.394 14.1667 302.86 12.1602 299.895 10.9753C296.93 9.79046 293.669 9.48047 290.521 10.0845C287.374 10.6885 284.483 12.1795 282.213 14.3688C279.944 16.5582 278.399 19.3475 277.773 22.3842C277.147 25.4209 277.468 28.5685 278.696 31.429C279.924 34.2896 282.004 36.7345 284.672 38.4546C287.34 40.1748 290.477 41.0929 293.686 41.0929C297.989 41.0929 302.116 39.4436 305.159 36.5077C308.202 33.5719 309.912 29.5902 309.912 25.4383Z" fill="white"/>
<path d="M261.042 60.8441L247.606 103.099C247.606 103.099 245.198 110.865 252.043 112.822C258.888 114.779 260.852 107.196 260.852 107.196L271.69 71.8512C271.69 71.8512 272.324 69.1606 274.415 69.7721C276.507 70.3836 275.747 73.2577 275.747 73.2577L256.733 139.423H274.288V186.753C274.288 188.911 275.177 190.979 276.758 192.504C278.339 194.03 280.483 194.887 282.718 194.887C284.954 194.887 287.098 194.03 288.679 192.504C290.26 190.979 291.148 188.911 291.148 186.753V139.362H295.964V186.692C295.964 188.849 296.852 190.918 298.433 192.443C300.014 193.969 302.158 194.825 304.394 194.825C306.629 194.825 308.774 193.969 310.355 192.443C311.936 190.918 312.824 188.849 312.824 186.692V139.362H330.38L311.366 73.1965C311.366 73.1965 310.542 70.2613 312.633 69.7109C314.725 69.1605 315.359 71.79 315.359 71.79L326.196 107.135C326.196 107.135 328.288 114.718 335.07 112.761C341.851 110.804 339.443 103.038 339.443 103.038L326.006 60.7829C326.006 60.7829 321.19 48.5527 310.542 48.5527H276.254C265.606 48.5527 260.789 60.7829 260.789 60.7829" fill="white"/>
<path d="M212.876 25.4382C212.876 22.3394 211.923 19.3103 210.137 16.7346C208.351 14.1589 205.814 12.1525 202.845 10.9695C199.877 9.78642 196.611 9.47999 193.462 10.089C190.313 10.698 187.422 12.195 185.156 14.3905C182.889 16.5859 181.349 19.381 180.73 22.4217C180.111 25.4625 180.441 28.612 181.679 31.4714C182.917 34.3308 185.006 36.7715 187.683 38.4843C190.359 40.1971 193.503 41.1049 196.714 41.0928C201.006 41.0766 205.117 39.4201 208.146 36.4861C211.175 33.552 212.876 29.5795 212.876 25.4382Z" fill="white"/>
<path d="M164.075 60.8441L150.575 103.099C150.575 103.099 148.167 110.865 155.012 112.822C161.857 114.779 163.821 107.196 163.821 107.196L174.849 72.0958C174.849 72.0958 175.42 69.4052 177.511 70.0167C179.603 70.6282 178.842 73.5023 178.842 73.5023L159.828 139.667H177.385V186.998C177.568 189.041 178.539 190.944 180.105 192.33C181.672 193.716 183.72 194.485 185.846 194.485C187.971 194.485 190.019 193.716 191.586 192.33C193.152 190.944 194.123 189.041 194.307 186.998V139.362H199.06V186.692C199.244 188.735 200.214 190.638 201.781 192.024C203.347 193.41 205.396 194.179 207.521 194.179C209.647 194.179 211.695 193.41 213.262 192.024C214.828 190.638 215.799 188.735 215.982 186.692V139.362H233.539L214.525 73.1965C214.525 73.1965 213.701 70.2613 215.855 69.7109C218.01 69.1605 218.518 71.79 218.518 71.79L229.419 107.135C229.419 107.135 231.447 114.718 238.229 112.761C245.01 110.804 242.665 103.038 242.665 103.038L229.165 60.7829C229.165 60.7829 224.412 48.5527 213.701 48.5527H179.412C168.765 48.5527 163.948 60.7829 163.948 60.7829" fill="white"/>
<path d="M364.289 112.883C366.959 112.883 369.569 112.119 371.789 110.688C374.009 109.257 375.74 107.223 376.761 104.843C377.783 102.463 378.051 99.8437 377.53 97.3171C377.009 94.7904 375.723 92.4696 373.835 90.648C371.947 88.8264 369.541 87.5859 366.923 87.0833C364.304 86.5807 361.589 86.8386 359.122 87.8245C356.656 88.8103 354.548 90.4798 353.065 92.6218C351.581 94.7637 350.789 97.282 350.789 99.8581C350.781 101.571 351.124 103.268 351.8 104.852C352.475 106.436 353.469 107.875 354.724 109.086C355.979 110.297 357.471 111.257 359.113 111.908C360.755 112.56 362.514 112.891 364.289 112.883Z" fill="white"/>
<path d="M331.965 153.304C331.401 154.37 331.291 155.605 331.659 156.747C332.026 157.89 332.84 158.849 333.929 159.419C334.952 159.879 336.118 159.944 337.189 159.604C338.261 159.263 339.158 158.541 339.697 157.585L347.049 135.02C347.049 135.02 348.316 133.553 348.316 135.02V188.283C348.482 189.948 349.284 191.494 350.567 192.62C351.85 193.745 353.522 194.369 355.256 194.369C356.99 194.369 358.662 193.745 359.946 192.62C361.229 191.494 362.032 189.948 362.197 188.283V167.308C362.197 167.308 361.753 164.312 364.225 164.312C366.697 164.312 366.316 167.308 366.316 167.308V188.283C366.481 189.948 367.284 191.494 368.567 192.62C369.851 193.745 371.523 194.369 373.257 194.369C374.991 194.369 376.662 193.745 377.945 192.62C379.228 191.494 380.031 189.948 380.196 188.283V135.143C380.196 133.614 381.02 134.715 381.02 134.715L386.787 150.125C387.595 152.644 388.701 155.065 390.083 157.34C391.296 157.751 392.626 157.701 393.802 157.201C394.979 156.702 395.915 155.79 396.421 154.65C396.753 153.884 396.876 153.048 396.776 152.223C396.676 151.398 396.357 150.613 395.851 149.941C395.851 149.452 387.295 129.517 386.281 126.704C383.238 118.143 377.725 118.265 372.401 118.082C367.077 117.898 363.844 118.082 363.844 118.082C363.844 118.082 360.486 118.082 353.451 118.082C346.415 118.082 344.197 121.812 336.401 141.013C335.324 143.826 331.584 152.754 331.521 153.243L331.965 153.304Z" fill="white"/>
<path d="M68.2441 17.0605C68.2441 13.795 67.2406 10.6028 65.3603 7.88766C63.4799 5.17249 60.8073 3.05625 57.6804 1.80659C54.5535 0.556937 51.1127 0.229999 47.7933 0.867068C44.4738 1.50414 41.4246 3.07662 39.0314 5.38568C36.6382 7.69475 35.0087 10.6367 34.3484 13.8394C33.6881 17.0422 34.0269 20.362 35.322 23.3789C36.6172 26.3958 38.8107 28.9744 41.6248 30.7886C44.4389 32.6029 47.7472 33.5712 51.1317 33.5712C55.6702 33.5712 60.0227 31.8317 63.2319 28.7353C66.4411 25.639 68.2441 21.4394 68.2441 17.0605Z" fill="white"/>
<path d="M31.1705 39.625C25.505 40.1421 20.2424 42.6777 16.4103 46.7369C12.5782 50.7961 10.4515 56.0874 10.4453 61.5781V107.319C10.4453 109.014 11.1432 110.639 12.3853 111.837C13.6274 113.036 15.3118 113.709 17.0683 113.709C18.8249 113.709 20.5097 113.036 21.7518 111.837C22.9938 110.639 23.6918 109.014 23.6918 107.319V67.999C23.6918 66.5313 24.1351 64.5134 26.9238 64.5134C29.7125 64.5134 29.2688 66.5313 29.3322 67.7543V185.531C29.602 187.781 30.7196 189.857 32.4725 191.364C34.2255 192.871 36.4913 193.704 38.8391 193.704C41.1869 193.704 43.4527 192.871 45.2057 191.364C46.9586 189.857 48.0762 187.781 48.346 185.531V117.653C48.3076 117.296 48.3512 116.935 48.4737 116.596C48.5961 116.257 48.7945 115.948 49.0547 115.691C49.3148 115.434 49.6303 115.236 49.9788 115.11C50.3274 114.984 50.7003 114.934 51.0713 114.963C51.4396 114.944 51.8082 115.002 52.1517 115.132C52.4952 115.261 52.806 115.46 53.0639 115.714C53.3217 115.969 53.5205 116.273 53.6468 116.608C53.7732 116.942 53.8244 117.298 53.7969 117.653V185.531C54.0667 187.781 55.1843 189.857 56.9372 191.364C58.6902 192.871 60.956 193.704 63.3038 193.704C65.6516 193.704 67.9174 192.871 69.6703 191.364C71.4233 189.857 72.5409 187.781 72.8107 185.531V67.7543C72.8107 66.5313 73.2544 64.5134 75.2191 64.5134C77.1839 64.5134 78.4511 66.5313 78.4511 67.999V107.319C78.4511 109.014 79.1491 110.639 80.3911 111.837C81.6332 113.036 83.318 113.709 85.0746 113.709C86.8311 113.709 88.5155 113.036 89.7576 111.837C90.9997 110.639 91.6976 109.014 91.6976 107.319V61.5781C91.6914 56.0874 89.5647 50.7961 85.7326 46.7369C81.9005 42.6777 76.6379 40.1421 70.9724 39.625H31.0436" fill="white"/>
<path d="M16.211 113.983L1 191.644" stroke="white" stroke-width="1.15" stroke-miterlimit="10" stroke-linecap="round"/>
<path d="M99.935 106.095C99.3819 105.206 98.5402 104.518 97.5405 104.138C96.5409 103.758 95.4393 103.707 94.4064 103.992C93.3735 104.278 92.4672 104.885 91.8281 105.718C91.1891 106.552 90.8529 107.565 90.8719 108.602C90.9391 109.309 91.088 110.006 91.3156 110.681L104.942 134.407C105.418 135.387 105.698 136.446 105.766 137.526V188.281C105.766 189.984 106.467 191.617 107.715 192.821C108.963 194.026 110.656 194.702 112.421 194.702C114.186 194.702 115.878 194.026 117.126 192.821C118.374 191.617 119.076 189.984 119.076 188.281V168.346C119.076 168.346 118.695 165.533 121.04 165.533C123.385 165.533 123.069 168.346 123.069 168.346V188.281C123.069 189.984 123.769 191.617 125.018 192.821C126.266 194.026 127.958 194.702 129.723 194.702C131.488 194.702 133.181 194.026 134.429 192.821C135.677 191.617 136.378 189.984 136.378 188.281V137.526C136.446 136.446 136.726 135.387 137.202 134.407L149.878 112.515C150.511 111.26 151.02 109.949 151.399 108.602C151.407 107.978 151.287 107.359 151.046 106.781C150.804 106.203 150.446 105.676 149.992 105.233C149.538 104.789 148.997 104.437 148.401 104.196C147.805 103.956 147.165 103.832 146.519 103.832C145.68 103.836 144.856 104.045 144.124 104.441C143.392 104.837 142.777 105.406 142.336 106.095C141.956 106.461 135.681 117.224 133.589 119.242C133.079 119.834 132.439 120.311 131.716 120.639C130.994 120.966 130.205 121.137 129.407 121.138H113.118C112.319 121.141 111.529 120.973 110.805 120.645C110.082 120.317 109.443 119.838 108.935 119.242C106.843 117.224 100.569 106.461 100.188 106.095H99.935Z" fill="white"/>
<path d="M121.038 112.883C123.711 112.895 126.327 112.142 128.555 110.718C130.784 109.294 132.524 107.264 133.555 104.885C134.587 102.506 134.863 99.8852 134.349 97.3546C133.836 94.824 132.555 92.4974 130.669 90.6697C128.784 88.842 126.379 87.5954 123.758 87.0878C121.138 86.5802 118.42 86.8346 115.95 87.8186C113.479 88.8026 111.367 90.472 109.881 92.6153C108.395 94.7586 107.602 97.2793 107.602 99.858C107.602 103.302 109.015 106.606 111.533 109.047C114.051 111.487 117.469 112.867 121.038 112.883Z" fill="white"/>
<path d="M121.038 131.167L136.312 141.869L143.537 167.613H121.038H98.6016L105.827 141.869L121.038 131.167Z" fill="white"/>
<path d="M552.15 19.9629C552.15 16.6973 553.154 13.5052 555.034 10.79C556.915 8.07483 559.587 5.95859 562.714 4.70894C565.841 3.45928 569.282 3.13234 572.601 3.76941C575.921 4.40648 578.97 5.97896 581.363 8.28802C583.756 10.5971 585.386 13.539 586.046 16.7418C586.706 19.9446 586.368 23.2643 585.072 26.2812C583.777 29.2982 581.584 31.8768 578.77 33.691C575.956 35.5052 572.647 36.4735 569.263 36.4735C564.724 36.4735 560.372 34.734 557.163 31.6377C553.953 28.5413 552.15 24.3418 552.15 19.9629Z" fill="white"/>
<path d="M589.228 42.5273C594.893 43.0445 600.156 45.5801 603.988 49.6392C607.82 53.6984 609.947 58.9898 609.953 64.4805V110.221C609.953 111.916 609.255 113.541 608.013 114.74C606.771 115.938 605.087 116.612 603.33 116.612C601.574 116.612 599.889 115.938 598.647 114.74C597.405 113.541 596.707 111.916 596.707 110.221V70.9013C596.707 69.4337 596.263 67.4157 593.475 67.4157C590.686 67.4157 591.13 69.4337 591.066 70.6567V188.433C590.796 190.683 589.679 192.759 587.926 194.266C586.173 195.773 583.907 196.606 581.559 196.606C579.212 196.606 576.946 195.773 575.193 194.266C573.44 192.759 572.322 190.683 572.052 188.433V120.556C572.091 120.199 572.047 119.838 571.925 119.498C571.802 119.159 571.604 118.85 571.344 118.594C571.084 118.337 570.768 118.138 570.42 118.012C570.071 117.887 569.698 117.836 569.327 117.865C568.959 117.847 568.59 117.904 568.247 118.034C567.903 118.163 567.592 118.362 567.335 118.617C567.077 118.871 566.878 119.176 566.752 119.51C566.625 119.844 566.574 120.201 566.602 120.556V188.433C566.332 190.683 565.214 192.759 563.461 194.266C561.708 195.773 559.442 196.606 557.095 196.606C554.747 196.606 552.481 195.773 550.728 194.266C548.975 192.759 547.858 190.683 547.588 188.433V70.6567C547.588 69.4337 547.144 67.4157 545.179 67.4157C543.215 67.4157 541.947 69.4337 541.947 70.9013V110.221C541.947 111.916 541.249 113.541 540.007 114.74C538.765 115.938 537.08 116.612 535.324 116.612C533.567 116.612 531.883 115.938 530.641 114.74C529.399 113.541 528.701 111.916 528.701 110.221V64.4805C528.707 58.9898 530.834 53.6984 534.666 49.6392C538.498 45.5801 543.761 43.0445 549.426 42.5273H589.355" fill="white"/>
<path d="M604.187 116.885L619.398 194.547" stroke="white" stroke-width="1.15" stroke-miterlimit="10" stroke-linecap="round"/>
<path d="M520.467 108.996C521.02 108.108 521.862 107.42 522.862 107.04C523.861 106.66 524.963 106.609 525.996 106.894C527.029 107.18 527.935 107.787 528.574 108.62C529.213 109.453 529.549 110.467 529.53 111.504C529.463 112.21 529.314 112.908 529.087 113.583L515.46 137.309C514.984 138.289 514.704 139.347 514.637 140.428V191.183C514.637 192.886 513.935 194.519 512.687 195.723C511.439 196.927 509.746 197.604 507.981 197.604C506.216 197.604 504.524 196.927 503.276 195.723C502.028 194.519 501.327 192.886 501.327 191.183V171.248C501.327 171.248 501.707 168.435 499.362 168.435C497.017 168.435 497.334 171.248 497.334 171.248V191.183C497.334 192.886 496.633 194.519 495.385 195.723C494.137 196.927 492.444 197.604 490.679 197.604C488.914 197.604 487.222 196.927 485.973 195.723C484.725 194.519 484.024 192.886 484.024 191.183V140.428C483.956 139.347 483.677 138.289 483.2 137.309L470.524 115.417C469.892 114.162 469.382 112.851 469.003 111.504C468.995 110.88 469.115 110.261 469.357 109.683C469.598 109.105 469.956 108.578 470.41 108.135C470.864 107.691 471.405 107.339 472.001 107.098C472.598 106.858 473.237 106.734 473.883 106.734C474.722 106.738 475.546 106.947 476.278 107.343C477.01 107.739 477.626 108.308 478.067 108.996C478.447 109.363 484.721 120.126 486.813 122.144C487.324 122.736 487.963 123.213 488.686 123.541C489.409 123.868 490.197 124.039 490.996 124.04H507.284C508.084 124.043 508.874 123.874 509.597 123.546C510.321 123.219 510.96 122.739 511.468 122.144C513.559 120.126 519.834 109.363 520.214 108.996H520.467Z" fill="white"/>
<path d="M499.361 115.785C496.688 115.798 494.071 115.044 491.843 113.62C489.615 112.196 487.875 110.166 486.843 107.787C485.812 105.408 485.535 102.788 486.049 100.257C486.563 97.7263 487.844 95.3998 489.729 93.572C491.614 91.7443 494.02 90.4977 496.64 89.9901C499.261 89.4826 501.978 89.7369 504.449 90.7209C506.919 91.705 509.031 93.3744 510.517 95.5177C512.003 97.6609 512.797 100.182 512.797 102.76C512.797 106.204 511.383 109.508 508.865 111.949C506.347 114.39 502.93 115.769 499.361 115.785Z" fill="white"/>
<path d="M499.361 134.07L484.086 144.771L476.861 170.516H499.361H521.797L514.572 144.771L499.361 134.07Z" fill="white"/>
</svg>
