<svg width="559" height="748" viewBox="0 0 559 748" fill="none" xmlns="http://www.w3.org/2000/svg">
<path d="M87.7218 353.618C88.4887 353.618 89 353.074 89 352.53V351.442C89 351.17 89 350.626 89 350.354C88.7444 340.289 80.8196 332.672 71.3609 332.944C62.4135 333.216 55.5113 340.833 55 350.354C55 350.626 55 351.17 55 351.442V352.258C55 353.074 55.7669 353.89 56.5338 353.89H63.4361C64.9699 355.794 65.7368 358.243 65.4812 360.691C64.9699 362.051 64.203 363.411 63.4361 364.772C61.9023 366.404 61.1353 368.58 61.391 371.028C61.9023 372.933 62.6692 374.565 63.9474 375.925C65.2256 377.829 66.5038 379.461 65.9925 381.094C65.7368 382.182 65.2256 382.998 64.9699 383.814C63.6917 385.99 63.1805 388.711 63.1805 391.431C63.1805 391.975 63.6917 392.519 64.203 392.519C64.7143 392.519 65.2256 391.975 65.2256 391.431C65.2256 389.255 65.7368 386.806 66.7594 384.902C67.2707 384.086 67.5263 382.998 68.0376 381.91C69.0601 379.189 67.2707 376.741 65.7368 374.565C64.7143 373.477 64.203 372.116 63.6917 370.756C63.4361 369.124 64.4586 367.764 65.4812 366.404C66.5038 365.044 67.5263 363.411 68.0376 361.507C68.2932 359.059 67.782 356.339 66.5038 354.162H71.1053C72.6391 356.066 73.406 358.515 73.1504 360.963C72.6391 362.323 71.8722 363.955 71.1053 365.044C69.5714 366.676 68.8045 368.852 69.0602 371.3C69.5714 372.933 70.3384 374.565 71.3609 376.197C72.6391 378.101 73.9173 379.733 73.406 381.366C73.1504 382.454 72.6391 383.27 72.3835 384.086C71.1053 386.262 70.594 388.983 70.594 391.703C70.594 392.247 71.1053 392.791 71.6165 392.791C72.1278 392.791 72.6391 392.247 72.6391 391.703C72.6391 389.527 73.1504 387.35 74.1729 385.174C74.6842 384.358 74.9399 383.27 75.4511 382.182C76.4737 379.461 74.6842 377.013 73.1504 374.837C72.1278 373.749 71.6165 372.389 71.1053 371.028C71.1053 369.396 71.8722 367.764 72.8947 366.676C73.9173 365.316 74.9399 363.683 75.4511 361.779C75.7068 359.331 75.1955 356.611 73.9173 354.434H78.5188C80.0526 356.339 80.8196 358.787 80.5639 361.235C80.0526 362.595 79.5414 364.228 78.5188 365.316C76.985 366.948 76.2181 369.124 76.4737 371.572C76.985 373.477 77.7519 375.109 78.7744 376.469C80.0526 378.373 81.3308 380.005 80.8195 381.638C80.3083 382.726 80.0526 383.542 79.797 384.358C78.5188 386.534 78.0075 389.255 78.0075 391.975C78.0075 392.519 78.5188 393.063 79.0301 393.063C79.5414 393.063 80.0526 392.519 80.0526 391.975C80.0526 389.799 80.5639 387.35 81.5865 385.446C82.0978 384.63 82.3534 383.542 82.8647 382.454C83.8872 379.733 82.0977 377.285 80.5639 375.109C79.5414 374.021 79.0301 372.661 78.5188 371.3C78.5188 369.668 79.2857 368.036 80.3083 366.948C81.3308 365.588 82.3534 363.955 82.8647 362.051C83.3759 359.603 82.609 356.883 81.3308 354.706C81.3308 353.618 87.7218 353.618 87.7218 353.618Z" fill="white"/>
<path d="M114.518 707.595C112.432 704.842 99.4299 688 81.131 688C65.2399 688 48.2251 702.575 48.2251 702.575C48.2251 702.575 41.8044 689.457 28.8026 688.162H28.4815C28.1605 688.162 28 688.324 28 688.648C28 688.81 28.1605 688.972 28.1605 689.134C29.7657 691.887 34.0996 699.984 34.0996 707.919C34.0996 715.854 30.0867 723.951 28.4815 726.866L28.321 727.028C28.321 727.19 28.1605 727.19 28.321 727.352C28.321 727.676 28.4815 727.838 28.8026 727.838H29.1236C42.1255 726.543 48.5461 713.425 48.5461 713.425C48.5461 713.425 65.5609 728 81.452 728C99.7509 728 112.753 711.32 114.839 708.567L115 708.405V708.243V708.081L114.518 707.595ZM91.4041 710.024C88.5148 710.024 86.107 707.595 86.107 704.68C86.107 701.765 88.5148 699.336 91.4041 699.336C94.2934 699.336 96.7011 701.765 96.7011 704.68C96.7011 707.595 94.4539 710.024 91.4041 710.024Z" fill="white" fill-opacity="0.25"/>
<path d="M471.673 674.289C470.258 672.422 461.441 661 449.031 661C438.255 661 426.716 670.884 426.716 670.884C426.716 670.884 422.362 661.988 413.544 661.11H413.327C413.109 661.11 413 661.22 413 661.439C413 661.549 413.109 661.659 413.109 661.769C414.197 663.636 417.137 669.127 417.137 674.508C417.137 679.89 414.415 685.381 413.327 687.358L413.218 687.467C413.218 687.577 413.109 687.577 413.218 687.687C413.218 687.907 413.327 688.017 413.544 688.017H413.762C422.579 687.138 426.934 678.242 426.934 678.242C426.934 678.242 438.472 688.126 449.249 688.126C461.659 688.126 470.476 676.815 471.891 674.948L472 674.838V674.728V674.618L471.673 674.289ZM455.998 675.936C454.039 675.936 452.406 674.289 452.406 672.312C452.406 670.335 454.039 668.688 455.998 668.688C457.958 668.688 459.59 670.335 459.59 672.312C459.59 674.289 458.066 675.936 455.998 675.936Z" fill="#003570"/>
<path d="M215.673 616.289C214.258 614.422 205.441 603 193.031 603C182.255 603 170.716 612.884 170.716 612.884C170.716 612.884 166.362 603.988 157.544 603.11H157.327C157.109 603.11 157 603.22 157 603.439C157 603.549 157.109 603.659 157.109 603.769C158.197 605.636 161.137 611.127 161.137 616.508C161.137 621.89 158.415 627.381 157.327 629.358L157.218 629.467C157.218 629.577 157.109 629.577 157.218 629.687C157.218 629.907 157.327 630.017 157.544 630.017H157.762C166.579 629.138 170.934 620.242 170.934 620.242C170.934 620.242 182.472 630.126 193.249 630.126C205.659 630.126 214.476 618.815 215.891 616.948L216 616.838V616.728V616.618L215.673 616.289ZM199.998 617.936C198.039 617.936 196.406 616.289 196.406 614.312C196.406 612.335 198.039 610.688 199.998 610.688C201.958 610.688 203.59 612.335 203.59 614.312C203.59 616.289 202.066 617.936 199.998 617.936Z" fill="#003570"/>
<path fill-rule="evenodd" clip-rule="evenodd" d="M14 170C21.732 170 28 163.732 28 156C28 148.268 21.732 142 14 142C6.26801 142 0 148.268 0 156C0 163.732 6.26801 170 14 170ZM12.1717 147.135C12.8329 146.936 13.2082 146.24 13.0098 145.578C12.8114 144.917 12.1146 144.542 11.4533 144.74C9.55758 145.309 7.95497 146.158 6.63929 147.386C5.32358 148.614 4.35228 150.167 3.64209 152.061C3.39969 152.707 3.7272 153.428 4.3736 153.67C5.02 153.913 5.74051 153.585 5.98291 152.939C6.58522 151.333 7.36392 150.13 8.34509 149.214C9.32628 148.298 10.5674 147.616 12.1717 147.135Z" fill="white"/>
<path fill-rule="evenodd" clip-rule="evenodd" d="M443 32C451.837 32 459 24.8366 459 16C459 7.16344 451.837 0 443 0C434.163 0 427 7.16344 427 16C427 24.8366 434.163 32 443 32ZM440.859 5.69728C441.52 5.49891 441.896 4.80206 441.697 4.14082C441.499 3.47957 440.802 3.10434 440.141 3.30272C437.995 3.94644 436.189 4.90509 434.71 6.28618C433.23 7.6673 432.134 9.41724 431.33 11.5611C431.087 12.2075 431.415 12.928 432.061 13.1704C432.707 13.4128 433.428 13.0853 433.67 12.4389C434.366 10.5828 435.27 9.1827 436.415 8.11382C437.561 7.04491 439.005 6.25356 440.859 5.69728Z" fill="white"/>
<path d="M215.518 91.5951C213.432 88.8421 200.43 72 182.131 72C166.24 72 149.225 86.5749 149.225 86.5749C149.225 86.5749 142.804 73.4575 129.803 72.162H129.482C129.161 72.162 129 72.3239 129 72.6478C129 72.8097 129.161 72.9717 129.161 73.1336C130.766 75.8866 135.1 83.9838 135.1 91.919C135.1 99.8543 131.087 107.951 129.482 110.866L129.321 111.028C129.321 111.19 129.161 111.19 129.321 111.352C129.321 111.676 129.482 111.838 129.803 111.838H130.124C143.125 110.543 149.546 97.4251 149.546 97.4251C149.546 97.4251 166.561 112 182.452 112C200.751 112 213.753 95.3198 215.839 92.5668L216 92.4049V92.2429V92.081L215.518 91.5951ZM192.404 94.0243C189.515 94.0243 187.107 91.5951 187.107 88.6802C187.107 85.7652 189.515 83.336 192.404 83.336C195.293 83.336 197.701 85.7652 197.701 88.6802C197.701 91.5951 195.454 94.0243 192.404 94.0243Z" fill="white" fill-opacity="0.25"/>
<path d="M534.518 220.595C532.432 217.842 519.43 201 501.131 201C485.24 201 468.225 215.575 468.225 215.575C468.225 215.575 461.804 202.457 448.803 201.162H448.482C448.161 201.162 448 201.324 448 201.648C448 201.81 448.161 201.972 448.161 202.134C449.766 204.887 454.1 212.984 454.1 220.919C454.1 228.854 450.087 236.951 448.482 239.866L448.321 240.028C448.321 240.19 448.161 240.19 448.321 240.352C448.321 240.676 448.482 240.838 448.803 240.838H449.124C462.125 239.543 468.546 226.425 468.546 226.425C468.546 226.425 485.561 241 501.452 241C519.751 241 532.753 224.32 534.839 221.567L535 221.405V221.243V221.081L534.518 220.595ZM511.404 223.024C508.515 223.024 506.107 220.595 506.107 217.68C506.107 214.765 508.515 212.336 511.404 212.336C514.293 212.336 516.701 214.765 516.701 217.68C516.701 220.595 514.454 223.024 511.404 223.024Z" fill="white" fill-opacity="0.25"/>
<path d="M131.518 727.595C129.432 724.842 116.43 708 98.131 708C82.2399 708 65.2251 722.575 65.2251 722.575C65.2251 722.575 58.8044 709.457 45.8026 708.162H45.4815C45.1605 708.162 45 708.324 45 708.648C45 708.81 45.1605 708.972 45.1605 709.134C46.7657 711.887 51.0996 719.984 51.0996 727.919C51.0996 735.854 47.0867 743.951 45.4815 746.866L45.321 747.028C45.321 747.19 45.1605 747.19 45.321 747.352C45.321 747.676 45.4815 747.838 45.8026 747.838H46.1236C59.1255 746.543 65.5461 733.425 65.5461 733.425C65.5461 733.425 82.5609 748 98.452 748C116.751 748 129.753 731.32 131.839 728.567L132 728.405V728.243V728.081L131.518 727.595ZM108.404 730.024C105.515 730.024 103.107 727.595 103.107 724.68C103.107 721.765 105.515 719.336 108.404 719.336C111.293 719.336 113.701 721.765 113.701 724.68C113.701 727.595 111.454 730.024 108.404 730.024Z" fill="white"/>
<path d="M558.518 602.595C556.432 599.842 543.43 583 525.131 583C509.24 583 492.225 597.575 492.225 597.575C492.225 597.575 485.804 584.457 472.803 583.162H472.482C472.161 583.162 472 583.324 472 583.648C472 583.81 472.161 583.972 472.161 584.134C473.766 586.887 478.1 594.984 478.1 602.919C478.1 610.854 474.087 618.951 472.482 621.866L472.321 622.028C472.321 622.19 472.161 622.19 472.321 622.352C472.321 622.676 472.482 622.838 472.803 622.838H473.124C486.125 621.543 492.546 608.425 492.546 608.425C492.546 608.425 509.561 623 525.452 623C543.751 623 556.753 606.32 558.839 603.567L559 603.405V603.243V603.081L558.518 602.595ZM535.404 605.024C532.515 605.024 530.107 602.595 530.107 599.68C530.107 596.765 532.515 594.336 535.404 594.336C538.293 594.336 540.701 596.765 540.701 599.68C540.701 602.595 538.454 605.024 535.404 605.024Z" fill="white"/>
<path d="M533.12 402.751C534.248 402.751 535 401.95 535 401.148V399.546C535 399.145 535 398.344 535 397.943C534.624 383.12 522.97 371.902 509.06 372.303C495.902 372.704 485.752 383.921 485 397.943C485 398.344 485 399.145 485 399.546V400.748C485 401.95 486.128 403.152 487.256 403.152H497.406C499.662 405.956 500.789 409.562 500.414 413.167C499.662 415.171 498.534 417.174 497.406 419.177C495.15 421.581 494.023 424.786 494.398 428.391C495.15 431.196 496.278 433.6 498.158 435.603C500.038 438.407 501.917 440.811 501.165 443.215C500.789 444.817 500.038 446.019 499.662 447.221C497.782 450.426 497.03 454.432 497.03 458.439C497.03 459.24 497.782 460.041 498.534 460.041C499.286 460.041 500.038 459.24 500.038 458.439C500.038 455.234 500.789 451.628 502.293 448.824C503.045 447.622 503.421 446.019 504.173 444.417C505.677 440.41 503.045 436.805 500.789 433.6C499.286 431.997 498.534 429.994 497.782 427.991C497.406 425.587 498.91 423.584 500.414 421.581C501.917 419.577 503.421 417.174 504.173 414.369C504.549 410.764 503.797 406.757 501.917 403.552H508.684C510.94 406.357 512.068 409.962 511.692 413.568C510.94 415.571 509.812 417.975 508.684 419.577C506.429 421.981 505.301 425.186 505.677 428.792C506.429 431.196 507.556 433.6 509.06 436.003C510.94 438.808 512.82 441.212 512.068 443.615C511.692 445.218 510.94 446.42 510.564 447.622C508.684 450.827 507.932 454.833 507.932 458.839C507.932 459.641 508.684 460.442 509.436 460.442C510.188 460.442 510.94 459.641 510.94 458.839C510.94 455.634 511.692 452.429 513.195 449.224C513.947 448.022 514.323 446.42 515.075 444.817C516.579 440.811 513.947 437.205 511.692 434C510.188 432.398 509.436 430.395 508.684 428.391C508.684 425.988 509.812 423.584 511.316 421.981C512.82 419.978 514.323 417.574 515.075 414.77C515.451 411.164 514.699 407.158 512.82 403.953H519.586C521.842 406.757 522.97 410.363 522.594 413.969C521.842 415.972 521.09 418.376 519.586 419.978C517.331 422.382 516.203 425.587 516.579 429.193C517.331 431.997 518.459 434.401 519.962 436.404C521.842 439.208 523.722 441.612 522.97 444.016C522.218 445.619 521.842 446.82 521.466 448.022C519.586 451.227 518.835 455.234 518.835 459.24C518.835 460.041 519.586 460.843 520.338 460.843C521.09 460.843 521.842 460.041 521.842 459.24C521.842 456.035 522.594 452.429 524.098 449.625C524.85 448.423 525.226 446.82 525.977 445.218C527.481 441.212 524.85 437.606 522.594 434.401C521.09 432.798 520.338 430.795 519.586 428.792C519.586 426.388 520.714 423.984 522.218 422.382C523.722 420.379 525.226 417.975 525.977 415.171C526.729 411.565 525.602 407.558 523.722 404.353C523.722 402.751 533.12 402.751 533.12 402.751Z" fill="white"/>
</svg>
