<svg width="586" height="876" viewBox="0 0 586 876" fill="none" xmlns="http://www.w3.org/2000/svg">
<path d="M432.505 785.426H449.713C453.708 788.192 458.01 790.957 460.468 792.494C464.771 794.952 467.843 797.41 471.224 799.869L467.229 872.082V872.389C467.229 872.389 467.229 872.389 467.229 872.696C467.229 873.004 467.536 873.311 467.843 873.311H488.739C489.046 873.311 489.354 873.004 489.354 872.389L485.666 798.64C488.432 797.41 491.505 796.489 494.27 795.259C497.036 794.03 500.109 792.801 502.874 791.265C504.411 790.343 506.255 789.728 507.791 788.806H518.239C520.083 789.114 521.926 788.192 522.234 786.348C522.541 784.504 521.619 782.661 519.775 782.353C519.161 782.353 518.853 782.353 518.239 782.353H516.395C516.395 781.739 516.088 781.124 515.473 780.817C513.322 779.895 511.171 779.588 508.713 780.202C508.406 779.588 508.098 779.28 507.791 778.973C505.947 777.129 498.88 776.822 495.192 778.973C493.963 779.588 493.041 780.817 493.041 782.353C491.197 782.046 489.354 782.968 489.046 784.812C488.739 786.655 489.661 788.499 491.505 788.806C492.119 788.806 492.427 788.806 493.041 788.806H499.187C497.036 789.421 494.578 789.728 492.427 790.343C489.354 791.265 486.281 791.879 483.208 793.108L478.291 782.046L492.734 771.598H506.869C509.942 771.598 512.4 769.14 512.4 766.067C512.4 762.994 509.942 760.536 506.869 760.536H501.645C501.338 759.614 500.723 758.692 500.109 758.077C498.265 756.541 493.041 755.926 488.739 756.541C488.432 755.926 487.817 755.312 487.203 755.005C484.437 752.546 474.911 752.239 469.994 754.697C467.536 755.312 466.307 758.077 467.229 760.228H462.619C459.547 760.228 457.088 762.687 457.088 765.76C457.088 768.833 459.547 771.291 462.619 771.291H471.838L477.677 794.952L476.447 795.259C472.453 792.801 468.458 790.957 464.156 788.806C462.005 787.884 459.854 786.655 457.396 785.426H466C469.073 785.426 471.531 783.582 471.531 781.739C471.531 779.895 469.073 778.051 466 778.051H463.234C462.927 777.129 462.312 776.208 461.698 775.286C459.239 773.135 450.635 772.827 446.333 774.978C445.104 775.593 444.182 776.515 443.875 777.744H432.812C429.74 777.744 427.281 779.588 427.281 781.431C427.281 783.275 429.432 785.426 432.505 785.426ZM486.895 771.598L475.833 777.129L473.375 771.291L486.895 771.598Z" fill="white"/>
<path fill-rule="evenodd" clip-rule="evenodd" d="M531.341 761.699C531.341 762.312 531.341 763.233 531.648 763.846C528.579 764.767 525.818 766.301 523.363 768.449C521.829 769.062 520.602 770.597 520.602 772.438H532.261L541.773 823.372C541.159 825.52 541.466 827.974 542.08 830.122L551.898 873.692C554.353 874.613 554.967 873.692 554.967 873.692L551.285 852.521C549.137 836.872 552.512 835.645 552.512 835.645H566.626C569.695 841.782 573.684 847.612 578.593 852.521L582.582 873.692C585.036 874.613 585.343 873.692 585.343 873.692L577.672 830.122L581.354 840.554L583.809 847.305C583.809 847.305 582.275 851.294 585.343 852.214L583.195 840.861L580.127 831.963C580.127 831.963 579.82 827.668 573.377 823.679L552.205 811.099L537.477 766.915C537.477 766.915 540.239 763.54 538.705 763.233C537.477 763.233 536.25 763.233 535.33 763.846H533.182C533.182 762.926 532.875 762.005 532.568 761.392C532.875 761.085 532.875 760.778 532.875 760.471V760.471C532.875 759.551 532.261 758.937 531.341 758.937C530.42 758.937 529.807 759.551 529.807 760.471L529.807 760.471C530.113 760.778 530.727 761.392 531.341 761.699ZM543.174 874.704C543.174 874.704 542.527 875.674 539.94 874.704L541.557 843.659L544.144 853.361L543.174 874.704ZM575.255 854.116L574.22 872.226C574.22 872.226 573.961 873.002 571.892 872.226L572.927 851.271L575.255 854.116ZM529.847 767.142C530.311 767.142 530.688 766.766 530.688 766.302C530.688 765.837 530.311 765.461 529.847 765.461C529.383 765.461 529.006 765.837 529.006 766.302C529.006 766.766 529.383 767.142 529.847 767.142Z" fill="white"/>
<path fill-rule="evenodd" clip-rule="evenodd" d="M339.358 830.425C339.668 825.166 341.833 820.217 345.545 816.196C350.185 810.937 356.681 807.844 363.487 807.534C373.076 806.916 385.45 806.916 385.45 806.916C385.45 806.916 387.615 806.607 387.925 809.39C388.543 816.196 390.09 822.692 392.255 829.187C392.986 831.136 396.401 831.934 398.123 832.336C398.588 832.444 398.929 832.524 399.061 832.59C399.061 832.59 393.493 829.497 392.874 827.641C391.637 821.764 391.018 815.577 391.018 809.39C391.637 803.204 391.637 802.895 391.637 802.895C391.637 802.895 391.637 801.348 394.421 801.348H407.413C407.413 801.348 408.65 801.039 408.96 802.895C409.003 803.155 409.034 803.392 409.063 803.607C409.237 804.924 409.307 805.456 411.434 805.988C414.837 806.297 418.24 807.535 421.024 809.7C424.427 814.649 426.283 820.526 426.283 826.713V827.331C426.592 831.353 426.283 835.683 425.355 839.705C421.952 839.395 418.549 838.467 415.456 836.611C413.29 835.374 412.053 838.467 412.053 838.467C411.898 838.777 411.744 839.163 411.589 839.55C411.434 839.937 411.28 840.323 411.125 840.633C410.816 840.942 410.816 841.56 411.125 841.87C411.125 841.87 412.053 842.179 411.744 842.798C411.434 843.416 410.816 844.035 409.888 844.035C408.65 844.344 404.938 849.603 404.938 849.603C404.938 850.531 404.32 858.883 404.32 858.883L402.464 870.637C402.464 870.637 406.176 873.421 399.989 873.421H393.493C393.493 873.421 390.709 873.421 390.709 871.565L391.018 859.811L389.162 850.531C382.975 854.862 363.177 853.934 363.177 853.934C362.249 854.243 361.631 854.862 361.012 855.48L359.156 862.285L358.537 869.709C358.537 869.709 362.559 873.731 356.991 873.731H350.804C350.804 873.731 347.71 874.04 348.329 871.875C348.851 870.137 347.614 863.419 346.431 856.989C345.508 851.973 344.617 847.132 344.617 844.963C344.617 840.014 344.308 832.59 343.998 830.425C343.954 830.691 343.91 830.956 343.865 831.219C343.294 834.627 342.761 837.806 342.761 841.251L342.761 841.252C342.452 845.273 342.142 849.294 342.142 853.315C342.142 853.315 341.833 856.718 341.524 854.552C339.358 846.819 338.43 838.777 339.358 830.425ZM416.075 839.395C421.333 841.56 431.232 845.272 439.275 843.726C450.721 841.56 438.038 845.582 438.038 845.582C434.016 846.509 429.686 846.509 425.664 845.891C425.23 852.405 424.186 859.377 423.602 863.274L423.602 863.275C423.354 864.929 423.189 866.03 423.189 866.306C423.189 866.306 423.189 867.544 422.571 867.544L421.333 867.853C421.333 867.853 421.024 867.853 421.024 867.234C421.333 861.357 421.024 855.789 420.405 849.912C419.787 847.747 419.168 845.891 417.931 844.035C417.312 843.726 416.616 843.494 415.92 843.262C415.224 843.03 414.528 842.798 413.909 842.488L414.219 841.251C415.456 838.776 416.075 839.395 416.075 839.395ZM413.826 820.95C414.754 820.95 415.507 820.198 415.507 819.269C415.507 818.34 414.754 817.587 413.826 817.587C412.897 817.587 412.144 818.34 412.144 819.269C412.144 820.198 412.897 820.95 413.826 820.95Z" fill="white"/>
<path d="M65.6377 838.319H65.6449C69.5666 839.277 71.991 833.464 71.991 833.464L65.1687 832.594H50.8093L43.9843 833.464C43.9843 833.464 46.4078 839.276 50.3277 838.319V846.041C50.3277 849.483 53.147 852.303 56.5925 852.303H59.3756C62.822 852.303 65.6377 849.483 65.6377 846.041V838.319ZM79.8696 832.238C82.7521 834.923 84.5539 838.753 84.5539 843.005C84.5539 849.276 80.6322 854.631 75.1075 856.752C73.7593 860.023 71.2645 862.707 68.1226 864.288V873.496C68.1226 874.752 67.1015 875.773 65.8401 875.773C64.5786 875.773 63.5557 874.752 63.5557 873.489V865.718C62.8807 865.813 62.1913 865.862 61.491 865.862C57.75 865.862 54.3343 864.464 51.741 862.162V873.497C51.741 874.758 50.7199 875.781 49.4639 875.781C48.2078 875.781 47.1777 874.76 47.1777 873.499V861.155C46.6175 861.219 46.0482 861.255 45.4699 861.255C37.3374 861.255 30.75 854.663 30.75 846.535C30.75 842.225 32.6024 838.345 35.5545 835.655C35.0033 834.11 34.7051 832.448 34.7051 830.715C34.6979 822.59 41.2852 816 49.4151 816C52.3247 816 55.0401 816.845 57.3244 818.304C59.606 816.845 62.3214 816 65.231 816C73.3599 816 79.9509 822.59 79.9509 830.72C79.9509 831.232 79.9238 831.738 79.8732 832.238H79.8696Z" fill="white"/>
<path fill-rule="evenodd" clip-rule="evenodd" d="M54.5494 842.351C54.5494 842.984 54.0361 843.499 53.4018 843.499C52.7693 843.499 52.2578 842.984 52.2578 842.351C52.2578 841.718 52.7702 841.207 53.4018 841.207C54.0361 841.207 54.5494 841.719 54.5494 842.351Z" fill="white"/>
<path fill-rule="evenodd" clip-rule="evenodd" d="M63.7134 842.351C63.7134 842.984 63.2011 843.499 62.5695 843.499C61.9351 843.499 61.4219 842.984 61.4219 842.351C61.4219 841.718 61.9351 841.207 62.5695 841.207C63.202 841.207 63.7134 841.719 63.7134 842.351Z" fill="white"/>
<path fill-rule="evenodd" clip-rule="evenodd" d="M23.8735 849.434C23.8762 849.434 23.878 849.434 23.8807 849.435C26.5617 850.095 28.2181 846.117 28.2181 846.117L23.55 845.521H13.7304L9.06235 846.117C9.06235 846.117 10.716 850.093 13.3997 849.435V854.716C13.3997 857.074 15.3244 859.002 17.6828 859.002H19.5895C21.9389 859.002 23.8726 857.068 23.8726 854.71L23.8735 849.434ZM22.4503 868.184C21.9895 868.247 21.5178 868.281 21.0389 868.281C18.4771 868.281 16.1395 867.325 14.363 865.751V873.504C14.363 874.367 13.6645 875.067 12.8024 875.067C11.9395 875.067 11.241 874.367 11.241 873.504V865.059C10.856 865.104 10.4639 865.126 10.0681 865.126C4.50904 865.126 0 860.617 0 855.058C0 852.11 1.26687 849.458 3.28645 847.616C2.91054 846.559 2.70542 845.421 2.70542 844.237C2.70542 838.671 7.21084 834.162 12.7735 834.162C14.7642 834.162 16.6202 834.74 18.1825 835.734C19.7458 834.733 21.6018 834.154 23.5934 834.154C29.1533 834.154 33.6614 838.663 33.6614 844.222C33.6614 844.57 33.6434 844.918 33.6072 845.262C35.5798 847.096 36.8133 849.716 36.8133 852.626C36.8133 856.913 34.1295 860.578 30.3524 862.026C29.4307 864.267 27.7229 866.102 25.5723 867.186V873.486C25.5723 874.344 24.8738 875.044 24.0117 875.044C23.1497 875.044 22.4503 874.344 22.4503 873.481V868.158V868.184Z" fill="white"/>
<path fill-rule="evenodd" clip-rule="evenodd" d="M16.2883 852.195C16.2883 852.629 15.9386 852.978 15.5049 852.978C15.0712 852.978 14.7188 852.629 14.7188 852.195C14.7188 851.761 15.0621 851.412 15.4959 851.412C15.9296 851.412 16.273 851.755 16.273 852.189" fill="white"/>
<path fill-rule="evenodd" clip-rule="evenodd" d="M22.5618 852.195C22.5618 852.629 22.2121 852.978 21.7783 852.978C21.3446 852.978 20.9922 852.629 20.9922 852.195C20.9922 851.761 21.3356 851.412 21.7693 851.412C22.203 851.412 22.5464 851.755 22.5464 852.189" fill="white"/>
<path d="M160.518 857.348V871.571C160.518 871.797 160.743 872.023 160.969 872.023H167.291C167.517 872.023 167.742 871.797 167.742 871.571V857.122C177.902 855.09 185.126 845.834 184.675 835.674C184.675 823.257 175.418 802.712 163.904 801.809H163.001C154.196 801.809 146.746 813.775 143.585 825.063C142.456 828.45 142.005 832.062 142.005 835.674C141.779 846.511 149.681 855.767 160.518 857.348Z" fill="#105702"/>
<path d="M151.05 856.293C158.726 856.293 164.822 850.198 164.822 842.521C164.822 838.909 163.467 835.523 160.984 833.039C167.079 829.427 169.337 821.525 165.725 815.429C163.467 811.366 159.178 808.882 154.436 808.882H153.533C152.63 799.174 144.277 792.175 134.569 793.078C125.538 793.981 118.765 801.432 118.539 810.462C118.539 813.172 119.217 815.655 120.345 818.139C109.734 820.396 103.187 831.007 105.445 841.393C107.477 850.198 115.379 856.745 124.409 856.745H130.279V872.548C130.279 872.774 130.505 873 130.731 873H137.955C138.181 873 138.407 872.774 138.407 872.548V856.519L151.05 856.293Z" fill="white"/>
<path d="M556.779 230.998C556.84 230.312 556.874 229.681 556.874 229.009C556.874 225.49 555.958 222.031 554.216 218.975C552.475 215.919 549.968 213.371 546.942 211.582C543.917 209.792 540.478 208.824 536.965 208.773C533.453 208.721 529.987 209.588 526.911 211.288C524.48 206.274 520.732 202.018 516.069 198.976C511.406 195.933 506.004 194.22 500.443 194.02C494.882 193.82 489.371 195.14 484.502 197.839C479.633 200.538 475.59 204.514 472.806 209.34C470.692 207.318 468.201 205.732 465.476 204.674C462.751 203.615 459.844 203.105 456.922 203.171C453.999 203.238 451.119 203.881 448.445 205.063C445.77 206.245 443.354 207.943 441.335 210.06C439.316 212.178 437.733 214.672 436.677 217.402C435.62 220.132 435.111 223.044 435.177 225.971C435.244 228.899 435.886 231.784 437.066 234.463C438.246 237.142 439.941 239.561 442.055 241.584C438.676 242.566 435.579 244.336 433.015 246.749C430.452 249.163 428.496 252.15 427.308 255.467C426.12 258.783 425.733 262.335 426.18 265.83C426.627 269.325 427.895 272.664 429.879 275.574C431.864 278.483 434.508 280.88 437.596 282.568C440.683 284.256 444.127 285.187 447.643 285.285C451.159 285.382 454.649 284.643 457.825 283.129C461.001 281.614 463.774 279.367 465.916 276.572C468.626 279.317 472.238 280.984 476.082 281.264C479.925 281.544 483.74 280.418 486.818 278.095C487.367 282.183 489.275 285.967 492.235 288.836C495.195 291.705 499.033 293.491 503.13 293.907C507.228 294.322 511.345 293.343 514.819 291.126C518.292 288.91 520.919 285.585 522.275 281.69C525.592 284.12 529.363 285.856 533.364 286.795C537.366 287.735 541.515 287.859 545.565 287.159C549.615 286.46 553.483 284.951 556.939 282.724C560.395 280.496 563.368 277.595 565.682 274.193C567.996 270.791 569.603 266.957 570.407 262.92C571.212 258.883 571.197 254.725 570.365 250.694C569.532 246.662 567.898 242.84 565.56 239.454C563.223 236.068 560.229 233.188 556.758 230.985L556.779 230.998Z" fill="black" fill-opacity="0.15"/>
<path d="M460.448 67.5305C456.087 64.3789 450.932 62.4091 445.778 62.0151C440.623 62.0151 435.865 63.9849 432.296 67.5305C431.503 68.3184 430.314 70.2881 431.503 71.076C432.693 71.8639 433.486 71.076 434.675 70.2881C436.658 69.1063 439.037 68.7123 441.416 69.1063C448.157 69.1063 454.104 71.8639 458.862 76.1974C459.259 76.5913 459.655 76.5913 460.448 76.9853C461.241 76.9853 462.034 76.1974 462.034 76.1974C466.792 71.47 473.137 69.1063 479.481 69.1063C481.86 69.1063 484.239 69.5002 486.221 70.6821C487.014 71.47 488.204 71.47 489.393 71.076C490.583 70.2881 489.79 68.7123 488.997 67.9244C485.428 63.9849 480.274 62.0151 475.119 62.0151C469.568 62.4091 464.413 64.3789 460.448 67.5305Z" fill="white"/>
<path d="M364.498 30.7772C366.277 29.4537 368.501 29.0125 370.726 29.0125C376.954 28.5713 382.737 30.7772 387.186 34.7478C387.631 35.189 388.075 35.189 388.52 35.189C388.965 35.189 389.41 34.7478 389.855 34.3066C393.859 29.8948 399.642 27.2478 405.425 26.8066C407.649 26.3654 409.874 26.8066 411.653 27.689C412.543 28.1301 413.433 28.5713 414.322 28.1302C415.212 27.2478 414.322 25.9243 413.878 25.0419C410.319 21.9537 405.87 20.189 400.977 20.189C396.083 20.6301 391.19 22.836 387.631 25.9243C383.627 22.836 378.733 21.5125 373.84 21.5125C369.391 21.5125 364.943 23.7184 361.829 27.2478C360.939 28.1301 360.049 29.8948 361.384 30.7772C362.718 31.6596 363.608 31.2184 364.498 30.7772Z" fill="white"/>
<path d="M258.518 3.23219C257.152 2.89854 255.785 3.2322 254.761 3.56584C251.345 4.56678 248.27 6.9023 246.562 10.2387C246.562 10.5724 246.221 10.5724 245.879 10.906C245.538 10.906 245.196 10.906 244.855 10.906C241.78 9.2378 237.681 8.90417 234.265 9.57146C232.899 9.9051 231.874 10.5724 230.849 11.2397C230.508 11.5733 229.825 11.907 229.483 11.907C229.141 11.907 228.8 10.5724 229.141 10.2387C230.508 7.56959 232.557 5.56771 235.632 4.90042C238.706 4.23312 241.78 4.56677 244.513 5.56771C246.221 3.23219 248.612 1.23032 251.686 0.563027C254.419 -0.437909 257.152 -0.104266 259.884 1.56396C260.568 1.89761 261.251 2.5649 260.909 3.23219C260.568 3.89948 259.201 3.56583 258.518 3.23219Z" fill="#105702" fill-opacity="0.33"/>
<path d="M463.482 15.2322C464.848 14.8985 466.215 15.2322 467.239 15.5658C470.655 16.5668 473.73 18.9023 475.438 22.2387C475.438 22.5724 475.779 22.5724 476.121 22.906C476.462 22.906 476.804 22.906 477.145 22.906C480.22 21.2378 484.319 20.9042 487.735 21.5715C489.101 21.9051 490.126 22.5724 491.151 23.2397C491.492 23.5733 492.175 23.907 492.517 23.907C492.859 23.907 493.2 22.5724 492.859 22.2387C491.492 19.5696 489.443 17.5677 486.368 16.9004C483.294 16.2331 480.22 16.5668 477.487 17.5677C475.779 15.2322 473.388 13.2303 470.314 12.563C467.581 11.5621 464.848 11.8957 462.116 13.564C461.432 13.8976 460.749 14.5649 461.091 15.2322C461.432 15.8995 462.799 15.5658 463.482 15.2322Z" fill="#105702" fill-opacity="0.33"/>
<circle cx="534" cy="616" r="16" fill="black" fill-opacity="0.33"/>
<ellipse cx="105" cy="580" rx="25" ry="26" fill="white" fill-opacity="0.25"/>
<circle cx="12" cy="542" r="12" fill="white" fill-opacity="0.25"/>
<circle cx="530" cy="135" r="20" fill="white" fill-opacity="0.5"/>
<circle cx="167" cy="147" r="12" fill="white" fill-opacity="0.25"/>
</svg>
