<svg width="568" height="175" viewBox="0 0 568 175" fill="none" xmlns="http://www.w3.org/2000/svg">
<path d="M338.86 154.695C337.579 153.014 335.656 152.034 333.734 151.754C333.991 149.652 334.375 147.691 334.888 145.73C335.4 144.329 336.169 143.068 337.322 142.088L335.4 141.948C333.863 143.629 332.837 145.87 332.581 148.251V135.924L330.915 135.644V146.15C330.531 144.609 330.018 142.928 329.378 141.387C328.993 140.407 328.481 139.566 327.84 138.866L326.174 139.006C327.327 140.827 328.353 142.928 328.865 145.17C329.378 147.271 329.634 149.372 329.506 151.613C327.584 151.754 325.79 152.734 324.508 154.275C322.202 157.077 323.227 161.699 323.227 161.699C323.227 161.699 323.355 162.12 323.483 163.1H330.787C331.043 163.1 331.172 163.24 331.172 163.52V164.221C331.172 164.501 331.043 164.641 330.787 164.641H323.74C324.124 166.462 324.508 169.124 325.149 172.206H330.659C330.915 172.206 331.043 172.346 331.043 172.626V173.326C331.043 173.606 330.915 173.746 330.659 173.746H325.405L326.815 181.311H330.659C330.915 181.311 331.043 181.451 331.043 181.731V182.432C331.043 182.572 330.915 182.852 330.659 182.852H327.071C328.481 190.977 329.89 198.401 329.89 198.821C330.018 199.802 330.659 202.323 331.556 202.323C332.709 202.323 333.094 199.522 333.094 199.522L339.885 162.54C339.885 162.54 341.166 157.777 338.86 154.695Z" fill="white"/>
<path d="M389.336 154.695C388.055 153.014 386.133 152.034 384.211 151.754C384.467 149.652 384.852 147.691 385.364 145.73C385.877 144.329 386.646 143.068 387.799 142.088L385.877 141.948C384.339 143.629 383.314 145.87 383.058 148.251V135.924L381.392 135.644V146.15C381.007 144.609 380.495 142.928 379.854 141.387C379.47 140.407 378.957 139.566 378.317 138.866L376.651 139.006C377.804 140.827 378.829 142.928 379.342 145.17C379.854 147.271 380.11 149.372 379.982 151.613C378.06 151.754 376.266 152.734 374.985 154.275C372.678 157.077 373.704 161.699 373.704 161.699C373.704 161.699 373.832 162.12 373.96 163.1H381.264C381.52 163.1 381.648 163.24 381.648 163.52V164.221C381.648 164.501 381.52 164.641 381.264 164.641H374.216C374.601 166.462 374.985 169.124 375.626 172.206H381.136C381.392 172.206 381.52 172.346 381.52 172.626V173.326C381.52 173.606 381.392 173.746 381.136 173.746H375.882L377.291 181.311H381.136C381.392 181.311 381.52 181.451 381.52 181.731V182.432C381.52 182.572 381.392 182.852 381.136 182.852H377.548C378.957 190.977 380.367 198.401 380.367 198.821C380.495 199.802 381.136 202.323 382.033 202.323C383.186 202.323 383.57 199.522 383.57 199.522L390.362 162.54C390.362 162.54 391.643 157.777 389.336 154.695Z" fill="white"/>
<path d="M364.098 154.695C362.817 153.014 360.895 152.034 358.973 151.754C359.229 149.652 359.613 147.691 360.126 145.73C360.638 144.329 361.407 143.068 362.561 142.088L360.638 141.948C359.101 143.629 358.076 145.87 357.819 148.251V135.924L356.154 135.644V146.15C355.769 144.609 355.257 142.928 354.616 141.387C354.232 140.407 353.719 139.566 353.078 138.866L351.412 139.006C352.566 140.827 353.591 142.928 354.103 145.17C354.616 147.271 354.872 149.372 354.744 151.613C352.822 151.754 351.028 152.734 349.747 154.275C347.44 157.077 348.465 161.699 348.465 161.699C348.465 161.699 348.593 162.12 348.722 163.1H356.025C356.282 163.1 356.41 163.24 356.41 163.52V164.221C356.41 164.501 356.282 164.641 356.025 164.641H348.978C349.362 166.462 349.747 169.124 350.387 172.206H355.897C356.154 172.206 356.282 172.346 356.282 172.626V173.326C356.282 173.606 356.154 173.746 355.897 173.746H350.644L352.053 181.311H355.897C356.154 181.311 356.282 181.451 356.282 181.731V182.432C356.282 182.572 356.154 182.852 355.897 182.852H352.309C353.719 190.977 355.128 198.401 355.128 198.821C355.257 199.802 355.897 202.323 356.794 202.323C357.948 202.323 358.332 199.522 358.332 199.522L365.123 162.54C365.123 162.54 366.405 157.777 364.098 154.695Z" fill="white"/>
<path d="M434.69 77.3023C436.962 77.3023 438.524 75.2842 437.956 71.0926C437.388 67.9877 436.252 65.0381 434.548 62.3989C434.548 62.3989 431.565 68.6087 431.423 71.7136C431.281 74.8184 431.991 77.3023 434.69 77.3023Z" fill="white"/>
<path d="M436.391 79.1652C434.829 81.8043 434.119 84.4435 436.391 85.8407C437.812 86.7721 440.652 85.2197 442.072 81.3386C443.066 78.5442 443.492 75.4393 443.35 72.3345C443.35 72.4897 437.954 76.5261 436.391 79.1652Z" fill="white"/>
<path d="M436.391 90.6559C434.829 93.2951 434.119 95.9342 436.391 97.3314C437.812 98.2629 440.652 96.7104 442.072 92.8293C443.066 90.035 443.492 86.9301 443.35 83.8252C443.35 83.9804 437.954 88.0168 436.391 90.6559Z" fill="white"/>
<path d="M436.528 101.833C434.966 104.472 434.256 107.111 436.528 108.509C437.948 109.44 440.789 107.888 442.209 104.007C443.203 101.212 443.629 98.1073 443.487 95.0024C443.487 95.0024 438.09 99.194 436.528 101.833Z" fill="white"/>
<path d="M436.528 113.318C434.966 115.957 434.256 118.596 436.528 119.993C437.948 120.924 440.789 119.372 442.209 115.491C443.203 112.541 443.629 109.592 443.487 106.487C443.487 106.487 438.09 110.678 436.528 113.318Z" fill="white"/>
<path d="M433.264 85.8427C435.537 84.2902 434.827 81.6511 433.264 79.1672C431.702 76.6833 426.163 72.4917 426.163 72.4917C426.021 75.5966 426.447 78.5462 427.442 81.4958C428.862 85.2217 431.702 86.9294 433.264 85.8427Z" fill="white"/>
<path d="M433.264 97.3285C435.537 95.7761 434.827 93.1369 433.264 90.653C431.702 88.1691 426.163 83.9775 426.163 83.9775C426.021 87.0824 426.447 90.032 427.442 92.9817C428.862 96.7075 431.702 98.26 433.264 97.3285Z" fill="white"/>
<path d="M433.123 108.507C435.395 106.955 434.685 104.316 433.123 101.832C431.561 99.3478 426.022 95.1562 426.022 95.1562C425.88 98.2611 426.448 101.211 427.3 104.16C428.72 107.886 431.561 109.439 433.123 108.507Z" fill="white"/>
<path d="M433.121 119.995C435.393 118.443 434.683 115.803 433.121 113.32C431.558 110.836 426.02 106.644 426.02 106.644C426.02 109.749 426.446 112.699 427.44 115.648C428.718 119.374 431.558 120.926 433.121 119.995Z" fill="white"/>
<path d="M442.502 119.533C442.502 119.533 439.519 140.025 436.253 157.257V124.035H433.412V157.412C430.146 140.335 427.163 119.533 427.163 119.533C426.311 135.212 428.442 150.892 433.412 165.485V174.334H436.253V165.485C441.365 150.892 443.496 135.212 442.502 119.533Z" fill="white"/>
<path d="M469.965 150.943H467.402V167.753L465.48 161.449C465.095 160.188 463.814 159.488 462.789 159.908C462.404 160.048 462.148 160.188 461.892 160.468L451 172.936L462.789 167.473L467.53 177.839V185.263H470.093L469.965 150.943Z" fill="#774804"/>
<path d="M465.866 106.676H467.147C467.66 106.676 468.044 107.097 468.044 107.657V108.357C468.044 108.918 467.66 109.338 467.147 109.338H465.866C465.354 109.338 464.969 108.918 464.969 108.357V107.657C464.841 107.237 465.354 106.676 465.866 106.676Z" fill="#774804"/>
<path d="M462.276 106.676H463.557C464.07 106.676 464.454 107.097 464.454 107.657V108.357C464.454 108.918 464.07 109.338 463.557 109.338H462.276C461.763 109.338 461.379 108.918 461.379 108.357V107.657C461.379 107.237 461.763 106.676 462.276 106.676Z" fill="#774804"/>
<path d="M466.12 103.174H467.145C467.657 103.174 468.042 103.595 468.042 104.155V104.995C468.042 105.556 467.657 105.976 467.145 105.976H466.12C465.607 105.976 465.223 105.556 465.223 104.995V104.155C465.223 103.595 465.607 103.174 466.12 103.174Z" fill="#774804"/>
<path d="M462.663 103.315H463.688C464.201 103.315 464.585 103.736 464.585 104.296V105.136C464.585 105.697 464.201 106.117 463.688 106.117H462.663C462.15 106.117 461.766 105.697 461.766 105.136V104.296C461.638 103.736 462.15 103.315 462.663 103.315Z" fill="#774804"/>
<path d="M465.991 110.18H467.272C467.785 110.18 468.169 110.6 468.169 111.161V111.861C468.169 112.421 467.785 112.842 467.272 112.842H465.991C465.479 112.842 465.094 112.421 465.094 111.861V111.161C464.966 110.6 465.479 110.18 465.991 110.18Z" fill="#774804"/>
<path d="M462.276 110.178H463.557C464.07 110.178 464.454 110.598 464.454 111.158V111.859C464.454 112.419 464.07 112.839 463.557 112.839H462.276C461.763 112.839 461.379 112.419 461.379 111.859V111.158C461.379 110.598 461.763 110.178 462.276 110.178Z" fill="#774804"/>
<path d="M465.866 113.541H467.147C467.66 113.541 468.044 113.961 468.044 114.521V115.222C468.044 115.782 467.66 116.202 467.147 116.202H465.866C465.354 116.202 464.969 115.782 464.969 115.222V114.521C464.841 113.961 465.354 113.541 465.866 113.541Z" fill="#774804"/>
<path d="M464.455 115.363V114.662C464.455 114.102 464.071 113.682 463.558 113.682H462.277C461.892 113.682 461.636 113.822 461.508 114.242C461.764 114.802 462.277 115.643 462.661 116.483H463.558C463.942 116.343 464.455 115.923 464.455 115.363Z" fill="#774804"/>
<path d="M465.991 116.901H467.272C467.785 116.901 468.169 117.322 468.169 117.882V118.582C468.169 119.143 467.785 119.563 467.272 119.563H465.991C465.479 119.563 465.094 119.143 465.094 118.582V117.882C464.966 117.322 465.479 116.901 465.991 116.901Z" fill="#774804"/>
<path d="M464.455 118.723V118.023C464.455 117.463 464.07 117.042 463.558 117.042H462.789C463.173 117.883 463.558 118.864 463.814 119.704C464.199 119.424 464.455 119.144 464.455 118.723Z" fill="#774804"/>
<path d="M465.991 120.264H467.272C467.785 120.264 468.169 120.684 468.169 121.245V121.945C468.169 122.505 467.785 122.926 467.272 122.926H465.991C465.479 122.926 465.094 122.505 465.094 121.945V121.245C464.966 120.824 465.479 120.264 465.991 120.264Z" fill="#774804"/>
<path d="M465.991 126.569H467.272C467.785 126.569 468.169 126.149 468.169 125.588V124.888C468.169 124.327 467.785 123.907 467.272 123.907H465.991C465.606 123.907 465.222 124.187 465.094 124.608C465.222 125.168 465.35 125.868 465.478 126.569C465.606 126.429 465.734 126.569 465.991 126.569Z" fill="#774804"/>
<path d="M467.146 129.79C467.659 129.79 468.043 129.37 468.043 128.809V127.969C468.043 127.409 467.659 126.988 467.146 126.988H465.865C465.737 126.988 465.609 126.988 465.48 127.128C465.609 127.969 465.737 128.949 465.993 129.93L467.146 129.79Z" fill="#774804"/>
<path d="M466.634 133.292H467.146C467.659 133.292 468.043 132.872 468.043 132.312V131.611C468.043 131.051 467.659 130.631 467.146 130.631H466.121C466.249 131.191 466.249 131.752 466.377 132.312C466.506 132.872 466.506 132.872 466.634 133.292Z" fill="#774804"/>
<path d="M468.171 135.534V134.833C468.171 134.273 467.787 133.853 467.274 133.853H466.762C466.89 134.833 467.146 135.814 467.274 136.654C467.787 136.514 468.171 136.094 468.171 135.534Z" fill="#774804"/>
<path d="M468.171 138.896V138.196C468.171 137.636 467.787 137.215 467.402 137.215C467.659 138.196 467.787 139.036 467.915 139.597C468.043 139.457 468.171 139.176 468.171 138.896Z" fill="#774804"/>
<path d="M466.121 100.093H467.531C467.915 100.093 468.171 100.373 468.171 100.794V102.054C468.171 102.475 467.915 102.755 467.531 102.755H466.121C465.737 102.755 465.48 102.475 465.48 102.054V100.794C465.48 100.373 465.737 100.093 466.121 100.093Z" fill="#774804"/>
<path d="M466.25 97.0103H467.403C467.788 97.0103 468.044 97.2904 468.044 97.7107V98.8313C468.044 99.2516 467.788 99.5317 467.403 99.5317H466.25C465.866 99.5317 465.609 99.2516 465.609 98.8313V97.7107C465.609 97.2904 465.866 97.0103 466.25 97.0103Z" fill="#774804"/>
<path d="M462.918 96.8716H464.071C464.456 96.8716 464.712 97.1517 464.712 97.572V98.6927C464.712 99.1129 464.456 99.3931 464.071 99.3931H462.918C462.534 99.3931 462.277 99.1129 462.277 98.6927V97.572C462.405 97.1517 462.662 96.8716 462.918 96.8716Z" fill="#774804"/>
<path d="M463.688 93.7881H464.713C465.097 93.7881 465.353 94.0683 465.353 94.4885V95.4691C465.353 95.8893 465.097 96.1695 464.713 96.1695H463.688C463.303 96.1695 463.047 95.8893 463.047 95.4691V94.4885C463.047 94.2083 463.303 93.7881 463.688 93.7881Z" fill="#774804"/>
<path d="M466.504 93.6494H467.529C467.913 93.6494 468.17 93.9296 468.17 94.3498V95.3304C468.17 95.7507 467.913 96.0308 467.529 96.0308H466.504C466.12 96.0308 465.863 95.7507 465.863 95.3304V94.3498C465.863 94.0697 466.12 93.6494 466.504 93.6494Z" fill="#774804"/>
<path d="M466.633 91.1279H467.402C467.786 91.1279 468.042 91.4081 468.042 91.8283V92.3887C468.042 92.8089 467.786 93.0891 467.402 93.0891H466.633C466.248 93.0891 465.992 92.8089 465.992 92.3887V91.8283C466.12 91.4081 466.377 91.1279 466.633 91.1279Z" fill="#774804"/>
<path d="M464.07 91.1279H464.839C465.224 91.1279 465.48 91.4081 465.48 91.8283V92.3887C465.48 92.8089 465.224 93.0891 464.839 93.0891H464.07C463.686 93.0891 463.43 92.8089 463.43 92.3887V91.8283C463.43 91.4081 463.686 91.1279 464.07 91.1279Z" fill="#774804"/>
<path d="M464.969 88.606H465.481C465.866 88.606 466.122 88.8861 466.122 89.3064V89.8667C466.122 90.2869 465.866 90.5671 465.481 90.5671H464.969C464.584 90.5671 464.328 90.2869 464.328 89.8667V89.3064C464.328 88.8861 464.584 88.606 464.969 88.606Z" fill="#774804"/>
<path d="M467.016 88.606H467.528C467.913 88.606 468.169 88.8861 468.169 89.3064V89.8667C468.169 90.2869 467.913 90.5671 467.528 90.5671H467.016C466.631 90.5671 466.375 90.2869 466.375 89.8667V89.3064C466.375 88.8861 466.759 88.606 467.016 88.606Z" fill="#774804"/>
<path d="M462.66 100.093H464.07C464.454 100.093 464.71 100.373 464.71 100.794V102.054C464.71 102.475 464.454 102.755 464.07 102.755H462.66C462.276 102.755 462.02 102.475 462.02 102.054V100.794C462.02 100.373 462.404 100.093 462.66 100.093Z" fill="#774804"/>
<path d="M467.401 87.2056H467.913C468.041 87.2056 468.17 87.3456 468.17 87.4857V87.7659C468.17 87.906 468.041 88.0461 467.913 88.0461H467.401C467.273 88.0461 467.145 87.906 467.145 87.7659V87.4857C467.145 87.3456 467.273 87.2056 467.401 87.2056Z" fill="#774804"/>
<path d="M465.608 87.2056H466.12C466.249 87.2056 466.377 87.3456 466.377 87.4857V87.7659C466.377 87.906 466.249 88.0461 466.12 88.0461H465.608C465.48 88.0461 465.352 87.906 465.352 87.7659V87.4857C465.352 87.3456 465.48 87.2056 465.608 87.2056Z" fill="#774804"/>
<path d="M466.377 85.6641H466.89C467.018 85.6641 467.146 85.8041 467.146 85.9442V86.2244C467.146 86.3645 467.018 86.5046 466.89 86.5046H466.377C466.249 86.5046 466.121 86.3645 466.121 86.2244V85.9442C466.121 85.8041 466.249 85.6641 466.377 85.6641Z" fill="#774804"/>
<path d="M467.787 84.2632H468.043C468.171 84.2632 468.3 84.4033 468.3 84.5433V84.6834C468.3 84.8235 468.171 84.9636 468.043 84.9636H467.787C467.659 84.9636 467.531 84.8235 467.531 84.6834V84.5433C467.403 84.5433 467.531 84.2632 467.787 84.2632Z" fill="#774804"/>
<path d="M469.71 106.676H470.991C471.504 106.676 471.888 107.097 471.888 107.657V108.357C471.888 108.918 471.504 109.338 470.991 109.338H469.71C469.197 109.338 468.813 108.918 468.813 108.357V107.657C468.685 107.237 469.197 106.676 469.71 106.676Z" fill="#774804"/>
<path d="M473.424 106.676H474.706C475.218 106.676 475.603 107.097 475.603 107.657V108.357C475.603 108.918 475.218 109.338 474.706 109.338H473.424C472.912 109.338 472.527 108.918 472.527 108.357V107.657C472.527 107.237 472.912 106.676 473.424 106.676Z" fill="#774804"/>
<path d="M469.581 103.174H470.606C471.118 103.174 471.503 103.595 471.503 104.155V104.995C471.503 105.556 471.118 105.976 470.606 105.976H469.581C469.068 105.976 468.684 105.556 468.684 104.995V104.155C468.684 103.595 469.068 103.174 469.581 103.174Z" fill="#774804"/>
<path d="M473.295 103.315H474.321C474.833 103.315 475.217 103.736 475.217 104.296V105.136C475.217 105.697 474.833 106.117 474.321 106.117H473.295C472.783 106.117 472.398 105.697 472.398 105.136V104.296C472.398 103.736 472.783 103.315 473.295 103.315Z" fill="#774804"/>
<path d="M469.709 110.178H470.991C471.503 110.178 471.888 110.598 471.888 111.158V111.859C471.888 112.419 471.503 112.839 470.991 112.839H469.709C469.197 112.839 468.812 112.419 468.812 111.859V111.158C468.812 110.598 469.197 110.178 469.709 110.178Z" fill="#774804"/>
<path d="M473.424 110.178H474.706C475.218 110.178 475.603 110.598 475.603 111.158V111.859C475.603 112.419 475.218 112.839 474.706 112.839H473.424C472.912 112.839 472.527 112.419 472.527 111.859V111.158C472.527 110.598 472.912 110.178 473.424 110.178Z" fill="#774804"/>
<path d="M469.581 113.541H470.862C471.375 113.541 471.759 113.961 471.759 114.521V115.222C471.759 115.782 471.375 116.202 470.862 116.202H469.581C469.068 116.202 468.684 115.782 468.684 115.222V114.521C468.556 113.961 469.068 113.541 469.581 113.541Z" fill="#774804"/>
<path d="M473.424 113.541H474.706C475.218 113.541 475.603 113.961 475.603 114.521V115.222C475.603 115.782 475.218 116.202 474.706 116.202H473.424C472.912 116.202 472.527 115.782 472.527 115.222V114.521C472.527 113.961 472.912 113.541 473.424 113.541Z" fill="#774804"/>
<path d="M469.835 116.901H471.116C471.629 116.901 472.013 117.322 472.013 117.882V118.582C472.013 119.143 471.629 119.563 471.116 119.563H469.835C469.322 119.563 468.938 119.143 468.938 118.582V117.882C468.81 117.322 469.322 116.901 469.835 116.901Z" fill="#774804"/>
<path d="M473.424 116.901H474.706C475.218 116.901 475.603 117.322 475.603 117.882V118.582C475.603 119.143 475.218 119.563 474.706 119.563H473.424C472.912 119.563 472.527 119.143 472.527 118.582V117.882C472.527 117.322 472.912 116.901 473.424 116.901Z" fill="#774804"/>
<path d="M469.581 120.264H470.862C471.375 120.264 471.759 120.684 471.759 121.245V121.945C471.759 122.505 471.375 122.926 470.862 122.926H469.581C469.068 122.926 468.684 122.505 468.684 121.945V121.245C468.556 120.824 469.068 120.264 469.581 120.264Z" fill="#774804"/>
<path d="M472.27 121.384V122.225C472.27 122.645 472.526 123.065 472.91 123.206C473.423 122.225 473.935 121.384 474.576 120.544C474.448 120.544 474.448 120.544 474.32 120.544H473.038C472.654 120.544 472.27 120.964 472.27 121.384Z" fill="#774804"/>
<path d="M469.581 123.627H470.862C471.375 123.627 471.759 124.048 471.759 124.608V125.308C471.759 125.869 471.375 126.289 470.862 126.289H469.581C469.068 126.289 468.684 125.869 468.684 125.308V124.608C468.556 124.188 469.068 123.627 469.581 123.627Z" fill="#774804"/>
<path d="M471.375 127.268C471.246 127.128 470.99 126.988 470.734 126.988H469.581C469.068 126.988 468.684 127.409 468.684 127.969V128.809C468.684 129.37 469.068 129.79 469.581 129.79H470.734C470.862 128.949 471.118 127.969 471.375 127.268Z" fill="#774804"/>
<path d="M470.477 130.49H469.452C468.939 130.49 468.555 130.91 468.555 131.47V132.171C468.555 132.731 468.939 133.151 469.452 133.151H469.708C470.092 132.311 470.349 131.33 470.477 130.49Z" fill="#774804"/>
<path d="M469.708 133.853H469.452C468.939 133.853 468.555 134.273 468.555 134.833V135.674C468.555 136.094 468.811 136.374 469.067 136.514C469.324 135.674 469.452 134.693 469.708 133.853Z" fill="#774804"/>
<path d="M468.939 137.354C468.683 137.495 468.555 137.775 468.555 138.195V139.035C468.683 138.475 468.811 137.915 468.939 137.354Z" fill="#774804"/>
<path d="M469.582 100.093H470.992C471.376 100.093 471.632 100.373 471.632 100.794V102.054C471.632 102.475 471.376 102.755 470.992 102.755H469.582C469.198 102.755 468.941 102.475 468.941 102.054V100.794C468.941 100.373 469.198 100.093 469.582 100.093Z" fill="#774804"/>
<path d="M469.453 96.8716H470.606C470.991 96.8716 471.247 97.1517 471.247 97.572V98.6927C471.247 99.1129 470.991 99.3931 470.606 99.3931H469.453C469.069 99.3931 468.812 99.1129 468.812 98.6927V97.572C468.812 97.1517 469.069 96.8716 469.453 96.8716Z" fill="#774804"/>
<path d="M472.527 96.8716H473.681C474.065 96.8716 474.321 97.1517 474.321 97.572V98.6927C474.321 99.1129 474.065 99.3931 473.681 99.3931H472.527C472.143 99.3931 471.887 99.1129 471.887 98.6927V97.572C471.887 97.1517 472.143 96.8716 472.527 96.8716Z" fill="#774804"/>
<path d="M472.399 94.0698H473.424C473.808 94.0698 474.064 94.35 474.064 94.7702V95.7508C474.064 96.1711 473.808 96.4512 473.424 96.4512H472.399C472.014 96.4512 471.758 96.1711 471.758 95.7508V94.7702C471.758 94.35 472.014 94.0698 472.399 94.0698Z" fill="#774804"/>
<path d="M469.582 93.7881H470.607C470.992 93.7881 471.248 94.0683 471.248 94.4885V95.4691C471.248 95.8893 470.992 96.1695 470.607 96.1695H469.582C469.198 96.1695 468.941 95.8893 468.941 95.4691V94.4885C468.941 94.2083 469.198 93.7881 469.582 93.7881Z" fill="#774804"/>
<path d="M469.324 91.1279H470.093C470.478 91.1279 470.734 91.4081 470.734 91.8283V92.3887C470.734 92.8089 470.478 93.0891 470.093 93.0891H469.324C468.94 93.0891 468.684 92.8089 468.684 92.3887V91.8283C468.684 91.4081 469.068 91.1279 469.324 91.1279Z" fill="#774804"/>
<path d="M472.016 91.2666H472.785C473.169 91.2666 473.425 91.5468 473.425 91.967V92.5273C473.425 92.9476 473.169 93.2278 472.785 93.2278H472.016C471.631 93.2278 471.375 92.9476 471.375 92.5273V91.967C471.375 91.6868 471.631 91.2666 472.016 91.2666Z" fill="#774804"/>
<path d="M471.504 88.606H472.017C472.401 88.606 472.657 88.8861 472.657 89.3064V89.8667C472.657 90.2869 472.401 90.5671 472.017 90.5671H471.504C471.12 90.5671 470.863 90.2869 470.863 89.8667V89.3064C470.863 88.8861 471.248 88.606 471.504 88.606Z" fill="#774804"/>
<path d="M469.324 88.606H469.837C470.221 88.606 470.478 88.8861 470.478 89.3064V89.8667C470.478 90.2869 470.221 90.5671 469.837 90.5671H469.324C468.94 90.5671 468.684 90.2869 468.684 89.8667V89.3064C468.684 88.8861 468.94 88.606 469.324 88.606Z" fill="#774804"/>
<path d="M472.91 100.093H474.32C474.704 100.093 474.96 100.373 474.96 100.794V102.054C474.96 102.475 474.704 102.755 474.32 102.755H472.91C472.526 102.755 472.27 102.475 472.27 102.054V100.794C472.27 100.373 472.526 100.093 472.91 100.093Z" fill="#774804"/>
<path d="M469.069 87.2056H469.581C469.709 87.2056 469.838 87.3456 469.838 87.4857V87.7659C469.838 87.906 469.709 88.0461 469.581 88.0461H469.069C468.941 88.0461 468.812 87.906 468.812 87.7659V87.4857C468.812 87.3456 468.941 87.2056 469.069 87.2056Z" fill="#774804"/>
<path d="M468.299 85.6641H468.812C468.94 85.6641 469.068 85.8041 469.068 85.9442V86.2244C469.068 86.3645 468.94 86.5046 468.812 86.5046H468.299C468.171 86.5046 468.043 86.3645 468.043 86.2244V85.9442C468.043 85.8041 468.171 85.6641 468.299 85.6641Z" fill="#774804"/>
<path d="M470.861 87.2056H471.374C471.502 87.2056 471.63 87.3456 471.63 87.4857V87.7659C471.63 87.906 471.502 88.0461 471.374 88.0461H470.861C470.733 88.0461 470.605 87.906 470.605 87.7659V87.4857C470.477 87.3456 470.605 87.2056 470.861 87.2056Z" fill="#774804"/>
<path d="M469.838 85.6641H470.351C470.479 85.6641 470.607 85.8041 470.607 85.9442V86.2244C470.607 86.3645 470.479 86.5046 470.351 86.5046H469.838C469.71 86.5046 469.582 86.3645 469.582 86.2244V85.9442C469.582 85.8041 469.71 85.6641 469.838 85.6641Z" fill="#774804"/>
<path d="M468.94 84.2637H469.196C469.324 84.2637 469.452 84.4037 469.452 84.5438V84.6839C469.452 84.824 469.324 84.9641 469.196 84.9641H468.94C468.812 84.9641 468.684 84.824 468.684 84.6839V84.5438C468.684 84.5438 468.812 84.2637 468.94 84.2637Z" fill="#774804"/>
<path d="M481.753 120.544C480.471 119.004 478.293 118.723 476.755 119.844C475.987 120.685 475.346 121.525 474.705 122.506C473.68 124.327 472.783 126.288 472.271 128.249C472.271 128.389 471.245 132.171 470.989 133.012C470.989 133.152 470.477 135.393 470.22 136.374C470.22 136.514 469.58 138.755 469.452 139.596C469.067 141.417 468.555 143.098 467.914 144.779C468.17 143.518 467.658 142.397 467.273 140.856C466.761 138.475 466.376 136.934 466.376 136.654C466.248 135.813 464.454 126.008 463.813 123.766C463.173 120.825 462.276 118.023 461.123 115.361C460.994 115.221 460.097 113.26 459.713 112.56C458.432 110.318 456.894 108.217 454.844 106.676C456.381 108.637 458.303 115.782 458.688 118.723C459.457 122.506 459.841 126.428 460.097 130.35C460.354 136.234 462.02 141.837 465.095 146.74C465.095 146.74 465.992 148.001 468.683 148.001C470.22 148.141 471.63 147.58 472.655 146.46C473.808 145.059 474.705 143.378 475.346 141.557C476.243 138.755 476.627 135.813 476.627 132.872C476.755 130.63 477.652 124.046 477.909 122.646C478.678 122.926 479.446 123.346 480.215 123.766C481.753 124.607 483.162 125.868 483.931 127.549C484.316 125.027 483.419 122.365 481.753 120.544Z" fill="#774804"/>
<path d="M464.328 120.405C464.328 120.826 464.584 121.246 464.584 121.666C464.584 121.666 464.584 121.246 464.584 121.106C464.584 120.966 464.456 120.405 464.328 120.405Z" fill="#774804"/>
<path d="M517.834 93.1055H514.343V116.005L511.725 107.418C511.201 105.7 509.456 104.746 508.059 105.318C507.536 105.509 507.186 105.7 506.837 106.082L492 123.065L508.059 115.623L514.518 129.744V177.187H517.834V93.1055Z" fill="white"/>
<path d="M512.253 32.8037H513.999C514.697 32.8037 515.22 33.3762 515.22 34.1395V35.0936C515.22 35.8569 514.697 36.4294 513.999 36.4294H512.253C511.555 36.4294 511.031 35.8569 511.031 35.0936V34.1395C510.856 33.567 511.555 32.8037 512.253 32.8037Z" fill="white"/>
<path d="M507.359 32.8037H509.104C509.802 32.8037 510.326 33.3762 510.326 34.1395V35.0936C510.326 35.8569 509.802 36.4294 509.104 36.4294H507.359C506.66 36.4294 506.137 35.8569 506.137 35.0936V34.1395C506.137 33.567 506.66 32.8037 507.359 32.8037Z" fill="white"/>
<path d="M512.597 28.0337H513.993C514.692 28.0337 515.215 28.6062 515.215 29.3695V30.5144C515.215 31.2778 514.692 31.8502 513.993 31.8502H512.597C511.899 31.8502 511.375 31.2778 511.375 30.5144V29.3695C511.375 28.6062 511.899 28.0337 512.597 28.0337Z" fill="white"/>
<path d="M507.89 28.2251H509.286C509.984 28.2251 510.508 28.7976 510.508 29.5609V30.7059C510.508 31.4692 509.984 32.0416 509.286 32.0416H507.89C507.191 32.0416 506.668 31.4692 506.668 30.7059V29.5609C506.493 28.7976 507.191 28.2251 507.89 28.2251Z" fill="white"/>
<path d="M512.421 37.5776H514.166C514.865 37.5776 515.388 38.1501 515.388 38.9134V39.8676C515.388 40.6309 514.865 41.2034 514.166 41.2034H512.421C511.723 41.2034 511.199 40.6309 511.199 39.8676V38.9134C511.024 38.1501 511.723 37.5776 512.421 37.5776Z" fill="white"/>
<path d="M507.359 37.5737H509.104C509.802 37.5737 510.326 38.1462 510.326 38.9095V39.8637C510.326 40.627 509.802 41.1994 509.104 41.1994H507.359C506.66 41.1994 506.137 40.627 506.137 39.8637V38.9095C506.137 38.1462 506.66 37.5737 507.359 37.5737Z" fill="white"/>
<path d="M512.253 42.1558H513.999C514.697 42.1558 515.22 42.7282 515.22 43.4916V44.4457C515.22 45.209 514.697 45.7815 513.999 45.7815H512.253C511.555 45.7815 511.031 45.209 511.031 44.4457V43.4916C510.856 42.7282 511.555 42.1558 512.253 42.1558Z" fill="white"/>
<path d="M510.327 44.6376V43.6834C510.327 42.9201 509.804 42.3477 509.105 42.3477H507.36C506.836 42.3477 506.487 42.5385 506.312 43.111C506.662 43.8743 507.36 45.0192 507.884 46.1642H509.105C509.629 45.9734 510.327 45.4009 510.327 44.6376Z" fill="white"/>
<path d="M512.421 46.7344H514.166C514.865 46.7344 515.388 47.3069 515.388 48.0702V49.0243C515.388 49.7876 514.865 50.3601 514.166 50.3601H512.421C511.723 50.3601 511.199 49.7876 511.199 49.0243V48.0702C511.024 47.3069 511.723 46.7344 512.421 46.7344Z" fill="white"/>
<path d="M510.328 49.2162V48.2621C510.328 47.4988 509.804 46.9263 509.106 46.9263H508.059C508.582 48.0712 509.106 49.407 509.455 50.552C509.979 50.1703 510.328 49.7887 510.328 49.2162Z" fill="white"/>
<path d="M512.421 51.314H514.166C514.865 51.314 515.388 51.8865 515.388 52.6498V53.6039C515.388 54.3672 514.865 54.9397 514.166 54.9397H512.421C511.723 54.9397 511.199 54.3672 511.199 53.6039V52.6498C511.024 52.0773 511.723 51.314 512.421 51.314Z" fill="white"/>
<path d="M512.421 59.9011H514.167C514.865 59.9011 515.389 59.3286 515.389 58.5653V57.6112C515.389 56.8479 514.865 56.2754 514.167 56.2754H512.421C511.897 56.2754 511.374 56.657 511.199 57.2295C511.374 57.9928 511.548 58.947 511.723 59.9011C511.897 59.7103 512.072 59.9011 512.421 59.9011Z" fill="white"/>
<path d="M513.996 64.2902C514.694 64.2902 515.218 63.7177 515.218 62.9544V61.8094C515.218 61.0461 514.694 60.4736 513.996 60.4736H512.25C512.076 60.4736 511.901 60.4736 511.727 60.6645C511.901 61.8094 512.076 63.1452 512.425 64.481L513.996 64.2902Z" fill="white"/>
<path d="M513.296 69.0618H513.994C514.692 69.0618 515.216 68.4893 515.216 67.726V66.7718C515.216 66.0085 514.692 65.436 513.994 65.436H512.598C512.772 66.1993 512.772 66.9626 512.947 67.726C513.121 68.4893 513.121 68.4893 513.296 69.0618Z" fill="white"/>
<path d="M515.393 72.1156V71.1615C515.393 70.3982 514.869 69.8257 514.171 69.8257H513.473C513.647 71.1615 513.996 72.4973 514.171 73.6422C514.869 73.4514 515.393 72.8789 515.393 72.1156Z" fill="white"/>
<path d="M515.391 76.6962V75.742C515.391 74.9787 514.867 74.4062 514.344 74.4062C514.693 75.742 514.867 76.887 515.042 77.6503C515.217 77.4595 515.391 77.0778 515.391 76.6962Z" fill="white"/>
<path d="M512.599 23.8364H514.519C515.043 23.8364 515.392 24.2181 515.392 24.7906V26.508C515.392 27.0805 515.043 27.4621 514.519 27.4621H512.599C512.076 27.4621 511.727 27.0805 511.727 26.508V24.7906C511.727 24.2181 512.076 23.8364 512.599 23.8364Z" fill="white"/>
<path d="M512.775 19.6357H514.346C514.87 19.6357 515.219 20.0174 515.219 20.5899V22.1165C515.219 22.689 514.87 23.0706 514.346 23.0706H512.775C512.251 23.0706 511.902 22.689 511.902 22.1165V20.5899C511.902 20.0174 512.251 19.6357 512.775 19.6357Z" fill="white"/>
<path d="M508.236 19.4478H509.807C510.331 19.4478 510.68 19.8294 510.68 20.4019V21.9285C510.68 22.501 510.331 22.8826 509.807 22.8826H508.236C507.712 22.8826 507.363 22.501 507.363 21.9285V20.4019C507.538 19.8294 507.887 19.4478 508.236 19.4478Z" fill="white"/>
<path d="M509.283 15.248H510.679C511.203 15.248 511.552 15.6297 511.552 16.2022V17.538C511.552 18.1105 511.203 18.4921 510.679 18.4921H509.283C508.759 18.4921 508.41 18.1105 508.41 17.538V16.2022C508.41 15.8205 508.759 15.248 509.283 15.248Z" fill="white"/>
<path d="M513.119 15.0581H514.515C515.039 15.0581 515.388 15.4398 515.388 16.0122V17.348C515.388 17.9205 515.039 18.3022 514.515 18.3022H513.119C512.595 18.3022 512.246 17.9205 512.246 17.348V16.0122C512.246 15.6306 512.595 15.0581 513.119 15.0581Z" fill="white"/>
<path d="M513.295 11.623H514.342C514.866 11.623 515.215 12.0047 515.215 12.5772V13.3405C515.215 13.913 514.866 14.2946 514.342 14.2946H513.295C512.771 14.2946 512.422 13.913 512.422 13.3405V12.5772C512.596 12.0047 512.946 11.623 513.295 11.623Z" fill="white"/>
<path d="M509.806 11.623H510.854C511.377 11.623 511.727 12.0047 511.727 12.5772V13.3405C511.727 13.913 511.377 14.2946 510.854 14.2946H509.806C509.283 14.2946 508.934 13.913 508.934 13.3405V12.5772C508.934 12.0047 509.283 11.623 509.806 11.623Z" fill="white"/>
<path d="M511.029 8.18652H511.727C512.251 8.18652 512.6 8.56818 512.6 9.14066V9.90397C512.6 10.4765 512.251 10.8581 511.727 10.8581H511.029C510.505 10.8581 510.156 10.4765 510.156 9.90397V9.14066C510.156 8.56818 510.505 8.18652 511.029 8.18652Z" fill="white"/>
<path d="M513.818 8.18652H514.516C515.04 8.18652 515.389 8.56818 515.389 9.14066V9.90397C515.389 10.4765 515.04 10.8581 514.516 10.8581H513.818C513.294 10.8581 512.945 10.4765 512.945 9.90397V9.14066C512.945 8.56818 513.469 8.18652 513.818 8.18652Z" fill="white"/>
<path d="M507.885 23.8364H509.805C510.328 23.8364 510.677 24.2181 510.677 24.7906V26.508C510.677 27.0805 510.328 27.4621 509.805 27.4621H507.885C507.361 27.4621 507.012 27.0805 507.012 26.508V24.7906C507.012 24.2181 507.535 23.8364 507.885 23.8364Z" fill="white"/>
<path d="M514.341 6.28076H515.04C515.214 6.28076 515.389 6.47159 515.389 6.66242V7.04407C515.389 7.2349 515.214 7.42572 515.04 7.42572H514.341C514.167 7.42572 513.992 7.2349 513.992 7.04407V6.66242C513.992 6.47159 514.167 6.28076 514.341 6.28076Z" fill="white"/>
<path d="M511.9 6.28076H512.598C512.773 6.28076 512.947 6.47159 512.947 6.66242V7.04407C512.947 7.2349 512.773 7.42572 512.598 7.42572H511.9C511.725 7.42572 511.551 7.2349 511.551 7.04407V6.66242C511.551 6.47159 511.725 6.28076 511.9 6.28076Z" fill="white"/>
<path d="M512.947 4.17969H513.645C513.82 4.17969 513.994 4.37051 513.994 4.56134V4.94299C513.994 5.13382 513.82 5.32465 513.645 5.32465H512.947C512.772 5.32465 512.598 5.13382 512.598 4.94299V4.56134C512.598 4.37051 512.772 4.17969 512.947 4.17969Z" fill="white"/>
<path d="M514.871 2.27246H515.22C515.394 2.27246 515.569 2.46328 515.569 2.65411V2.84494C515.569 3.03577 515.394 3.2266 515.22 3.2266H514.871C514.696 3.2266 514.522 3.03577 514.522 2.84494V2.65411C514.347 2.65411 514.522 2.27246 514.871 2.27246Z" fill="white"/>
<path d="M517.487 32.8037H519.233C519.931 32.8037 520.455 33.3762 520.455 34.1395V35.0936C520.455 35.8569 519.931 36.4294 519.233 36.4294H517.487C516.789 36.4294 516.265 35.8569 516.265 35.0936V34.1395C516.091 33.567 516.789 32.8037 517.487 32.8037Z" fill="white"/>
<path d="M522.546 32.8037H524.292C524.99 32.8037 525.514 33.3762 525.514 34.1395V35.0936C525.514 35.8569 524.99 36.4294 524.292 36.4294H522.546C521.848 36.4294 521.324 35.8569 521.324 35.0936V34.1395C521.324 33.567 521.848 32.8037 522.546 32.8037Z" fill="white"/>
<path d="M517.312 28.0337H518.708C519.406 28.0337 519.93 28.6062 519.93 29.3695V30.5144C519.93 31.2778 519.406 31.8502 518.708 31.8502H517.312C516.614 31.8502 516.09 31.2778 516.09 30.5144V29.3695C516.09 28.6062 516.614 28.0337 517.312 28.0337Z" fill="white"/>
<path d="M522.37 28.2251H523.767C524.465 28.2251 524.989 28.7976 524.989 29.5609V30.7059C524.989 31.4692 524.465 32.0416 523.767 32.0416H522.37C521.672 32.0416 521.148 31.4692 521.148 30.7059V29.5609C521.148 28.7976 521.672 28.2251 522.37 28.2251Z" fill="white"/>
<path d="M517.488 37.5737H519.233C519.931 37.5737 520.455 38.1462 520.455 38.9095V39.8637C520.455 40.627 519.931 41.1994 519.233 41.1994H517.488C516.789 41.1994 516.266 40.627 516.266 39.8637V38.9095C516.266 38.1462 516.789 37.5737 517.488 37.5737Z" fill="white"/>
<path d="M522.546 37.5737H524.292C524.99 37.5737 525.514 38.1462 525.514 38.9095V39.8637C525.514 40.627 524.99 41.1994 524.292 41.1994H522.546C521.848 41.1994 521.324 40.627 521.324 39.8637V38.9095C521.324 38.1462 521.848 37.5737 522.546 37.5737Z" fill="white"/>
<path d="M517.312 42.1558H519.057C519.755 42.1558 520.279 42.7282 520.279 43.4916V44.4457C520.279 45.209 519.755 45.7815 519.057 45.7815H517.312C516.613 45.7815 516.09 45.209 516.09 44.4457V43.4916C515.915 42.7282 516.613 42.1558 517.312 42.1558Z" fill="white"/>
<path d="M522.546 42.1558H524.292C524.99 42.1558 525.514 42.7282 525.514 43.4916V44.4457C525.514 45.209 524.99 45.7815 524.292 45.7815H522.546C521.848 45.7815 521.324 45.209 521.324 44.4457V43.4916C521.324 42.7282 521.848 42.1558 522.546 42.1558Z" fill="white"/>
<path d="M517.659 46.7344H519.405C520.103 46.7344 520.627 47.3069 520.627 48.0702V49.0243C520.627 49.7876 520.103 50.3601 519.405 50.3601H517.659C516.961 50.3601 516.437 49.7876 516.437 49.0243V48.0702C516.263 47.3069 516.961 46.7344 517.659 46.7344Z" fill="white"/>
<path d="M522.546 46.7344H524.292C524.99 46.7344 525.514 47.3069 525.514 48.0702V49.0243C525.514 49.7876 524.99 50.3601 524.292 50.3601H522.546C521.848 50.3601 521.324 49.7876 521.324 49.0243V48.0702C521.324 47.3069 521.848 46.7344 522.546 46.7344Z" fill="white"/>
<path d="M517.312 51.314H519.057C519.755 51.314 520.279 51.8865 520.279 52.6498V53.6039C520.279 54.3672 519.755 54.9397 519.057 54.9397H517.312C516.613 54.9397 516.09 54.3672 516.09 53.6039V52.6498C515.915 52.0773 516.613 51.314 517.312 51.314Z" fill="white"/>
<path d="M520.973 52.8413V53.9862C520.973 54.5587 521.322 55.1312 521.845 55.322C522.544 53.9862 523.242 52.8413 524.115 51.6963C523.94 51.6963 523.94 51.6963 523.766 51.6963H522.02C521.496 51.6963 520.973 52.2688 520.973 52.8413Z" fill="white"/>
<path d="M517.312 55.895H519.057C519.755 55.895 520.279 56.4675 520.279 57.2308V58.1849C520.279 58.9483 519.755 59.5207 519.057 59.5207H517.312C516.613 59.5207 516.09 58.9483 516.09 58.1849V57.2308C515.915 56.6583 516.613 55.895 517.312 55.895Z" fill="white"/>
<path d="M519.756 60.8553C519.581 60.6645 519.232 60.4736 518.883 60.4736H517.312C516.614 60.4736 516.09 61.0461 516.09 61.8094V62.9544C516.09 63.7177 516.614 64.2902 517.312 64.2902H518.883C519.057 63.1452 519.406 61.8094 519.756 60.8553Z" fill="white"/>
<path d="M518.532 65.2437H517.136C516.438 65.2437 515.914 65.8161 515.914 66.5794V67.5336C515.914 68.2969 516.438 68.8694 517.136 68.8694H517.485C518.009 67.7244 518.358 66.3886 518.532 65.2437Z" fill="white"/>
<path d="M517.485 69.8257H517.136C516.438 69.8257 515.914 70.3982 515.914 71.1615V72.3064C515.914 72.8789 516.263 73.2606 516.612 73.4514C516.961 72.3064 517.136 70.9706 517.485 69.8257Z" fill="white"/>
<path d="M516.438 74.5967C516.089 74.7875 515.914 75.1692 515.914 75.7416V76.8866C516.089 76.1233 516.263 75.36 516.438 74.5967Z" fill="white"/>
<path d="M517.314 23.8364H519.234C519.758 23.8364 520.107 24.2181 520.107 24.7906V26.508C520.107 27.0805 519.758 27.4621 519.234 27.4621H517.314C516.791 27.4621 516.441 27.0805 516.441 26.508V24.7906C516.441 24.2181 516.791 23.8364 517.314 23.8364Z" fill="white"/>
<path d="M517.138 19.4478H518.709C519.233 19.4478 519.582 19.8294 519.582 20.4019V21.9285C519.582 22.501 519.233 22.8826 518.709 22.8826H517.138C516.615 22.8826 516.266 22.501 516.266 21.9285V20.4019C516.266 19.8294 516.615 19.4478 517.138 19.4478Z" fill="white"/>
<path d="M521.326 19.4478H522.897C523.421 19.4478 523.77 19.8294 523.77 20.4019V21.9285C523.77 22.501 523.421 22.8826 522.897 22.8826H521.326C520.802 22.8826 520.453 22.501 520.453 21.9285V20.4019C520.453 19.8294 520.802 19.4478 521.326 19.4478Z" fill="white"/>
<path d="M521.15 15.6294H522.547C523.07 15.6294 523.419 16.011 523.419 16.5835V17.9193C523.419 18.4918 523.07 18.8735 522.547 18.8735H521.15C520.626 18.8735 520.277 18.4918 520.277 17.9193V16.5835C520.277 16.011 520.626 15.6294 521.15 15.6294Z" fill="white"/>
<path d="M517.314 15.248H518.711C519.234 15.248 519.583 15.6297 519.583 16.2022V17.538C519.583 18.1105 519.234 18.4921 518.711 18.4921H517.314C516.791 18.4921 516.441 18.1105 516.441 17.538V16.2022C516.441 15.8205 516.791 15.248 517.314 15.248Z" fill="white"/>
<path d="M516.963 11.623H518.01C518.534 11.623 518.883 12.0047 518.883 12.5772V13.3405C518.883 13.913 518.534 14.2946 518.01 14.2946H516.963C516.439 14.2946 516.09 13.913 516.09 13.3405V12.5772C516.09 12.0047 516.614 11.623 516.963 11.623Z" fill="white"/>
<path d="M520.627 11.8135H521.674C522.198 11.8135 522.547 12.1951 522.547 12.7676V13.5309C522.547 14.1034 522.198 14.4851 521.674 14.4851H520.627C520.103 14.4851 519.754 14.1034 519.754 13.5309V12.7676C519.754 12.386 520.103 11.8135 520.627 11.8135Z" fill="white"/>
<path d="M519.931 8.18652H520.63C521.153 8.18652 521.502 8.56818 521.502 9.14066V9.90397C521.502 10.4765 521.153 10.8581 520.63 10.8581H519.931C519.408 10.8581 519.059 10.4765 519.059 9.90397V9.14066C519.059 8.56818 519.582 8.18652 519.931 8.18652Z" fill="white"/>
<path d="M516.963 8.18652H517.661C518.185 8.18652 518.534 8.56818 518.534 9.14066V9.90397C518.534 10.4765 518.185 10.8581 517.661 10.8581H516.963C516.439 10.8581 516.09 10.4765 516.09 9.90397V9.14066C516.09 8.56818 516.439 8.18652 516.963 8.18652Z" fill="white"/>
<path d="M521.845 23.8364H523.766C524.289 23.8364 524.638 24.2181 524.638 24.7906V26.508C524.638 27.0805 524.289 27.4621 523.766 27.4621H521.845C521.322 27.4621 520.973 27.0805 520.973 26.508V24.7906C520.973 24.2181 521.322 23.8364 521.845 23.8364Z" fill="white"/>
<path d="M516.615 6.28076H517.313C517.488 6.28076 517.662 6.47159 517.662 6.66242V7.04407C517.662 7.2349 517.488 7.42572 517.313 7.42572H516.615C516.44 7.42572 516.266 7.2349 516.266 7.04407V6.66242C516.266 6.47159 516.44 6.28076 516.615 6.28076Z" fill="white"/>
<path d="M515.564 4.17969H516.262C516.437 4.17969 516.611 4.37051 516.611 4.56134V4.94299C516.611 5.13382 516.437 5.32465 516.262 5.32465H515.564C515.389 5.32465 515.215 5.13382 515.215 4.94299V4.56134C515.215 4.37051 515.389 4.17969 515.564 4.17969Z" fill="white"/>
<path d="M519.058 6.28076H519.756C519.931 6.28076 520.106 6.47159 520.106 6.66242V7.04407C520.106 7.2349 519.931 7.42572 519.756 7.42572H519.058C518.884 7.42572 518.709 7.2349 518.709 7.04407V6.66242C518.535 6.47159 518.709 6.28076 519.058 6.28076Z" fill="white"/>
<path d="M517.662 4.17969H518.36C518.534 4.17969 518.709 4.37051 518.709 4.56134V4.94299C518.709 5.13382 518.534 5.32465 518.36 5.32465H517.662C517.487 5.32465 517.312 5.13382 517.312 4.94299V4.56134C517.312 4.37051 517.487 4.17969 517.662 4.17969Z" fill="white"/>
<path d="M516.439 2.27246H516.788C516.963 2.27246 517.137 2.46328 517.137 2.65411V2.84494C517.137 3.03577 516.963 3.2266 516.788 3.2266H516.439C516.264 3.2266 516.09 3.03577 516.09 2.84494V2.65411C516.09 2.65411 516.264 2.27246 516.439 2.27246Z" fill="white"/>
<path d="M533.891 51.6956C532.146 49.5965 529.178 49.2149 527.084 50.7415C526.036 51.8864 525.163 53.0314 524.291 54.3672C522.894 56.8479 521.672 59.5195 520.974 62.1911C520.974 62.3819 519.578 67.5343 519.229 68.6792C519.229 68.8701 518.53 71.9233 518.181 73.2591C518.181 73.4499 517.308 76.5032 517.134 77.6481C516.61 80.1289 515.912 82.4188 515.039 84.7087C515.388 82.9913 514.69 81.4647 514.166 79.3656C513.468 76.1215 512.945 74.0224 512.945 73.6407C512.77 72.4958 510.326 59.1379 509.453 56.0846C508.581 52.0773 507.359 48.2607 505.788 44.635C505.613 44.4442 504.391 41.7726 503.868 40.8184C502.122 37.7652 500.027 34.9028 497.234 32.8037C499.329 35.4753 501.947 45.2075 502.471 49.2149C503.518 54.3672 504.042 59.7104 504.391 65.0535C504.74 73.0683 507.01 80.7014 511.199 87.3803C511.199 87.3803 512.421 89.0978 516.087 89.0978C518.181 89.2886 520.101 88.5253 521.498 86.9987C523.069 85.0904 524.291 82.8005 525.163 80.3197C526.385 76.5032 526.909 72.4958 526.909 68.4884C527.084 65.4352 528.306 56.4663 528.655 54.558C529.702 54.9397 530.749 55.5121 531.797 56.0846C533.891 57.2296 535.811 58.947 536.859 61.237C537.382 57.8021 536.161 54.1764 533.891 51.6956Z" fill="white"/>
<path d="M510.156 51.5063C510.156 52.0788 510.505 52.6513 510.505 53.2238C510.505 53.2238 510.505 52.6513 510.505 52.4605C510.505 52.2696 510.331 51.5063 510.156 51.5063Z" fill="white"/>
<path d="M555.086 69.9575C555.086 69.9575 550.473 75.2807 550.473 79.203C550.473 82.5649 553.932 84.5261 554.958 85.2265C554.958 85.2265 559.57 82.5649 559.57 79.203C559.699 75.1406 555.086 69.9575 555.086 69.9575Z" fill="#774804"/>
<path d="M544.835 79.6235C544.835 79.6235 544.066 88.4487 547.525 91.1103C547.525 91.1103 548.679 92.7913 554.189 93.6318C554.189 93.6318 554.829 87.8884 552.779 85.507C552.779 85.6471 551.754 83.9661 544.835 79.6235Z" fill="#774804"/>
<path d="M544.067 90.5493C544.067 90.5493 543.17 100.215 547.015 103.157C547.015 103.157 548.296 104.978 554.19 105.958C554.19 105.958 554.831 99.7948 552.653 97.1332C552.653 97.1332 551.499 95.172 544.067 90.5493Z" fill="#774804"/>
<path d="M544.322 103.017C544.322 103.017 543.041 113.383 546.885 116.324C546.885 116.324 548.423 118.286 554.317 119.266C554.317 119.266 555.214 112.822 553.036 110.301C552.907 110.441 551.754 107.779 544.322 103.017Z" fill="#774804"/>
<path d="M543.04 115.766C543.04 115.766 542.399 126.552 546.244 129.494C546.244 129.494 548.166 131.595 554.06 132.576C554.06 132.576 554.829 125.571 552.65 123.05C552.65 122.91 550.6 120.108 543.04 115.766Z" fill="#774804"/>
<path d="M565.336 79.6235C565.336 79.6235 566.104 88.4487 562.645 91.1103C562.645 91.1103 561.491 92.7913 555.981 93.6318C555.981 93.6318 555.341 87.8884 557.391 85.507C557.391 85.6471 558.416 83.9661 565.336 79.6235Z" fill="#774804"/>
<path d="M565.977 90.5493C565.977 90.5493 566.874 100.215 563.03 103.157C563.03 103.157 561.749 104.978 555.982 105.958C555.982 105.958 555.342 99.7948 557.52 97.1332C557.52 97.1332 558.545 95.172 565.977 90.5493Z" fill="#774804"/>
<path d="M565.85 103.017C565.85 103.017 567.131 113.383 563.287 116.324C563.287 116.324 561.749 118.286 555.855 119.266C555.855 119.266 554.958 112.822 557.136 110.301C557.264 110.441 558.418 107.779 565.85 103.017Z" fill="#774804"/>
<path d="M567.132 115.766C567.132 115.766 567.773 126.552 563.929 129.494C563.929 129.494 562.006 131.595 556.112 132.576C556.112 132.576 555.343 125.571 557.522 123.05C557.522 122.91 559.444 120.108 567.132 115.766Z" fill="#774804"/>
<path d="M556.367 134.115H553.805V188.118H556.367V134.115Z" fill="#774804"/>
<path d="M546.755 60.2921C546.755 59.7318 546.37 59.3115 545.858 59.3115C545.345 59.3115 544.961 59.7318 544.961 60.2921V77.8024L546.627 78.9231V60.2921H546.755Z" fill="#774804"/>
<path d="M550.345 57.3511C550.345 56.7908 550.088 56.3706 549.576 56.2305C549.063 56.2305 548.679 56.5106 548.551 57.071C548.551 57.211 548.551 57.211 548.551 57.3511V78.2234C548.935 76.5424 549.576 75.0015 550.345 73.6007V57.3511Z" fill="#774804"/>
<path d="M553.931 52.4474C553.931 51.887 553.546 51.4668 553.034 51.4668C552.521 51.4668 552.137 51.887 552.137 52.4474V70.518C552.777 69.5374 553.418 68.6969 553.931 67.9965V52.4474Z" fill="#774804"/>
<path d="M563.414 60.2921C563.414 59.7318 563.798 59.3115 564.311 59.3115C564.824 59.3115 565.208 59.7318 565.208 60.2921V77.8024L563.542 78.9231V60.2921H563.414Z" fill="#774804"/>
<path d="M559.824 57.3511C559.824 56.7908 560.08 56.3706 560.593 56.2305C561.106 56.2305 561.49 56.5106 561.618 57.071C561.618 57.211 561.618 57.211 561.618 57.3511V78.2234C561.234 76.5424 560.593 75.0015 559.824 73.6007V57.3511Z" fill="#774804"/>
<path d="M556.238 52.4474C556.238 51.887 556.623 51.4668 557.135 51.4668C557.648 51.4668 558.032 51.887 558.032 52.4474V70.518C557.392 69.5374 556.751 68.6969 556.238 67.9965V52.4474Z" fill="#774804"/>
<path d="M81.0593 107.774C82.6438 107.774 83.7332 106.366 83.337 103.444C82.9409 101.279 82.1486 99.2224 80.9602 97.3823C80.9602 97.3823 78.8805 101.712 78.7815 103.877C78.6825 106.042 79.1776 107.774 81.0593 107.774Z" fill="#774804"/>
<path d="M82.2455 109.073C81.1562 110.913 80.661 112.753 82.2455 113.727C83.2359 114.377 85.2165 113.294 86.2069 110.588C86.9001 108.64 87.1972 106.475 87.0982 104.31C87.0982 104.418 83.3349 107.233 82.2455 109.073Z" fill="#774804"/>
<path d="M82.2455 117.084C81.1562 118.924 80.661 120.764 82.2455 121.738C83.2359 122.388 85.2165 121.305 86.2069 118.599C86.9001 116.651 87.1972 114.486 87.0982 112.321C87.0982 112.43 83.3349 115.244 82.2455 117.084Z" fill="#774804"/>
<path d="M82.3432 124.877C81.2538 126.718 80.7587 128.558 82.3432 129.532C83.3335 130.181 85.3142 129.099 86.3045 126.393C86.9978 124.444 87.2949 122.28 87.1958 120.115C87.1958 120.115 83.4326 123.037 82.3432 124.877Z" fill="#774804"/>
<path d="M82.3432 132.883C81.2538 134.723 80.7587 136.563 82.3432 137.538C83.3335 138.187 85.3142 137.105 86.3045 134.399C86.9978 132.342 87.2949 130.285 87.1958 128.121C87.1958 128.121 83.4326 131.043 82.3432 132.883Z" fill="#774804"/>
<path d="M80.0679 113.728C81.6524 112.646 81.1573 110.806 80.0679 109.074C78.9785 107.342 75.1162 104.419 75.1162 104.419C75.0172 106.584 75.3143 108.641 76.0075 110.697C76.9979 113.295 78.9785 114.486 80.0679 113.728Z" fill="#774804"/>
<path d="M80.0679 121.737C81.6524 120.655 81.1573 118.815 80.0679 117.083C78.9785 115.351 75.1162 112.428 75.1162 112.428C75.0172 114.593 75.3143 116.65 76.0075 118.706C76.9979 121.304 78.9785 122.386 80.0679 121.737Z" fill="#774804"/>
<path d="M79.9668 129.531C81.5514 128.449 81.0562 126.609 79.9668 124.877C78.8775 123.145 75.0152 120.223 75.0152 120.223C74.9161 122.387 75.3123 124.444 75.9065 126.501C76.8968 129.099 78.8775 130.181 79.9668 129.531Z" fill="#774804"/>
<path d="M79.9673 137.541C81.5518 136.459 81.0567 134.619 79.9673 132.887C78.8779 131.155 75.0156 128.232 75.0156 128.232C75.0156 130.397 75.3127 132.454 76.006 134.51C76.8973 137.108 78.8779 138.191 79.9673 137.541Z" fill="#774804"/>
<path d="M86.5068 137.217C86.5068 137.217 84.4271 151.505 82.1493 163.52V140.356H80.1687V163.628C77.8909 151.722 75.8112 137.217 75.8112 137.217C75.217 148.15 76.7025 159.082 80.1687 169.257V175.427H82.1493V169.257C85.7146 159.082 87.2001 148.15 86.5068 137.217Z" fill="#774804"/>
<path d="M168.69 81.6759C170.962 81.6759 172.524 79.6577 171.956 75.4661C171.388 72.3612 170.252 69.4116 168.548 66.7725C168.548 66.7725 165.565 72.9822 165.423 76.0871C165.281 79.192 165.991 81.6759 168.69 81.6759Z" fill="white"/>
<path d="M170.391 83.5387C168.829 86.1779 168.119 88.817 170.391 90.2142C171.812 91.1457 174.652 89.5932 176.072 85.7121C177.066 82.9178 177.492 79.8129 177.35 76.708C177.35 76.8633 171.954 80.8996 170.391 83.5387Z" fill="white"/>
<path d="M170.391 95.0295C168.829 97.6686 168.119 100.308 170.391 101.705C171.812 102.636 174.652 101.084 176.072 97.2029C177.066 94.4085 177.492 91.3036 177.35 88.1987C177.35 88.354 171.954 92.3903 170.391 95.0295Z" fill="white"/>
<path d="M170.528 106.207C168.966 108.846 168.256 111.485 170.528 112.882C171.948 113.814 174.789 112.261 176.209 108.38C177.203 105.586 177.629 102.481 177.487 99.376C177.487 99.376 172.09 103.568 170.528 106.207Z" fill="white"/>
<path d="M170.528 117.691C168.966 120.33 168.256 122.969 170.528 124.367C171.948 125.298 174.789 123.746 176.209 119.864C177.203 116.915 177.629 113.965 177.487 110.86C177.487 110.86 172.09 115.052 170.528 117.691Z" fill="white"/>
<path d="M167.264 90.2162C169.537 88.6638 168.827 86.0246 167.264 83.5407C165.702 81.0568 160.163 76.8652 160.163 76.8652C160.021 79.9701 160.447 82.9197 161.442 85.8694C162.862 89.5952 165.702 91.3029 167.264 90.2162Z" fill="white"/>
<path d="M167.264 101.702C169.537 100.15 168.827 97.5105 167.264 95.0266C165.702 92.5427 160.163 88.3511 160.163 88.3511C160.021 91.456 160.447 94.4056 161.442 97.3552C162.862 101.081 165.702 102.634 167.264 101.702Z" fill="white"/>
<path d="M167.123 112.881C169.395 111.328 168.685 108.689 167.123 106.205C165.561 103.721 160.022 99.5298 160.022 99.5298C159.88 102.635 160.448 105.584 161.3 108.534C162.72 112.26 165.561 113.812 167.123 112.881Z" fill="white"/>
<path d="M167.121 124.369C169.393 122.816 168.683 120.177 167.121 117.693C165.558 115.209 160.02 111.018 160.02 111.018C160.02 114.122 160.446 117.072 161.44 120.022C162.718 123.748 165.558 125.3 167.121 124.369Z" fill="white"/>
<path d="M176.502 123.906C176.502 123.906 173.519 144.398 170.253 161.63V128.408H167.412V161.786C164.146 144.709 161.163 123.906 161.163 123.906C160.311 139.586 162.442 155.265 167.412 169.858V178.707H170.253V169.858C175.365 155.265 177.496 139.586 176.502 123.906Z" fill="white"/>
<path d="M52.9645 145.477H50.4017V162.287L48.4797 155.983C48.0952 154.722 46.8139 154.022 45.7887 154.442C45.4043 154.582 45.1481 154.722 44.8918 155.003L34 167.47L45.7887 162.007L50.5299 172.373V179.797H53.0926L52.9645 145.477Z" fill="#774804"/>
<path d="M48.8661 101.21H50.1475C50.66 101.21 51.0445 101.631 51.0445 102.191V102.891C51.0445 103.452 50.66 103.872 50.1475 103.872H48.8661C48.3536 103.872 47.9691 103.452 47.9691 102.891V102.191C47.841 101.771 48.3536 101.21 48.8661 101.21Z" fill="#774804"/>
<path d="M45.2759 101.21H46.5573C47.0698 101.21 47.4542 101.631 47.4542 102.191V102.891C47.4542 103.452 47.0698 103.872 46.5573 103.872H45.2759C44.7633 103.872 44.3789 103.452 44.3789 102.891V102.191C44.3789 101.771 44.7633 101.21 45.2759 101.21Z" fill="#774804"/>
<path d="M49.1196 97.7085H50.1447C50.6573 97.7085 51.0417 98.1287 51.0417 98.6891V99.5296C51.0417 100.09 50.6573 100.51 50.1447 100.51H49.1196C48.6071 100.51 48.2227 100.09 48.2227 99.5296V98.6891C48.2227 98.1287 48.6071 97.7085 49.1196 97.7085Z" fill="#774804"/>
<path d="M45.663 97.8496H46.6881C47.2006 97.8496 47.5851 98.2699 47.5851 98.8302V99.6707C47.5851 100.231 47.2006 100.651 46.6881 100.651H45.663C45.1504 100.651 44.766 100.231 44.766 99.6707V98.8302C44.6379 98.2699 45.1504 97.8496 45.663 97.8496Z" fill="#774804"/>
<path d="M48.9911 104.714H50.2725C50.785 104.714 51.1695 105.135 51.1695 105.695V106.395C51.1695 106.956 50.785 107.376 50.2725 107.376H48.9911C48.4785 107.376 48.0941 106.956 48.0941 106.395V105.695C47.966 105.135 48.4785 104.714 48.9911 104.714Z" fill="#774804"/>
<path d="M45.2759 104.712H46.5573C47.0698 104.712 47.4542 105.132 47.4542 105.692V106.393C47.4542 106.953 47.0698 107.373 46.5573 107.373H45.2759C44.7633 107.373 44.3789 106.953 44.3789 106.393V105.692C44.3789 105.132 44.7633 104.712 45.2759 104.712Z" fill="#774804"/>
<path d="M48.8661 108.075H50.1475C50.66 108.075 51.0445 108.495 51.0445 109.055V109.756C51.0445 110.316 50.66 110.736 50.1475 110.736H48.8661C48.3536 110.736 47.9691 110.316 47.9691 109.756V109.055C47.841 108.495 48.3536 108.075 48.8661 108.075Z" fill="#774804"/>
<path d="M47.455 109.897V109.196C47.455 108.636 47.0706 108.216 46.558 108.216H45.2766C44.8922 108.216 44.636 108.356 44.5078 108.776C44.7641 109.336 45.2766 110.177 45.6611 111.017H46.558C46.9424 110.877 47.455 110.457 47.455 109.897Z" fill="#774804"/>
<path d="M48.9911 111.436H50.2725C50.785 111.436 51.1695 111.856 51.1695 112.416V113.117C51.1695 113.677 50.785 114.097 50.2725 114.097H48.9911C48.4785 114.097 48.0941 113.677 48.0941 113.117V112.416C47.966 111.856 48.4785 111.436 48.9911 111.436Z" fill="#774804"/>
<path d="M47.4549 113.258V112.557C47.4549 111.997 47.0704 111.577 46.5579 111.577H45.7891C46.1735 112.417 46.5579 113.398 46.8142 114.238C47.1986 113.958 47.4549 113.678 47.4549 113.258Z" fill="#774804"/>
<path d="M48.9911 114.798H50.2725C50.785 114.798 51.1695 115.219 51.1695 115.779V116.479C51.1695 117.04 50.785 117.46 50.2725 117.46H48.9911C48.4785 117.46 48.0941 117.04 48.0941 116.479V115.779C47.966 115.359 48.4785 114.798 48.9911 114.798Z" fill="#774804"/>
<path d="M48.9907 121.103H50.2721C50.7847 121.103 51.1691 120.683 51.1691 120.122V119.422C51.1691 118.862 50.7847 118.441 50.2721 118.441H48.9907C48.6063 118.441 48.2219 118.722 48.0938 119.142C48.2219 119.702 48.35 120.403 48.4782 121.103C48.6063 120.963 48.7344 121.103 48.9907 121.103Z" fill="#774804"/>
<path d="M50.1463 124.324C50.6588 124.324 51.0432 123.904 51.0432 123.344V122.503C51.0432 121.943 50.6588 121.522 50.1463 121.522H48.8649C48.7367 121.522 48.6086 121.522 48.4805 121.663C48.6086 122.503 48.7367 123.484 48.993 124.464L50.1463 124.324Z" fill="#774804"/>
<path d="M49.6336 127.827H50.1462C50.6588 127.827 51.0432 127.406 51.0432 126.846V126.146C51.0432 125.585 50.6588 125.165 50.1462 125.165H49.1211C49.2492 125.725 49.2492 126.286 49.3774 126.846C49.5055 127.406 49.5055 127.406 49.6336 127.827Z" fill="#774804"/>
<path d="M51.1712 130.068V129.367C51.1712 128.807 50.7868 128.387 50.2743 128.387H49.7617C49.8899 129.367 50.1461 130.348 50.2743 131.188C50.7868 131.048 51.1712 130.628 51.1712 130.068Z" fill="#774804"/>
<path d="M51.1712 133.431V132.73C51.1712 132.17 50.7868 131.75 50.4023 131.75C50.6586 132.73 50.7868 133.571 50.9149 134.131C51.043 133.991 51.1712 133.711 51.1712 133.431Z" fill="#774804"/>
<path d="M49.1212 94.6274H50.5307C50.9151 94.6274 51.1714 94.9076 51.1714 95.3279V96.5886C51.1714 97.0088 50.9151 97.289 50.5307 97.289H49.1212C48.7367 97.289 48.4805 97.0088 48.4805 96.5886V95.3279C48.4805 94.9076 48.7367 94.6274 49.1212 94.6274Z" fill="#774804"/>
<path d="M49.2501 91.5444H50.4033C50.7877 91.5444 51.044 91.8246 51.044 92.2448V93.3655C51.044 93.7858 50.7877 94.0659 50.4033 94.0659H49.2501C48.8657 94.0659 48.6094 93.7858 48.6094 93.3655V92.2448C48.6094 91.8246 48.8657 91.5444 49.2501 91.5444Z" fill="#774804"/>
<path d="M45.918 91.4058H47.0713C47.4557 91.4058 47.712 91.6859 47.712 92.1062V93.2268C47.712 93.6471 47.4557 93.9272 47.0713 93.9272H45.918C45.5336 93.9272 45.2773 93.6471 45.2773 93.2268V92.1062C45.4055 91.6859 45.6618 91.4058 45.918 91.4058Z" fill="#774804"/>
<path d="M46.6876 88.3223H47.7127C48.0971 88.3223 48.3534 88.6024 48.3534 89.0227V90.0033C48.3534 90.4235 48.0971 90.7037 47.7127 90.7037H46.6876C46.3032 90.7037 46.0469 90.4235 46.0469 90.0033V89.0227C46.0469 88.7425 46.3032 88.3223 46.6876 88.3223Z" fill="#774804"/>
<path d="M49.504 88.1836H50.5291C50.9135 88.1836 51.1698 88.4638 51.1698 88.884V89.8646C51.1698 90.2848 50.9135 90.565 50.5291 90.565H49.504C49.1196 90.565 48.8633 90.2848 48.8633 89.8646V88.884C48.8633 88.6038 49.1196 88.1836 49.504 88.1836Z" fill="#774804"/>
<path d="M49.6329 85.6621H50.4017C50.7861 85.6621 51.0424 85.9423 51.0424 86.3625V86.9229C51.0424 87.3431 50.7861 87.6233 50.4017 87.6233H49.6329C49.2485 87.6233 48.9922 87.3431 48.9922 86.9229V86.3625C49.1203 85.9423 49.3766 85.6621 49.6329 85.6621Z" fill="#774804"/>
<path d="M47.0704 85.6621H47.8392C48.2236 85.6621 48.4799 85.9423 48.4799 86.3625V86.9229C48.4799 87.3431 48.2236 87.6233 47.8392 87.6233H47.0704C46.686 87.6233 46.4297 87.3431 46.4297 86.9229V86.3625C46.4297 85.9423 46.686 85.6621 47.0704 85.6621Z" fill="#774804"/>
<path d="M47.9688 83.1401H48.4814C48.8658 83.1401 49.1221 83.4203 49.1221 83.8405V84.4009C49.1221 84.8211 48.8658 85.1013 48.4814 85.1013H47.9688C47.5844 85.1013 47.3281 84.8211 47.3281 84.4009V83.8405C47.3281 83.4203 47.5844 83.1401 47.9688 83.1401Z" fill="#774804"/>
<path d="M50.0157 83.1401H50.5282C50.9127 83.1401 51.1689 83.4203 51.1689 83.8405V84.4009C51.1689 84.8211 50.9127 85.1013 50.5282 85.1013H50.0157C49.6313 85.1013 49.375 84.8211 49.375 84.4009V83.8405C49.375 83.4203 49.7594 83.1401 50.0157 83.1401Z" fill="#774804"/>
<path d="M45.6602 94.6274H47.0697C47.4542 94.6274 47.7104 94.9076 47.7104 95.3279V96.5886C47.7104 97.0088 47.4542 97.289 47.0697 97.289H45.6602C45.2758 97.289 45.0195 97.0088 45.0195 96.5886V95.3279C45.0195 94.9076 45.4039 94.6274 45.6602 94.6274Z" fill="#774804"/>
<path d="M50.4008 81.7397H50.9134C51.0415 81.7397 51.1696 81.8798 51.1696 82.0199V82.3001C51.1696 82.4402 51.0415 82.5802 50.9134 82.5802H50.4008C50.2727 82.5802 50.1445 82.4402 50.1445 82.3001V82.0199C50.1445 81.8798 50.2727 81.7397 50.4008 81.7397Z" fill="#774804"/>
<path d="M48.6078 81.7397H49.1204C49.2485 81.7397 49.3767 81.8798 49.3767 82.0199V82.3001C49.3767 82.4402 49.2485 82.5802 49.1204 82.5802H48.6078C48.4797 82.5802 48.3516 82.4402 48.3516 82.3001V82.0199C48.3516 81.8798 48.4797 81.7397 48.6078 81.7397Z" fill="#774804"/>
<path d="M49.3774 80.1982H49.8899C50.0181 80.1982 50.1462 80.3383 50.1462 80.4784V80.7586C50.1462 80.8987 50.0181 81.0387 49.8899 81.0387H49.3774C49.2492 81.0387 49.1211 80.8987 49.1211 80.7586V80.4784C49.1211 80.3383 49.2492 80.1982 49.3774 80.1982Z" fill="#774804"/>
<path d="M50.787 78.7974H51.0433C51.1714 78.7974 51.2996 78.9374 51.2996 79.0775V79.2176C51.2996 79.3577 51.1714 79.4978 51.0433 79.4978H50.787C50.6589 79.4978 50.5307 79.3577 50.5307 79.2176V79.0775C50.4026 79.0775 50.5307 78.7974 50.787 78.7974Z" fill="#774804"/>
<path d="M52.7099 101.21H53.9912C54.5038 101.21 54.8882 101.631 54.8882 102.191V102.891C54.8882 103.452 54.5038 103.872 53.9912 103.872H52.7099C52.1973 103.872 51.8129 103.452 51.8129 102.891V102.191C51.6847 101.771 52.1973 101.21 52.7099 101.21Z" fill="#774804"/>
<path d="M56.4243 101.21H57.7057C58.2183 101.21 58.6027 101.631 58.6027 102.191V102.891C58.6027 103.452 58.2183 103.872 57.7057 103.872H56.4243C55.9118 103.872 55.5273 103.452 55.5273 102.891V102.191C55.5273 101.771 55.9118 101.21 56.4243 101.21Z" fill="#774804"/>
<path d="M52.5806 97.7085H53.6057C54.1182 97.7085 54.5026 98.1287 54.5026 98.6891V99.5296C54.5026 100.09 54.1182 100.51 53.6057 100.51H52.5806C52.068 100.51 51.6836 100.09 51.6836 99.5296V98.6891C51.6836 98.1287 52.068 97.7085 52.5806 97.7085Z" fill="#774804"/>
<path d="M56.2954 97.8496H57.3205C57.8331 97.8496 58.2175 98.2699 58.2175 98.8302V99.6707C58.2175 100.231 57.8331 100.651 57.3205 100.651H56.2954C55.7828 100.651 55.3984 100.231 55.3984 99.6707V98.8302C55.3984 98.2699 55.7828 97.8496 56.2954 97.8496Z" fill="#774804"/>
<path d="M52.7095 104.712H53.9909C54.5034 104.712 54.8878 105.132 54.8878 105.692V106.393C54.8878 106.953 54.5034 107.373 53.9909 107.373H52.7095C52.1969 107.373 51.8125 106.953 51.8125 106.393V105.692C51.8125 105.132 52.1969 104.712 52.7095 104.712Z" fill="#774804"/>
<path d="M56.4243 104.712H57.7057C58.2183 104.712 58.6027 105.132 58.6027 105.692V106.393C58.6027 106.953 58.2183 107.373 57.7057 107.373H56.4243C55.9118 107.373 55.5273 106.953 55.5273 106.393V105.692C55.5273 105.132 55.9118 104.712 56.4243 104.712Z" fill="#774804"/>
<path d="M52.581 108.075H53.8623C54.3749 108.075 54.7593 108.495 54.7593 109.055V109.756C54.7593 110.316 54.3749 110.736 53.8623 110.736H52.581C52.0684 110.736 51.684 110.316 51.684 109.756V109.055C51.5558 108.495 52.0684 108.075 52.581 108.075Z" fill="#774804"/>
<path d="M56.4243 108.075H57.7057C58.2183 108.075 58.6027 108.495 58.6027 109.055V109.756C58.6027 110.316 58.2183 110.736 57.7057 110.736H56.4243C55.9118 110.736 55.5273 110.316 55.5273 109.756V109.055C55.5273 108.495 55.9118 108.075 56.4243 108.075Z" fill="#774804"/>
<path d="M52.8348 111.436H54.1162C54.6288 111.436 55.0132 111.856 55.0132 112.416V113.117C55.0132 113.677 54.6288 114.097 54.1162 114.097H52.8348C52.3223 114.097 51.9379 113.677 51.9379 113.117V112.416C51.8097 111.856 52.3223 111.436 52.8348 111.436Z" fill="#774804"/>
<path d="M56.4243 111.436H57.7057C58.2183 111.436 58.6027 111.856 58.6027 112.416V113.117C58.6027 113.677 58.2183 114.097 57.7057 114.097H56.4243C55.9118 114.097 55.5273 113.677 55.5273 113.117V112.416C55.5273 111.856 55.9118 111.436 56.4243 111.436Z" fill="#774804"/>
<path d="M52.581 114.798H53.8623C54.3749 114.798 54.7593 115.219 54.7593 115.779V116.479C54.7593 117.04 54.3749 117.46 53.8623 117.46H52.581C52.0684 117.46 51.684 117.04 51.684 116.479V115.779C51.5558 115.359 52.0684 114.798 52.581 114.798Z" fill="#774804"/>
<path d="M55.2695 115.919V116.759C55.2695 117.179 55.5258 117.6 55.9102 117.74C56.4228 116.759 56.9353 115.919 57.576 115.078C57.4479 115.078 57.4479 115.078 57.3197 115.078H56.0384C55.6539 115.078 55.2695 115.498 55.2695 115.919Z" fill="#774804"/>
<path d="M52.581 118.162H53.8623C54.3749 118.162 54.7593 118.582 54.7593 119.142V119.843C54.7593 120.403 54.3749 120.823 53.8623 120.823H52.581C52.0684 120.823 51.684 120.403 51.684 119.843V119.142C51.5558 118.722 52.0684 118.162 52.581 118.162Z" fill="#774804"/>
<path d="M54.3745 121.803C54.2464 121.663 53.9901 121.522 53.7338 121.522H52.5806C52.068 121.522 51.6836 121.943 51.6836 122.503V123.344C51.6836 123.904 52.068 124.324 52.5806 124.324H53.7338C53.8619 123.484 54.1182 122.503 54.3745 121.803Z" fill="#774804"/>
<path d="M53.4768 125.024H52.4517C51.9391 125.024 51.5547 125.444 51.5547 126.004V126.705C51.5547 127.265 51.9391 127.685 52.4517 127.685H52.7079C53.0924 126.845 53.3486 125.864 53.4768 125.024Z" fill="#774804"/>
<path d="M52.7079 128.387H52.4517C51.9391 128.387 51.5547 128.807 51.5547 129.367V130.208C51.5547 130.628 51.811 130.908 52.0672 131.048C52.3235 130.208 52.4517 129.227 52.7079 128.387Z" fill="#774804"/>
<path d="M51.9391 131.889C51.6828 132.029 51.5547 132.309 51.5547 132.729V133.57C51.6828 133.009 51.811 132.449 51.9391 131.889Z" fill="#774804"/>
<path d="M52.5821 94.6274H53.9916C54.376 94.6274 54.6323 94.9076 54.6323 95.3279V96.5886C54.6323 97.0088 54.376 97.289 53.9916 97.289H52.5821C52.1977 97.289 51.9414 97.0088 51.9414 96.5886V95.3279C51.9414 94.9076 52.1977 94.6274 52.5821 94.6274Z" fill="#774804"/>
<path d="M52.4532 91.4058H53.6064C53.9909 91.4058 54.2471 91.6859 54.2471 92.1062V93.2268C54.2471 93.6471 53.9909 93.9272 53.6064 93.9272H52.4532C52.0688 93.9272 51.8125 93.6471 51.8125 93.2268V92.1062C51.8125 91.6859 52.0688 91.4058 52.4532 91.4058Z" fill="#774804"/>
<path d="M55.5274 91.4058H56.6807C57.0651 91.4058 57.3214 91.6859 57.3214 92.1062V93.2268C57.3214 93.6471 57.0651 93.9272 56.6807 93.9272H55.5274C55.143 93.9272 54.8867 93.6471 54.8867 93.2268V92.1062C54.8867 91.6859 55.143 91.4058 55.5274 91.4058Z" fill="#774804"/>
<path d="M55.3985 88.604H56.4236C56.808 88.604 57.0643 88.8842 57.0643 89.3044V90.285C57.0643 90.7052 56.808 90.9854 56.4236 90.9854H55.3985C55.0141 90.9854 54.7578 90.7052 54.7578 90.285V89.3044C54.7578 88.8842 55.0141 88.604 55.3985 88.604Z" fill="#774804"/>
<path d="M52.5821 88.3223H53.6072C53.9916 88.3223 54.2479 88.6024 54.2479 89.0227V90.0033C54.2479 90.4235 53.9916 90.7037 53.6072 90.7037H52.5821C52.1977 90.7037 51.9414 90.4235 51.9414 90.0033V89.0227C51.9414 88.7425 52.1977 88.3223 52.5821 88.3223Z" fill="#774804"/>
<path d="M52.3243 85.6621H53.0931C53.4775 85.6621 53.7338 85.9423 53.7338 86.3625V86.9229C53.7338 87.3431 53.4775 87.6233 53.0931 87.6233H52.3243C51.9399 87.6233 51.6836 87.3431 51.6836 86.9229V86.3625C51.6836 85.9423 52.068 85.6621 52.3243 85.6621Z" fill="#774804"/>
<path d="M55.0157 85.8008H55.7845C56.1689 85.8008 56.4252 86.0809 56.4252 86.5012V87.0615C56.4252 87.4818 56.1689 87.7619 55.7845 87.7619H55.0157C54.6313 87.7619 54.375 87.4818 54.375 87.0615V86.5012C54.375 86.221 54.6313 85.8008 55.0157 85.8008Z" fill="#774804"/>
<path d="M54.504 83.1401H55.0165C55.4009 83.1401 55.6572 83.4203 55.6572 83.8405V84.4009C55.6572 84.8211 55.4009 85.1013 55.0165 85.1013H54.504C54.1196 85.1013 53.8633 84.8211 53.8633 84.4009V83.8405C53.8633 83.4203 54.2477 83.1401 54.504 83.1401Z" fill="#774804"/>
<path d="M52.3243 83.1401H52.8368C53.2213 83.1401 53.4775 83.4203 53.4775 83.8405V84.4009C53.4775 84.8211 53.2213 85.1013 52.8368 85.1013H52.3243C51.9399 85.1013 51.6836 84.8211 51.6836 84.4009V83.8405C51.6836 83.4203 51.9399 83.1401 52.3243 83.1401Z" fill="#774804"/>
<path d="M55.9102 94.6274H57.3197C57.7042 94.6274 57.9604 94.9076 57.9604 95.3279V96.5886C57.9604 97.0088 57.7042 97.289 57.3197 97.289H55.9102C55.5258 97.289 55.2695 97.0088 55.2695 96.5886V95.3279C55.2695 94.9076 55.5258 94.6274 55.9102 94.6274Z" fill="#774804"/>
<path d="M52.0688 81.7397H52.5813C52.7095 81.7397 52.8376 81.8798 52.8376 82.0199V82.3001C52.8376 82.4402 52.7095 82.5802 52.5813 82.5802H52.0688C51.9406 82.5802 51.8125 82.4402 51.8125 82.3001V82.0199C51.8125 81.8798 51.9406 81.7397 52.0688 81.7397Z" fill="#774804"/>
<path d="M51.2993 80.1982H51.8118C51.9399 80.1982 52.0681 80.3383 52.0681 80.4784V80.7586C52.0681 80.8987 51.9399 81.0387 51.8118 81.0387H51.2993C51.1711 81.0387 51.043 80.8987 51.043 80.7586V80.4784C51.043 80.3383 51.1711 80.1982 51.2993 80.1982Z" fill="#774804"/>
<path d="M53.8612 81.7397H54.3738C54.5019 81.7397 54.6301 81.8798 54.6301 82.0199V82.3001C54.6301 82.4402 54.5019 82.5802 54.3738 82.5802H53.8612C53.7331 82.5802 53.605 82.4402 53.605 82.3001V82.0199C53.4768 81.8798 53.605 81.7397 53.8612 81.7397Z" fill="#774804"/>
<path d="M52.8383 80.1982H53.3509C53.479 80.1982 53.6071 80.3383 53.6071 80.4784V80.7586C53.6071 80.8987 53.479 81.0387 53.3509 81.0387H52.8383C52.7102 81.0387 52.582 80.8987 52.582 80.7586V80.4784C52.582 80.3383 52.7102 80.1982 52.8383 80.1982Z" fill="#774804"/>
<path d="M51.9399 78.7979H52.1961C52.3243 78.7979 52.4524 78.9379 52.4524 79.078V79.2181C52.4524 79.3582 52.3243 79.4983 52.1961 79.4983H51.9399C51.8117 79.4983 51.6836 79.3582 51.6836 79.2181V79.078C51.6836 79.078 51.8117 78.7979 51.9399 78.7979Z" fill="#774804"/>
<path d="M64.7528 115.079C63.4715 113.538 61.2931 113.258 59.7554 114.378C58.9866 115.219 58.3459 116.059 57.7052 117.04C56.6801 118.861 55.7831 120.822 55.2706 122.783C55.2706 122.923 54.2455 126.705 53.9892 127.546C53.9892 127.686 53.4767 129.927 53.2204 130.908C53.2204 131.048 52.5797 133.289 52.4515 134.13C52.0671 135.951 51.5546 137.632 50.9139 139.313C51.1702 138.052 50.6576 136.931 50.2732 135.391C49.7606 133.009 49.3762 131.468 49.3762 131.188C49.2481 130.348 47.4541 120.542 46.8134 118.3C46.1728 115.359 45.2758 112.557 44.1225 109.896C43.9944 109.755 43.0974 107.794 42.713 107.094C41.4316 104.853 39.894 102.751 37.8438 101.21C39.3814 103.172 41.3035 110.316 41.6879 113.258C42.4567 117.04 42.8412 120.962 43.0974 124.884C43.3537 130.768 45.0195 136.371 48.0948 141.274C48.0948 141.274 48.9918 142.535 51.6827 142.535C53.2204 142.675 54.6299 142.115 55.655 140.994C56.8082 139.593 57.7052 137.912 58.3459 136.091C59.2429 133.289 59.6273 130.348 59.6273 127.406C59.7554 125.165 60.6524 118.581 60.9087 117.18C61.6775 117.46 62.4463 117.88 63.2152 118.3C64.7528 119.141 66.1624 120.402 66.9312 122.083C67.3156 119.561 66.4186 116.9 64.7528 115.079Z" fill="#774804"/>
<path d="M47.3281 114.939C47.3281 115.36 47.5844 115.78 47.5844 116.2C47.5844 116.2 47.5844 115.78 47.5844 115.64C47.5844 115.5 47.4563 114.939 47.3281 114.939Z" fill="#774804"/>
<path d="M25.8344 90.9194H22.3433V113.819L19.7249 105.231C19.2013 103.514 17.4557 102.56 16.0592 103.132C15.5356 103.323 15.1865 103.514 14.8374 103.896L0 120.879L16.0592 113.437L22.5178 127.558V175.001H25.8344V90.9194Z" fill="white"/>
<path d="M20.2529 30.6177H21.9985C22.6967 30.6177 23.2204 31.1902 23.2204 31.9535V32.9076C23.2204 33.6709 22.6967 34.2434 21.9985 34.2434H20.2529C19.5547 34.2434 19.031 33.6709 19.031 32.9076V31.9535C18.8565 31.381 19.5547 30.6177 20.2529 30.6177Z" fill="white"/>
<path d="M15.3586 30.6177H17.1042C17.8024 30.6177 18.3261 31.1902 18.3261 31.9535V32.9076C18.3261 33.6709 17.8024 34.2434 17.1042 34.2434H15.3586C14.6604 34.2434 14.1367 33.6709 14.1367 32.9076V31.9535C14.1367 31.381 14.6604 30.6177 15.3586 30.6177Z" fill="white"/>
<path d="M20.5969 25.8477H21.9934C22.6916 25.8477 23.2152 26.4201 23.2152 27.1834V28.3284C23.2152 29.0917 22.6916 29.6642 21.9934 29.6642H20.5969C19.8987 29.6642 19.375 29.0917 19.375 28.3284V27.1834C19.375 26.4201 19.8987 25.8477 20.5969 25.8477Z" fill="white"/>
<path d="M15.8897 26.0391H17.2861C17.9843 26.0391 18.508 26.6115 18.508 27.3749V28.5198C18.508 29.2831 17.9843 29.8556 17.2861 29.8556H15.8897C15.1914 29.8556 14.6678 29.2831 14.6678 28.5198V27.3749C14.4932 26.6115 15.1914 26.0391 15.8897 26.0391Z" fill="white"/>
<path d="M20.4209 35.3916H22.1665C22.8647 35.3916 23.3884 35.9641 23.3884 36.7274V37.6815C23.3884 38.4448 22.8647 39.0173 22.1665 39.0173H20.4209C19.7227 39.0173 19.199 38.4448 19.199 37.6815V36.7274C19.0244 35.9641 19.7227 35.3916 20.4209 35.3916Z" fill="white"/>
<path d="M15.3586 35.3877H17.1042C17.8024 35.3877 18.3261 35.9602 18.3261 36.7235V37.6776C18.3261 38.4409 17.8024 39.0134 17.1042 39.0134H15.3586C14.6604 39.0134 14.1367 38.4409 14.1367 37.6776V36.7235C14.1367 35.9602 14.6604 35.3877 15.3586 35.3877Z" fill="white"/>
<path d="M20.2529 39.9697H21.9985C22.6967 39.9697 23.2204 40.5422 23.2204 41.3055V42.2597C23.2204 43.023 22.6967 43.5954 21.9985 43.5954H20.2529C19.5547 43.5954 19.031 43.023 19.031 42.2597V41.3055C18.8565 40.5422 19.5547 39.9697 20.2529 39.9697Z" fill="white"/>
<path d="M18.3273 42.4515V41.4974C18.3273 40.7341 17.8036 40.1616 17.1054 40.1616H15.3598C14.8362 40.1616 14.4871 40.3524 14.3125 40.9249C14.6616 41.6882 15.3598 42.8332 15.8835 43.9782H17.1054C17.6291 43.7873 18.3273 43.2149 18.3273 42.4515Z" fill="white"/>
<path d="M20.4209 44.5483H22.1665C22.8647 44.5483 23.3884 45.1208 23.3884 45.8841V46.8383C23.3884 47.6016 22.8647 48.1741 22.1665 48.1741H20.4209C19.7227 48.1741 19.199 47.6016 19.199 46.8383V45.8841C19.0244 45.1208 19.7227 44.5483 20.4209 44.5483Z" fill="white"/>
<path d="M18.3278 47.0302V46.076C18.3278 45.3127 17.8042 44.7402 17.1059 44.7402H16.0586C16.5823 45.8852 17.1059 47.221 17.4551 48.366C17.9787 47.9843 18.3278 47.6026 18.3278 47.0302Z" fill="white"/>
<path d="M20.4209 49.1279H22.1665C22.8647 49.1279 23.3884 49.7004 23.3884 50.4637V51.4179C23.3884 52.1812 22.8647 52.7537 22.1665 52.7537H20.4209C19.7227 52.7537 19.199 52.1812 19.199 51.4179V50.4637C19.0244 49.8912 19.7227 49.1279 20.4209 49.1279Z" fill="white"/>
<path d="M20.4211 57.7151H22.1667C22.8649 57.7151 23.3886 57.1426 23.3886 56.3793V55.4252C23.3886 54.6618 22.8649 54.0894 22.1667 54.0894H20.4211C19.8974 54.0894 19.3738 54.471 19.1992 55.0435C19.3738 55.8068 19.5483 56.7609 19.7229 57.7151C19.8974 57.5242 20.072 57.7151 20.4211 57.7151Z" fill="white"/>
<path d="M21.9958 62.1041C22.694 62.1041 23.2177 61.5317 23.2177 60.7683V59.6234C23.2177 58.8601 22.694 58.2876 21.9958 58.2876H20.2502C20.0757 58.2876 19.9011 58.2876 19.7266 58.4784C19.9011 59.6234 20.0757 60.9592 20.4248 62.295L21.9958 62.1041Z" fill="white"/>
<path d="M21.2959 66.8757H21.9941C22.6923 66.8757 23.216 66.3032 23.216 65.5399V64.5858C23.216 63.8225 22.6923 63.25 21.9941 63.25H20.5977C20.7722 64.0133 20.7722 64.7766 20.9468 65.5399C21.1213 66.3032 21.1213 66.3032 21.2959 66.8757Z" fill="white"/>
<path d="M23.3928 69.9296V68.9754C23.3928 68.2121 22.8691 67.6396 22.1709 67.6396H21.4727C21.6472 68.9754 21.9963 70.3112 22.1709 71.4562C22.8691 71.2654 23.3928 70.6929 23.3928 69.9296Z" fill="white"/>
<path d="M23.3911 74.5102V73.556C23.3911 72.7927 22.8674 72.2202 22.3438 72.2202C22.6929 73.556 22.8674 74.701 23.042 75.4643C23.2165 75.2735 23.3911 74.8918 23.3911 74.5102Z" fill="white"/>
<path d="M20.5993 21.6504H22.5195C23.0431 21.6504 23.3923 22.032 23.3923 22.6045V24.322C23.3923 24.8945 23.0431 25.2761 22.5195 25.2761H20.5993C20.0757 25.2761 19.7266 24.8945 19.7266 24.322V22.6045C19.7266 22.032 20.0757 21.6504 20.5993 21.6504Z" fill="white"/>
<path d="M20.7751 17.4497H22.3461C22.8698 17.4497 23.2189 17.8314 23.2189 18.4038V19.9305C23.2189 20.5029 22.8698 20.8846 22.3461 20.8846H20.7751C20.2515 20.8846 19.9023 20.5029 19.9023 19.9305V18.4038C19.9023 17.8314 20.2515 17.4497 20.7751 17.4497Z" fill="white"/>
<path d="M16.2361 17.2617H17.8071C18.3308 17.2617 18.6799 17.6434 18.6799 18.2159V19.7425C18.6799 20.315 18.3308 20.6966 17.8071 20.6966H16.2361C15.7124 20.6966 15.3633 20.315 15.3633 19.7425V18.2159C15.5378 17.6434 15.887 17.2617 16.2361 17.2617Z" fill="white"/>
<path d="M17.2829 13.062H18.6794C19.2031 13.062 19.5522 13.4437 19.5522 14.0161V15.3519C19.5522 15.9244 19.2031 16.3061 18.6794 16.3061H17.2829C16.7593 16.3061 16.4102 15.9244 16.4102 15.3519V14.0161C16.4102 13.6345 16.7593 13.062 17.2829 13.062Z" fill="white"/>
<path d="M21.1189 12.8721H22.5153C23.039 12.8721 23.3881 13.2537 23.3881 13.8262V15.162C23.3881 15.7345 23.039 16.1161 22.5153 16.1161H21.1189C20.5952 16.1161 20.2461 15.7345 20.2461 15.162V13.8262C20.2461 13.4446 20.5952 12.8721 21.1189 12.8721Z" fill="white"/>
<path d="M21.2947 9.43701H22.342C22.8657 9.43701 23.2148 9.81867 23.2148 10.3911V11.1545C23.2148 11.7269 22.8657 12.1086 22.342 12.1086H21.2947C20.771 12.1086 20.4219 11.7269 20.4219 11.1545V10.3911C20.5964 9.81867 20.9455 9.43701 21.2947 9.43701Z" fill="white"/>
<path d="M17.8064 9.43701H18.8537C19.3774 9.43701 19.7265 9.81867 19.7265 10.3911V11.1545C19.7265 11.7269 19.3774 12.1086 18.8537 12.1086H17.8064C17.2827 12.1086 16.9336 11.7269 16.9336 11.1545V10.3911C16.9336 9.81867 17.2827 9.43701 17.8064 9.43701Z" fill="white"/>
<path d="M19.029 6.00049H19.7273C20.2509 6.00049 20.6001 6.38214 20.6001 6.95462V7.71794C20.6001 8.29042 20.2509 8.67207 19.7273 8.67207H19.029C18.5054 8.67207 18.1562 8.29042 18.1562 7.71794V6.95462C18.1562 6.38214 18.5054 6.00049 19.029 6.00049Z" fill="white"/>
<path d="M21.8181 6.00049H22.5163C23.04 6.00049 23.3891 6.38214 23.3891 6.95462V7.71794C23.3891 8.29042 23.04 8.67207 22.5163 8.67207H21.8181C21.2944 8.67207 20.9453 8.29042 20.9453 7.71794V6.95462C20.9453 6.38214 21.469 6.00049 21.8181 6.00049Z" fill="white"/>
<path d="M15.8845 21.6504H17.8046C18.3283 21.6504 18.6774 22.032 18.6774 22.6045V24.322C18.6774 24.8945 18.3283 25.2761 17.8046 25.2761H15.8845C15.3608 25.2761 15.0117 24.8945 15.0117 24.322V22.6045C15.0117 22.032 15.5354 21.6504 15.8845 21.6504Z" fill="white"/>
<path d="M22.3413 4.09473H23.0395C23.2141 4.09473 23.3886 4.28556 23.3886 4.47638V4.85804C23.3886 5.04887 23.2141 5.23969 23.0395 5.23969H22.3413C22.1667 5.23969 21.9922 5.04887 21.9922 4.85804V4.47638C21.9922 4.28556 22.1667 4.09473 22.3413 4.09473Z" fill="white"/>
<path d="M19.8999 4.09473H20.5981C20.7727 4.09473 20.9472 4.28556 20.9472 4.47638V4.85804C20.9472 5.04887 20.7727 5.23969 20.5981 5.23969H19.8999C19.7253 5.23969 19.5508 5.04887 19.5508 4.85804V4.47638C19.5508 4.28556 19.7253 4.09473 19.8999 4.09473Z" fill="white"/>
<path d="M20.9468 1.99365H21.645C21.8196 1.99365 21.9941 2.18447 21.9941 2.3753V2.75696C21.9941 2.94778 21.8196 3.13861 21.645 3.13861H20.9468C20.7722 3.13861 20.5977 2.94778 20.5977 2.75696V2.3753C20.5977 2.18447 20.7722 1.99365 20.9468 1.99365Z" fill="white"/>
<path d="M22.8707 0.0864258H23.2198C23.3944 0.0864258 23.569 0.277247 23.569 0.468074V0.658906C23.569 0.849733 23.3944 1.04056 23.2198 1.04056H22.8707C22.6962 1.04056 22.5216 0.849733 22.5216 0.658906V0.468074C22.347 0.468074 22.5216 0.0864258 22.8707 0.0864258Z" fill="white"/>
<path d="M25.4873 30.6177H27.2329C27.9311 30.6177 28.4548 31.1902 28.4548 31.9535V32.9076C28.4548 33.6709 27.9311 34.2434 27.2329 34.2434H25.4873C24.7891 34.2434 24.2654 33.6709 24.2654 32.9076V31.9535C24.0909 31.381 24.7891 30.6177 25.4873 30.6177Z" fill="white"/>
<path d="M30.5461 30.6177H32.2917C32.9899 30.6177 33.5136 31.1902 33.5136 31.9535V32.9076C33.5136 33.6709 32.9899 34.2434 32.2917 34.2434H30.5461C29.8479 34.2434 29.3242 33.6709 29.3242 32.9076V31.9535C29.3242 31.381 29.8479 30.6177 30.5461 30.6177Z" fill="white"/>
<path d="M25.3118 25.8477H26.7082C27.4064 25.8477 27.9301 26.4201 27.9301 27.1834V28.3284C27.9301 29.0917 27.4064 29.6642 26.7082 29.6642H25.3118C24.6135 29.6642 24.0898 29.0917 24.0898 28.3284V27.1834C24.0898 26.4201 24.6135 25.8477 25.3118 25.8477Z" fill="white"/>
<path d="M30.3703 26.0391H31.7668C32.465 26.0391 32.9887 26.6115 32.9887 27.3749V28.5198C32.9887 29.2831 32.465 29.8556 31.7668 29.8556H30.3703C29.6721 29.8556 29.1484 29.2831 29.1484 28.5198V27.3749C29.1484 26.6115 29.6721 26.0391 30.3703 26.0391Z" fill="white"/>
<path d="M25.4875 35.3877H27.2331C27.9313 35.3877 28.455 35.9602 28.455 36.7235V37.6776C28.455 38.4409 27.9313 39.0134 27.2331 39.0134H25.4875C24.7893 39.0134 24.2656 38.4409 24.2656 37.6776V36.7235C24.2656 35.9602 24.7893 35.3877 25.4875 35.3877Z" fill="white"/>
<path d="M30.5461 35.3877H32.2917C32.9899 35.3877 33.5136 35.9602 33.5136 36.7235V37.6776C33.5136 38.4409 32.9899 39.0134 32.2917 39.0134H30.5461C29.8479 39.0134 29.3242 38.4409 29.3242 37.6776V36.7235C29.3242 35.9602 29.8479 35.3877 30.5461 35.3877Z" fill="white"/>
<path d="M25.3115 39.9697H27.0571C27.7553 39.9697 28.279 40.5422 28.279 41.3055V42.2597C28.279 43.023 27.7553 43.5954 27.0571 43.5954H25.3115C24.6133 43.5954 24.0896 43.023 24.0896 42.2597V41.3055C23.9151 40.5422 24.6133 39.9697 25.3115 39.9697Z" fill="white"/>
<path d="M30.5461 39.9697H32.2917C32.9899 39.9697 33.5136 40.5422 33.5136 41.3055V42.2597C33.5136 43.023 32.9899 43.5954 32.2917 43.5954H30.5461C29.8479 43.5954 29.3242 43.023 29.3242 42.2597V41.3055C29.3242 40.5422 29.8479 39.9697 30.5461 39.9697Z" fill="white"/>
<path d="M25.6592 44.5483H27.4047C28.103 44.5483 28.6266 45.1208 28.6266 45.8841V46.8383C28.6266 47.6016 28.103 48.1741 27.4047 48.1741H25.6592C24.961 48.1741 24.4373 47.6016 24.4373 46.8383V45.8841C24.2627 45.1208 24.961 44.5483 25.6592 44.5483Z" fill="white"/>
<path d="M30.5461 44.5483H32.2917C32.9899 44.5483 33.5136 45.1208 33.5136 45.8841V46.8383C33.5136 47.6016 32.9899 48.1741 32.2917 48.1741H30.5461C29.8479 48.1741 29.3242 47.6016 29.3242 46.8383V45.8841C29.3242 45.1208 29.8479 44.5483 30.5461 44.5483Z" fill="white"/>
<path d="M25.3115 49.1279H27.0571C27.7553 49.1279 28.279 49.7004 28.279 50.4637V51.4179C28.279 52.1812 27.7553 52.7537 27.0571 52.7537H25.3115C24.6133 52.7537 24.0896 52.1812 24.0896 51.4179V50.4637C23.9151 49.8912 24.6133 49.1279 25.3115 49.1279Z" fill="white"/>
<path d="M28.9727 50.6552V51.8002C28.9727 52.3727 29.3218 52.9451 29.8454 53.136C30.5437 51.8002 31.2419 50.6552 32.1147 49.5103C31.9401 49.5103 31.9401 49.5103 31.7656 49.5103H30.02C29.4963 49.5103 28.9727 50.0827 28.9727 50.6552Z" fill="white"/>
<path d="M25.3115 53.709H27.0571C27.7553 53.709 28.279 54.2815 28.279 55.0448V55.9989C28.279 56.7622 27.7553 57.3347 27.0571 57.3347H25.3115C24.6133 57.3347 24.0896 56.7622 24.0896 55.9989V55.0448C23.9151 54.4723 24.6133 53.709 25.3115 53.709Z" fill="white"/>
<path d="M27.7555 58.6692C27.581 58.4784 27.2319 58.2876 26.8828 58.2876H25.3118C24.6135 58.2876 24.0898 58.8601 24.0898 59.6234V60.7683C24.0898 61.5317 24.6135 62.1041 25.3118 62.1041H26.8828C27.0573 60.9592 27.4064 59.6234 27.7555 58.6692Z" fill="white"/>
<path d="M26.5324 63.0576H25.136C24.4377 63.0576 23.9141 63.6301 23.9141 64.3934V65.3475C23.9141 66.1108 24.4377 66.6833 25.136 66.6833H25.4851C26.0087 65.5384 26.3579 64.2026 26.5324 63.0576Z" fill="white"/>
<path d="M25.4851 67.6396H25.136C24.4377 67.6396 23.9141 68.2121 23.9141 68.9754V70.1204C23.9141 70.6929 24.2632 71.0745 24.6123 71.2654C24.9614 70.1204 25.136 68.7846 25.4851 67.6396Z" fill="white"/>
<path d="M24.4377 72.4106C24.0886 72.6015 23.9141 72.9831 23.9141 73.5556V74.7006C24.0886 73.9373 24.2632 73.174 24.4377 72.4106Z" fill="white"/>
<path d="M25.3142 21.6504H27.2343C27.758 21.6504 28.1071 22.032 28.1071 22.6045V24.322C28.1071 24.8945 27.758 25.2761 27.2343 25.2761H25.3142C24.7905 25.2761 24.4414 24.8945 24.4414 24.322V22.6045C24.4414 22.032 24.7905 21.6504 25.3142 21.6504Z" fill="white"/>
<path d="M25.1384 17.2617H26.7094C27.2331 17.2617 27.5822 17.6434 27.5822 18.2159V19.7425C27.5822 20.315 27.2331 20.6966 26.7094 20.6966H25.1384C24.6147 20.6966 24.2656 20.315 24.2656 19.7425V18.2159C24.2656 17.6434 24.6147 17.2617 25.1384 17.2617Z" fill="white"/>
<path d="M29.3259 17.2617H30.8969C31.4206 17.2617 31.7697 17.6434 31.7697 18.2159V19.7425C31.7697 20.315 31.4206 20.6966 30.8969 20.6966H29.3259C28.8022 20.6966 28.4531 20.315 28.4531 19.7425V18.2159C28.4531 17.6434 28.8022 17.2617 29.3259 17.2617Z" fill="white"/>
<path d="M29.1501 13.4434H30.5466C31.0703 13.4434 31.4194 13.825 31.4194 14.3975V15.7333C31.4194 16.3058 31.0703 16.6874 30.5466 16.6874H29.1501C28.6265 16.6874 28.2773 16.3058 28.2773 15.7333V14.3975C28.2773 13.825 28.6265 13.4434 29.1501 13.4434Z" fill="white"/>
<path d="M25.3142 13.062H26.7106C27.2343 13.062 27.5834 13.4437 27.5834 14.0161V15.3519C27.5834 15.9244 27.2343 16.3061 26.7106 16.3061H25.3142C24.7905 16.3061 24.4414 15.9244 24.4414 15.3519V14.0161C24.4414 13.6345 24.7905 13.062 25.3142 13.062Z" fill="white"/>
<path d="M24.9626 9.43701H26.01C26.5336 9.43701 26.8828 9.81867 26.8828 10.3911V11.1545C26.8828 11.7269 26.5336 12.1086 26.01 12.1086H24.9626C24.439 12.1086 24.0898 11.7269 24.0898 11.1545V10.3911C24.0898 9.81867 24.6135 9.43701 24.9626 9.43701Z" fill="white"/>
<path d="M28.6267 9.62744H29.674C30.1977 9.62744 30.5468 10.0091 30.5468 10.5816V11.3449C30.5468 11.9174 30.1977 12.299 29.674 12.299H28.6267C28.103 12.299 27.7539 11.9174 27.7539 11.3449V10.5816C27.7539 10.1999 28.103 9.62744 28.6267 9.62744Z" fill="white"/>
<path d="M27.9314 6.00049H28.6296C29.1533 6.00049 29.5024 6.38214 29.5024 6.95462V7.71794C29.5024 8.29042 29.1533 8.67207 28.6296 8.67207H27.9314C27.4077 8.67207 27.0586 8.29042 27.0586 7.71794V6.95462C27.0586 6.38214 27.5823 6.00049 27.9314 6.00049Z" fill="white"/>
<path d="M24.9626 6.00049H25.6609C26.1845 6.00049 26.5336 6.38214 26.5336 6.95462V7.71794C26.5336 8.29042 26.1845 8.67207 25.6609 8.67207H24.9626C24.439 8.67207 24.0898 8.29042 24.0898 7.71794V6.95462C24.0898 6.38214 24.439 6.00049 24.9626 6.00049Z" fill="white"/>
<path d="M29.8454 21.6504H31.7656C32.2892 21.6504 32.6384 22.032 32.6384 22.6045V24.322C32.6384 24.8945 32.2892 25.2761 31.7656 25.2761H29.8454C29.3218 25.2761 28.9727 24.8945 28.9727 24.322V22.6045C28.9727 22.032 29.3218 21.6504 29.8454 21.6504Z" fill="white"/>
<path d="M24.6147 4.09473H25.313C25.4875 4.09473 25.6621 4.28556 25.6621 4.47638V4.85804C25.6621 5.04887 25.4875 5.23969 25.313 5.23969H24.6147C24.4402 5.23969 24.2656 5.04887 24.2656 4.85804V4.47638C24.2656 4.28556 24.4402 4.09473 24.6147 4.09473Z" fill="white"/>
<path d="M23.564 1.99365H24.2622C24.4367 1.99365 24.6113 2.18447 24.6113 2.3753V2.75696C24.6113 2.94778 24.4367 3.13861 24.2622 3.13861H23.564C23.3894 3.13861 23.2148 2.94778 23.2148 2.75696V2.3753C23.2148 2.18447 23.3894 1.99365 23.564 1.99365Z" fill="white"/>
<path d="M27.0582 4.09473H27.7564C27.931 4.09473 28.1056 4.28556 28.1056 4.47638V4.85804C28.1056 5.04887 27.931 5.23969 27.7564 5.23969H27.0582C26.8837 5.23969 26.7091 5.04887 26.7091 4.85804V4.47638C26.5345 4.28556 26.7091 4.09473 27.0582 4.09473Z" fill="white"/>
<path d="M25.6616 1.99365H26.3598C26.5344 1.99365 26.7089 2.18447 26.7089 2.3753V2.75696C26.7089 2.94778 26.5344 3.13861 26.3598 3.13861H25.6616C25.4871 3.13861 25.3125 2.94778 25.3125 2.75696V2.3753C25.3125 2.18447 25.4871 1.99365 25.6616 1.99365Z" fill="white"/>
<path d="M24.439 0.0864258H24.7881C24.9626 0.0864258 25.1372 0.277247 25.1372 0.468074V0.658906C25.1372 0.849733 24.9626 1.04056 24.7881 1.04056H24.439C24.2644 1.04056 24.0898 0.849733 24.0898 0.658906V0.468074C24.0898 0.468074 24.2644 0.0864258 24.439 0.0864258Z" fill="white"/>
<path d="M41.8913 49.5096C40.1458 47.4105 37.1783 47.0288 35.0836 48.5554C34.0363 49.7004 33.1635 50.8454 32.2907 52.1811C30.8943 54.6619 29.6724 57.3335 28.9741 60.0051C28.9741 60.1959 27.5777 65.3482 27.2286 66.4932C27.2286 66.684 26.5303 69.7373 26.1812 71.0731C26.1812 71.2639 25.3084 74.3171 25.1339 75.4621C24.6102 77.9428 23.912 80.2328 23.0392 82.5227C23.3883 80.8052 22.6901 79.2786 22.1664 77.1795C21.4682 73.9355 20.9445 71.8364 20.9445 71.4547C20.7699 70.3097 18.3261 56.9518 17.4534 53.8986C16.5806 49.8912 15.3587 46.0747 13.7877 42.449C13.6131 42.2581 12.3912 39.5866 11.8675 38.6324C10.122 35.5792 8.02729 32.7168 5.23438 30.6177C7.32906 33.2893 9.94741 43.0214 10.4711 47.0288C11.5184 52.1812 12.0421 57.5243 12.3912 62.8675C12.7403 70.8822 15.0096 78.5153 19.1989 85.1943C19.1989 85.1943 20.4208 86.9117 24.0865 86.9117C26.1812 87.1025 28.1013 86.3392 29.4978 84.8126C31.0688 82.9044 32.2907 80.6144 33.1635 78.1337C34.3854 74.3171 34.9091 70.3097 34.9091 66.3024C35.0836 63.2491 36.3055 54.2803 36.6546 52.372C37.702 52.7536 38.7493 53.3261 39.7967 53.8986C41.8913 55.0436 43.8115 56.761 44.8588 59.0509C45.3825 55.6161 44.1606 51.9903 41.8913 49.5096Z" fill="white"/>
<path d="M18.1562 49.3203C18.1562 49.8928 18.5054 50.4653 18.5054 51.0378C18.5054 51.0378 18.5054 50.4653 18.5054 50.2744C18.5054 50.0836 18.3308 49.3203 18.1562 49.3203Z" fill="white"/>
<path d="M109.086 59.0259C109.086 59.0259 104.473 64.349 104.473 68.2713C104.473 71.6333 107.932 73.5944 108.958 74.2949C108.958 74.2949 113.57 71.6333 113.57 68.2713C113.699 64.2089 109.086 59.0259 109.086 59.0259Z" fill="white"/>
<path d="M98.8345 68.6919C98.8345 68.6919 98.0657 77.5171 101.525 80.1786C101.525 80.1786 102.679 81.8596 108.189 82.7001C108.189 82.7001 108.829 76.9568 106.779 74.5754C106.779 74.7154 105.754 73.0344 98.8345 68.6919Z" fill="white"/>
<path d="M98.0674 79.6177C98.0674 79.6177 97.1704 89.2834 101.015 92.2251C101.015 92.2251 102.296 94.0462 108.19 95.0267C108.19 95.0267 108.831 88.8631 106.653 86.2015C106.653 86.2015 105.499 84.2404 98.0674 79.6177Z" fill="white"/>
<path d="M98.3222 92.085C98.3222 92.085 97.0408 102.451 100.885 105.393C100.885 105.393 102.423 107.354 108.317 108.335C108.317 108.335 109.214 101.891 107.036 99.3693C106.907 99.5093 105.754 96.8478 98.3222 92.085Z" fill="white"/>
<path d="M97.04 104.834C97.04 104.834 96.3994 115.62 100.244 118.562C100.244 118.562 102.166 120.663 108.06 121.644C108.06 121.644 108.829 114.64 106.65 112.118C106.65 111.978 104.6 109.177 97.04 104.834Z" fill="white"/>
<path d="M119.336 68.6919C119.336 68.6919 120.104 77.5171 116.645 80.1786C116.645 80.1786 115.491 81.8596 109.981 82.7001C109.981 82.7001 109.341 76.9568 111.391 74.5754C111.391 74.7154 112.416 73.0344 119.336 68.6919Z" fill="white"/>
<path d="M119.977 79.6177C119.977 79.6177 120.874 89.2834 117.03 92.2251C117.03 92.2251 115.749 94.0462 109.982 95.0267C109.982 95.0267 109.342 88.8631 111.52 86.2015C111.52 86.2015 112.545 84.2404 119.977 79.6177Z" fill="white"/>
<path d="M119.85 92.085C119.85 92.085 121.131 102.451 117.287 105.393C117.287 105.393 115.749 107.354 109.855 108.335C109.855 108.335 108.958 101.891 111.136 99.3693C111.264 99.5093 112.418 96.8478 119.85 92.085Z" fill="white"/>
<path d="M121.132 104.834C121.132 104.834 121.773 115.62 117.929 118.562C117.929 118.562 116.006 120.663 110.112 121.644C110.112 121.644 109.343 114.64 111.522 112.118C111.522 111.978 113.444 109.177 121.132 104.834Z" fill="white"/>
<path d="M110.367 123.184H107.805V177.186H110.367V123.184Z" fill="white"/>
<path d="M100.755 49.3605C100.755 48.8001 100.37 48.3799 99.8579 48.3799C99.3454 48.3799 98.9609 48.8001 98.9609 49.3605V66.8708L100.627 67.9914V49.3605H100.755Z" fill="white"/>
<path d="M104.345 46.4195C104.345 45.8592 104.088 45.4389 103.576 45.2988C103.063 45.2988 102.679 45.579 102.551 46.1393C102.551 46.2794 102.551 46.2794 102.551 46.4195V67.2918C102.935 65.6108 103.576 64.0699 104.345 62.669V46.4195Z" fill="white"/>
<path d="M107.931 41.5157C107.931 40.9554 107.546 40.5352 107.034 40.5352C106.521 40.5352 106.137 40.9554 106.137 41.5157V59.5864C106.777 58.6058 107.418 57.7653 107.931 57.0649V41.5157Z" fill="white"/>
<path d="M117.414 49.3605C117.414 48.8001 117.798 48.3799 118.311 48.3799C118.824 48.3799 119.208 48.8001 119.208 49.3605V66.8708L117.542 67.9914V49.3605H117.414Z" fill="white"/>
<path d="M113.824 46.4195C113.824 45.8592 114.08 45.4389 114.593 45.2988C115.106 45.2988 115.49 45.579 115.618 46.1393C115.618 46.2794 115.618 46.2794 115.618 46.4195V67.2918C115.234 65.6108 114.593 64.0699 113.824 62.669V46.4195Z" fill="white"/>
<path d="M110.238 41.5157C110.238 40.9554 110.623 40.5352 111.135 40.5352C111.648 40.5352 112.032 40.9554 112.032 41.5157V59.5864C111.392 58.6058 110.751 57.7653 110.238 57.0649V41.5157Z" fill="white"/>
<path d="M141.414 108.066C141.414 108.066 138.203 111.771 138.203 114.501C138.203 116.841 140.611 118.206 141.325 118.693C141.325 118.693 144.535 116.841 144.535 114.501C144.624 111.673 141.414 108.066 141.414 108.066Z" fill="#774804"/>
<path d="M134.277 114.793C134.277 114.793 133.742 120.935 136.15 122.788C136.15 122.788 136.953 123.958 140.788 124.543C140.788 124.543 141.234 120.545 139.807 118.888C139.807 118.985 139.093 117.815 134.277 114.793Z" fill="#774804"/>
<path d="M133.743 122.396C133.743 122.396 133.119 129.123 135.794 131.171C135.794 131.171 136.686 132.438 140.788 133.121C140.788 133.121 141.234 128.831 139.718 126.978C139.718 126.978 138.916 125.613 133.743 122.396Z" fill="#774804"/>
<path d="M133.92 131.073C133.92 131.073 133.028 138.288 135.704 140.335C135.704 140.335 136.774 141.7 140.876 142.383C140.876 142.383 141.501 137.898 139.985 136.143C139.895 136.241 139.093 134.388 133.92 131.073Z" fill="#774804"/>
<path d="M133.028 139.948C133.028 139.948 132.582 147.456 135.257 149.503C135.257 149.503 136.595 150.965 140.698 151.648C140.698 151.648 141.233 146.773 139.717 145.018C139.717 144.921 138.29 142.971 133.028 139.948Z" fill="#774804"/>
<path d="M148.545 114.793C148.545 114.793 149.08 120.935 146.672 122.788C146.672 122.788 145.87 123.958 142.035 124.543C142.035 124.543 141.589 120.545 143.016 118.888C143.016 118.985 143.729 117.815 148.545 114.793Z" fill="#774804"/>
<path d="M148.994 122.396C148.994 122.396 149.618 129.123 146.943 131.171C146.943 131.171 146.051 132.438 142.038 133.121C142.038 133.121 141.592 128.831 143.108 126.978C143.108 126.978 143.821 125.613 148.994 122.396Z" fill="#774804"/>
<path d="M148.904 131.073C148.904 131.073 149.796 138.288 147.12 140.335C147.12 140.335 146.05 141.7 141.948 142.383C141.948 142.383 141.323 137.898 142.839 136.143C142.929 136.241 143.731 134.388 148.904 131.073Z" fill="#774804"/>
<path d="M149.797 139.948C149.797 139.948 150.243 147.456 147.567 149.503C147.567 149.503 146.229 150.965 142.127 151.648C142.127 151.648 141.592 146.773 143.108 145.018C143.108 144.921 144.446 142.971 149.797 139.948Z" fill="#774804"/>
<path d="M142.303 152.719H140.52V190.305H142.303V152.719Z" fill="#774804"/>
<path d="M135.616 101.338C135.616 100.948 135.348 100.656 134.991 100.656C134.635 100.656 134.367 100.948 134.367 101.338V113.525L135.527 114.305V101.338H135.616Z" fill="#774804"/>
<path d="M138.112 99.2907C138.112 98.9007 137.933 98.6082 137.577 98.5107C137.22 98.5107 136.952 98.7057 136.863 99.0957C136.863 99.1932 136.863 99.1932 136.863 99.2907V113.818C137.131 112.648 137.577 111.575 138.112 110.6V99.2907Z" fill="#774804"/>
<path d="M140.608 95.8783C140.608 95.4883 140.34 95.1958 139.984 95.1958C139.627 95.1958 139.359 95.4883 139.359 95.8783V108.455C139.805 107.773 140.251 107.188 140.608 106.7V95.8783Z" fill="#774804"/>
<path d="M147.211 101.338C147.211 100.948 147.478 100.656 147.835 100.656C148.192 100.656 148.46 100.948 148.46 101.338V113.525L147.3 114.305V101.338H147.211Z" fill="#774804"/>
<path d="M144.707 99.2907C144.707 98.9007 144.885 98.6082 145.242 98.5107C145.599 98.5107 145.866 98.7057 145.956 99.0957C145.956 99.1932 145.956 99.1932 145.956 99.2907V113.818C145.688 112.648 145.242 111.575 144.707 110.6V99.2907Z" fill="#774804"/>
<path d="M142.211 95.8783C142.211 95.4883 142.478 95.1958 142.835 95.1958C143.192 95.1958 143.46 95.4883 143.46 95.8783V108.455C143.014 107.773 142.568 107.188 142.211 106.7V95.8783Z" fill="#774804"/>
<path d="M196.412 135.333C196.412 135.333 194.309 137.76 194.309 139.548C194.309 141.081 195.886 141.976 196.354 142.295C196.354 142.295 198.457 141.081 198.457 139.548C198.516 137.696 196.412 135.333 196.412 135.333Z" fill="#774804"/>
<path d="M191.736 139.738C191.736 139.738 191.386 143.763 192.963 144.976C192.963 144.976 193.489 145.743 196.002 146.126C196.002 146.126 196.294 143.507 195.359 142.421C195.359 142.485 194.892 141.718 191.736 139.738Z" fill="#774804"/>
<path d="M191.385 144.72C191.385 144.72 190.976 149.128 192.729 150.469C192.729 150.469 193.313 151.3 196.001 151.747C196.001 151.747 196.294 148.936 195.3 147.722C195.3 147.722 194.774 146.828 191.385 144.72Z" fill="#774804"/>
<path d="M191.504 150.404C191.504 150.404 190.919 155.131 192.672 156.473C192.672 156.473 193.374 157.367 196.061 157.814C196.061 157.814 196.47 154.876 195.477 153.726C195.419 153.79 194.893 152.576 191.504 150.404Z" fill="#774804"/>
<path d="M190.917 156.221C190.917 156.221 190.625 161.139 192.378 162.481C192.378 162.481 193.254 163.439 195.942 163.886C195.942 163.886 196.293 160.692 195.299 159.542C195.299 159.478 194.364 158.201 190.917 156.221Z" fill="#774804"/>
<path d="M201.086 139.738C201.086 139.738 201.437 143.763 199.859 144.976C199.859 144.976 199.333 145.743 196.821 146.126C196.821 146.126 196.528 143.507 197.463 142.421C197.463 142.485 197.931 141.718 201.086 139.738Z" fill="#774804"/>
<path d="M201.379 144.72C201.379 144.72 201.788 149.128 200.035 150.469C200.035 150.469 199.451 151.3 196.821 151.747C196.821 151.747 196.529 148.936 197.523 147.722C197.523 147.722 197.99 146.828 201.379 144.72Z" fill="#774804"/>
<path d="M201.321 150.404C201.321 150.404 201.905 155.131 200.152 156.473C200.152 156.473 199.451 157.367 196.763 157.814C196.763 157.814 196.354 154.876 197.347 153.726C197.406 153.79 197.932 152.576 201.321 150.404Z" fill="#774804"/>
<path d="M201.906 156.221C201.906 156.221 202.198 161.139 200.445 162.481C200.445 162.481 199.568 163.439 196.88 163.886C196.88 163.886 196.53 160.692 197.523 159.542C197.523 159.478 198.4 158.201 201.906 156.221Z" fill="#774804"/>
<path d="M196.997 164.587H195.828V189.212H196.997V164.587Z" fill="#774804"/>
<path d="M192.615 130.924C192.615 130.668 192.44 130.477 192.206 130.477C191.972 130.477 191.797 130.668 191.797 130.924V138.908L192.557 139.419V130.924H192.615Z" fill="#774804"/>
<path d="M194.248 129.583C194.248 129.328 194.131 129.136 193.897 129.072C193.663 129.072 193.488 129.2 193.43 129.456C193.43 129.519 193.43 129.519 193.43 129.583V139.101C193.605 138.334 193.897 137.632 194.248 136.993V129.583Z" fill="#774804"/>
<path d="M195.884 127.346C195.884 127.091 195.709 126.899 195.475 126.899C195.242 126.899 195.066 127.091 195.066 127.346V135.586C195.359 135.139 195.651 134.756 195.884 134.436V127.346Z" fill="#774804"/>
<path d="M200.211 130.924C200.211 130.668 200.386 130.477 200.62 130.477C200.854 130.477 201.029 130.668 201.029 130.924V138.908L200.269 139.419V130.924H200.211Z" fill="#774804"/>
<path d="M198.57 129.583C198.57 129.328 198.687 129.136 198.921 129.072C199.155 129.072 199.33 129.2 199.388 129.456C199.388 129.519 199.388 129.519 199.388 129.583V139.101C199.213 138.334 198.921 137.632 198.57 136.993V129.583Z" fill="#774804"/>
<path d="M196.938 127.346C196.938 127.091 197.113 126.899 197.347 126.899C197.58 126.899 197.756 127.091 197.756 127.346V135.586C197.463 135.139 197.171 134.756 196.938 134.436V127.346Z" fill="#774804"/>
</svg>
