<svg width="528" height="712" viewBox="0 0 528 712" fill="none" xmlns="http://www.w3.org/2000/svg">
<path d="M334.36 105.97C329.641 110.01 322.225 110.01 317.506 105.97C313.462 101.931 312.787 95.198 316.158 90.4851C317.506 88.4653 325.596 75.6733 326.27 75C326.944 76.3465 335.034 88.4653 336.382 90.4851C339.079 95.198 338.404 101.931 334.36 105.97Z" fill="#015379"/>
<path d="M368.36 105.97C363.641 110.01 356.225 110.01 351.506 105.97C347.462 101.931 346.787 95.198 350.158 90.4851C351.506 88.4653 359.596 75.6733 360.27 75C360.944 76.3465 369.034 88.4653 370.382 90.4851C373.079 95.198 372.404 101.931 368.36 105.97Z" fill="#015379"/>
<path d="M524.36 608.97C519.641 613.01 512.225 613.01 507.506 608.97C503.462 604.931 502.787 598.198 506.158 593.485C507.506 591.465 515.596 578.673 516.27 578C516.944 579.347 525.034 591.465 526.382 593.485C529.079 598.198 528.404 604.931 524.36 608.97Z" fill="white"/>
<path d="M490.511 609.059C485.989 612.98 478.883 612.98 474.36 609.059C470.484 605.139 469.838 598.604 473.068 594.03C474.36 592.069 482.113 579.653 482.759 579C483.405 580.307 491.157 592.069 492.449 594.03C495.034 598.604 494.388 605.139 490.511 609.059Z" fill="white"/>
<path d="M177.571 709.118C175.593 711.148 172.296 712.501 169 711.824C165.704 711.824 163.066 711.148 160.429 709.118C156.473 705.059 155.814 698.294 159.111 693.559C160.429 691.53 168.341 678.676 169 678C169.659 679.353 177.571 691.53 178.889 693.559C182.186 698.294 181.527 705.059 177.571 709.118Z" fill="#015379"/>
<path d="M211.571 709.118C209.593 711.148 206.296 712.501 203 711.824C199.704 711.824 197.066 711.148 194.429 709.118C190.473 705.059 189.814 698.294 193.111 693.559C194.429 691.53 202.341 678.676 203 678C203.659 679.353 211.571 691.53 212.889 693.559C216.186 698.294 215.527 705.059 211.571 709.118Z" fill="#015379"/>
<path d="M22.5114 598.059C17.9891 601.98 10.8826 601.98 6.36032 598.059C2.48407 594.139 1.83802 587.604 5.06823 583.03C6.36032 581.069 14.1128 568.653 14.7589 568C15.4049 569.307 23.1574 581.069 24.4495 583.03C27.0337 588.257 26.3876 594.139 22.5114 598.059Z" fill="white"/>
<path d="M54.5114 598.059C49.9891 601.98 42.8826 601.98 38.3603 598.059C34.4841 594.139 33.838 587.604 37.0682 583.03C38.3603 581.069 46.1128 568.653 46.7589 568C47.4049 569.307 55.1574 581.069 56.4495 583.03C59.0337 588.257 58.3876 594.139 54.5114 598.059Z" fill="white"/>
<path d="M54.3597 30.9703C49.6408 35.0099 42.2253 35.0099 37.5064 30.9703C33.4616 26.9307 32.7875 20.198 36.1582 15.4851C37.5064 13.4653 45.596 0.673267 46.2701 0C46.9443 1.34653 55.0338 13.4653 56.3821 15.4851C59.0786 20.198 58.4045 26.9307 54.3597 30.9703Z" fill="white"/>
<path d="M20.3597 30.9703C15.6408 35.0099 8.22534 35.0099 3.50642 30.9703C-0.538365 26.9307 -1.2125 20.198 2.15815 15.4851C3.50642 13.4653 11.596 0.673267 12.2701 0C12.9443 1.34653 21.0338 13.4653 22.3821 15.4851C25.0786 20.198 24.4045 26.9307 20.3597 30.9703Z" fill="white"/>
</svg>
