<svg width="658" height="859" viewBox="0 0 658 859" fill="none" xmlns="http://www.w3.org/2000/svg">
<path d="M234.881 797.749V784.881H225.802V734.386H210.66V706.411H201.538V702.19H197.834V683.89C198.31 683.89 198.915 683.95 199.699 684.004C203.441 684.258 204.761 685.414 205.723 686.128C207.816 687.749 210.952 687.841 210.952 687.841H215.543V676.259H211.066C207.627 676.259 206.199 674.983 204.08 673.508C201.96 672.032 199.04 672.184 199.04 672.184H197.834V672H195.481V702.212H191.739V706.433H182.628V734.407H169.763V784.903H160.695V797.771H58V859H337.992V797.749H234.881ZM189.825 714.724H203.463V728.327H189.825V714.724ZM83.0207 848.326H69.4046V834.717H83.0315L83.0207 848.326ZM83.0207 824.491H69.4046V810.872H83.0315L83.0207 824.491ZM108.669 848.326H95.0417V834.717H108.669V848.326ZM108.669 824.491H95.0417V810.899H108.669V824.491ZM134.306 848.326H120.679V834.717H134.306V848.326ZM134.306 824.491H120.679V810.899H134.306V824.491ZM160.673 848.326H147.046V834.717H160.673V848.326ZM160.673 824.491H147.046V810.899H160.673V824.491ZM204.371 779.509V765.895H217.993V779.509H204.371ZM212.575 814.498C212.569 818.265 211.069 821.877 208.405 824.541C205.74 827.205 202.127 828.705 198.358 828.712C194.591 828.707 190.979 827.207 188.318 824.541C185.656 821.876 184.162 818.264 184.163 814.498V814.466C184.165 812.605 184.533 810.762 185.247 809.043C185.962 807.324 187.008 805.763 188.326 804.449C189.644 803.134 191.209 802.092 192.93 801.382C194.652 800.672 196.496 800.308 198.358 800.311C202.124 800.313 205.735 801.807 208.4 804.467C211.064 807.127 212.564 810.735 212.569 814.498H212.575ZM204.371 758.506V744.914H217.993V758.506H204.371ZM178.734 744.903H192.356V758.528H178.734V744.903ZM178.734 765.895H192.356V779.509H178.734V765.895ZM221.254 855.709H176.696V852.633H221.254V855.709ZM248.627 848.326H235V834.717H248.638L248.627 848.326ZM248.627 824.491H235V810.872H248.638L248.627 824.491ZM274.264 848.326H260.637V834.717H274.264V848.326ZM274.264 824.491H260.637V810.899H274.264V824.491ZM299.901 848.326H286.274V834.717H299.901V848.326ZM299.901 824.491H286.274V810.899H299.901V824.491ZM326.268 848.326H312.631V834.717H326.268V848.326ZM326.268 824.491H312.631V810.899H326.268V824.491Z" fill="white"/>
<path d="M570.769 826.744H615.233C615.617 826.744 616.002 827.066 616.002 827.389V828.894C616.002 829.217 615.617 829.54 615.233 829.54H570.769C570.384 829.54 570 829.217 570 828.894V827.389C570 827.066 570.256 826.744 570.769 826.744Z" fill="white"/>
<path d="M570.769 854.812H615.233C615.617 854.812 616.002 855.134 616.002 855.457V858.468C616.002 858.79 615.617 859.113 615.233 859.113H570.769C570.384 859.113 570 858.79 570 858.468V855.457C570 855.134 570.256 854.812 570.769 854.812Z" fill="white"/>
<path d="M570.766 825.024H615.23C615.614 825.024 615.87 824.701 615.87 824.486V824.163C613.051 813.625 600.494 806.957 587.936 809.323C579.095 810.936 572.175 816.743 570.253 824.163C570.253 824.271 570.125 824.378 570.125 824.378C570.125 824.701 570.381 824.916 570.766 825.024Z" fill="white"/>
<path d="M613.822 853.091C614.206 853.091 614.59 852.769 614.59 852.446V832.229C614.59 831.907 614.206 831.584 613.822 831.584H572.433C572.048 831.584 571.664 831.907 571.664 832.229V852.446C571.664 852.769 572.048 853.091 572.433 853.091H613.822ZM601.777 834.272H608.824V850.295H601.777V834.272ZM589.732 834.272H596.779V850.295H589.732V834.272ZM577.815 834.272H584.862V850.295H577.815V834.272Z" fill="white"/>
<path d="M595.499 806.313C597.036 806.313 598.702 806.743 599.855 807.603C601.009 808.248 602.29 808.571 603.7 808.678H607.031V801.581H603.7C601.137 801.581 600.112 800.828 598.574 799.86C597.421 799.323 596.139 799 594.858 799H592.68V806.097C593.705 806.205 594.602 806.205 595.499 806.313Z" fill="white"/>
<path fill-rule="evenodd" clip-rule="evenodd" d="M529 838.189H555.32V835.489H529M530.92 859.095H553.4V856.387H530.92M532.47 855.369H551.84V839.216H532.48" fill="white"/>
<path fill-rule="evenodd" clip-rule="evenodd" d="M543.335 847.697C543.335 847.515 543.275 847.36 543.185 847.224C543.085 847.097 542.985 846.978 542.805 846.878C542.655 846.788 542.445 846.678 542.175 846.578L541.475 846.306C541.345 846.415 541.225 846.578 541.135 846.76C541.035 846.969 540.995 847.16 540.995 847.333C540.995 847.515 541.035 847.697 541.135 847.815C541.235 847.933 541.365 847.996 541.535 848.087C541.705 848.178 541.905 848.269 542.135 848.36L542.835 848.633C543.015 848.451 543.135 848.269 543.215 848.087C543.285 847.906 543.315 847.724 543.315 847.542M544.795 847.178C544.795 847.542 544.665 847.815 544.395 848.087C544.115 848.36 543.755 848.542 543.295 848.633C543.695 848.724 543.995 848.905 544.195 849.178C544.395 849.451 544.495 849.724 544.495 849.996C544.495 850.451 544.245 850.905 543.765 851.178C543.265 851.451 542.615 851.632 541.765 851.632C541.365 851.632 541.035 851.541 540.765 851.541C540.505 851.451 540.295 851.36 540.125 851.269L539.725 850.905C539.625 850.723 539.625 850.632 539.625 850.542C539.625 850.36 539.625 850.178 539.825 850.087C539.925 849.905 540.125 849.905 540.325 849.905C540.425 849.905 540.625 849.905 540.725 849.996L541.025 850.269L541.225 850.651L541.325 851.105H541.525C541.825 851.105 542.125 851.06 542.425 850.923C542.725 850.787 542.725 850.596 542.725 850.287C542.725 850.142 542.625 850.014 542.625 849.887C542.525 849.769 542.425 849.66 542.225 849.569L541.625 849.296L540.925 849.024C540.325 848.805 539.925 848.569 539.625 848.296C539.325 848.024 539.125 847.678 539.125 847.297C539.125 846.933 539.225 846.66 539.425 846.388C539.625 846.115 540.025 845.888 540.525 845.706C540.125 845.524 539.755 845.342 539.625 845.07C539.425 844.797 539.325 844.524 539.325 844.161C539.325 843.706 539.525 843.343 540.025 843.052C540.525 842.761 541.175 842.597 541.975 842.597C542.375 842.597 542.675 842.597 542.975 842.688C543.275 842.724 543.475 842.815 543.605 842.961C543.765 843.052 543.905 843.143 543.945 843.27C543.985 843.397 544.045 843.543 544.045 843.633C544.045 843.815 544.015 843.997 543.895 844.133C543.795 844.279 543.595 844.315 543.325 844.315C543.145 844.315 543.025 844.315 542.885 844.224C542.785 844.161 542.685 844.042 542.585 843.915C542.485 843.824 542.455 843.642 542.385 843.461L542.285 843.079C542.285 843.033 542.245 843.033 542.225 843.033C541.865 843.033 541.565 843.124 541.325 843.288C541.095 843.433 540.985 843.633 540.985 843.906C540.985 844.088 541.085 844.224 541.155 844.333C541.225 844.442 541.355 844.551 541.555 844.642L542.155 844.915L542.955 845.188C543.555 845.424 543.955 845.642 544.255 845.915C544.555 846.188 544.655 846.551 544.655 846.978" fill="#00689D"/>
<path fill-rule="evenodd" clip-rule="evenodd" d="M545.561 832.235C545.931 832.144 546.031 832.598 546.031 832.598L547.431 837.198H549.931L547.731 830.744C547.731 830.744 546.931 828.744 545.031 828.744H539.031C537.131 828.744 536.231 830.835 536.231 830.835L534.031 837.198H536.631L538.131 832.653C538.131 832.653 538.231 832.198 538.531 832.289C538.831 832.38 538.731 832.926 538.731 832.926L537.641 837.28H546.581L545.281 832.917C545.281 832.917 545.131 832.371 545.501 832.28M537.701 826.099C537.361 826.336 537.141 826.699 537.141 827.126C537.141 827.854 537.841 828.444 538.641 828.444C539.441 828.444 540.141 827.854 540.141 827.126C540.141 826.69 539.901 826.308 539.541 826.072C539.611 826.036 539.661 825.981 539.711 825.936C540.181 826.808 541.141 827.408 542.271 827.408C543.401 827.408 544.371 826.808 544.831 825.936L544.931 826.072C544.531 826.317 544.331 826.69 544.331 827.126C544.331 827.854 544.931 828.444 545.731 828.444C546.531 828.444 547.131 827.854 547.131 827.126C547.131 826.699 546.931 826.336 546.531 826.09C546.831 825.817 547.131 825.454 547.131 824.999C547.131 824.454 546.731 823.909 546.231 823.727C546.431 823.454 546.631 823.181 546.631 822.818C546.631 822.091 545.931 821.454 545.131 821.454C545.131 820.818 544.531 820.273 543.731 820.273C543.531 820.273 543.231 820.273 543.131 820.364C542.831 820.091 542.431 820 542.031 820C541.631 820 541.331 820.091 541.031 820.273C540.831 820.182 540.731 820.182 540.531 820.182C539.731 820.182 539.031 820.727 539.031 821.454C538.231 821.454 537.531 822.045 537.531 822.772C537.531 823.136 537.631 823.5 537.831 823.681C537.231 823.863 536.831 824.409 536.831 824.954C536.831 825.408 537.031 825.772 537.331 826.045" fill="white"/>
<path d="M503.43 831.581C503.43 832.979 504.77 834.162 506.355 834.054C507.939 834.054 509.28 832.871 509.158 831.473C509.158 830.075 507.817 829 506.233 829C504.77 829 503.43 830.183 503.43 831.581Z" fill="white"/>
<path d="M509.773 835.131H502.948C500.998 835.346 499.414 836.744 499.414 838.572V845.669C499.536 846.207 500.023 846.637 500.633 846.53C501.12 846.53 501.608 846.1 501.608 845.669V839.54C501.608 839.325 501.73 839.002 502.095 839.002C502.461 839.002 502.461 839.325 502.461 839.54V857.821C502.339 858.574 503.07 859.327 503.923 859.327C504.777 859.434 505.63 858.789 505.63 858.036C505.63 857.929 505.63 857.821 505.63 857.821V847.283C505.63 847.067 505.751 846.852 505.995 846.852C505.995 846.852 505.995 846.852 506.117 846.852C506.361 846.852 506.605 847.067 506.605 847.283V857.821C506.605 858.574 507.336 859.219 508.189 859.219C509.042 859.219 509.773 858.574 509.773 857.821V839.54C509.773 839.325 509.895 839.002 510.139 839.002C510.383 839.002 510.626 839.325 510.626 839.54V845.669C510.626 846.207 511.114 846.637 511.723 846.637C512.333 846.637 512.82 846.207 512.82 845.669V838.572C513.308 836.744 511.723 835.238 509.773 835.131Z" fill="white"/>
<path d="M479.297 832.979C479.297 834.269 480.516 835.452 481.978 835.452C483.441 835.452 484.781 834.377 484.781 833.086C484.781 831.796 483.562 830.613 482.1 830.613C480.516 830.505 479.297 831.581 479.297 832.979Z" fill="white"/>
<path d="M485.271 839.754C485.637 839.646 485.758 840.076 485.758 840.076L487.586 845.561C487.586 845.561 487.952 846.743 489.049 846.421C490.146 846.098 489.78 844.915 489.78 844.915L487.465 838.356C487.465 838.356 486.733 836.42 484.905 836.42H479.055C477.227 836.42 476.374 838.356 476.374 838.356L474.058 844.915C474.058 844.915 473.693 846.098 474.79 846.421C475.887 846.743 476.252 845.561 476.252 845.561L478.08 840.076C478.08 840.076 478.202 839.646 478.568 839.754C478.933 839.861 478.812 840.291 478.812 840.291L475.643 850.507H478.568V857.82C478.568 858.465 479.177 859.11 480.03 859.11C480.762 859.11 481.493 858.572 481.493 857.82V850.507H482.346V857.82C482.346 858.465 482.955 859.11 483.808 859.11C484.54 859.11 485.271 858.572 485.271 857.82V850.507H488.196L485.027 840.291C485.027 840.399 484.905 839.861 485.271 839.754Z" fill="white"/>
<path d="M431.531 837.288C431.531 838.399 430.466 839.339 429.208 839.253C427.949 839.253 426.884 838.314 426.981 837.203C426.981 836.093 428.046 835.238 429.305 835.238C430.466 835.238 431.531 836.178 431.531 837.288Z" fill="white"/>
<path d="M426.49 840.11H431.911C433.46 840.281 434.719 841.391 434.719 842.843V848.482C434.622 848.909 434.235 849.25 433.751 849.165C433.363 849.165 432.976 848.823 432.976 848.482V843.612C432.976 843.441 432.879 843.185 432.589 843.185C432.298 843.185 432.298 843.441 432.298 843.612V858.135C432.395 858.733 431.814 859.331 431.137 859.331C430.459 859.416 429.781 858.903 429.781 858.305C429.781 858.22 429.781 858.135 429.781 858.135V849.763C429.781 849.592 429.684 849.421 429.491 849.421C429.491 849.421 429.491 849.421 429.394 849.421C429.2 849.421 429.007 849.592 429.007 849.763V858.135C429.007 858.733 428.426 859.245 427.748 859.245C427.07 859.245 426.49 858.733 426.49 858.135V843.612C426.49 843.441 426.393 843.185 426.199 843.185C426.005 843.185 425.812 843.441 425.812 843.612V848.482C425.812 848.909 425.425 849.25 424.94 849.25C424.456 849.25 424.069 848.909 424.069 848.482V842.843C423.682 841.391 424.94 840.195 426.49 840.11Z" fill="white"/>
<path d="M450.695 838.399C450.695 839.424 449.727 840.364 448.565 840.364C447.404 840.364 446.339 839.509 446.339 838.484C446.339 837.459 447.307 836.52 448.469 836.52C449.727 836.434 450.695 837.288 450.695 838.399Z" fill="white"/>
<path d="M445.953 843.781C445.662 843.695 445.566 844.037 445.566 844.037L444.113 848.393C444.113 848.393 443.823 849.333 442.952 849.077C442.08 848.821 442.371 847.881 442.371 847.881L444.21 842.67C444.21 842.67 444.791 841.132 446.243 841.132H450.89C452.343 841.132 453.02 842.67 453.02 842.67L454.86 847.881C454.86 847.881 455.15 848.821 454.279 849.077C453.408 849.333 453.117 848.393 453.117 848.393L451.665 844.037C451.665 844.037 451.568 843.695 451.278 843.781C450.987 843.866 451.084 844.208 451.084 844.208L453.601 852.323H451.278V858.132C451.278 858.645 450.794 859.157 450.116 859.157C449.535 859.157 448.954 858.73 448.954 858.132V852.323H448.276V858.132C448.276 858.645 447.792 859.157 447.115 859.157C446.534 859.157 445.953 858.73 445.953 858.132V852.323H443.629L446.146 844.208C446.146 844.293 446.243 843.866 445.953 843.781Z" fill="white"/>
<ellipse cx="611.014" cy="669.663" rx="46.0765" ry="47.9192" fill="white" fill-opacity="0.25"/>
<ellipse cx="235.437" cy="38.9343" rx="37.4371" ry="38.9343" fill="white" fill-opacity="0.25"/>
<ellipse cx="148.039" cy="479.547" rx="37.4371" ry="38.9343" fill="white" fill-opacity="0.25"/>
<ellipse cx="25.918" cy="135.955" rx="25.918" ry="26.9545" fill="white" fill-opacity="0.25"/>
<ellipse cx="560.955" cy="224.955" rx="26.9547" ry="26.9545" fill="black" fill-opacity="0.15"/>
<ellipse cx="45.6969" cy="429.24" rx="26.9547" ry="26.9545" fill="black" fill-opacity="0.15"/>
</svg>
