<svg width="658" height="738" viewBox="0 0 658 738" fill="none" xmlns="http://www.w3.org/2000/svg">
<path d="M677.076 541.318L641.448 522.059C651.077 499.912 657.817 475.839 662.632 451.766C684.779 330.438 641.448 206.221 547.081 126.298C544.193 123.409 539.378 124.372 536.489 127.261L518.194 149.408C516.268 152.297 516.268 156.149 519.157 159.037C617.375 242.812 652.04 380.51 603.894 499.912L563.451 477.765C562.488 477.765 558.636 476.802 559.599 479.691L562.488 523.985C564.414 559.613 564.414 558.65 565.377 576.946L567.303 616.426C567.303 620.277 572.117 617.389 572.117 617.389L678.039 545.169C679.964 544.206 678.038 542.281 677.076 541.318Z" fill="#5B3203" fill-opacity="0.25"/>
<path d="M-14.2937 313.104L13.631 319.844C17.4827 320.807 21.3344 317.919 22.2973 314.067C54.0737 194.665 154.217 106.076 276.508 90.6688C276.508 93.5576 276.508 96.4464 276.508 100.298L277.471 139.778C277.471 143.63 282.286 140.741 282.286 140.741L391.096 71.4104C394.947 69.4845 393.022 67.5587 392.059 66.5958H391.096L278.434 0.154065C277.471 0.154065 273.619 -0.808851 274.582 2.07992L275.545 46.3744C133.033 62.7441 16.5198 164.814 -20.0712 303.475C-21.0341 308.289 -18.1453 312.141 -14.2937 313.104Z" fill="#5B3203" fill-opacity="0.25"/>
<path d="M439.243 677.088C437.317 673.236 433.465 671.311 429.613 673.236C296.73 726.197 145.552 678.051 67.5553 558.649L107.998 536.501C108.961 535.538 111.85 533.613 107.998 531.687L69.4812 510.502C38.6677 493.17 38.6677 494.133 22.2981 484.504L-12.3671 465.245C-16.2187 463.319 -16.2188 469.097 -16.2188 469.097L-11.4041 597.166C-11.4041 601.017 -9.4783 601.017 -7.55246 600.054L-6.58954 599.091L29.0385 579.833C118.59 718.494 292.879 774.343 445.983 713.679C449.835 711.753 451.76 707.902 449.835 704.05L439.243 677.088Z" fill="#5B3203" fill-opacity="0.25"/>
</svg>
