<svg width="658" height="497" viewBox="0 0 658 497" fill="none" xmlns="http://www.w3.org/2000/svg">
<path fill-rule="evenodd" clip-rule="evenodd" d="M-28.9384 119.525C237.907 -78.0848 614.374 -23.2734 811.984 243.572L816.311 247.899L811.984 253.668C777.366 301.268 735.536 343.098 687.937 377.715C421.092 576.767 44.6242 520.513 -152.985 255.111L-157.312 249.341L-152.985 243.572C-118.368 195.972 -76.5378 154.142 -28.9384 119.525ZM180.21 107.985C178.768 109.428 170.113 119.525 167.229 123.852C165.786 125.294 168.671 129.622 172.998 129.622C181.653 128.179 188.865 125.294 194.634 119.525C196.077 115.197 197.519 110.87 197.519 106.543C197.519 105.101 193.192 103.658 190.307 103.658C185.98 103.658 183.095 105.101 180.21 107.985ZM174.441 136.834C168.671 136.834 162.901 139.718 157.132 144.046C151.362 154.142 147.035 164.239 142.708 174.336H148.477C153.969 173.238 161.132 165.45 167.421 158.613C169.392 156.47 171.277 154.421 172.998 152.7C173.404 152.294 174.836 151.433 176.653 150.339C181.298 147.544 188.459 143.234 187.422 141.161C185.98 138.276 178.768 135.391 174.441 136.834ZM252.331 395.024C259.543 387.812 263.87 379.158 265.312 369.061C267.74 359.35 269.26 360.535 270.381 361.409C271.258 362.093 271.891 362.587 272.524 357.522C273.131 352.67 273.992 349.858 274.787 347.264C275.882 343.688 276.852 340.525 276.852 333.001C275.409 322.904 278.294 314.249 286.948 308.48C291.809 302.809 293.03 302.143 293.677 301.116C294.182 300.314 294.338 299.292 295.603 295.498C297.788 288.944 293.354 286.526 287.314 283.232C285.379 282.177 283.279 281.032 281.179 279.632C269.639 272.42 263.87 259.438 262.427 246.456C263.491 240.075 266.123 243.105 270.903 248.606C272.605 250.566 274.579 252.838 276.852 255.111C277.843 256.102 278.796 257.074 279.72 258.016C286.865 265.303 292.267 270.812 299.93 269.535C308.584 268.092 321.566 259.438 318.681 249.341C317.995 245.909 310.123 238.558 302.216 231.174C293.505 223.039 284.75 214.863 285.506 211.839C286.907 206.236 292.388 210.154 301.949 216.99C302.234 217.193 302.523 217.4 302.815 217.608C306.066 219.931 309.467 221.356 312.681 222.702C319.446 225.537 325.38 228.023 327.336 237.802C329.663 250.991 339.084 253.748 350.437 257.07C358.501 259.43 367.539 262.075 375.703 268.947C374.408 268.407 373.15 268.092 372.05 268.092C369.165 269.535 361.953 275.304 366.281 279.632C370.608 283.959 379.262 283.959 385.032 281.074C385.831 279.876 385.634 278.346 384.81 276.759C390.848 279.042 394.431 270.682 398.014 262.323C400.061 257.545 399.202 253.737 398.493 250.591C397.703 247.089 397.099 244.409 400.898 242.129C402.341 240.687 403.783 239.244 405.226 239.244C410.995 236.36 418.207 240.687 419.65 246.456C421.397 251.697 423.672 257.467 426.157 263.765C427.775 267.868 429.482 272.195 431.189 276.747C439.843 288.286 449.94 298.383 462.922 304.153C472.861 305.147 467.048 295.182 462 286.53C459.722 282.626 457.601 278.989 457.152 276.747C455.71 266.65 458.595 257.996 465.807 252.226C474.461 250.784 481.673 247.899 487.443 243.572C496.386 238.206 494.794 235.612 491.948 230.978C490.205 228.138 487.991 224.531 487.443 219.051C486 204.627 496.097 213.281 497.54 216.166C498.982 219.051 501.867 220.493 504.752 221.935C511.964 224.82 519.176 221.935 522.06 214.723C523.503 210.396 523.503 207.511 523.503 204.627C517.733 182.991 509.079 161.354 496.097 141.161C435.516 47.4044 310.027 21.4411 216.27 82.0221C219.858 81.8111 223.909 81.4765 228.198 81.1223C253.218 79.056 286.315 76.3225 282.621 93.5614C280.431 103.053 288.219 108.48 294.2 112.647C300.035 116.712 304.15 119.578 295.603 123.852C293.149 124.833 289.026 127.317 284.483 130.054C275.673 135.362 265.283 141.622 262.427 139.718C255.444 135.839 264.321 131.542 272.669 127.501C279.84 124.03 286.62 120.748 282.621 118.082C275.276 113.185 262.735 116.601 252.054 119.51C250.151 120.028 248.306 120.531 246.561 120.967C233.579 122.41 220.598 123.852 207.616 126.737C198.962 131.064 188.865 136.834 191.75 144.046C194.634 151.258 217.713 157.027 222.04 157.027C226.367 157.027 230.694 157.027 239.349 145.488C248.003 133.949 258.1 144.046 255.215 145.488C249.446 148.373 245.119 152.7 240.791 157.027C236.464 162.797 227.81 164.239 220.598 161.354C210.501 158.47 200.404 158.47 190.307 161.354C185.98 164.239 180.21 167.124 174.441 170.009C174.037 170.211 173.604 170.413 173.164 170.619C170.457 171.884 167.431 173.298 168.671 175.778C170.114 178.663 171.556 182.991 168.671 184.433C167.99 184.773 167.309 185.275 166.59 185.804C164.264 187.516 161.539 189.522 157.132 187.318C149.92 184.433 142.708 185.875 136.938 190.203C136.938 190.924 136.578 191.645 136.217 192.366C135.856 193.087 135.496 193.809 135.496 194.53C135.496 201.742 138.381 213.281 149.92 204.627C151.315 203.696 154.361 203.216 158.235 202.605C166.372 201.322 178.162 199.463 185.98 191.645C191.019 186.606 196.058 192.57 198.215 195.121C198.527 195.491 198.779 195.79 198.962 195.972C199.375 196.385 200.261 198.099 201.417 200.335C204.298 205.908 208.855 214.723 211.943 214.723C213.952 214.723 212.542 210.995 211.032 206.999C209.288 202.385 207.409 197.415 210.501 197.415C213.638 197.415 216.775 201.252 219.448 204.522C221.692 207.267 223.609 209.612 224.925 208.954C232.137 203.184 237.907 206.069 239.349 213.281C240.791 220.493 233.579 224.82 226.367 227.705C218.308 231.159 204.734 225.423 193.716 220.767C190.931 219.59 188.308 218.481 185.98 217.608C175.883 213.281 164.344 210.396 152.805 208.954L141.265 213.281C141.265 213.281 142.708 216.166 131.169 229.147L129.726 230.59C128.284 237.802 128.284 243.571 128.284 250.783V250.784C128.284 278.189 134.053 305.595 144.15 330.116C150.646 331.74 153.028 332.45 155.156 331.988C156.808 331.629 158.307 330.565 161.459 328.673C162.732 327.91 164.005 327.056 165.271 326.207C171.172 322.249 176.902 318.407 181.653 324.346C183.725 326.937 185.798 328.225 187.603 329.347C190.823 331.347 193.192 332.819 193.192 340.213C193.192 345.355 195.484 344.482 198.152 343.465C201.471 342.201 205.374 340.714 206.174 350.31C209.272 368.9 213.11 367.523 215.04 366.831C215.805 366.557 216.27 366.39 216.27 367.618C216.27 379.158 217.713 405.121 226.367 405.121C236.464 405.121 245.119 400.794 252.331 395.024ZM384.81 276.759C383.224 273.71 379.318 270.452 375.703 268.947C377.414 270.387 379.087 272.014 380.705 273.862C382.194 275.351 383.555 276.285 384.81 276.759ZM496.097 299.825C500.424 295.498 490.328 286.844 483.115 286.844C480.231 286.844 471.576 294.056 477.346 298.383C481.673 302.71 490.328 302.71 496.097 299.825ZM468.691 273.862C470.134 278.189 471.576 281.074 474.461 281.074C474.712 281.074 475.182 281.118 475.795 281.175C478.699 281.445 484.809 282.014 486 279.632C484.558 275.304 480.231 270.977 475.903 268.092C471.576 266.65 467.249 269.535 468.691 273.862ZM298.908 331.2C300.527 325.885 301.892 321.403 302.815 320.019C315.796 298.383 298.488 298.383 289.833 312.807C288.391 315.692 281.179 350.31 286.948 354.637C290.873 357.58 295.465 342.505 298.908 331.2ZM272.524 444.066C291.276 449.835 310.027 452.72 330.221 452.72C374.935 452.72 418.207 438.296 452.825 409.448C447.055 406.563 441.286 405.121 434.074 405.121C418.953 405.121 407.876 414.826 400.237 421.518C397.674 423.764 395.498 425.67 393.686 426.757C390.737 428.526 381.759 425.473 369.907 421.441C352.775 415.613 329.637 407.743 310.027 409.448C292.718 409.448 276.852 419.545 269.639 433.969C268.197 438.296 269.639 441.181 272.524 444.066ZM467.249 390.697C468.691 392.139 470.134 393.582 473.019 393.582C493.212 373.388 509.079 348.867 520.618 320.019C520.618 315.692 519.176 311.365 517.733 307.037L514.848 302.71C512.664 298.341 510.479 299.854 505.697 303.165C501.006 306.414 493.815 311.392 481.673 314.249C479.776 314.724 477.84 315.198 475.877 315.679C465.904 318.122 455.255 320.731 445.613 324.346C428.304 331.558 419.65 350.31 423.977 367.618C425.99 372.854 427.105 377.527 428.01 381.324C430.347 391.127 431.292 395.09 442.728 387.812C452.869 381.359 452.404 384.333 451.877 387.697C451.58 389.596 451.264 391.619 452.825 392.139C454.41 392.667 455.221 391.842 456.179 390.866C457.837 389.177 459.935 387.04 467.249 390.697ZM517.733 239.244C498.982 259.438 522.06 291.171 527.83 292.613C530.715 278.189 532.157 265.208 532.157 252.226V240.687C529.272 232.032 524.945 224.82 514.848 226.263C513.553 226.263 514.584 228.298 515.852 230.802C517.409 233.875 519.323 237.655 517.733 239.244ZM327.619 463.333C444.92 463.333 540.012 369.083 540.012 252.82C540.012 136.557 444.92 42.3069 327.619 42.3069C210.318 42.3069 115.226 136.557 115.226 252.82C115.226 369.083 210.318 463.333 327.619 463.333Z" fill="#00301F" fill-opacity="0.25"/>
</svg>
