<svg width="586" height="744" viewBox="0 0 586 744" fill="none" xmlns="http://www.w3.org/2000/svg">
<path fill-rule="evenodd" clip-rule="evenodd" d="M148.969 725.39C148.734 730.784 145.606 734.84 141.437 735.772V744H138.182V735.861C133.764 735.131 130.27 730.978 130.015 725.39H130C130 725.281 130 725.172 130.004 725.063V724.73H130.02C130.296 718.556 134.343 709 139.405 709C144.466 709 148.684 718.556 148.976 724.73H148.992V725.074L149 725.393H148.992L148.969 725.39Z" fill="#944009"/>
<path fill-rule="evenodd" clip-rule="evenodd" d="M571.268 739.346V747.279H574.609V739.321C577.047 739.305 579.349 739.287 579.349 739.287C582.415 739.287 584.904 736.339 584.904 732.697C584.904 730.951 584.326 729.371 583.384 728.183C584.938 727.123 586 725.131 586 722.844C586 719.449 583.672 716.691 580.801 716.691C580.682 716.691 580.58 716.711 580.47 716.711C580.19 712.413 577.174 709.017 573.47 709.017C569.588 709.017 566.445 712.746 566.445 717.349C566.445 718.654 566.7 719.881 567.15 720.98C563.633 721.902 561 725.622 561 730.067C561 735.21 564.517 739.38 568.849 739.38L571.245 739.371L571.268 739.346Z" fill="white" fill-opacity="0.33"/>
<circle cx="52" cy="232" r="18" fill="white" fill-opacity="0.25"/>
<circle cx="510" cy="44" r="18" fill="#944009" fill-opacity="0.25"/>
<ellipse cx="139" cy="410" rx="25" ry="26" fill="white" fill-opacity="0.25"/>
<ellipse cx="524" cy="394" rx="25" ry="26" fill="white" fill-opacity="0.25"/>
<ellipse cx="467" cy="26" rx="25" ry="26" fill="white" fill-opacity="0.25"/>
<path fill-rule="evenodd" clip-rule="evenodd" d="M300.38 651.938C300.38 652.212 300.175 652.441 299.927 652.441H293.445C293.195 652.441 292.992 652.212 292.992 651.938V643.875C292.992 643.602 293.195 643.374 293.445 643.374H299.927C300.175 643.374 300.379 643.601 300.379 643.875L300.38 651.938ZM300.31 666.491C300.31 666.765 300.105 666.994 299.857 666.994H293.375C293.127 666.994 292.923 666.765 292.923 666.491V658.428C292.923 658.154 293.127 657.927 293.375 657.927H299.857C300.105 657.927 300.309 658.153 300.309 658.428L300.31 666.491ZM300.24 681.044C300.24 681.317 300.035 681.545 299.787 681.545H293.307C293.057 681.545 292.853 681.318 292.853 681.044V672.981C292.853 672.707 293.058 672.48 293.306 672.48H299.786C300.036 672.48 300.24 672.706 300.24 672.981V681.044ZM300.168 695.597C300.168 695.87 299.966 696.098 299.716 696.098H293.236C292.988 696.098 292.784 695.871 292.784 695.597V687.533C292.784 687.26 292.988 687.033 293.236 687.033H299.716C299.966 687.033 300.168 687.259 300.168 687.533V695.597ZM300.098 710.15C300.098 710.426 299.894 710.65 299.646 710.65H293.166C292.916 710.65 292.714 710.426 292.714 710.15V702.088C292.714 701.812 292.916 701.588 293.166 701.588H299.646C299.894 701.588 300.098 701.812 300.098 702.088V710.15ZM300.028 724.703C300.028 724.979 299.828 725.203 299.578 725.203H293.095C292.847 725.203 292.645 724.979 292.645 724.703V716.641C292.645 716.365 292.847 716.141 293.095 716.141H299.579C299.819 716.141 300.029 716.365 300.029 716.641L300.028 724.703ZM290.828 651.938C290.828 652.212 290.628 652.441 290.376 652.441H283.896C283.648 652.441 283.446 652.212 283.446 651.938V643.875C283.446 643.602 283.648 643.374 283.896 643.374H290.376C290.628 643.374 290.828 643.601 290.828 643.875V651.938ZM290.76 666.491C290.76 666.765 290.556 666.994 290.308 666.994H283.828C283.576 666.994 283.376 666.765 283.376 666.491V658.428C283.376 658.154 283.576 657.927 283.829 657.927H290.299C290.549 657.927 290.749 658.153 290.749 658.428V666.491H290.76ZM290.69 681.044C290.69 681.317 290.487 681.545 290.24 681.545H283.757C283.509 681.545 283.305 681.318 283.305 681.044V672.981C283.305 672.707 283.509 672.48 283.757 672.48H290.239C290.479 672.48 290.689 672.706 290.689 672.981L290.69 681.044ZM290.622 695.597C290.622 695.87 290.417 696.098 290.169 696.098H283.679C283.429 696.098 283.229 695.871 283.229 695.597V687.533C283.229 687.26 283.429 687.033 283.679 687.033H290.159C290.399 687.033 290.609 687.259 290.609 687.533V695.597H290.622ZM290.55 710.15C290.55 710.426 290.347 710.65 290.097 710.65H283.617C283.37 710.65 283.165 710.426 283.165 710.15V702.088C283.165 701.812 283.37 701.588 283.618 701.588H290.098C290.348 701.588 290.55 701.812 290.55 702.088V710.15ZM290.48 724.703C290.48 724.979 290.276 725.203 290.028 725.203H283.548C283.298 725.203 283.096 724.979 283.096 724.703V716.641C283.096 716.365 283.298 716.141 283.548 716.141H290.028C290.276 716.141 290.48 716.365 290.48 716.641V724.703ZM281.567 651.938C281.567 652.212 281.362 652.441 281.114 652.441H274.632C274.384 652.441 274.18 652.212 274.18 651.938V643.875C274.18 643.602 274.384 643.374 274.632 643.374H281.114C281.362 643.374 281.567 643.601 281.567 643.875V651.938ZM281.495 666.491C281.495 666.765 281.293 666.994 281.042 666.994H274.562C274.315 666.994 274.11 666.765 274.11 666.491V658.428C274.11 658.154 274.315 657.927 274.563 657.927H281.043C281.293 657.927 281.495 658.153 281.495 658.428V666.491ZM281.425 681.044C281.425 681.317 281.223 681.545 280.975 681.545H274.495C274.243 681.545 274.043 681.318 274.043 681.044V672.981C274.043 672.707 274.243 672.48 274.495 672.48H280.975C281.223 672.48 281.425 672.706 281.425 672.981V681.044ZM281.358 695.597C281.358 695.87 281.153 696.098 280.905 696.098H274.425C274.175 696.098 273.971 695.871 273.971 695.597V687.533C273.971 687.26 274.181 687.033 274.431 687.033H280.911C281.161 687.033 281.371 687.259 281.371 687.533V695.597H281.358ZM281.288 710.15C281.288 710.426 281.084 710.65 280.836 710.65H274.354C274.106 710.65 273.902 710.426 273.902 710.15V702.088C273.902 701.812 274.106 701.588 274.354 701.588H280.836C281.084 701.588 281.288 701.812 281.288 702.088V710.15ZM281.216 724.703C281.216 724.979 281.014 725.203 280.764 725.203H274.284C274.036 725.203 273.832 724.979 273.832 724.703V716.641C273.832 716.365 274.036 716.141 274.284 716.141H280.764C281.014 716.141 281.216 716.365 281.216 716.641V724.703ZM271.746 636.865C271.336 636.865 271 637.231 271 637.694V744H283.024V731.414C283.024 731.14 283.226 730.911 283.476 730.911H290.526C290.774 730.911 290.978 731.14 290.978 731.414V744H303V637.694C303 637.231 302.66 636.865 302.25 636.865H271.746Z" fill="white" fill-opacity="0.4"/>
<path fill-rule="evenodd" clip-rule="evenodd" d="M367.034 674.482C367.034 674.69 366.881 674.863 366.694 674.863H361.834C361.646 674.863 361.494 674.691 361.494 674.483V668.405C361.494 668.198 361.646 668.034 361.834 668.034H366.694C366.881 668.034 367.034 668.208 367.034 668.416V674.505V674.482ZM366.982 685.472C366.982 685.68 366.829 685.851 366.642 685.851H361.782C361.595 685.851 361.442 685.676 361.442 685.468V679.379C361.442 679.171 361.595 678.996 361.782 678.996H366.642C366.829 678.996 366.982 679.16 366.982 679.368V685.457V685.472ZM366.93 696.461C366.93 696.669 366.777 696.84 366.59 696.84H361.73C361.543 696.84 361.39 696.676 361.39 696.468V690.379C361.39 690.171 361.543 690.007 361.73 690.007H366.59C366.777 690.007 366.93 690.182 366.93 690.39V696.479V696.461ZM366.876 707.45C366.876 707.658 366.724 707.829 366.536 707.829H361.676C361.491 707.829 361.338 707.658 361.338 707.45V701.361C361.338 701.153 361.491 700.983 361.678 700.983H366.538C366.724 700.983 366.876 701.158 366.876 701.366V707.455V707.45ZM366.824 718.439C366.824 718.647 366.67 718.811 366.484 718.811H361.624C361.437 718.811 361.284 718.636 361.284 718.428V712.339C361.284 712.131 361.437 711.957 361.624 711.957H366.484C366.67 711.957 366.824 712.121 366.824 712.328V718.417V718.439ZM366.772 729.426C366.772 729.634 366.62 729.798 366.434 729.798H361.571C361.391 729.798 361.241 729.623 361.241 729.415V723.337C361.241 723.129 361.391 722.954 361.581 722.954H366.451C366.641 722.954 366.791 723.118 366.791 723.326V729.404L366.772 729.426ZM359.872 674.481C359.872 674.689 359.722 674.853 359.532 674.853H354.672C354.486 674.853 354.334 674.678 354.334 674.47V668.381C354.334 668.173 354.486 667.999 354.672 667.999H359.532C359.722 667.999 359.872 668.163 359.872 668.37V674.459V674.481ZM359.822 685.468C359.822 685.676 359.667 685.84 359.482 685.84H354.622C354.432 685.84 354.282 685.665 354.282 685.457V679.368C354.282 679.16 354.432 678.985 354.622 678.985H359.482C359.667 678.985 359.822 679.149 359.822 679.357V685.446V685.468ZM359.768 696.455C359.768 696.663 359.615 696.827 359.428 696.827H354.568C354.382 696.827 354.228 696.652 354.228 696.444V690.355C354.228 690.147 354.382 689.972 354.568 689.972H359.428C359.615 689.972 359.768 690.136 359.768 690.344V696.433V696.455ZM359.716 707.442C359.716 707.649 359.563 707.813 359.376 707.813H354.516C354.33 707.813 354.176 707.638 354.176 707.431V701.341C354.176 701.134 354.33 700.959 354.516 700.959H359.376C359.563 700.959 359.716 701.123 359.716 701.331V707.42V707.442ZM359.662 718.428C359.662 718.636 359.512 718.8 359.322 718.8H354.462C354.277 718.8 354.124 718.625 354.124 718.417V712.328C354.124 712.121 354.277 711.946 354.464 711.946H359.324C359.511 711.946 359.662 712.11 359.662 712.317V718.406V718.428ZM359.61 729.415C359.61 729.623 359.457 729.787 359.27 729.787H354.41C354.223 729.787 354.072 729.612 354.072 729.404V723.326C354.072 723.118 354.222 722.943 354.412 722.943H359.272C359.457 722.943 359.61 723.107 359.61 723.315V729.399V729.415ZM352.925 674.47C352.925 674.678 352.772 674.853 352.585 674.853H347.725C347.538 674.853 347.385 674.678 347.385 674.47V668.381C347.385 668.173 347.538 667.999 347.725 667.999H352.585C352.772 667.999 352.925 668.163 352.925 668.37V674.459V674.47ZM352.871 685.457C352.871 685.665 352.721 685.829 352.541 685.829H347.681C347.501 685.829 347.341 685.654 347.341 685.446V679.357C347.341 679.149 347.501 678.974 347.681 678.974H352.541C352.731 678.974 352.881 679.138 352.881 679.346V685.435L352.871 685.457ZM352.821 696.444C352.821 696.652 352.671 696.816 352.481 696.816H347.631C347.441 696.816 347.291 696.641 347.291 696.433V690.344C347.291 690.136 347.441 689.961 347.631 689.961H352.491C352.681 689.961 352.831 690.125 352.831 690.333V696.422L352.821 696.444ZM352.771 707.431C352.771 707.638 352.621 707.802 352.431 707.802H347.571C347.391 707.802 347.231 707.627 347.231 707.42V701.331C347.231 701.123 347.391 700.948 347.571 700.948H352.431C352.621 700.948 352.771 701.123 352.771 701.331V707.42V707.431ZM352.721 718.417C352.721 718.625 352.571 718.789 352.381 718.789H347.521C347.341 718.789 347.181 718.614 347.181 718.406V712.317C347.181 712.11 347.341 711.935 347.521 711.935H352.381C352.571 711.935 352.721 712.103 352.721 712.312V718.401V718.417ZM352.671 729.404C352.671 729.612 352.521 729.776 352.331 729.776H347.471C347.291 729.776 347.131 729.601 347.131 729.393V723.315C347.131 723.107 347.291 722.935 347.471 722.935H352.331C352.521 722.935 352.671 723.104 352.671 723.313V729.402V729.404ZM345.56 663.102C345.253 663.102 345 663.379 345 663.728V744H354.018V734.495C354.018 734.288 354.17 734.117 354.358 734.117H359.644C359.83 734.117 359.984 734.289 359.984 734.495V744H369V663.728C369 663.379 368.744 663.102 368.437 663.102H345.56Z" fill="white" fill-opacity="0.4"/>
<path fill-rule="evenodd" clip-rule="evenodd" d="M227.034 674.482C227.034 674.69 226.881 674.863 226.694 674.863H221.834C221.646 674.863 221.494 674.691 221.494 674.483V668.405C221.494 668.198 221.646 668.034 221.834 668.034H226.694C226.881 668.034 227.034 668.208 227.034 668.416V674.505V674.482ZM226.982 685.472C226.982 685.68 226.829 685.851 226.642 685.851H221.782C221.595 685.851 221.442 685.676 221.442 685.468V679.379C221.442 679.171 221.595 678.996 221.782 678.996H226.642C226.829 678.996 226.982 679.16 226.982 679.368V685.457V685.472ZM226.93 696.461C226.93 696.669 226.777 696.84 226.59 696.84H221.73C221.543 696.84 221.39 696.676 221.39 696.468V690.379C221.39 690.171 221.543 690.007 221.73 690.007H226.59C226.777 690.007 226.93 690.182 226.93 690.39V696.479V696.461ZM226.876 707.45C226.876 707.658 226.724 707.829 226.536 707.829H221.676C221.491 707.829 221.338 707.658 221.338 707.45V701.361C221.338 701.153 221.491 700.983 221.678 700.983H226.538C226.724 700.983 226.876 701.158 226.876 701.366V707.455V707.45ZM226.824 718.439C226.824 718.647 226.67 718.811 226.484 718.811H221.624C221.437 718.811 221.284 718.636 221.284 718.428V712.339C221.284 712.131 221.437 711.957 221.624 711.957H226.484C226.67 711.957 226.824 712.121 226.824 712.328V718.417V718.439ZM226.772 729.426C226.772 729.634 226.62 729.798 226.434 729.798H221.571C221.391 729.798 221.241 729.623 221.241 729.415V723.337C221.241 723.129 221.391 722.954 221.581 722.954H226.451C226.641 722.954 226.791 723.118 226.791 723.326V729.404L226.772 729.426ZM219.872 674.481C219.872 674.689 219.722 674.853 219.532 674.853H214.672C214.486 674.853 214.334 674.678 214.334 674.47V668.381C214.334 668.173 214.486 667.999 214.672 667.999H219.532C219.722 667.999 219.872 668.163 219.872 668.37V674.459V674.481ZM219.822 685.468C219.822 685.676 219.667 685.84 219.482 685.84H214.622C214.432 685.84 214.282 685.665 214.282 685.457V679.368C214.282 679.16 214.432 678.985 214.622 678.985H219.482C219.667 678.985 219.822 679.149 219.822 679.357V685.446V685.468ZM219.768 696.455C219.768 696.663 219.615 696.827 219.428 696.827H214.568C214.382 696.827 214.228 696.652 214.228 696.444V690.355C214.228 690.147 214.382 689.972 214.568 689.972H219.428C219.615 689.972 219.768 690.136 219.768 690.344V696.433V696.455ZM219.716 707.442C219.716 707.649 219.563 707.813 219.376 707.813H214.516C214.33 707.813 214.176 707.638 214.176 707.431V701.341C214.176 701.134 214.33 700.959 214.516 700.959H219.376C219.563 700.959 219.716 701.123 219.716 701.331V707.42V707.442ZM219.662 718.428C219.662 718.636 219.512 718.8 219.322 718.8H214.462C214.277 718.8 214.124 718.625 214.124 718.417V712.328C214.124 712.121 214.277 711.946 214.464 711.946H219.324C219.511 711.946 219.662 712.11 219.662 712.317V718.406V718.428ZM219.61 729.415C219.61 729.623 219.457 729.787 219.27 729.787H214.41C214.223 729.787 214.072 729.612 214.072 729.404V723.326C214.072 723.118 214.222 722.943 214.412 722.943H219.272C219.457 722.943 219.61 723.107 219.61 723.315V729.399V729.415ZM212.925 674.47C212.925 674.678 212.772 674.853 212.585 674.853H207.725C207.538 674.853 207.385 674.678 207.385 674.47V668.381C207.385 668.173 207.538 667.999 207.725 667.999H212.585C212.772 667.999 212.925 668.163 212.925 668.37V674.459V674.47ZM212.871 685.457C212.871 685.665 212.721 685.829 212.541 685.829H207.681C207.501 685.829 207.341 685.654 207.341 685.446V679.357C207.341 679.149 207.501 678.974 207.681 678.974H212.541C212.731 678.974 212.881 679.138 212.881 679.346V685.435L212.871 685.457ZM212.821 696.444C212.821 696.652 212.671 696.816 212.481 696.816H207.631C207.441 696.816 207.291 696.641 207.291 696.433V690.344C207.291 690.136 207.441 689.961 207.631 689.961H212.491C212.681 689.961 212.831 690.125 212.831 690.333V696.422L212.821 696.444ZM212.771 707.431C212.771 707.638 212.621 707.802 212.431 707.802H207.571C207.391 707.802 207.231 707.627 207.231 707.42V701.331C207.231 701.123 207.391 700.948 207.571 700.948H212.431C212.621 700.948 212.771 701.123 212.771 701.331V707.42V707.431ZM212.721 718.417C212.721 718.625 212.571 718.789 212.381 718.789H207.521C207.341 718.789 207.181 718.614 207.181 718.406V712.317C207.181 712.11 207.341 711.935 207.521 711.935H212.381C212.571 711.935 212.721 712.103 212.721 712.312V718.401V718.417ZM212.671 729.404C212.671 729.612 212.521 729.776 212.331 729.776H207.471C207.291 729.776 207.131 729.601 207.131 729.393V723.315C207.131 723.107 207.291 722.935 207.471 722.935H212.331C212.521 722.935 212.671 723.104 212.671 723.313V729.402V729.404ZM205.56 663.102C205.253 663.102 205 663.379 205 663.728V744H214.018V734.495C214.018 734.288 214.17 734.117 214.358 734.117H219.644C219.83 734.117 219.984 734.289 219.984 734.495V744H229V663.728C229 663.379 228.744 663.102 228.437 663.102H205.56Z" fill="white" fill-opacity="0.4"/>
<path fill-rule="evenodd" clip-rule="evenodd" d="M278.668 625.693C278.668 626.048 278.401 626.34 278.077 626.34H269.586C269.259 626.34 268.994 626.048 268.994 625.693V615.296C268.994 614.941 269.266 614.65 269.59 614.65H278.08C278.405 614.65 278.677 614.942 278.677 615.296V625.693H278.668ZM278.578 644.46C278.578 644.815 278.31 645.107 277.985 645.107H269.495C269.171 645.107 268.903 644.818 268.903 644.464V634.068C268.903 633.713 269.171 633.425 269.495 633.425H277.985C278.31 633.425 278.578 633.722 278.578 634.076V644.472V644.46ZM278.487 663.227C278.487 663.582 278.219 663.874 277.894 663.874H269.404C269.079 663.874 268.811 663.582 268.811 663.227V652.829C268.811 652.475 269.076 652.183 269.4 652.183H277.89C278.215 652.183 278.479 652.475 278.479 652.829V663.233L278.487 663.227ZM278.393 681.994C278.393 682.349 278.129 682.646 277.8 682.646H269.313C268.989 682.646 268.72 682.357 268.72 682.003V671.598C268.72 671.243 268.988 670.951 269.313 670.951H277.8C278.128 670.951 278.393 671.244 278.393 671.598V681.994ZM278.302 700.764C278.302 701.127 278.034 701.416 277.709 701.416H269.22C268.892 701.416 268.627 701.127 268.627 700.772V690.377C268.627 690.022 268.891 689.733 269.22 689.733H277.707C278.031 689.733 278.299 690.022 278.299 690.385V700.78L278.302 700.764ZM278.21 719.533C278.21 719.896 277.946 720.185 277.622 720.185H269.128C268.803 720.185 268.539 719.896 268.539 719.542V709.146C268.539 708.791 268.803 708.503 269.128 708.503H277.621C277.945 708.503 278.21 708.791 278.21 709.154V719.55L278.21 719.533ZM266.159 625.693C266.159 626.048 265.897 626.34 265.566 626.34H257.076C256.751 626.34 256.48 626.048 256.48 625.693V615.296C256.48 614.941 256.744 614.65 257.068 614.65H265.551C265.876 614.65 266.14 614.942 266.14 615.296V625.693H266.159ZM266.071 644.46C266.071 644.815 265.803 645.107 265.478 645.107H256.991C256.661 645.107 256.398 644.818 256.398 644.464V634.068C256.398 633.713 256.662 633.425 256.994 633.425H265.485C265.809 633.425 266.081 633.722 266.081 634.076V644.472L266.071 644.46ZM265.981 663.227C265.981 663.582 265.712 663.874 265.387 663.874H256.897C256.573 663.874 256.305 663.582 256.305 663.227V652.829C256.305 652.475 256.573 652.183 256.897 652.183H265.387C265.712 652.183 265.98 652.475 265.98 652.829V663.233L265.981 663.227ZM265.888 681.994C265.888 682.349 265.621 682.646 265.296 682.646H256.806C256.481 682.646 256.217 682.357 256.217 682.003V671.598C256.217 671.243 256.489 670.951 256.813 670.951H265.304C265.628 670.951 265.9 671.244 265.9 671.598V681.994L265.888 681.994ZM265.794 700.764C265.794 701.127 265.53 701.416 265.205 701.416H256.715C256.391 701.416 256.127 701.127 256.127 700.772V690.377C256.127 690.022 256.398 689.733 256.723 689.733H265.213C265.545 689.733 265.809 690.022 265.809 690.385V700.78L265.794 700.764ZM265.704 719.533C265.704 719.896 265.439 720.185 265.115 720.185H256.625C256.3 720.185 256.036 719.896 256.036 719.542V709.146C256.036 708.791 256.3 708.503 256.632 708.503H265.122C265.447 708.503 265.719 708.791 265.719 709.154V719.55L265.704 719.533ZM254.028 625.693C254.028 626.048 253.761 626.34 253.435 626.34H244.945C244.621 626.34 244.353 626.048 244.353 625.693V615.296C244.353 614.941 244.621 614.65 244.945 614.65H253.435C253.76 614.65 254.028 614.942 254.028 615.296V625.693ZM253.934 644.46C253.934 644.815 253.67 645.107 253.342 645.107H244.859C244.535 645.107 244.27 644.818 244.27 644.464V634.068C244.27 633.713 244.542 633.425 244.867 633.425H253.357C253.689 633.425 253.953 633.722 253.953 634.076V644.472L253.934 644.46ZM253.844 663.227C253.844 663.582 253.578 663.874 253.253 663.874H244.766C244.436 663.874 244.173 663.582 244.173 663.227V652.829C244.173 652.475 244.436 652.183 244.766 652.183H253.253C253.578 652.183 253.842 652.475 253.842 652.829V663.233L253.844 663.227ZM253.755 681.994C253.755 682.349 253.487 682.646 253.162 682.646H244.672C244.347 682.646 244.079 682.357 244.079 682.003V671.598C244.079 671.243 244.347 670.951 244.672 670.951H253.162C253.487 670.951 253.755 671.244 253.755 671.598V681.994ZM253.664 700.764C253.664 701.127 253.395 701.416 253.071 701.416H244.581C244.256 701.416 243.988 701.127 243.988 700.772V690.377C243.988 690.022 244.256 689.733 244.581 689.733H253.071C253.395 689.733 253.663 690.022 253.663 690.385V700.78L253.664 700.764ZM253.57 719.533C253.57 719.896 253.306 720.185 252.976 720.185H244.488C244.164 720.185 243.897 719.896 243.897 719.542V709.146C243.897 708.791 244.165 708.503 244.489 708.503H252.979C253.312 708.503 253.576 708.791 253.576 709.154V719.55L253.57 719.533ZM241.165 606.255C240.629 606.255 240.188 606.728 240.188 607.325V744.036H255.938V728.183C255.938 727.828 256.202 727.537 256.534 727.537H265.771C266.096 727.537 266.368 727.829 266.368 728.183V744.036H282.118V607.325C282.118 606.728 281.673 606.255 281.137 606.255H241.176H241.165Z" fill="white"/>
<path fill-rule="evenodd" clip-rule="evenodd" d="M341.724 669.584C341.724 669.97 341.437 670.284 341.083 670.284H307.977C307.626 670.284 307.34 669.97 307.34 669.591V659.368C307.34 658.983 307.626 658.669 307.979 658.669H341.085C341.432 658.669 341.726 658.983 341.726 659.37V669.59L341.724 669.584ZM341.724 686.182C341.724 686.57 341.437 686.884 341.083 686.884H307.977C307.626 686.884 307.34 686.57 307.34 686.191V675.968C307.34 675.582 307.626 675.269 307.979 675.269H341.085C341.432 675.269 341.726 675.582 341.726 675.968V686.181L341.724 686.182ZM341.724 702.782C341.724 703.17 341.437 703.483 341.083 703.483H307.977C307.626 703.483 307.34 703.17 307.34 702.79V692.568C307.34 692.189 307.626 691.867 307.979 691.867H341.085C341.432 691.867 341.726 692.18 341.726 692.568V702.79L341.724 702.782ZM341.724 719.175C341.724 719.563 341.437 719.877 341.083 719.877H307.977C307.626 719.877 307.34 719.563 307.34 719.184V708.961C307.34 708.582 307.626 708.268 307.979 708.268H341.085C341.432 708.268 341.726 708.59 341.726 708.97V719.192L341.724 719.175ZM341.724 650.813H304.115C303.562 650.813 303.117 651.283 303.117 651.877V744.148H319.323V727.912C319.323 727.554 319.587 727.265 319.915 727.265H329.149C329.473 727.265 329.741 727.554 329.741 727.912V744.148H345.944V651.868C345.944 651.278 345.499 650.808 344.944 650.808H341.724V650.813Z" fill="white"/>
<path fill-rule="evenodd" clip-rule="evenodd" d="M398.898 711.68L383.705 696.631L383.562 696.452C383.426 696.287 383.23 696.183 383.011 696.183C382.822 696.183 382.656 696.27 382.52 696.395L382.43 696.51L382.286 696.688L367.464 711.508L367.238 711.815C367.155 711.947 367.109 712.107 367.109 712.277C367.109 712.731 367.449 713.106 367.864 713.106H398.406C398.821 713.106 399.161 712.732 399.161 712.277C399.161 712.065 399.084 711.876 398.965 711.728L398.924 711.68H398.898Z" fill="white"/>
<path fill-rule="evenodd" clip-rule="evenodd" d="M396.08 728.015C396.08 728.282 395.882 728.5 395.641 728.5H388.791C388.55 728.5 388.35 728.282 388.35 728.015V719.571C388.35 719.306 388.551 719.087 388.792 719.087H395.641C395.882 719.087 396.08 719.31 396.08 719.574V728.022V728.015ZM386.718 728.015C386.718 728.282 386.522 728.5 386.28 728.5H379.43C379.189 728.5 378.99 728.282 378.99 728.015V719.571C378.99 719.306 379.188 719.087 379.429 719.087H386.28C386.522 719.087 386.718 719.31 386.718 719.574V728.022V728.015ZM377.358 728.015C377.358 728.282 377.162 728.5 376.919 728.5H370.07C369.828 728.5 369.63 728.282 369.63 728.015V719.571C369.63 719.306 369.828 719.087 370.07 719.087H376.919C377.162 719.087 377.358 719.31 377.358 719.574V728.022V728.015ZM367.692 716.157C367.279 716.157 366.945 716.527 366.945 716.982V744.035H379.005V732.431C379.005 731.972 379.341 731.606 379.756 731.606H385.967C386.381 731.606 386.716 731.972 386.716 732.431V744.035H399.038V716.982C399.038 716.527 398.705 716.157 398.291 716.157H367.692Z" fill="white"/>
<path fill-rule="evenodd" clip-rule="evenodd" d="M218.947 711.68L203.753 696.631L203.606 696.452C203.469 696.287 203.272 696.183 203.054 696.183C202.865 696.183 202.697 696.27 202.561 696.395L202.47 696.51L202.327 696.688L187.505 711.508L187.278 711.815C187.195 711.947 187.148 712.107 187.148 712.277C187.148 712.731 187.487 713.106 187.899 713.106H218.437C218.85 713.106 219.188 712.732 219.188 712.277C219.188 712.065 219.11 711.876 218.99 711.728L218.949 711.68H218.947Z" fill="white"/>
<path fill-rule="evenodd" clip-rule="evenodd" d="M216.135 728.015C216.135 728.282 215.936 728.5 215.695 728.5H208.846C208.604 728.5 208.405 728.282 208.405 728.015V719.571C208.405 719.306 208.604 719.087 208.846 719.087H215.695C215.936 719.087 216.135 719.31 216.135 719.574V728.022V728.015ZM206.773 728.015C206.773 728.282 206.577 728.5 206.335 728.5H199.485C199.243 728.5 199.045 728.282 199.045 728.015V719.571C199.045 719.306 199.243 719.087 199.485 719.087H206.335C206.577 719.087 206.773 719.31 206.773 719.574V728.022V728.015ZM197.413 728.015C197.413 728.282 197.217 728.5 196.973 728.5H190.124C189.883 728.5 189.685 728.282 189.685 728.015V719.571C189.685 719.306 189.883 719.087 190.124 719.087H196.973C197.217 719.087 197.413 719.31 197.413 719.574V728.022V728.015ZM187.747 716.157C187.334 716.157 187 716.527 187 716.982V744.035H199.06V732.431C199.06 731.972 199.396 731.606 199.811 731.606H206.022C206.436 731.606 206.771 731.972 206.771 732.431V744.035H219.093V716.982C219.093 716.527 218.76 716.157 218.346 716.157H187.747Z" fill="white"/>
<path fill-rule="evenodd" clip-rule="evenodd" d="M498.459 739.212H484.401C483.63 739.212 483 739.901 483 740.744V744.361H532.938V740.744C532.938 739.901 532.309 739.212 531.537 739.212H517.479V735.361C517.479 734.428 516.779 733.66 515.924 733.66H500.015C499.161 733.66 498.459 734.428 498.459 735.361V739.212Z" fill="white"/>
<path d="M511.517 757.119V721.269C511.517 721.269 510.988 713.758 517.811 713.758C525.043 713.758 524.404 723.026 524.404 723.026V757.119" stroke="white" stroke-width="2" stroke-linecap="round" stroke-dasharray="4 4 4 4 4 4"/>
<path d="M507.845 739.259V703.245C507.845 703.245 507.317 695.899 514.137 695.899C521.37 695.899 520.732 704.968 520.732 704.968V739.259" stroke="white" stroke-width="2" stroke-linecap="round" stroke-dasharray="4 4 4 4 4 4"/>
<path d="M504.417 741.549V714.357C504.417 714.357 504.946 705.054 498.125 705.054C490.892 705.054 491.53 716.537 491.53 716.537V748.414" stroke="white" stroke-width="2" stroke-linecap="round" stroke-dasharray="4 4 4 4 4 4"/>
<path fill-rule="evenodd" clip-rule="evenodd" d="M561.088 738.43V747.268H565.02V738.402C567.89 738.384 570.6 738.365 570.6 738.365C574.21 738.365 577.14 735.081 577.14 731.024C577.14 729.078 576.46 727.318 575.35 725.995C577.18 724.814 578.43 722.595 578.43 720.048C578.43 716.265 575.69 713.193 572.31 713.193C572.17 713.193 572.05 713.215 571.92 713.215C571.59 708.427 568.04 704.645 563.68 704.645C559.11 704.645 555.41 708.799 555.41 713.926C555.41 715.38 555.71 716.746 556.24 717.971C552.1 718.998 549 723.142 549 728.094C549 733.822 553.14 738.468 558.24 738.468L561.06 738.458L561.088 738.43Z" fill="white"/>
<path fill-rule="evenodd" clip-rule="evenodd" d="M125.088 735.15V743.988H129.02V735.122C131.89 735.105 134.6 735.085 134.6 735.085C138.21 735.085 141.14 731.801 141.14 727.744C141.14 725.798 140.46 724.038 139.35 722.715C141.18 721.534 142.43 719.315 142.43 716.768C142.43 712.986 139.69 709.914 136.31 709.914C136.17 709.914 136.05 709.936 135.92 709.936C135.59 705.147 132.04 701.365 127.68 701.365C123.11 701.365 119.41 705.519 119.41 710.646C119.41 712.1 119.71 713.467 120.24 714.691C116.1 715.719 113 719.862 113 724.814C113 730.543 117.14 735.189 122.24 735.189L125.06 735.178L125.088 735.15Z" fill="white"/>
<g clip-path="url(#clip0_4492_4540)">
<path fill-rule="evenodd" clip-rule="evenodd" d="M3.22887 719.64C3.22887 719.109 3.66153 718.673 4.19173 718.673H17.1673C17.6983 718.673 18.1302 719.109 18.1302 719.64V726.341C18.1302 726.871 17.6975 727.306 17.1673 727.306H4.19173C3.66227 727.306 3.22887 726.871 3.22887 726.341V719.64ZM20.7658 719.64C20.7658 719.109 21.1985 718.673 21.7287 718.673H34.7043C35.2337 718.673 35.6671 719.109 35.6671 719.64V726.341C35.6671 726.871 35.2345 727.306 34.7043 727.306H21.7287C21.1977 727.306 20.7658 726.871 20.7658 726.341V719.64ZM38.302 719.64C38.302 719.109 38.7347 718.673 39.2641 718.673H52.2412C52.7692 718.673 53.2019 719.109 53.2019 719.64V726.341C53.2019 726.871 52.7692 727.306 52.2412 727.306H39.2641C38.7347 727.306 38.302 726.871 38.302 726.341V719.64ZM55.8382 719.64C55.8382 719.109 56.2709 718.673 56.8011 718.673H69.7767C70.3061 718.673 70.7395 719.109 70.7395 719.64V726.341C70.7395 726.871 70.3069 727.306 69.7767 727.306H56.8011C56.2716 727.306 55.8382 726.871 55.8382 726.341V719.64ZM73.4015 719.752C73.4015 719.183 73.8657 718.718 74.4319 718.718H78.1719C78.7387 718.718 79.2022 719.183 79.2022 719.752V736.534C79.2022 737.102 78.7387 737.566 78.1726 737.566H74.4297C73.8635 737.566 73.4001 737.102 73.4001 736.533V719.752H73.4015ZM81.7469 731.125C81.7469 730.05 81.7659 719.153 81.7659 719.153C81.7659 719.153 81.6801 718.674 82.3966 718.674H84.2241L86.1982 727.913V731.127C86.1982 731.127 86.284 731.843 85.6526 731.843H82.3555C82.3555 731.843 81.7454 731.846 81.7454 731.126L81.7469 731.125ZM0 718.264L0.104133 740.822H15.5276C15.4029 740.361 15.3355 739.873 15.3333 739.372V739.351C15.3333 736.256 17.8339 733.747 20.9183 733.747C24.0079 733.747 26.5078 736.256 26.5093 739.351V739.36C26.5093 739.851 26.4455 740.33 26.3281 740.788L41.0337 740.748H59.598C59.4865 740.307 59.4257 739.846 59.4249 739.373V739.35C59.4271 736.257 61.9256 733.749 65.0159 733.747C68.0834 733.749 70.5745 736.228 70.6039 739.301V739.361C70.6039 739.841 70.5452 740.304 70.4323 740.75H86.1931C87.0679 740.722 87.9457 740.1 87.9237 738.932L87.9457 734.532V728.801L87.9311 727.904L85.3541 716.185C85.3226 715.536 84.7675 715.088 84.0759 715.039L64.5575 715.119L53.7929 715.1L43.0247 715.072L32.2505 715.054L21.4867 715.028L2.53147 715C0 714.998 0 715.712 0 718.264Z" fill="#944009"/>
<path fill-rule="evenodd" clip-rule="evenodd" d="M62.6528 739.356C62.6528 738.048 63.7088 736.989 65.0141 736.989C66.3173 736.989 67.374 738.051 67.374 739.359C67.374 740.666 66.318 741.726 65.0127 741.726C63.7095 741.726 62.6513 740.666 62.6513 739.359M60.4293 739.356V739.373C60.4367 741.908 62.4827 743.958 65.0127 743.958H65.02C67.55 743.951 69.596 741.897 69.596 739.362V739.31C69.5703 736.792 67.5302 734.76 65.0127 734.76C62.4812 734.76 60.4308 736.819 60.4293 739.356ZM18.5501 739.359C18.5501 738.051 19.6083 736.992 20.9115 736.992C22.2153 736.992 23.2728 738.053 23.2728 739.361C23.2728 740.667 22.2153 741.728 20.9115 741.728C19.6083 741.728 18.5501 740.667 18.5501 739.359ZM16.3281 739.356V739.374C16.334 741.908 18.3829 743.959 20.91 743.959H20.9203C23.4481 743.952 25.4933 741.898 25.4963 739.362V739.31C25.4699 736.793 23.4283 734.761 20.9115 734.761C18.3815 734.761 16.3281 736.819 16.3281 739.356Z" fill="#944009"/>
</g>
<path d="M81.1723 517.462C81.1638 517.273 81.0901 517.094 80.964 516.953C80.8378 516.813 80.6669 516.721 80.4805 516.693H76.5601C76.3684 516.747 76.2051 516.873 76.1047 517.045C76.0043 517.217 75.9747 517.422 76.022 517.615C76.0687 517.738 76.1408 517.849 76.2335 517.942C76.3262 518.035 76.4375 518.107 76.5601 518.153H80.4805C80.8648 518.153 81.0954 517.846 81.1723 517.462Z" fill="white"/>
<path d="M106.465 516.763H102.544C102.353 516.817 102.189 516.944 102.089 517.116C101.989 517.288 101.959 517.492 102.006 517.686C102.053 517.808 102.125 517.919 102.218 518.012C102.311 518.105 102.422 518.177 102.544 518.224H106.465C106.657 518.17 106.82 518.043 106.92 517.871C107.021 517.699 107.05 517.495 107.003 517.301C106.968 517.173 106.899 517.055 106.805 516.961C106.711 516.867 106.594 516.798 106.465 516.763Z" fill="white"/>
<path d="M91.4731 507.161C91.6615 507.153 91.8411 507.079 91.9813 506.953C92.1214 506.827 92.2135 506.656 92.2418 506.47V502.549C92.1746 502.366 92.0458 502.212 91.8774 502.114C91.709 502.016 91.5117 501.979 91.3193 502.011C91.1968 502.058 91.0855 502.13 90.9927 502.223C90.9 502.315 90.8279 502.427 90.7812 502.549V506.47C90.8184 506.639 90.9033 506.794 91.0259 506.917C91.1485 507.039 91.3037 507.124 91.4731 507.161Z" fill="white"/>
<path d="M91.4718 527.839C91.2806 527.838 91.0959 527.908 90.9537 528.036C90.8116 528.164 90.7222 528.34 90.7031 528.531V532.451C90.7703 532.634 90.8991 532.788 91.0675 532.886C91.2359 532.984 91.4332 533.021 91.6256 532.989C91.7481 532.942 91.8594 532.87 91.9522 532.778C92.0449 532.685 92.117 532.574 92.1637 532.451V528.531C92.1637 528.347 92.0908 528.171 91.961 528.042C91.8313 527.912 91.6553 527.839 91.4718 527.839Z" fill="white"/>
<path d="M78.0963 510.698L81.5555 512.62C81.6513 512.657 81.7534 512.674 81.8559 512.67C81.9584 512.667 82.0592 512.643 82.1523 512.6C82.2455 512.557 82.3291 512.496 82.3982 512.42C82.4673 512.344 82.5205 512.256 82.5548 512.159C82.5948 512.01 82.5945 511.854 82.5539 511.705C82.5134 511.556 82.4341 511.421 82.3242 511.313L78.865 509.392C78.7692 509.355 78.6671 509.338 78.5646 509.341C78.4621 509.345 78.3613 509.369 78.2681 509.412C78.175 509.455 78.0914 509.516 78.0223 509.592C77.9532 509.667 77.9 509.756 77.8657 509.853C77.8257 510.002 77.826 510.158 77.8665 510.307C77.9071 510.455 77.9864 510.591 78.0963 510.698Z" fill="white"/>
<path d="M104.848 524.303L101.388 522.381C101.293 522.345 101.191 522.328 101.088 522.331C100.985 522.334 100.885 522.358 100.792 522.401C100.698 522.444 100.615 522.505 100.546 522.581C100.477 522.657 100.423 522.746 100.389 522.843C100.349 522.991 100.349 523.148 100.39 523.297C100.431 523.445 100.51 523.58 100.62 523.688L104.079 525.61C104.175 525.647 104.277 525.664 104.379 525.66C104.482 525.657 104.583 525.633 104.676 525.59C104.769 525.547 104.852 525.486 104.922 525.41C104.991 525.334 105.044 525.245 105.078 525.149C105.118 525 105.118 524.843 105.077 524.695C105.037 524.546 104.958 524.411 104.848 524.303Z" fill="white"/>
<path d="M96.6236 508.544C96.7922 508.621 96.9818 508.641 97.1627 508.599C97.3435 508.558 97.5054 508.457 97.6229 508.313L99.5447 504.854C99.5799 504.753 99.5938 504.646 99.5854 504.54C99.577 504.433 99.5465 504.33 99.4959 504.236C99.4453 504.142 99.3756 504.059 99.2914 503.994C99.2071 503.928 99.1101 503.881 99.0066 503.855C98.8703 503.81 98.7234 503.808 98.5859 503.849C98.4483 503.89 98.3268 503.973 98.2379 504.085L96.3161 507.545C96.2465 507.721 96.239 507.916 96.2949 508.098C96.3507 508.28 96.4666 508.437 96.6236 508.544Z" fill="white"/>
<path d="M86.4017 526.456C86.2331 526.378 86.0435 526.359 85.8626 526.4C85.6818 526.442 85.5199 526.543 85.4024 526.686L83.4806 530.146C83.4454 530.246 83.4315 530.353 83.4399 530.46C83.4483 530.566 83.4788 530.67 83.5294 530.764C83.58 530.858 83.6497 530.94 83.7339 531.006C83.8182 531.072 83.9152 531.119 84.0187 531.145C84.155 531.19 84.3019 531.192 84.4394 531.151C84.5769 531.11 84.6984 531.027 84.7874 530.914L86.7092 527.455C86.7734 527.278 86.7781 527.084 86.7226 526.904C86.6671 526.724 86.5545 526.566 86.4017 526.456Z" fill="white"/>
<path d="M85.4303 508.306C85.5452 508.453 85.7072 508.556 85.8891 508.598C86.071 508.64 86.2618 508.618 86.4296 508.537C86.5865 508.43 86.7024 508.272 86.7583 508.091C86.8142 507.909 86.8067 507.714 86.7371 507.537L84.7384 504.078C84.5947 503.937 84.4016 503.858 84.2003 503.858C83.9991 503.858 83.8059 503.937 83.6623 504.078C83.5567 504.173 83.4794 504.294 83.4387 504.43C83.398 504.566 83.3955 504.71 83.4316 504.847L85.4303 508.306Z" fill="white"/>
<path d="M97.6213 526.687C97.4776 526.546 97.2844 526.467 97.0832 526.467C96.882 526.467 96.6888 526.546 96.5451 526.687C96.4395 526.781 96.3622 526.903 96.3215 527.038C96.2808 527.174 96.2784 527.318 96.3145 527.455L98.3131 530.838C98.4568 530.978 98.65 531.057 98.8512 531.057C99.0524 531.057 99.2456 530.978 99.3893 530.838C99.4948 530.743 99.5722 530.621 99.6128 530.486C99.6535 530.35 99.656 530.206 99.6199 530.069L97.6213 526.687Z" fill="white"/>
<path d="M101.465 512.618L104.847 510.619C104.988 510.476 105.067 510.282 105.067 510.081C105.067 509.88 104.988 509.687 104.847 509.543C104.753 509.438 104.631 509.36 104.495 509.32C104.36 509.279 104.216 509.276 104.079 509.313L100.696 511.388C100.555 511.532 100.477 511.725 100.477 511.926C100.477 512.127 100.555 512.32 100.696 512.464C100.785 512.578 100.911 512.656 101.052 512.684C101.193 512.712 101.34 512.689 101.465 512.618Z" fill="white"/>
<path d="M81.5851 522.381L78.126 524.38C77.9851 524.523 77.9062 524.717 77.9062 524.918C77.9062 525.119 77.9851 525.312 78.126 525.456C78.2204 525.561 78.3422 525.639 78.4779 525.679C78.6135 525.72 78.7578 525.723 78.8947 525.687L82.277 523.688C82.4178 523.544 82.4967 523.351 82.4967 523.15C82.4967 522.949 82.4178 522.755 82.277 522.612C82.2049 522.5 82.0972 522.417 81.9715 522.375C81.8458 522.333 81.7095 522.335 81.5851 522.381Z" fill="white"/>
<path d="M91.5798 508.43C89.1994 508.446 86.9212 509.399 85.238 511.082C83.5548 512.765 82.602 515.043 82.5859 517.424C82.588 519.808 83.5362 522.095 85.2224 523.781C86.9086 525.467 89.1951 526.415 91.5798 526.417C92.7623 526.423 93.9341 526.193 95.0275 525.743C96.121 525.293 97.1145 524.631 97.9507 523.795C98.7868 522.958 99.4491 521.965 99.8993 520.871C100.349 519.778 100.579 518.606 100.574 517.424V517.347C100.571 516.17 100.335 515.006 99.8813 513.92C99.4273 512.835 98.7635 511.85 97.9279 511.021C97.0924 510.193 96.1015 509.537 95.0121 509.093C93.9228 508.648 92.7564 508.423 91.5798 508.43Z" fill="white"/>
<defs>
<clipPath id="clip0_4492_4540">
<rect width="88" height="29" fill="white" transform="translate(0 715)"/>
</clipPath>
</defs>
</svg>
