<svg width="554" height="950" viewBox="0 0 554 950" fill="none" xmlns="http://www.w3.org/2000/svg">
<path fill-rule="evenodd" clip-rule="evenodd" d="M501.023 855.662L508.774 841.859C509.617 841.587 510.327 841.007 510.762 840.235L517.308 842.27L552.433 837.862L525.874 836.648L510.784 836.831C510.489 836.282 510.055 835.822 509.524 835.496C508.993 835.17 508.386 834.991 507.763 834.977C507.643 834.974 507.527 834.971 507.407 834.969L506.119 829.227L484.749 801L496.976 824.613L504.435 837.169C504.171 837.814 504.106 838.524 504.249 839.207C504.392 839.89 504.737 840.514 505.238 840.999L500.446 845.415L486.691 878.065L501.023 855.662Z" fill="white"/>
<path fill-rule="evenodd" clip-rule="evenodd" d="M504.957 956.53L507.504 840.174L510.662 838.911L513.158 956.53" fill="white"/>
<path fill-rule="evenodd" clip-rule="evenodd" d="M345.868 876.017L352.108 864.902C352.788 864.683 353.359 864.216 353.709 863.594L358.98 865.232L387.263 861.678L365.877 860.703L353.726 860.853C353.489 860.412 353.139 860.041 352.712 859.779C352.285 859.516 351.796 859.372 351.294 859.361C351.197 859.359 351.104 859.357 351.007 859.354L349.97 854.731L332.762 832.007L342.608 851.017L348.614 861.126C348.402 861.646 348.349 862.218 348.465 862.767C348.58 863.317 348.858 863.82 349.261 864.21L345.403 867.767L334.329 894.058L345.868 876.017Z" fill="white"/>
<path fill-rule="evenodd" clip-rule="evenodd" d="M347.945 956.529L349.987 863.241L352.519 862.228L354.52 956.529" fill="white"/>
<path fill-rule="evenodd" clip-rule="evenodd" d="M47.0336 869.325L43.2656 870.64L64.0706 810L70.0046 812.027L51.2006 866.855" fill="white"/>
<path fill-rule="evenodd" clip-rule="evenodd" d="M71.4444 839.256L61.1914 819.541L63.9734 818.098L74.0304 837.428" fill="white"/>
<path fill-rule="evenodd" clip-rule="evenodd" d="M80.028 868.187C80.028 868.813 79.518 869.314 78.9 869.314H65.143C64.513 869.314 64.007 868.804 64.007 868.184V859.584C64.007 858.954 64.507 858.444 65.137 858.444H78.887C79.507 858.444 80.017 858.944 80.017 859.574V868.164L80.028 868.187ZM80.028 884.071C80.028 884.693 79.518 885.194 78.9 885.194H65.143C64.513 885.194 64.007 884.684 64.007 884.064V875.474C64.007 874.844 64.507 874.344 65.137 874.344H78.887C79.507 874.344 80.017 874.844 80.017 875.464V884.064L80.028 884.071ZM80.028 899.959C80.028 900.573 79.518 901.079 78.9 901.079H65.143C64.513 901.079 64.007 900.573 64.007 899.959V891.356C64.007 890.736 64.507 890.236 65.137 890.236H78.887C79.507 890.236 80.017 890.736 80.017 891.356V899.966L80.028 899.959ZM80.028 915.839C80.028 916.461 79.518 916.966 78.9 916.966H65.143C64.513 916.966 64.007 916.466 64.007 915.846V907.256C64.007 906.626 64.507 906.136 65.137 906.136H78.887C79.507 906.136 80.017 906.636 80.017 907.266V915.866L80.028 915.839ZM59.032 865.151V884.086C59.032 884.716 58.522 885.216 57.902 885.216H44.142C43.512 885.216 43.002 884.716 43.002 884.096V881.716C43.01 881.566 43.04 881.426 43.092 881.296C43.116 881.246 43.12 881.226 43.162 881.166C43.188 881.116 43.225 881.066 43.262 881.016C43.297 880.966 43.346 880.896 43.392 880.836C45.152 878.326 53.086 868.566 56.422 864.486L56.755 864.086C56.997 863.796 57.363 863.606 57.771 863.606C58.401 863.606 58.907 864.066 59.031 864.666V865.176L59.032 865.151ZM58.994 899.959C58.994 900.573 58.488 901.079 57.864 901.079H44.098C43.474 901.079 42.972 900.573 42.972 899.959V891.356C42.972 890.736 43.474 890.236 44.097 890.236H57.857C58.477 890.236 58.987 890.736 58.987 891.356V899.966L58.994 899.959ZM58.994 915.839C58.994 916.461 58.488 916.966 57.864 916.966H44.098C43.474 916.966 42.972 916.466 42.972 915.846V907.256C42.972 906.626 43.474 906.136 44.097 906.136H57.857C58.477 906.136 58.987 906.636 58.987 907.266V915.866L58.994 915.839ZM66.174 851.271L66.499 850.864C69.609 846.884 74.839 840.454 77.389 837.334L77.729 836.934C77.969 836.634 78.339 836.454 78.749 836.454C79.379 836.454 79.889 836.904 80.009 837.504V852.044C80.009 852.744 79.459 853.304 78.759 853.334C78.739 853.334 78.719 853.344 78.709 853.344C78.689 853.344 78.679 853.334 78.659 853.334H67.318C67.298 853.334 67.278 853.344 67.258 853.344C67.238 853.344 67.224 853.334 67.202 853.334C66.509 853.304 65.95 852.734 65.95 852.034C65.95 851.744 66.045 851.474 66.207 851.254L66.174 851.271ZM84.121 819.194C83.871 819.194 83.653 819.284 83.461 819.404C83.441 819.414 83.281 819.594 82.984 819.944L37.6 877.394L37.393 877.664C37.159 877.894 37.008 878.204 37 878.554V949.554H53.43V927.874C53.43 927.354 53.852 926.929 54.373 926.929H68.013C68.533 926.929 68.956 927.359 68.956 927.879V949.565H85.389V820.547C85.389 820.377 85.349 820.215 85.289 820.077C85.139 819.567 84.689 819.194 84.129 819.194H84.121Z" fill="white"/>
<path d="M7.00764 809.947C6.99607 809.692 6.89631 809.449 6.72539 809.259C6.55446 809.069 6.32294 808.944 6.07032 808.906H0.75884C0.499066 808.979 0.277871 809.15 0.141875 809.383C0.00587886 809.617 -0.0343014 809.893 0.029808 810.156C0.0930605 810.322 0.190722 810.472 0.316364 810.598C0.442006 810.724 0.592794 810.821 0.75884 810.885H6.07032C6.59106 810.885 6.9035 810.468 7.00764 809.947Z" fill="white"/>
<path d="M41.2734 809.001H35.962C35.7022 809.075 35.481 809.246 35.345 809.479C35.209 809.712 35.1688 809.989 35.2329 810.251C35.2962 810.417 35.3938 810.568 35.5195 810.694C35.6451 810.819 35.7959 810.917 35.962 810.98H41.2734C41.5332 810.907 41.7544 810.736 41.8904 810.503C42.0264 810.269 42.0666 809.993 42.0025 809.73C41.9547 809.556 41.8623 809.397 41.7345 809.269C41.6067 809.142 41.4478 809.049 41.2734 809.001Z" fill="white"/>
<path d="M20.9647 795.993C21.2199 795.981 21.4632 795.882 21.6532 795.711C21.8431 795.54 21.9678 795.308 22.0061 795.056V789.744C21.9151 789.496 21.7406 789.288 21.5124 789.155C21.2843 789.022 21.017 788.972 20.7564 789.015C20.5903 789.078 20.4395 789.176 20.3139 789.302C20.1882 789.427 20.0906 789.578 20.0273 789.744V795.056C20.0776 795.285 20.1927 795.495 20.3588 795.661C20.5249 795.828 20.7352 795.943 20.9647 795.993Z" fill="white"/>
<path d="M20.9633 824.007C20.7043 824.006 20.454 824.101 20.2614 824.275C20.0688 824.448 19.9478 824.687 19.9219 824.945V830.256C20.0129 830.504 20.1874 830.712 20.4156 830.846C20.6437 830.979 20.911 831.028 21.1716 830.985C21.3377 830.922 21.4885 830.824 21.6141 830.699C21.7398 830.573 21.8374 830.422 21.9007 830.256V824.945C21.9007 824.696 21.8019 824.458 21.6261 824.282C21.4503 824.106 21.2119 824.007 20.9633 824.007Z" fill="white"/>
<path d="M2.84105 800.784L7.52765 803.388C7.65743 803.437 7.79584 803.461 7.93472 803.456C8.0736 803.451 8.21015 803.419 8.33632 803.361C8.46248 803.302 8.57573 803.22 8.66937 803.117C8.76301 803.014 8.83516 802.894 8.88156 802.763C8.93572 802.561 8.93533 802.349 8.88042 802.148C8.82552 801.946 8.71808 801.763 8.56912 801.617L3.88252 799.014C3.75273 798.964 3.61433 798.941 3.47545 798.945C3.33656 798.95 3.20002 798.982 3.07385 799.041C2.94768 799.099 2.83444 799.182 2.7408 799.284C2.64716 799.387 2.57502 799.508 2.52861 799.639C2.47446 799.84 2.47485 800.052 2.52975 800.254C2.58465 800.455 2.69208 800.638 2.84105 800.784Z" fill="white"/>
<path d="M39.0848 819.216L34.3981 816.613C34.2684 816.563 34.13 816.54 33.9911 816.545C33.8522 816.549 33.7157 816.582 33.5895 816.64C33.4633 816.698 33.3501 816.781 33.2564 816.884C33.1628 816.986 33.0906 817.107 33.0442 817.238C32.9901 817.439 32.9905 817.651 33.0454 817.853C33.1003 818.054 33.2077 818.237 33.3567 818.383L38.0433 820.987C38.1731 821.037 38.3115 821.06 38.4504 821.055C38.5892 821.05 38.7258 821.018 38.8519 820.96C38.9781 820.902 39.0914 820.819 39.185 820.716C39.2786 820.613 39.3508 820.493 39.3972 820.362C39.4513 820.161 39.451 819.948 39.396 819.747C39.3411 819.546 39.2337 819.363 39.0848 819.216Z" fill="white"/>
<path d="M27.9448 797.866C28.1732 797.971 28.4301 797.998 28.6751 797.941C28.9202 797.885 29.1395 797.748 29.2987 797.554L31.9024 792.867C31.9501 792.731 31.9689 792.586 31.9576 792.441C31.9462 792.297 31.9049 792.157 31.8363 792.03C31.7677 791.902 31.6733 791.79 31.5592 791.702C31.4451 791.613 31.3136 791.549 31.1733 791.513C30.9887 791.452 30.7897 791.449 30.6034 791.505C30.417 791.561 30.2524 791.673 30.1319 791.826L27.5282 796.512C27.4339 796.752 27.4237 797.016 27.4994 797.262C27.5751 797.508 27.7322 797.721 27.9448 797.866Z" fill="white"/>
<path d="M14.0902 822.134C13.8618 822.029 13.6049 822.002 13.3599 822.059C13.1148 822.115 12.8955 822.252 12.7363 822.446L10.1326 827.133C10.0849 827.27 10.0661 827.415 10.0774 827.559C10.0888 827.703 10.1301 827.843 10.1987 827.971C10.2673 828.098 10.3617 828.21 10.4758 828.299C10.59 828.388 10.7214 828.452 10.8617 828.487C11.0463 828.548 11.2453 828.551 11.4317 828.495C11.618 828.439 11.7826 828.327 11.9031 828.174L14.5068 823.488C14.5938 823.248 14.6002 822.985 14.525 822.741C14.4499 822.497 14.2972 822.284 14.0902 822.134Z" fill="white"/>
<path d="M12.7774 797.544C12.9331 797.743 13.1526 797.883 13.399 797.94C13.6455 797.997 13.904 797.967 14.1313 797.856C14.3439 797.711 14.501 797.498 14.5767 797.252C14.6524 797.006 14.6422 796.742 14.5479 796.502L11.8401 791.816C11.6454 791.625 11.3836 791.518 11.111 791.518C10.8384 791.518 10.5767 791.625 10.382 791.816C10.239 791.944 10.1342 792.109 10.0791 792.293C10.0239 792.476 10.0207 792.672 10.0696 792.857L12.7774 797.544Z" fill="white"/>
<path d="M29.2971 822.446C29.1024 822.255 28.8407 822.148 28.5681 822.148C28.2955 822.148 28.0337 822.255 27.839 822.446C27.6961 822.574 27.5912 822.739 27.5361 822.922C27.481 823.106 27.4777 823.302 27.5266 823.487L30.2344 828.07C30.4291 828.26 30.6908 828.367 30.9634 828.367C31.236 828.367 31.4978 828.26 31.6925 828.07C31.8354 827.942 31.9402 827.777 31.9954 827.593C32.0505 827.409 32.0538 827.214 32.0049 827.028L29.2971 822.446Z" fill="white"/>
<path d="M34.5032 803.386L39.0857 800.678C39.2765 800.484 39.3834 800.222 39.3834 799.949C39.3834 799.677 39.2765 799.415 39.0857 799.22C38.9577 799.077 38.7928 798.973 38.609 798.917C38.4252 798.862 38.2298 798.859 38.0442 798.908L33.4618 801.72C33.2709 801.915 33.1641 802.176 33.1641 802.449C33.1641 802.722 33.2709 802.983 33.4618 803.178C33.5815 803.332 33.7525 803.438 33.9437 803.476C34.135 803.514 34.3335 803.482 34.5032 803.386Z" fill="white"/>
<path d="M7.57025 816.613L2.88365 819.321C2.69282 819.516 2.58594 819.777 2.58594 820.05C2.58594 820.323 2.69282 820.584 2.88365 820.779C3.01162 820.922 3.17659 821.027 3.36037 821.082C3.54415 821.137 3.73959 821.14 3.92512 821.091L8.50757 818.384C8.6984 818.189 8.80529 817.927 8.80529 817.655C8.80529 817.382 8.6984 817.12 8.50757 816.926C8.40993 816.775 8.26397 816.662 8.09365 816.605C7.92333 816.548 7.73876 816.551 7.57025 816.613Z" fill="white"/>
<path d="M21.1109 797.71C17.886 797.732 14.7993 799.023 12.5189 801.303C10.2384 803.584 8.94761 806.67 8.92578 809.895C8.92854 813.126 10.2132 816.224 12.4978 818.509C14.7823 820.793 17.8801 822.078 21.1109 822.081C22.7131 822.087 24.3007 821.777 25.7822 821.167C27.2636 820.557 28.6097 819.66 29.7425 818.527C30.8754 817.394 31.7727 816.048 32.3826 814.567C32.9925 813.085 33.303 811.497 33.2961 809.895V809.791C33.292 808.197 32.9733 806.619 32.3582 805.149C31.7431 803.678 30.8438 802.343 29.7117 801.221C28.5797 800.099 27.2372 799.211 25.7613 798.608C24.2854 798.006 22.7051 797.701 21.1109 797.71Z" fill="white"/>
<mask id="mask0_4492_4536" style="mask-type:luminance" maskUnits="userSpaceOnUse" x="474" y="415" width="32" height="43">
<path d="M505.359 436.37V457.52H474.329V415.22H505.359V436.37Z" fill="white"/>
</mask>
<g mask="url(#mask0_4492_4536)">
<path fill-rule="evenodd" clip-rule="evenodd" d="M489.779 457.52H489.879C498.459 457.52 505.359 450.52 505.359 441.84C505.359 439.24 504.739 436.8 503.629 434.64C502.529 431.74 500.389 429.57 499.189 424.46C498.589 421.86 497.509 417.36 497.509 417.36C497.029 415.16 495.109 415.16 495.109 415.16H484.559C484.559 415.16 482.659 415.16 482.159 417.36L480.489 424.4C479.289 429.5 477.139 431.68 476.049 434.56V434.59C474.949 436.74 474.269 439.19 474.269 441.79C474.269 450.49 481.239 457.49 489.739 457.49" fill="white"/>
</g>
<path fill-rule="evenodd" clip-rule="evenodd" d="M484.702 410.5H495.002C495.802 410.5 496.432 411.15 496.432 411.95C496.432 412.75 495.792 413.41 495.002 413.41H484.702C483.902 413.41 483.262 412.81 483.262 412.01C483.262 411.21 483.902 410.56 484.702 410.56" fill="white"/>
<path fill-rule="evenodd" clip-rule="evenodd" d="M484.702 406H495.002C495.802 406 496.432 406.67 496.432 407.47C496.432 408.27 495.792 408.93 495.002 408.93H484.702C483.902 408.93 483.262 408.28 483.262 407.47C483.262 406.67 483.902 406.01 484.702 406.01" fill="white"/>
<path fill-rule="evenodd" clip-rule="evenodd" d="M484.702 401.53H495.002C495.802 401.53 496.432 402.18 496.432 402.99C496.432 403.79 495.792 404.39 495.002 404.39H484.702C483.902 404.39 483.262 403.73 483.262 402.93C483.262 402.11 483.902 401.46 484.702 401.46" fill="white"/>
<path fill-rule="evenodd" clip-rule="evenodd" d="M493.659 399.72C493.059 398.16 491.589 397.05 489.859 397.05C488.099 397.05 486.619 398.15 486.039 399.72H493.639H493.659Z" fill="white"/>
<path d="M510.859 429L518.359 424.7" stroke="white" stroke-width="3.3" stroke-linecap="round"/>
<path d="M514.16 441.13L522.79 441.16" stroke="white" stroke-width="3.3" stroke-linecap="round"/>
<path d="M510.68 453.07L518.16 457.41" stroke="white" stroke-width="3.3" stroke-linecap="round"/>
<path d="M501.691 462.4L505.861 470" stroke="white" stroke-width="3.3" stroke-linecap="round"/>
<path d="M489.178 465.92L489.148 474.56" stroke="white" stroke-width="3.3" stroke-linecap="round"/>
<path d="M477.212 462.73L473.012 470.28" stroke="white" stroke-width="3.3" stroke-linecap="round"/>
<path d="M467.859 453.4L460.359 457.7" stroke="white" stroke-width="3.3" stroke-linecap="round"/>
<path d="M464.64 441.02L456 441" stroke="white" stroke-width="3.3" stroke-linecap="round"/>
<path d="M468.04 428.68L460.57 424.34" stroke="white" stroke-width="3.3" stroke-linecap="round"/>
<path d="M489.859 25V394.16" stroke="white" stroke-width="2" stroke-linecap="square"/>
<mask id="mask1_4492_4536" style="mask-type:luminance" maskUnits="userSpaceOnUse" x="85" y="190" width="32" height="43">
<path d="M116.359 211.37V232.52H85.3294V190.22H116.359V211.37Z" fill="white"/>
</mask>
<g mask="url(#mask1_4492_4536)">
<path fill-rule="evenodd" clip-rule="evenodd" d="M100.779 232.52H100.879C109.459 232.52 116.359 225.52 116.359 216.84C116.359 214.24 115.739 211.8 114.629 209.64C113.529 206.74 111.389 204.57 110.189 199.46C109.589 196.86 108.509 192.36 108.509 192.36C108.029 190.16 106.109 190.16 106.109 190.16H95.5594C95.5594 190.16 93.6594 190.16 93.1594 192.36L91.4894 199.4C90.2894 204.5 88.1394 206.68 87.0494 209.56V209.59C85.9494 211.74 85.2694 214.19 85.2694 216.79C85.2694 225.49 92.2394 232.49 100.739 232.49" fill="white"/>
</g>
<path fill-rule="evenodd" clip-rule="evenodd" d="M95.7017 185.5H106.002C106.802 185.5 107.432 186.15 107.432 186.95C107.432 187.75 106.792 188.41 106.002 188.41H95.7017C94.9017 188.41 94.2617 187.81 94.2617 187.01C94.2617 186.21 94.9017 185.56 95.7017 185.56" fill="white"/>
<path fill-rule="evenodd" clip-rule="evenodd" d="M95.7017 181H106.002C106.802 181 107.432 181.67 107.432 182.47C107.432 183.27 106.792 183.93 106.002 183.93H95.7017C94.9017 183.93 94.2617 183.28 94.2617 182.47C94.2617 181.67 94.9017 181.01 95.7017 181.01" fill="white"/>
<path fill-rule="evenodd" clip-rule="evenodd" d="M95.7017 176.53H106.002C106.802 176.53 107.432 177.18 107.432 177.99C107.432 178.79 106.792 179.39 106.002 179.39H95.7017C94.9017 179.39 94.2617 178.73 94.2617 177.93C94.2617 177.11 94.9017 176.46 95.7017 176.46" fill="white"/>
<path fill-rule="evenodd" clip-rule="evenodd" d="M104.659 174.72C104.059 173.16 102.589 172.05 100.859 172.05C99.0991 172.05 97.6191 173.15 97.0391 174.72H104.639H104.659Z" fill="white"/>
<path d="M121.859 204L129.359 199.7" stroke="white" stroke-width="3.3" stroke-linecap="round"/>
<path d="M125.16 216.13L133.79 216.16" stroke="white" stroke-width="3.3" stroke-linecap="round"/>
<path d="M121.68 228.07L129.16 232.41" stroke="white" stroke-width="3.3" stroke-linecap="round"/>
<path d="M112.691 237.4L116.861 245" stroke="white" stroke-width="3.3" stroke-linecap="round"/>
<path d="M100.178 240.92L100.148 249.56" stroke="white" stroke-width="3.3" stroke-linecap="round"/>
<path d="M88.2117 237.73L84.0117 245.28" stroke="white" stroke-width="3.3" stroke-linecap="round"/>
<path d="M78.8594 228.4L71.3594 232.7" stroke="white" stroke-width="3.3" stroke-linecap="round"/>
<path d="M75.64 216.02L67 216" stroke="white" stroke-width="3.3" stroke-linecap="round"/>
<path d="M79.0403 203.68L71.5703 199.34" stroke="white" stroke-width="3.3" stroke-linecap="round"/>
<path d="M100.859 -200V169.16" stroke="white" stroke-width="2" stroke-linecap="square"/>
</svg>
