<svg width="589" height="403" viewBox="0 0 589 403" fill="none" xmlns="http://www.w3.org/2000/svg">
<path d="M132.356 29.6863C134.337 25.331 135.327 21.8822 135.327 19.3397C135.327 8.80455 126.999 0.26416 116.726 0.26416C106.453 0.26416 98.1254 8.80455 98.1254 19.3397C98.1254 19.2553 98.1265 19.172 98.1286 19.0898C97.9171 27.0638 95.1789 34.7648 90.3086 41.0823C84.6231 48.4572 81.7804 55.2443 81.7804 61.4437C81.7804 64.0774 82.3292 67.0254 83.427 70.2877C86.9289 80.695 85.7137 92.1125 80.0996 101.549C75.4701 109.331 73.1553 116.305 73.1553 122.472C73.1553 126.306 74.091 130.735 75.9623 135.757C79.879 146.267 78.9059 157.977 73.3082 167.697C67.7678 177.318 64.9976 185.78 64.9976 193.083C64.9976 222.381 88.1573 246.132 116.726 246.132C145.295 246.132 168.455 222.381 168.455 193.083C168.455 185.78 165.685 177.318 160.145 167.697C154.547 157.977 153.574 146.267 157.49 135.757C159.362 130.735 160.297 126.306 160.297 122.472C160.297 116.239 157.935 109.195 153.21 101.342C147.552 91.938 146.278 80.5328 149.722 70.1118C150.779 66.9153 151.307 64.0259 151.307 61.4437C151.307 52.2106 144.99 41.6248 132.356 29.6863Z" fill="#4C9F38"/>
<path d="M116.577 160.626V133.877L135.359 109.344C135.542 109.105 135.497 108.762 135.258 108.579C135.018 108.396 134.676 108.441 134.493 108.681L115.598 133.36C115.525 133.455 115.485 133.572 115.485 133.692V159.2L97.8184 136.124C97.6352 135.885 97.2926 135.84 97.0533 136.023C96.814 136.206 96.7685 136.549 96.9517 136.788L115.485 160.995V163.514C115.485 163.706 115.584 163.874 115.734 163.972V187.683L115.598 187.861C115.525 187.956 115.485 188.073 115.485 188.193V208.111L97.8184 185.036C97.6352 184.796 97.2926 184.751 97.0533 184.934C96.814 185.117 96.7685 185.46 96.9517 185.699L115.485 209.907V218.015C115.485 218.207 115.584 218.376 115.734 218.473V232.773C115.68 232.859 115.651 232.959 115.651 233.062V276.967C115.651 277.268 115.896 277.513 116.197 277.513C116.499 277.513 116.743 277.268 116.743 276.967V240.158C116.795 240.074 116.826 239.975 116.826 239.869V233.199L136.458 213.065C136.669 212.849 136.664 212.504 136.449 212.293C136.233 212.083 135.887 212.087 135.677 212.303L116.826 231.635V210.046C116.826 209.926 116.786 209.81 116.713 209.715L116.577 209.537V191.415C116.727 191.318 116.826 191.149 116.826 190.957V188.053L135.359 163.846C135.542 163.606 135.497 163.264 135.258 163.08C135.018 162.897 134.676 162.943 134.493 163.182L116.826 186.258V161.135C116.826 161.015 116.786 160.899 116.713 160.804L116.577 160.626Z" fill="#0070AD"/>
<path d="M499.6 29.7199C501.581 25.3647 502.571 21.9159 502.571 19.3734C502.571 8.83825 494.243 0.297852 483.97 0.297852C473.697 0.297852 465.37 8.83825 465.37 19.3734C465.37 19.289 465.371 19.2057 465.373 19.1234C465.161 27.0975 462.423 34.7985 457.553 41.116C451.867 48.4909 449.025 55.278 449.025 61.4773C449.025 64.1111 449.573 67.0591 450.671 70.3214C454.173 80.7287 452.958 92.1461 447.344 101.583C442.714 109.365 440.399 116.339 440.399 122.505C440.399 126.34 441.335 130.768 443.206 135.79C447.123 146.301 446.15 158.011 440.552 167.731C435.012 177.352 432.242 185.814 432.242 193.117C432.242 222.415 455.401 246.165 483.97 246.165C512.539 246.165 535.699 222.415 535.699 193.117C535.699 185.814 532.929 177.352 527.389 167.731C521.791 158.011 520.818 146.301 524.734 135.79C526.606 130.768 527.541 126.34 527.541 122.505C527.541 116.272 525.179 109.229 520.454 101.376C514.796 91.9716 513.522 80.5665 516.967 70.1455C518.023 66.949 518.551 64.0596 518.551 61.4773C518.551 52.2443 512.234 41.6585 499.6 29.7199Z" fill="#4C9F38"/>
<path d="M483.821 160.659V133.91L502.603 109.378C502.787 109.139 502.741 108.796 502.502 108.613C502.262 108.43 501.92 108.475 501.737 108.715L482.842 133.394C482.769 133.489 482.73 133.605 482.73 133.725V159.234L465.063 136.158C464.879 135.919 464.537 135.873 464.297 136.057C464.058 136.24 464.013 136.582 464.196 136.822L482.73 161.029V163.548C482.73 163.739 482.829 163.908 482.978 164.005V187.717L482.842 187.895C482.769 187.99 482.73 188.107 482.73 188.227V208.145L465.063 185.069C464.879 184.83 464.537 184.784 464.297 184.968C464.058 185.151 464.013 185.493 464.196 185.733L482.73 209.94V218.049C482.73 218.241 482.829 218.409 482.978 218.507V232.806C482.925 232.892 482.896 232.992 482.896 233.095V277.001C482.896 277.302 483.14 277.546 483.441 277.546C483.743 277.546 483.987 277.302 483.987 277.001V240.191C484.039 240.107 484.07 240.008 484.07 239.902V233.232L503.702 213.099C503.913 212.883 503.908 212.538 503.693 212.327C503.477 212.117 503.131 212.121 502.921 212.337L484.07 231.669V210.08C484.07 209.96 484.03 209.844 483.957 209.748L483.821 209.57V191.449C483.971 191.352 484.07 191.183 484.07 190.991V188.087L502.603 163.879C502.787 163.64 502.741 163.297 502.502 163.114C502.262 162.931 501.92 162.976 501.737 163.216L484.07 186.291V161.169C484.07 161.049 484.03 160.932 483.957 160.837L483.821 160.659Z" fill="#0070AD"/>
<path d="M414.473 256.889C387.735 256.889 366.06 234.661 366.06 207.241C366.06 179.822 387.735 34.6177 414.473 34.6177C441.21 34.6177 462.885 179.822 462.885 207.241C462.885 234.661 441.21 256.889 414.473 256.889Z" fill="#4C9F38"/>
<path d="M414.323 191.776V170.617L433.105 146.085C433.289 145.846 433.243 145.503 433.004 145.32C432.764 145.137 432.422 145.182 432.239 145.422L413.344 170.101C413.271 170.196 413.231 170.312 413.231 170.432V190.351L395.564 167.275C395.381 167.036 395.039 166.99 394.799 167.173C394.56 167.357 394.515 167.699 394.698 167.939L413.231 192.146V200.255C413.231 200.446 413.33 200.615 413.48 200.712V215.758L395.564 192.357C395.381 192.118 395.039 192.073 394.799 192.256C394.56 192.439 394.515 192.782 394.698 193.021L413.48 217.553V240.095C413.427 240.181 413.397 240.28 413.397 240.383V284.289C413.397 284.59 413.642 284.835 413.943 284.835C414.245 284.835 414.489 284.59 414.489 284.289V247.479C414.541 247.396 414.572 247.297 414.572 247.19V240.521L434.204 220.387C434.415 220.171 434.41 219.826 434.195 219.615C433.979 219.405 433.633 219.409 433.423 219.625L414.572 238.957V217.368V192.286C414.572 192.166 414.532 192.049 414.459 191.954L414.323 191.776Z" fill="#0070AD"/>
<path d="M406.241 299.048C410.315 288.086 416.281 282.605 424.138 282.605C435.924 282.605 430.242 265.347 442.465 265.347C450.422 265.347 450.422 274.953 461.817 268.987C473.567 262.836 461.817 245.413 484.08 243.376C506.343 241.339 500.792 268.987 509.959 268.987C516.561 268.987 516.986 258.49 522.618 257.638C528.25 256.785 529.02 263.749 533.24 262.876C538.381 261.812 536.441 252.979 548.977 252.979C561.512 252.979 557.249 270.042 560.304 271.915C563.36 273.789 567.289 267.532 571.509 274.953C575.728 282.374 568.418 285.866 574.564 285.866C582.053 285.866 586.185 290.26 586.961 299.048C586.409 301.738 581.259 303.243 571.509 303.563C556.884 304.043 556.225 299.917 538.079 300.653C519.932 301.388 513.94 311.129 487.879 311.129C461.817 311.129 469.361 306.505 449.465 304.727C429.568 302.949 414.322 306.625 402.902 305.891C396.647 305.489 397.76 303.208 406.241 299.048Z" fill="#3F7E44"/>
<path d="M355.91 315.54C358.187 311.148 363.383 308.952 371.498 308.952C383.671 308.952 381.499 300.984 394.123 300.984C406.747 300.984 399.162 270.87 429.855 269.276C460.549 267.683 453.6 286.805 463.068 286.805C472.536 286.805 477.627 277.435 489.218 278.097C500.808 278.759 505.484 299.794 510.143 300.984C514.802 302.173 511.345 296.821 524.119 296.821C532.635 296.821 538.647 300.865 542.153 308.952C547.039 313.344 541.967 315.54 526.939 315.54C521.406 315.54 506.168 313.4 489.218 312.805C479.652 312.469 462.189 318.87 440.225 318.87C429.855 318.87 420.969 316.011 400.7 315.54C387.188 315.227 372.257 315.227 355.91 315.54Z" fill="#4C9F38"/>
<path d="M16.0159 299.048C20.0901 288.086 26.056 282.605 33.9134 282.605C45.6995 282.605 40.0178 265.347 52.2404 265.347C60.1972 265.347 60.1972 274.953 71.5929 268.987C83.3424 262.836 71.5929 245.413 93.8556 243.376C116.118 241.339 110.567 268.987 119.734 268.987C126.336 268.987 126.762 258.49 132.393 257.638C138.025 256.785 138.796 263.749 143.015 262.876C148.157 261.812 146.217 252.979 158.752 252.979C171.287 252.979 167.024 270.042 170.08 271.915C173.136 273.789 177.064 267.532 181.284 274.953C185.504 282.374 178.194 285.866 184.34 285.866C191.828 285.866 195.96 290.26 196.736 299.048C196.185 301.738 191.034 303.243 181.284 303.563C166.659 304.043 166.001 299.917 147.854 300.653C129.707 301.388 123.715 311.129 97.6539 311.129C71.5929 311.129 79.1364 306.505 59.2399 304.727C39.3434 302.949 24.097 306.625 12.6775 305.891C6.42259 305.489 7.5354 303.208 16.0159 299.048Z" fill="#4C9F38"/>
<g opacity="0.2">
<path fill-rule="evenodd" clip-rule="evenodd" d="M92.3829 388.518L73.8888 390.904V395.676L92.3829 398.063L110.877 395.676V390.904L92.3829 388.518Z" stroke="#FFFDC2" stroke-width="1.09148" stroke-linecap="round" stroke-linejoin="round"/>
<path fill-rule="evenodd" clip-rule="evenodd" d="M498.201 388.518L479.707 390.904V395.676L498.201 398.063L516.695 395.676V390.904L498.201 388.518Z" stroke="#FFFDC2" stroke-width="1.09148" stroke-linecap="round" stroke-linejoin="round"/>
<path fill-rule="evenodd" clip-rule="evenodd" d="M72.7345 378.973L54.2404 381.359V386.131L72.7345 388.518L91.2285 386.131V381.359L72.7345 378.973Z" stroke="#FFFDC2" stroke-width="1.09148" stroke-linecap="round" stroke-linejoin="round"/>
<path fill-rule="evenodd" clip-rule="evenodd" d="M52.9669 388.518L34.4728 390.904V395.676L52.9669 398.063L71.4609 395.676V390.904L52.9669 388.518Z" stroke="#FFFDC2" stroke-width="1.09148" stroke-linecap="round" stroke-linejoin="round"/>
</g>
<g filter="url(#filter0_f_6463_5883)">
<path d="M269.315 383.895C344.646 383.895 405.713 380.453 405.713 376.208C405.713 371.963 344.646 368.521 269.315 368.521C193.985 368.521 132.918 371.963 132.918 376.208C132.918 380.453 193.985 383.895 269.315 383.895Z" fill="#060612"/>
</g>
<path opacity="0.2" d="M7.6875 332.756H581.639" stroke="#FFFDC2" stroke-width="1.09148" stroke-linecap="round" stroke-linejoin="round"/>
<path opacity="0.2" d="M1.27734 343.671H588.05" stroke="#FFFDC2" stroke-width="1.09148" stroke-linecap="round" stroke-linejoin="round"/>
<path d="M270.739 233.635C276.619 228.843 285.262 221.906 287.644 233.982C290.026 246.059 266.329 292.374 267.135 308.217C266.677 313.602 257.129 314.996 256.303 307.742C257.735 299.506 265.414 273.739 263.577 262.027C260.859 244.693 267.417 236.342 270.739 233.635Z" fill="#FFC0BF"/>
<path d="M290.59 232.524C290.59 243.208 283.412 273.075 275.855 288.19C274.218 291.464 271.607 288.485 271.489 289.281C271.237 290.988 271.489 290.1 270.67 294.466C269.852 298.832 260.036 300.356 259.21 293.102C259.582 290.963 260.234 288.802 260.847 286.28C261.067 285.374 257.845 285.188 257.845 282.46C257.845 275.676 262.036 269.027 260.847 261.449C259.121 250.445 263.864 243.64 266.413 239.022C248.814 238.596 222.575 235.934 211.333 226.944C198.369 216.577 207.052 204.232 223.65 204.044C240.249 203.856 266.498 208.234 279.129 218.335C285.557 223.475 290.59 227.763 290.59 232.524Z" fill="#19486A"/>
<path d="M226.632 228.421C226.337 228.362 226.145 228.074 226.204 227.779C226.263 227.483 226.551 227.291 226.846 227.351C247.713 231.524 259.993 233.616 263.577 233.616C266.927 233.616 269.609 234.381 271.055 236.095C272.867 238.245 272.526 241.592 269.775 246.176C267.992 249.148 266.763 253.092 265.953 257.928C265.576 260.183 265.299 262.56 265.079 265.231C264.994 266.26 264.92 267.294 264.84 268.534C264.813 268.952 264.691 270.916 264.659 271.414C264.49 273.974 264.35 275.173 264.083 275.841C262.942 278.695 261.993 284.481 262.464 286.13C262.547 286.42 262.379 286.722 262.089 286.805C261.8 286.888 261.498 286.72 261.415 286.43C260.863 284.497 261.847 278.494 263.07 275.435C263.274 274.926 263.411 273.744 263.569 271.342C263.602 270.847 263.724 268.884 263.751 268.464C263.831 267.218 263.905 266.178 263.991 265.141C264.213 262.442 264.493 260.036 264.877 257.748C265.707 252.789 266.974 248.723 268.839 245.614C271.376 241.385 271.669 238.517 270.22 236.799C269.033 235.391 266.636 234.707 263.577 234.707C259.884 234.707 247.605 232.615 226.632 228.421Z" fill="#26BDE2"/>
<path d="M260.403 289.836C260.097 289.591 260.047 289.145 260.292 288.839C260.537 288.533 260.983 288.483 261.289 288.728C264.763 291.507 267.553 292.521 269.642 291.878C270.017 291.763 270.414 291.973 270.529 292.348C270.644 292.722 270.434 293.119 270.06 293.234C267.419 294.047 264.206 292.878 260.403 289.836Z" fill="#C3CBFF"/>
<path d="M259.824 293.081C259.534 292.817 259.513 292.368 259.777 292.079C260.04 291.789 260.489 291.768 260.779 292.032C263.804 294.785 266.21 295.781 267.98 295.161C268.35 295.032 268.755 295.226 268.884 295.596C269.014 295.966 268.819 296.371 268.449 296.5C266.063 297.336 263.193 296.148 259.824 293.081Z" fill="#C3CBFF"/>
<path d="M259.472 314.92C255.1 314.196 253.988 309.139 257.19 303.292C257.998 301.815 260.184 305.174 262.709 305.075C264.262 305.014 266.603 301.775 268.482 302.058C275.639 303.135 283.447 305.595 286.724 306.929C292.26 309.182 292.766 310.774 289.678 313.224C286.59 315.675 263.845 315.643 259.472 314.92Z" fill="#253238"/>
<path d="M271.201 305.517C271.017 305.863 270.588 305.995 270.242 305.811C269.896 305.627 269.764 305.197 269.948 304.851L271.979 301.031C272.163 300.685 272.593 300.554 272.939 300.737C273.285 300.921 273.416 301.351 273.232 301.697L271.201 305.517Z" fill="#6F787C"/>
<path d="M274.033 306.533C273.849 306.879 273.42 307.01 273.074 306.826C272.728 306.642 272.597 306.213 272.78 305.867L274.811 302.046C274.995 301.701 275.425 301.569 275.771 301.753C276.117 301.937 276.248 302.367 276.064 302.713L274.033 306.533Z" fill="#6F787C"/>
<path d="M276.842 307.588C276.658 307.934 276.228 308.065 275.882 307.881C275.536 307.697 275.405 307.267 275.589 306.922L277.62 303.101C277.804 302.755 278.233 302.624 278.579 302.808C278.925 302.992 279.057 303.421 278.873 303.767L276.842 307.588Z" fill="#6F787C"/>
<path d="M256.092 311.074C255.808 310.804 255.796 310.355 256.067 310.071C256.337 309.787 256.786 309.776 257.07 310.046C258.79 311.683 260.401 312.502 261.898 312.544C266.189 312.665 281.977 312.478 284.592 312.137C286.294 311.915 287.651 311.572 288.512 311.126C289.32 310.706 289.558 310.312 289.385 309.812C289.257 309.442 289.453 309.038 289.823 308.909C290.193 308.781 290.597 308.977 290.726 309.347C291.168 310.624 290.533 311.676 289.166 312.385C288.127 312.924 286.628 313.303 284.775 313.544C282.062 313.898 266.223 314.085 261.858 313.962C259.966 313.909 258.045 312.932 256.092 311.074Z" fill="#6F787C"/>
<path fill-rule="evenodd" clip-rule="evenodd" d="M219.099 233.427L220.877 244.345L217.329 245.437L214.664 234.108C208.49 234.487 202.068 232.748 198.753 230.538C193.842 227.264 186.474 230.266 185.11 228.083C171.967 207.054 232.044 214.496 234.5 220.442C236.955 226.388 230.679 227.752 223.039 231.903C221.816 232.567 220.488 233.068 219.099 233.427Z" fill="#CA134A"/>
<path fill-rule="evenodd" clip-rule="evenodd" d="M324.109 208.163H369.365C372.379 208.163 374.822 210.606 374.822 213.621C374.822 214.207 374.727 214.79 374.542 215.346L366.942 238.145C366.224 240.3 364.246 241.784 361.976 241.872L332.294 243.023C331.274 243.062 330.362 242.389 330.1 241.402L321.999 210.906C321.69 209.741 322.384 208.546 323.549 208.236C323.732 208.188 323.92 208.163 324.109 208.163Z" fill="#E5243B"/>
<path fill-rule="evenodd" clip-rule="evenodd" d="M339.826 252.914C343.374 249.639 348.728 246.879 351.833 248.821C354.937 250.762 355.742 256.223 353.197 258.644C350.652 261.065 344.465 258.917 340.645 259.463C336.825 260.008 336.279 256.188 339.826 252.914Z" fill="#FD9D24"/>
<path fill-rule="evenodd" clip-rule="evenodd" d="M336.457 270.209L335.012 267.271C340.167 264.735 342.258 261.971 341.759 258.907L344.991 258.381C345.765 263.139 342.763 267.106 336.457 270.209Z" fill="#EC961F"/>
<path d="M245.066 304.294V299.928C263.636 299.928 281.825 290.182 295.778 273.659C307.702 259.539 315.371 241.76 316.993 224.48C317.206 222.207 321.578 222.225 321.375 224.504C319.745 242.816 311.687 261.587 299.114 276.476C284.382 293.921 265.023 304.294 245.066 304.294Z" fill="#E5243B"/>
<path d="M364.365 374.408C337.692 374.408 316.07 352.786 316.07 326.114C316.07 299.442 337.692 277.82 364.365 277.82C391.037 277.82 412.659 299.442 412.659 326.114C412.659 352.786 391.037 374.408 364.365 374.408ZM364.365 366.222C386.516 366.222 404.473 348.265 404.473 326.114C404.473 303.963 386.516 286.006 364.365 286.006C342.213 286.006 324.256 303.963 324.256 326.114C324.256 348.265 342.213 366.222 364.365 366.222Z" fill="#080725"/>
<path d="M187.048 374.408C160.376 374.408 138.754 352.786 138.754 326.114C138.754 299.442 160.376 277.82 187.048 277.82C213.72 277.82 235.342 299.442 235.342 326.114C235.342 352.786 213.72 374.408 187.048 374.408ZM187.048 366.222C209.199 366.222 227.156 348.265 227.156 326.114C227.156 303.963 209.199 286.006 187.048 286.006C164.897 286.006 146.94 303.963 146.94 326.114C146.94 348.265 164.897 366.222 187.048 366.222Z" fill="#080725"/>
<path d="M240.074 326.114H232.434C232.434 300.618 211.765 279.949 186.268 279.949C164.906 279.949 146.477 294.58 141.44 315.034L134.021 313.207C139.895 289.359 161.37 272.309 186.268 272.309C215.984 272.309 240.074 296.398 240.074 326.114Z" fill="#E5243B"/>
<path d="M294.716 285.589L291.417 282.289L294.118 279.588L297.552 283.022L327.625 255.8C324.037 245.434 320.403 234.74 316.725 223.719L315.598 224.198L314.532 221.686L321.565 218.701L322.631 221.212L321.795 221.567C329.566 247.965 338.123 272.694 347.468 295.755C356.472 317.138 365.75 324.406 364.113 325.77C362.476 327.135 351.465 317.138 342.829 298.483C338.479 286.637 334.058 274.272 329.567 261.389L260.422 323.86L260.258 323.71C260.04 324.49 259.615 325.184 259.047 325.73V326.862L256.87 326.884C256.57 326.947 256.259 326.98 255.941 326.98C255.653 326.98 255.372 326.953 255.1 326.901L188.65 327.564C187.983 328.134 187.117 328.478 186.171 328.478C184.129 328.478 182.462 326.877 182.356 324.862L142.922 299.418L143.906 296.3L183.567 321.863C184.005 321.455 184.539 321.148 185.131 320.981L216.921 247.745L216.199 248.051L215.133 245.539L222.166 242.554L223.232 245.066L222.186 245.51L257.527 318.3C257.767 318.391 257.996 318.502 258.215 318.63L294.716 285.589ZM251.637 323.76C251.52 323.359 251.457 322.935 251.457 322.496C251.457 321.51 251.775 320.598 252.314 319.858L219.402 252.339L189.047 322.144C189.586 322.76 189.93 323.551 189.984 324.42L251.637 323.76Z" fill="#E5243B"/>
<path d="M364.365 330.207C366.625 330.207 368.458 328.375 368.458 326.114C368.458 323.854 366.625 322.021 364.365 322.021C362.104 322.021 360.271 323.854 360.271 326.114C360.271 328.375 362.104 330.207 364.365 330.207Z" fill="#E5243B"/>
<path d="M191.525 328.503L223.697 328.999C223.714 328.999 223.731 328.999 223.748 328.999C225.57 328.999 227.047 327.522 227.047 325.7C227.047 325.691 227.047 325.683 227.047 325.674C227.033 323.838 225.533 322.361 223.696 322.375L192.229 322.618C193.791 318.959 197.364 316.355 201.583 316.217L260.05 314.293C267.686 314.042 274.08 320.029 274.331 327.665C274.336 327.816 274.338 327.968 274.338 328.119C274.338 335.512 268.345 341.506 260.952 341.506C260.659 341.506 260.366 341.496 260.073 341.477L201.567 337.628C196.432 337.29 192.322 333.433 191.525 328.503Z" fill="#E5243B"/>
<path d="M261.207 336.706C266.072 336.706 270.017 332.762 270.017 327.896C270.017 323.03 266.072 319.086 261.207 319.086C256.341 319.086 252.396 323.03 252.396 327.896C252.396 332.762 256.341 336.706 261.207 336.706Z" stroke="white" stroke-width="1.09148"/>
<path d="M262.877 330.136C262.877 329.081 262.022 328.226 260.967 328.226C259.912 328.226 259.057 329.081 259.057 330.136V349.783C259.057 350.838 259.912 351.693 260.967 351.693C262.022 351.693 262.877 350.838 262.877 349.783V330.136Z" fill="#080725"/>
<path d="M266.698 349.51H254.691V354.422H266.698V349.51Z" fill="#E5243B"/>
<path d="M397.02 283.396L392.37 289.458C384.373 283.325 374.599 279.949 364.302 279.949C338.805 279.949 318.136 300.618 318.136 326.114C318.136 331.219 318.964 336.206 320.566 340.936L313.33 343.388C311.461 337.87 310.496 332.055 310.496 326.114C310.496 296.398 334.586 272.309 364.302 272.309C376.295 272.309 387.7 276.248 397.02 283.396Z" fill="#E5243B"/>
<path d="M312.112 199.455C312.434 199.679 312.514 200.121 312.291 200.443C312.067 200.765 311.625 200.845 311.303 200.621L296.613 190.435C296.291 190.212 296.211 189.77 296.434 189.448C296.657 189.126 297.099 189.046 297.421 189.269L312.112 199.455Z" fill="#E5243B"/>
<path d="M317.344 197.02C317.461 197.394 317.253 197.792 316.879 197.91C316.506 198.027 316.107 197.819 315.99 197.445L311.715 183.817C311.597 183.443 311.805 183.045 312.179 182.927C312.553 182.81 312.951 183.018 313.068 183.392L317.344 197.02Z" fill="#E5243B"/>
<path d="M324.151 197.358C324.029 197.731 323.629 197.935 323.257 197.814C322.884 197.693 322.68 197.292 322.801 196.92L326.348 186.005C326.47 185.632 326.87 185.428 327.242 185.549C327.615 185.67 327.819 186.071 327.698 186.443L324.151 197.358Z" fill="#E5243B"/>
<path d="M329.293 200.478C328.956 200.678 328.521 200.566 328.321 200.229C328.122 199.892 328.233 199.456 328.571 199.257L345.087 189.483C345.424 189.283 345.859 189.395 346.059 189.732C346.258 190.069 346.147 190.504 345.81 190.704L329.293 200.478Z" fill="#E5243B"/>
<path d="M203.456 289.435C208.709 283.962 216.442 276.023 220.278 287.72C224.114 299.416 206.238 348.273 208.968 363.9C209.171 369.301 199.863 371.849 198.159 364.749C198.577 356.4 203.059 329.89 199.808 318.488C194.997 301.615 200.489 292.527 203.456 289.435Z" fill="#FFC0BF"/>
<path d="M195.358 371.88C191.615 369.506 192.569 364.416 197.8 360.285C199.122 359.241 199.821 363.187 202.184 364.083C203.637 364.633 207.058 362.567 208.677 363.561C214.844 367.349 221.07 372.664 223.565 375.172C227.781 379.41 227.625 381.072 223.825 382.122C220.025 383.171 199.1 374.254 195.358 371.88Z" fill="#253238"/>
<path d="M209.828 367.808C209.523 368.054 209.077 368.007 208.83 367.703C208.583 367.398 208.63 366.952 208.935 366.705L212.297 363.982C212.602 363.735 213.048 363.782 213.295 364.087C213.542 364.391 213.495 364.838 213.19 365.085L209.828 367.808Z" fill="#6F787C"/>
<path d="M212.037 369.849C211.732 370.095 211.286 370.048 211.039 369.744C210.792 369.439 210.839 368.993 211.144 368.746L214.506 366.023C214.811 365.776 215.257 365.823 215.504 366.128C215.751 366.432 215.704 366.879 215.399 367.126L212.037 369.849Z" fill="#6F787C"/>
<path d="M214.211 371.917C213.906 372.164 213.459 372.117 213.213 371.813C212.966 371.508 213.013 371.061 213.318 370.815L216.68 368.092C216.984 367.845 217.431 367.892 217.678 368.197C217.924 368.501 217.877 368.948 217.573 369.194L214.211 371.917Z" fill="#6F787C"/>
<path d="M193.75 367.019C193.594 366.66 193.759 366.242 194.119 366.086C194.478 365.93 194.896 366.095 195.052 366.455C195.996 368.634 197.159 370.017 198.521 370.641C202.423 372.428 217.029 378.426 219.569 379.134C221.223 379.595 222.606 379.809 223.573 379.734C224.481 379.664 224.854 379.394 224.89 378.866C224.916 378.475 225.255 378.18 225.646 378.206C226.037 378.233 226.332 378.571 226.306 378.962C226.214 380.31 225.218 381.03 223.683 381.149C222.516 381.239 220.988 381.002 219.189 380.5C216.553 379.766 201.899 373.749 197.93 371.931C196.209 371.142 194.822 369.493 193.75 367.019Z" fill="#6F787C"/>
<path d="M215.485 225.716C221.066 241.348 222.751 273.272 224.934 283.641C227.117 294.01 218.931 337.065 217.567 339.248C216.203 341.431 210.823 342.964 210.745 344.491C210.634 346.66 210.44 348.202 210.745 349.949C210.947 355.35 200.396 354.865 198.692 347.766C198.827 345.058 199.334 342.227 199.846 339.248C200.043 338.103 198.692 339.248 196.829 336.032C194.966 332.816 197.539 323.62 196.829 315.294C195.432 298.922 196.938 291.681 199.846 287.461C197.001 284.296 187.005 251.715 183.872 232.068C181.934 219.91 173.089 214.332 183.872 195.735C187.436 189.59 218.436 185.233 223.865 192.434C229.294 199.634 236.655 208.366 235.843 208.366C235.55 208.366 228.405 213.742 220.876 218.423C218.471 219.918 216.007 220.645 213.74 222.009C214.485 223.367 214.91 224.106 215.485 225.716Z" fill="#19486A"/>
<path d="M214.574 222.659C214.216 222.818 213.797 222.657 213.637 222.299C213.478 221.941 213.64 221.521 213.998 221.362C218.805 219.226 221.899 217.193 223.263 215.317C223.493 215 223.937 214.93 224.254 215.161C224.57 215.391 224.641 215.835 224.41 216.152C222.863 218.278 219.59 220.429 214.574 222.659Z" fill="#26BDE2"/>
<path d="M187.819 210.857C187.801 210.556 188.029 210.297 188.33 210.278C188.631 210.259 188.89 210.488 188.909 210.788C190.543 236.746 193.445 254.799 197.601 264.917C204.275 281.167 207.316 305.071 203.901 318.468C203.48 320.12 200.55 330.955 200.19 332.798C199.632 335.655 199.845 336.915 200.984 337.827C201.22 338.015 201.258 338.359 201.069 338.594C200.881 338.83 200.538 338.868 200.302 338.679C198.77 337.453 198.491 335.802 199.119 332.589C199.487 330.701 202.432 319.811 202.843 318.199C206.194 305.053 203.183 281.38 196.591 265.331C192.378 255.074 189.46 236.926 187.819 210.857Z" fill="#26BDE2"/>
<path d="M199.399 343.459C199.086 343.224 199.022 342.779 199.257 342.465C199.492 342.152 199.937 342.088 200.25 342.324C204.08 345.196 207.217 346.128 209.677 345.227C210.045 345.092 210.452 345.281 210.587 345.648C210.722 346.016 210.533 346.424 210.165 346.559C207.167 347.658 203.574 346.59 199.399 343.459Z" fill="#C3CBFF"/>
<path d="M199.399 347.279C199.086 347.044 199.022 346.599 199.257 346.286C199.492 345.972 199.937 345.909 200.25 346.144C204.08 349.016 207.217 349.949 209.677 349.047C210.045 348.912 210.452 349.101 210.587 349.469C210.722 349.837 210.533 350.244 210.165 350.379C207.167 351.478 203.574 350.41 199.399 347.279Z" fill="#C3CBFF"/>
<path d="M212.266 218.732C212.118 218.369 212.291 217.955 212.654 217.806C213.017 217.658 213.431 217.832 213.579 218.194C215.225 222.218 216.506 225.787 217.423 228.905C217.534 229.281 217.319 229.675 216.943 229.786C216.567 229.896 216.173 229.681 216.062 229.305C215.16 226.238 213.895 222.713 212.266 218.732Z" fill="#26BDE2"/>
<path d="M293.507 131.521C280.573 148.744 272.154 158.699 268.25 161.385C266.92 162.3 265.703 162.922 264.616 163.262C263.665 163.899 262.264 164.418 260.374 164.802C252.639 166.372 223.81 150.579 220.322 147.224C216.835 143.869 215.2 138.658 222.933 137.089C229.978 135.659 251.447 147.232 259.699 152.999C264.403 144.613 285.314 128.702 291.422 124.082C291.898 122.238 292.953 120.553 294.41 119.571C295.463 118.86 295.943 121.031 296.974 120.441C298.322 119.668 301.562 118.623 302.988 120.736C305.156 123.951 304.787 130.057 301.712 132.131C299.167 133.848 295.816 133.511 293.507 131.521Z" fill="#FFC0BF"/>
<path d="M220.322 147.224C216.835 143.869 215.2 138.659 222.932 137.089C227.545 136.153 238.339 140.79 247.56 145.723C253.799 149.06 247.653 164.993 239.936 161.432C230.339 157.005 222.255 149.084 220.322 147.224Z" fill="#03608F"/>
<path d="M256.854 156.521C256.854 155.555 257.484 154.545 258.745 153.491" stroke="#FF7371" stroke-width="1.09148" stroke-linecap="round" stroke-linejoin="round"/>
<path d="M195.169 129.355C202.99 122.529 224.933 133.149 231.184 142.086C233.442 145.313 230.049 148.259 229.52 154.805C229.104 159.961 232.62 168.259 227.333 174.47C222.174 180.53 221.745 193.748 224.367 202.048C224.493 202.449 193.688 207.33 184.876 195.532C181.681 191.254 195.956 188.761 190.592 170.51C185.683 153.81 184.924 138.295 195.169 129.355Z" fill="#FFC0BF"/>
<path d="M194.639 128.688C196.689 126.898 200.189 126.787 203.643 127.05C207.601 127.353 205.888 146.317 218.93 147.92C233.192 149.674 218.601 131.931 221.602 133.568C224.604 135.206 230.62 139.788 232.022 141.512C233.988 143.931 230.081 150.47 230.809 152.364C233.351 158.986 236.373 163.721 227.04 174.683C222.8 179.664 224.068 190.083 229.293 194.995C230.178 195.827 230.178 200.725 222.744 204.546C215.311 208.366 193.395 207.543 184.584 195.745C181.389 191.467 193.286 184.344 187.921 166.093C183.013 149.392 184.394 137.628 194.639 128.688Z" fill="#03608F"/>
<path d="M221.305 156.362C220.919 156.297 220.658 155.931 220.723 155.545C220.788 155.158 221.154 154.898 221.541 154.963C226.126 155.735 228.546 154.682 229.44 152.26C230.124 150.408 229.911 147.882 229.122 145.041C229.017 144.664 229.238 144.273 229.616 144.168C229.993 144.063 230.384 144.284 230.489 144.661C231.352 147.767 231.586 150.544 230.771 152.751C229.615 155.886 226.507 157.238 221.305 156.362Z" fill="#03608F"/>
<path d="M212.943 114.568L225.444 117.918C221.743 127.259 219.899 134.14 219.913 138.56C219.933 145.191 209.045 140.833 207.412 135.211C206.323 131.463 208.167 124.582 212.943 114.568Z" fill="#FFC0BF"/>
<path d="M227.486 132.873C222.983 131.667 207.679 109.179 210.198 99.776C212.718 90.3728 222.203 84.7443 231.384 87.2043C240.564 89.6643 245.965 99.2813 243.445 108.684C240.925 118.088 231.988 134.079 227.486 132.873Z" fill="#FFC0BF"/>
<path d="M214.143 107.615C214.186 107.316 214.462 107.109 214.76 107.152C215.059 107.195 215.266 107.472 215.223 107.77C214.799 110.723 215.518 112.035 217.395 112.074C217.789 112.082 218.045 112.492 217.879 112.849C217.267 114.17 216.924 115.212 216.846 115.959C216.815 116.259 216.547 116.477 216.247 116.446C215.947 116.414 215.729 116.146 215.76 115.846C215.837 115.107 216.111 114.189 216.581 113.083C214.506 112.674 213.69 110.764 214.143 107.615Z" fill="#FF7371"/>
<path fill-rule="evenodd" clip-rule="evenodd" d="M229.038 108.228L233.536 106.913C233.926 106.798 234.335 107.022 234.449 107.413C234.462 107.455 234.47 107.499 234.475 107.543C234.526 108.027 234.174 108.462 233.69 108.512L229.124 108.992C228.93 109.013 228.756 108.872 228.736 108.678C228.715 108.475 228.842 108.285 229.038 108.228Z" fill="#253238"/>
<path fill-rule="evenodd" clip-rule="evenodd" d="M244.286 111.419L240.816 109.511C240.467 109.319 240.028 109.446 239.836 109.795C239.813 109.839 239.793 109.884 239.779 109.932C239.635 110.4 239.899 110.897 240.368 111.04L244.05 112.165C244.237 112.223 244.436 112.117 244.493 111.93C244.553 111.732 244.467 111.519 244.286 111.419Z" fill="#253238"/>
<path d="M232.904 112.112C233.043 111.594 232.735 111.061 232.217 110.922C231.699 110.783 231.167 111.091 231.028 111.609L230.69 112.87C230.551 113.388 230.859 113.921 231.377 114.06C231.895 114.198 232.427 113.891 232.566 113.373L232.904 112.112Z" fill="#1C2229"/>
<path d="M239.757 114.344C239.896 113.825 239.589 113.293 239.071 113.154C238.553 113.015 238.02 113.323 237.881 113.841L237.543 115.102C237.405 115.62 237.712 116.153 238.23 116.292C238.748 116.43 239.281 116.123 239.42 115.605L239.757 114.344Z" fill="#1C2229"/>
<path d="M233.687 119.346C232.582 118.034 232.988 115.452 234.747 111.511C234.87 111.236 235.193 111.112 235.468 111.235C235.743 111.358 235.867 111.681 235.744 111.956C234.151 115.523 233.796 117.782 234.522 118.642C235.371 119.65 236.179 120.246 236.932 120.448C237.358 120.562 237.48 121.107 237.143 121.392C235.682 122.625 234.344 123.32 233.114 123.458C232.815 123.492 232.545 123.276 232.511 122.977C232.478 122.677 232.693 122.407 232.993 122.373C233.792 122.284 234.706 121.87 235.725 121.122C235.042 120.743 234.364 120.149 233.687 119.346Z" fill="#FF7371"/>
<path d="M222.499 127.772C222.706 127.991 222.697 128.336 222.478 128.544C222.259 128.751 221.913 128.741 221.706 128.522C219.894 126.606 218.676 124.985 218.051 123.641C217.924 123.368 218.043 123.043 218.316 122.916C218.589 122.789 218.914 122.908 219.041 123.181C219.607 124.398 220.76 125.934 222.499 127.772Z" fill="#FF7371"/>
<path d="M226.42 123.646C226.119 123.663 225.861 123.433 225.845 123.132C225.828 122.831 226.058 122.573 226.359 122.557C229.954 122.357 231.656 123.719 231.014 126.499C230.947 126.792 230.654 126.976 230.36 126.908C230.066 126.84 229.883 126.547 229.951 126.253C230.401 124.304 229.374 123.482 226.42 123.646Z" fill="#FF7371"/>
<path d="M190.491 77.7227C197.84 72.5199 209.434 83.6629 217.061 86.8938C220.877 83.9733 226.655 83.6313 235.761 89.239C244.218 94.4474 253.088 91.3598 250.093 102.537C247.098 113.714 240.848 105.524 240.54 102.92C238.796 105.906 233.251 108.152 224.511 108.713C224.028 108.743 222.844 112.68 221.719 112.378C220.593 112.076 220.94 109.647 221.111 108.642C221.282 107.637 219.776 103.871 217.637 104.349C215.498 104.826 213.981 106.797 214.07 108.713C214.627 114.021 213.354 118.123 212.218 117.819C208.466 116.813 208.867 104.747 210.155 99.94C210.637 98.1434 211.206 96.2343 211.939 94.3995C206.85 95.7047 204.215 97.6091 204.032 100.113C203.732 104.236 196.906 121.449 187.034 126.032C176.7 130.829 157.918 121.383 167.148 120.704C176.378 120.025 179.876 102.467 186.128 84.3866C186.906 82.1376 187.838 80.4415 188.893 79.2017C187.43 79.9915 185.441 83.0863 183.055 88.7351C182.902 89.0961 182.486 89.265 182.125 89.1125C181.764 88.96 181.595 88.5438 181.747 88.1829C185.103 80.2424 187.934 76.592 190.491 77.7227Z" fill="#253238"/>
<path d="M262.509 133.819C247.304 149.075 237.582 157.762 233.342 159.878C232.803 160.147 232.285 160.378 231.789 160.571C230.994 161.67 229.25 162.511 226.428 163.032C218.667 164.467 190.117 148.174 186.689 144.759C183.261 141.343 185.522 131.722 193.281 130.288C200.248 129 217.941 144.123 225.712 150.835C230.944 143.251 254.655 129.963 261.48 126.163C262.208 124.404 263.487 122.882 265.066 122.111C266.208 121.554 266.381 123.771 267.484 123.33C268.927 122.752 272.281 122.168 273.399 124.459C275.099 127.944 273.884 133.94 270.549 135.566C267.79 136.912 264.519 136.111 262.509 133.819Z" fill="#FFC0BF"/>
<path d="M186.452 145.606C181.304 137.643 187.816 128.415 195.184 128.415C202.551 128.415 216.741 143.028 216.741 144.242C216.741 145.456 213.777 157.335 206.371 158.704C198.61 160.139 191.6 153.569 186.452 145.606Z" fill="#03608F"/>
<path d="M217.694 145.833C217.411 145.729 217.266 145.416 217.37 145.133C217.474 144.85 217.787 144.705 218.07 144.809C219.972 145.508 222.638 147.362 226.104 150.379C226.526 150.746 226.188 151.435 225.639 151.326C225.103 151.218 224.676 151.706 224.368 153.092C224.303 153.386 224.012 153.571 223.717 153.506C223.423 153.441 223.238 153.149 223.303 152.855C223.56 151.697 223.978 150.885 224.558 150.49C221.59 147.975 219.293 146.421 217.694 145.833Z" fill="#FF7371"/>
<path d="M210.658 154.55C210.842 154.204 211.272 154.073 211.618 154.258C211.963 154.442 212.094 154.872 211.91 155.218C210.344 158.153 208.607 159.686 206.645 159.686C203.482 159.686 195.583 155.735 193.503 152.615C193.185 152.138 192.9 151.819 192.668 151.659C192.531 151.565 192.477 151.555 192.444 151.568C192.19 151.669 191.821 152.374 191.509 153.684C191.418 154.065 191.035 154.3 190.654 154.209C190.273 154.118 190.037 153.736 190.128 153.355C190.983 149.777 192.828 149.045 194.683 151.828C196.492 154.541 203.942 158.267 206.645 158.267C207.958 158.267 209.313 157.072 210.658 154.55Z" fill="#0A97D9"/>
<path d="M310.626 125.342L313.938 127.79C314.666 128.328 314.819 129.353 314.282 130.08C313.744 130.807 312.719 130.961 311.992 130.423L306.586 126.427C300.667 127.931 294.582 129.107 291.681 129.107C289.224 129.107 286.38 127.721 282.505 125.048C281.771 124.541 281.006 123.993 280.105 123.332C273.794 118.7 273.038 118.192 272.308 118.192C271.162 118.192 270.048 119.83 269.274 123.698C269.097 124.584 268.234 125.159 267.348 124.982C266.461 124.805 265.886 123.942 266.063 123.055C267.109 117.827 269.088 114.917 272.308 114.917C273.511 114.917 274.85 115.574 276.824 116.901C277.531 117.377 278.302 117.928 279.337 118.69C279.65 118.921 281.497 120.292 282.042 120.692C282.92 121.336 283.66 121.867 284.365 122.353C287.699 124.653 290.119 125.832 291.681 125.832C294.235 125.832 299.962 124.702 305.528 123.313C305.958 122.881 306.588 122.729 307.157 122.898C311.789 121.694 316.078 120.366 318.034 119.435C317.932 119.364 317.821 119.289 317.7 119.211C316.463 118.416 314.481 117.478 312.168 116.58C307.79 114.881 303.002 113.709 302.443 113.958C301.343 114.447 300.105 116.378 298.965 119.793C298.678 120.651 297.751 121.114 296.893 120.828C296.036 120.541 295.572 119.614 295.859 118.756C297.266 114.542 298.938 111.932 301.113 110.966C302.871 110.184 307.924 111.421 313.353 113.528C315.853 114.498 318.016 115.523 319.47 116.456C320.36 117.028 321.012 117.577 321.422 118.164C322.137 119.188 322.134 120.449 321.148 121.326C319.977 122.367 315.676 123.906 310.626 125.342Z" fill="#253238"/>
<defs>
<filter id="filter0_f_6463_5883" x="114.018" y="349.621" width="310.595" height="53.174" filterUnits="userSpaceOnUse" color-interpolation-filters="sRGB">
<feFlood flood-opacity="0" result="BackgroundImageFix"/>
<feBlend mode="normal" in="SourceGraphic" in2="BackgroundImageFix" result="shape"/>
<feGaussianBlur stdDeviation="9.45" result="effect1_foregroundBlur_6463_5883"/>
</filter>
</defs>
</svg>
