<svg xmlns="http://www.w3.org/2000/svg" viewBox="0 0 4167.11 4163.74"><defs><style>.cls-1,.cls-36{fill:#dc1464;}.cls-1,.cls-10,.cls-11,.cls-12,.cls-13,.cls-14,.cls-15,.cls-16,.cls-17,.cls-18,.cls-2,.cls-3,.cls-4,.cls-5,.cls-6,.cls-7,.cls-8,.cls-9{fill-rule:evenodd;}.cls-2{fill:#be8c28;}.cls-3{fill:#e6283c;}.cls-4{fill:#faa028;}.cls-5{fill:#fa3c1e;}.cls-6{fill:#3c8246;}.cls-7{fill:#5abe28;}.cls-40,.cls-8{fill:#1e466e;}.cls-9{fill:#0a96dc;}.cls-10,.cls-35{fill:#c81428;}.cls-11{fill:#a01446;}.cls-12,.cls-38{fill:#fac80a;}.cls-13{fill:#0064a0;}.cls-14,.cls-37{fill:#28bee6;}.cls-15{fill:#dca03c;}.cls-16,.cls-39{fill:#fa6428;}.cls-17{fill:#50a03c;}.cls-19{fill:#f16c32;}.cls-20{fill:#ea4824;}.cls-21{fill:#bb912d;}.cls-22{fill:#4a9e46;}.cls-23{fill:#d91c6b;}.cls-24{fill:#2790ce;}.cls-25{fill:#dfb32b;}.cls-26{fill:#f79c26;}.cls-27{fill:#62b546;}.cls-28{fill:#0f4a6c;}.cls-29{fill:#a01c48;}.cls-30{fill:#bd232e;}.cls-31{fill:#106a9b;}.cls-32{fill:#df2541;}.cls-33{fill:#2fb8dc;}.cls-34{fill:#fff;}</style></defs><g id="Layer_2" data-name="Layer 2"><g id="Layer_3" data-name="Layer 3"><g id="Logo"><g id="Kreis"><path id="Fill-1" class="cls-1" d="M1007,3864.61A2070.55,2070.55,0,0,0,1596,4106.4l36-188.27a1884.47,1884.47,0,0,1-523.28-216.42Z"/><path id="Fill-3" class="cls-2" d="M92.32,2696.39a2073.51,2073.51,0,0,0,275,566.27l154.17-115.42A1885.32,1885.32,0,0,1,277.3,2644.47Z"/><path id="Fill-5" class="cls-3" d="M2751.09,108.9C2550.93,41.3,2337.11,3.29,2114.9,0l-.53,184.87A1894.09,1894.09,0,0,1,2684,280.45Z"/><path id="Fill-7" class="cls-4" d="M595.37,3248l-154,115.31A2095,2095,0,0,0,902,3796.78L1003.9,3633.6A1905.5,1905.5,0,0,1,595.37,3248"/><path id="Fill-9" class="cls-5" d="M3921,2560.13l178,51.45a2083.14,2083.14,0,0,0,68.1-529.8q0-61.62-3.57-122.33L3980,1975.63q2.74,51.3,2.81,103.25a1894.88,1894.88,0,0,1-61.8,481.25"/><path id="Fill-11" class="cls-6" d="M194.65,1968.34,4.13,1950.05Q0,2015.38,0,2081.76A2085.43,2085.43,0,0,0,59.07,2576L244.14,2524a1895.45,1895.45,0,0,1-52.81-445.12c0-37.14,1.21-74,3.32-110.56"/><path id="Fill-13" class="cls-7" d="M618.49,601.42a2089.87,2089.87,0,0,0-377,506.65l169.6,85.1A1900.43,1900.43,0,0,1,745,741Z"/><path id="Fill-15" class="cls-8" d="M1989.86,1.87A2076.23,2076.23,0,0,0,1362,128L1428.79,302A1887.7,1887.7,0,0,1,1989.3,187Z"/><path id="Fill-17" class="cls-9" d="M186.25,1220.19A2064.5,2064.5,0,0,0,15.67,1825.68l190.18,18.23A1879.57,1879.57,0,0,1,356.13,1305.4Z"/><path id="Fill-19" class="cls-10" d="M4152.61,1835a2066.35,2066.35,0,0,0-180.5-633.9l-164.57,81.34a1879.71,1879.71,0,0,1,161.64,568.71Z"/><path id="Fill-21" class="cls-11" d="M2483.38,4125.45a2070.83,2070.83,0,0,0,607.69-220.88l-98.75-160.88a1884.18,1884.18,0,0,1-543.13,194.87Z"/><path id="Fill-23" class="cls-12" d="M3100.05,3680.31l98.55,160.48A2093.24,2093.24,0,0,0,3687.21,3411l-148.93-113.36a1906.56,1906.56,0,0,1-438.23,382.63"/><path id="Fill-25" class="cls-13" d="M1246.06,174.8A2085.38,2085.38,0,0,0,710,516.25l126.24,139.3a1897.81,1897.81,0,0,1,476.83-306.36Z"/><path id="Fill-27" class="cls-14" d="M3764.17,3312.6a2075.4,2075.4,0,0,0,299.47-581.22l-178.23-51.52a1889.23,1889.23,0,0,1-269.81,519.63Z"/><path id="Fill-29" class="cls-15" d="M3424.63,488.33a2083.43,2083.43,0,0,0-556.37-335.86l-67,171.27a1894.64,1894.64,0,0,1,499.27,299.78Z"/><path id="Fill-31" class="cls-16" d="M1754.33,3944.09l-35.88,187.79A2109.63,2109.63,0,0,0,2360,4145.57l-34.28-187.23a1916.57,1916.57,0,0,1-571.38-14.25"/><path id="Fill-33" class="cls-17" d="M3751.24,1170.91l164.54-81.34a2090.92,2090.92,0,0,0-397.94-518L3394,706.63a1901.19,1901.19,0,0,1,357.25,464.28"/></g><path d="M2076.58,692.79a1400.1,1400.1,0,0,1,280,28.22A1381.55,1381.55,0,0,1,2853.2,930a1393.17,1393.17,0,0,1,503.31,611.19,1382,1382,0,0,1,80.93,260.69,1403.1,1403.1,0,0,1,0,560,1381.55,1381.55,0,0,1-209,496.63,1393.33,1393.33,0,0,1-611.19,503.32,1382.16,1382.16,0,0,1-260.69,80.92,1403.1,1403.1,0,0,1-560,0,1381.08,1381.08,0,0,1-496.63-209,1393.33,1393.33,0,0,1-503.32-611.19,1381.2,1381.2,0,0,1-80.92-260.69,1403.1,1403.1,0,0,1,0-560,1381.08,1381.08,0,0,1,209-496.63A1393.17,1393.17,0,0,1,1535.9,801.94,1382,1382,0,0,1,1796.59,721a1400,1400,0,0,1,280-28.22m0-40.19c-789.37,0-1429.28,639.9-1429.28,1429.27s639.91,1429.28,1429.28,1429.28,1429.27-639.91,1429.27-1429.28S2865.94,652.6,2076.58,652.6Z"/><circle cx="2083.56" cy="2081.87" r="1290.55"/><polygon class="cls-18" points="495.25 2154.03 449.63 2172.53 450.94 2220.89 420.39 2182.03 372.53 2200.79 400.42 2157.68 370.95 2116.86 418.28 2132.38 446.18 2090.2 448.04 2140.18 495.25 2154.03"/><polygon class="cls-18" points="490.48 1877.11 441.26 1878.63 425.72 1924.44 410.55 1877.39 359.16 1878.38 400.27 1847.63 386.79 1799.12 425.8 1830.1 466.6 1800.22 451 1847.74 490.48 1877.11"/><polygon class="cls-18" points="579.33 1606.73 530.12 1608.25 514.57 1654.06 499.4 1607.01 448.01 1608 489.12 1577.25 475.64 1528.74 514.65 1559.72 555.45 1529.84 539.86 1577.36 579.33 1606.73"/><polygon class="cls-18" points="553.39 2407.24 538.94 2454.31 577.29 2483.81 527.86 2482.99 512.21 2531.94 496.37 2483.11 446.11 2480.2 488.02 2453.29 472.91 2405.02 512.85 2435.12 553.39 2407.24"/><polygon class="cls-18" points="3655.21 2154.03 3700.84 2172.53 3699.52 2220.89 3730.08 2182.03 3777.93 2200.79 3750.05 2157.68 3779.52 2116.86 3732.19 2132.38 3704.29 2090.2 3702.43 2140.18 3655.21 2154.03"/><polygon class="cls-18" points="3659.99 1877.11 3709.2 1878.63 3724.75 1924.44 3739.92 1877.39 3791.31 1878.38 3750.2 1847.63 3763.67 1799.12 3724.67 1830.1 3683.86 1800.22 3699.46 1847.74 3659.99 1877.11"/><polygon class="cls-18" points="3571.14 1606.73 3620.35 1608.25 3635.9 1654.06 3651.07 1607.01 3702.46 1608 3661.35 1577.25 3674.82 1528.74 3635.82 1559.72 3595.01 1529.84 3610.61 1577.36 3571.14 1606.73"/><polygon class="cls-18" points="3597.07 2407.24 3611.52 2454.31 3573.18 2483.81 3622.61 2482.99 3638.26 2531.94 3654.09 2483.11 3704.36 2480.2 3662.45 2453.29 3677.55 2405.02 3637.61 2435.12 3597.07 2407.24"/><path d="M1061.16,705h-1.22a22.43,22.43,0,0,0-10.48,2.44c-1.9,1-3.75,2-5.62,3-.92.51-1.83,1.08-2.74,1.61a1.53,1.53,0,0,1-1.73-.41,1.61,1.61,0,0,1-.17-2.28c1-.83,1.91-1.69,2.91-2.48q34.08-27,68.18-54a21.75,21.75,0,0,1,2.12-1.42,1.12,1.12,0,0,1,1.2.06c1.15.65,1.43,1.72.63,2.62-1,1.12-2.07,2.15-3.1,3.23a38,38,0,0,0-4.43,5.45,22.53,22.53,0,0,0-3.66,8.78c-.18,1.05-.47,2.09-.56,3.15a18.78,18.78,0,0,0,0,3.82,29.73,29.73,0,0,0,3.07,10.36,73.49,73.49,0,0,0,4.61,7.67c2.88,4.23,6,8.26,9.21,12.27q9.74,12.27,19.48,24.55,23.65,29.81,47.32,59.6c2.26,2.84,4.54,5.65,6.93,8.38,2,2.25,4.06,4.37,6.15,6.5a33.71,33.71,0,0,0,5,4,25.8,25.8,0,0,0,9.95,4.17,22.41,22.41,0,0,0,8.9-.1,32.58,32.58,0,0,0,9.53-3.62c1.67-1,3.29-2,4.94-3a1.72,1.72,0,0,1,2.47,1.12,1.54,1.54,0,0,1-.13,1.19,19.88,19.88,0,0,1-2.34,2.15q-11,8.77-22,17.51L1171.84,866c-1.68,1.33-3.38,2.61-5.07,3.9a1.7,1.7,0,0,1-2.24-.49c-.59-.86-.65-1.22-.24-1.7s.81-1,1.25-1.44c.88-.92,1.83-1.79,2.67-2.75q1.69-1.92,3.26-3.94a26.25,26.25,0,0,0,4.32-9.2,21.69,21.69,0,0,0,.57-3.78,25.14,25.14,0,0,0-2.62-13.63,61.92,61.92,0,0,0-4.2-7.17c-2.48-3.73-5.16-7.31-8-10.82l-23-29.06c-3-3.84-6.09-7.69-9.15-11.51-.67-.83-1.43-1.57-2.14-2.36a1.67,1.67,0,0,0-1.79-.09c-1.38,1-2.77,2-4.1,3q-21.57,17.07-43.11,34.17-15,11.91-30.07,23.84c-1.33,1.06-2.62,2.18-3.92,3.28a1.47,1.47,0,0,0-.38,1.71c.49.69.95,1.41,1.48,2.08q16.48,20.79,33,41.58c1.86,2.34,3.77,4.64,5.76,6.86s4.08,4.35,6.19,6.46a31.8,31.8,0,0,0,5.52,4.34,26.5,26.5,0,0,0,12,3.89,17.54,17.54,0,0,0,4.46-.22,31.72,31.72,0,0,0,10.23-3.53c1.67-.94,3.29-2,4.94-2.94.36-.22.77-.34,1.14-.52a1.67,1.67,0,0,1,1.67.66c.63.84.69,1.22.29,1.67s-.52.69-.82,1c-.47.43-1,.83-1.48,1.22q-33.84,26.82-67.68,53.63c-1.16.93-2.4,1.75-3.62,2.62-.46.32-1.08.12-1.65-.52a1.5,1.5,0,0,1-.12-2.27c.88-.93,1.79-1.82,2.66-2.76,1.15-1.26,2.31-2.51,3.39-3.83a24.9,24.9,0,0,0,4.13-7.17,28,28,0,0,0,1.79-8.73,24,24,0,0,0-1.78-9.35,34.54,34.54,0,0,0-3.51-6.81c-1.75-2.67-3.55-5.31-5.43-7.9-1.75-2.42-3.6-4.76-5.45-7.1q-33.39-42.09-66.78-84.18c-3-3.84-6.08-7.69-9.42-11.29-1.88-2-3.84-4-5.83-5.92a26,26,0,0,0-4.55-3.52,22.13,22.13,0,0,0-9.53-3.43,33.41,33.41,0,0,0-5.74-.27,24.23,24.23,0,0,0-9.78,2.76c-2.43,1.31-4.81,2.72-7.22,4.1a1.9,1.9,0,0,1-2.59-1,1.09,1.09,0,0,1,.12-1.21,16.42,16.42,0,0,1,3.32-3l29.07-23q19-15.11,38.09-30.21c.83-.66,1.72-1.25,2.59-1.87a1.63,1.63,0,0,1,1.78-.06,2.26,2.26,0,0,1,.84,1.64c0,.2,0,.48-.1.6-1,1.1-2.09,2.14-3.09,3.24-1.29,1.42-2.58,2.85-3.77,4.34a24.92,24.92,0,0,0-4.51,21.74,31.75,31.75,0,0,0,3.22,7.64c1.41,2.38,2.87,4.73,4.46,7q2.92,4.2,6.1,8.22,14.07,17.8,28.22,35.57a8.82,8.82,0,0,0,2.2,2.28,1.25,1.25,0,0,0,1.21.12,8.85,8.85,0,0,0,2.13-1.38l22.06-17.47,54.63-43.31c.84-.67,1.66-1.35,2.48-2a2,2,0,0,0,.44-2.31c-.63-.86-1.23-1.74-1.89-2.58q-13.71-17.28-27.44-34.56c-2.12-2.66-4.32-5.27-6.57-7.84q-2.54-2.88-5.3-5.55a44.28,44.28,0,0,0-4.39-3.7A22.91,22.91,0,0,0,1061.16,705Z"/><path d="M1803.72,370.08a93.24,93.24,0,0,1,19.09,1.67,92,92,0,0,1,25.41,8.3,101.29,101.29,0,0,1,36,30,117.46,117.46,0,0,1,20,41.76,121.1,121.1,0,0,1,3.59,20.75,108.67,108.67,0,0,1-4.76,42.88,75.28,75.28,0,0,1-20,31.51,77,77,0,0,1-23.57,15,184.16,184.16,0,0,1-23,7.66c-6.79,1.81-10.44,2.55-18.71,4.07-8,1.47-15.9,3-23.85,4.51-5.66,1-11.32,2-17,3.06s-11.29,2.14-17,3.19-11.31,2.07-17,3.11c-5.86,1.09-11.72,2.2-17.58,3.28-3.77.69-7.55,1.34-11.33,2-.62.11-1.27.1-1.91.15-.41,0-1.19-.73-1.27-1.25a1.5,1.5,0,0,1,.6-1.66,17.57,17.57,0,0,1,2.34-1,42.67,42.67,0,0,0,7.19-2.63,25,25,0,0,0,13.57-15.32,18.59,18.59,0,0,0,.83-3.73,40.24,40.24,0,0,0,.29-7,104.25,104.25,0,0,0-1.18-12.07c-1.18-7.14-2.53-14.25-3.86-21.37-1.49-8-2.9-15.91-4.36-23.87-1-5.44-2-10.88-3-16.33q-1.64-8.79-3.28-17.57l-3.27-17.58c-1-5.66-2.1-11.31-3.12-17-1.07-5.87-2.25-11.71-3.87-17.45a56.23,56.23,0,0,0-2.79-7.81,24.43,24.43,0,0,0-6.93-9.06,23.89,23.89,0,0,0-9.68-4.7,40.76,40.76,0,0,0-12.06-.94,8.85,8.85,0,0,1-3.16-.12,1.64,1.64,0,0,1-1-1.48c.07-.39.22-1,.5-1.08a12.62,12.62,0,0,1,3-1.06c5.65-1,11.32-2,17-3s11.3-2.16,17-3.21,11.31-2.05,17-3.09l16.95-3.15c5.45-1,10.88-2.08,16.33-3,6.92-1.23,13.84-2.46,20.78-3.57,3.78-.6,7.6-1,11.42-1.37C1797.32,370.2,1800.52,370.2,1803.72,370.08Zm-51.46,91.43h0c.63,3.34,1.28,6.69,1.9,10q1.53,8.16,3,16.33c1,5.66,2,11.32,3.07,17q1.74,9.42,3.51,18.84c.86,4.61,1.67,9.23,2.65,13.81a104.37,104.37,0,0,0,3.5,12.94,37.43,37.43,0,0,0,3.82,8.06,28.1,28.1,0,0,0,14.25,11.33,42.63,42.63,0,0,0,6.83,1.62,33.93,33.93,0,0,0,10.83.25,101.3,101.3,0,0,0,12-2.05,87.87,87.87,0,0,0,15.1-5.15A56.34,56.34,0,0,0,1854,547.65a73.79,73.79,0,0,0,6.61-10.17c7.38-13.55,10.93-28.13,11.63-43.45a112.48,112.48,0,0,0-.79-19.14,142.35,142.35,0,0,0-4.24-21.28,120,120,0,0,0-17.82-37.29,97.33,97.33,0,0,0-24-23.71,78.32,78.32,0,0,0-20.51-10.25,70.44,70.44,0,0,0-18.14-3.49,129.75,129.75,0,0,0-28.65,2.05c-4,.7-8,1.42-11.94,2.18q-3.45.66-6.87,1.49c-.32.08-.64.56-.79.92a2.37,2.37,0,0,0-.12,1.24c1,5.45,2,10.88,3.06,16.33q1.46,7.85,2.88,15.71,2.18,11.94,4.36,23.88C1749.87,449,1751.07,455.23,1752.26,461.51Z"/><path d="M3141.84,830.43a57,57,0,0,1-16.9-3.11c-3.43-1.17-6.74-2.65-10.06-4.09a2.77,2.77,0,0,0-1.24-.2.9.9,0,0,0-.85.74,2.74,2.74,0,0,0,.3,1.22c.57,1.38,1.24,2.72,1.76,4.11a32.25,32.25,0,0,1,2,16.31c-.62,4.22-1.37,8.41-2.32,12.56-2.81,12.25-5.46,24.53-8.05,36.82-1.41,6.67-2.73,13.36-3.74,20.1-.6,4-1,8-1.36,12.07a31.15,31.15,0,0,0,.71,9.52,15.27,15.27,0,0,0,2.58,5.8c1.14,1.54,2.37,3,3.55,4.52a1.69,1.69,0,0,1-.57,2.22,1.52,1.52,0,0,1-1.75.21c-.52-.36-1.08-.69-1.57-1.09q-16.77-13.33-33.52-26.69a19.24,19.24,0,0,1-1.92-1.68,2,2,0,0,1-.62-1.75c1.23-5.18,2.48-10.35,3.81-15.5,2.51-9.69,5.17-19.34,7.55-29.06,2.93-12,4-17.72,5.61-26.89a130.62,130.62,0,0,0,2.06-18.41,91.53,91.53,0,0,0-.24-10.86,26.55,26.55,0,0,0-7.5-16.54,68.63,68.63,0,0,0-10.25-8.62,1.51,1.51,0,0,0-1.76.11c-.43.47-.91.89-1.31,1.39q-15.95,20-31.87,40c-2.65,3.34-5.2,6.75-7.58,10.29a75.29,75.29,0,0,0-4,6.57,30.52,30.52,0,0,0-3.28,11,11.18,11.18,0,0,0-.05,1.92,26.67,26.67,0,0,0,4.84,14.33,46.86,46.86,0,0,0,5,5.81c.75.75,1.47,1.53,2.2,2.31a1.67,1.67,0,0,1-.45,2.23c-.69.48-1.28.57-1.76.22-.86-.62-1.74-1.22-2.57-1.88l-55.55-44.19c-4.17-3.32-8.34-6.63-12.5-10-.83-.66-1.59-1.41-2.38-2.12a1.88,1.88,0,0,1,0-1.8c.38-.62,1.13-1,1.56-.83a15.93,15.93,0,0,1,1.74.78c1.1.64,2.13,1.41,3.25,2,1.5.82,3,1.6,4.57,2.29a22.25,22.25,0,0,0,9.3,2l2.56,0a22.58,22.58,0,0,0,12-3.86,31.35,31.35,0,0,0,5.46-4.42c2.08-2.13,4.19-4.25,6.12-6.52,3.46-4.06,6.83-8.19,10.15-12.36q32.09-40.24,64.14-80.52,3.78-4.75,7.37-9.66c1.51-2,2.92-4.2,4.28-6.36a45.24,45.24,0,0,0,2.47-4.47,25.49,25.49,0,0,0,2.38-13.67,24.48,24.48,0,0,0-5.48-13.39c-1.33-1.66-2.84-3.18-4.26-4.76-.71-.79-1.44-1.57-2.11-2.38a1.14,1.14,0,0,1-.1-1.2c.26-.6.59-1.16,1.31-1.21a1.93,1.93,0,0,1,1.2.23c1.39,1,2.74,2,4.07,3.09q30.78,24.5,61.53,49c4.84,3.85,9.65,7.73,14.13,12,3.54,3.39,7,6.85,10.24,10.55a83,83,0,0,1,7.33,9.67,53.05,53.05,0,0,1,6.89,15.74,46.55,46.55,0,0,1-6.87,38.4,56.84,56.84,0,0,1-8.78,10.12,43.17,43.17,0,0,1-18.91,10.24A47.28,47.28,0,0,1,3141.84,830.43Zm19.88-74.08c-.12-1.27-.32-3.39-.53-5.51a23.33,23.33,0,0,0-.92-4.36,36.6,36.6,0,0,0-5.66-11.37,54.79,54.79,0,0,0-5.4-6.29,158.19,158.19,0,0,0-17.44-15,1.6,1.6,0,0,0-2.23.4c-.86.94-1.66,1.94-2.46,2.94q-26.86,33.7-53.72,67.43c-.4.5-.81,1-1.19,1.51-.25.34-.43.73-.7,1.06a1.92,1.92,0,0,0,.33,2.32,165.15,165.15,0,0,0,20.59,15.07c.72.45,1.47.86,2.22,1.26a35.93,35.93,0,0,0,16,3.94,9.09,9.09,0,0,0,1.28,0c3.16-.41,6.38-.61,9.48-1.31a47.88,47.88,0,0,0,22.36-11.72,57.68,57.68,0,0,0,13.14-17.91A52.63,52.63,0,0,0,3161.72,756.35Z"/><path d="M2135.91,471c6-.17,13.29-.4,20.54-.56,7-.16,14.08-.26,21.11-.37,1.07,0,2.13.06,3.19.1a1.52,1.52,0,0,1,1.25,1.22,1.85,1.85,0,0,1-.48,1.73c-.16.13-.31.36-.49.39-2.72.5-5.44,1-8.18,1.41a38.25,38.25,0,0,0-6.2,1.55c-6,1.86-9.67,6.07-11.21,12.06a45.68,45.68,0,0,0-1.46,10.1,237,237,0,0,0,.69,30,11.35,11.35,0,0,1,0,2.54c0,.31-.51.68-.85.8a2.78,2.78,0,0,1-1.24-.07c-1.47-.27-2.92-.64-4.4-.83a10.52,10.52,0,0,0-6.19,1.11,49.59,49.59,0,0,0-5.42,3.38,91.38,91.38,0,0,1-14.5,8.08,114.42,114.42,0,0,1-20.58,6.9,105,105,0,0,1-17,2.82c-7,1.11-14,1-21.07.86a59.43,59.43,0,0,1-7.65-.59c-1.47-.21-3-.32-4.45-.5a104.43,104.43,0,0,1-40.38-13.35,81.44,81.44,0,0,1-32.21-34.62,112.14,112.14,0,0,1-9-26.54,132.54,132.54,0,0,1-2.34-37.53A122.09,122.09,0,0,1,1980,394.48a95.83,95.83,0,0,1,43.48-43.6,113.19,113.19,0,0,1,31.42-10.42,169.39,169.39,0,0,1,17.8-1.86,60.77,60.77,0,0,1,10.87.26c1,.11,2.12.24,3.18.31a89.32,89.32,0,0,1,22.44,4.79c4.26,1.4,8.38,3.13,12.49,4.9,2,.84,3.94,1.63,5.89,2.5a13.65,13.65,0,0,0,5.61,1,6.8,6.8,0,0,0,5.54-2.7,18.75,18.75,0,0,0,1.76-2.65c.52-.92.91-1.92,1.38-2.87a2.61,2.61,0,0,1,3.25-1.26,1.09,1.09,0,0,1,.9.82,9.92,9.92,0,0,1,.32,1.86c.44,11.08,1.29,22.13,1.5,33.22,0,2.34.28,4.68.38,7q.4,9.59.77,19.17a12.18,12.18,0,0,1-.22,1.88,1.9,1.9,0,0,1-1.45,1.08,1.82,1.82,0,0,1-1.67-.75c-.73-1.53-1.32-3.14-1.9-4.74a167.56,167.56,0,0,0-6.64-15.92,111,111,0,0,0-11.52-19.14,72.57,72.57,0,0,0-9.06-9.89,52.76,52.76,0,0,0-22.22-12.16,55.68,55.68,0,0,0-19.65-1.71,82,82,0,0,0-12.61,2,53.35,53.35,0,0,0-18.89,9.05,66.62,66.62,0,0,0-10.23,9.63,100.21,100.21,0,0,0-9.46,12.87,127.81,127.81,0,0,0-16.91,41.85,122.8,122.8,0,0,0-2.53,17c-.26,4-.75,8.07-.73,12.13a106.45,106.45,0,0,0,.42,10.86c.17,1.69.27,3.4.42,5.1a122.24,122.24,0,0,0,10.67,40.59,93.86,93.86,0,0,0,13.27,21,74.37,74.37,0,0,0,14,13.1,54.59,54.59,0,0,0,17.81,8.46,45.73,45.73,0,0,0,12,1.82c1.71,0,3.42.07,5.12,0a47.77,47.77,0,0,0,31.21-12.94A41,41,0,0,0,2120.32,515a46.37,46.37,0,0,0,.27-20.93,28.14,28.14,0,0,0-2.14-6,19.75,19.75,0,0,0-11.17-10,32.05,32.05,0,0,0-6.77-1.88,67.47,67.47,0,0,0-10.8-1.09,8.15,8.15,0,0,1-1.91-.19,2.64,2.64,0,0,1-1.05-.62c-.27-.23-.1-1.48.24-1.79a2.24,2.24,0,0,1,1-.7,22.36,22.36,0,0,1,3.18-.27q9.59-.16,19.19-.29Z"/><path d="M1399.1,683.32a63.18,63.18,0,0,0-2.18-16.42c-.8-3.32-1.64-6.62-2.73-9.85a17.47,17.47,0,0,1-.52-2.49,1.76,1.76,0,0,1,3-1.37c.67,1.08,1.38,2.15,2,3.27q8.46,15.76,16.89,31.54c2.42,4.51,4.85,9,7.25,13.52a19.23,19.23,0,0,1,.92,2.36,1,1,0,0,1-.38,1.14,21.79,21.79,0,0,1-3.76,2.4q-18.8,10.91-37.62,21.76L1276.3,790.29q-2.76,1.61-5.58,3.11a3.12,3.12,0,0,1-1.24.14c-.54,0-1-.45-1.25-1.26a1.14,1.14,0,0,1,.17-1.19c.6-.6,1.27-1.12,1.92-1.66,1.81-1.49,3.68-2.91,5.41-4.48a24.73,24.73,0,0,0,7.31-11.8,17.91,17.91,0,0,0,.6-2.48,28.17,28.17,0,0,0-1-12.63,71.63,71.63,0,0,0-3.37-8.27c-2-4.24-4.3-8.33-6.65-12.38q-12-20.75-24-41.49-15-26-30.12-52-3.21-5.52-6.61-10.94a76.14,76.14,0,0,0-5.59-7.78,31.12,31.12,0,0,0-5.43-5.39,25.08,25.08,0,0,0-17.36-5.21,27.63,27.63,0,0,0-8,2c-2.17.86-4.34,1.73-6.52,2.58a1.09,1.09,0,0,1-.63-.08,1.57,1.57,0,0,1-.51-.34,1.8,1.8,0,0,1,.08-2.75c1.26-.78,2.52-1.58,3.81-2.32q43.71-25.29,87.42-50.55,19.36-11.2,38.73-22.41c2.39-1.38,4.82-2.71,7.24-4.06a1.91,1.91,0,0,1,1.77.38c.26.33.58.63.81,1q12,18.48,24,37a13,13,0,0,1,.8,1.73,1.71,1.71,0,0,1-2.6,1.66c-.61-.58-1.26-1.14-1.82-1.77a80.43,80.43,0,0,0-6.27-6.39,44.19,44.19,0,0,0-12.79-8.32,47,47,0,0,0-20.6-3.62,64.27,64.27,0,0,0-10,1.91,70.52,70.52,0,0,0-9.56,3.6,137.75,137.75,0,0,0-12.51,6.41q-14.41,8.26-28.78,16.61c-.55.32-1.07.7-1.61,1a1.77,1.77,0,0,0-.37,2.27q1.4,2.51,2.83,5l35.53,61.4q2.4,4.14,4.85,8.26a2.11,2.11,0,0,0,2.81.61c5-2.79,10-5.63,14.78-8.89,2.11-1.44,4.14-3,6.13-4.6a24.5,24.5,0,0,0,4.8-5.11,23.1,23.1,0,0,0,4.34-12.5,31.16,31.16,0,0,0-1.12-10.11c-1-3.49-2.26-6.87-3.58-10.24a29.47,29.47,0,0,1-.91-3,1,1,0,0,1,.46-1.13c1.08-.81,2.13-.73,2.73.22s1.13,1.8,1.66,2.73q17.55,30.81,35.09,61.65c.52.92,1,1.87,1.44,2.84a1.63,1.63,0,0,1-.4,1.74,1.73,1.73,0,0,1-2.28.2c-.58-.62-1.17-1.23-1.72-1.88-1.67-1.94-3.29-3.92-5-5.83a49.61,49.61,0,0,0-6.53-6.1,40.33,40.33,0,0,0-6.49-4.06,30.25,30.25,0,0,0-10.39-2.94,11.54,11.54,0,0,0-2.56,0,37.93,37.93,0,0,0-8.76,1.7c-1,.37-2,.64-3,1a98.6,98.6,0,0,0-16.88,9,1.62,1.62,0,0,0-.5,1.7c.38.76.74,1.53,1.16,2.27,6.3,10.88,12.56,21.77,18.93,32.61,2.81,4.77,5.78,9.45,8.77,14.11a76.38,76.38,0,0,0,7.27,9.72A40.52,40.52,0,0,0,1319.3,739a32.15,32.15,0,0,0,18.39,4.36,44.3,44.3,0,0,0,9.39-1.82,68.93,68.93,0,0,0,10.12-3.91,112.14,112.14,0,0,0,21.1-13.18,66.27,66.27,0,0,0,8.39-7.85,46.26,46.26,0,0,0,10.14-17.57,45.33,45.33,0,0,0,2.06-10.64C1399,686.73,1399,685,1399.1,683.32Z"/><path d="M3311.13,966.9c7.61-1.49,15.77-3.06,23.92-4.67,4-.78,7.93-1.62,11.9-2.44a36.82,36.82,0,0,0,7.86-2.61,25.69,25.69,0,0,0,8.74-6.34,31.08,31.08,0,0,0,2.68-3.57,15.21,15.21,0,0,0,2.47-7.83,19.68,19.68,0,0,0-2.38-10.46,43,43,0,0,0-4.36-6.29,5.1,5.1,0,0,1-.53-1.13c-.17-.39.25-1.22.81-1.6a1.29,1.29,0,0,1,1.21-.18,2,2,0,0,1,.57.24,14.43,14.43,0,0,1,1.44,1.26q21.95,22.82,43.88,45.66c.29.3.54.65.82,1a2,2,0,0,1-.21,1.79,2.1,2.1,0,0,1-1.68.7,5.75,5.75,0,0,1-1.17-.48c-1.41-1-2.76-2-4.17-3a25.93,25.93,0,0,0-8.66-4,18.9,18.9,0,0,0-3.14-.6c-2.76-.17-5.53-.36-8.3-.31-5.54.1-11.09.16-16.56,1.25-7.43.78-14.74,2.3-22.06,3.7-5.65,1.09-11.32,2.05-17,3.11s-11.29,2.17-16.95,3.23-11.32,2-17,3.13c-3.76.73-7.54,1.36-11.26,2.36-1.23.33-2.45.71-3.67,1.07a20.68,20.68,0,0,0-6.23,3.2c-1.2.87-2.38,1.8-3.5,2.78-1.76,1.55-3.5,3.12-5.2,4.75q-13.39,12.83-26.76,25.68c-3.38,3.26-6.7,6.57-9.83,10.07a65.73,65.73,0,0,0-4.81,6,25.08,25.08,0,0,0-4.22,9.93,24.13,24.13,0,0,0,.2,10.15,31.12,31.12,0,0,0,5,11c1.11,1.56,2.31,3.06,3.46,4.59a1.75,1.75,0,0,1-1.23,2.45,1.39,1.39,0,0,1-1.18-.27,17.23,17.23,0,0,1-1.4-1.3q-31-32.29-62-64.58c-.45-.46-.84-1-1.25-1.46a1.8,1.8,0,0,1,.13-1.78,1.74,1.74,0,0,1,1.68-.68,4.36,4.36,0,0,1,1.14.51c1.52,1.18,3,2.43,4.5,3.59a28,28,0,0,0,7.17,4.14c4.46,1.64,9,2.5,13.78,1.46a27.8,27.8,0,0,0,8.88-3.46c1.81-1.11,3.54-2.38,5.24-3.66a110,110,0,0,0,9.2-7.92c7.75-7.33,15.43-14.72,23.22-22a49.22,49.22,0,0,0,11.47-16.76,90.78,90.78,0,0,0,4.9-15.18c1.34-5.59,2.58-11.21,3.83-16.82,2.32-10.39,4.59-20.8,6.92-31.19,2.7-12,5.46-24.09,8.14-36.15a61.94,61.94,0,0,0,1.84-13.27c0-1.92,0-3.84-.13-5.75a26.32,26.32,0,0,0-4.9-13.66c-1.11-1.57-2.33-3-3.48-4.59-.25-.33-.4-.74-.62-1.1a1.62,1.62,0,0,1,.5-1.7c.77-.55,1.26-.64,1.74-.29a9.67,9.67,0,0,1,1,.73c.77.74,1.5,1.51,2.24,2.28L3326.77,881q2,2.07,3.9,4.23a1.61,1.61,0,0,1,.41,1.14,2.26,2.26,0,0,1-1.17,1.43,1,1,0,0,1-1.2,0c-.35-.23-.75-.42-1.07-.68-1-.82-1.92-1.69-2.91-2.51-1.31-1.09-2.61-2.19-4-3.22a31,31,0,0,0-3.2-2.11,12.32,12.32,0,0,0-4.19-1.47c-5.64-.86-10,1.29-13.43,5.63a21.87,21.87,0,0,0-3.08,5.58,66.34,66.34,0,0,0-2.72,8.51c-1.23,5-2.48,9.92-3.68,14.89q-5.58,23-11.13,46-1.42,5.89-2.84,11.8a4.7,4.7,0,0,0-.06,2.52c.09.32.6.51.92.75,2.1-.34,4.21-.62,6.29-1.05,4.38-.9,8.77-1.78,13.17-2.6C3301.42,968.94,3306,967.94,3311.13,966.9Z"/><path d="M772.73,985.64a46.63,46.63,0,0,0,2.48,16.16,71.74,71.74,0,0,0,6.55,13.83c1.54,2.55,3.21,5,4.81,7.55.22.36.39.75.6,1.12.44.77-.5,2.36-1.48,2.4a2.09,2.09,0,0,1-1.17-.3,8.5,8.5,0,0,1-1.45-1.24q-17-17.34-34-34.72a10.76,10.76,0,0,1-1.56-2,1.67,1.67,0,0,1,0-1.21,3,3,0,0,1,.66-1.07q1.92-2.14,3.87-4.26L855,870.78Q868.52,856.25,882,841.7a8.23,8.23,0,0,1,2.38-2.09,1.15,1.15,0,0,1,1.21,0c.87.6,1.77,1.18,2.58,1.86Q900.4,851.71,912.63,862q6.12,5.14,12.23,10.29a17.07,17.07,0,0,1,1.35,1.34c.63.64.55,1.45-.22,2.25a1.56,1.56,0,0,1-1.7.53q-2.53-1.35-5.06-2.73a94,94,0,0,0-14.6-6.42,44.9,44.9,0,0,0-19.55-2,39,39,0,0,0-8.05,2,61,61,0,0,0-16.85,9c-2.23,1.65-4.4,3.38-6.49,5.19a268.92,268.92,0,0,0-22.34,21.94,2,2,0,0,0-.05,2.84c.3.3.59.61.9.9,1.08,1,2.17,2,3.27,3.06l42.22,39.1q31.2,28.89,62.4,57.77,4.93,4.54,10,8.92c1.93,1.66,4,3.22,6,4.71a46.14,46.14,0,0,0,4.86,3.06,25.57,25.57,0,0,0,26.13-1,68.34,68.34,0,0,0,7.54-5.91,1.66,1.66,0,0,1,2.29.1c.15.14.27.32.42.48a.83.83,0,0,1,.16,1.13,13.32,13.32,0,0,1-1.11,1.56c-2.43,2.68-4.89,5.34-7.35,8l-50.86,54.86c-1.3,1.4-2.63,2.79-4,4.17a1.8,1.8,0,0,1-3-.85.85.85,0,0,1,0-.58,16,16,0,0,1,1-1.64c1.32-1.93,2.7-3.82,4-5.79a26.36,26.36,0,0,0,4-12.66,9,9,0,0,0,0-1.27,26.45,26.45,0,0,0-3-11.64,38.14,38.14,0,0,0-4.35-6.3c-1.8-2.11-3.65-4.18-5.6-6.14q-4.51-4.53-9.21-8.87Q888.5,1004,858.92,976.6q-23.7-21.93-47.38-43.88a13.11,13.11,0,0,0-3.46-2.79,1.46,1.46,0,0,0-1.19.09,6.27,6.27,0,0,0-1.45,1.23c-5.87,6.48-11.54,13.12-16.9,20-2.74,3.53-5.33,7.18-7.72,11a80.46,80.46,0,0,0-4.31,7.83A35.52,35.52,0,0,0,772.73,985.64Z"/><path d="M2537.49,433.34q4.64-11.22,9.28-22.43c.49-1.18,1.05-2.33,1.58-3.5a2,2,0,0,1,1.61-.83c1.42.45,2.84.89,4.24,1.39l147.41,52.61,33.1,11.8c1.41.5,2.79,1,4.18,1.58a2.08,2.08,0,0,1,1,2.15c-.4,1.43-.79,2.87-1.22,4.3q-6.39,21.09-12.79,42.18c-.37,1.22-.81,2.42-1.3,3.6a1.85,1.85,0,0,1-.88.82,2,2,0,0,1-2.39-1.49,10.13,10.13,0,0,1,0-1.91,80.63,80.63,0,0,0,.88-15.29,56.54,56.54,0,0,0-1-9.52,40.75,40.75,0,0,0-9.7-19.84,56.7,56.7,0,0,0-8.42-7.82,75.76,75.76,0,0,0-10.24-6.51,166.65,166.65,0,0,0-15.63-7.28c-5.32-2.18-10.71-4.19-16.07-6.26-.4-.16-.82-.24-1.23-.36a2.24,2.24,0,0,0-2.67,1.14c-.54,1.39-1.07,2.78-1.57,4.19q-4.84,13.53-9.66,27.07l-39.53,110.7a162,162,0,0,0-5.24,17.09,37.81,37.81,0,0,0-.95,11.42,23.83,23.83,0,0,0,6.74,14.82,26.89,26.89,0,0,0,6.56,5.06c1.85,1,3.78,2,5.66,3a12,12,0,0,1,1.05.7,1.66,1.66,0,0,1,.34,1.75,1.71,1.71,0,0,1-1.41,1.11,5.34,5.34,0,0,1-1.85-.4q-14.73-5.3-29.47-10.55l-51.15-18.22q-2.72-1-5.37-2c-.35-.15-.6-.56-.86-.89a1.52,1.52,0,0,1,.77-2.08,3.92,3.92,0,0,1,1.25-.17,30.38,30.38,0,0,1,3.13.62,34.85,34.85,0,0,0,11.42,1,23.65,23.65,0,0,0,14.35-6.31,27.06,27.06,0,0,0,4.86-5.9,60,60,0,0,0,3.59-6.77c2-4.26,3.65-8.63,5.23-13q10.11-28.28,20.22-56.54,14.51-40.61,29-81.22c.57-1.6,1.14-3.21,1.68-4.82a8.76,8.76,0,0,0,.24-1.26,2.57,2.57,0,0,0-.9-1.61c-1.18-.47-2.35-1-3.55-1.39-8.31-2.7-16.63-5.33-25.11-7.44a135.52,135.52,0,0,0-15.71-2.87,39.59,39.59,0,0,0-23.58,4,47,47,0,0,0-10.92,7.74,67.26,67.26,0,0,0-8.86,10.06c-2.11,2.95-4.11,6-6.19,8.93a1.67,1.67,0,0,1-1.69.62,2,2,0,0,1-1.42-1.15,1,1,0,0,1-.16-.61c.4-1.21.79-2.42,1.28-3.6q4-9.75,8.06-19.48Z"/><path d="M1578.84,637.71c-3.83-.22-7.66-.42-11.49-.65a21.8,21.8,0,0,0-5.1.24,10.69,10.69,0,0,0-3.57,1.32,8.87,8.87,0,0,0-4.1,4.72c-.43,1.19-.71,2.45-1.14,3.64a1.85,1.85,0,0,1-.89.83c-1.3.62-2.2.35-2.62-.75s-.93-2.38-1.34-3.59q-8.07-23.9-16.14-47.8c-.48-1.42-.89-2.85-1.32-4.27a1.74,1.74,0,0,1,1.35-1.89,1.56,1.56,0,0,1,1.76.31c1.06,1.33,2.1,2.68,3.09,4.06,3.23,4.51,6.61,8.89,10.24,13.08,2.38,2.74,4.88,5.37,7.51,7.86a74.38,74.38,0,0,0,13.79,10.32,53.5,53.5,0,0,0,11.68,5.11,41,41,0,0,0,13.85,2,44.77,44.77,0,0,0,25-8.74,37.26,37.26,0,0,0,13.8-21,38.43,38.43,0,0,0,.25-18.34,52.4,52.4,0,0,0-15.13-26.87,37.69,37.69,0,0,0-10.54-7.13,68.77,68.77,0,0,0-14.57-4.68q-8.13-1.74-16.35-2.93c-5.48-.8-11-1.48-16.44-2.44a159.5,159.5,0,0,1-16.86-3.6A64.53,64.53,0,0,1,1534,533a47.91,47.91,0,0,1-22.3-21.21,63.18,63.18,0,0,1-6.24-18.71c-1.4-11.87-.33-23.39,4.86-34.33.37-.77.76-1.53,1.15-2.28a53.84,53.84,0,0,1,31.09-26.93,68,68,0,0,1,11.15-2.76,30,30,0,0,1,5.1-.37c4.47,0,9,.07,13.42.17,2.77.06,5.54.22,8.31.32a29.91,29.91,0,0,0,7-.56,6.31,6.31,0,0,0,4.66-4.75c.15-.83.19-1.69.32-2.53a12.59,12.59,0,0,1,.42-1.84c.23-.7.89-.84,1.5-1a1.86,1.86,0,0,1,1.66.7c.19.38.43.74.6,1.13.25.58.46,1.19.68,1.79q8.65,23.7,17.31,47.4c.36,1,.62,2,.91,3.05a2.27,2.27,0,0,1-.74,1.68,2.06,2.06,0,0,1-2.36-.17c-.79-1-1.58-2-2.34-3-2.94-3.93-5.8-7.91-8.8-11.79a82.14,82.14,0,0,0-12.88-13.28,63.6,63.6,0,0,0-8.88-6.24c-1.48-.85-3-1.6-4.53-2.37a36.86,36.86,0,0,0-21.77-3.42,41.45,41.45,0,0,0-9.81,2.78,39.78,39.78,0,0,0-4.59,2.25,31.31,31.31,0,0,0-15.41,19.54,33.87,33.87,0,0,0-.79,16.44,42.07,42.07,0,0,0,2.61,8.53,35.19,35.19,0,0,0,12.09,14.57,49.58,49.58,0,0,0,15,7,89.77,89.77,0,0,0,15,3c5.5.64,11,1.12,16.5,2,1.05.17,2.11.28,3.17.37a152.77,152.77,0,0,1,18.33,2.69A89.45,89.45,0,0,1,1624.8,517a57.26,57.26,0,0,1,30.93,33.23,62.76,62.76,0,0,1,4,26.33c-1.22,18.19-8.73,33.15-23.16,44.49a67.49,67.49,0,0,1-13.63,8.28,96.54,96.54,0,0,1-22.49,7.06A104.09,104.09,0,0,1,1578.84,637.71Z"/><path d="M2322.91,535.12c1.6-7.61,3.44-16.36,5.3-25.1a43,43,0,0,1,1.2-4.31,1.75,1.75,0,0,1,.86-.86,2.05,2.05,0,0,1,2.18.89,3.7,3.7,0,0,1,.46,1.16c.32,4,.76,8.05,1.23,12.07a134.63,134.63,0,0,0,2.83,15.71,76.13,76.13,0,0,0,6.39,17.33,60.25,60.25,0,0,0,7,10.67,44.36,44.36,0,0,0,38,15.79,36.66,36.66,0,0,0,13.38-4.06,38.8,38.8,0,0,0,18.37-20.48,52.76,52.76,0,0,0,3.51-17.45,64.71,64.71,0,0,0-1.76-14.55,39.93,39.93,0,0,0-7.33-14.77,64.94,64.94,0,0,0-7.78-8.46q-5.45-4.93-11-9.72c-2.59-2.21-5.29-4.3-7.94-6.44-5-4-9.93-8.06-14.64-12.4a82,82,0,0,1-8-8.25c-1.35-1.65-2.67-3.33-3.86-5.09a47.39,47.39,0,0,1-8.21-27.73c.26-23.06,14.9-45.32,37.32-54.1a48.65,48.65,0,0,1,18-3.68c1.07,0,2.14,0,3.2,0a56.23,56.23,0,0,1,26.28,7c3.55,1.94,6.93,4.18,10.31,6.41,2.84,1.88,5.72,3.7,8.6,5.52a23.23,23.23,0,0,0,5.23,2.36,5.74,5.74,0,0,0,5.89-1.49,25.4,25.4,0,0,0,2.06-2.43c.42-.47.86-.92,1.3-1.38a2,2,0,0,1,1.82,0,2.27,2.27,0,0,1,.76.94,7.38,7.38,0,0,1-.1,3.17c-.57,3.14-1.17,6.28-1.76,9.42q-1.61,8.47-3.21,16.94-1.72,9.1-3.44,18.2c-.55,2.93-.83,5.92-1.86,8.74a1.63,1.63,0,0,1-1,.74,2.36,2.36,0,0,1-1.82-.34,1,1,0,0,1-.36-.51,4.12,4.12,0,0,1-.38-1.19c-.26-4.69-1-9.32-1.4-14a94,94,0,0,0-2.73-15.07,72.13,72.13,0,0,0-6-15.44,50.44,50.44,0,0,0-5.61-8.53,36.09,36.09,0,0,0-20.92-12.63,41.89,41.89,0,0,0-8.21-1.18c-11.5-.18-20.63,4.47-27.56,13.53a37,37,0,0,0-6.19,12.52,36.24,36.24,0,0,0-1.17,8.84,34.28,34.28,0,0,0,3.79,16.64,52.32,52.32,0,0,0,7.95,11.54,74.43,74.43,0,0,0,9.79,9.16c3.19,2.5,6.41,4.95,9.62,7.41,4.23,3.24,8.48,6.46,12.7,9.71A137.81,137.81,0,0,1,2439,479a84.28,84.28,0,0,1,8.25,9.74,59.82,59.82,0,0,1,9.14,18.87,56.09,56.09,0,0,1,1.42,24,66.85,66.85,0,0,1-5.72,18.88,63.25,63.25,0,0,1-17.71,22.35,58.5,58.5,0,0,1-22.85,11,66.84,66.84,0,0,1-16.49,1.66,83.55,83.55,0,0,1-23.27-3.7,93.72,93.72,0,0,1-25.86-12.3c-2.29-1.56-4.55-3.17-6.83-4.74-1.23-.84-2.45-1.71-3.74-2.46a12.84,12.84,0,0,0-6.06-1.79,9.12,9.12,0,0,0-7,2.49q-1.15,1.1-2.37,2.13a1.35,1.35,0,0,1-1.21.22,1.93,1.93,0,0,1-1.71-2.25l4-18.74C2321.49,541.67,2322.08,539,2322.91,535.12Z"/><path d="M2759.66,3583.58a33.33,33.33,0,0,0,2.1,10.8,84,84,0,0,0,5.06,11.73c5.9,11.35,11.88,22.65,18.11,33.82,1,1.86,2.18,3.66,3.38,5.42a18.69,18.69,0,0,0,2.48,2.92,11.24,11.24,0,0,0,6.76,3.31,23.24,23.24,0,0,0,3.82.12,29.65,29.65,0,0,0,6.92-1.17,2.37,2.37,0,0,1,1.23.09,1.22,1.22,0,0,1,.86.88,1,1,0,0,1-.3,1.12,15.49,15.49,0,0,1-3.81,2.32q-19.17,10.23-38.38,20.41c-1.13.59-2.3,1.1-3.46,1.62a.86.86,0,0,1-.63,0c-.37-.16-.88-.31-1-.61a1.43,1.43,0,0,1,.17-1.18,7.32,7.32,0,0,1,1.3-1.37c1.27-1.15,2.59-2.23,3.82-3.41a11.13,11.13,0,0,0,2.55-3.65,8.48,8.48,0,0,0,.63-1.79,19,19,0,0,0-.59-9.47,67.86,67.86,0,0,0-3.42-8.27c-1.56-3.26-3.23-6.48-4.92-9.68q-7.47-14.13-15-28.23-2.87-5.36-5.93-10.6a54,54,0,0,0-3.57-5.3,17.43,17.43,0,0,0-5.84-4.87,12.38,12.38,0,0,0-6.79-1.44,14.91,14.91,0,0,0-5,1.08,3,3,0,0,1-1.86.33,2,2,0,0,1-1-.6,1.07,1.07,0,0,1,0-1.19,2,2,0,0,1,.35-.53,17,17,0,0,1,1.48-1.21l22.51-15.79c.52-.36,1.1-.64,1.64-1a2,2,0,0,1,1.8.24c.46.44,1,.85,1.38,1.32,2.4,2.72,4.52,5.66,6.66,8.58a2.79,2.79,0,0,0,.95.83,1,1,0,0,0,1.1-.32,4,4,0,0,0,.62-1.1c.9-2.16,1.69-4.37,2.68-6.49a49.72,49.72,0,0,1,13.52-17.6,49.14,49.14,0,0,1,9.11-5.9,36.71,36.71,0,0,1,11.57-3.49,19.47,19.47,0,0,1,6.37.15,38.77,38.77,0,0,1,8.56,2.52c2,.84,3.91,1.7,5.84,2.6a1.56,1.56,0,0,0,2-.93c.65-1.58,1.21-3.18,1.82-4.78a63.15,63.15,0,0,1,5-10.33,48.17,48.17,0,0,1,24.11-20.1,39.88,39.88,0,0,1,10.56-2.46,19.7,19.7,0,0,1,6.36.27,47.27,47.27,0,0,1,5.6,1.29,26.05,26.05,0,0,1,13.39,10.4c1.17,1.77,2.16,3.67,3.17,5.55q7.38,13.82,14.73,27.65c2.71,5.08,5.42,10.15,8.19,15.19q1.84,3.38,3.91,6.6a26.06,26.06,0,0,0,2.73,3.54,12.85,12.85,0,0,0,9.05,4.17,10.83,10.83,0,0,0,2.54-.17c2.1-.35,4.19-.79,6.29-1.17a3.69,3.69,0,0,1,1.24,0,1.15,1.15,0,0,1,.85.86,1.1,1.1,0,0,1-.24,1.16,5,5,0,0,1-1,.81c-.73.45-1.48.85-2.23,1.25l-40.09,21.28c-.56.3-1.14.57-1.71.85-1,.47-1.85.3-2.22-.41a1.58,1.58,0,0,1,.46-1.74c.81-.69,1.64-1.35,2.44-2.06s1.59-1.42,2.33-2.18c3.4-3.51,4.34-7.7,3.31-12.4a35.61,35.61,0,0,0-2.46-7.25c-1.34-2.9-2.68-5.81-4.17-8.64q-8-15.29-16.17-30.5a126.56,126.56,0,0,0-6.54-11,36.58,36.58,0,0,0-5.78-6.82,22.49,22.49,0,0,0-7.59-4.62,16,16,0,0,0-3.73-.84,22.25,22.25,0,0,0-11.25,1.75,35.43,35.43,0,0,0-9.22,5.66,22.34,22.34,0,0,0-7.56,13,28.1,28.1,0,0,0,.18,10.81,61,61,0,0,0,3.8,12.18c1.26,2.93,2.62,5.83,4.1,8.66,5.54,10.58,11.1,21.14,16.91,31.56,1.14,2.05,2.35,4.06,3.65,6a21.29,21.29,0,0,0,2.84,3.44,12.4,12.4,0,0,0,10.52,3.59,49.63,49.63,0,0,0,7.53-1.39c.62-.17,1,.1,1.47.92a.87.87,0,0,1-.17,1.14,2.46,2.46,0,0,1-.45.46c-.72.44-1.44.89-2.19,1.29L2828.66,3643a6.44,6.44,0,0,1-2.39.87,1,1,0,0,1-1-.54,1.89,1.89,0,0,1,0-1.22,2.53,2.53,0,0,1,.74-1c1.27-1.13,2.61-2.2,3.85-3.36,4-3.71,4.92-8.32,3.74-13.45a33.26,33.26,0,0,0-1.62-4.85q-1.18-3-2.58-5.84-2.09-4.32-4.31-8.57c-3.87-7.35-7.74-14.71-11.69-22-2.23-4.12-4.59-8.18-6.94-12.23a55.76,55.76,0,0,0-4.29-6.36,29.47,29.47,0,0,0-3.91-4.22,19.87,19.87,0,0,0-7.14-4.12,17.22,17.22,0,0,0-3.75-.76,23.32,23.32,0,0,0-14.07,3.33,27.21,27.21,0,0,0-13.05,17.41A31.05,31.05,0,0,0,2759.66,3583.58Z"/><path d="M670.47,2782.46c-1.9.19-3.82.3-5.72.57a74.65,74.65,0,0,0-10.06,1.8,23.68,23.68,0,0,1-3.14.54c-.91.14-1.56-.6-1.42-1.62a1.55,1.55,0,0,1,.21-.59,1.49,1.49,0,0,1,.48-.42c.94-.49,1.88-1,2.85-1.44q16.59-7.55,33.18-15.06a20.31,20.31,0,0,1,3-1.09,1.43,1.43,0,0,1,1.1.43,6.21,6.21,0,0,1,1.12,1.53c1.59,3,3.15,6,4.71,9.09q33.35,64.83,66.67,129.68a28.08,28.08,0,0,1,2.7,5.77,1.26,1.26,0,0,1-.32,1.18,11.5,11.5,0,0,1-3.15,2.15q-15.49,9-31,17.91c-.92.53-1.86,1-2.83,1.48a2.74,2.74,0,0,1-1.25.08c-.38,0-1-1.25-.85-1.56a4.37,4.37,0,0,1,.69-1.07c1.24-1.16,2.53-2.28,3.79-3.42a72.7,72.7,0,0,0,6.28-6.38,45.47,45.47,0,0,0,5.2-7.28,34.4,34.4,0,0,0,4.39-15.87,49.88,49.88,0,0,0-1.89-14.53,92.43,92.43,0,0,0-3.76-10.87c-2.56-6.33-5.54-12.47-8.57-18.58a18.31,18.31,0,0,0-1-1.62,2,2,0,0,0-1.67-.68,9.48,9.48,0,0,0-2.37.92l-26.73,13.73q-39.81,20.48-79.61,41c-3.6,1.86-7.21,3.69-10.64,5.86-1.8,1.14-3.57,2.32-5.33,3.53a22.79,22.79,0,0,0-3.83,3.38,20.1,20.1,0,0,0-5.51,13.93,19.25,19.25,0,0,0,.93,6.3c.67,2,1.26,4.06,1.88,6.1a1.3,1.3,0,0,1-1.46,1.54,1.17,1.17,0,0,1-.59-.22,4.6,4.6,0,0,1-.79-1c-.72-1.3-1.43-2.62-2.11-4l-30.39-59.16c-.58-1.13-1.12-2.29-1.66-3.45a1.43,1.43,0,0,1,1.21-1.82,1.26,1.26,0,0,1,1.09.47c.9,1.19,1.73,2.43,2.65,3.61a42.76,42.76,0,0,0,2.85,3.45,19.61,19.61,0,0,0,10.42,5.87,23.64,23.64,0,0,0,2.51.48,15.38,15.38,0,0,0,3.18.06,36.28,36.28,0,0,0,8.07-1.89,115.79,115.79,0,0,0,12.25-5.48c5.71-2.89,11.38-5.84,17.07-8.76l89.26-45.95c1.71-.88,3.37-1.83,5.05-2.76a1.56,1.56,0,0,0,.59-1.67,18.21,18.21,0,0,0-.72-1.77c-3.33-6.2-6.77-12.34-10.56-18.27a90.54,90.54,0,0,0-7.07-9.88c-1.38-1.62-2.78-3.24-4.3-4.73a31.16,31.16,0,0,0-16.78-8.65A45,45,0,0,0,670.47,2782.46Z"/><path d="M2025.76,3684.68c-.13,5-.26,10.76-.43,16.52,0,1.27-.18,2.54-.27,3.81a1.61,1.61,0,0,1-1.3,1.18,1.91,1.91,0,0,1-1.49-1,21.62,21.62,0,0,1-.56-2.48,61.33,61.33,0,0,0-2.64-11.83,59.5,59.5,0,0,0-2.28-6,32.63,32.63,0,0,0-11.8-14,50.47,50.47,0,0,0-14.45-6.66,106.65,106.65,0,0,0-11.86-2.59c-6.09-1-12.26-1.56-18.39-2.33a19.57,19.57,0,0,0-2.54,0,1.72,1.72,0,0,0-1.33,1.19c-.57,3.57-1,7.17-1.24,10.79-.24,4-.5,8.08-1,12.1-.22,1.69-.25,3.4-.39,5.1q-.37,4.47-.77,8.92c-.1,1.06-.24,2.12-.3,3.19-.28,4.89-.77,9.77-1.19,14.66-.47,5.3-.85,10.62-1.35,15.93-.42,4.45-.66,8.92-1.1,13.38-.72,7.21-1.19,14.44-1.76,21.67-.1,1.27-.11,2.56-.28,3.83-.89,6.55-1,13.17-1.64,19.75a50.3,50.3,0,0,0,.51,14,20.15,20.15,0,0,0,11.58,15.11,20.5,20.5,0,0,0,4.21,1.51c1.85.44,3.69,1,5.51,1.53.41.13.5.65.51,1s-.16.86-.6,1a3.81,3.81,0,0,1-1.22.26q-6.06-.35-12.12-.78c-1.49-.11-3-.37-4.45-.46-4.89-.3-9.77-.74-14.65-1.21-5.09-.48-10.2-.79-15.29-1.28-7.64-.73-15.3-1.2-23-1.81-1.48-.12-3-.33-4.43-.56a3,3,0,0,1-1.13-.55,1,1,0,0,1-.42-1.07,1,1,0,0,1,.77-.94,6.59,6.59,0,0,1,1.22-.3c1.7-.11,3.41-.13,5.11-.26a21.23,21.23,0,0,0,7.94-2.25c5.69-2.84,9.14-7.52,10.88-13.53a35.22,35.22,0,0,0,1.26-5.61c.53-4.23,1.31-8.43,1.51-12.7.17-3.4.43-6.8.87-10.19.22-1.69.31-3.4.41-5.1.2-3.41.43-6.81.87-10.19.21-1.69.31-3.4.41-5.1.2-3.41.44-6.81.86-10.2.24-1.9.3-3.82.46-5.74q.38-4.45.77-8.91c.1-1.07.24-2.12.3-3.19.28-4.89.74-9.77,1.2-14.66.48-5.09.8-10.2,1.27-15.29.49-5.31.88-10.62,1.34-15.93.43-4.88.66-9.78,1.25-14.66.13-1.05.1-2.12.13-3.19a2.33,2.33,0,0,0-1.46-1.87c-.85-.11-1.69-.26-2.54-.3q-7.66-.35-15.33-.63a129,129,0,0,0-17.24.74,40.09,40.09,0,0,0-9.32,2.12,31.26,31.26,0,0,0-10.86,6.58,39,39,0,0,0-7.2,8.93,63.49,63.49,0,0,0-5.17,11c-.72,2-1.49,4-2.24,6a1.45,1.45,0,0,1-1.48.91.84.84,0,0,1-1-.62,4.14,4.14,0,0,1-.25-1.23,28.78,28.78,0,0,1,.3-3.82c.54-3.15.87-6.33,1.27-9.5.62-4.86,1.48-9.7,2-14.57.51-4.45,1.24-8.86,1.84-13.29a2.09,2.09,0,0,1,1.81-1.53c.42,0,.85-.08,1.27-.05,2.34.14,4.69.2,7,.49,3.6.44,7.22.63,10.83.92,7.44.6,14.86,1.29,22.29,1.94,1.28.11,2.55.26,3.82.33,4.26.26,8.51.51,12.75,1.07,1.47.2,3,.25,4.46.34,3.19.18,6.38.38,9.55.81,1.48.2,3,.29,4.46.38,3.83.24,7.66.44,11.47,1,1,.14,2.12.2,3.18.26,4.26.25,8.51.52,12.74,1.08,1.48.19,3,.21,4.47.33l9.55.83c1.49.13,3,.27,4.46.37,3.83.23,7.66.43,11.47,1,1.26.17,2.54.24,3.82.31,4,.21,8.08.57,12.1,1,3,.33,6,.39,8.93.63,1.27.11,2.53.35,3.79.55a2.32,2.32,0,0,1,1.62,1.75c0,.85.09,1.7.06,2.55q-.22,6.72-.49,13.42C2026,3680.53,2025.9,3682.23,2025.76,3684.68Z"/><path d="M946.93,3170.85a24.64,24.64,0,0,0-3.29-12.33c-.9-1.69-1.94-3.3-2.91-4.95a1.43,1.43,0,0,1,.66-1.61,1.2,1.2,0,0,1,1.18-.09,7.32,7.32,0,0,1,1.92,1.67q5.25,5.61,10.49,11.21,18.59,19.85,37.17,39.69c1,1.09,2,2.24,2.92,3.38a1.25,1.25,0,0,1-.72,2,1.39,1.39,0,0,1-1.21-.21c-1-.78-2-1.58-3-2.35s-2-1.56-3.1-2.26a21,21,0,0,0-21.86-.52,45.85,45.85,0,0,0-6.81,4.75c-2.93,2.48-5.83,5-8.64,7.61-7.65,7.11-15.25,14.28-22.88,21.42q-27.3,25.61-54.61,51.18-3.74,3.51-7.58,6.89a96.07,96.07,0,0,1-9.59,7.45,43.75,43.75,0,0,1-6.65,3.8,33.56,33.56,0,0,1-15.53,3.12,39.07,39.07,0,0,1-9.39-1.79,66.8,66.8,0,0,1-34.68-26,53,53,0,0,1-4.07-7.24,27,27,0,0,1-2.17-7.33,16.46,16.46,0,0,1,.54-6.95,3.11,3.11,0,0,1,.2-.61,12.74,12.74,0,0,1,5.44-6.09,9,9,0,0,1,10.22.67,11.92,11.92,0,0,1,4,4.91,5.78,5.78,0,0,1,.39,1.22,12.24,12.24,0,0,1-.38,6.94c-.91,2.38-2,4.7-3.06,7a40.94,40.94,0,0,0-2.29,6,10.19,10.19,0,0,0,1.25,8.59,15.79,15.79,0,0,0,6.07,5.54,13.41,13.41,0,0,0,4.87,1.46,22.68,22.68,0,0,0,10.66-1.44,31.23,31.23,0,0,0,6.25-3.2c2.47-1.67,4.94-3.37,7.28-5.21,3.18-2.51,6.28-5.11,9.33-7.78,3.37-2.94,6.68-6,10-9q39-36.51,77.94-73.06c2.18-2.05,4.28-4.16,6.34-6.33,1.32-1.38,2.5-2.9,3.72-4.39.54-.65,1-1.35,1.53-2C945.62,3180.37,947.35,3175.87,946.93,3170.85Z"/><path d="M3340.06,3082a49.93,49.93,0,0,1,3.88-19.29,57.77,57.77,0,0,1,9.5-15.07,35.17,35.17,0,0,1,12.71-9.46c1.95-.85,3.93-1.63,5.91-2.42,1.18-.47,2.38-.92,3.57-1.37a1.07,1.07,0,0,0,.33-1.54,11.83,11.83,0,0,0-2.46-2l-22-15.37q-5.77-4-11.55-8a49.78,49.78,0,0,0-8.9-5,24.51,24.51,0,0,0-5.51-1.6,13.81,13.81,0,0,0-11.87,3.32c-1.45,1.24-2.74,2.67-4.11,4a1.06,1.06,0,0,1-1.2.2,1.64,1.64,0,0,1-1-1.45,4.2,4.2,0,0,1,.07-.62,8.1,8.1,0,0,1,.45-1.19q7.56-14.43,15.14-28.86a10.17,10.17,0,0,1,.72-1,1.41,1.41,0,0,1,1.66-.48c1.6,1.05,3.22,2.07,4.79,3.17q34.86,24.3,69.71,48.63,19.38,13.53,38.78,27.06c2.27,1.58,4.57,3.13,6.93,4.58a37.25,37.25,0,0,0,8.08,3.79,17.53,17.53,0,0,0,8.83.53,7.85,7.85,0,0,0,1.81-.6,15.53,15.53,0,0,0,4.79-3.12c1.07-1,2.08-2.13,3.13-3.19a1.56,1.56,0,0,1,2.54.63,1.09,1.09,0,0,1,.1.63,10.07,10.07,0,0,1-.63,1.77q-6.68,13.45-13.39,26.88a15.41,15.41,0,0,1-1.41,2.1.92.92,0,0,1-1.15.33,26.91,26.91,0,0,1-2.93-1.21c-1.7-.9-3.34-1.9-5-2.84-1.38-.79-2.16-.52-2.35.82-.33,2.32-.71,4.63-.93,7a45,45,0,0,1-2,9.36,56.29,56.29,0,0,1-15.49,24.59,46.57,46.57,0,0,1-40.22,11.61,56.83,56.83,0,0,1-15.66-5.32,65.72,65.72,0,0,1-22.1-18,54.14,54.14,0,0,1-10.14-20.46A60.13,60.13,0,0,1,3340.06,3082Zm101.9,13.21a23.58,23.58,0,0,0-2.95-11.93c-.58-1.14-1.28-2.21-2-3.29a40.87,40.87,0,0,0-5.26-6.41,80.7,80.7,0,0,0-7.62-6.81,267.33,267.33,0,0,0-26.71-18.62c-1.64-1-3.3-2-5-2.85s-3.44-1.7-5.19-2.48a36.08,36.08,0,0,0-11.11-2.74,11.08,11.08,0,0,0-1.91,0,25.91,25.91,0,0,0-12.56,4.27c-7.68,5.18-11.23,12.53-11.44,21.65a10.87,10.87,0,0,0,.06,1.28,44.51,44.51,0,0,0,3.82,14.77,61.05,61.05,0,0,0,7.27,12,70.52,70.52,0,0,0,49,27,36.19,36.19,0,0,0,15.09-1.93A25,25,0,0,0,3442,3095.22Z"/><path d="M725.71,2992.07a35.39,35.39,0,0,0-11.31,2.11,73.54,73.54,0,0,0-11.73,5q-4.81,2.52-9.38,5.48-12.33,8-24.66,16c-1.6,1-3.18,2.14-4.72,3.28-1.2.89-2.35,1.84-3.47,2.83a13.18,13.18,0,0,0-4.47,12,40.58,40.58,0,0,0,1.64,6.82,3.74,3.74,0,0,1,.07,1.88,1.33,1.33,0,0,1-1.5.7c-.19-.11-.43-.17-.55-.32a25.1,25.1,0,0,1-1.52-2q-12.63-19.6-25.24-39.25a13.2,13.2,0,0,1-1.16-2.24,1.13,1.13,0,0,1,.41-1.16,1,1,0,0,1,1.12-.27,6.49,6.49,0,0,1,1.51,1.15,44.72,44.72,0,0,0,4.69,4.33,11.75,11.75,0,0,0,8.43,2.26,18.51,18.51,0,0,0,6.75-1.85c2.09-1.05,4.21-2.06,6.23-3.23q5-2.9,9.82-6,41.4-26.62,82.75-53.31,5.1-3.3,10.07-6.8a54.37,54.37,0,0,0,5-4,17.54,17.54,0,0,0,5.06-8,10.75,10.75,0,0,0,.05-6.28c-.52-1.84-1.49-3.52-1.86-5.41a1.3,1.3,0,0,1,.94-1.42,1.21,1.21,0,0,1,1.2.21,13.27,13.27,0,0,1,1.38,1.32q9.64,11.52,19.27,23.05a5,5,0,0,1,.37.53c.66,1,.68,1.72-.65,2.65-.87.61-1.77,1.18-2.67,1.75l-11.27,7.29q-23.38,15-46.75,30.11c-1.61,1-3.21,2.1-4.82,3.15a2.42,2.42,0,0,0-1.09,1.45c-.13.54.29,1,1.27,1.07,1.91.25,3.77.7,5.64,1.1a32.7,32.7,0,0,1,9.46,3.75,42.59,42.59,0,0,1,11.29,9.32,59.64,59.64,0,0,1,9.88,16.34,37,37,0,0,1,2.14,7.35,27.4,27.4,0,0,1-.59,13.89,20.83,20.83,0,0,1-3.66,6.68,35.66,35.66,0,0,1-4.53,4.5,81.06,81.06,0,0,1-8.78,6.4q-8.32,5.36-16.65,10.73c-7.15,4.64-14.3,9.27-21.43,14-2.13,1.4-4.21,2.9-6.25,4.44a25.4,25.4,0,0,0-3.31,3,12.37,12.37,0,0,0-3.43,8.71,18.8,18.8,0,0,0,.68,5,50.57,50.57,0,0,1,1.53,5.51,1,1,0,0,1-.61,1,1.13,1.13,0,0,1-1.18.09,1.57,1.57,0,0,1-.51-.36c-.65-.85-1.31-1.68-1.89-2.57q-12.29-19.08-24.55-38.18a21.47,21.47,0,0,1-1.51-2.79,1.13,1.13,0,0,1,.39-1.14,1,1,0,0,1,1.15-.29,6.86,6.86,0,0,1,1.52,1.12c1.4,1.3,2.67,2.78,4.18,3.94a12.24,12.24,0,0,0,10.23,2.44,27.48,27.48,0,0,0,7.22-2.5c1.7-.89,3.41-1.77,5.06-2.74q3.57-2.11,7.07-4.36,15.6-10,31.17-20.07,3.23-2.09,6.34-4.31a39.57,39.57,0,0,0,5.79-5,23.15,23.15,0,0,0,3.74-5.15,19.94,19.94,0,0,0,2.18-11.75,22,22,0,0,0-2.15-7.32,31.63,31.63,0,0,0-7.2-9.7,23.92,23.92,0,0,0-10.67-5.52A28.77,28.77,0,0,0,725.71,2992.07Z"/><path d="M3149,3213.59a19,19,0,0,0-12.06,3.64c-1.93,1.33-3.76,2.8-5.64,4.19a1.3,1.3,0,0,1-1.22.15,1.38,1.38,0,0,1-.64-2.07c.56-.65,1.09-1.32,1.68-1.93l48.62-50.88a11.14,11.14,0,0,1,2.37-2.12,1,1,0,0,1,1.18,0c.57.4.89,1.24.65,1.63-.34.54-.66,1.09-1,1.62-.85,1.23-1.73,2.43-2.57,3.66a21.43,21.43,0,0,0-3.29,15.88,16.31,16.31,0,0,0,.68,2.46,24.2,24.2,0,0,0,4,7.26c1.05,1.35,2.13,2.68,3.3,3.91,2.8,2.93,5.59,5.87,8.52,8.67q31.39,30.1,62.87,60.15c2.16,2.06,4.31,4.13,6.56,6.1,2.08,1.82,4.23,3.59,6.45,5.24a43.62,43.62,0,0,0,4.86,3.06,19,19,0,0,0,12.35,2.24,19.48,19.48,0,0,0,6-2,33.11,33.11,0,0,0,4.88-3c1.2-.89,2.37-1.81,3.55-2.72a1.34,1.34,0,0,1,1.74.19,1.23,1.23,0,0,1,.18,1.69c-.54.65-1.07,1.32-1.65,1.94l-49.08,51.33a5.28,5.28,0,0,1-2,1.6,2.73,2.73,0,0,1-1.21.07c-.42-.06-.76-1.27-.53-1.69s.37-.76.61-1.11c.85-1.22,1.75-2.41,2.59-3.65a22.11,22.11,0,0,0,2.39-4.51,21,21,0,0,0,1.39-10.65,21.5,21.5,0,0,0-3.75-9.41,54.63,54.63,0,0,0-5.73-6.87c-2.69-2.74-5.4-5.46-8.17-8.12q-27.26-26.1-54.55-52.18c-3.24-3.1-6.45-6.22-9.72-9.28-2.33-2.18-4.72-4.32-7.14-6.41-1.45-1.25-3-2.4-4.53-3.54a24.64,24.64,0,0,0-2.68-1.75A18.65,18.65,0,0,0,3149,3213.59Z"/><path d="M3067.56,3376.57a41.72,41.72,0,0,1,3-15.32q7.27-17,25-22a38.24,38.24,0,0,1,6.87-1.49c1.75-.16,2.56-1.21,2.91-2.86.31-1.46.79-2.88,1.24-4.3.33-1,.72-2,1.13-3a25.4,25.4,0,0,1,9.69-11.6,24.24,24.24,0,0,1,2.22-1.25,12.37,12.37,0,0,1,6.19-1.28,9.16,9.16,0,0,1,6.28,2.74,6.93,6.93,0,0,1,2.08,4.56,5.5,5.5,0,0,1-1.86,4.58,7.52,7.52,0,0,1-4.59,2,12.52,12.52,0,0,1-3.81-.25c-1.46-.31-2.91-.66-4.39-.89-3.79-.57-6.62,1-8.75,4.05a13.22,13.22,0,0,0-2.16,5.95,1.64,1.64,0,0,0,.88,1.54c1.21.41,2.4.87,3.64,1.18a40.67,40.67,0,0,1,7.19,2.62,33,33,0,0,1,16.24,15.67,27,27,0,0,1,2.56,14.3,40.56,40.56,0,0,1-5.37,16.92,34,34,0,0,1-5.74,7.64c-2.74,2.7-5.48,5.38-8.19,8.1-1.65,1.67-3.28,3.36-4.84,5.1a25.31,25.31,0,0,0-3.58,5.28,10.54,10.54,0,0,0-1.21,5.55,6.62,6.62,0,0,0,1.6,4.09,6,6,0,0,0,5.09,2.18,10.65,10.65,0,0,0,4.31-1.06,31.28,31.28,0,0,0,6.4-4.2c2.29-1.91,4.56-3.85,6.83-5.78,3.25-2.77,6.46-5.57,9.74-8.3,2.13-1.77,4.32-3.47,6.54-5.13a56.07,56.07,0,0,1,7.61-4.71,39,39,0,0,1,12.09-4,25.23,25.23,0,0,1,19.42,4.47,32.46,32.46,0,0,1,11.81,15.55,27.47,27.47,0,0,1,1.5,11.94,38.14,38.14,0,0,1-4.89,15.1,46.92,46.92,0,0,1-4.2,6.42c-1.59,2-3.17,4-4.9,5.9a111,111,0,0,1-19.87,17,67,67,0,0,1-8.89,5,42.67,42.67,0,0,1-11,3.45,24.09,24.09,0,0,1-26.69-15.12,12.64,12.64,0,0,1-.85-3.72c-.08-1.49-.14-3-.09-4.47a15.58,15.58,0,0,1,4.4-10.36,18.38,18.38,0,0,1,2.35-2.15,12,12,0,0,1,11.48-2,9.43,9.43,0,0,1,5,3.76,1.33,1.33,0,0,1,.19,1.21c-.22.75-.73,1.22-1.31,1.15l-3.17-.35a8.92,8.92,0,0,0-7.08,2.25,11,11,0,0,0-3.21,12.18,18.06,18.06,0,0,0,10.13,10.91,10.18,10.18,0,0,0,1.8.64,26.82,26.82,0,0,0,8.89.55,37,37,0,0,0,12.19-3.61,49.85,49.85,0,0,0,4.48-2.46,65.35,65.35,0,0,0,14.12-11.94,48.6,48.6,0,0,0,5.62-7.75,35.09,35.09,0,0,0,4.28-12,20.47,20.47,0,0,0-2.15-13,21.64,21.64,0,0,0-5.13-6.48,15.45,15.45,0,0,0-11.84-3.78,22.91,22.91,0,0,0-8.55,2.45,43.34,43.34,0,0,0-8,5.26c-2.46,2-4.89,4.12-7.32,6.2-2.93,2.48-5.85,5-8.76,7.47a50.12,50.12,0,0,1-5.14,3.8,29.08,29.08,0,0,1-10.61,4.26,20,20,0,0,1-11.92-1.21,15.93,15.93,0,0,1-8.64-9,14.74,14.74,0,0,1-.53-9.41,21,21,0,0,1,2.09-5.34c1.39-2.4,2.83-4.77,4.23-7.16a4.14,4.14,0,0,0,.35-1.18c.13-.55-.1-.84-.66-.86a9,9,0,0,0-1.26-.08c-1.27.11-2.55.21-3.81.43a34.22,34.22,0,0,1-12.72-.46,28.65,28.65,0,0,1-15-8,30.32,30.32,0,0,1-7.94-13.67A40.23,40.23,0,0,1,3067.56,3376.57Zm61.15,7.91a26.28,26.28,0,0,0-1.33-7.76,43.17,43.17,0,0,0-4.55-9.12,69.8,69.8,0,0,0-9.26-11.38,49.48,49.48,0,0,0-5.32-4.59,36,36,0,0,0-9.52-5.12,20.5,20.5,0,0,0-7.52-1.18,12.41,12.41,0,0,0-7.1,2.53c-4.51,3.29-6.42,7.85-6.27,13.29a27.54,27.54,0,0,0,1.47,8.14A52,52,0,0,0,3096,3393a38.68,38.68,0,0,0,3.66,2.56,26.11,26.11,0,0,0,11.95,4.16,15.55,15.55,0,0,0,10.33-2.54,16.36,16.36,0,0,0,4.12-4,12.69,12.69,0,0,0,2.53-6.46C3128.61,3385.94,3128.66,3385.09,3128.71,3384.48Z"/><path d="M1258.54,3504.58a48.23,48.23,0,0,1,12.08.33,52.86,52.86,0,0,1,23.81,10.29,42.75,42.75,0,0,1,6.15,5.57,32,32,0,0,1,6.16,9.65,23.58,23.58,0,0,1,1.93,10,27,27,0,0,1-1.82,8.07,43.49,43.49,0,0,1-3.49,6.83q-7.26,12.42-14.56,24.82-5.17,8.83-10.34,17.66a83.6,83.6,0,0,0-4.44,8.5,21.92,21.92,0,0,0-1.33,4.26,12.55,12.55,0,0,0,.07,5.07,12.77,12.77,0,0,0,2,4.68,30.49,30.49,0,0,0,4.14,4.86,5.39,5.39,0,0,1,1.59,2,1.86,1.86,0,0,1,0,1.21,1,1,0,0,1-1,.59,1.58,1.58,0,0,1-.62-.09c-.76-.36-1.54-.73-2.27-1.16q-19.86-11.64-39.71-23.29c-.91-.54-1.77-1.18-2.63-1.8a.86.86,0,0,1-.27-1.13,1.32,1.32,0,0,1,1.47-.9l3,.91c1,.31,2,.69,3,.93a12.35,12.35,0,0,0,9.84-1.45,17.29,17.29,0,0,0,4.36-3.72c1.46-1.83,2.94-3.66,4.24-5.6,1.9-2.83,3.71-5.73,5.45-8.66q8.3-14,16.5-28.14c1.92-3.31,3.65-6.74,5.46-10.13a46.62,46.62,0,0,0,2.78-6.45,21.44,21.44,0,0,0,1-11.33,14.88,14.88,0,0,0-.92-3,22.16,22.16,0,0,0-2.92-4.94,30,30,0,0,0-17-10.64,27.55,27.55,0,0,0-11.44-.19,16.23,16.23,0,0,0-2.45.69,25.51,25.51,0,0,0-11.43,7.9,67.48,67.48,0,0,0-4.19,5.64c-1.9,2.84-3.75,5.7-5.48,8.65q-9.37,16-18.65,32.05a67.27,67.27,0,0,0-4.3,8.57,14.47,14.47,0,0,0-.9,3.71,13.15,13.15,0,0,0,2.48,9.66,41.87,41.87,0,0,0,4.24,4.78,3.3,3.3,0,0,1,1.11,1.53,2.52,2.52,0,0,1-.07,1.22.83.83,0,0,1-1,.56,3.11,3.11,0,0,1-.62-.14,15.13,15.13,0,0,1-1.72-.83q-20.41-12-40.82-23.94c-.72-.43-1.38-1-2.06-1.48a.72.72,0,0,1-.19-1.13,4.56,4.56,0,0,1,.87-.83.8.8,0,0,1,.63,0c1.62.48,3.24,1,4.87,1.5.61.18,1.22.4,1.84.52a12,12,0,0,0,8.08-1,18.88,18.88,0,0,0,4.61-3.41,34.22,34.22,0,0,0,4-5c2.1-3.21,4.25-6.4,6.2-9.7,6.62-11.19,13.16-22.43,19.73-33.65,1.93-3.31,3.78-6.68,5.43-10.14a23.62,23.62,0,0,0,2.06-6,18.67,18.67,0,0,0-.09-7,11.38,11.38,0,0,0-2.55-5.08c-1.23-1.48-2.94-2.46-4.06-4a1.7,1.7,0,0,1-.17-1.2,1.09,1.09,0,0,1,.94-.71,1.67,1.67,0,0,1,.63,0,5.26,5.26,0,0,1,1.24.32l26.48,11.21c.39.17.74.42,1.11.61a2.48,2.48,0,0,1,.69,1.72,18.57,18.57,0,0,1-.66,2.46c-1.12,2.76-2.31,5.49-3.47,8.23-.22.51.43,1.29,1,1.24s1.28-.06,1.91-.15C1255.36,3505.12,1256.62,3504.89,1258.54,3504.58Z"/><path d="M2984.9,3441.14a25.37,25.37,0,0,0,2.71,11.74,52.5,52.5,0,0,0,3.11,5.58c2.08,3.21,4.2,6.42,6.46,9.51q10.74,14.72,21.61,29.34c1.26,1.71,2.58,3.4,4,5a32.42,32.42,0,0,0,3.56,3.66,12.8,12.8,0,0,0,11.94,2.85c2.26-.57,4.44-1.46,6.67-2.17a2.32,2.32,0,0,1,1.25-.07,1.61,1.61,0,0,1,1,.63,1.1,1.1,0,0,1-.16,1.19,9.33,9.33,0,0,1-2.39,2.08q-11.32,8.33-22.68,16.62c-5.16,3.78-10.3,7.57-15.47,11.34a3.15,3.15,0,0,1-1.69.76,1.24,1.24,0,0,1-1.11-.54,1,1,0,0,1-.09-1.16,15.57,15.57,0,0,1,1.14-1.53c1.21-1.49,2.49-2.92,3.63-4.45a11.64,11.64,0,0,0,1.8-10.33,18.63,18.63,0,0,0-1.84-4.76c-1.07-1.84-2-3.75-3.21-5.52-2-3-4-6-6.16-9q-10.55-14.47-21.16-28.88-3-4.11-6.25-8.09a62,62,0,0,0-4.3-4.72,17.09,17.09,0,0,0-6.48-4,11.86,11.86,0,0,0-8.73,0c-1.38.57-2.72,1.22-4.11,1.76a2.87,2.87,0,0,1-1.24,0c-.5,0-1-1.12-.74-1.51a4.27,4.27,0,0,1,.31-.56c.73-.78,1.44-1.57,2.21-2.31q9.22-8.85,18.48-17.67c.61-.59,1.28-1.11,1.94-1.65a1.57,1.57,0,0,1,1.78,0c.66.53,1.34,1,2,1.61a83.84,83.84,0,0,1,6.09,6.55,1.08,1.08,0,0,0,1.59-.26,10.08,10.08,0,0,0,.66-1.78,42.42,42.42,0,0,1,2.18-7.34,47.82,47.82,0,0,1,11.52-17.47,57.19,57.19,0,0,1,13.47-9.63,37.84,37.84,0,0,1,12.1-3.93c8.33-1.19,15.6,1,21.6,7.07a43.58,43.58,0,0,1,4.06,4.93l13.6,18.57q7.55,10.3,15.11,20.62c1.52,2.06,3.08,4.08,4.66,6.09a30.61,30.61,0,0,0,4.4,4.63,12.22,12.22,0,0,0,8.18,3.1,16.74,16.74,0,0,0,5.66-.86c1.59-.59,3.19-1.18,4.8-1.72a3,3,0,0,1,1.26-.07,1.12,1.12,0,0,1,.91.73,1.08,1.08,0,0,1-.22,1.2c-.95.84-1.9,1.7-2.92,2.45q-17.78,13.05-35.57,26.07c-1,.75-2.1,1.45-3.17,2.15a1.31,1.31,0,0,1-.6.11.93.93,0,0,1-1-.57,1.72,1.72,0,0,1-.09-1.17A7.15,7.15,0,0,1,3062,3494c1.09-1.31,2.22-2.59,3.3-3.9a12.56,12.56,0,0,0,2.36-5.2,8.72,8.72,0,0,0,.17-3.18,20.47,20.47,0,0,0-2.27-7.28c-1.14-2-2.29-4.09-3.58-6q-3.18-4.8-6.55-9.46-8.26-11.38-16.62-22.69c-2.78-3.78-5.62-7.51-8.65-11.09a47.76,47.76,0,0,0-5.33-5.5,20.8,20.8,0,0,0-7.73-4.38,19.38,19.38,0,0,0-3.12-.63,21.57,21.57,0,0,0-11.19,2,30.91,30.91,0,0,0-14.51,13,25.77,25.77,0,0,0-2.8,7.11A38,38,0,0,0,2984.9,3441.14Z"/><path d="M3272.55,3170.42a24.36,24.36,0,0,0,3.91,14,29.46,29.46,0,0,0,4,5c1.66,1.66,3.32,3.31,5.06,4.89,2.21,2,4.46,4,6.76,5.88q13.78,11.42,27.64,22.78c1.65,1.35,3.34,2.65,5.09,3.87a29.82,29.82,0,0,0,4.39,2.6,13.16,13.16,0,0,0,10.56.21,20.64,20.64,0,0,0,3.39-1.77c1.27-.77,2.46-1.68,3.72-2.49a4.58,4.58,0,0,1,1.18-.41.93.93,0,0,1,1.13.4,1.22,1.22,0,0,1,.21,1.16,3.67,3.67,0,0,1-.6,1.12c-1.19,1.5-2.41,3-3.63,4.46l-26.15,31.5c-.82,1-1.7,1.91-2.56,2.85a1.12,1.12,0,0,1-1.65,0,1,1,0,0,1-.44-1.14c.38-1,.85-1.93,1.31-2.88.55-1.15,1.13-2.29,1.66-3.45,1.84-4,1.16-7.89-.9-11.63a17.75,17.75,0,0,0-2.62-3.63c-1.6-1.7-3.21-3.42-4.93-5q-3.75-3.47-7.69-6.75-13.5-11.28-27.06-22.47c-3.29-2.71-6.69-5.29-10.09-7.87a26.58,26.58,0,0,0-6.67-3.72,16.31,16.31,0,0,0-8.18-.8,9.88,9.88,0,0,0-4.11,1.7c-1.41,1-2.7,2.06-4.06,3.09a1.6,1.6,0,0,1-1.77,0,.78.78,0,0,1-.51-1,5.25,5.25,0,0,1,.42-1.19q8-12.74,16-25.45a2,2,0,0,1,2.75-.7c.57.29,1.17.52,1.71.86,1.81,1.12,3.6,2.28,5.4,3.42l2.15,1.37c.54.34,1.47,0,1.5-.59.06-1.48.15-3,.17-4.46a47.53,47.53,0,0,1,8.69-27,53.54,53.54,0,0,1,11.33-12.09,34.45,34.45,0,0,1,9.43-5.32,28.45,28.45,0,0,1,8.71-1.88,23.57,23.57,0,0,1,9.94,2,27,27,0,0,1,6,3.57c1.52,1.18,3,2.4,4.47,3.63l36.42,30.23a80.09,80.09,0,0,0,8.19,6.13,17.84,17.84,0,0,0,5.88,2.42,9.61,9.61,0,0,0,4.43-.07,17.82,17.82,0,0,0,5.32-2.13c1.44-.9,2.84-1.89,4.26-2.83.35-.23.74-.41,1.11-.62s1.6.1,1.67.54a2.21,2.21,0,0,1,0,1.2,7.16,7.16,0,0,1-1,1.6q-15.32,18.47-30.65,36.91a6.29,6.29,0,0,1-1.39,1.29,1.77,1.77,0,0,1-1.2.18c-.37-.08-.57-.52-.64-1a1.22,1.22,0,0,1,0-.63c.33-.78.71-1.54,1.07-2.31.63-1.35,1.29-2.69,1.88-4.06a11.6,11.6,0,0,0-.08-9.31,16.63,16.63,0,0,0-3-4.89c-1.56-1.75-3.14-3.49-4.84-5.1q-3.48-3.29-7.17-6.37-12.75-10.66-25.59-21.24c-2.8-2.31-5.67-4.52-8.59-6.67-1.89-1.39-3.89-2.62-5.88-3.85a23.87,23.87,0,0,0-7.11-2.8,14.93,14.93,0,0,0-7,0,24.45,24.45,0,0,0-10.68,5.51,31.6,31.6,0,0,0-9.58,14.86A25.19,25.19,0,0,0,3272.55,3170.42Z"/><path d="M2264.56,3740.75a92.8,92.8,0,0,0,.83,9.29c.74,4.85,1.29,9.72,2,14.57.61,4.43,1.29,8.86,1.95,13.28.53,3.58,1.19,7.15,1.6,10.75.32,2.76,1,5.45,1.52,8.16a23.35,23.35,0,0,0,.94,3c1.7,4.86,5.25,7.64,10.14,8.8,2.07.49,4.19.74,6.28,1.15a3.26,3.26,0,0,1,1.09.57c.16.11.38.35.35.49a2.19,2.19,0,0,1-.46,1.1,2.11,2.11,0,0,1-1.15.47c-7,1-13.91,2.05-20.88,3-7.39,1-14.75,2.17-22.13,3.2-2.32.33-4.66.45-7,.65-.62.06-1.35-.65-1.17-1.13a2.55,2.55,0,0,1,.61-1,3.64,3.64,0,0,1,1.14-.54c1.2-.45,2.41-.87,3.59-1.35.79-.32,1.54-.71,2.3-1.1a11.24,11.24,0,0,0,5.61-6.69,19.43,19.43,0,0,0,1.22-6.89,48.18,48.18,0,0,0-.21-5.11c-.66-4.86-.88-9.76-1.74-14.6-.77-4.4-1.18-8.87-1.8-13.3s-1.36-8.84-2-13.28c-.48-3.59-1-7.16-1.55-10.75-.38-2.75-1-5.45-1.55-8.16a32,32,0,0,0-1.46-4.89,16.61,16.61,0,0,0-2.16-3.91,13.63,13.63,0,0,0-10.2-5.84,16.71,16.71,0,0,1-3.8-.35,1.13,1.13,0,0,1-.25-2,20,20,0,0,1,2.94-1.17q12.3-3.46,24.62-6.86a7.77,7.77,0,0,1,3.13-.5,1.6,1.6,0,0,1,1.07.56,15.73,15.73,0,0,1,1.31,2.9,72.25,72.25,0,0,1,2,8,1,1,0,0,0,.88.83,1.27,1.27,0,0,0,1.13-.35c.46-.45.89-.92,1.33-1.38.74-.77,1.47-1.55,2.23-2.3a49.26,49.26,0,0,1,25-13.31,56.33,56.33,0,0,1,17.17-.86,31.17,31.17,0,0,1,13.76,4.79,22.67,22.67,0,0,1,8.37,9.44,27.1,27.1,0,0,1,2.47,7.9c.94,6.54,1.83,13.08,2.76,19.62.63,4.43,1.3,8.85,1.95,13.28.52,3.59.91,7.19,1.51,10.76.64,3.78,1,7.61,1.6,11.39.37,2.32.89,4.61,1.44,6.88a18,18,0,0,0,1.07,3,12.78,12.78,0,0,0,8.38,7.33,41.65,41.65,0,0,0,7.52,1.46,3.5,3.5,0,0,1,1.16.47.85.85,0,0,1,.39,1.08,1.21,1.21,0,0,1-.28.49,1.16,1.16,0,0,1-.51.38c-1.87.38-3.75.81-5.64,1.08-4.22.61-8.45,1.12-12.67,1.71-4.43.62-8.85,1.3-13.28,1.92-4.85.68-9.7,1.36-14.57,2-1.68.2-3.32.8-5.05.56a1,1,0,0,1-.88-.78.89.89,0,0,1,.28-1.13,8.35,8.35,0,0,1,1.63-1c1.58-.65,3.21-1.17,4.77-1.85a12.11,12.11,0,0,0,7.06-8.54,24.16,24.16,0,0,0,.78-8.24c-.4-4.46-.76-8.92-1.35-13.36-.94-7.18-2.07-14.34-3.1-21.51-.57-4-1-8-1.65-12-.68-4.42-1.47-8.83-2.54-13.17a32.31,32.31,0,0,0-2.64-7.19,18.34,18.34,0,0,0-10.91-9.27,28.19,28.19,0,0,0-15.13-.54,29.48,29.48,0,0,0-11.05,4.82c-6.31,4.51-9.54,10.75-10.16,18.38C2264.43,3736,2264.56,3737.94,2264.56,3740.75Z"/><path d="M1110.47,3405.64a11.5,11.5,0,0,0-.84-4.36,22.35,22.35,0,0,0-2.44-4.48c-1-1.4-2-2.77-3-4.16a1.6,1.6,0,0,1,.36-1.74,1,1,0,0,1,1.14-.23,7.58,7.58,0,0,1,1.64,1q12.06,9.49,24.09,19c.32.26.57.62.87.92a1.64,1.64,0,0,1,.1,1.77c-.76,1-1.5,2.06-2.29,3.06q-18.4,23.37-36.8,46.73c-2.77,3.51-5.48,7.08-8.15,10.67-1.27,1.71-2.43,3.51-3.55,5.32a26.24,26.24,0,0,0-2.17,4.61,14.79,14.79,0,0,0-.71,7.56,11.4,11.4,0,0,0,2.28,5.22c1,1.36,2.14,2.64,3.19,4a1,1,0,0,1-.08,1.16,1.29,1.29,0,0,1-1,.66,1.34,1.34,0,0,1-.6,0,8.15,8.15,0,0,1-1.16-.54q-12.39-7.31-24.77-14.62a12,12,0,0,1-1.5-1.18,1,1,0,0,1-.35-1.15,9.67,9.67,0,0,1,.71-1.76c1.18-2,2.42-4,3.63-6,.44-.73.87-1.46,1.3-2.2.26-.45-.16-1.46-.64-1.52a11,11,0,0,0-1.88-.22,56.86,56.86,0,0,1-12.08-1,40.8,40.8,0,0,1-9.77-2.95,52.92,52.92,0,0,1-18.53-13.35,35.91,35.91,0,0,1-6-9,26.26,26.26,0,0,1-2.25-15,25.19,25.19,0,0,1,3.27-8.95,45.76,45.76,0,0,1,4.07-5.73q7.53-9.54,15-19.09,8.28-10.56,16.51-21.18c1.56-2,3-4.14,4.43-6.26a18.52,18.52,0,0,0,2.37-5.22,11.21,11.21,0,0,0-.37-7.51,22.9,22.9,0,0,0-2.43-4.49c-1-1.4-2-2.78-2.93-4.17a1.56,1.56,0,0,1,.33-1.75.94.94,0,0,1,1.12-.26,8.14,8.14,0,0,1,1.64,1q12.06,9.49,24.09,19a9.45,9.45,0,0,1,.88.91,1.6,1.6,0,0,1,.16,1.76c-1.29,1.7-2.54,3.42-3.86,5.09q-15.22,19.35-30.48,38.67c-2.9,3.69-5.79,7.38-8.6,11.14-1.78,2.39-3.45,4.87-5.08,7.37a34.76,34.76,0,0,0-3.66,7.44,17.38,17.38,0,0,0,.19,12.48,22.49,22.49,0,0,0,4.75,7.52,30.46,30.46,0,0,0,15.83,9.09,28.59,28.59,0,0,0,4.41.74,23,23,0,0,0,10-1.89,24.55,24.55,0,0,0,7.52-4.76c1.57-1.44,3.09-2.95,4.51-4.53,2.14-2.37,4.26-4.78,6.24-7.29q12.28-15.55,24.47-31.19c1.44-1.85,2.74-3.8,4-5.75a17.82,17.82,0,0,0,2-4A11.44,11.44,0,0,0,1110.47,3405.64Z"/><path d="M1641.67,3663.69a59.85,59.85,0,0,1,26.19,5.52,54.1,54.1,0,0,1,19.91,15.62A61.53,61.53,0,0,1,1699.6,3708a46.32,46.32,0,0,1,1.21,19,57.76,57.76,0,0,1-3.72,13.5,48.17,48.17,0,0,1-12.62,17.45,59.1,59.1,0,0,1-24.5,13.22,53.57,53.57,0,0,1-22.79,1,70,70,0,0,1-17.09-5c-16.6-7.52-26.88-20.44-31.87-37.74a46.05,46.05,0,0,1-1.42-18.36c1.57-13,7.12-24,17.15-32.53a63.22,63.22,0,0,1,28.38-13.89A52.65,52.65,0,0,1,1641.67,3663.69Zm38.49,46.13c0-1.71-.08-3.41-.13-5.12a53.87,53.87,0,0,0-2.74-15,38.27,38.27,0,0,0-5.4-10.83,27.46,27.46,0,0,0-21.09-11.65,11.08,11.08,0,0,0-1.91,0,30.22,30.22,0,0,0-12.7,4,50.45,50.45,0,0,0-8.68,6.51,57.62,57.62,0,0,0-14.17,21,88.21,88.21,0,0,0-5.56,22.25,59.1,59.1,0,0,0,1.82,22.78,43,43,0,0,0,5.74,12.78,27.31,27.31,0,0,0,16.83,11.84,22.77,22.77,0,0,0,9.51.24,33,33,0,0,0,13.92-6.11,47.31,47.31,0,0,0,8.69-8.45,75.51,75.51,0,0,0,8-12.34A66.06,66.06,0,0,0,1680.16,3709.82Z"/><path d="M962.25,3283.43a80.36,80.36,0,0,1,13.51,1.6,55.87,55.87,0,0,1,19.1,8.59,60.17,60.17,0,0,1,13.73,13.25,55.52,55.52,0,0,1,10,22.56,64.33,64.33,0,0,1,.88,19.71,49.54,49.54,0,0,1-33.92,42.49,50.48,50.48,0,0,1-13.75,2.63c-2.77.07-5.54.15-8.3.08A51.5,51.5,0,0,1,938.7,3387,65.35,65.35,0,0,1,919,3369a52.89,52.89,0,0,1-8.72-18.35,50.93,50.93,0,0,1-1.84-12c0-2.12-.13-4.26,0-6.38,1.06-15.69,7.39-28.69,19.88-38.47a48.42,48.42,0,0,1,18.31-8.71C951.85,3283.83,957.15,3283.64,962.25,3283.43Zm-41.17,71.43a29.17,29.17,0,0,0,1.55,11c2.73,7.63,7.71,13.18,15.36,16.09a29.11,29.11,0,0,0,9.35,1.9,39.41,39.41,0,0,0,13.2-2,67.2,67.2,0,0,0,16.55-8.19,68.61,68.61,0,0,0,25.61-30.32,57.8,57.8,0,0,0,4.92-18.43,30.7,30.7,0,0,0-2.16-15c-4.67-10.91-14.11-17-26.39-16.38a51.08,51.08,0,0,0-22.48,6.61,63.77,63.77,0,0,0-11,7.7,82.16,82.16,0,0,0-14.35,16.23,61.57,61.57,0,0,0-6.77,13A49.9,49.9,0,0,0,921.08,3354.86Z"/><path d="M2582.1,3744.92c-14.65.29-30.73-6.94-40.32-16.77a50.82,50.82,0,0,1-13-22.44,47,47,0,0,1-.93-21.53,62.73,62.73,0,0,1,14-29,55.06,55.06,0,0,1,22.3-15.61,58.41,58.41,0,0,1,30.78-3.32,49.42,49.42,0,0,1,8.65,2.27,63.71,63.71,0,0,1,19.53,10.69,49.23,49.23,0,0,1,16.54,25.27,62.86,62.86,0,0,1,1.94,12.62,15.37,15.37,0,0,1,0,1.92,58.19,58.19,0,0,1-2.48,14.46,65.76,65.76,0,0,1-5.41,12.27,55,55,0,0,1-22.79,21.79,69,69,0,0,1-21.84,6.91C2586.8,3744.76,2584.43,3744.76,2582.1,3744.92Zm39.35-42.73a71.43,71.43,0,0,0-.87-10.37,61.86,61.86,0,0,0-2.27-10.61,69.91,69.91,0,0,0-15.86-27.42,50.91,50.91,0,0,0-7.11-6.41,38.56,38.56,0,0,0-10-5.54,24.86,24.86,0,0,0-16.29-.94,24.41,24.41,0,0,0-14.17,9.21,31.87,31.87,0,0,0-4.13,7.18,53,53,0,0,0-4.14,23.08,65.22,65.22,0,0,0,1.27,10.14,81.89,81.89,0,0,0,7.69,21.6,64.39,64.39,0,0,0,7.37,11.19,53.82,53.82,0,0,0,11.8,10.69,46.07,46.07,0,0,0,6.73,3.66,27.88,27.88,0,0,0,13.08,2.31,24.61,24.61,0,0,0,17.85-8.72,33,33,0,0,0,6.74-12.22A54.42,54.42,0,0,0,2621.45,3702.19Z"/><path d="M2464.24,3618.64a37.38,37.38,0,0,0,.68,7c1,5,2.29,10,3.58,14.9,2,7.63,4.07,15.23,6.15,22.83.33,1.23.82,2.41,1.26,3.62a1.94,1.94,0,0,0,1.65.72c4.32-1.14,8.62-2.34,13-3.41,2.48-.6,4.87-1.61,7.46-1.71a1.82,1.82,0,0,1,1.59.92,2.6,2.6,0,0,1,.21,2.41,1.11,1.11,0,0,1-.36.52,18.81,18.81,0,0,1-4.19,1.48q-7.41,2-14.81,4c-.62.17-1.21.4-1.81.61a2.14,2.14,0,0,0-1,2.13c.35,1.45.68,2.91,1.07,4.35q7.55,28.07,15.12,56.14c1.17,4.32,2.46,8.6,3.69,12.9a38.57,38.57,0,0,0,2.51,6.56,14.09,14.09,0,0,0,2.1,3.19,12.18,12.18,0,0,0,5.83,3.75,23.15,23.15,0,0,0,6.29,1c1.28,0,2.56.05,3.83.15a1.26,1.26,0,0,1,.93.72,1.53,1.53,0,0,1-.65,1.62c-.2.07-.4.16-.6.22-1.22.38-2.43.78-3.67,1.11q-21.27,5.74-42.56,11.45a7,7,0,0,1-3.14.32.86.86,0,0,1-.77-.84,1.6,1.6,0,0,1,0-.62,1,1,0,0,1,.37-.51c1.1-.64,2.23-1.22,3.33-1.86s2.24-1.24,3.28-2a11.67,11.67,0,0,0,5.06-8.53,34.12,34.12,0,0,0-.64-10.8c-1-4.8-2.17-9.56-3.43-14.29q-7.67-28.71-15.41-57.39c-.11-.41-.27-.81-.39-1.21a2.3,2.3,0,0,0-2.86-1.83c-.83.18-1.66.38-2.48.6-3.71,1-7.41,2-11.13,2.89a1.53,1.53,0,0,1-1.14-.43,2.77,2.77,0,0,1-.76-2.9,1.25,1.25,0,0,1,.78-1c2-.62,4.07-1.23,6.11-1.81s4.13-1.06,6.17-1.65a11,11,0,0,0,2.33-1,1.64,1.64,0,0,0,.6-1.05,2.86,2.86,0,0,0-.14-1.25c-2.13-8-4.24-16.06-6.44-24.07a84.06,84.06,0,0,1-2.61-13.15,25,25,0,0,1,2-12.49,34.46,34.46,0,0,1,6.69-10.06,48.9,48.9,0,0,1,8.81-7.36,70.51,70.51,0,0,1,21.55-9.47,53.54,53.54,0,0,1,6.92-1.21,20.61,20.61,0,0,1,10,1.33,9.16,9.16,0,0,1,5.43,5.13,8.5,8.5,0,0,1-1.14,9,9.18,9.18,0,0,1-9.29,2.71,14.72,14.72,0,0,1-4.5-2.38c-1.32-1.08-2.59-2.21-3.87-3.35a44.26,44.26,0,0,0-4.47-3.6,8.82,8.82,0,0,0-7.33-1.28,21.12,21.12,0,0,0-10,5.47,15.45,15.45,0,0,0-4.83,10.8C2464.22,3617.36,2464.24,3618,2464.24,3618.64Z"/><path d="M1733.57,3686.45l6.93,1.19a2,2,0,0,0,1.93-1.33c.48-2.08,1-4.15,1.41-6.24,1.4-6.89,2.75-13.79,4.19-20.67a84.15,84.15,0,0,1,2.5-9.25,27.14,27.14,0,0,1,13.91-16,44.39,44.39,0,0,1,15.21-4.59,75.92,75.92,0,0,1,18.51.12,52.33,52.33,0,0,1,11.18,2.6,28.41,28.41,0,0,1,5.18,2.5,19.62,19.62,0,0,1,4.4,3.68,10.3,10.3,0,0,1,2.49,5.78,6.77,6.77,0,0,1-.1,1.9,13.37,13.37,0,0,1-.48,1.86,7.68,7.68,0,0,1-3.49,4.41,7.87,7.87,0,0,1-7.34.65,10.4,10.4,0,0,1-4.93-3.91,22.09,22.09,0,0,1-2.3-4.55c-.7-1.78-1.39-3.58-2.18-5.32a23.77,23.77,0,0,0-1.89-3.33,6.94,6.94,0,0,0-2.91-2.42,12.39,12.39,0,0,0-4.91-1.33,35.09,35.09,0,0,0-4.47,0c-5.6.6-10.18,3-13.15,7.94a34.21,34.21,0,0,0-2.67,5.8,96.73,96.73,0,0,0-3.43,13c-2.17,10.21-4.21,20.45-6.28,30.69a3.76,3.76,0,0,0,0,1.25,1.14,1.14,0,0,0,.7,1,45.39,45.39,0,0,0,6.8,1.7c4.59.93,9.18,1.9,13.76,2.87a2.05,2.05,0,0,1,1.4,2.51c0,.21-.11.41-.15.62a1.88,1.88,0,0,1-1.84,1.42l-8.15-1.6c-3.55-.71-7.1-1.43-10.65-2.13-.63-.12-1.27-.16-1.9-.25a1.7,1.7,0,0,0-1.55.87c-.38,1.22-.83,2.42-1.09,3.67-3.16,15.45-6.23,30.92-9.45,46.35-1.53,7.3-3,14.62-4.41,21.94a69.68,69.68,0,0,0-1.24,8.86,13.34,13.34,0,0,0,5.53,12.26,39.52,39.52,0,0,0,5.5,3.25,12.31,12.31,0,0,1,1.67.93,1.43,1.43,0,0,1,.45,1.13.76.76,0,0,1-.67.92,5.5,5.5,0,0,1-2.52,0c-2.31-.43-4.61-.89-6.9-1.36q-13.77-2.87-27.53-5.73c-3.34-.69-6.69-1.32-10-2a11.81,11.81,0,0,1-4.22-1.36.87.87,0,0,1-.33-1.11c.13-.41.37-.84.82-.87,2.12-.14,4.25-.16,6.36-.3a14.45,14.45,0,0,0,3.14-.55,10.92,10.92,0,0,0,4.39-2.54,16.77,16.77,0,0,0,3.46-4.56,38.51,38.51,0,0,0,2.52-6.55c1.51-5.12,2.62-10.33,3.7-15.55,2-9.59,4-19.19,5.94-28.8q2.23-10.95,4.45-21.93a83.29,83.29,0,0,0,1.85-10,1.12,1.12,0,0,0-.59-1.08,2.1,2.1,0,0,0-.54-.31c-1.86-.47-3.71-.94-5.59-1.35-2.7-.58-5.43-1.1-8.14-1.66-1.34-.28-1.88-1.4-1.44-3,.06-.2.13-.4.2-.6a1.67,1.67,0,0,1,1.43-1.06l7.54,1.39Z"/><path d="M3436.55,2926.29c-.11-3.89.86-7.62,1.87-11.31a68.45,68.45,0,0,1,19.62-32.37,40.52,40.52,0,0,1,7.62-5.79,21.69,21.69,0,0,1,7.15-2.63,18.55,18.55,0,0,1,10,1.13,88.77,88.77,0,0,1,9.75,4.77c12.19,6.55,24.36,13.15,36.55,19.7,3,1.61,6,3.14,9.08,4.7a58.57,58.57,0,0,0,5.87,2.52,14.92,14.92,0,0,0,6.91.82,8,8,0,0,0,5-2.53,13.75,13.75,0,0,0,3.31-6.11,7.57,7.57,0,0,0,0-3.81c-.24-1-.68-2-1-3a10,10,0,0,1-.36-1.86,1.19,1.19,0,0,1,.56-1.07,1,1,0,0,1,1.2,0,2.74,2.74,0,0,1,.51.36,16.48,16.48,0,0,1,3.93,14.26,23.56,23.56,0,0,1-1,3.71,31.06,31.06,0,0,1-6,10.44,20.3,20.3,0,0,1-6.57,5,16.27,16.27,0,0,1-3.6,1.29c-2.3.47-4.59.94-6.92,1.19a1.52,1.52,0,0,0-1.46,1.7c.37,2.09.71,4.19,1.15,6.28a41.56,41.56,0,0,1,.79,8.25,33.15,33.15,0,0,1-2.42,12.47,47.14,47.14,0,0,1-7.32,12.67,31.48,31.48,0,0,1-5.52,5.3,26.41,26.41,0,0,1-8.56,4.17,18.86,18.86,0,0,1-4.44.53,21.9,21.9,0,0,1-11.07-2.56,26.56,26.56,0,0,1-7.22-5.21,23.13,23.13,0,0,1-6.25-12.34,33.73,33.73,0,0,1-.21-10.18c.5-3.81,1.32-7.55,2.19-11.28l2.34-9.95a80.09,80.09,0,0,0,1.46-9.46,26,26,0,0,0-.72-8.88,12.18,12.18,0,0,0-3.44-6,24.54,24.54,0,0,0-2.92-2.48,51.56,51.56,0,0,0-18.54-8.26,18.71,18.71,0,0,0-21.16,11.5,15.29,15.29,0,0,0,1.77,14.6c1.06,1.59,2.33,3,3.49,4.57.9,1.18,1.86,2.34,2.65,3.59a8.71,8.71,0,0,1,.31,9.11,12.39,12.39,0,0,1-1.38,2.14,10,10,0,0,1-7.24,3.55c-3.6-.33-6.57-1.72-8.29-5.1a11.76,11.76,0,0,1-1.38-4.88C3436.63,2928.42,3436.59,2927.36,3436.55,2926.29Zm101.17,15.19a23.63,23.63,0,0,0-2.94-11,31.21,31.21,0,0,0-5.49-7,47.73,47.73,0,0,0-6.95-5.58c-2.31-1.51-4.63-3-7-4.36-5.39-3-10.84-5.87-16.26-8.79-.38-.2-.76-.38-1.15-.55-.19-.08-.41-.1-.61-.18-.48-.19-1.38.38-1.37.88a6.64,6.64,0,0,0,0,1.26,63.25,63.25,0,0,1,1,12c0,4,0,8.08.16,12.11a34.94,34.94,0,0,0,2.4,11.82c2.89,7.37,8.23,12.25,15.51,15.09a21.24,21.24,0,0,0,6.22,1.31,8,8,0,0,0,1.9-.07c1-.15,2.09-.37,3.13-.61a13.41,13.41,0,0,0,8.58-6.15A18.14,18.14,0,0,0,3537.72,2941.48Z"/><path d="M2207.1,3824a22.63,22.63,0,0,1-8.32-1.49,20,20,0,0,1-7.87-5.31c-1.47-1.55-2.54-3.43-4.17-4.82a.86.86,0,0,0-1.15-.11,19,19,0,0,0-1.5,1.18c-1.88,1.72-3.71,3.51-5.63,5.2a34.27,34.27,0,0,1-19,8.27,48.28,48.28,0,0,1-13.37-.14,26.61,26.61,0,0,1-11.73-4.75,20.92,20.92,0,0,1-8.11-11.89,26.16,26.16,0,0,1-.73-10.14,23.46,23.46,0,0,1,6-13.17,29.43,29.43,0,0,1,8.64-6.49,70.29,70.29,0,0,1,8.84-3.66c3.63-1.22,7.27-2.42,10.89-3.69,2.41-.84,4.8-1.75,7.18-2.68a36.26,36.26,0,0,0,5.71-2.86,24.3,24.3,0,0,0,5.44-4.41,13.43,13.43,0,0,0,3.48-7.4,39.93,39.93,0,0,0,.29-7.65,51.12,51.12,0,0,0-1.8-12,29.21,29.21,0,0,0-2.48-5.88,17.61,17.61,0,0,0-11.41-8.57c-.83-.21-1.66-.41-2.5-.55a9.32,9.32,0,0,0-1.9-.16c-6.54.16-12.42,3.24-15.14,9.82-.82,2-1.5,4-2.26,6-.45,1.19-.87,2.4-1.42,3.55a8.43,8.43,0,0,1-3.42,3.7,7.28,7.28,0,0,1-2.37.91,13.84,13.84,0,0,1-4.45.17,9.06,9.06,0,0,1-7.27-5.56,10,10,0,0,1,1.4-9.66,18.49,18.49,0,0,1,3.26-3,28.1,28.1,0,0,1,6.14-3.39,68.09,68.09,0,0,1,15.36-4.24,61,61,0,0,1,11.44-1,75.47,75.47,0,0,1,20.71,3.55,31.33,31.33,0,0,1,8,3.87,17.85,17.85,0,0,1,6.78,8.28,11.06,11.06,0,0,1,.62,1.81,60.69,60.69,0,0,1,1.38,9.48c.34,9,1.37,17.85,1.6,26.8.66,6.58.89,13.19,1.29,19.78.24,4,.74,8.06,1.16,12.09a25.94,25.94,0,0,0,1.42,5.56,11.08,11.08,0,0,0,1.15,2.28c2.16,3.41,5.37,4.69,9.28,4.44a15.51,15.51,0,0,0,1.88-.35,9.07,9.07,0,0,0,5.42-3.14l2.48-2.91a1.22,1.22,0,0,1,1.68-.05,1.33,1.33,0,0,1,.49,1.14,6.08,6.08,0,0,1-.79,2.39,17.29,17.29,0,0,1-12,9.74A27,27,0,0,1,2207.1,3824Zm-22.63-39.87c-.1-1.69-.16-2.54-.2-3.39-.16-3.4-.31-6.79-.49-10.19-.07-1.27-.2-2.54-.34-3.8,0-.42-.18-.83-.26-1.25a1.19,1.19,0,0,0-1.92-.68,114.11,114.11,0,0,1-12.94,9.26c-1.64,1-3.26,2-4.84,3.08-1.93,1.31-3.86,2.63-5.72,4.05a29.26,29.26,0,0,0-7.53,8.56,22.93,22.93,0,0,0-3.39,11.48c0,1.48,0,3,.07,4.46a18.33,18.33,0,0,0,2,7.33,16.8,16.8,0,0,0,6.73,7.45,13.56,13.56,0,0,0,7.31,1.88,18.69,18.69,0,0,0,9.1-2.58,22.71,22.71,0,0,0,9-9.64,31.13,31.13,0,0,0,3.07-10.33C2184.68,3794.3,2185.07,3788.79,2184.47,3784.11Z"/><path d="M724.33,3135.18a51,51,0,0,1,8.07-26.35c.46-.72.94-1.43,1.45-2.11a66.19,66.19,0,0,1,29.56-22.56,54,54,0,0,1,16.23-3.21,13.67,13.67,0,0,1,1.92,0,57.45,57.45,0,0,1,21.05,4.8,51.55,51.55,0,0,1,25.78,25.54,39.17,39.17,0,0,1,3,24.95,32.57,32.57,0,0,1-4.52,11.2,37.85,37.85,0,0,1-9.43,10.31,1.54,1.54,0,0,1-1.74-.13c-.7-.79-1.44-1.56-2.08-2.4q-7-9.13-13.94-18.31l-23.59-31c-.78-1-1.58-2-2.38-3a2.2,2.2,0,0,0-2.33-.49,68.07,68.07,0,0,0-25.27,26.48,42.06,42.06,0,0,0-4.91,17.08,19.7,19.7,0,0,0-.06,2.55c.44,9.44,3.32,18,9.57,25.19a32.67,32.67,0,0,0,14,9.79,21.92,21.92,0,0,0,9.42,1.26,36,36,0,0,0,8.16-1.49,4.45,4.45,0,0,1,1.89-.14,1.56,1.56,0,0,1,.94.67.91.91,0,0,1-.15,1.16,5.24,5.24,0,0,1-1,.79,20.12,20.12,0,0,1-5.4,1.92,31.55,31.55,0,0,1-8.85,1.11,32.68,32.68,0,0,1-13-2.92,43,43,0,0,1-8.15-5c-1.17-.92-2.32-1.88-3.39-2.91a74.58,74.58,0,0,1-16.54-23.32A49.43,49.43,0,0,1,724.33,3135.18Zm99.37-19.1a23.11,23.11,0,0,0-1.7-9.26,21.57,21.57,0,0,0-12.32-12.22,28.76,28.76,0,0,0-11.86-2,37,37,0,0,0-13.65,2.88,26.2,26.2,0,0,0-5.66,2.87,1.59,1.59,0,0,0-.48,1.69c.84,1.23,1.65,2.48,2.54,3.66q9.24,12.2,18.52,24.37c2.57,3.38,5.13,6.77,7.72,10.14a20.15,20.15,0,0,0,1.74,1.84.87.87,0,0,0,1.15.12,18.22,18.22,0,0,0,3.8-3.37,40.58,40.58,0,0,0,6.33-8A27.54,27.54,0,0,0,823.7,3116.08Z"/><path d="M1312.53,3617a48.83,48.83,0,0,1,2.62-16.33,70.25,70.25,0,0,1,9-18.3,50.8,50.8,0,0,1,35.91-22.08c1.28-.14,2.54-.35,3.81-.45a37.22,37.22,0,0,1,4.47-.19,53.71,53.71,0,0,1,27.7,8.74,44.27,44.27,0,0,1,10.37,9.42,36,36,0,0,1,6.91,13.58,34.39,34.39,0,0,1,1,13.93,42.94,42.94,0,0,1-3.36,11.62,2.07,2.07,0,0,1-2.14,1c-1-.42-2-.8-2.93-1.27-3.07-1.47-6.12-3-9.19-4.48l-44.27-21.5c-1.92-.93-3.85-1.83-5.78-2.73a1.85,1.85,0,0,0-1.75.43c-.25.35-.54.67-.76,1a69.26,69.26,0,0,0-9.27,25,58.73,58.73,0,0,0-.28,17.21,30.34,30.34,0,0,0,1.75,6.8,39.45,39.45,0,0,0,21.14,22.83,33.44,33.44,0,0,0,18.1,2.79,21.7,21.7,0,0,0,8.4-2.91,37.92,37.92,0,0,0,6.63-5,6.42,6.42,0,0,1,2.06-1.45.9.9,0,0,1,.61.15,1.34,1.34,0,0,1,.59,2.07,33.34,33.34,0,0,1-16.54,11.47,26.14,26.14,0,0,1-4.36,1,42.52,42.52,0,0,1-18.94-1.82,75.07,75.07,0,0,1-24.53-13.43,45.93,45.93,0,0,1-14.77-22A45.09,45.09,0,0,1,1312.53,3617Zm87.25-28.57a24,24,0,0,0-4-13.95c-4.4-6.74-10.76-10-18.76-10.13a24.3,24.3,0,0,0-9.3,1.93A37.85,37.85,0,0,0,1349,3582a1.39,1.39,0,0,0,.47,1.66c.92.52,1.83,1.07,2.78,1.53q19.45,9.5,38.93,18.94c.57.28,1.13.58,1.72.84.38.17.8.27,1.2.42a1.74,1.74,0,0,0,2.06-1,43.93,43.93,0,0,0,2.72-8.46A31.21,31.21,0,0,0,1399.78,3588.43Z"/><path d="M1444.65,3654.4q-.15-19.52-.3-39a83.37,83.37,0,0,0-1.11-14,11.35,11.35,0,0,0-2-4.65,15.21,15.21,0,0,0-1.71-1.89c-.74-.75-1.54-1.45-2.31-2.18-.4-.38-.34-1.09.15-1.72a1.16,1.16,0,0,1,.5-.38,1.23,1.23,0,0,1,.63,0c.82.25,1.64.46,2.43.78q19,7.63,37.93,15.31a7.29,7.29,0,0,1,1.62,1,.9.9,0,0,1,.36,1.08,3.6,3.6,0,0,1-.75,1,.79.79,0,0,1-.58.17c-1.48-.16-2.94-.44-4.42-.52a9.36,9.36,0,0,0-9.93,7.31,38.24,38.24,0,0,0-1.32,8.84c0,1.92-.13,3.84-.15,5.76q-.3,26.55-.59,53.09a7.84,7.84,0,0,0,.29,3.16,1,1,0,0,0,1,.59,1,1,0,0,0,.57-.27c.93-.88,1.87-1.74,2.76-2.66q14.22-14.73,28.42-29.46a127.62,127.62,0,0,0,9.33-10.53c1.43-1.85,2.76-3.78,4.06-5.73a18.77,18.77,0,0,0,2.13-4.64c1.44-4.51.38-8.38-2.84-11.77-1-1.08-2.41-1.75-3.27-3-.28-.39,0-1.51.49-1.63a8.43,8.43,0,0,1,1.22-.22,1.51,1.51,0,0,1,.62.14q14.22,5.74,28.44,11.51a2.37,2.37,0,0,1,1,.76,1.65,1.65,0,0,1,.34,1.16c-.07.36-.47.66-.77.94a1,1,0,0,1-.58.25c-1.49,0-3,0-4.47,0a15.07,15.07,0,0,0-9,2.94,52,52,0,0,0-4.51,3.57c-3.3,3-6.6,6.06-9.75,9.23-7.36,7.42-14.65,14.91-22,22.38q-23.46,24-46.93,48c-2.68,2.74-5.37,5.48-8.16,8.11-2.16,2.06-4.44,4-6.74,5.9a26.69,26.69,0,0,1-3.67,2.55,20.78,20.78,0,0,1-10.33,2.91,23.72,23.72,0,0,1-14.34-4.63,13.5,13.5,0,0,1-3.18-3.13,9.74,9.74,0,0,1-1.61-3.45,6.77,6.77,0,0,1,1-5.49,5.9,5.9,0,0,1,4.76-2.83,10.84,10.84,0,0,1,6.16,1.27,19.1,19.1,0,0,1,3.67,2.55c1.28,1.13,2.5,2.32,3.78,3.45.79.7,1.64,1.35,2.49,2a7,7,0,0,0,2.93,1.22,11.53,11.53,0,0,0,8-1.33A24.87,24.87,0,0,0,1430,3724q4.7-4.8,9.33-9.66a31.48,31.48,0,0,0,2.42-3,14.05,14.05,0,0,0,2.75-7.06,122,122,0,0,0,.59-14.05c-.19-11.94-.32-23.88-.48-35.82Z"/><path d="M1179.41,3457.26c4.36-1.11,8.77-1.77,13.27-.82a38.4,38.4,0,0,1,18.7,7.67,19.22,19.22,0,0,1,5.25,5.53,12,12,0,0,1,1.6,8.59,9,9,0,0,1-1.88,4,7.71,7.71,0,0,1-9.82,1.79,9.76,9.76,0,0,1-4.74-6.51,22.26,22.26,0,0,1-.45-3.16,30.78,30.78,0,0,0-1.12-5.64,13.57,13.57,0,0,0-5.51-7.61,10.61,10.61,0,0,0-6-1.94,16.14,16.14,0,0,0-6.84,1.35,35.24,35.24,0,0,0-7.09,4.29,61.1,61.1,0,0,0-7.92,7.42,97,97,0,0,0-8,10c-7.28,10.51-14.52,21.05-21.53,31.75a41.07,41.07,0,0,0-4.29,7.83,13,13,0,0,0,.28,10.55,25.14,25.14,0,0,0,3.54,5.3,12.54,12.54,0,0,1,2.32,3c.12.31-.11.8-.27,1.16a.94.94,0,0,1-1.07.53,3.47,3.47,0,0,1-1.17-.45c-1.08-.69-2.13-1.41-3.19-2.13q-18-12.26-35.89-24.53a13.44,13.44,0,0,1-3-2.34.91.91,0,0,1-.12-1.16,1.49,1.49,0,0,1,1-.73,1.28,1.28,0,0,1,.63-.06c1.2.45,2.37,1,3.57,1.41,1,.37,2,.65,3,1,3.5,1.35,6.69.45,9.81-1.22a16.3,16.3,0,0,0,3.59-2.64,40.76,40.76,0,0,0,4.68-5.24c2.18-2.9,4.38-5.78,6.43-8.77q10.88-15.8,21.63-31.68c2-3,3.89-6.11,5.79-9.19a27,27,0,0,0,2.69-5.79,16.6,16.6,0,0,0,.35-8.84,11.45,11.45,0,0,0-2.32-4.5c-1.06-1.35-2.51-2.33-3.41-3.8a2.22,2.22,0,0,1-.18-1.21c0-.43,1.12-.88,1.59-.73.2.06.41.09.61.15a4,4,0,0,1,.61.21l24,11.93a12.28,12.28,0,0,1,1.07.7,1.71,1.71,0,0,1,.64,1.66,71.21,71.21,0,0,1-4.06,8.67c-.76,1.52-1.84,2.87-2.31,4.53a.75.75,0,0,0,.07.57c.11.16.38.36.53.32C1176.14,3458.12,1177.77,3457.68,1179.41,3457.26Z"/><path d="M2046.28,3774.33c0-6,0-11.94,0-17.91,0-4.27-.22-8.53-.34-12.79a20.47,20.47,0,0,0-1.28-6.24,16.35,16.35,0,0,0-3.21-5.48,11.64,11.64,0,0,0-5.9-3.65c-1.24-.32-2.5-.51-3.74-.82a3.15,3.15,0,0,1-1.13-.56,1.19,1.19,0,0,1,.33-2.05,5.15,5.15,0,0,1,1.19-.38c5.71-.75,11.42-1.46,17.11-2.33,3.36-.51,6.76-.86,10.14-1.28a2,2,0,0,1,2,1.23,17.93,17.93,0,0,1,.7,2.45c.24,1.47.35,3,.52,4.44.28,2.33.54,4.66.87,7a1.48,1.48,0,0,0,.61,1c.39.21.82-.07,1.1-.41.66-.84,1.34-1.65,2-2.49,5.13-6.48,12-10,19.84-12.07,5.07-.84,10.13-1.47,15.25-.36a14.42,14.42,0,0,1,6.32,2.91,9.76,9.76,0,0,1,3.85,9,7,7,0,0,1-3.1,5.34,8.18,8.18,0,0,1-6.08,1.39,9.61,9.61,0,0,1-5.58-2.87c-1.47-1.55-2.89-3.13-4.35-4.68a16.52,16.52,0,0,0-4-3.15,11.92,11.92,0,0,0-5.49-1.56c-.63,0-1.27,0-1.91,0a10.76,10.76,0,0,0-7,2.84,16.86,16.86,0,0,0-2.93,3.37,30.45,30.45,0,0,0-2.93,5.67,43,43,0,0,0-2.5,8.58,78.44,78.44,0,0,0-1.62,13.32c0,1.92-.12,3.84-.12,5.76,0,11.3-.1,22.6-.09,33.91,0,3,.2,6,.31,8.94a14.52,14.52,0,0,0,1.26,4.94,12,12,0,0,0,4.86,5.78,20.23,20.23,0,0,0,3.43,1.69c1.38.54,2.83.92,4.25,1.37l1.79.62a1.45,1.45,0,0,1,.73,1.57,1.15,1.15,0,0,1-.89.81,14,14,0,0,1-3.82.22l-33.25-.34c-4.27,0-8.53-.06-12.8-.13a6.29,6.29,0,0,1-1.85-.38.84.84,0,0,1-.46-1c.09-.36.38-.87.68-1,1.43-.41,2.9-.67,4.35-1,1-.26,2.06-.56,3.06-.92a11,11,0,0,0,5.11-3.69,15.27,15.27,0,0,0,3-6.31,48.9,48.9,0,0,0,1.27-9.49c.05-4,.2-8.11.23-12.16,0-5.54,0-11.09,0-16.63Z"/><path d="M2714.93,3691.21c2.79-.15,4.28-.27,5.77-.29.44,0,.72.4.9.76a.94.94,0,0,1-.13,1.19,3.37,3.37,0,0,1-1,.75c-2.34,1-4.69,2-7,3q-18.27,7.67-36.55,15.3c-1,.41-2,.73-3,1.07a1,1,0,0,1-.63,0,2.39,2.39,0,0,1-1-.63,1.2,1.2,0,0,1,.22-1.19,6.3,6.3,0,0,1,2-1.6A32.27,32.27,0,0,0,2679,3706a10.44,10.44,0,0,0,3.09-5.48c.16-.84.38-1.67.47-2.51a9.9,9.9,0,0,0,0-2.55,49.44,49.44,0,0,0-1.68-7.47c-1.38-4.27-3-8.44-4.71-12.57q-6.74-16.23-13.59-32.43c-1.58-3.72-3.32-7.38-5-11.06a30.75,30.75,0,0,0-2.88-5,17.87,17.87,0,0,0-5.05-4.83,12.6,12.6,0,0,0-7.93-1.94c-1.89.15-3.74.81-5.67.6a.92.92,0,0,1-.82-.86,1.16,1.16,0,0,1,.27-1.16,9.35,9.35,0,0,1,1.51-1.14q11.26-6.72,22.53-13.4c.18-.11.39-.19.57-.29a1.92,1.92,0,0,1,2.79.52c1.27,2,2.5,4,3.76,5.94s2.06,4.22,3.49,6.09a1.54,1.54,0,0,0,.52.33c.41.21.7,0,.87-.51l.17-.62c.23-.82.47-1.64.69-2.46,2-7.77,6.53-13.79,12.75-18.65a39.94,39.94,0,0,1,12.4-6.48,17.08,17.08,0,0,1,8.2-.63,10,10,0,0,1,7.55,5.35,7.93,7.93,0,0,1-1,9,8.16,8.16,0,0,1-3.14,2.13,9.2,9.2,0,0,1-6.27.24c-.8-.27-1.61-.55-2.39-.89-1.37-.59-2.73-1.2-4.07-1.85a15.87,15.87,0,0,0-8.09-1.42,12.5,12.5,0,0,0-6.49,2.44,10.54,10.54,0,0,0-3.25,3.89,18.09,18.09,0,0,0-1.91,6.72,51.9,51.9,0,0,0,2,17.7,112.74,112.74,0,0,0,4.79,13.89c4.46,10.61,8.77,21.28,13.49,31.78,1,2.14,1.93,4.27,3,6.35a22.45,22.45,0,0,0,2.44,3.74,11.88,11.88,0,0,0,8.75,4.68C2712.83,3691.3,2714.54,3691.21,2714.93,3691.21Z"/><path d="M2379.62,3779.07c-1-4.8-2.28-9.54-2.89-14.41a1.08,1.08,0,0,1,.64-1c.18-.1.49-.24.59-.17a3.35,3.35,0,0,1,.9.9c.89,1.45,1.72,2.94,2.61,4.39a67.63,67.63,0,0,0,5.86,8.38,43.73,43.73,0,0,0,10,8.94,25,25,0,0,0,7.52,3.46c5.58,1.37,6.78,1.42,12.58-.16a18.71,18.71,0,0,0,11.05-8.2,16.31,16.31,0,0,0,2.57-8.46,23.9,23.9,0,0,0-2.43-11.13,20.09,20.09,0,0,0-7-8.14,33.66,33.66,0,0,0-7.43-3.69c-3.8-1.39-7.68-2.56-11.58-3.65-4.1-1.14-8.16-2.45-12.17-3.89a66.17,66.17,0,0,1-8.21-3.54,28.77,28.77,0,0,1-8.06-6.22,24.19,24.19,0,0,1-6-11.84c-.08-.42-.14-.85-.24-1.26a23.64,23.64,0,0,1,0-10.15,28.61,28.61,0,0,1,4.12-10,26.38,26.38,0,0,1,9.24-8.67,34.6,34.6,0,0,1,17.75-4.55,22.17,22.17,0,0,1,4.44.53c1.45.32,2.93.57,4.4.76a12.79,12.79,0,0,0,2.55,0,3.93,3.93,0,0,0,2.78-1.37c.71-.81,1-1.86,1.84-2.59a1.57,1.57,0,0,1,2.2.15c.12.18.33.32.39.51.35,1.23.67,2.46,1,3.7,1.5,5.55,3,11.1,4.49,16.66a36.67,36.67,0,0,1,.72,3.76,1.24,1.24,0,0,1-.54,1.08,1.37,1.37,0,0,1-1.7-.33c-.23-.34-.52-.66-.73-1-.83-1.48-1.59-3-2.48-4.47a29.74,29.74,0,0,0-16.17-12.86,22.44,22.44,0,0,0-12-.68,13.64,13.64,0,0,0-5.73,2.73,16.81,16.81,0,0,0-6.25,10.1,18,18,0,0,0,.51,8.85,13.76,13.76,0,0,0,3.18,5.49,21.58,21.58,0,0,0,6.11,4.58,45,45,0,0,0,10.84,3.76c4.36,1,8.75,1.87,13.13,2.83a70.55,70.55,0,0,1,9.24,2.53,42.08,42.08,0,0,1,9.12,4.57,29.93,29.93,0,0,1,12.13,16.74,36.63,36.63,0,0,1,1.24,13.93,23.41,23.41,0,0,1-2.06,7.35,31,31,0,0,1-14.55,15.58,38.29,38.29,0,0,1-9.62,3.36,43.13,43.13,0,0,1-16.52.39c-1.68-.3-3.37-.47-5.07-.68-.63-.08-1.27-.11-1.91-.14-3.17-.15-5.9.72-7.78,3.46a3.82,3.82,0,0,1-1.36,1.29.77.77,0,0,1-1.1-.23,5.17,5.17,0,0,1-1-2.31C2381.72,3789.08,2380.68,3784.07,2379.62,3779.07Z"/><path d="M3411.9,2984.33c-.64,0-1.28,0-1.91,0a11.17,11.17,0,0,0-7.43,3.27c-.93.88-1.77,1.85-2.67,2.75a2.68,2.68,0,0,1-1,.72,1.74,1.74,0,0,1-1.19-.09,1.13,1.13,0,0,1-.53-1.06,4.14,4.14,0,0,1,.5-1.83l7.89-17.47c1.49-3.3,3-6.61,4.46-9.9a12.05,12.05,0,0,1,.68-1.07,1.64,1.64,0,0,1,1.68-.56c1.66.95,3.35,1.85,5,2.84q24.27,14.81,48.54,29.62c4.91,3,9.86,5.92,14.8,8.87a65.24,65.24,0,0,0,6.74,3.64,37.64,37.64,0,0,0,3.59,1.33c3.74,1.26,7.13.28,10.39-1.55a23.4,23.4,0,0,0,4.06-3.09l2.84-2.57a1.32,1.32,0,0,1,2,.6.94.94,0,0,1,.1.62,21.08,21.08,0,0,1-1.14,2.28q-12.32,20.18-24.65,40.35a5.37,5.37,0,0,1-1.59,2c-.45.28-1.44.06-1.54-.46a2.83,2.83,0,0,1-.16-1.23c.58-2.05,1.18-4.09,1.86-6.1,1.19-3.54.25-6.71-1.52-9.77a16.73,16.73,0,0,0-3.72-4.36,63.51,63.51,0,0,0-5-3.93c-2.62-1.83-5.28-3.61-8-5.28q-16.87-10.35-33.82-20.62c-2.54-1.55-5.15-3-7.77-4.42-1.5-.8-3.07-1.47-4.61-2.19A15.18,15.18,0,0,0,3411.9,2984.33Z"/><path d="M2903.35,3488.73a11.2,11.2,0,0,0-4.17.82c-1.18.51-2.38.95-3.57,1.42a1.41,1.41,0,0,1-1.58-.7,1.09,1.09,0,0,1,0-1.2,6.93,6.93,0,0,1,1.75-1.83l21.6-18c.65-.54,1.35-1,2-1.54a1.42,1.42,0,0,1,1.73.14c.39.5.83,1,1.18,1.51.94,1.42,1.84,2.87,2.77,4.3q15,23.4,30.11,46.79,4.68,7.26,9.45,14.46c1.18,1.77,2.4,3.52,3.69,5.22a33.6,33.6,0,0,0,3,3.35,13.1,13.1,0,0,0,8.6,3.74,7.19,7.19,0,0,0,1.91-.1,34.14,34.14,0,0,0,6.83-1.63,9.6,9.6,0,0,1,1.86-.39,1.34,1.34,0,0,1,1.48.87,1,1,0,0,1-.29,1.18,21.47,21.47,0,0,1-2,1.56q-19.62,12.64-39.27,25.25a25.49,25.49,0,0,1-2.23,1.25,1,1,0,0,1-1.14-.11,1.45,1.45,0,0,1-.3-1.73c.4-.49.78-1,1.22-1.47,1-1.08,2.08-2.13,3.09-3.23a12.68,12.68,0,0,0,1.55-2,11.1,11.1,0,0,0,1.74-5.42,17.83,17.83,0,0,0-1.1-6.89,40.64,40.64,0,0,0-2.7-5.79c-1.79-3.15-3.56-6.31-5.51-9.36q-10.68-16.73-21.47-33.35c-1.85-2.86-3.84-5.64-5.85-8.39a37.23,37.23,0,0,0-3.34-3.87,17.21,17.21,0,0,0-5.83-3.84A13.09,13.09,0,0,0,2903.35,3488.73Z"/><path d="M2882.55,3436.53a10.08,10.08,0,0,1-9.28-4.86,11.74,11.74,0,0,1-1.78-4.71,4.85,4.85,0,0,1-.06-1.26,11.54,11.54,0,0,1,11.68-11,10.46,10.46,0,0,1,9.53,6.31,19.19,19.19,0,0,1,1.06,3.65,3.79,3.79,0,0,1,0,1.26,11.25,11.25,0,0,1-4.88,8.53c-.17.12-.35.23-.53.34A10.2,10.2,0,0,1,2882.55,3436.53Z"/><path d="M3359.15,2949a10.63,10.63,0,0,1-9.8-5.85,7.45,7.45,0,0,1-1-3,27.79,27.79,0,0,1-.08-3.16,9.27,9.27,0,0,1,1.31-4.2,12.09,12.09,0,0,1,3.3-3.81,10.85,10.85,0,0,1,15.88,3.5,10.23,10.23,0,0,1,.24,9.74,13.18,13.18,0,0,1-2.07,3.18A10,10,0,0,1,3359.15,2949Z"/><path class="cls-19" d="M2875,767.37a5.36,5.36,0,0,0-2.25-.26c-3.16-.22-6.31-.57-9.46-.94-.73-.09-.91-.3-.77-1.06,1.79-9.3,3.53-18.61,5.29-27.92q2.11-11.25,4.24-22.49c.26-1.39.24-1.36,1.72-1.22a65.6,65.6,0,0,0,15.78-.32c.69-.1.87.09,1,.71q2,10.75,4,21.48l5.25,27.93.15.85c.31,1.66.31,1.63-1.32,1.86a120,120,0,0,1-12.55,1.21c-.14,0-.29,0-.36.17Z"/><path class="cls-20" d="M3003.06,650.2a7.9,7.9,0,0,0-.3,2.78,124.11,124.11,0,0,1-3.13,20.46c-.14.6-.32.73-.92.55q-25-7.22-50.09-14.38c-.51-.14-.72-.3-.6-.87a64.81,64.81,0,0,0,1.41-16c0-.46.1-.66.6-.71q8.47-.77,16.95-1.57l17.37-1.66c5.94-.56,11.87-1.09,17.81-1.67.59-.06.67.16.71.65s-.16,1.13.19,1.65v1.9a6.33,6.33,0,0,0,0,3.29v.18a5.49,5.49,0,0,0,0,3.11Z"/><path class="cls-21" d="M2823.06,683.33l-.54.44-15.41,11.73q-13,9.87-25.93,19.75c-.65.5-.89.36-1.3-.23a124.65,124.65,0,0,1-16.17-32.24c-.27-.83-.14-1.12.71-1.36q24.82-7.08,49.63-14.23c.62-.18.92-.14,1.16.57a67,67,0,0,0,7.5,15Z"/><path class="cls-22" d="M2757.77,644.66a71.46,71.46,0,0,1,.08-7.17c0-.69.27-.87.94-.8,4.15.39,8.32.75,12.48,1.12l14.46,1.3,16.88,1.51c2.69.24,5.39.5,8.09.71.49,0,.62.19.6.67a65.26,65.26,0,0,0,1.44,17c.14.66-.24.63-.61.74l-21.24,6.09q-14.4,4.14-28.8,8.28c-.69.2-.86,0-1-.61a119.7,119.7,0,0,1-3.3-23.75C2757.73,648.06,2757.77,646.36,2757.77,644.66Z"/><path class="cls-23" d="M2864.67,712.21l-1.4,7.38-5.61,29.86c-.91,4.87-1.85,9.73-2.74,14.6-.13.69-.45.55-.9.45a120.67,120.67,0,0,1-28.16-10c-1.93-1-3.82-2-5.73-3-.48-.25-.61-.44-.28-1q13.74-22.19,27.43-44.38c.29-.47.48-.61,1-.31a67.93,67.93,0,0,0,15.61,5.94C2864.25,711.91,2864.75,711.86,2864.67,712.21Z"/><path class="cls-24" d="M2811.72,633.75l-12.41-1.13-12.22-1.11L2770.3,630l-10.5-.92c-1.33-.11-1.15-.08-1-1.24a121.2,121.2,0,0,1,9.94-34.11c.56-1.23.28-1.17,1.56-.53l38.89,19.38c2.43,1.2,4.85,2.42,7.28,3.6.54.26.69.45.42,1.07a68.1,68.1,0,0,0-4.74,15.93C2812.06,633.76,2812.05,633.76,2811.72,633.75Z"/><path class="cls-25" d="M2960.28,551.84l-.38.43-14.24,15.57q-10.34,11.29-20.65,22.59c-.6.66-.94.78-1.69.17a64.07,64.07,0,0,0-13.59-8.51c-.55-.25-.64-.47-.43-1q9.35-24.24,18.66-48.51c.25-.66.48-.8,1.15-.51a123.08,123.08,0,0,1,30.75,19.23C2960.23,551.61,2960.29,551.69,2960.28,551.84Z"/><path class="cls-26" d="M2841.05,701.69c-.13.21-.25.44-.39.66l-23.94,38.74c-1.14,1.84-2.29,3.66-3.39,5.52-.28.47-.48.47-.91.18a124.77,124.77,0,0,1-26.22-23.55c-1.14-1.36-1.12-1.38.31-2.46l40.27-30.6c.95-.72.95-.73,1.76.18a70.23,70.23,0,0,0,12,10.79C2840.73,701.29,2841,701.35,2841.05,701.69Z"/><path class="cls-27" d="M2831.72,595.53c-.13.15-.24.28-.36.4A69.12,69.12,0,0,0,2821,609.28c-.3.52-.54.31-.88.14l-15.39-7.67q-15.54-7.74-31.09-15.46c-.74-.36-.86-.62-.44-1.37a123.59,123.59,0,0,1,18.58-25.08c1.12-1.16,2.28-2.29,3.4-3.45.37-.37.58-.34,1,.06q17.53,19.27,35.12,38.53C2831.4,595.15,2831.55,595.32,2831.72,595.53Z"/><path class="cls-25" d="M2949.08,746.24c-.31-.06-.36-.32-.47-.5l-9.27-15q-9.06-14.67-18.14-29.32c-.34-.56-.33-.81.22-1.22A67.14,67.14,0,0,0,2933.28,689c.44-.53.7-.51,1.21-.12q20.7,15.63,41.43,31.22c.42.32.7.52.22,1.11A123.69,123.69,0,0,1,2949.49,746Z"/><path class="cls-28" d="M2877.06,548.82q0,13,0,26c0,.67-.18.83-.83.87a66.78,66.78,0,0,0-15.86,2.84c-.67.21-.92.08-1.17-.57q-9.35-24.21-18.77-48.41c-.24-.61-.18-.81.49-1a120.11,120.11,0,0,1,34.52-6.37c1.61-.06,1.61-.07,1.61,1.55Z"/><path class="cls-29" d="M2908.16,764.14c-.45.07-.42-.28-.47-.55q-1.38-7.38-2.78-14.76l-5.43-28.77c-.49-2.6-1-5.21-1.48-7.8-.12-.57,0-.79.59-.94a65.16,65.16,0,0,0,15.07-6.13c.61-.34.8-.15,1.1.34q11.5,18.68,23,37.35c1.42,2.3,2.83,4.61,4.28,6.9.32.5.27.73-.26,1a121.61,121.61,0,0,1-33.24,13.24C2908.44,764.1,2908.3,764.11,2908.16,764.14Z"/><path class="cls-22" d="M2940.65,610.56c-.28,0-.32-.25-.42-.41a67,67,0,0,0-10-13.29c-.41-.42-.15-.61.11-.9q5.88-6.39,11.74-12.81,11.68-12.75,23.35-25.52c.54-.59.81-.57,1.36,0A124.06,124.06,0,0,1,2988,585.79c.62,1.13.63.9-.47,1.45l-44.6,22.25-1.78.87Z"/><path class="cls-30" d="M2949.26,634.45c-.45.14-.53-.16-.6-.6a69.73,69.73,0,0,0-4.51-15.82c-.25-.59.08-.69.45-.87l10.51-5.23q18-9,36-17.95c.64-.32.87-.26,1.17.4a121.34,121.34,0,0,1,9.6,33.49c.22,1.63.22,1.59-1.42,1.74-5.83.54-11.65,1.11-17.47,1.66l-15.14,1.43-18,1.71Z"/><path class="cls-31" d="M2832.86,531.54c.33.05.31.38.39.59q2,5,3.89,10.06,7.46,19.23,14.92,38.46c.26.67.14.91-.49,1.19a65.3,65.3,0,0,0-13.42,8.12c-.53.41-.79.37-1.23-.11Q2821,572.39,2805.12,555c-1.09-1.19-2.16-2.4-3.27-3.57-.38-.39-.43-.6,0-1A122,122,0,0,1,2827.33,534c1.66-.79,3.35-1.52,5-2.28Z"/><path class="cls-32" d="M2884.77,548.87c0-8.62,0-17.24,0-25.86,0-.82.25-1,1-.92a123.54,123.54,0,0,1,34.74,6.59c.83.28.55.67.37,1.14l-18,46.86c-.22.59-.47,1.18-.67,1.78-.15.41-.33.48-.77.34a69.14,69.14,0,0,0-14.08-2.94c-.52-.05-1-.11-1.55-.11-.71,0-1-.24-1-1,.06-2.42,0-4.85,0-7.27Z"/><path class="cls-33" d="M2946,666.85l2.46.69q24,6.91,48,13.8c.6.17.81.33.58,1a124.35,124.35,0,0,1-15.45,31.46c-.44.64-.69.61-1.25.19q-14.27-10.82-28.57-21.58-6.42-4.84-12.84-9.68c-.48-.35-.6-.6-.24-1.16a70.33,70.33,0,0,0,6.86-14.12C2945.71,667.24,2945.67,666.86,2946,666.85Z"/><path class="cls-34" d="M2080.28,2003.18c86,0,172,.15,258-.23,9.43,0,12,2.45,12.51,12,2.46,49.84,2.79,99.48-11.35,147.93-41.55,142.42-189.14,221.23-334.71,180-121.72-34.45-178.38-136.28-192.25-229.53-5.06-34-1.77-68.38-2.73-102.58-.28-10,6.09-7.48,11.24-7.48q126.57-.12,253.14-.09Z"/><path class="cls-34" d="M2080.08,2681.91c-78.67,0-157.34-.12-236,.18-7.59,0-10.95-1.2-10.16-9.62s0-17.1.27-25.66c1-38.69,25.41-63.27,64-63.6,50.13-.42,100.28-.54,150.41-.08,9.84.09,13.24-1.84,12.95-12.37-.78-27.7-.66-55.43,0-83.13.25-11.55-2.95-16.65-15.44-17.81-128.88-12-226.64-75.41-296.58-182.75-37.08-56.92-55.9-120.47-56.59-188.16-1.29-127.16-.55-254.34-.55-381.51,0-14.13,6.66-21.45,19-22,11.9-.48,19.81,7,20,21,.49,30.16.18,60.32.21,90.49.11,94.56.07,189.13.38,283.69.57,170.45,136.2,320.82,305.5,338.94,186.69,20,345-94.12,385.18-277.64,7.73-35.32,7.17-71.29,7.26-107.11.27-104.75,0-209.5,0-314.26,0-5.7.27-11.4.63-17.09.68-11.11,6.93-17,17.78-18,10.58-.91,18.86,5.54,21,16.29.62,3.15.4,6.49.39,9.75-.09,120.65.52,241.31-.48,361.95-1.58,190.42-130,344.49-316.85,381.57-13.56,2.69-27.36,4.25-41.1,6-6.73.86-10.67,2.24-10.47,11,.71,30.55.57,61.14.07,91.7-.13,7.88,2.44,9.37,9.69,9.32,48.1-.33,96.19,0,144.29-.31,48.5-.34,74.55,26.14,71.64,74.2-.5,8.29,4.3,19.37-2.49,24.13-5.49,3.85-15.75.94-23.9.95q-110.05,0-220.11,0Z"/><path class="cls-34" d="M2350,1726.54c-.86-53.64-18.27-102.17-51.7-144.45-53.34-67.44-124.44-98.24-209.16-101.25-142.55-5.06-278.1,95-279.1,262.45-.42,68.85,0,137.7-.47,206.55-.06,10,2.64,12.81,12.88,12.76,86-.45,171.92-.26,257.88-.27q129.55,0,259.11.08c7.23,0,11.9.17,11.81-9.78C2350.58,1877.27,2351.22,1801.89,2350,1726.54Zm-429.84-112c11.75-.48,23.54-.1,35.31-.12,11.36,0,22.74-.34,34.09.09,11.8.44,19.71,7.87,20.51,18.3.77,10-6.67,19.43-18.7,19.9-24.3,1-48.7.93-73,0-11.46-.43-18.21-9.19-17.95-19.28C1900.69,1622.91,1908.45,1615.06,1920.17,1614.58Zm90,126.63c-.51,9.67-8.19,17.48-19.49,18.12-12.18.7-24.44.16-36.66.16v0c-11.41,0-22.84.49-34.21-.13-11.86-.65-18.89-7.78-19.31-18.08s6.1-18.74,17.5-19.74a411.2,411.2,0,0,1,74.43,0C2004,1722.69,2010.68,1731.27,2010.15,1741.21Zm-19.83,125q-35.31.82-70.65,0c-11.83-.28-19.34-8.7-19.21-19.37s7.83-18.53,19.62-19,23.55-.11,35.32-.11v0c11.37,0,22.75-.33,34.1.09,12.22.45,20.8,8.89,20.72,19.52C2010.15,1857.57,2002.26,1866,1990.32,1866.25Zm249.41.14c-11,.39-22,.08-33,.08v0c-11,0-22,.29-33-.07-14.08-.46-21.84-7.56-21.88-19.27s7.8-19.27,21.62-19.48q33-.51,66,0c14.09.25,21.23,7.46,21,19.81C2260.31,1859.24,2253.28,1865.91,2239.73,1866.39Zm2.1-107.05c-11.74.73-23.57.16-35.36.16v.16c-11.38,0-22.79.46-34.15-.12-13.33-.68-19.85-6.89-20.4-18-.55-10.94,5.81-19.25,18.23-20.23a474.3,474.3,0,0,1,73.09,0c11.65.89,17.66,9.05,17.34,19.76S2254,1758.58,2241.83,1759.34Zm-2-106c-5.66.4-11.38.06-17.08.06h-15.87c-11.39,0-22.81.5-34.17-.14-13.89-.77-21.29-8.51-20.81-20.4.45-11.35,7.87-18.11,21.46-18.3q32.94-.48,65.9,0c13.57.21,21,6.94,21.46,18.29C2261.19,1644.5,2253.39,1652.33,2239.8,1653.29Z"/><path class="cls-35" d="M1211.55,2324.46c-18.11,0-32.79-13.61-32.79-30.39V1670.18c0-16.78,14.68-30.39,32.79-30.39s32.79,13.61,32.79,30.39v623.89C1244.34,2310.85,1229.66,2324.46,1211.55,2324.46Z"/><path class="cls-36" d="M1337.81,2183.43a35.52,35.52,0,0,1-35.52-35.52V1810.78a35.52,35.52,0,0,1,71,0v337.13A35.52,35.52,0,0,1,1337.81,2183.43Z"/><path class="cls-37" d="M1088.08,2113.88a35.52,35.52,0,0,1-35.52-35.52V1884.87a35.53,35.53,0,0,1,71,0v193.49A35.52,35.52,0,0,1,1088.08,2113.88Z"/><path class="cls-38" d="M963.7,2040.12a35.52,35.52,0,0,1-35.52-35.52v-43.76a35.53,35.53,0,0,1,71.05,0v43.76A35.52,35.52,0,0,1,963.7,2040.12Z"/><path class="cls-39" d="M1461.69,2245.9a35.52,35.52,0,0,1-35.53-35.52V1746.73a35.53,35.53,0,0,1,71,0v463.65A35.52,35.52,0,0,1,1461.69,2245.9Z"/><path class="cls-40" d="M1595.08,2183a35.52,35.52,0,0,1-35.52-35.52V1810.33a35.52,35.52,0,0,1,71,0v337.13A35.52,35.52,0,0,1,1595.08,2183Z"/><path class="cls-35" d="M2955.56,2325.16c18.11,0,32.79-13.6,32.79-30.39V1670.88c0-16.78-14.68-30.38-32.79-30.38s-32.79,13.6-32.79,30.38v623.89C2922.77,2311.56,2937.45,2325.16,2955.56,2325.16Z"/><path class="cls-36" d="M2829.3,2184.14a35.53,35.53,0,0,0,35.53-35.53V1811.48a35.53,35.53,0,0,0-71,0v337.13A35.52,35.52,0,0,0,2829.3,2184.14Z"/><path class="cls-37" d="M3079,2114.59a35.52,35.52,0,0,0,35.52-35.53V1885.58a35.53,35.53,0,1,0-71.05,0v193.48A35.53,35.53,0,0,0,3079,2114.59Z"/><path class="cls-38" d="M3203.41,2040.82a35.52,35.52,0,0,0,35.52-35.52v-43.76a35.53,35.53,0,0,0-71,0v43.76A35.52,35.52,0,0,0,3203.41,2040.82Z"/><path class="cls-39" d="M2705.42,2246.61a35.53,35.53,0,0,0,35.53-35.52V1747.44a35.53,35.53,0,1,0-71,0v463.65A35.52,35.52,0,0,0,2705.42,2246.61Z"/><path class="cls-40" d="M2572,2183.69a35.53,35.53,0,0,0,35.53-35.53V1811a35.53,35.53,0,0,0-71,0v337.13A35.52,35.52,0,0,0,2572,2183.69Z"/></g></g></g></svg>