<svg width="36" height="44" viewBox="0 0 36 44" fill="none" xmlns="http://www.w3.org/2000/svg">
<path d="M26.7922 8.93909C26.7472 8.54129 26.6437 8.1636 26.4658 7.80459C26.2143 7.29712 25.8592 6.88169 25.4266 6.52868C25.2023 6.34566 25.102 5.95527 25.1975 5.67702C25.3086 5.35363 25.5581 5.16038 25.8758 5.14063C26.1222 5.12547 26.3357 5.17978 26.5281 5.35469C27.0787 5.85511 27.565 6.40737 27.8882 7.08835C28.1215 7.57925 28.3149 8.08778 28.3717 8.63686C28.3841 8.75606 28.409 8.7617 28.5032 8.69752C28.9188 8.41257 29.3462 8.14914 29.822 7.97563C30.3699 7.77568 30.9219 7.60993 31.5102 7.57537C32.031 7.54469 32.5494 7.54469 33.0616 7.63073C33.4011 7.68786 33.7596 7.72137 34.0237 8.00772C34.3697 8.3833 34.2874 8.95637 33.859 9.22897C33.6309 9.37391 33.4243 9.36157 33.1748 9.30056C32.4754 9.12917 31.769 9.09849 31.0582 9.26283C30.7073 9.34394 30.3751 9.46666 30.0529 9.62324C30.029 9.63488 30.01 9.65745 29.9805 9.68213C30.1806 9.73397 30.3536 9.62112 30.5363 9.6384C31.1693 9.698 31.8016 9.73291 32.4266 9.89267C33.0457 10.051 33.6354 10.2672 34.1998 10.5606C34.7345 10.8385 35.2249 11.1883 35.6852 11.5805C35.9156 11.7769 36.106 12.1391 35.9329 12.5598C35.8222 12.8289 35.4761 13.0697 35.1761 13.0546C34.9719 13.0444 34.8044 12.94 34.6508 12.8127C33.8904 12.1821 33.0439 11.7268 32.0943 11.4662C31.8902 11.4101 31.678 11.3939 31.4704 11.3319C31.5794 11.4091 31.6901 11.4842 31.7974 11.5639C32.5387 12.114 33.0204 12.8567 33.335 13.7222C33.5156 14.219 33.6087 14.7332 33.6842 15.258C33.7596 15.781 33.7274 16.2997 33.7323 16.8206C33.7361 17.2346 33.4409 17.5993 33.0907 17.6469C32.6301 17.7096 32.2764 17.4825 32.1532 17.0382C32.1334 16.9666 32.1369 16.8869 32.1366 16.8111C32.1341 16.3297 32.1698 15.8466 32.0964 15.368C31.9642 14.5051 31.7386 13.6802 31.0845 13.056C30.7858 12.771 30.4232 12.594 30.0376 12.4597C29.7286 12.3517 29.4161 12.2974 29.0877 12.3232C29.0804 12.4085 29.1427 12.4427 29.1832 12.4865C29.7995 13.1586 30.2664 13.9299 30.6128 14.7745C30.8232 15.2876 30.9651 15.8243 31.0838 16.3699C31.2714 17.2339 31.2783 18.1074 31.2281 18.9788C31.1939 19.5717 31.106 20.1655 30.9492 20.7428C30.8419 21.1389 30.4187 21.4041 30.0158 21.3039C29.5604 21.1907 29.324 20.7763 29.4154 20.357C29.6037 19.4927 29.6756 18.6195 29.6459 17.7364C29.6182 16.9155 29.459 16.1252 29.15 15.361C28.9351 14.8295 28.6565 14.3425 28.3097 13.8946C28.0868 13.6068 27.8519 13.3289 27.5819 13.0828C27.4708 12.9816 27.4061 12.996 27.3501 13.1233C27.1888 13.4898 26.9642 13.8191 26.7434 14.1464C26.299 14.8052 25.7606 15.3849 25.2048 15.9478C24.3029 16.8619 23.3921 17.7675 22.5103 18.7013C21.8683 19.3816 21.2153 20.0548 20.6494 20.806C20.1653 21.4492 19.732 22.1274 19.3368 22.8306C18.8277 23.7372 18.3699 24.6704 17.9664 25.6303C17.7335 26.1847 17.5092 26.7429 17.2836 27.3005C17.2375 27.414 17.206 27.5336 17.1635 27.6482C17.1168 27.7734 17.1413 27.8316 17.287 27.8305C17.8407 27.8259 18.3945 27.8287 18.9482 27.8287C19.3001 27.8287 19.6517 27.8277 20.0037 27.8291C20.0836 27.8291 20.1207 27.8252 20.1103 27.7134C19.9628 26.1667 20.4141 24.8439 21.5572 23.7919C22.078 23.3126 22.675 22.9737 23.3644 22.8097C23.7572 22.7163 24.1527 22.6274 24.5555 22.6525C25.4557 22.7085 26.2883 22.9646 27.0296 23.5182C27.63 23.9668 28.0841 24.5304 28.4063 25.2025C28.6104 25.6285 28.7541 26.0796 28.7987 26.5609C28.8181 26.7701 28.8596 26.9771 28.853 27.1894C28.8492 27.3188 28.8427 27.4454 28.8098 27.5727C28.7541 27.7907 28.788 27.828 29.0147 27.828C30.3931 27.8284 31.7715 27.828 33.1502 27.828C33.2308 27.828 33.3125 27.8203 33.3921 27.8295C33.5676 27.8503 33.6388 27.7476 33.6475 27.5963C33.6953 26.7457 33.7164 25.8955 33.6721 25.0431C33.6506 24.6266 33.6063 24.2126 33.5437 23.8032C33.4322 23.0756 33.3094 22.3485 33.0903 21.6435C33.0159 21.4037 32.9242 21.1667 32.8758 20.9213C32.8014 20.546 33.0921 20.1338 33.4848 20.0171C33.8181 19.918 34.2358 20.1119 34.3805 20.4494C34.5283 20.794 34.6023 21.1635 34.7058 21.5229C34.8677 22.0854 34.9733 22.6609 35.0699 23.2372C35.1384 23.6462 35.1757 24.061 35.2225 24.4736C35.31 25.2452 35.3145 26.021 35.2841 26.7948C35.2598 27.4073 35.2104 28.0209 35.1076 28.6272C35.0363 29.0479 34.9837 29.4728 34.892 29.889C34.7359 30.5971 34.5379 31.2936 34.3036 31.9806C33.9437 33.0368 33.4835 34.045 32.936 35.0109C32.1161 36.4565 31.1174 37.7638 29.9397 38.9251C29.006 39.8458 27.9837 40.6517 26.8756 41.3467C26.134 41.8119 25.3667 42.2252 24.5659 42.5694C23.9627 42.8286 23.3495 43.0645 22.7176 43.2483C22.1206 43.4218 21.5222 43.5805 20.909 43.6884C20.4622 43.767 20.0144 43.8309 19.5659 43.8972C18.5609 44.0456 17.5535 43.9945 16.5471 43.9783C15.8751 43.9677 15.2089 43.8499 14.5472 43.7318C13.5211 43.5484 12.5182 43.2684 11.5412 42.8984C10.6882 42.5754 9.86486 42.1875 9.06924 41.735C8.11651 41.193 7.22123 40.5677 6.37958 39.8631C5.32061 38.9769 4.38864 37.9662 3.55807 36.855C2.7455 35.7674 2.08035 34.5916 1.5211 33.3531C1.21102 32.6665 0.960815 31.9545 0.745906 31.2301C0.534803 30.5177 0.373534 29.7937 0.24618 29.0616C0.0250411 27.7903 -0.0223706 26.5073 0.0281557 25.2209C0.0506502 24.6531 0.098408 24.0842 0.178004 23.5221C0.266252 22.8979 0.401565 22.2811 0.553144 21.6682C0.734831 20.9343 0.970505 20.2198 1.24321 19.5156C1.49273 18.8709 1.77131 18.24 2.098 17.6331C2.45203 16.9747 2.83063 16.3304 3.26495 15.7228C3.45771 15.453 3.71796 15.2894 4.05261 15.3606C4.38518 15.4315 4.62155 15.6353 4.69561 15.9936C4.76413 16.3244 4.61289 16.5854 4.43744 16.84C3.84289 17.7012 3.33866 18.6142 2.92961 19.5812C2.56935 20.4321 2.27173 21.3036 2.05959 22.2071C1.92843 22.7657 1.81976 23.3257 1.7457 23.8956C1.69552 24.2803 1.6931 24.6693 1.63877 25.0498C1.56575 25.5608 1.61074 26.0701 1.59066 26.5793C1.58616 26.6921 1.60174 26.7775 1.7419 26.7771C1.84399 26.7771 1.85402 26.8565 1.85748 26.9386C1.86752 27.1792 1.88378 27.4193 1.88967 27.6595C1.89244 27.7766 1.93327 27.8376 2.05371 27.8277C2.07655 27.8259 2.09973 27.8277 2.12292 27.8277C5.63553 27.8277 9.1478 27.8263 12.6604 27.8312C12.8466 27.8312 12.9605 27.7959 12.9605 27.5847C12.9605 27.5445 12.9826 27.5043 12.9826 27.4637C12.9826 26.659 13.0366 25.8553 13.0141 25.0505C13.0013 24.5984 13.0089 24.1453 12.9888 23.6935C12.9639 23.1317 12.9214 22.5703 12.8822 22.0092C12.8373 21.3677 12.766 20.7263 12.6691 20.0904C12.5708 19.444 12.4414 18.8022 12.2943 18.1642C12.0956 17.3013 11.8298 16.4634 11.4879 15.6473C11.0903 14.698 10.6632 13.7627 10.2192 12.8356C9.82091 12.003 9.40978 11.1763 9.01353 10.3427C8.65707 9.59291 8.34319 8.82483 8.14004 8.01548C8.0646 7.71572 8.00923 7.40997 7.95836 7.10492C7.93932 6.98996 7.89226 7.00935 7.82131 7.03862C7.28456 7.26115 6.7921 7.56055 6.33806 7.92591C5.60681 8.51414 5.0524 9.24907 4.63539 10.0916C4.37618 10.6153 4.16923 11.1594 4.0308 11.7332C3.89895 12.2798 3.78959 12.8278 3.72799 13.3871C3.69131 13.7207 3.37466 14.0145 3.03274 14.0459C2.67282 14.079 2.33368 13.8495 2.20148 13.5388C2.08174 13.2577 2.17552 12.9939 2.21117 12.7287C2.35098 11.6912 2.61192 10.6847 3.04762 9.73397C3.40442 8.95531 3.85639 8.23765 4.42498 7.59547C5.03337 6.90814 5.73935 6.35447 6.5277 5.90307C6.56162 5.88368 6.60557 5.87486 6.6111 5.8135C5.71686 5.54548 4.84995 5.56276 4.05157 6.10902C3.57053 6.4384 3.21962 6.89827 2.93895 7.41032C2.65483 7.92873 2.42711 8.47252 2.2835 9.05017C2.18625 9.44233 1.8073 9.72128 1.41348 9.66697C1.06914 9.61936 0.725487 9.32172 0.729294 8.86503C0.731716 8.58643 0.82654 8.33499 0.908905 8.08072C1.15946 7.30805 1.51003 6.58617 1.99418 5.93446C2.4157 5.36704 2.91058 4.88813 3.5297 4.54394C3.87611 4.35103 4.23499 4.20539 4.67242 4.10946C4.46858 4.04281 4.29416 4.03435 4.14016 4.02165C3.82905 3.99626 3.51135 3.95994 3.19851 4.00367C2.73373 4.06891 2.26758 4.11934 1.81111 4.24771C1.47473 4.34222 1.16534 4.52419 0.802661 4.53935C0.35277 4.55804 0.108098 4.2537 0.0309243 3.96699C-0.0708204 3.5893 0.0835266 3.22924 0.419907 3.03633C0.65212 2.90338 0.909597 2.83567 1.15981 2.75103C2.1243 2.42518 3.11856 2.34513 4.12528 2.40755C4.61324 2.43788 5.08874 2.54685 5.55905 2.68861C5.89197 2.78912 6.22801 2.87799 6.57304 3.04973C6.53324 2.9263 6.46541 2.88011 6.40865 2.82791C5.81722 2.28482 5.14446 1.90396 4.35957 1.72939C4.11559 1.67508 3.87196 1.64863 3.62556 1.63417C3.25042 1.61196 2.92649 1.30973 2.86489 0.913345C2.81471 0.590313 3.04831 0.20486 3.36773 0.0719084C3.59718 -0.0236613 3.82801 -0.0106134 4.06126 0.0440483C4.27375 0.0937728 4.49108 0.107879 4.7046 0.162188C5.31749 0.318062 5.89993 0.539883 6.44257 0.871379C7.20254 1.33547 7.84312 1.9304 8.36257 2.69426C8.45255 2.5405 8.53145 2.40085 8.6152 2.26402C9.27342 1.18842 10.194 0.446429 11.3665 0.0288844C11.6852 -0.0846708 12.1268 0.149845 12.2721 0.500385C12.4555 0.942263 12.2687 1.39684 11.8202 1.57422C10.9256 1.92829 10.2435 2.52322 9.79114 3.42038C10.0583 3.28355 10.3061 3.15588 10.5546 3.02999C10.8612 2.87446 11.1882 2.78524 11.5239 2.72741C11.8298 2.67451 12.1361 2.63501 12.4493 2.64559C13.1688 2.67028 13.862 2.82086 14.5316 3.08359C15.375 3.41438 16.153 3.86507 16.8742 4.4191C17.1669 4.64374 17.3998 4.90224 17.3348 5.3152C17.285 5.63153 17.1081 5.85017 16.8115 5.95738C16.5336 6.05754 16.2741 6.00005 16.0464 5.81843C15.194 5.13887 14.2717 4.60988 13.2006 4.37114C12.2842 4.16695 11.4301 4.26922 10.648 4.82324C10.6155 4.84616 10.5767 4.8638 10.5667 4.92234C10.7141 4.93327 10.8615 4.93644 11.0065 4.9569C11.8039 5.06834 12.5389 5.35751 13.2294 5.77259C13.9132 6.18379 14.4797 6.73111 15.0002 7.33591C15.6169 8.05251 16.09 8.85903 16.4748 9.72269C16.6125 10.0316 16.7357 10.3405 16.5457 10.6784C16.3807 10.9721 16.1395 11.1164 15.8076 11.1009C15.465 11.085 15.2341 10.902 15.1047 10.5895C14.6794 9.56258 14.1056 8.63721 13.3169 7.8582C13.0601 7.60428 12.7725 7.38916 12.4718 7.19168C12.3742 7.12749 12.3133 7.13913 12.2721 7.26997C12.3126 7.07953 12.2181 7.00406 12.0714 6.95328C11.7624 6.84678 11.4672 6.70325 11.1467 6.62602C10.6691 6.5114 10.187 6.52939 9.70394 6.5442C9.58523 6.54773 9.53055 6.59992 9.53678 6.73217C9.55997 7.21143 9.67763 7.6727 9.82644 8.12022C10.2525 9.40177 10.9117 10.5761 11.4859 11.79C11.8551 12.5707 12.2306 13.349 12.5763 14.1418C12.8546 14.7791 13.1342 15.4156 13.3629 16.073C13.5031 16.4753 13.6152 16.8887 13.7284 17.3002C13.916 17.9826 14.0385 18.6791 14.1613 19.3759C14.2447 19.8485 14.3087 20.3225 14.3631 20.7993C14.4776 21.8071 14.5243 22.8186 14.5853 23.8307C14.641 24.7532 14.6271 25.6733 14.6123 26.5934C14.6064 26.9478 14.5811 27.3068 14.559 27.6633C14.5503 27.8023 14.5977 27.8369 14.7237 27.8305C14.8964 27.8217 15.0701 27.8213 15.2424 27.8305C15.385 27.8379 15.4501 27.7674 15.4895 27.6394C15.6698 27.0578 15.8948 26.4925 16.1201 25.9283C16.599 24.7278 17.1313 23.5521 17.7508 22.4186C17.8131 22.3047 17.8504 22.182 17.848 22.0484C17.8459 21.9369 17.8494 21.8251 17.8556 21.7137C17.8629 21.5825 17.9217 21.4986 18.0636 21.5215C18.2228 21.5476 18.2989 21.4577 18.3751 21.3325C18.8859 20.4939 19.4569 19.7011 20.1044 18.9647C21.4361 17.4501 22.8861 16.0536 24.2849 14.6063C24.8722 13.9986 25.4193 13.3579 25.8284 12.6071C25.9038 12.4688 25.9651 12.3225 26.0405 12.1842C26.0872 12.0982 26.0582 12.0608 25.981 12.022C25.4429 11.7526 24.8826 11.5798 24.2763 11.5724C23.8136 11.5667 23.3543 11.5829 22.9069 11.7117C22.3213 11.8799 21.7804 12.1479 21.2665 12.478C20.6128 12.8976 20.0528 13.4259 19.5313 14.0008C19.3662 14.1827 19.1814 14.3238 18.926 14.3291C18.6083 14.3358 18.3692 14.188 18.2135 13.9154C18.039 13.6104 18.0733 13.3057 18.2757 13.0253C18.3744 12.8885 18.4924 12.7665 18.5979 12.6349C18.6246 12.6014 18.6879 12.5753 18.662 12.5231C18.6381 12.4755 18.5775 12.4896 18.5353 12.4999C18.345 12.5461 18.157 12.5094 17.9677 12.4932C17.8712 12.4847 17.8189 12.4438 17.8137 12.3422C17.7957 11.9793 17.7504 11.6175 17.8075 11.2529C17.8272 11.1256 17.8795 11.0808 17.9975 11.0818C18.3377 11.0843 18.6782 11.0839 19.0184 11.0818C19.1357 11.0811 19.1783 11.1238 19.1696 11.2518C19.1548 11.4743 19.161 11.6983 19.1607 11.9215C19.1607 11.9603 19.151 12.0121 19.2008 12.0266C19.2382 12.0375 19.26 11.9977 19.2852 11.9751C19.9642 11.3654 20.7166 10.8678 21.5472 10.5056C22.0908 10.2686 22.656 10.0965 23.2484 10.0048C23.7156 9.93252 24.179 9.94275 24.6431 9.96002C24.9037 9.9699 25.1677 10.0189 25.4214 10.0979C25.4699 10.1131 25.5277 10.1466 25.5619 10.0898C25.5906 10.0425 25.538 10.0066 25.5114 9.9699C25.0504 9.33653 24.4296 8.97823 23.6765 8.81954C23.0633 8.69046 22.449 8.69893 21.8368 8.77193C21.2492 8.84211 20.6702 8.9814 20.1172 9.20146C19.7296 9.35593 19.3171 9.09813 19.1451 8.77969C18.9025 8.33005 19.2351 7.81059 19.5652 7.68751C20.0629 7.50201 20.5705 7.36377 21.0903 7.25798C21.7146 7.13102 22.3424 7.06543 22.9761 7.09858C24.0347 7.15359 25.0248 7.42619 25.8928 8.08319C26.2236 8.33393 26.4925 8.64497 26.7908 8.93873L26.7922 8.93909ZM17.6435 29.4584V29.4577C13.0525 29.4577 8.46154 29.4577 3.87057 29.4577C3.28814 29.4577 2.70536 29.4626 2.12292 29.4545C1.97099 29.4524 1.94089 29.5141 1.97272 29.6432C2.0101 29.7966 2.04678 29.95 2.089 30.102C2.20009 30.5019 2.31326 30.9014 2.42677 31.3006C2.46068 31.4198 2.52471 31.4713 2.66244 31.4706C4.48035 31.4611 6.2986 31.459 8.11651 31.4569C8.54737 31.4565 8.97857 31.4657 9.40978 31.466C14.814 31.4667 20.2186 31.4667 25.6228 31.466C27.5051 31.466 29.3874 31.4636 31.2697 31.4629C31.7213 31.4629 32.1729 31.4611 32.6242 31.4703C32.7505 31.4727 32.8138 31.4318 32.8477 31.308C32.8955 31.1342 32.9706 30.9677 33.0132 30.7925C33.1007 30.431 33.2862 30.0921 33.2602 29.7038C33.2585 29.6767 33.2644 29.6414 33.2807 29.6213C33.408 29.4651 33.2872 29.457 33.1817 29.4555C32.9107 29.452 32.6397 29.4577 32.3688 29.4577C27.4605 29.4577 22.5521 29.4577 17.6438 29.4577L17.6435 29.4584ZM17.6362 33.0914C12.885 33.0914 8.13381 33.0914 3.38227 33.0914C3.15663 33.0914 3.14313 33.0992 3.24869 33.3034C3.52416 33.8373 3.80205 34.3702 4.12009 34.8808C4.2253 35.0501 4.33465 35.1322 4.53503 35.1026C4.67034 35.0825 4.81119 35.1012 4.94962 35.1012C8.61693 35.1012 12.2842 35.0942 15.9515 35.1033C19.405 35.1118 22.8584 35.0716 26.3118 35.1224C26.8386 35.1301 27.3677 35.1107 27.8955 35.1047C28.8928 35.0938 29.8906 35.1016 30.8879 35.1058C30.9783 35.1062 31.0305 35.0839 31.0831 35.0021C31.4392 34.4467 31.7625 33.8733 32.0438 33.2748C32.1296 33.0925 32.1321 33.0918 31.9241 33.0918C30.7651 33.0914 29.6064 33.0918 28.4475 33.0918C24.8435 33.0918 21.2398 33.0918 17.6359 33.0918L17.6362 33.0914ZM17.6393 36.7541C13.7059 36.7541 9.77211 36.7541 5.83868 36.7541C5.78677 36.7541 5.73486 36.7516 5.68294 36.7552C5.64557 36.7576 5.59262 36.7379 5.57705 36.7883C5.5639 36.8306 5.60231 36.8631 5.62896 36.8931C6.16398 37.4936 6.73638 38.0543 7.33889 38.584C7.46209 38.6923 7.59844 38.7343 7.76525 38.7336C9.78976 38.7283 11.8143 38.7297 13.8384 38.7297C18.4066 38.7297 22.9743 38.7297 27.5425 38.7315C27.6799 38.7315 27.7968 38.7071 27.909 38.6137C28.5129 38.1111 29.0503 37.5384 29.5929 36.971C29.6404 36.9213 29.739 36.8677 29.7002 36.7887C29.6639 36.715 29.5632 36.7555 29.4922 36.7555C25.5415 36.7538 21.5904 36.7541 17.6397 36.7541H17.6393ZM9.90362 40.3607C11.5025 41.2529 13.1806 41.8366 14.9517 42.1494C16.7375 42.4647 18.5273 42.4626 20.3086 42.1582C22.0763 41.8563 23.7596 41.2801 25.3221 40.3607H9.90327H9.90362ZM25.3245 27.8217C25.3245 27.8242 25.3245 27.8263 25.3245 27.8287C25.8609 27.8287 26.397 27.8291 26.9334 27.8287C27.1414 27.8287 27.2012 27.779 27.2137 27.566C27.2265 27.3491 27.2282 27.1315 27.2262 26.9143C27.2206 26.3268 27.0009 25.8119 26.6489 25.3661C26.1606 24.7479 25.5249 24.3822 24.7362 24.3004C24.0655 24.231 23.4391 24.3759 22.8996 24.7635C21.9382 25.4543 21.5551 26.4206 21.7171 27.6133C21.741 27.7903 21.8084 27.8344 21.9704 27.8316C22.5466 27.8217 23.1232 27.8231 23.6994 27.8217C24.2413 27.8206 24.7829 27.8217 25.3249 27.8217H25.3245Z" fill="#00A7F2"/>
</svg>
