<svg width="32" height="44" viewBox="0 0 32 44" fill="none" xmlns="http://www.w3.org/2000/svg">
<path d="M8.16969 27.6611C7.33782 27.6611 6.65907 28.3473 6.65907 29.1883C6.65907 30.0293 7.33782 30.7155 8.16969 30.7155C9.00155 30.7155 9.68027 30.0293 9.68027 29.1883C9.68027 28.3473 9.00155 27.6611 8.16969 27.6611ZM8.16969 29.6778C7.90481 29.6778 7.68959 29.4602 7.68959 29.1925C7.68959 28.9247 7.90481 28.7071 8.16969 28.7071C8.43456 28.7071 8.64976 28.9247 8.64976 29.1925C8.64976 29.4602 8.43456 29.6778 8.16969 29.6778Z" fill="#216B33"/>
<path d="M25.4858 29.1883C25.4858 28.3473 24.807 27.6611 23.9752 27.6611C23.1433 27.6611 22.4646 28.3473 22.4646 29.1883C22.4646 30.0293 23.1433 30.7155 23.9752 30.7155C24.807 30.7155 25.4858 30.0293 25.4858 29.1883ZM23.491 29.1883C23.491 28.9205 23.7062 28.7029 23.971 28.7029C24.2359 28.7029 24.4511 28.9205 24.4511 29.1883C24.4511 29.4561 24.2359 29.6736 23.971 29.6736C23.7062 29.6736 23.491 29.4561 23.491 29.1883Z" fill="#216B33"/>
<path d="M31.4827 16.8661C31.7682 16.8661 32 16.6318 32 16.3431V13.4059C32 13.1172 31.7682 12.8828 31.4827 12.8828H31.0647V9.0251C31.106 8.94979 31.1392 8.86611 31.1392 8.76987V5.83264C31.1392 5.74059 31.106 5.6569 31.0647 5.57741V3.38075C31.0647 3.20502 30.9777 3.03766 30.8288 2.94142L30.6756 2.841C30.2328 2.5523 29.7362 2.37657 29.2312 2.30126V0.523013C29.2312 0.23431 28.9995 0 28.7139 0C28.4283 0 28.1966 0.23431 28.1966 0.523013V2.31381C27.6213 2.39749 27.0584 2.61088 26.5742 2.97071C26.4418 3.06695 26.3632 3.22594 26.3632 3.39331V5.58996C26.3218 5.66527 26.2886 5.74895 26.2886 5.84519V8.78243C26.2886 8.87448 26.3218 8.95816 26.3632 9.03766V12.8954H25.9452C25.6596 12.8954 25.4278 13.1297 25.4278 13.4184V16.3556C25.4278 16.6444 25.6596 16.8787 25.9452 16.8787H26.3632V17.1464H5.45059V16.8787H6.05484C6.3404 16.8787 6.57217 16.6444 6.57217 16.3556V13.4184C6.57217 13.1297 6.3404 12.8954 6.05484 12.8954H5.45059V9.15063C5.54164 9.05858 5.59957 8.92887 5.59957 8.78661V5.84937C5.59957 5.70711 5.54164 5.57741 5.45059 5.48536V3.40167C5.45059 3.23013 5.36782 3.07113 5.22711 2.97071L5.14847 2.91632C4.73875 2.6318 4.27936 2.45188 3.80341 2.35565V0.523013C3.80341 0.23431 3.57165 0 3.28608 0C3.00052 0 2.76875 0.23431 2.76875 0.523013V2.29289C2.16451 2.34728 1.56854 2.54393 1.05121 2.90377L0.972571 2.95816C0.831857 3.05439 0.749094 3.21757 0.749094 3.38912V12.887H0.517331C0.231764 12.887 0 13.1213 0 13.41V16.3473C0 16.636 0.231764 16.8703 0.517331 16.8703H0.749094V20.3598H0.517331C0.231764 20.3598 0 20.5941 0 20.8828V27.6318C0 27.9205 0.231764 28.1548 0.517331 28.1548H0.749094V43.477C0.749094 43.7657 0.980858 44 1.26642 44H30.3528C30.4894 44 30.6218 43.9456 30.717 43.8452C30.8122 43.7448 30.866 43.6109 30.866 43.4728L30.717 28.1548H31.4785C31.7641 28.1548 31.9959 27.9205 31.9959 27.6318V20.8828C31.9959 20.5941 31.7641 20.3598 31.4785 20.3598H31.0605V16.8703H31.4785L31.4827 16.8661ZM30.0341 8.25105H27.3937V6.35565H30.0341V8.25105ZM30.0341 9.29289V12.6695H27.3937V9.29289H30.0341ZM30.0341 5.30962H27.3937V3.66109C28.2007 3.17992 29.223 3.17992 30.0341 3.66527V5.30962ZM1.78375 6.35146H4.42421V8.24686H1.78375V6.35146ZM4.42421 9.2887V12.6653H1.78375V9.2887H4.42421ZM4.42421 3.66109V5.30544H1.78375V3.66109C2.59079 3.17992 3.61304 3.17992 4.42421 3.66109ZM5.54163 15.8159H1.0388V13.9205H5.54163V15.8159ZM25.4361 23.3598C25.2498 23.0711 24.9684 22.8912 24.6415 22.887C24.6415 22.887 24.6332 22.887 24.6291 22.887C24.1738 22.887 23.7889 23.2259 23.6523 23.7531L23.1888 25.5439H22.746C22.746 25.5439 22.746 25.5439 22.746 25.5397L22.3404 23.7908C22.2162 23.251 21.8313 22.8954 21.3678 22.8912C21.3678 22.8912 21.3595 22.8912 21.3554 22.8912C20.9001 22.8912 20.5153 23.2301 20.3787 23.7573L19.9152 25.5481H19.4723C19.4723 25.5481 19.4723 25.5481 19.4723 25.5439L19.0667 23.795C18.9426 23.2552 18.5577 22.8996 18.0941 22.8954C18.0941 22.8954 18.0859 22.8954 18.0817 22.8954C17.6265 22.8954 17.2416 23.2343 17.105 23.7615L16.6415 25.5523H15.7848C15.7848 25.5523 15.7848 25.5523 15.7848 25.5481L15.3792 23.7992C15.255 23.2594 14.8701 22.9038 14.4025 22.8996C14.4025 22.8996 14.3942 22.8996 14.39 22.8996C13.9348 22.8996 13.5499 23.2385 13.4133 23.7657L12.9498 25.5565H12.507C12.507 25.5565 12.507 25.5565 12.507 25.5523L12.1014 23.8033C11.9772 23.2636 11.5923 22.9079 11.1247 22.9038C11.1247 22.9038 11.1164 22.9038 11.1122 22.9038C10.657 22.9038 10.2721 23.2427 10.1355 23.7699L9.67201 25.5607H9.22917C9.22917 25.5607 9.22917 25.5607 9.22917 25.5565L8.82359 23.8075C8.69943 23.2678 8.31452 22.9121 7.84685 22.9079C7.84685 22.9079 7.83859 22.9079 7.83445 22.9079C7.3792 22.9079 6.99431 23.2469 6.85774 23.7741L6.82462 23.9079V21.41H25.4361V23.3849V23.3598ZM24.9643 25.5439H24.2524L24.6291 24.0962L24.9643 25.5439ZM21.6865 25.5439H20.9746L21.3512 24.0962L21.6865 25.5439ZM18.4087 25.5439H17.6968L18.0735 24.0962L18.4087 25.5439ZM14.717 25.5439H14.0052L14.3818 24.0962L14.717 25.5439ZM11.4392 25.5439H10.7274L11.104 24.0962L11.4392 25.5439ZM1.03052 27.092V21.3849H1.39058V23.9289C1.39058 24.2176 1.62234 24.4519 1.90791 24.4519C2.19348 24.4519 2.42524 24.2176 2.42524 23.9289V21.3849H2.76875V23.9289C2.76875 24.2176 3.00052 24.4519 3.28608 24.4519C3.57165 24.4519 3.80341 24.2176 3.80341 23.9289V21.3849H4.1469V23.9289C4.1469 24.2176 4.37867 24.4519 4.66423 24.4519C4.9498 24.4519 5.18157 24.2176 5.18157 23.9289V21.3849H5.54163V27.092H1.03052ZM8.16139 25.5439H7.44956L7.82616 24.0962L8.16139 25.5439ZM5.94723 18.1674H26.2638V20.3473H5.94723V18.1674ZM1.77547 16.8954H4.41593V20.3473H1.77547V16.8954ZM4.73047 42.9372H1.77547V28.5356H4.73047V42.9372ZM21.7155 42.9372H10.4087V31.841C11.0171 31.2218 13.5623 28.7992 16.1283 28.7992C18.6942 28.7992 21.1319 31.159 21.7155 31.7615V42.9372ZM27.5054 42.9372V28.5356H29.6823L29.8231 42.9372H27.5054ZM22.746 42.9372V31.5565C22.746 31.4268 22.7004 31.3054 22.6135 31.2092C22.4894 31.0669 19.5137 27.7573 16.1283 27.7573C12.7429 27.7573 9.64304 31.1339 9.51474 31.2803C9.42783 31.3766 9.37816 31.5021 9.37816 31.6318V42.9372H5.76099V28.1339H6.04655C6.33212 28.1339 6.56388 27.8996 6.56388 27.6109V26.5816H25.4278V27.6109C25.4278 27.8996 25.6596 28.1339 25.9452 28.1339H26.4832V42.9372H22.746ZM26.4542 27.092V21.3849H26.8226V23.9289C26.8226 24.2176 27.0543 24.4519 27.3399 24.4519C27.6254 24.4519 27.8572 24.2176 27.8572 23.9289V21.3849H28.1966V23.9289C28.1966 24.2176 28.4283 24.4519 28.7139 24.4519C28.9995 24.4519 29.2312 24.2176 29.2312 23.9289V21.3849H29.5706V23.9289C29.5706 24.2176 29.8024 24.4519 30.0879 24.4519C30.3735 24.4519 30.6053 24.2176 30.6053 23.9289V21.3849H30.9736V27.092H26.4542ZM27.3854 20.3431V16.8912H30.0259V20.3431H27.3854ZM26.4542 13.9163H30.9571V15.8117H26.4542V13.9163Z" fill="#216B33"/>
<path d="M25.4195 33.1799C24.9684 32.7448 24.2649 32.7448 23.8138 33.1799L23.6192 33.3682C23.5158 33.4644 23.462 33.6025 23.462 33.7448V36.0628C23.462 36.3515 23.6937 36.5858 23.9793 36.5858H25.2664C25.552 36.5858 25.7838 36.3515 25.7838 36.0628V33.7448C25.7838 33.6025 25.7258 33.4686 25.6265 33.3682L25.432 33.1799H25.4195ZM24.7449 35.5397H24.4884V33.9665L24.5256 33.9289C24.5753 33.8787 24.6539 33.8787 24.7077 33.9289L24.7449 33.9665V35.5397Z" fill="#216B33"/>
<path d="M25.4195 38.3054C24.9684 37.8703 24.2649 37.8703 23.8138 38.3054L23.6192 38.4937C23.5158 38.59 23.462 38.728 23.462 38.8703V41.1883C23.462 41.477 23.6937 41.7113 23.9793 41.7113H25.2664C25.552 41.7113 25.7838 41.477 25.7838 41.1883V38.8703C25.7838 38.728 25.7258 38.5941 25.6265 38.4937L25.432 38.3054H25.4195ZM24.7449 40.6695H24.4884V39.0962L24.5256 39.0628C24.5753 39.0126 24.6539 39.0126 24.7077 39.0628L24.7449 39.1004V40.6736V40.6695Z" fill="#216B33"/>
<path d="M8.48008 33.1757C8.02897 32.7406 7.3254 32.7406 6.87429 33.1757L6.67976 33.364C6.57629 33.4602 6.52251 33.5983 6.52251 33.7406V36.0586C6.52251 36.3473 6.75428 36.5816 7.03984 36.5816H8.32696C8.61252 36.5816 8.84429 36.3473 8.84429 36.0586V33.7406C8.84429 33.5983 8.78634 33.4644 8.68702 33.364L8.49249 33.1757H8.48008ZM7.80548 35.5356H7.54889V33.9623L7.58612 33.9247C7.63579 33.8745 7.71442 33.8745 7.76822 33.9247L7.80548 33.9623V35.5356Z" fill="#216B33"/>
<path d="M8.48008 38.2971C8.02897 37.8619 7.3254 37.8619 6.87429 38.2971L6.67976 38.4854C6.57629 38.5816 6.52251 38.7197 6.52251 38.8619V41.1799C6.52251 41.4686 6.75428 41.7029 7.03984 41.7029H8.32696C8.61252 41.7029 8.84429 41.4686 8.84429 41.1799V38.8619C8.84429 38.7197 8.78634 38.5858 8.68702 38.4854L8.49249 38.2971H8.48008ZM7.80548 40.6569H7.54889V39.0837L7.58612 39.046C7.63579 38.9958 7.71442 38.9958 7.76822 39.046L7.80548 39.0837V40.6569Z" fill="#216B33"/>
</svg>
