<svg width="46" height="44" viewBox="0 0 46 44" fill="none" xmlns="http://www.w3.org/2000/svg">
<path d="M46 22.9251C45.4518 23.4067 44.9099 23.9507 44.2122 24.1571C43.1781 24.4635 43.041 25.1326 43.0535 26.0769C43.0971 30.0353 43.041 33.9937 43.0909 37.9522C43.1033 39.0528 42.7607 39.403 41.6519 39.403C29.2056 39.3717 16.7593 39.3717 4.31926 39.403C3.24781 39.403 2.93634 39.0465 2.9488 38.0085C2.99241 34.0125 2.9488 30.0103 2.97995 26.0143C2.98618 25.1201 2.88028 24.4072 1.86489 24.1946C1.79014 24.1821 1.72161 24.1383 1.65932 24.0945C0.986549 23.6318 0.00230737 23.3566 0.0147661 22.3561C0.0209955 21.3618 1.04261 21.343 1.69047 21.0241C3.47207 20.1424 5.39072 19.5295 6.94183 18.21C7.22838 17.9662 7.5087 17.7098 7.96968 17.3095C7.3592 17.1845 6.92937 17.1219 6.50577 17.0094C5.98874 16.8718 5.45924 16.753 4.97958 16.5279C4.1573 16.1276 3.13568 15.7149 3.07339 14.7144C3.00487 13.6388 4.20091 13.6325 4.90482 13.2698C6.36873 12.5194 7.96968 12.0379 9.30899 11.0498C9.88832 10.6184 10.4365 10.1431 11.1031 9.59904C10.53 9.26761 10.0378 9.41144 9.57685 9.39893C8.13787 9.35516 6.87954 8.83612 5.82054 7.87934C5.0481 7.17896 5.14154 6.54736 6.06972 6.0846C6.96052 5.64061 7.87624 5.24664 8.79818 4.86518C11.0034 3.95843 12.8971 2.62645 14.3486 0.712893C14.7285 0.206364 15.1833 0 15.8125 0C20.0983 0.0125069 24.3903 0.0125069 28.6761 0C29.1932 0 29.6666 0.0687879 29.9967 0.531543C31.797 3.05168 34.3386 4.46496 37.2166 5.37171C37.8021 5.55306 38.369 5.78444 38.9359 6.01582C40.1942 6.5286 40.2877 7.254 39.2038 8.10447C38.1136 8.96119 36.8864 9.43645 35.4848 9.39893C34.8806 9.38017 34.2826 9.39893 33.6222 9.53025C34.6376 10.7747 35.8897 11.6439 37.3287 12.2255C38.6431 12.757 39.9887 13.2073 41.3031 13.7326C42.4617 14.1953 42.5552 14.8707 41.6208 15.6836C40.4745 16.6842 39.0605 17.0094 37.4969 17.2408C37.7959 17.9474 38.369 18.2601 38.8611 18.629C40.5804 19.9172 42.6548 20.43 44.6046 21.2117C45.0656 21.3993 45.5266 21.5806 45.9875 21.7683V22.9189L46 22.9251ZM23.0198 24.8324C17.3137 24.8324 11.6076 24.8387 5.90775 24.8199C5.14777 24.8199 4.69303 24.9387 4.70548 25.8768C4.74909 29.4537 4.75532 33.0245 4.70548 36.6014C4.6868 37.7958 5.44055 37.6207 6.15693 37.6332C6.90445 37.6458 7.62083 37.7396 7.58346 36.5764C7.52116 34.544 7.54608 32.5054 7.57723 30.4668C7.60837 28.4469 8.77327 27.1212 10.7542 26.8898C11.5453 26.796 12.3676 26.8023 13.1587 26.9086C15.121 27.1712 16.1862 28.4407 16.2049 30.448C16.2236 32.4054 16.2236 34.3689 16.2049 36.3263C16.1987 37.0767 16.1925 37.6458 17.2452 37.6645C18.3727 37.6833 18.3603 37.0704 18.354 36.27C18.3354 34.2314 18.3229 32.1927 18.354 30.1604C18.379 28.522 19.3943 27.3526 20.9891 26.9711C21.7864 26.7835 22.59 26.8023 23.3874 26.8398C25.6486 26.9524 26.9568 28.3344 26.9817 30.6294C27.0004 32.5492 27.0565 34.4753 26.963 36.3951C26.9007 37.6333 27.5548 37.6458 28.4519 37.652C29.3302 37.6583 29.9033 37.5832 29.8597 36.4388C29.7787 34.3689 29.8161 32.2866 29.8472 30.2104C29.8722 28.5095 30.8875 27.3338 32.5446 26.9586C33.3419 26.7773 34.1455 26.796 34.9429 26.8461C37.1481 26.9774 38.4438 28.3531 38.4687 30.5794C38.4936 32.5367 38.531 34.5003 38.4562 36.4576C38.4064 37.627 39.0418 37.6583 39.889 37.6395C40.6988 37.627 41.3716 37.6958 41.3467 36.4826C41.2781 33.062 41.2781 29.6413 41.3467 26.2207C41.3716 25.0826 40.9854 24.8012 39.9014 24.8074C34.2763 24.8512 28.645 24.8262 23.0136 24.8324H23.0198ZM42.9227 22.6375C42.7109 22.2435 42.2873 22.2373 41.9509 22.1184C39.3595 21.243 37.0795 19.9047 35.3415 17.741C34.9242 17.222 34.3884 17.1782 33.8029 17.1782C26.3775 17.1782 18.9583 17.1907 11.5329 17.172C10.7854 17.172 10.2309 17.3971 9.73882 17.9724C8.24377 19.7296 6.37496 20.9678 4.25074 21.8433C3.78354 22.0372 3.25404 22.156 2.87405 22.6C4.50614 23.2628 41.4713 23.2753 42.9289 22.6437L42.9227 22.6375ZM39.1228 15.1271C39.1415 15.0395 39.1602 14.952 39.1726 14.8644C39.0044 14.7894 38.8487 14.7019 38.6743 14.6456C35.7838 13.6951 33.2049 12.263 31.2862 9.81791C30.9125 9.34265 30.4203 9.39893 29.9282 9.39893C24.8014 9.39893 19.6747 9.40519 14.5479 9.38643C13.8814 9.38643 13.4017 9.56152 12.9656 10.0931C11.4893 11.8628 9.66407 13.1573 7.53985 14.0452C7.01658 14.2641 6.39365 14.3892 5.84546 15.1271H39.1228ZM8.2936 7.22899C8.79195 7.54166 9.22801 7.62921 9.69521 7.62921C18.3104 7.62921 26.9257 7.62921 35.5347 7.62921C35.9832 7.62921 36.4317 7.6167 36.8428 7.19772C36.5999 7.07265 36.4441 6.96009 36.2697 6.90381C33.454 5.97204 30.9311 4.59003 29.0561 2.20747C28.7322 1.79474 28.2899 1.75722 27.8165 1.75722C24.1038 1.75722 20.391 1.76347 16.6783 1.75722C16.099 1.75722 15.6692 1.9073 15.2892 2.37631C13.7755 4.23358 11.8506 5.51554 9.65161 6.42854C9.20309 6.61615 8.69851 6.72871 8.2936 7.22899ZM14.4545 33.5497C14.4545 32.9744 14.4545 32.3991 14.4545 31.83C14.4545 28.8346 14.1866 28.5783 11.1591 28.7158C9.93193 28.7721 9.34637 29.3224 9.32145 30.5669C9.2903 32.593 9.32145 34.6253 9.30276 36.6515C9.29653 37.3206 9.51456 37.6458 10.2247 37.627C11.3273 37.5957 12.4361 37.5957 13.545 37.627C14.2551 37.6458 14.4794 37.3081 14.4669 36.6452C14.442 35.6134 14.4607 34.5753 14.4669 33.5435L14.4545 33.5497ZM25.2375 33.7123C25.2375 33.137 25.2375 32.5617 25.2375 31.9926C25.2375 28.8722 24.8077 28.4782 21.7054 28.7283C21.6681 28.7283 21.6307 28.7283 21.5933 28.7346C20.6402 28.8159 20.1232 29.3474 20.1107 30.298C20.0858 32.4429 20.1107 34.5878 20.092 36.7265C20.092 37.3456 20.3288 37.6458 20.9642 37.6332C22.0667 37.6145 23.1756 37.602 24.2782 37.6332C25.0568 37.6583 25.2624 37.2893 25.2375 36.5827C25.2064 35.6259 25.2313 34.6691 25.2313 33.7123H25.2375ZM31.5915 33.5435C31.5915 34.5753 31.6102 35.6134 31.5852 36.6452C31.5728 37.3018 31.7783 37.652 32.4947 37.6332C33.5973 37.602 34.7062 37.602 35.815 37.6332C36.5189 37.652 36.7556 37.3393 36.7432 36.664C36.7182 35.0943 36.7369 33.5247 36.7369 31.9551C36.7369 28.8722 36.276 28.4594 33.1675 28.7221C32.1646 28.8096 31.6226 29.3224 31.6039 30.3292C31.579 31.3986 31.6039 32.4742 31.6039 33.5435H31.5915Z" fill="#F58533"/>
<path d="M46 43.6866C45.5328 44.0305 44.9908 43.9993 44.4551 43.9993C30.1836 43.9993 15.9184 43.9993 1.64686 43.9993C1.34162 43.9993 1.03015 44.0055 0.731144 43.9617C0.313776 43.8992 0.0334542 43.6428 0.00230737 43.1988C-0.0288395 42.6923 0.257712 42.3984 0.718685 42.3046C1.04884 42.2358 1.40392 42.2483 1.74653 42.2483C15.937 42.2483 30.1338 42.2483 44.3243 42.2483C44.9036 42.2483 45.4767 42.2483 46 42.5422V43.6928V43.6866Z" fill="#F58533"/>
<path d="M23.0074 41.6917C16.5039 41.6917 9.99422 41.6917 3.49076 41.6917C3.14814 41.6917 2.7993 41.6917 2.45668 41.6792C1.93964 41.6542 1.53473 41.4291 1.50982 40.8788C1.4849 40.2597 1.92095 40.0158 2.47537 39.9658C2.74323 39.9408 3.0111 39.947 3.27896 39.947C16.4416 39.947 29.6105 39.947 42.7732 39.947C42.9663 39.947 43.1532 39.947 43.3463 39.9533C43.9692 39.9783 44.5548 40.1346 44.5112 40.8975C44.4738 41.5917 43.9007 41.698 43.3276 41.698C39.2349 41.698 35.136 41.698 31.0433 41.698C28.3646 41.698 25.686 41.698 23.0074 41.698V41.6917Z" fill="#F58533"/>
</svg>
