<svg width="38" height="44" viewBox="0 0 38 44" fill="none" xmlns="http://www.w3.org/2000/svg">
<path d="M18.9302 43.9902C12.9211 43.9902 6.91323 43.9902 0.904152 43.9902C0.014377 43.9902 0.0118986 43.9877 0.0106594 43.1026C0.00942012 41.9781 0.030487 40.8523 0.000745203 39.7278C-0.0128865 39.2011 0.158129 38.9998 0.709591 39.0121C2.11241 39.0415 3.51771 39.0231 4.92177 39.0207C5.731 39.0194 5.73719 39.0158 5.73719 38.1883C5.73967 33.9542 5.73719 29.7201 5.73967 25.4859C5.73967 24.5468 5.74339 24.5455 6.70752 24.5455C9.14387 24.5455 11.5802 24.5284 14.0166 24.5566C14.6139 24.564 14.8345 24.3737 14.7911 23.7844C14.7502 23.2344 14.7812 22.6808 14.7775 22.1283C14.775 21.8852 14.7415 21.6864 14.4057 21.6986C11.6855 21.7969 9.86263 20.3581 8.46724 18.2391C6.86738 15.8109 6.13375 13.0646 5.60212 10.2582C5.39268 9.1546 5.27248 8.03499 5.12253 6.92152C5.09279 6.70054 5.09279 6.47097 5.11385 6.24754C5.18945 5.46922 5.46208 4.77314 6.27874 4.52639C7.09292 4.27963 7.89719 4.29682 8.58497 4.95115C9.70152 6.01306 10.8367 7.05656 11.9842 8.08655C12.325 8.39223 12.6881 8.84278 13.2061 8.64513C13.6783 8.46589 13.708 7.93064 13.7749 7.48992C14.0314 5.80191 13.8431 4.1004 13.8988 2.40625C13.91 2.0797 13.9087 1.75192 13.8988 1.42414C13.8877 1.05584 14.0128 0.82873 14.4268 0.850828C14.7266 0.866787 14.8915 0.736657 14.9026 0.426064C14.9163 0.023397 15.2013 -0.00361105 15.5123 0.00129952C15.806 0.00621008 16.0588 0.050405 16.0601 0.421153C16.0626 0.946584 16.4579 0.845917 16.7714 0.847145C17.0862 0.847145 17.4802 0.946584 17.4802 0.421153C17.4802 0.0491774 17.733 0.00375506 18.0267 0.00252742C18.3341 0.00129978 18.629 0.0172595 18.6377 0.424837C18.6476 0.892568 18.9847 0.854511 19.297 0.849601C19.5969 0.84469 19.9587 0.923259 19.9761 0.449389C19.9909 0.0565436 20.2437 -0.00238367 20.5684 7.16112e-05C20.8931 0.0025269 21.1472 0.0602261 21.1434 0.460437C21.1397 0.850828 21.4223 0.842235 21.7023 0.853283C22.6045 0.888885 22.6082 0.89134 22.6082 1.7912C22.6095 4.14336 22.6392 6.49675 22.5946 8.84769C22.5748 9.90223 23.2526 10.6241 23.6628 11.4748C23.7843 11.7265 24.0544 11.6222 24.2787 11.589C25.7695 11.3668 27.2579 11.1778 28.7735 11.4061C30.0238 11.5951 31.0252 12.1685 31.8121 13.1309C32.5098 13.9841 32.4143 14.8472 31.5432 15.5359C30.9843 15.9778 30.3126 16.2 29.6508 16.4284C26.9406 17.3614 24.1746 18.1311 21.5115 19.1967C19.8472 19.8633 18.2064 20.5876 16.5521 21.2776C16.3141 21.377 16.1803 21.5133 16.1815 21.776C16.1852 22.5531 16.1865 23.3302 16.1803 24.1073C16.1778 24.4228 16.3302 24.548 16.6351 24.5443C17.0688 24.5382 17.5026 24.5443 17.9363 24.5443C22.4174 24.5443 26.8972 24.5443 31.3783 24.5443C32.278 24.5443 32.2805 24.5468 32.2817 25.4184C32.2855 29.6931 32.2991 33.9689 32.2743 38.2436C32.2706 38.8746 32.4639 39.0526 33.0835 39.0342C34.4864 38.9937 35.8917 39.0354 37.2957 39.0133C37.7939 39.0047 38.0008 39.1619 37.9909 39.6775C37.9661 40.8634 37.95 42.0517 37.9984 43.2364C38.0256 43.9091 37.7121 44.0012 37.142 44C31.071 43.9865 25.0012 43.9914 18.9302 43.9902ZM23.5476 25.9328C21.3591 25.9328 19.1706 25.9512 16.9833 25.9205C16.3724 25.9119 16.1555 26.0727 16.1654 26.7099C16.2026 28.9589 16.1803 31.208 16.1803 33.4582C16.1803 34.6859 16.1778 34.7067 17.4046 34.7178C17.8954 34.7227 18.054 34.9044 18.0441 35.3721C18.0218 36.353 18.0627 37.3363 18.0292 38.316C18.0119 38.839 18.1631 39.0465 18.7232 39.0293C19.9612 38.9937 21.2004 38.99 22.4384 39.0293C23.0407 39.0489 23.2167 38.8427 23.2093 38.2583C23.182 35.9884 23.213 33.7185 23.1882 31.4486C23.182 30.8704 23.3604 30.6592 23.9652 30.6678C26.0285 30.6973 28.0943 30.6604 30.1577 30.6924C30.7438 30.7009 30.9062 30.4947 30.8901 29.9472C30.8579 28.8644 30.8529 27.7792 30.8901 26.6964C30.9111 26.1071 30.7054 25.9156 30.1106 25.923C27.9233 25.9512 25.7348 25.934 23.5463 25.934L23.5476 25.9328ZM7.13506 32.4233C7.13506 34.4084 7.13753 36.3923 7.13258 38.3774C7.13258 38.7297 7.13258 39.0256 7.63323 39.0207C9.20211 39.0047 10.7722 39.0096 12.3423 39.0194C12.7426 39.0219 12.8938 38.8513 12.8889 38.4646C12.8765 37.6052 12.8839 36.7458 12.8876 35.8865C12.8926 34.5962 12.7984 34.7092 14.0525 34.7387C14.6362 34.7522 14.7973 34.541 14.7923 33.9923C14.7713 31.537 14.7713 29.0817 14.7923 26.6264C14.7973 26.0838 14.5965 25.9193 14.0661 25.9242C12.0016 25.9451 9.93574 25.9475 7.86993 25.923C7.31103 25.9156 7.11275 26.0776 7.12266 26.6534C7.15488 28.5759 7.13506 30.4996 7.13506 32.4233ZM8.8638 16.0724C9.06703 16.022 9.07695 15.8796 9.13271 15.7765C10.1687 13.8614 11.7091 12.4508 13.5977 11.3926C15.7267 10.1993 18.0305 9.52043 20.4433 9.20125C20.9848 9.13004 21.2289 8.95327 21.2166 8.36031C21.1806 6.54218 21.1905 4.72281 21.2128 2.90345C21.219 2.3952 21.0431 2.22333 20.5325 2.23192C19.0268 2.25525 17.5199 2.25648 16.0142 2.2307C15.4863 2.22088 15.2769 2.37556 15.2917 2.92554C15.324 4.11022 15.314 5.29612 15.2917 6.48079C15.2744 7.36592 15.1232 8.23387 14.7105 9.03061C14.1938 10.0287 13.3052 10.3368 12.268 9.90469C11.9049 9.75246 11.5653 9.55727 11.2754 9.29087C10.1848 8.29279 9.0943 7.29472 8.01368 6.28683C7.6766 5.97255 7.33953 5.6018 6.83764 5.81296C6.30601 6.03639 6.49189 6.56182 6.53155 6.95589C6.76452 9.27736 7.18091 11.5681 7.91206 13.7914C8.16982 14.5759 8.42139 15.3726 8.86504 16.0724H8.8638ZM19.0045 42.598C24.3717 42.598 29.7388 42.6042 35.106 42.5943C36.7814 42.5907 36.5435 42.8423 36.5918 41.1298C36.6079 40.5552 36.3898 40.3846 35.8346 40.3944C34.2038 40.4251 32.573 40.4226 30.9421 40.4214C21.5288 40.4165 12.1156 40.4067 2.70229 40.4018C1.26353 40.4018 1.42092 40.2864 1.41472 41.6957C1.40976 42.5943 1.41472 42.5968 2.34415 42.5968C7.89719 42.5968 13.4502 42.5968 19.0033 42.5968L19.0045 42.598ZM14.0897 20.3433C15.236 20.2991 16.272 19.9714 17.2696 19.5024C20.3553 18.0538 23.5624 16.9256 26.8179 15.9201C28.0386 15.5432 29.2679 15.1848 30.4204 14.6176C30.8901 14.3868 30.9037 14.1401 30.5629 13.7767C30.0808 13.2611 29.5021 12.9468 28.8094 12.813C27.4896 12.5589 26.1748 12.6841 24.8686 12.8866C20.9315 13.4955 17.1754 14.7465 13.4552 16.1104C12.3523 16.5143 11.2617 16.9563 10.1675 17.3835C9.92583 17.478 9.67302 17.5811 9.90972 17.9077C10.9482 19.3403 12.2643 20.3065 14.0897 20.3433ZM24.6022 35.5231C24.6022 36.4831 24.6146 37.4431 24.596 38.4032C24.5885 38.8009 24.6716 38.9605 25.1375 38.9765C26.9084 39.0366 28.678 38.9728 30.4464 38.9973C30.7934 39.0023 30.8665 38.8341 30.8665 38.5456C30.864 36.5642 30.8603 34.5827 30.8702 32.6013C30.8727 32.2011 30.6992 32.0612 30.3126 32.0636C28.6012 32.0722 26.8898 32.0734 25.1784 32.0636C24.7558 32.0612 24.5885 32.222 24.5972 32.6443C24.6158 33.6043 24.6034 34.5643 24.6022 35.5243V35.5231ZM11.0325 15.5457C11.3559 15.4254 11.6794 15.3051 12.0016 15.1835C15.1976 13.9731 18.4357 12.8891 21.7631 12.0838C21.9254 12.0445 22.1621 12.0801 22.2141 11.8382C22.3058 11.411 21.4074 10.4424 20.9712 10.5038C19.1916 10.7542 17.4443 11.136 15.785 11.8431C13.8827 12.6534 12.206 13.7595 11.0312 15.5457H11.0325ZM14.288 37.5524C14.288 37.8998 14.2867 38.246 14.288 38.5935C14.2892 38.8635 14.4131 39.0084 14.7019 39.0059C15.174 39.0023 15.6462 39.001 16.1183 39.017C16.4851 39.0293 16.6475 38.8758 16.6388 38.5112C16.6289 38.0214 16.6388 37.5315 16.6388 37.0417C16.6388 36.1124 16.6388 36.1075 15.7292 36.1112C14.0996 36.1173 14.2929 35.9381 14.2867 37.5536L14.288 37.5524Z" fill="#DC4A08"/>
</svg>
