<svg width="48" height="44" viewBox="0 0 48 44" fill="none" xmlns="http://www.w3.org/2000/svg">
<path d="M23.9646 43.9809C16.4871 43.9809 9.0185 43.9809 1.54099 43.9723C0.94457 43.9723 0.0365865 44.2033 0.000979341 43.3306C-0.0346279 42.3979 0.908961 42.6888 1.48758 42.6632C2.37776 42.6204 3.26794 42.6204 4.15812 42.6632C4.87916 42.6888 5.21743 42.4321 5.18183 41.7134C5.13732 40.9347 5.27084 40.2588 6.31235 40.1989C6.80195 40.1732 6.81976 39.7882 6.81086 39.4373C6.78415 38.7785 6.73964 38.1453 7.46959 37.726C7.80786 37.5292 7.70994 37.11 7.70994 36.7677C7.70994 35.3986 7.70994 34.0296 7.70994 32.6605C7.70994 31.7707 7.70994 30.9492 7.09571 30.1449C6.5082 29.3834 6.75745 28.4593 7.41618 27.7833C7.97699 27.2014 8.09272 26.5768 8.14613 25.8324C8.57341 19.8599 8.96509 13.8874 10.4339 8.04329C10.7544 6.77692 11.1727 5.54477 11.8315 4.38964C13.3092 1.77988 15.4367 0.00867606 18.6502 0.000119497C21.9172 -0.0169936 24.0981 1.80556 25.558 4.44098C26.9645 6.98228 27.4096 9.8145 27.8725 12.6211C28.5758 16.9165 29.0297 21.2375 29.1722 25.5757C29.2078 26.5255 29.5104 26.9276 30.552 26.8592C31.7537 26.7822 32.9732 26.8421 34.1839 26.8506C35.2076 26.8506 35.9999 27.2613 36.3648 28.2026C36.7209 29.1267 36.5162 29.9909 35.6705 30.5898C34.9939 31.0776 34.9939 31.7108 35.1631 32.3354C35.35 33.037 36.0444 32.7632 36.5251 32.7718C39.0443 32.8146 40.1659 33.867 40.2193 36.2885C40.2282 36.973 40.1748 37.6319 40.9136 38.1025C41.2875 38.3421 41.1629 38.864 41.154 39.2662C41.1362 39.8053 41.243 40.1818 41.9284 40.2417C42.6762 40.3015 42.8097 40.9005 42.7741 41.4567C42.7207 42.4407 43.2103 42.6974 44.1361 42.646C45.1331 42.5947 46.1301 42.6289 47.1271 42.646C47.5811 42.646 48.0173 42.7573 47.9995 43.3135C47.9817 43.7926 47.5811 43.9124 47.1716 43.9466C46.8511 43.9723 46.5307 43.9638 46.2102 43.9638C38.8039 43.9638 31.4065 43.9638 24.0002 43.9638L23.9646 43.9809ZM11.4843 24.3778C12.8908 24.3778 13.6148 23.7104 13.6563 22.3755C13.6563 22.3755 13.6563 22.3071 13.6563 22.2729C13.8344 17.4555 14.2172 12.6553 14.8937 7.87216C15.0895 6.52022 15.0005 6.41754 13.5495 6.4261C13.3715 6.4261 13.1934 6.41754 13.0154 6.43466C11.9205 6.56301 12.0095 7.50423 11.8938 8.16308C11.7603 8.94173 12.5169 8.69359 12.962 8.74493C13.4249 8.79627 13.9946 8.72782 14.0302 9.32678C14.0658 9.96852 13.4961 10.0455 12.9798 10.0712C12.6593 10.0883 12.3389 10.0798 12.0184 10.0969C11.6623 10.1054 11.4309 10.2509 11.2796 10.5846C10.6297 12.0221 10.968 12.5783 12.5614 12.6467C12.7038 12.6467 12.8463 12.6467 12.9887 12.681C13.3448 12.7408 13.5851 12.9291 13.594 13.2885C13.6029 13.6564 13.3537 13.8703 13.0154 13.9217C12.597 13.9815 12.1608 14.0072 11.7425 13.9815C10.9235 13.9302 10.6119 14.2896 10.5407 15.0597C10.4072 16.5228 10.3805 16.5229 11.965 16.5229C12.1074 16.5229 12.2499 16.5229 12.3923 16.54C12.7929 16.5742 13.0866 16.7453 13.1044 17.156C13.1222 17.5667 12.8463 17.7978 12.4546 17.8406C11.965 17.8919 11.4576 17.8833 10.968 17.9005C10.6386 17.909 10.3449 17.9518 10.1935 18.3112C9.64163 19.6118 10.1401 20.4246 11.5466 20.476C12.0362 20.4931 12.6593 20.4161 12.6682 21.1092C12.6682 21.768 12.0807 21.7766 11.5733 21.8023C11.2529 21.8194 10.9324 21.8023 10.6119 21.8194C10.3182 21.8194 10.0778 21.9049 9.90868 22.1873C9.20544 23.4023 9.76625 24.3863 11.1816 24.3863C11.2885 24.3863 11.3953 24.3863 11.5021 24.3863L11.4843 24.3778ZM25.6115 24.3778C25.9675 24.3778 26.3236 24.3607 26.6797 24.3778C27.4808 24.4291 27.6767 23.9756 27.5788 23.3424C27.4808 22.7178 27.9081 21.7766 26.6352 21.7937C26.1367 21.7937 25.6382 21.7937 25.1486 21.7424C24.7658 21.6996 24.4809 21.4685 24.4987 21.0578C24.5165 20.63 24.837 20.4845 25.2287 20.4674C25.5847 20.4503 25.9408 20.4674 26.2969 20.4674C26.8666 20.476 27.4808 20.4589 27.3028 19.6888C27.1515 19.0214 27.6233 17.9689 26.2969 17.9005C25.7628 17.8748 25.2287 17.8833 24.7035 17.8149C24.3563 17.7721 24.1427 17.5154 24.1605 17.156C24.1783 16.7967 24.4008 16.5827 24.7658 16.5571C25.2287 16.5314 25.6916 16.5571 26.1545 16.5485C26.4304 16.5485 26.7242 16.5827 26.8755 16.2576C27.3295 15.2993 26.4838 14.0072 25.3889 13.9987C25.2109 13.9987 25.0328 13.9987 24.8548 13.9987C24.3296 13.9644 23.6531 14.0072 23.6887 13.2799C23.7154 12.6125 24.3563 12.6981 24.8459 12.681C26.4037 12.6296 26.4482 12.5355 26.1545 11.0638C26.012 10.3621 25.6916 10.037 24.9438 10.0969C24.659 10.1225 24.3741 10.0969 24.0892 10.0798C23.6353 10.0455 23.1991 9.90862 23.208 9.38667C23.2169 8.83905 23.6976 8.80483 24.1427 8.7706C25.7005 8.65936 25.6916 8.60802 25.2109 7.17908C24.8459 6.09239 23.9646 6.52878 23.2614 6.44321C22.5136 6.35765 22.2288 6.67424 22.3445 7.40155C23.1813 12.7152 23.4483 18.0801 23.7599 23.4366C23.7955 24.1296 24.0358 24.4548 24.7747 24.3949C25.0595 24.3692 25.3444 24.3949 25.6293 24.3949L25.6115 24.3778ZM18.6413 29.7427C21.7748 29.7427 24.9082 29.7427 28.0416 29.7427C28.46 29.7427 28.9763 29.7855 29.003 29.1951C29.0297 28.6817 28.6648 28.3651 28.1841 28.2539C27.8102 28.1683 27.4096 28.1855 27.0179 28.1855C22.1041 28.1855 17.1904 28.1855 12.2766 28.1855C11.3508 28.1855 10.425 28.1769 9.4992 28.2026C8.82266 28.2282 8.24405 28.5277 8.27075 29.2208C8.29746 29.9395 9.0007 29.7342 9.44579 29.7342C12.508 29.7513 15.5702 29.7427 18.6324 29.7342L18.6413 29.7427ZM15.2498 34.3975C15.2498 35.219 15.2676 36.0404 15.2498 36.8618C15.232 37.5036 15.4812 37.8116 16.1755 37.803C17.7423 37.7859 19.3001 37.7859 20.8668 37.803C21.57 37.8116 21.8015 37.495 21.7926 36.8618C21.7748 35.219 21.7748 33.5846 21.7926 31.9418C21.7926 31.3428 21.57 31.069 20.9202 31.0776C19.3179 31.1032 17.7245 31.1032 16.1221 31.0776C15.4723 31.0776 15.232 31.3514 15.2498 31.9418C15.2765 32.7632 15.2498 33.5846 15.2498 34.4061V34.3975ZM18.6681 18.5251C17.8135 18.5251 16.9589 18.5251 16.1132 18.5251C15.6414 18.5251 15.2676 18.6192 15.2409 19.1754C15.1696 20.6728 15.0895 22.1787 15.0183 23.6761C15.0005 24.0612 15.134 24.3521 15.6147 24.3607C16.0954 24.3692 16.2112 24.0869 16.2201 23.6933C16.2379 23.1114 16.2201 22.5381 16.4693 21.9819C16.8699 21.0921 17.8224 20.6043 18.2408 19.7059C18.3832 19.4064 18.8906 19.4064 19.0686 19.7059C19.8075 20.9637 21.3564 21.8536 21.0626 23.6162C20.9914 24.0184 21.116 24.3863 21.6769 24.3607C22.1487 24.3436 22.2644 24.027 22.2555 23.659C22.2199 22.1873 22.2555 20.7241 22.0596 19.261C21.9795 18.6877 21.668 18.5165 21.1339 18.5251C20.3149 18.5422 19.4959 18.5251 18.677 18.5251H18.6681ZM18.5879 26.8506C21.3208 26.8506 24.0625 26.8506 26.7954 26.8506C27.2049 26.8506 27.7212 26.9362 27.739 26.3116C27.7479 25.704 27.2672 25.7212 26.831 25.7212C21.392 25.7212 15.953 25.7212 10.514 25.7212C10.0511 25.7212 9.5081 25.6869 9.517 26.3458C9.5259 26.9875 10.0867 26.8506 10.4784 26.8506C13.1756 26.8592 15.8818 26.8506 18.579 26.8506H18.5879ZM18.677 12.3472C18.677 12.3472 18.677 12.3472 18.677 12.3558C17.9292 12.3558 17.1904 12.3558 16.4426 12.3558C16.0509 12.3558 15.7394 12.4841 15.7038 12.912C15.6058 14.1013 15.5168 15.2907 15.4367 16.4801C15.4189 16.7967 15.4723 17.1389 15.9085 17.1389C16.2646 17.1389 16.4159 16.8737 16.3803 16.5742C16.2379 15.1452 17.5731 14.4778 18.1428 13.4168C18.3565 13.0232 18.9084 13.0147 19.1131 13.3997C19.7007 14.4949 21.0448 15.188 20.9825 16.6255C20.9736 16.925 21.1428 17.1646 21.4988 17.1389C21.9884 17.1133 21.8905 16.7624 21.8727 16.4544C21.8282 15.8383 21.8371 15.2223 21.7392 14.6233C21.3386 12.0649 22.0596 12.3644 19.1933 12.3301C19.0152 12.3301 18.8372 12.3301 18.6591 12.3301L18.677 12.3472ZM18.677 5.10839C20.2081 5.10839 21.7303 5.11695 23.2614 5.09983C23.5373 5.09983 24.0002 5.29663 24.0625 4.86025C24.107 4.52654 23.8044 4.20995 23.475 4.07305C23.1902 3.96181 22.8519 3.93614 22.5403 3.92758C19.9499 3.91903 17.3506 3.91903 14.7602 3.92758C14.4753 3.92758 14.1815 3.92758 13.9234 4.02171C13.5673 4.1415 13.3092 4.44953 13.3359 4.80035C13.3715 5.27097 13.8255 5.09128 14.1014 5.09128C15.6325 5.10839 17.1547 5.09983 18.6859 5.09983L18.677 5.10839ZM24.9705 34.4403C24.9705 33.5846 24.9527 32.7375 24.9705 31.8819C24.9883 31.2316 24.6501 31.069 24.0447 31.0776C23.5106 31.0776 23.1457 31.1974 23.1546 31.8049C23.1635 33.5419 23.1635 35.2874 23.1546 37.0244C23.1546 37.6062 23.4661 37.7945 24.018 37.7945C24.6056 37.7945 24.9794 37.6405 24.9616 36.9902C24.9438 36.1345 24.9616 35.2874 24.9616 34.4317L24.9705 34.4403ZM35.0563 35.9805C35.0563 37.1955 35.7002 37.803 36.988 37.803C37.2372 37.803 37.4865 37.7859 37.7268 37.803C38.3855 37.8373 38.7238 37.5634 38.6882 36.9046C38.6704 36.5966 38.6882 36.2971 38.6882 35.989C38.6526 34.5687 38.074 34.1237 36.2936 34.1408C35.0474 34.1494 35.0474 34.1579 35.0474 35.8864C35.0474 35.9206 35.0474 35.9548 35.0474 35.989L35.0563 35.9805ZM36.0355 42.6546C37.4241 42.6546 38.8039 42.6632 40.1926 42.6546C40.6288 42.6546 41.2163 42.783 41.2074 42.0899C41.1985 41.4738 40.6555 41.5679 40.246 41.5679C37.4419 41.5594 34.629 41.5594 31.8249 41.5679C31.4243 41.5679 30.8813 41.4652 30.8635 42.0899C30.8457 42.783 31.4421 42.6546 31.8783 42.6632C33.267 42.6803 34.6468 42.6632 36.0355 42.6632V42.6546ZM18.6235 6.44321C18.1606 6.44321 17.6978 6.44321 17.2438 6.44321C16.8432 6.44321 16.5316 6.58012 16.4693 6.99083C16.3002 8.13741 16.1577 9.28399 16.0064 10.4306C15.9797 10.6103 16.0509 10.79 16.2646 10.79C16.3714 10.79 16.5761 10.653 16.5761 10.5846C16.5494 9.44657 17.6087 8.84761 18.0093 7.91494C18.2497 7.35021 18.8372 7.12774 19.122 7.68392C19.5849 8.59091 20.5908 9.20698 20.6264 10.3279C20.6264 10.5675 20.7155 10.8498 21.0537 10.7728C21.3653 10.7044 21.3297 10.4135 21.303 10.1739C21.2318 9.60059 21.1695 9.01874 21.0626 8.45401C20.6799 6.35765 21.2229 6.41754 18.6146 6.43466L18.6235 6.44321ZM18.5167 42.6546C19.7986 42.6546 21.0715 42.6546 22.3534 42.6546C22.7362 42.6546 23.1991 42.6888 23.2258 42.1498C23.2525 41.6107 22.8341 41.5679 22.4246 41.5679C19.7986 41.5679 17.1726 41.5679 14.5465 41.5679C14.1815 41.5679 13.8077 41.5936 13.7899 42.0813C13.7721 42.6289 14.1726 42.6632 14.5821 42.6632C15.8907 42.6632 17.2082 42.6632 18.5167 42.6632V42.6546ZM10.7187 34.5002C10.7187 33.6103 10.7187 32.7204 10.7187 31.8305C10.7187 31.2573 10.4072 31.069 9.83747 31.069C9.27665 31.069 9.08082 31.3257 9.08082 31.822C9.08082 33.5333 9.08972 35.2446 9.08082 36.9474C9.08082 37.4864 9.27665 37.7859 9.88198 37.7774C10.4784 37.7774 10.7098 37.4864 10.7098 36.9474C10.7098 36.1259 10.7098 35.3045 10.7098 34.4831L10.7187 34.5002ZM13.8611 34.4061C13.8611 33.559 13.8611 32.7033 13.8611 31.8562C13.8611 31.3685 13.7008 31.0861 13.1311 31.0776C12.597 31.0776 12.2231 31.1803 12.2231 31.7878C12.2231 33.559 12.2231 35.3216 12.2231 37.0928C12.2231 37.6233 12.5614 37.7859 13.0599 37.7859C13.5762 37.7859 13.8522 37.5806 13.8522 37.0586C13.8522 36.1773 13.8522 35.2874 13.8522 34.4061H13.8611ZM34.4687 40.2245C35.9286 40.2245 37.3796 40.2245 38.8395 40.2245C39.2134 40.2245 39.703 40.2759 39.6763 39.7112C39.6496 39.232 39.2223 39.2491 38.8751 39.2491C35.9999 39.2491 33.1246 39.2491 30.2493 39.2491C29.8665 39.2491 29.3769 39.2234 29.4125 39.7796C29.4481 40.3272 29.9555 40.2245 30.3205 40.2245C31.7092 40.2417 33.089 40.2245 34.4776 40.2245H34.4687ZM27.8369 34.5772H27.8102C27.8102 33.6189 27.8191 32.6691 27.8102 31.7108C27.8102 31.2316 27.4808 31.0776 27.0268 31.0861C26.5818 31.0861 26.377 31.3 26.377 31.7193C26.377 33.5247 26.377 35.3387 26.377 37.1442C26.377 37.7089 26.7776 37.7945 27.2494 37.7945C27.8102 37.7945 27.8547 37.4522 27.8458 37.0415C27.828 36.2201 27.8458 35.4072 27.8458 34.5858L27.8369 34.5772ZM30.73 34.4146C30.73 33.5932 30.73 32.7718 30.73 31.9503C30.73 31.4626 30.6677 31.0605 30 31.0776C29.3947 31.0947 29.3324 31.4712 29.3324 31.9161C29.3324 33.559 29.3324 35.2018 29.3324 36.8361C29.3324 37.2982 29.3502 37.7603 30.0178 37.7688C30.6855 37.7859 30.7389 37.3495 30.73 36.8704C30.73 36.0489 30.73 35.2275 30.73 34.4061V34.4146ZM32.1187 34.4146C32.1187 35.2703 32.1187 36.1174 32.1187 36.973C32.1187 37.4351 32.2433 37.7859 32.8219 37.7859C33.3827 37.7859 33.5519 37.4693 33.5519 36.9987C33.5519 35.296 33.5519 33.5932 33.5519 31.8904C33.5519 31.4198 33.4183 31.0947 32.8397 31.0947C32.2611 31.0947 32.1098 31.3942 32.1187 31.8733C32.1187 32.729 32.1187 33.5761 32.1187 34.4317V34.4146ZM32.6528 28.2111C32.6528 28.2111 32.6528 28.194 32.6528 28.1855C32.1899 28.1855 31.7359 28.1769 31.273 28.1855C30.8902 28.194 30.4184 28.1512 30.4718 28.7245C30.5074 29.1951 30.552 29.7256 31.2552 29.7342C32.2433 29.7342 33.2314 29.7513 34.2195 29.7171C34.7002 29.7 35.0207 29.4347 35.0028 28.9299C34.985 28.4935 34.6735 28.2453 34.2462 28.2197C33.721 28.1855 33.1869 28.2197 32.6617 28.2197L32.6528 28.2111ZM9.4903 42.6546C10.2024 42.6546 10.9146 42.6546 11.6178 42.6546C12.0095 42.6546 12.3389 42.5434 12.3211 42.0813C12.3033 41.6792 12.0095 41.5765 11.6623 41.5765C10.238 41.5765 8.82266 41.5765 7.39838 41.5765C6.99779 41.5765 6.67733 41.6877 6.70403 42.1498C6.73074 42.6204 7.09571 42.6632 7.46959 42.6632C8.14612 42.6632 8.82266 42.6632 9.4903 42.6632V42.6546ZM18.4099 40.216C19.2912 40.216 20.1814 40.216 21.0626 40.216C21.4009 40.216 21.7303 40.1475 21.7214 39.7283C21.7214 39.3175 21.3831 39.2491 21.0448 39.2491C19.3446 39.2491 17.6443 39.2491 15.953 39.2491C15.6147 39.2491 15.2854 39.3347 15.2943 39.7454C15.2943 40.1646 15.6325 40.216 15.9708 40.216C16.7809 40.216 17.5998 40.216 18.4099 40.216ZM11.0214 40.216C11.7603 40.216 12.508 40.216 13.2469 40.216C13.5584 40.216 13.8166 40.1047 13.8166 39.7539C13.8166 39.4117 13.5762 39.2662 13.2647 39.2662C11.7781 39.2576 10.2915 39.2576 8.81376 39.2662C8.5111 39.2662 8.24404 39.3946 8.24404 39.7368C8.24404 40.1561 8.56451 40.2245 8.90278 40.2245C9.60602 40.2245 10.3182 40.2245 11.0214 40.2245V40.216ZM27.1426 42.646C27.6767 42.646 28.2019 42.646 28.736 42.646C29.0921 42.646 29.3591 42.5519 29.368 42.1327C29.3769 41.7476 29.1989 41.5594 28.8072 41.5594C27.6411 41.5594 26.4749 41.5594 25.3088 41.5594C24.9438 41.5594 24.6946 41.7219 24.7035 42.1155C24.7035 42.5091 24.9972 42.6289 25.3444 42.6375C25.9408 42.6461 26.5461 42.6375 27.1426 42.6375V42.646ZM21.5967 2.39596C20.0122 1.00124 17.1369 1.01835 15.7127 2.39596H21.5967ZM19.6562 23.4879C19.6562 22.675 19.4692 21.8279 18.6859 21.8194C17.8224 21.8194 17.68 22.7007 17.6087 23.4451C17.5375 24.1639 17.8669 24.3949 18.5968 24.3949C19.3446 24.3949 19.7808 24.2066 19.6562 23.4879ZM25.5313 40.2074C25.5313 40.2074 25.5313 40.2074 25.5313 40.1989C26.1367 40.1989 26.742 40.2074 27.3473 40.1989C27.6144 40.1989 27.8458 40.0962 27.8814 39.7967C27.917 39.4459 27.6856 39.2748 27.374 39.2662C26.1634 39.2491 24.9527 39.2491 23.751 39.2576C23.4305 39.2576 23.1991 39.4288 23.2258 39.771C23.2525 40.1304 23.5284 40.1989 23.8311 40.2074C24.4008 40.216 24.9705 40.2074 25.5402 40.2074H25.5313Z" fill="#A08A0F"/>
<path d="M16.407 34.3804C16.3951 32.9543 17.134 32.2413 18.6235 32.2413C20.5908 32.2413 20.6264 32.2755 20.6264 34.2178C20.6264 35.8151 19.8283 36.6108 18.2319 36.6051C17.0331 36.6051 16.4278 35.8635 16.4159 34.3804H16.407Z" fill="#A08A0F"/>
</svg>
