<svg width="44" height="44" viewBox="0 0 44 44" fill="none" xmlns="http://www.w3.org/2000/svg">
<path d="M0 40.7358C0.13195 40.5614 0.277669 40.3858 0.508294 40.3744C0.807763 40.3594 0.91906 40.1747 1.01544 39.9326C1.32524 39.1478 1.64192 38.3653 1.96778 37.5863C2.08137 37.3167 2.13185 37.0447 2.13185 36.7533C2.12726 34.9497 2.12956 33.1472 2.12956 31.3435C2.12956 30.8318 1.88478 30.519 1.39523 30.405C1.10723 30.3384 0.89726 30.1881 0.827269 29.8887C0.763015 29.6133 0.833006 29.3701 1.05904 29.198C1.80944 28.6254 2.08137 27.8166 2.12038 26.9297C2.16168 26.0014 2.11808 25.0698 2.13529 24.1393C2.15136 23.2317 2.68145 22.6592 3.57756 22.5881C3.978 22.5559 4.11799 22.3884 4.1111 21.9914C4.09274 20.9037 4.10192 19.8161 4.10651 18.7284C4.10995 18.0663 4.1983 17.4135 4.4186 16.7882C5.17244 14.6495 6.65372 13.3002 8.86474 12.7942C9.30305 12.6944 9.46483 12.5189 9.42352 12.0794C9.3891 11.7111 9.4109 11.336 9.41893 10.9642C9.42926 10.4846 9.68972 10.1783 10.081 10.1645C10.4688 10.1519 10.7511 10.4376 10.7866 10.9241C10.8153 11.3233 10.8314 11.7261 10.805 12.1242C10.7774 12.5338 10.9392 12.7139 11.3374 12.7874C12.3299 12.9698 13.2019 13.4184 13.9672 14.0735C14.1818 14.2571 14.386 14.451 14.6786 14.7161C14.6786 14.2433 14.666 13.8636 14.6809 13.4861C14.8025 10.4674 16.1323 8.16122 18.8929 6.88421C19.7994 6.46428 20.0977 6.0237 20.0025 5.0909C19.9279 4.35889 20.2962 3.75423 20.9364 3.37216C21.2153 3.20579 21.2898 3.00271 21.2841 2.70555C21.2715 2.06188 21.2703 1.41707 21.2887 0.773401C21.3025 0.289217 21.5732 0.00582023 21.9771 8.34524e-05C22.3994 -0.00565332 22.6759 0.284627 22.6885 0.7952C22.7046 1.42395 22.7069 2.055 22.6908 2.68375C22.6828 2.99927 22.7677 3.20694 23.058 3.38249C23.6799 3.75767 23.9736 4.34626 23.9896 5.07024C23.9965 5.37085 24.008 5.67261 23.9874 5.97207C23.9656 6.29677 24.0964 6.45166 24.4073 6.56066C25.8656 7.07697 27.044 7.97535 27.9424 9.23859C28.9716 10.6865 29.3365 12.3192 29.2998 14.0678C29.2963 14.2537 29.2504 14.4545 29.3732 14.6759C30.3462 13.6226 31.5016 12.979 32.867 12.7231C33.1286 12.6738 33.1562 12.4845 33.1596 12.2722C33.1688 11.8006 33.1607 11.3268 33.1963 10.8575C33.2284 10.4284 33.5118 10.1645 33.8733 10.1645C34.2508 10.1645 34.5365 10.464 34.5514 10.9023C34.5652 11.3164 34.5801 11.7341 34.5514 12.1471C34.5238 12.5349 34.665 12.6898 35.0505 12.7782C38.0039 13.4528 39.8615 15.8015 39.8695 18.8397C39.873 19.9136 39.8787 20.9864 39.8661 22.0603C39.8615 22.4056 40.0061 22.5456 40.3365 22.5835C41.3611 22.7005 41.835 23.2283 41.8431 24.2517C41.8499 25.1673 41.8017 26.0863 41.858 26.9985C41.9107 27.8475 42.1666 28.6415 42.9009 29.1888C43.1144 29.3471 43.197 29.5686 43.158 29.8313C43.1189 30.0963 42.9686 30.2788 42.7174 30.3637C42.5831 30.4084 42.4363 30.4417 42.2974 30.436C41.9291 30.4211 41.8247 30.6104 41.8408 30.942C41.8545 31.2276 41.8534 31.5156 41.8339 31.8002C41.8029 32.2717 41.5172 32.5746 41.1305 32.5723C40.7439 32.57 40.4593 32.2614 40.4352 31.7933C40.4191 31.4789 40.418 31.1634 40.4295 30.849C40.4421 30.4761 40.2138 30.4325 39.9258 30.4417C39.6527 30.4509 39.3578 30.4015 39.3589 30.8261C39.3635 32.6148 39.3647 34.4035 39.3567 36.1934C39.3555 36.5755 39.5861 36.595 39.8672 36.5869C40.1415 36.5801 40.4386 36.6294 40.4283 36.2014C40.4191 35.8148 40.4214 35.4281 40.4318 35.0426C40.4455 34.5366 40.7129 34.2165 41.111 34.205C41.5229 34.1936 41.8224 34.5251 41.8362 35.0472C41.8511 35.6335 41.8419 36.2209 41.8431 36.8072C41.8431 37.008 41.8511 37.2054 41.9303 37.397C42.2882 38.2713 42.6405 39.1467 42.9939 40.0221C43.0673 40.2045 43.1729 40.3216 43.3874 40.3663C43.8292 40.457 44.0334 40.7277 43.9956 41.1041C43.9577 41.4712 43.6835 41.6938 43.2417 41.711C43.0983 41.7168 42.956 41.7133 42.8126 41.7133C41.3531 41.7133 39.8925 41.711 38.433 41.7168C38.3079 41.7168 38.1278 41.6387 38.0785 41.8521C38.0337 42.0472 38.3837 42.6358 38.5845 42.6737C38.8965 42.7333 39.1191 42.8825 39.188 43.2003C39.2649 43.5537 39.1065 43.8095 38.8185 44H5.15293C4.89936 43.8302 4.72725 43.611 4.76741 43.2875C4.81101 42.9249 5.0336 42.7425 5.38471 42.6748C5.58665 42.6358 5.9607 42.0438 5.88841 41.8579C5.78056 41.5814 5.51551 41.7225 5.32734 41.7214C3.85294 41.7076 2.37854 41.7064 0.904144 41.7191C0.534684 41.7225 0.227183 41.6422 0 41.3381V40.7358ZM21.9852 42.6782C23.4882 42.6782 24.9902 42.6782 26.4933 42.6782C29.7989 42.6782 33.1045 42.6737 36.4113 42.684C36.7727 42.684 36.8955 42.606 36.7188 42.2514C36.6109 42.0346 36.5318 41.8028 36.44 41.5779C36.2434 41.093 35.877 40.8505 35.3408 40.8505C26.639 40.8505 17.9383 40.8459 9.2365 40.8551C7.5854 40.8562 7.95371 40.5958 7.29511 42.1723C7.08514 42.6748 7.09088 42.6782 7.64392 42.6782C12.4239 42.6782 17.204 42.6782 21.984 42.6782H21.9852ZM37.9454 33.5109C37.9454 32.6527 37.9373 31.7944 37.9488 30.9362C37.9534 30.6023 37.8524 30.4348 37.4864 30.4371C35.9994 30.4474 34.5112 30.4474 33.0242 30.4371C32.672 30.4348 32.5412 30.5828 32.5423 30.9259C32.5492 32.6561 32.5492 34.3875 32.5423 36.1177C32.5412 36.4711 32.6903 36.5915 33.0357 36.5892C34.5227 36.5778 36.0109 36.5789 37.4979 36.5892C37.8364 36.5915 37.9534 36.4538 37.9488 36.1291C37.9373 35.2572 37.9454 34.384 37.9454 33.512V33.5109ZM6.02839 33.5086C6.02839 34.3668 6.03872 35.225 6.0238 36.0832C6.01692 36.4458 6.1351 36.595 6.51718 36.5915C7.99043 36.5766 9.46368 36.5766 10.9358 36.5915C11.3179 36.595 11.4349 36.4355 11.4326 36.0787C11.4234 34.3771 11.4223 32.6745 11.4326 30.9729C11.4349 30.592 11.3029 30.4337 10.9082 30.4371C9.44991 30.4509 7.99043 30.452 6.5321 30.4371C6.12592 30.4325 6.01462 30.6046 6.02266 30.9787C6.03987 31.822 6.02839 32.6664 6.02839 33.5097V33.5086ZM21.9875 24.7233C24.4337 24.7233 26.8811 24.7187 29.3273 24.7279C29.683 24.729 29.8918 24.6671 29.8895 24.2391C29.8884 23.8203 29.6933 23.74 29.3319 23.7411C27.558 23.7515 25.783 23.7457 24.0092 23.7446C23.8233 23.7446 23.6351 23.748 23.4527 23.7171C23.0304 23.6471 22.7975 23.3671 22.8193 22.9862C22.84 22.6305 23.097 22.3827 23.4997 22.3425C23.6558 22.3265 23.8141 22.3333 23.9713 22.3322C25.7738 22.3322 27.5775 22.3288 29.3801 22.3333C29.6715 22.3333 29.8872 22.2955 29.8792 21.9226C29.8723 21.5922 29.7002 21.5176 29.4122 21.5176C24.4612 21.521 19.5114 21.521 14.5604 21.5176C14.2724 21.5176 14.098 21.591 14.0934 21.9226C14.0888 22.2542 14.2575 22.3356 14.5489 22.3333C15.4221 22.3265 16.2941 22.3311 17.1673 22.3311C18.2401 22.3311 19.314 22.3253 20.3868 22.3379C20.8481 22.3437 21.1304 22.603 21.1533 22.985C21.1774 23.3924 20.9089 23.678 20.435 23.7297C20.2365 23.7515 20.0346 23.7434 19.8349 23.7434C18.0898 23.7434 16.3434 23.748 14.5983 23.7411C14.2724 23.74 14.0923 23.8215 14.0865 24.1944C14.0796 24.5776 14.2036 24.729 14.604 24.7267C17.0651 24.7141 19.5263 24.7198 21.9875 24.721V24.7233ZM23.6741 32.4048C23.6741 31.145 23.6695 29.8864 23.6776 28.6266C23.6787 28.3765 23.6236 28.194 23.3896 28.0586C23.0132 27.8395 22.856 27.4769 22.8262 27.0536C22.7811 26.4042 22.4311 26.0802 21.7763 26.0818C21.1579 26.0829 21.1453 26.0841 21.1579 26.7025C21.1705 27.2968 21.0535 27.8154 20.4867 28.1286C20.3054 28.2296 20.3019 28.4006 20.3019 28.5761C20.3019 29.1773 20.3019 29.7785 20.3019 30.3797C20.3019 32.2832 20.3019 34.1867 20.3042 36.0901C20.3042 36.2691 20.2583 36.4734 20.4935 36.5651C20.9594 36.7464 21.2795 36.5376 21.2807 36.0419C21.283 34.0673 21.2807 32.0916 21.2818 30.117C21.2818 29.3999 21.517 29.0442 21.9852 29.0408C22.4544 29.0385 22.6954 29.3965 22.6954 30.1101C22.6965 32.0709 22.6988 34.0318 22.6931 35.9926C22.6931 36.338 22.6965 36.5984 23.1773 36.5984C23.6385 36.5984 23.6833 36.3758 23.6787 36.011C23.6661 34.8085 23.6741 33.6061 23.6741 32.4048ZM14.5638 19.4202C14.4938 19.2894 14.4147 19.3043 14.347 19.3043C11.545 19.3032 8.74197 19.3043 5.94004 19.2997C5.61992 19.2997 5.51321 19.4386 5.5178 19.7426C5.52928 20.3714 5.5201 21.0013 5.5201 21.63C5.5201 22.1754 5.78629 22.4179 6.31868 22.3574C6.46096 22.3414 6.60438 22.3414 6.74666 22.3299C8.56986 22.1934 10.3919 22.0477 12.2151 21.9249C12.5513 21.9019 12.689 21.77 12.7406 21.4476C12.8611 20.6903 13.2902 20.1453 13.9557 19.7759C14.1622 19.6612 14.3642 19.5372 14.565 19.4202H14.5638ZM29.3927 19.3824C29.5109 19.4627 29.5866 19.5269 29.6727 19.5694C30.5424 19.9996 31.1597 20.6261 31.2871 21.6358C31.3192 21.887 31.5074 21.8974 31.699 21.9123C33.8056 22.0752 35.9133 22.2381 38.0188 22.4068C38.3332 22.432 38.4617 22.3093 38.456 21.9926C38.4456 21.3065 38.4548 20.6203 38.4537 19.9342C38.4537 19.3043 38.4514 19.3032 37.841 19.302C35.1813 19.302 32.5228 19.302 29.8631 19.3032C29.7255 19.3032 29.5786 19.2653 29.3916 19.3824H29.3927ZM6.4426 37.9947C5.5419 37.9947 4.6412 38.0039 3.74049 37.9902C3.42152 37.9856 3.23794 38.1037 3.12779 38.4021C2.93388 38.9241 2.72735 39.4427 2.50246 39.9521C2.36707 40.2596 2.43821 40.3606 2.77095 40.3571C3.89998 40.3468 5.03016 40.3503 6.15919 40.3549C6.38753 40.3549 6.57225 40.3009 6.72256 40.1139C7.09891 39.6458 7.61982 39.4071 8.19466 39.4599C8.88195 39.523 9.24109 39.2534 9.37992 38.6109C9.39139 38.5558 9.41664 38.5019 9.44303 38.4514C9.61169 38.1244 9.52334 37.9833 9.1447 37.989C8.244 38.0005 7.3433 37.9925 6.4426 37.9925V37.9947ZM37.553 37.9947C36.6373 37.9947 35.7229 38.0005 34.8072 37.9913C34.4538 37.9879 34.3678 38.121 34.5215 38.4319C34.572 38.534 34.6237 38.6396 34.6489 38.7497C34.7728 39.3039 35.1033 39.4955 35.6701 39.4542C36.3126 39.4071 36.8794 39.6343 37.2948 40.1609C37.4004 40.294 37.5392 40.3514 37.7067 40.3514C38.8931 40.3514 40.0807 40.3503 41.2671 40.3537C41.5298 40.3537 41.5998 40.2608 41.4954 40.0129C41.2728 39.4863 41.0514 38.9585 40.8551 38.4216C40.7393 38.1049 40.5488 37.981 40.2126 37.9879C39.3268 38.0039 38.4399 37.9936 37.553 37.9936V37.9947ZM26.1617 33.8597C26.1617 32.1731 26.1617 30.4865 26.1605 28.7998C26.1605 28.6197 26.203 28.4189 25.985 28.3122C25.5168 28.085 25.0751 28.3375 25.0739 28.8457C25.0716 32.1903 25.0716 35.5348 25.0739 38.8794C25.0739 39.3842 25.1451 39.4221 25.6488 39.4461C26.0859 39.4668 26.172 39.2614 26.1685 38.8748C26.1536 37.2031 26.1617 35.5302 26.1617 33.8585V33.8597ZM17.8109 33.8184C17.8109 35.5188 17.8109 37.2203 17.8121 38.9207C17.8121 39.0859 17.7582 39.2947 17.9509 39.3819C18.1919 39.4909 18.4627 39.4771 18.7059 39.3968C18.9469 39.3165 18.8975 39.071 18.8987 38.8771C18.901 35.5325 18.9021 32.188 18.8987 28.8434C18.8987 28.3432 18.8149 28.2916 18.3261 28.2686C17.8913 28.2491 17.8018 28.4579 17.8052 28.8434C17.819 30.5014 17.8109 32.1593 17.8109 33.8172V33.8184ZM8.11779 24.7221C9.49007 24.7221 10.8623 24.7221 12.2335 24.7221C12.4377 24.7221 12.6867 24.7267 12.6672 24.4433C12.6431 24.0773 12.8496 23.67 12.5112 23.3545C12.4698 23.3155 12.3735 23.3281 12.3023 23.3281C12.16 23.3281 12.0166 23.3304 11.8743 23.3419C9.25485 23.5369 6.63651 23.7377 4.01587 23.9247C3.70951 23.9465 3.53052 24.0165 3.5397 24.3676C3.54888 24.7371 3.79098 24.7233 4.04341 24.7233C5.40077 24.7233 6.75928 24.7233 8.11664 24.7233L8.11779 24.7221ZM35.8261 24.7221C37.2271 24.7221 38.6269 24.721 40.0279 24.7233C40.2837 24.7233 40.4341 24.6418 40.4306 24.3538C40.4272 24.1014 40.3537 23.9488 40.0703 23.9316C39.2442 23.88 38.4181 23.818 37.5931 23.7572C35.8135 23.6253 34.0328 23.5059 32.2555 23.3511C31.302 23.2684 31.2997 23.2627 31.2825 24.2001C31.2744 24.6315 31.4442 24.7348 31.8401 24.7302C33.1688 24.713 34.4986 24.7233 35.8273 24.7233L35.8261 24.7221ZM27.5167 32.4025C27.5167 33.6325 27.5305 34.8625 27.5087 36.0924C27.5018 36.5124 27.6831 36.6053 28.0526 36.5904C28.3853 36.5766 28.6687 36.6099 28.6653 36.1188C28.6481 33.6727 28.6492 31.2265 28.6653 28.7815C28.6687 28.3248 28.4404 28.2732 28.0778 28.2686C27.6957 28.264 27.4995 28.3604 27.5087 28.7987C27.5316 30 27.5167 31.2013 27.5167 32.4025ZM16.457 32.492C16.457 31.2621 16.4421 30.0321 16.4651 28.8021C16.4731 28.3673 16.2849 28.2629 15.8994 28.2686C15.5368 28.2732 15.3062 28.3225 15.3085 28.778C15.3246 31.2242 15.3257 33.6704 15.3085 36.1154C15.305 36.6076 15.585 36.5778 15.9189 36.5904C16.2849 36.6041 16.4742 36.5204 16.4662 36.0959C16.4444 34.8946 16.4582 33.6933 16.4582 32.492H16.457ZM10.1016 17.9436C10.4872 17.9436 10.8727 17.947 11.2582 17.9436C11.7068 17.939 11.7849 17.8552 11.7229 17.4032C11.6334 16.7526 11.5152 16.1067 11.2777 15.4894C11.1228 15.0878 10.9461 14.6977 10.6535 14.3741C10.2669 13.9473 9.91919 13.9508 9.53826 14.3879C9.43614 14.5049 9.34665 14.6369 9.26748 14.7723C8.76148 15.6443 8.58248 16.6103 8.45742 17.5925C8.42414 17.8564 8.57101 17.9482 8.8154 17.9459C9.24338 17.9413 9.6725 17.9447 10.1005 17.9459L10.1016 17.9436ZM33.871 17.9436C34.299 17.9436 34.7281 17.9424 35.1561 17.9436C35.3683 17.9447 35.5439 17.8873 35.5152 17.6361C35.389 16.5518 35.1974 15.4825 34.5663 14.5577C34.105 13.8808 33.6277 13.8865 33.163 14.5749C32.5549 15.4779 32.3564 16.5151 32.2405 17.573C32.213 17.8208 32.3277 17.947 32.5859 17.9447C33.0139 17.9401 33.443 17.9436 33.871 17.9447V17.9436ZM12.8278 32.4048C12.8278 33.6336 12.8382 34.8625 12.8221 36.0913C12.8175 36.4619 12.9426 36.6007 13.3178 36.5927C13.6758 36.5846 13.9144 36.556 13.9121 36.0936C13.8972 33.6646 13.8983 31.2345 13.9121 28.8056C13.9144 28.3811 13.732 28.2675 13.343 28.2675C12.9517 28.2675 12.8175 28.4155 12.8232 28.8033C12.8405 30.0034 12.8301 31.2035 12.8301 32.4048H12.8278ZM31.1459 32.4347C31.1459 31.2345 31.1345 30.0332 31.1528 28.8331C31.1585 28.435 31.0404 28.2629 30.6193 28.2663C30.2165 28.2698 30.0616 28.4074 30.0628 28.8193C30.0754 31.2345 30.0754 33.6497 30.0628 36.0649C30.0605 36.4917 30.2326 36.5973 30.6273 36.5961C31.014 36.5961 31.1608 36.4791 31.154 36.0787C31.1345 34.8648 31.1471 33.6497 31.1471 32.4347H31.1459ZM27.6292 20.0799C27.0429 19.6841 26.5116 19.2584 25.7222 19.2734C23.2645 19.3181 20.8045 19.3227 18.3456 19.2711C17.5275 19.2538 16.9504 19.6417 16.2448 20.0799H27.6292ZM30.4357 39.4427C31.1069 39.4427 31.777 39.4427 32.4482 39.4427C33.5348 39.4439 33.4361 39.4978 33.069 38.526C32.9198 38.1301 32.7098 37.9775 32.283 37.9856C31.0128 38.0097 29.7427 37.9924 28.4725 37.9947C27.4077 37.9959 27.5316 37.9121 27.511 38.9723C27.5041 39.3314 27.6533 39.4507 27.994 39.4461C28.8075 39.4335 29.621 39.4427 30.4345 39.4427H30.4357ZM13.5002 39.4427C14.1852 39.4427 14.8702 39.4427 15.5552 39.4427C16.4651 39.4427 16.4478 39.4427 16.4639 38.5386C16.4719 38.129 16.3343 37.9821 15.9223 37.9879C14.6671 38.0062 13.4107 37.9856 12.1555 37.997C10.9461 38.0085 11.2226 37.8181 10.7143 39.0079C10.5744 39.3371 10.6788 39.4473 11.0161 39.445C11.8434 39.437 12.6718 39.4427 13.4991 39.4439L13.5002 39.4427ZM23.6948 12.7174C23.8806 12.7185 24.0665 12.722 24.2524 12.7174C24.6815 12.7082 24.7251 12.6348 24.5392 12.232C24.3373 11.7937 24.0321 11.4381 23.6466 11.1512C22.2273 10.0934 20.0874 10.6625 19.4139 12.2791C19.3507 12.4317 19.1844 12.6784 19.5125 12.7002C20.0392 12.7357 20.5704 12.7105 21.0994 12.7002C21.2439 12.6967 21.3013 12.5648 21.3782 12.4581C21.7396 11.9521 22.2399 11.9498 22.5944 12.4672C22.7149 12.6439 22.848 12.7231 23.0511 12.7174C23.2656 12.7116 23.4802 12.7162 23.6948 12.7162V12.7174ZM4.61251 33.5212C4.61251 32.6492 4.59874 31.7761 4.61825 30.9052C4.62743 30.4979 4.41746 30.4348 4.08242 30.4371C3.75541 30.4394 3.53511 30.483 3.53855 30.8972C3.55232 32.6412 3.55232 34.3863 3.53855 36.1303C3.53511 36.541 3.74049 36.595 4.07553 36.5927C4.40139 36.5904 4.62972 36.5583 4.6194 36.1383C4.59874 35.2663 4.61366 34.3943 4.61366 33.5224L4.61251 33.5212ZM16.0887 16.335C16.0887 16.9477 16.0841 17.5615 16.0922 18.1742C16.0933 18.2924 16.0451 18.539 16.2941 18.4082C16.7473 18.1707 17.1833 17.8965 17.6205 17.628C17.7593 17.5431 17.7559 17.386 17.7559 17.2425C17.7559 16.3442 17.7524 15.4458 17.7593 14.5474C17.7616 14.2617 17.648 14.124 17.3543 14.1332C17.0835 14.1424 16.8116 14.1458 16.5419 14.1321C16.2149 14.1148 16.0761 14.2456 16.0841 14.5807C16.099 15.1647 16.0887 15.7498 16.0887 16.335ZM24.7033 8.18531C24.6735 8.25071 24.646 8.28284 24.654 8.29776C25.2242 9.40839 25.2678 10.6934 25.8553 11.8087C26.3269 12.7036 26.2672 12.7346 27.2873 12.7185C27.3297 12.7185 27.3733 12.7151 27.4158 12.7174C27.7542 12.7311 27.838 12.5556 27.7714 12.2538C27.3676 10.4479 26.351 9.10664 24.7045 8.18646L24.7033 8.18531ZM27.8862 16.3855C27.8862 16.0275 27.8919 15.6695 27.8862 15.3127C27.8598 13.9531 28.1352 14.1516 26.6172 14.1332C26.3189 14.1298 26.2133 14.2697 26.2144 14.5531C26.2213 15.455 26.219 16.3556 26.2156 17.2574C26.2156 17.4628 26.2867 17.612 26.4692 17.7152C26.8432 17.9264 27.215 18.1409 27.5833 18.3612C27.799 18.4897 27.8908 18.4496 27.8873 18.188C27.8805 17.5867 27.885 16.9867 27.8862 16.3855ZM19.3576 8.19105C17.8247 8.82439 16.2952 10.8632 16.1862 12.3479C16.1759 12.4799 16.169 12.6462 16.3182 12.6726C16.7829 12.7529 17.2545 12.7506 17.7203 12.6692C17.7811 12.6589 17.8385 12.5521 17.8741 12.4787C18.5338 11.1294 18.7633 9.63328 19.3576 8.1922V8.19105ZM36.7796 29.0293C38.0085 29.0293 39.2385 29.035 40.4673 29.0224C40.6257 29.0213 40.9171 29.1486 40.9183 28.8744C40.9194 28.6197 40.8035 28.3329 40.4604 28.2881C40.4042 28.2801 40.3469 28.2766 40.2895 28.2766C37.8742 28.2766 35.4578 28.2766 33.0426 28.2755C32.7752 28.2755 32.5526 28.3202 32.5515 28.6622C32.5503 29.019 32.7878 29.0293 33.0483 29.0293C34.2921 29.027 35.5358 29.0293 36.7796 29.0293ZM7.16546 29.0293C8.423 29.0293 9.68168 29.0247 10.9392 29.0328C11.2743 29.035 11.4728 28.9352 11.4108 28.5635C11.3569 28.2411 11.0953 28.2789 10.8727 28.2778C8.49987 28.2744 6.12707 28.2755 3.75426 28.2778C3.64067 28.2778 3.51905 28.2755 3.41578 28.3122C3.14959 28.4051 3.04173 28.6587 3.05435 28.8893C3.06812 29.1268 3.32858 29.0236 3.47774 29.0247C4.7066 29.0339 5.9366 29.0305 7.16546 29.0293ZM7.11268 26.0829C6.06855 26.0829 5.02328 26.0863 3.97915 26.0806C3.70951 26.0795 3.54544 26.1437 3.5397 26.4592C3.53396 26.7828 3.67739 26.8815 3.98145 26.8803C6.04216 26.8734 8.10287 26.8746 10.1624 26.8803C10.4493 26.8803 10.6225 26.8195 10.6225 26.4787C10.6225 26.1368 10.4458 26.0772 10.1601 26.0795C9.14471 26.0875 8.12812 26.0829 7.11268 26.0829ZM36.8921 26.878C37.8937 26.878 38.8954 26.8746 39.8971 26.8803C40.1908 26.8815 40.4398 26.8803 40.4329 26.4673C40.4272 26.0772 40.1885 26.0806 39.9143 26.0818C37.8972 26.0841 35.8789 26.0841 33.8618 26.0818C33.5841 26.0818 33.3512 26.0818 33.3489 26.4719C33.3466 26.847 33.552 26.8838 33.8446 26.8815C34.86 26.8746 35.8766 26.8792 36.8921 26.8792V26.878ZM21.9863 37.9936C21.7431 37.9936 21.4998 37.9936 21.2566 37.9936C20.271 37.9936 20.2836 37.9936 20.2928 38.9746C20.2962 39.3383 20.4454 39.4507 20.7838 39.445C21.4275 39.4324 22.0712 39.4416 22.7149 39.4427C23.7005 39.4427 23.6879 39.4427 23.6787 38.4617C23.6753 38.098 23.5261 37.9798 23.1876 37.9925C22.7872 38.0062 22.3867 37.9959 21.9863 37.9947V37.9936ZM24.7963 15.4504C24.7963 15.1371 24.7951 14.8239 24.7963 14.5095C24.7974 14.2961 24.7286 14.1412 24.4853 14.1401C23.9862 14.1366 23.4882 14.1378 22.9891 14.1412C22.8468 14.1412 22.7195 14.2066 22.7149 14.3558C22.7011 14.7539 22.7057 15.1521 22.7137 15.5502C22.716 15.6569 22.7941 15.7395 22.8962 15.767C23.4848 15.9254 23.9724 16.2822 24.4934 16.5736C24.7251 16.7033 24.8009 16.6321 24.7986 16.39C24.7951 16.0768 24.7986 15.7636 24.7963 15.4492V15.4504ZM20.2434 14.1355C20.03 14.1355 19.8154 14.1447 19.602 14.1332C19.2899 14.1171 19.166 14.256 19.1718 14.5646C19.1832 15.1624 19.1809 15.7613 19.1718 16.3602C19.1672 16.6815 19.2842 16.6872 19.5263 16.5484C19.9451 16.3074 20.3364 15.9954 20.8056 15.868C21.1831 15.7647 21.2933 15.5697 21.2852 15.1991C21.2589 13.9944 21.4057 14.147 20.2434 14.1366V14.1355ZM21.9278 7.53362C21.8612 7.55542 21.7431 7.57377 21.6478 7.62999C21.0076 8.00977 20.6863 8.63278 20.4373 9.29366C20.3444 9.54149 20.5785 9.45658 20.6714 9.42675C21.5583 9.14221 22.4407 9.15139 23.3253 9.43364C23.51 9.49215 23.611 9.44855 23.5192 9.22711C23.2978 8.69474 23.0293 8.19335 22.5887 7.80554C22.4143 7.65179 22.2158 7.5405 21.9278 7.53247V7.53362ZM12.5857 14.8296C12.7865 15.5502 12.9758 16.2524 13.0665 16.9741C13.2088 18.1111 13.0722 17.9252 14.1898 17.9447C14.2472 17.9447 14.3045 17.9424 14.3607 17.9424C14.5501 17.9436 14.6189 17.8472 14.5822 17.6682C14.3275 16.4336 13.6413 15.5008 12.5857 14.8285V14.8296ZM36.3539 14.8377C36.6247 15.7452 36.8347 16.6436 36.8955 17.5741C36.9081 17.7715 36.993 17.9378 37.2317 17.9401C37.5174 17.9424 37.8019 17.9447 38.0876 17.9401C38.2838 17.9367 38.3883 17.8219 38.3458 17.6338C38.0739 16.4268 37.4141 15.4905 36.3539 14.8388V14.8377ZM31.4603 14.7631C30.4518 15.3265 29.5809 16.5599 29.4007 17.5649C29.3503 17.8495 29.4294 17.9539 29.7243 17.9482C30.9532 17.9229 30.765 18.103 30.9061 16.9454C30.9142 16.8742 30.936 16.8054 30.9451 16.7354C31.0335 16.086 31.2366 15.4653 31.4615 14.7631H31.4603ZM7.66916 14.8216C6.77878 15.1739 5.60959 16.8249 5.61992 17.6625C5.62222 17.8128 5.67614 17.9298 5.82875 17.9321C6.19591 17.9367 6.5952 18.056 6.92106 17.8713C7.19758 17.7141 7.06563 17.3492 7.11841 17.0773C7.12874 17.0211 7.14136 16.9649 7.14824 16.9087C7.23315 16.203 7.44886 15.5272 7.67031 14.8228L7.66916 14.8216ZM30.399 26.0852C29.9859 26.0852 29.5717 26.0898 29.1586 26.0829C28.8718 26.0783 28.7926 26.2321 28.7961 26.4891C28.7995 26.7231 28.8649 26.878 29.1311 26.8769C29.9721 26.8757 30.8132 26.8746 31.6542 26.8769C31.9204 26.8769 31.9927 26.7277 31.995 26.4937C31.9973 26.2435 31.9307 26.0772 31.6382 26.0818C31.2251 26.0886 30.8109 26.0841 30.3978 26.0841L30.399 26.0852ZM13.5736 26.0852C13.1743 26.0852 12.7751 26.0944 12.3769 26.0818C12.0774 26.0726 11.9719 26.2103 11.9765 26.4948C11.9799 26.7633 12.0866 26.8838 12.362 26.8803C13.1743 26.8734 13.9867 26.8734 14.799 26.8803C15.0744 26.8826 15.1754 26.7575 15.1788 26.4891C15.1834 26.1965 15.0641 26.0737 14.7715 26.0818C14.3722 26.0921 13.9729 26.0841 13.5748 26.0841L13.5736 26.0852ZM25.8186 26.8792C26.1903 26.8792 26.561 26.87 26.9327 26.8815C27.2276 26.8906 27.3905 26.8011 27.3859 26.4707C27.3813 26.1655 27.2322 26.0783 26.9557 26.0818C26.1846 26.0898 25.4136 26.0898 24.6425 26.0818C24.3499 26.0783 24.2329 26.1999 24.234 26.4914C24.234 26.7977 24.3866 26.8872 24.6632 26.8803C25.0487 26.8711 25.4342 26.878 25.8197 26.878L25.8186 26.8792ZM18.1735 26.8792C18.5453 26.8792 18.9159 26.87 19.2876 26.8815C19.5825 26.8906 19.7454 26.8011 19.7397 26.4707C19.7351 26.1644 19.5871 26.0783 19.3106 26.0806C18.5395 26.0886 17.7685 26.0886 16.9974 26.0806C16.706 26.0772 16.5867 26.1988 16.5878 26.4902C16.5878 26.7966 16.7404 26.886 17.017 26.8803C17.4025 26.8711 17.788 26.878 18.1735 26.878V26.8792ZM23.8416 17.861C22.5577 16.7492 20.9881 17.0027 20.1964 17.861H23.8416ZM22.5967 5.48444C22.5829 5.29627 22.5933 5.09319 22.5485 4.90158C22.4521 4.48509 21.9806 4.32217 21.6421 4.57C21.4138 4.73751 21.2657 5.83897 21.4436 6.05582C21.4608 6.07648 21.486 6.10631 21.509 6.10631C21.8188 6.11319 22.1469 6.18088 22.4338 6.10057C22.7057 6.02599 22.5371 5.70244 22.5967 5.48329V5.48444Z" fill="#FBAC1B"/>
</svg>
