<svg width="49" height="44" viewBox="0 0 49 44" fill="none" xmlns="http://www.w3.org/2000/svg">
<path d="M48.6936 43.6011C48.6919 42.8259 48.7092 42.049 48.7213 41.272C48.7732 38.4556 48.8181 35.6391 48.87 32.8227C48.9081 30.6427 48.9513 28.4627 48.9997 26.281C49.0049 26.0504 48.9357 25.9064 48.7247 25.792C48.0986 25.4555 47.5123 25.0636 46.9571 24.6265C44.9421 23.0518 43.4685 21.099 42.6435 18.7023C42.4394 18.1126 42.4515 18.1161 41.7908 18.0936C40.0751 18.0346 38.3801 17.8161 36.6747 17.6496C35.1924 17.5057 34.2256 16.7738 33.705 15.4956C33.2587 14.4083 33.2311 13.2671 33.2985 12.1156C33.3106 11.9109 33.4386 11.8641 33.6289 11.8658C34.0146 11.8658 34.402 11.8658 34.7894 11.8641C34.9001 11.8624 35.0644 11.9023 35.1059 11.7861C35.1492 11.6664 34.9814 11.6248 34.8932 11.5641C33.5337 10.6484 32.1708 9.72922 30.7906 8.82393C30.545 8.66265 30.4412 8.48922 30.4499 8.20653C30.4793 7.13649 30.4776 6.06645 30.5035 4.99641C30.5122 4.68945 30.3928 4.57325 30.0503 4.58539C29.4779 4.60447 28.9036 4.58886 28.3311 4.5906C27.8641 4.59233 27.8503 4.60274 27.8451 5.02763C27.8382 5.60861 27.8365 6.18959 27.8313 6.85901C27.2761 6.49135 26.8177 6.16878 26.3352 5.87742C26.0844 5.72654 26.0066 5.54964 26.01 5.28604C26.0256 4.31311 26.0152 3.34019 26.0291 2.36727C26.0325 2.10713 25.9391 1.99267 25.6364 1.99961C25.0259 2.01175 24.4119 2.01175 23.8013 1.99787C23.49 1.99267 23.3776 2.09672 23.3845 2.37768C23.4018 3.12341 23.3326 3.87434 23.4139 4.61314C23.4952 5.34327 23.2548 5.841 22.5336 6.15317C22.5128 6.16184 22.4938 6.17571 22.4748 6.18959C22.2741 6.33873 22.2205 6.25896 22.2222 6.05952C22.2257 5.69359 22.2049 5.32419 22.2222 4.95826C22.2343 4.67211 22.1012 4.57846 21.7968 4.58539C21.2 4.601 20.6033 4.60447 20.0066 4.58539C19.6555 4.57325 19.55 4.70159 19.5587 5.00335C19.5829 5.86875 19.5587 6.73415 19.6088 7.59781C19.6313 7.99842 19.4653 8.22214 19.128 8.44413C17.5593 9.48122 16.0182 10.5391 14.4806 11.5936C14.4045 11.6438 14.2609 11.682 14.3163 11.8034C14.3578 11.8936 14.484 11.8624 14.574 11.8641C15.0306 11.8676 15.4872 11.8676 15.9438 11.8658C16.1323 11.8658 16.2621 11.9109 16.2742 12.1156C16.3416 13.255 16.3295 14.3892 15.8937 15.4679C15.4595 16.5605 14.702 17.3444 13.4376 17.5906C12.943 17.686 12.4345 17.7172 11.9329 17.7814C11.4988 17.8369 11.478 17.8248 11.4711 17.4172C11.4365 15.7194 11.3742 14.0233 11.3518 12.3271C11.3137 9.39797 11.2186 6.4688 11.1459 3.54137C11.1425 3.36621 11.1304 3.18584 11.2272 3.03496C11.6908 2.32044 11.6925 1.57991 11.3397 0.809901C11.2687 0.65902 11.229 0.497734 11.1944 0.338181C11.139 0.0901817 10.9816 0 10.7066 0C7.85107 0.00520279 4.99033 0.00346853 2.13132 0.00346853C1.91685 0.00346853 1.7387 0.0572307 1.58477 0.192503C1.19734 0.530685 0.804725 0.861929 0.403461 1.18624C0.232231 1.32498 0.19764 1.46372 0.285849 1.66836C0.547017 2.27362 0.7857 2.88408 1.03995 3.49107C1.14373 3.74081 1.19215 3.99227 1.18696 4.25588C1.15929 6.22774 1.13854 8.20133 1.1247 10.1732C1.11605 11.4236 1.11951 12.6757 1.10913 13.9261C1.09357 16.2327 1.06762 18.5393 1.05552 20.8458C1.05379 21.4494 1.06589 21.4494 0.438053 21.4632C-0.0514212 21.4754 -0.0617988 21.5031 0.0765684 21.9558C0.240879 22.4899 0.508966 23.0102 0.538369 23.5669C0.579879 24.3872 0.593716 25.2093 0.605823 26.0296C0.647333 28.7159 0.681925 31.4023 0.725164 34.0887C0.74419 35.2333 0.778782 36.3779 0.796077 37.5208C0.82894 39.5169 0.849695 41.5131 0.886016 43.5092C0.894664 43.9983 0.908501 44 1.3876 44C3.77962 44 6.17337 44 8.56712 44C20.0257 44 31.4842 44 42.9427 44C44.7225 44 46.5005 43.9879 48.2802 43.9931C48.5708 43.9948 48.6936 43.9046 48.6936 43.6011ZM32.3455 12.2196C32.2832 13.392 32.3403 14.5505 32.752 15.6691C32.7831 15.7575 32.7779 15.8598 32.7762 15.957C32.752 17.2854 32.7174 18.6138 32.7035 19.9423C32.7018 20.2458 32.5634 20.3134 32.285 20.2926C32.1138 20.2805 32.0307 20.2198 32.0376 20.0568C32.0428 19.9804 32.0411 19.9041 32.0411 19.8296C32.0878 17.3236 32.131 14.8193 32.1812 12.3133C32.1829 12.1832 32.1345 12.0358 32.2642 11.9179C32.4043 12.0011 32.3524 12.1208 32.3472 12.2196H32.3455ZM28.7808 7.07059C28.8172 6.63009 28.8068 6.18612 28.7999 5.74562C28.7947 5.50629 28.9244 5.45773 29.1544 5.45773C29.3845 5.45773 29.509 5.52189 29.4986 5.75255C29.4848 6.06472 29.49 6.37689 29.4865 6.69079C29.483 7.00469 29.483 7.29431 29.4744 7.59607C29.4709 7.67585 29.5107 7.78164 29.4035 7.82846C29.3153 7.86488 29.2547 7.78511 29.1838 7.75042C28.8863 7.60474 28.7549 7.39663 28.7826 7.07059H28.7808ZM24.3583 3.16156C24.3531 2.92917 24.4672 2.86674 24.7059 2.86847C24.9342 2.86847 25.0726 2.91183 25.0605 3.15289C25.0466 3.4113 25.057 3.6697 25.0553 3.92984C25.0553 4.20906 25.0553 4.49001 25.0536 4.76922C25.0536 4.90623 25.0051 4.98601 24.8408 4.89409C24.8097 4.87675 24.7751 4.84553 24.7474 4.849C24.2337 4.90623 24.3669 4.57152 24.3617 4.32525C24.3583 3.93678 24.3686 3.55004 24.3565 3.16156H24.3583ZM20.9164 5.45599C21.1776 5.45599 21.2813 5.53577 21.2692 5.7751C21.2571 6.04391 21.2381 6.31792 21.2813 6.58153C21.3453 6.97174 21.0911 7.1469 20.7953 7.32033C20.6293 7.41918 20.5895 7.34634 20.5895 7.20586L20.5826 6.46187C20.5808 6.23641 20.586 6.00922 20.5722 5.78377C20.5584 5.55311 20.6518 5.45599 20.9181 5.45599H20.9164ZM18.9222 9.67199C20.7071 8.46841 22.5076 7.27177 24.3081 6.05952C24.5485 5.89823 24.7111 5.88782 24.9584 6.05085C27.3245 7.61688 29.6837 9.16905 32.0186 10.7264C32.093 10.775 32.1604 10.8322 32.2884 10.9293H17.0802C17.7305 10.4854 18.3237 10.0761 18.9222 9.67199ZM26.7624 14.3337C26.7676 14.0822 26.6949 13.9088 26.4563 13.7701C26.0031 13.5064 25.5655 13.2203 25.1262 12.9324C24.9481 12.8145 24.8062 12.8093 24.6229 12.9324C24.1836 13.2342 23.7322 13.5221 23.2825 13.8099C23.1026 13.9244 23.0178 14.0597 23.0282 14.2695C23.0801 15.3586 23.1147 16.4478 23.1649 17.5386C23.1839 17.9323 23.1614 17.9704 22.7446 17.9722C21.5235 17.9739 20.2989 17.9722 19.0761 17.9722C18.6316 17.9704 18.6143 17.9531 18.6074 17.5265C18.578 15.787 18.552 14.0475 18.5261 12.3081C18.5192 11.8832 18.5365 11.8658 18.9896 11.8658C20.9579 11.8641 22.9262 11.8658 24.8927 11.8658H30.7595C31.2299 11.8658 31.2368 11.8728 31.2299 12.2942C31.2023 14.0458 31.1659 15.7957 31.1538 17.5455C31.1504 17.8629 31.0604 17.9843 30.7007 17.9791C29.5246 17.96 28.3484 17.9635 27.1723 17.9774C26.8472 17.9808 26.7261 17.8924 26.733 17.575C26.7572 16.4946 26.7434 15.4141 26.7607 14.3337H26.7624ZM26.0256 16.1443C26.0256 16.6524 26.0152 17.1588 26.0221 17.6669C26.0256 17.8907 25.9253 17.9774 25.6918 17.9739C25.1954 17.967 24.7007 17.967 24.2043 17.9722C23.9899 17.9739 23.8982 17.8924 23.8861 17.686C23.8238 16.6507 23.8169 15.6136 23.7979 14.5782C23.7944 14.384 23.8653 14.2539 24.04 14.1481C25.0985 13.5012 24.6523 13.4891 25.7454 14.1464C25.972 14.2817 26.0412 14.4481 26.0342 14.6857C26.0204 15.1713 26.0273 15.6587 26.0256 16.1443ZM17.1061 15.017C17.0957 14.4117 17.267 13.8221 17.26 13.2134C17.2548 12.87 17.286 12.5266 17.2393 12.1815C17.2237 12.0705 17.1666 11.9109 17.3534 11.8953C17.5662 11.878 17.5402 12.0549 17.542 12.1763C17.5696 13.4822 17.5904 14.7898 17.6146 16.0957C17.6388 17.327 17.6613 18.5566 17.6821 19.7879C17.6838 19.8851 17.6821 19.9822 17.6821 20.0793C17.6821 20.2284 17.5956 20.2891 17.4434 20.2874C17.2843 20.2857 17.2116 20.2128 17.203 20.0689C17.1995 20.0047 17.196 19.9406 17.196 19.8747C17.1649 18.2549 17.1286 16.6351 17.1044 15.017H17.1061ZM1.45851 1.57298C1.7733 1.29549 2.0016 0.903551 2.5568 0.905285C5.02492 0.912223 7.49132 0.912223 9.95944 0.903551C10.2569 0.901817 10.3815 1.0024 10.4714 1.25214C10.6184 1.66142 10.6686 2.0447 10.4316 2.43317C10.1618 2.87714 10.1341 3.36621 10.1549 3.87261C10.2189 5.4612 10.25 7.05152 10.3123 8.6401C10.3244 8.94533 10.2085 9.02858 9.89199 9.02511C8.66398 9.0147 7.4377 9.02164 6.21142 9.02164C4.98514 9.02164 3.77962 9.01297 2.56545 9.02684C2.22299 9.03031 2.10019 8.92452 2.10711 8.61235C2.12786 7.44866 2.07424 6.27803 2.16072 5.12128C2.23855 4.10674 1.97739 3.17197 1.5571 2.2372C1.46024 2.02562 1.23366 1.77415 1.46197 1.57298H1.45851ZM10.3348 10.3726C10.3025 10.8443 10.024 11.0802 9.49937 11.0802H6.18721C4.96612 11.0802 3.74503 11.0698 2.52567 11.0854C2.17802 11.0906 2.07943 10.9744 2.07597 10.6692C2.07078 9.92692 2.05868 9.92519 2.86294 9.92519H9.85567C10.359 9.92519 10.3624 9.93039 10.333 10.3726H10.3348ZM7.25782 26.6782C7.26474 26.9799 7.26993 27.2834 7.28031 27.5852C7.32874 29.3021 7.39792 31.0208 7.42559 32.7377C7.46191 35.0044 7.52418 37.2728 7.60028 39.5395C7.6366 40.6303 7.63141 41.7194 7.6539 42.8103C7.65909 43.0462 7.57434 43.1329 7.33911 43.1311C6.46567 43.1225 5.5905 43.1277 4.7136 43.1277C3.8367 43.1277 2.98401 43.119 2.12267 43.1311C1.85113 43.1363 1.756 43.0392 1.75427 42.7721C1.7387 41.187 1.71622 39.6019 1.69546 38.0168C1.68682 37.4133 1.67471 36.808 1.66433 36.2045C1.61417 33.4418 1.56229 30.6809 1.52078 27.9182C1.50002 26.4302 1.49483 24.9422 1.47408 23.4542C1.46889 23.1594 1.34955 22.8767 1.24404 22.5992C1.16621 22.3928 1.2302 22.3217 1.4464 22.3217C3.26074 22.3234 5.07335 22.3252 6.88769 22.3217C7.09524 22.3217 7.17307 22.4067 7.17653 22.5975C7.20075 23.9571 7.23015 25.3185 7.25782 26.6782ZM7.03471 13.9521C6.47605 13.9487 5.91739 13.9574 5.357 13.9504C5.082 13.9469 4.96439 14.0389 4.97995 14.3111C5.06124 15.7488 5.13216 17.1866 5.19442 18.6243C5.2048 18.8809 5.31722 18.9676 5.58012 18.9607C5.95717 18.9468 6.33941 18.9642 6.71992 18.9555C6.94304 18.9503 7.02952 19.037 7.03817 19.2434C7.05892 19.8799 7.08659 20.5181 7.12464 21.1563C7.13848 21.3869 7.03471 21.4528 6.80813 21.4511C5.32068 21.4459 3.83324 21.4442 2.34752 21.4528C2.07078 21.4546 1.98258 21.3557 1.98603 21.106C1.99641 19.8989 1.99814 18.6919 2.00679 17.4848C2.0189 16.309 2.04311 15.1367 2.05695 13.9608C2.06214 13.4232 2.06387 12.8838 2.0483 12.3428C2.03792 12.0583 2.13997 11.9439 2.46513 11.9473C3.71908 11.9612 4.97304 11.9525 6.22699 11.9525C7.48094 11.9525 8.71068 11.9612 9.95079 11.9473C10.2673 11.9439 10.3884 12.0289 10.3953 12.3323C10.4333 13.9539 10.4956 15.5737 10.5406 17.1952C10.5613 17.9167 10.5527 17.9236 9.78994 17.9982C9.21745 18.0537 8.64322 18.0832 8.07246 18.1387C7.80264 18.1647 7.70233 18.0814 7.69195 17.8196C7.6539 16.6853 7.60028 15.5511 7.54839 14.4152C7.52937 13.9782 7.50342 13.9539 7.03817 13.9521H7.03471ZM5.9589 15.1436C5.94507 14.906 6.07305 14.8574 6.29271 14.8557C6.52621 14.854 6.63517 14.9268 6.64036 15.154C6.65074 15.5962 6.67841 16.0385 6.69917 16.479C6.71992 16.9195 6.72857 17.3409 6.76143 17.771C6.78046 18.0121 6.68187 18.0953 6.43108 18.0901C6.20104 18.0866 6.09208 18.0225 6.08343 17.7935C6.04884 16.9091 6.00733 16.0263 5.9589 15.1436ZM15.8643 43.0253C15.8504 43.1259 15.7345 43.1242 15.6481 43.1242C14.5913 43.1259 13.531 43.1242 12.4725 43.1277C12.303 43.1277 12.2044 43.0635 12.1941 42.8849C12.1629 42.3993 11.9329 41.9119 12.1923 41.4281C12.246 41.3275 12.2114 41.1731 12.2062 41.0448C12.1456 39.3036 12.0868 37.5641 12.0125 35.8229C12.0038 35.6183 12.1059 35.6148 12.246 35.6148H13.8683C14.3872 35.6148 14.9043 35.6183 15.4232 35.6114C15.6152 35.6096 15.6999 35.6148 15.6792 35.8715C15.6377 36.3536 15.6792 36.8427 15.6913 37.33C15.719 38.5631 15.7501 39.7944 15.7795 41.0275C15.783 41.246 15.8435 41.4454 15.9127 41.6553C16.0632 42.1114 15.9334 42.571 15.8677 43.0253H15.8643ZM11.9433 34.7061C12.0592 34.5899 12.1577 34.6575 12.2581 34.7425C12.367 34.8327 12.4622 34.7911 12.5538 34.7165C12.6939 34.602 12.8288 34.4754 12.981 34.3748C13.5397 34.0037 14.0655 34.0436 14.6276 34.4668C14.8455 34.6298 15.0323 34.9419 15.3834 34.6731C15.463 34.6124 15.6221 34.6957 15.6377 34.8153C15.655 34.9541 15.5132 34.9333 15.4198 34.9367C15.2105 34.9419 15.0012 34.9385 14.7919 34.9385C13.9323 34.8743 13.0796 34.961 12.22 34.9367C12.1076 34.9333 11.9675 34.987 11.8949 34.8448C11.8672 34.7911 11.9052 34.7442 11.945 34.7061H11.9433ZM16.9816 42.6334C16.9833 42.7184 16.985 42.8051 16.9833 42.8918C16.9833 42.9889 16.9868 43.1034 16.8484 43.1051C16.7377 43.1069 16.6702 43.0236 16.6391 42.9265C16.5803 42.7357 16.6028 42.538 16.6218 42.3472C16.6616 41.9709 16.7048 41.6032 16.4921 41.2443C16.4298 41.1454 16.4558 40.9911 16.4523 40.8627C16.4177 39.4042 16.4022 37.9474 16.3416 36.4889C16.3226 36.0345 16.5094 35.712 16.8276 35.3148L16.9816 42.6334ZM16.8138 34.6332C16.8173 34.7928 16.819 34.9437 16.5855 34.9367C16.3745 34.9315 16.3658 34.7928 16.3607 34.6454C16.3589 34.5379 16.3641 34.4286 16.352 34.3211C16.3295 34.1476 16.4281 33.8944 16.205 33.8303C15.9144 33.7488 15.591 33.5823 15.2987 33.8008C15.1499 33.9101 15.0358 33.9153 14.8836 33.8112C14.6328 33.6412 14.3422 33.5441 14.0586 33.4539C13.5086 33.2788 13.0641 33.5563 12.6247 33.7852C12.4362 33.8823 12.3151 33.9135 12.1232 33.7817C11.8378 33.5857 11.5403 33.7436 11.2722 33.8216C11.0595 33.884 11.1702 34.1199 11.1615 34.2812C11.1529 34.3991 11.1615 34.5205 11.1719 34.6384C11.1909 34.8309 11.1425 34.9506 10.9124 34.9419C10.6824 34.9333 10.6617 35.0668 10.7983 35.2021C11.3829 35.7865 11.3898 36.501 11.4036 37.2346C11.4244 38.4556 11.4815 39.6765 11.5282 40.8991C11.5351 41.0968 11.523 41.2824 11.4313 41.4628C11.3068 41.709 11.4002 41.9674 11.4313 42.2241C11.5386 43.2022 11.5005 43.1346 10.6703 43.1277C10.1082 43.1242 9.54434 43.1155 8.98568 43.1329C8.683 43.1415 8.56366 43.0548 8.55501 42.7305C8.49448 39.9332 8.39762 37.1323 8.35092 34.3349C8.31287 32.1411 8.26271 29.949 8.20045 27.7552C8.1451 25.8319 8.12435 23.9103 8.07765 21.987C8.07765 21.9488 8.07765 21.9159 8.08111 21.8847L8.02057 20.4782C8.02057 20.4262 8.02057 20.3741 8.01538 20.3221C8.01192 20.1695 8.00155 20.0151 7.99636 19.8625C7.96984 19.2833 8.27021 18.9798 8.89747 18.952C8.94417 18.9503 8.98741 18.9503 9.03411 18.9468C9.78994 18.8965 9.7934 18.8965 9.80205 19.6267C9.80724 19.8591 9.79513 20.0897 9.79167 20.3221H9.81243L9.87642 22.0009H9.83491C9.84529 23.4299 9.86604 24.8555 9.88507 26.2845C9.89026 26.7597 9.91274 27.2366 9.91966 27.7118C9.94042 29.1807 9.9629 30.6496 9.97501 32.1186C9.97847 32.3874 10.1186 32.4481 10.359 32.4463C11.3708 32.4429 12.3809 32.4446 13.3927 32.4446V32.4515C14.3941 32.4515 15.3955 32.4602 16.3952 32.4463C16.6875 32.4411 16.7896 32.5313 16.7861 32.8157C16.7809 33.421 16.8052 34.028 16.819 34.6332H16.8138ZM14.8905 29.3645C14.9043 29.9351 14.9061 30.5074 14.9407 31.0797C14.9597 31.385 14.8403 31.4769 14.5411 31.4647C14.0966 31.4474 13.6504 31.4543 13.2076 31.4647C12.9828 31.4682 12.8859 31.3832 12.8738 31.1612C12.8167 29.975 12.7545 28.7888 12.6835 27.6025C12.6697 27.3753 12.7908 27.2522 12.9551 27.1256C13.7023 26.5516 13.6919 26.5602 14.491 27.1048C14.7539 27.2834 14.8611 27.4794 14.8559 27.7794C14.8473 28.3084 14.8784 28.8373 14.8922 29.3663L14.8905 29.3645ZM16.5803 22.9044C16.5924 24.2641 16.6305 25.6237 16.6581 26.9817C16.6858 28.3396 16.7187 29.7478 16.7429 31.1318C16.7515 31.5809 16.7463 31.5827 16.2863 31.5809C15.5633 31.5792 15.6481 31.6399 15.629 30.9531C15.5962 29.7652 15.565 28.5772 15.5477 27.3875C15.5443 27.1256 15.4665 26.9418 15.2295 26.7892C14.8144 26.5186 14.4062 26.2359 14.0188 25.9307C13.7628 25.7295 13.576 25.7503 13.3425 25.9428C12.9655 26.2567 12.5677 26.5498 12.1681 26.8377C11.9779 26.9747 11.9156 27.1343 11.9329 27.3615C12.0228 28.6362 12.092 29.9091 12.1872 31.1821C12.2096 31.4994 12.1076 31.5913 11.7876 31.5879C10.8813 31.5792 10.8779 31.5896 10.8657 30.7138C10.8363 28.7367 10.7931 26.7614 10.7914 24.7861C10.7914 24.0993 10.7706 23.4108 10.7672 22.7258H10.7654L10.6893 20.6135H10.7568C10.7533 20.5961 10.7499 20.5788 10.7499 20.5614C10.7326 20.0758 10.7378 19.5902 10.7101 19.1046C10.698 18.848 10.8139 18.7751 11.0664 18.7526C11.798 18.6919 12.5296 18.6191 13.2543 18.5271C14.4149 18.378 15.3782 17.8889 16.0943 17.0027C16.1202 17.0149 16.1445 17.027 16.1704 17.0391L16.2361 20.0481C16.2396 20.2302 16.1375 20.2822 15.9594 20.2926C15.5547 20.3169 15.5547 20.3238 15.7103 20.6863C15.7916 20.8771 15.8746 21.0696 15.9646 21.2586C15.9767 21.2846 15.9853 21.3089 15.9922 21.3314C15.994 21.3332 15.994 21.3349 15.994 21.3349C16.2084 21.6488 16.4852 22.1327 16.5596 22.6269V22.6304C16.5665 22.6599 16.5699 22.6928 16.5734 22.7293C16.5734 22.7535 16.5768 22.7761 16.5768 22.8004C16.5786 22.835 16.5803 22.8697 16.5786 22.9044H16.5803ZM18.1473 43.1311C17.81 43.1363 17.8585 42.9126 17.855 42.7132L17.7599 37.5919C17.727 35.8646 17.6976 34.1355 17.6613 32.4064C17.6561 32.2001 17.67 32.0544 17.9519 32.0579C18.2753 32.0613 18.2338 32.2677 18.2373 32.4585C18.2805 34.8344 18.3203 37.2121 18.3618 39.588C18.3791 40.6251 18.3998 41.6622 18.4137 42.6993C18.4137 42.8918 18.488 43.1259 18.149 43.1311H18.1473ZM18.1854 21.3991C17.9519 21.8326 17.9951 22.2992 18.0038 22.7622C18.0522 25.3966 18.0972 28.0309 18.1404 30.6652C18.1421 30.7728 18.1421 30.882 18.1421 30.9896C18.1421 31.1214 18.0678 31.1821 17.9328 31.1855C17.7876 31.1873 17.6959 31.1335 17.6855 30.9844C17.6786 30.8872 17.6751 30.7901 17.6734 30.693L17.599 26.7094C17.5783 25.5856 17.5316 24.4618 17.5471 23.3415C17.5541 22.7414 17.452 22.1882 17.1442 21.6644C17.0923 21.5794 17.0611 21.4841 17.0231 21.3939C16.9591 21.2447 17.0058 21.1632 17.1805 21.1632C17.4555 21.1632 17.7305 21.165 18.0055 21.1632C18.1888 21.1615 18.2753 21.2326 18.1854 21.3991ZM18.642 19.5868C18.6316 18.7959 18.5538 18.8775 19.3944 18.8757C21.2364 18.874 23.0784 18.8757 24.9187 18.8757C26.7589 18.8757 28.7635 18.8827 30.6868 18.8688C31.0397 18.8653 31.1625 18.9728 31.1244 19.2971C31.0968 19.533 31.1054 19.7723 31.1089 20.0099C31.1106 20.1938 31.0449 20.2996 30.8304 20.2926C30.5658 20.2822 30.5519 20.4192 30.628 20.6065C30.7301 20.858 30.8304 21.1095 30.929 21.3609C30.9895 21.5101 30.9445 21.5898 30.7647 21.5829C30.6972 21.5794 30.6263 21.5829 30.5588 21.5829C26.9111 21.5829 23.2634 21.5846 19.6157 21.5829C19.1193 21.5829 19.1159 21.5794 19.2958 21.1337C19.3684 20.9516 19.4393 20.7713 19.512 20.5892C19.5846 20.4036 19.5362 20.3117 19.3079 20.2909C18.6472 20.2319 18.6454 20.225 18.6402 19.5868H18.642ZM21.3228 40.3025C21.3263 40.5367 21.3038 40.7535 21.143 40.9356C21.0409 41.05 21.0357 41.1888 21.053 41.3327C21.0963 41.6865 21.136 42.0403 21.181 42.3941C21.2294 42.7843 20.9596 43.1155 20.5653 43.1259C20.2626 43.1329 19.9582 43.1121 19.659 43.1311C19.3736 43.1502 19.2854 43.0427 19.2819 42.76C19.2681 41.0968 19.237 39.4337 19.2127 37.7705C19.1885 36.1074 19.1712 34.4876 19.1332 32.847C19.1263 32.5348 19.2214 32.4273 19.5431 32.4463C19.953 32.4706 20.3647 32.4515 20.7763 32.4533C20.9043 32.4533 21.0305 32.4585 21.0323 32.6319C21.034 32.8053 20.9112 32.8071 20.7832 32.8209C20.6224 32.84 20.3854 32.7412 20.3231 32.899C20.2488 33.0897 20.484 33.2129 20.6154 33.3291C21.117 33.7713 21.3038 34.2829 21.29 34.9576C21.2537 36.7386 21.3038 38.5215 21.3228 40.3025ZM26.7555 43.1329C25.8492 43.119 24.9411 43.1207 24.0331 43.1311C23.7668 43.1346 23.6734 43.0375 23.6751 42.7721C23.6751 40.9581 23.6595 39.1423 23.6682 37.3266C23.6716 36.4213 24.5036 35.6252 25.4047 35.6218C26.3127 35.6183 27.1256 36.4022 27.1567 37.3075C27.1567 37.33 27.1567 37.3508 27.1567 37.3734L27.1395 40.0303C27.1343 40.9373 27.1204 41.846 27.1273 42.7531C27.1273 43.0305 27.0374 43.1363 26.752 43.1329H26.7555ZM28.8483 41.5946C28.7912 41.9796 28.7583 42.3681 28.703 42.7531C28.684 42.8779 28.7411 42.9803 28.786 43.0808C28.7445 43.1017 28.7272 43.119 28.7082 43.119C27.6307 43.1381 27.8399 43.2126 27.8417 42.3247C27.8417 40.724 27.8676 39.125 27.8763 37.5243C27.8814 36.3866 27.2052 35.4171 26.1778 35.0703C24.6177 34.5413 22.9538 35.7449 22.9487 37.4289C22.9417 39.1683 22.9625 40.9078 22.9694 42.649C22.9706 42.967 22.8086 43.1265 22.4834 43.1277H21.8452C21.9662 42.5762 21.8019 42.0715 21.7673 41.5616C21.7587 41.4298 21.7241 41.298 21.8158 41.1888C21.9801 40.9963 22.0251 40.7691 22.0233 40.5263C22.0199 38.3654 22.0337 36.2045 21.9593 34.0436C21.9593 33.9898 21.9714 33.9257 21.9455 33.884C21.6757 33.4331 22.032 33.5303 22.2689 33.5303C24.3202 33.5303 26.3698 33.5285 28.4211 33.532C28.5491 33.532 28.6857 33.4973 28.8327 33.5875C28.6165 33.8043 28.6407 34.0748 28.639 34.3419C28.6183 36.3848 28.5992 38.4278 28.575 40.4708C28.5733 40.717 28.5975 40.9425 28.7653 41.135C28.8829 41.2703 28.8742 41.4263 28.8483 41.5946ZM21.7276 32.7776C22.1046 32.5937 22.3779 32.3457 22.7446 32.6354C22.8847 32.7446 23.0386 32.6683 23.1804 32.5989C23.5177 32.4342 23.8619 32.2972 24.2216 32.1775C25.2404 31.8359 26.1726 32.0804 27.0789 32.5105C27.3678 32.6475 27.6099 32.7394 27.9091 32.5435C28.2066 32.3475 28.3709 32.7151 28.6373 32.6909C28.6338 32.7203 28.6304 32.7481 28.6234 32.7776H21.7258H21.7276ZM29.3429 30.8369C29.1925 30.7936 29.1596 31.0156 29.0766 31.1196C28.9728 31.248 28.8967 31.3954 28.805 31.5306C28.6736 31.7249 28.5802 31.9868 28.2689 31.7093C28.1426 31.5983 27.9887 31.7318 27.8728 31.8029C27.6393 31.9486 27.4352 31.9295 27.1896 31.8099C25.8803 31.1786 24.5554 31.1803 23.2444 31.8133C22.9971 31.9313 22.7947 31.9486 22.5647 31.7925C22.4056 31.685 22.2309 31.6104 22.0545 31.7821C21.9317 31.9018 21.84 31.8359 21.7622 31.7162C21.5961 31.4595 21.4266 31.2029 21.2571 30.9497C21.2173 30.8924 21.1983 30.7884 21.0928 30.8231C21.0202 30.8491 21.0392 30.9323 21.0323 30.9948C20.9942 31.3867 20.7653 31.5827 20.3456 31.5827C20.1 31.5827 19.8562 31.5861 19.6105 31.5827C19.1695 31.574 19.0588 31.4699 19.0502 31.0381C19.019 29.0836 18.9914 27.1273 18.962 25.1711L18.9291 22.9339C18.9222 22.4587 18.9239 22.4587 19.4393 22.4587C21.3211 22.4587 23.2029 22.4587 25.0847 22.4587C26.9665 22.4587 28.8725 22.4657 30.7647 22.4518C31.1106 22.4483 31.2092 22.542 31.2023 22.8715C31.1452 25.6047 31.1054 28.3396 31.0604 31.0728C31.0535 31.5012 30.9809 31.5705 30.526 31.5827C30.2804 31.5879 30.0348 31.5705 29.7909 31.5879C29.5038 31.607 29.3758 31.5116 29.4018 31.2202C29.4139 31.0901 29.4796 30.8803 29.3395 30.8387L29.3429 30.8369ZM30.5294 43.1311C30.1887 43.093 29.8082 43.2335 29.5505 42.871C29.4588 42.7392 29.3983 42.6213 29.4208 42.4582C29.4657 42.1374 29.4986 41.8148 29.5453 41.494C29.5816 41.2512 29.5834 41.024 29.4018 40.828C29.2911 40.7101 29.2876 40.5558 29.2893 40.4014C29.3153 38.381 29.3412 36.3623 29.3602 34.3419C29.362 34.132 29.4294 33.9708 29.5782 33.8199C29.7961 33.6031 30.0002 33.3707 30.206 33.1435C30.2717 33.0724 30.3755 33.0013 30.3254 32.8955C30.2752 32.7915 30.1524 32.8261 30.0555 32.8227C29.912 32.8175 29.7667 32.8209 29.6231 32.8175C29.5003 32.814 29.4052 32.7758 29.4052 32.6336C29.4052 32.4862 29.5021 32.455 29.6266 32.4533C30.0711 32.4498 30.5156 32.4446 30.9584 32.4394C31.1625 32.4359 31.114 32.5868 31.1123 32.6926C31.1054 33.4054 31.0916 34.1182 31.0812 34.8327L31.0328 37.748C31.0051 39.4007 30.9705 41.0535 30.9549 42.7062C30.9532 43.0288 30.8598 43.1675 30.5277 43.1311H30.5294ZM32.2106 43.1173C31.9425 43.1936 31.8145 43.0947 31.8197 42.7929C31.8509 41.0535 31.8854 39.314 31.9183 37.5746L32.0152 32.4203C32.0186 32.2452 32.0031 32.0631 32.2781 32.0631C32.4822 32.0613 32.5998 32.1238 32.5859 32.3388C32.5825 32.3926 32.5859 32.4463 32.5859 32.5001C32.5167 35.9045 32.4493 39.3071 32.3732 42.7114C32.3697 42.8571 32.4406 43.0514 32.2106 43.1173ZM33.1238 21.3592C33.0356 21.5586 32.9803 21.7806 32.8592 21.9592C32.6309 22.294 32.6361 22.653 32.6309 23.0206C32.5807 25.6133 32.5289 28.2043 32.4735 30.7971C32.4683 30.9341 32.541 31.1144 32.3196 31.1786C32.0722 31.2497 31.9598 31.1456 31.9667 30.8387C31.9927 29.3698 32.0204 27.9008 32.048 26.4302C32.074 25.0913 32.0947 23.7525 32.1276 22.4136C32.1362 22.0737 32.1259 21.7442 31.9702 21.4338C31.8785 21.2499 31.9114 21.1511 32.157 21.1597C32.4303 21.1702 32.7053 21.165 32.9803 21.1615C33.1377 21.1597 33.1896 21.2135 33.1273 21.3592H33.1238ZM33.3712 31.0364C33.4006 29.6646 33.4334 28.291 33.4628 26.9192C33.4922 25.5752 33.5303 24.2311 33.5458 22.8871L33.5493 22.7674C33.5493 22.731 33.5493 22.698 33.5545 22.6686C33.5545 22.6668 33.5562 22.6651 33.5562 22.6634C33.5614 22.6183 33.5718 22.5784 33.5839 22.5454C33.5839 22.5437 33.5839 22.542 33.5856 22.5402C33.6617 22.261 33.8139 21.8361 34.1218 21.3904C34.127 21.354 34.1426 21.3106 34.1668 21.2569C34.274 21.0401 34.3588 20.8129 34.4625 20.5944C34.5594 20.3915 34.5179 20.2996 34.2654 20.2874C33.6168 20.2579 33.6185 20.251 33.6323 19.6509C33.6479 18.9486 33.6617 18.2462 33.6808 17.5438C33.6808 17.4727 33.6496 17.3756 33.7378 17.3374C33.8295 17.2975 33.8779 17.3895 33.9298 17.438C34.7237 18.1786 35.7217 18.4647 36.813 18.5584C37.5568 18.6225 38.2936 18.7058 39.0373 18.7734C39.3106 18.7977 39.442 18.8931 39.4178 19.1792C39.3815 19.6319 39.3919 20.0862 39.3728 20.5389C39.3694 20.6117 39.3504 20.688 39.3192 20.7643L39.3538 22.2281C39.3642 22.2731 39.3625 22.3234 39.3625 22.3703C39.3625 22.424 39.3625 22.4761 39.3607 22.5298V22.5558C39.3521 23.4542 39.34 24.356 39.3261 25.2543C39.2985 27.188 39.2708 29.1218 39.2414 31.0555C39.2345 31.5809 39.231 31.5861 38.7035 31.5809C37.7764 31.5723 37.9027 31.6989 37.9269 30.8144C37.9598 29.6698 37.9961 28.5234 38.048 27.3771C38.0583 27.1221 37.9771 26.9539 37.7678 26.8082C37.344 26.5152 36.9289 26.2117 36.5225 25.8926C36.3357 25.7469 36.1921 25.7295 35.9915 25.8839C35.5522 26.2186 35.1042 26.5412 34.6511 26.8551C34.4539 26.9921 34.4314 27.1672 34.4314 27.3684C34.4314 28.5997 34.4297 29.8311 34.4262 31.0624C34.4245 31.5636 34.4106 31.5775 34.018 31.5827C33.5009 31.5879 33.3608 31.4751 33.3694 31.0364H33.3712ZM37.2748 29.3802C37.2558 29.9629 37.2316 30.5456 37.2212 31.1283C37.2178 31.3538 37.1469 31.4699 36.8926 31.463C36.4135 31.4526 35.9344 31.4561 35.457 31.4613C35.2478 31.463 35.1578 31.3815 35.1578 31.1751C35.1544 29.9785 35.1474 28.7818 35.1371 27.5852C35.1371 27.4326 35.1976 27.3233 35.3204 27.221C36.1748 26.5082 36.1696 26.5117 37.0396 27.136C37.2575 27.2938 37.3527 27.4603 37.3354 27.7291C37.2991 28.2789 37.2939 28.8287 37.2766 29.3802H37.2748ZM33.5666 41.0656C33.5286 41.6293 33.4282 42.1912 33.4697 42.7583C33.4784 42.8675 33.4646 42.8693 33.3089 43.0739L33.4784 35.6669C33.6808 35.8386 33.7136 36.012 33.7102 36.2028C33.6704 37.8243 33.679 39.4476 33.5666 41.0656ZM38.0289 41.9189C37.9805 42.2415 37.9321 42.564 37.8923 42.8866C37.8733 43.041 37.8093 43.1259 37.645 43.1259C36.5553 43.1242 35.4622 43.1242 34.3726 43.1277C34.2066 43.1277 34.1789 43.034 34.1789 42.9005C34.1789 42.4027 33.9886 41.9015 34.2671 41.4073C34.3207 41.3119 34.3017 41.1731 34.3034 41.0552C34.3466 39.4337 34.3882 37.8121 34.4297 36.1906C34.4331 36.0102 34.3501 35.7605 34.4418 35.6669C34.5784 35.5281 34.8379 35.6183 35.0437 35.6166C35.9586 35.6114 36.8736 35.62 37.7885 35.6096C38.0324 35.6079 38.0929 35.6703 38.0756 35.9218C38.0203 36.7976 38.0047 37.6734 37.9736 38.5492H37.9701C37.939 39.4146 37.9113 40.2783 37.8785 41.1437C37.8698 41.3188 37.875 41.4888 37.9684 41.6414C38.0186 41.7264 38.0411 41.8183 38.0272 41.9189H38.0289ZM34.4141 34.72C34.5179 34.6315 34.6182 34.6506 34.7099 34.7286C34.8396 34.8396 34.952 34.7859 35.061 34.6905C35.0852 34.6679 35.1129 34.6506 35.1388 34.628C35.9223 33.9777 36.5086 33.9291 37.2939 34.6194C37.4392 34.7477 37.5862 34.8951 37.7972 34.6818C37.8767 34.602 37.9598 34.6454 38.0289 34.7078C38.0705 34.746 38.0981 34.7911 38.0756 34.85C38.0393 34.9385 37.9546 34.935 37.8785 34.9367C37.6692 34.9385 37.4599 34.9367 37.2506 34.9367C36.3841 34.8708 35.5141 34.9628 34.6459 34.9385C34.5507 34.935 34.44 34.9627 34.3761 34.8639C34.3449 34.8136 34.3691 34.7598 34.4158 34.72H34.4141ZM41.6576 43.1294C40.7721 43.1225 39.8865 43.1225 38.9992 43.1294C38.7069 43.1311 38.5859 42.9941 38.6153 42.7114C38.6378 42.486 38.6533 42.2588 38.6896 42.0333C38.726 41.8131 38.7363 41.6032 38.6239 41.4073C38.5496 41.2807 38.5565 41.1402 38.5617 40.998C38.6205 39.4198 38.6793 37.8416 38.7329 36.2652C38.7398 36.0709 38.7952 35.9062 38.9145 35.7501C39.0546 35.5645 39.186 35.372 39.3175 35.1813C39.4299 35.0217 39.3798 34.9246 39.1895 34.9437C38.8159 34.9818 38.7519 34.8015 38.8349 34.498C38.8384 34.4876 38.8419 34.4754 38.8384 34.465C38.8021 34.243 38.9508 33.9205 38.6896 33.8251C38.4095 33.721 38.0739 33.5719 37.7591 33.8337C37.6502 33.9257 37.5395 33.9118 37.427 33.832C37.1866 33.6603 36.9047 33.5649 36.628 33.4661C36.0797 33.2684 35.6058 33.5511 35.144 33.7852C34.9451 33.8858 34.8275 33.9014 34.6424 33.78C34.3726 33.6031 34.0665 33.7384 33.7932 33.8216C33.5735 33.8892 33.6825 34.1216 33.6531 34.2812C33.615 34.4824 33.7136 34.7026 33.5597 34.8986C33.4213 34.8171 33.4663 34.6974 33.468 34.5968C33.4784 34.0037 33.5061 33.4089 33.5009 32.814C33.5009 32.5261 33.615 32.4463 33.9004 32.4463C35.8012 32.455 37.7038 32.4498 39.6029 32.4463C40.1321 32.4463 40.1425 32.4411 40.146 31.9191C40.1736 29.7392 40.1996 27.5574 40.2636 25.374C40.2964 24.2866 40.2895 23.1992 40.2878 22.1119H40.2688L40.3362 20.4157C40.3379 20.3152 40.3431 20.1868 40.3466 20.0186C40.3501 19.7394 40.3501 19.4602 40.3414 19.181C40.3345 18.9694 40.421 18.8844 40.6527 18.9104C40.9243 18.9416 41.1993 18.9503 41.4726 18.9711C41.7009 18.9902 41.8133 19.1029 41.8133 19.3266C41.8133 19.6596 41.8289 19.9926 41.8306 20.3256C41.8306 20.3585 41.8306 20.388 41.8306 20.4157H41.8323L41.8392 21.8899V21.9159C41.8392 22.6703 41.8617 23.4247 41.8652 24.1791C41.8738 26.2394 41.8756 28.3014 41.8825 30.3618C41.8894 32.6267 41.8998 34.8916 41.9119 37.1566C41.9205 39.0452 41.9344 40.9321 41.9517 42.819C41.9534 43.0427 41.8807 43.1311 41.6507 43.1294H41.6576ZM47.4241 43.1277C46.0196 43.1173 44.6152 43.119 43.2108 43.1329C42.9185 43.1363 42.8268 43.0462 42.8286 42.7479C42.8424 39.9973 42.8372 37.2468 42.832 34.4962C42.8286 32.2746 42.8234 30.0531 42.8113 27.8315C42.8009 25.7937 42.7836 23.7559 42.768 21.7164C42.768 21.6107 42.7784 21.5049 42.7819 21.3991C43.4443 22.372 44.15 23.279 44.9698 24.1011C45.8156 24.9578 46.7686 25.6896 47.808 26.3157C47.9966 26.4284 48.0744 26.5533 48.0709 26.777C48.0294 28.8807 47.9966 30.9844 47.9654 33.088C47.9378 34.9107 47.9153 36.7334 47.8876 38.5579C47.8668 39.9488 47.8392 41.3396 47.8271 42.7305C47.8236 43.0236 47.7319 43.1311 47.4241 43.1277Z" fill="#5872CF"/>
<path d="M6.5608 32.122C6.52621 31.3988 6.48816 30.6739 6.45875 29.9507C6.45011 29.7201 6.3619 29.616 6.11111 29.6212C5.50575 29.6316 4.90039 29.6334 4.29677 29.6212C4.02695 29.616 3.95258 29.727 3.96468 29.9698C4.04771 31.3954 4.12554 32.8227 4.19645 34.25C4.21029 34.491 4.29677 34.6038 4.56312 34.5986C5.14772 34.5864 5.73233 34.5847 6.32039 34.5986C6.60058 34.6055 6.68014 34.4893 6.66457 34.2326C6.61961 33.5303 6.59366 32.8261 6.5608 32.1238V32.122ZM5.66314 32.0995C5.68563 32.54 5.69946 32.9822 5.73233 33.4227C5.75135 33.6499 5.65968 33.728 5.43484 33.7245C5.22901 33.7193 5.09411 33.6811 5.08373 33.4401C5.04222 32.5469 4.99725 31.652 4.94536 30.7589C4.93153 30.5074 5.09065 30.4953 5.28609 30.4918C5.4971 30.4866 5.59396 30.5612 5.59915 30.7745C5.61298 31.215 5.64066 31.6572 5.66141 32.0995H5.66314Z" fill="#5872CF"/>
<path d="M6.97244 40.7361C6.95342 40.3251 6.92747 39.9158 6.91536 39.5048C6.90672 39.2949 6.82024 39.1787 6.59539 39.1805C5.98658 39.1839 5.3743 39.1822 4.76376 39.1805C4.55793 39.1805 4.47318 39.2776 4.48356 39.4788C4.53026 40.2991 4.57523 41.1194 4.61501 41.9397C4.62539 42.1617 4.73089 42.2432 4.94709 42.2415C5.54207 42.2345 6.13705 42.2345 6.73203 42.2415C6.95342 42.2432 7.04335 42.1547 7.02952 41.9345C7.00357 41.5339 6.98974 41.135 6.97071 40.7361H6.97244ZM5.82572 41.3743C5.56456 41.3709 5.47462 41.2668 5.47635 41.0257C5.47635 40.8228 5.46597 40.6182 5.44521 40.4153C5.42446 40.1898 5.50056 40.0823 5.74616 40.0806C5.97966 40.0806 6.09208 40.1621 6.0817 40.4014C6.07824 40.5072 6.09208 40.6147 6.09727 40.7222C6.10246 40.8194 6.10073 40.9147 6.11111 41.0119C6.14051 41.2338 6.10765 41.3778 5.82399 41.3743H5.82572Z" fill="#5872CF"/>
<path d="M46.7565 29.6767C46.798 28.9761 46.8274 28.2737 46.8827 27.5731C46.9087 27.2609 46.7893 27.1551 46.4693 27.1638C45.8951 27.1811 45.3226 27.1776 44.7501 27.1655C44.489 27.162 44.3852 27.2574 44.3731 27.5089C44.3074 28.9431 44.2347 30.3791 44.1552 31.8133C44.1396 32.0787 44.2416 32.181 44.5114 32.1775C45.0909 32.1671 45.6668 32.1671 46.2445 32.1775C46.516 32.1827 46.6285 32.0769 46.6406 31.8133C46.6717 31.1023 46.7184 30.3895 46.7599 29.6767H46.7565ZM45.8225 29.675C45.7965 30.1085 45.7689 30.5404 45.7516 30.9722C45.7429 31.1994 45.6218 31.2688 45.4039 31.2705C45.1825 31.274 45.0839 31.2011 45.0978 30.9722C45.1514 30.0964 45.1964 29.2223 45.2379 28.3483C45.2483 28.1315 45.3295 28.0361 45.5665 28.0344C45.8052 28.0344 45.9176 28.102 45.8968 28.3483C45.8623 28.7905 45.8467 29.2327 45.8225 29.675Z" fill="#5872CF"/>
<path d="M46.2116 39.203C46.2428 38.6637 46.2704 38.1226 46.3085 37.5832C46.3223 37.3612 46.2566 37.2364 46.0093 37.2381C45.4056 37.2433 44.802 37.2416 44.1984 37.2398C43.9822 37.2381 43.875 37.3283 43.8646 37.5503C43.8144 38.6307 43.7608 39.7094 43.7003 40.7899C43.6864 41.0257 43.7833 41.1211 44.0151 41.1194C44.6014 41.1159 45.1877 41.1159 45.774 41.1211C46.0058 41.1229 46.1148 41.0257 46.1234 40.7916C46.1476 40.2627 46.1822 39.732 46.2134 39.203H46.2116ZM44.9127 40.2158C44.719 40.2158 44.6066 40.1673 44.6221 39.9453C44.6567 39.4285 44.6827 38.9117 44.7069 38.3949C44.7155 38.1885 44.8314 38.1365 45.0096 38.1417C45.1808 38.1451 45.352 38.1434 45.3417 38.3792C45.3313 38.6481 45.314 38.9169 45.2984 39.1874H45.3001C45.2863 39.4337 45.2673 39.6817 45.2621 39.9297C45.2569 40.1655 45.1185 40.2158 44.9144 40.2158H44.9127Z" fill="#5872CF"/>
<path d="M27.769 27.7135C27.7759 26.751 27.7777 25.7885 27.795 24.826C27.7984 24.6109 27.7379 24.4653 27.5321 24.3508C26.7901 23.9363 26.0515 23.5114 25.313 23.083C25.1487 22.9877 25.0121 22.9842 24.8408 23.083C24.1196 23.5166 23.3949 23.9415 22.665 24.3595C22.4661 24.4739 22.39 24.6144 22.4038 24.8364C22.454 25.6983 22.4972 26.562 22.5318 27.4256C22.5716 28.4627 22.6062 29.4998 22.6304 30.5369C22.6373 30.8161 22.7238 30.9462 23.0386 30.9445C24.4776 30.9341 25.9184 30.9358 27.3574 30.9445C27.648 30.9462 27.75 30.8456 27.7483 30.5647C27.7431 29.6143 27.7569 28.6622 27.7656 27.7118L27.769 27.7135ZM27.0668 27.5574C27.0599 28.3344 27.0512 29.1113 27.0564 29.8883C27.0564 30.1363 26.9717 30.2369 26.7071 30.2351C25.6918 30.2265 24.6748 30.2282 23.6595 30.2351C23.4156 30.2369 23.3274 30.1467 23.3205 29.9108C23.2738 28.3587 23.2202 26.8048 23.151 25.2526C23.1406 24.9786 23.2358 24.8138 23.4831 24.6803C23.9345 24.4358 24.3756 24.1704 24.8132 23.8999C24.9999 23.7854 25.1487 23.7802 25.3407 23.8964C25.7904 24.1687 26.2487 24.4271 26.714 24.6734C26.9769 24.8138 27.0979 24.9855 27.0876 25.2908C27.0599 26.0452 27.072 26.8013 27.0668 27.5574Z" fill="#5872CF"/>
<path d="M7.20421 4.84727C7.17307 4.12234 7.13675 3.39916 7.11427 2.67423C7.10735 2.4297 7.01568 2.31698 6.7303 2.32218C6.09554 2.33258 5.45905 2.32912 4.82256 2.32218C4.56312 2.32044 4.46281 2.41063 4.47491 2.64822C4.55448 4.09806 4.62539 5.54617 4.68938 6.99428C4.69976 7.25442 4.82602 7.33593 5.09065 7.33247C5.70638 7.32379 6.32384 7.32379 6.94131 7.33247C7.21285 7.33593 7.31836 7.24055 7.30106 6.98735C7.25955 6.27457 7.23534 5.56005 7.20594 4.84727H7.20421ZM6.24082 4.7831C6.26158 5.22534 6.27369 5.66584 6.30482 6.10808C6.32212 6.34914 6.21142 6.42892 5.95717 6.42718C5.71503 6.42545 5.61644 6.34047 5.60779 6.11848C5.57493 5.24615 5.53515 4.37381 5.48326 3.50148C5.46943 3.25521 5.57839 3.18758 5.83091 3.18931C6.07478 3.19104 6.18202 3.26562 6.18721 3.49107C6.19586 3.92117 6.2218 4.353 6.24255 4.7831H6.24082Z" fill="#5872CF"/>
<path d="M14.6293 23.7733C14.2696 23.4108 13.6175 23.2842 13.1056 23.4785C12.6472 23.6519 12.393 23.9953 12.4172 24.4063C12.4397 24.7965 12.7666 25.1538 13.2266 25.2873C13.3477 25.322 13.4722 25.3463 13.595 25.3549C14.3076 25.4087 14.932 24.93 14.9061 24.3161C14.8922 24.1288 14.7919 23.938 14.6276 23.7733H14.6293ZM13.8251 24.6439C13.768 24.6508 13.7109 24.656 13.6556 24.6508C13.4428 24.6317 13.1626 24.6474 13.1661 24.3647C13.1696 24.108 13.4359 24.0941 13.6521 24.0716C13.7109 24.0802 13.7697 24.0802 13.8233 24.0941C13.9911 24.1392 14.1814 24.1878 14.1693 24.3941C14.1554 24.5693 13.9894 24.6231 13.8251 24.6439Z" fill="#5872CF"/>
<path d="M37.1175 23.7889C36.6608 23.2929 35.7321 23.2547 35.2028 23.7074C34.7323 24.1097 34.7375 24.7133 35.2114 25.0879C35.713 25.485 36.5813 25.4364 37.0552 24.989C37.2368 24.8173 37.3388 24.6179 37.3371 24.3612C37.3561 24.1479 37.2714 23.9554 37.1192 23.7889H37.1175ZM36.0866 24.6543C36.0174 24.6491 35.9482 24.6491 35.8825 24.6352C35.7321 24.6023 35.5902 24.5381 35.585 24.3751C35.5816 24.2016 35.7424 24.1514 35.886 24.108C35.95 24.0872 36.0226 24.0733 36.0866 24.0802C36.308 24.0993 36.602 24.0959 36.5899 24.3803C36.5795 24.6491 36.2976 24.6352 36.0849 24.6543H36.0866Z" fill="#5872CF"/>
<path d="M24.993 19.4914C24.277 19.4411 23.6509 19.8729 23.6232 20.4331C23.599 20.9811 24.1715 21.4286 24.8979 21.4303C25.5863 21.4303 26.1363 21.021 26.1605 20.4903C26.183 19.97 25.6779 19.5382 24.993 19.4914ZM24.9031 20.7574C24.6904 20.7192 24.3998 20.7453 24.3998 20.473C24.3998 20.1903 24.6852 20.173 24.9169 20.1782C25.1383 20.1816 25.4099 20.2042 25.4029 20.4712C25.396 20.7366 25.1158 20.7297 24.9048 20.7574H24.9031Z" fill="#5872CF"/>
</svg>
