<svg width="57" height="44" viewBox="0 0 57 44" fill="none" xmlns="http://www.w3.org/2000/svg">
<path d="M22.0395 27.9014C21.5655 27.9014 21.0414 28.4467 21.0581 28.9086C21.0749 29.3482 21.6101 29.8601 22.0618 29.8657C22.5692 29.8657 23.0264 29.3983 23.0264 28.8696C23.0264 28.3354 22.5803 27.9014 22.0395 27.9069V27.9014Z" fill="#7F7E02"/>
<path d="M13.4806 36.2818C12.8505 35.8143 12.1982 35.5361 11.4064 36.0035C10.6481 36.4487 9.99011 36.9829 9.92878 37.9011C9.85629 38.9862 9.89534 40.0769 9.91207 41.1676C9.91765 41.5738 10.163 41.8131 10.5477 41.8186C11.6406 41.8298 12.7279 41.8353 13.8207 41.8186C14.2166 41.8131 14.4341 41.5571 14.4396 41.162C14.4452 40.6111 14.4396 40.0602 14.4396 39.5093C14.4396 39.0975 14.4062 38.6802 14.4452 38.2684C14.5344 37.3947 14.133 36.7659 13.475 36.2762L13.4806 36.2818ZM13.2631 40.2661C13.2631 40.4553 13.1739 40.5388 12.9899 40.5388C12.4881 40.5388 11.9863 40.5388 11.49 40.5388C11.2614 40.5388 11.1889 40.4108 11.1945 40.1993C11.2001 39.8376 11.1945 39.4759 11.1945 39.1142C11.1945 38.8026 11.1945 38.491 11.1945 38.1793C11.1945 37.6062 11.6852 37.072 12.2372 37.0441C12.6275 37.0219 13.252 37.6284 13.2631 38.0903C13.2854 38.8137 13.2631 39.5371 13.2687 40.2661H13.2631Z" fill="#7F7E02"/>
<path d="M10.6926 32.9485C11.7074 32.9597 12.7278 32.9597 13.7426 32.9485C14.1943 32.9485 14.4396 32.6926 14.4452 32.2418C14.4508 31.6909 14.4452 31.14 14.4452 30.5891C14.4452 30.1606 14.4173 29.7377 14.4508 29.3092C14.5065 28.5691 14.2166 27.996 13.6646 27.5341C13.0735 27.0388 12.4267 26.6771 11.635 27.0166C10.7261 27.4061 9.9957 28.0182 9.91763 29.0644C9.83957 30.0994 9.88974 31.1456 9.90647 32.1806C9.91205 32.6759 10.1964 32.943 10.6926 32.9485ZM12.1981 28.1907C12.6498 28.1685 13.252 28.7416 13.2575 29.2313C13.2687 29.9325 13.2575 30.628 13.2631 31.3292C13.2631 31.5685 13.1795 31.6686 12.9341 31.6631C12.4602 31.652 11.9862 31.652 11.5067 31.6631C11.2614 31.6631 11.1777 31.5518 11.1833 31.3181C11.1889 30.9564 11.1833 30.5947 11.1833 30.233C11.1833 29.9102 11.2112 29.5819 11.1778 29.2591C11.1164 28.7249 11.7744 28.213 12.1925 28.1907H12.1981Z" fill="#7F7E02"/>
<path d="M56.5092 22.5259C55.8903 22.192 55.2713 21.8692 54.6524 21.5409C53.9331 21.1625 53.2194 20.773 52.4946 20.4002C52.2883 20.2944 52.2102 20.1442 52.2102 19.9216C52.2158 19.4597 52.2214 18.9923 52.2102 18.5304C52.1991 18.0519 51.9482 17.7903 51.4631 17.7681C51.0728 17.7514 50.6824 17.7569 50.2977 17.7681C50.0579 17.7681 49.9576 17.679 49.9576 17.4342C49.9576 16.0319 49.9576 14.6296 49.9576 13.2273C49.9576 13.0102 50.0356 12.9435 50.2475 12.949C50.6601 12.9602 51.0783 12.9657 51.4909 12.949C51.9872 12.9323 52.2437 12.6931 52.2269 12.2868C52.2102 11.8973 51.9537 11.6803 51.4854 11.6747C50.7159 11.6747 50.833 11.7192 50.7716 10.9903C50.6267 9.24851 49.5115 7.44 47.6325 6.83901C47.3091 6.73884 46.9578 6.70545 46.9857 6.1935C47.0024 5.93196 46.7124 5.78172 46.4504 5.7539C46.1883 5.72051 45.9319 5.83736 45.8817 6.08777C45.7813 6.59972 45.4133 6.70545 45.0007 6.84457C43.4004 7.39547 42.4748 8.56406 42.0121 10.1556C41.8894 10.5729 41.8671 10.9903 41.8503 11.4132C41.8448 11.6079 41.7667 11.6859 41.5771 11.6803C41.4154 11.6803 41.2481 11.6747 41.0864 11.6858C40.7407 11.7137 40.4675 11.9641 40.4564 12.2701C40.4397 12.5818 40.6627 12.8934 41.0084 12.9268C41.4545 12.9713 41.9117 12.9713 42.3633 12.9602C42.67 12.9546 42.7815 13.0659 42.7815 13.3775C42.7704 14.7075 42.7704 16.0319 42.7815 17.3618C42.7815 17.6623 42.6923 17.7848 42.3745 17.7848C40.7184 17.7736 39.0624 17.7736 37.4064 17.7848C37.0886 17.7848 36.9826 17.6623 37.0049 17.3618C37.0217 17.1114 37.0049 16.861 37.0049 16.6106C37.0049 15.9762 36.7819 15.7481 36.1574 15.7481C35.6668 15.7481 35.1761 15.7369 34.691 15.7481C34.4066 15.7536 34.2839 15.6646 34.2839 15.3641C34.2951 13.9229 34.2951 12.4816 34.2839 11.0404C34.2839 10.7677 34.3787 10.7009 34.6352 10.712C35.1594 10.7287 35.6891 10.7232 36.2188 10.712C36.715 10.7009 36.9994 10.4672 37.0049 10.0888C37.0049 9.68813 36.7039 9.43772 36.2132 9.43216C35.9233 9.43216 35.6333 9.42103 35.3489 9.43216C35.0646 9.44885 34.9698 9.32642 34.9809 9.05375C34.9977 8.79221 34.9921 8.52511 34.9809 8.26357C34.9252 6.60529 34.3341 5.15847 33.2747 3.88416C32.2655 2.67106 30.9887 1.93095 29.4721 1.56368C29.4107 1.54699 29.3494 1.53586 29.288 1.54142C28.9423 1.56368 28.8531 1.38005 28.8754 1.07399C28.8866 0.923743 28.881 0.773498 28.8754 0.623251C28.8643 0.45631 28.7751 0.300494 28.658 0.183636V0C28.5966 0.00556469 28.5353 0.0278268 28.474 0.0556503C28.4126 0.0278268 28.3513 0.00556469 28.2899 0V0.183636C28.1673 0.300494 28.0837 0.45631 28.0725 0.623251C28.0614 0.773498 28.0558 0.923743 28.0725 1.07399C28.0948 1.38005 28.0056 1.56368 27.6599 1.54142C27.5986 1.54142 27.5317 1.54699 27.4759 1.56368C25.9593 1.93095 24.6768 2.67106 23.6732 3.88416C22.6138 5.16404 22.0227 6.60529 21.967 8.26357C21.9558 8.52511 21.9503 8.79221 21.967 9.05375C21.9837 9.32642 21.8833 9.44885 21.599 9.43216C21.309 9.41546 21.0191 9.42659 20.7347 9.43216C20.2385 9.43772 19.9374 9.69369 19.943 10.0888C19.943 10.4672 20.2329 10.7009 20.7291 10.712C21.2588 10.7232 21.783 10.7287 22.3127 10.712C22.5692 10.7009 22.664 10.7732 22.664 11.0404C22.6528 12.4816 22.6528 13.9229 22.664 15.3641C22.664 15.6646 22.5413 15.7536 22.2569 15.7481C21.7663 15.7314 21.2756 15.7481 20.7905 15.7481C20.166 15.7481 19.943 15.9762 19.943 16.6106C19.943 16.861 19.9318 17.1114 19.943 17.3618C19.9653 17.6623 19.8593 17.7903 19.5415 17.7848C17.8855 17.7736 16.2295 17.7736 14.5735 17.7848C14.2556 17.7848 14.1664 17.6623 14.1664 17.3618C14.1776 16.0319 14.1776 14.7075 14.1664 13.3775C14.1664 13.0659 14.2724 12.9546 14.5846 12.9602C15.0363 12.9713 15.4879 12.9713 15.9395 12.9268C16.2797 12.8934 16.5083 12.5818 16.4915 12.2701C16.4748 11.9696 16.2072 11.7137 15.8615 11.6858C15.6998 11.6747 15.5325 11.6747 15.3708 11.6803C15.1812 11.6803 15.1087 11.6135 15.0976 11.4132C15.0809 10.9903 15.0586 10.5729 14.9359 10.1556C14.4731 8.56406 13.5475 7.39547 11.9472 6.84457C11.5346 6.70545 11.1666 6.59972 11.0663 6.08777C11.0161 5.83736 10.7596 5.72051 10.4975 5.7539C10.2355 5.78728 9.94552 5.93753 9.96225 6.1935C9.99013 6.70545 9.63887 6.73884 9.31547 6.83901C7.43642 7.44 6.32125 9.24851 6.17628 10.9903C6.11495 11.7192 6.23206 11.6692 5.4626 11.6747C4.99423 11.6747 4.73215 11.8973 4.721 12.2868C4.70428 12.6931 4.96077 12.9379 5.45701 12.949C5.86962 12.9602 6.2878 12.9602 6.70041 12.949C6.91229 12.9435 6.99036 13.0102 6.99036 13.2273C6.98479 14.6296 6.98479 16.0319 6.99036 17.4342C6.99036 17.679 6.88997 17.7736 6.65021 17.7681C6.25991 17.7625 5.86962 17.7569 5.48489 17.7681C4.99979 17.7903 4.74886 18.0463 4.73771 18.5304C4.72656 18.9923 4.72656 19.4597 4.73771 19.9216C4.73771 20.1442 4.65965 20.2944 4.45334 20.4002C3.73406 20.773 3.01478 21.1625 2.2955 21.5409C1.67659 21.8692 1.05212 22.192 0.438782 22.5259C0.143264 22.6872 -0.0686172 22.9098 0.0205959 23.2827C0.109809 23.6444 0.383001 23.7724 0.728701 23.7779C0.851369 23.7779 0.979609 23.7779 1.10785 23.7779C2.18956 23.7779 3.26573 23.7835 4.34743 23.7779C4.64295 23.7779 4.74887 23.8781 4.74329 24.173C4.73214 25.0467 4.74329 25.9203 4.74329 26.7995C4.74329 31.9358 4.74329 37.072 4.74329 42.2082V44C6.14282 44 7.82671 44 10.8655 44C16.7424 44 22.6249 44 28.5018 44C34.3787 44 46.3835 44 52.2659 44V26.794C52.2659 25.9203 52.266 25.0411 52.2548 24.1675C52.2548 23.8725 52.3552 23.7668 52.6507 23.7724C53.7324 23.7835 54.8085 23.7724 55.8902 23.7724C56.0185 23.7724 56.1412 23.7724 56.2694 23.7724C56.6151 23.7668 56.8883 23.6332 56.9775 23.2771C57.0723 22.9098 56.8549 22.6817 56.5593 22.5203L56.5092 22.5259ZM48.2514 8.6364H44.3874C45.168 7.64589 47.4931 7.65702 48.2514 8.6364ZM43.1885 10.5896C43.2053 10.495 43.2666 10.406 43.2833 10.3058C43.3279 10.0276 43.4896 9.94967 43.7573 9.94967C45.4635 9.95523 47.1697 9.95523 48.8815 9.94967C49.138 9.94967 49.2773 10.0164 49.361 10.2947C49.4558 10.6119 49.4725 10.9291 49.4948 11.2518C49.5171 11.5634 49.3889 11.6692 49.0822 11.6636C48.151 11.6525 47.2254 11.6636 46.2943 11.6636H44.0751C43.3503 11.6636 43.0566 11.3037 43.1941 10.584L43.1885 10.5896ZM48.664 17.3173C48.664 17.5956 48.5581 17.6957 48.2848 17.6902C47.6325 17.679 46.9801 17.6902 46.3277 17.6902C45.6754 17.6902 45.023 17.6902 44.3706 17.6902C44.1532 17.6902 44.0082 17.6456 44.0082 17.3841C44.0137 16.3546 44.0026 15.3307 44.0193 14.3013C44.0305 13.5723 44.7163 12.9101 45.4467 12.949C46.0991 12.988 46.7515 12.949 47.4039 12.9602C48.1008 12.9769 48.6473 13.5055 48.6584 14.2011C48.6751 15.2417 48.6584 16.2823 48.6696 17.3229L48.664 17.3173ZM34.7858 16.9667C35.0255 16.9612 35.2597 16.9667 35.4995 16.9667C35.6166 16.9667 35.7169 16.9946 35.756 17.1337C35.8786 17.5399 35.7281 17.7569 35.3211 17.7681C35.2207 17.7681 35.1203 17.7681 35.02 17.7681C34.9475 17.7681 34.8694 17.7681 34.7969 17.7681C34.4959 17.7903 34.2728 17.7681 34.2728 17.3507C34.2728 16.9222 34.5349 16.9723 34.7914 16.9667H34.7858ZM28.0558 2.74896C28.1394 2.73783 28.2063 2.73783 28.2677 2.74896H28.6357C28.697 2.73783 28.7639 2.73783 28.8475 2.74896C29.8735 2.88808 30.7935 3.25534 31.6466 4.01771H29.2323C28.9535 4.01771 28.7639 4.01771 28.6357 3.98989H28.2677C28.1394 4.01771 27.9554 4.01771 27.671 4.01771H25.2567C26.1098 3.26091 27.0298 2.89364 28.0558 2.74896ZM23.9018 5.68155C24.0356 5.42001 24.1973 5.29759 24.5096 5.29759C25.7641 5.29759 27.0187 5.30315 28.2677 5.30872C28.329 5.30872 28.3903 5.30872 28.4517 5.30872C28.513 5.30872 28.5743 5.30872 28.6357 5.30872C29.8902 5.30872 31.1448 5.30872 32.3938 5.29759C32.706 5.29759 32.8677 5.42001 33.0015 5.68155C33.5256 6.70545 33.7598 7.785 33.7487 8.93133C33.7487 9.30973 33.6372 9.42659 33.258 9.42659C31.6578 9.40989 30.0519 9.41546 28.4517 9.42102C26.8514 9.42102 25.2456 9.40989 23.6453 9.42659C23.2606 9.42659 23.1602 9.30973 23.1546 8.93133C23.1379 7.785 23.3777 6.70545 23.9018 5.68155ZM28.4517 17.7625C28.3903 17.7625 28.329 17.7625 28.2677 17.7625C26.9406 17.7625 25.6136 17.7625 24.2865 17.7625C23.9743 17.7625 23.9129 17.6234 23.9074 17.3507C23.9074 17.0613 24.0022 16.95 24.2977 16.9556C25.6805 16.9667 27.0689 16.9556 28.4517 16.9556C29.8345 16.9556 31.2229 16.9556 32.6057 16.9556C32.9012 16.9556 33.0015 17.0613 32.9959 17.3507C32.9959 17.6234 32.9235 17.7625 32.6168 17.7625C31.2897 17.7625 29.9627 17.7625 28.6357 17.7625C28.5743 17.7625 28.513 17.7625 28.4517 17.7625ZM23.9185 11.7916C23.9353 11.1906 24.398 10.7232 24.9835 10.7009C25.6582 10.6786 26.199 11.0626 26.2158 11.6858C26.2548 12.86 26.2325 14.0397 26.2381 15.2139C26.2381 15.4031 26.1433 15.442 25.976 15.4365C25.4017 15.4309 24.8218 15.4253 24.2475 15.4365C24.0077 15.4365 23.9074 15.3307 23.9129 15.097C23.9185 14.535 23.9129 13.9674 23.9129 13.4053C23.9129 12.8656 23.9018 12.3258 23.9129 11.7916H23.9185ZM28.4517 15.4365C28.3903 15.4365 28.329 15.4365 28.2677 15.4365C28.145 15.4365 28.0223 15.4364 27.8997 15.442C27.6209 15.442 27.5205 15.3307 27.5261 15.0581C27.5372 13.9674 27.5261 12.8823 27.5372 11.7916C27.5428 11.2351 27.9275 10.8178 28.4572 10.7232C28.987 10.8178 29.3661 11.2351 29.3772 11.7916C29.394 12.8823 29.3772 13.9674 29.3884 15.0581C29.3884 15.3307 29.2936 15.442 29.0148 15.442C28.8922 15.442 28.7695 15.442 28.6468 15.442C28.5855 15.442 28.5242 15.442 28.4628 15.442L28.4517 15.4365ZM32.9904 13.4109C32.9904 13.9729 32.9904 14.5405 32.9904 15.1026C32.9904 15.3363 32.8956 15.4476 32.6558 15.442C32.0815 15.442 31.5016 15.442 30.9273 15.442C30.7601 15.442 30.6652 15.4031 30.6652 15.2194C30.6652 14.0453 30.6485 12.8656 30.6876 11.6914C30.7099 11.0682 31.2451 10.6842 31.9198 10.7065C32.5053 10.7287 32.9737 11.1906 32.9848 11.7971C32.996 12.3369 32.9848 12.8711 32.9848 13.4109H32.9904ZM21.1418 17.1337C21.1864 16.9946 21.2812 16.9667 21.3982 16.9667C21.638 16.9667 21.8722 16.9612 22.112 16.9667C22.3685 16.9723 22.6305 16.9222 22.6305 17.3507C22.6305 17.7736 22.4075 17.7903 22.1064 17.7681C22.0339 17.7681 21.9558 17.7681 21.8833 17.7681C21.783 17.7681 21.6826 17.7681 21.5823 17.7681C21.1696 17.7625 21.0191 17.5399 21.1473 17.1337H21.1418ZM12.5104 8.64197H8.64636C9.40467 7.66259 11.7298 7.65146 12.5104 8.64197ZM7.53678 10.3002C7.62042 10.022 7.75981 9.95523 8.01629 9.95523C9.72249 9.96079 11.4287 9.96079 13.1405 9.95523C13.4081 9.95523 13.5698 10.0331 13.6144 10.3114C13.6312 10.406 13.6869 10.495 13.7092 10.5952C13.8467 11.3149 13.5531 11.6747 12.8282 11.6747H10.6091C9.6779 11.6747 8.75231 11.6636 7.82115 11.6747C7.51448 11.6747 7.38067 11.5746 7.40855 11.2629C7.43085 10.9402 7.44758 10.623 7.54236 10.3058L7.53678 10.3002ZM12.8896 17.3785C12.8896 17.6401 12.7502 17.6902 12.5271 17.6846C11.8748 17.6846 11.2224 17.6846 10.57 17.6846C9.91766 17.6846 9.26528 17.679 8.61291 17.6846C8.3397 17.6846 8.22818 17.59 8.23376 17.3118C8.24491 16.2712 8.22819 15.2306 8.24492 14.19C8.25607 13.4999 8.8025 12.9657 9.49948 12.949C10.1518 12.9379 10.8042 12.9713 11.4566 12.9379C12.187 12.899 12.8729 13.5556 12.884 14.2901C12.9007 15.3196 12.884 16.3435 12.8951 17.373L12.8896 17.3785ZM6.00343 19.1926C6.05362 19.0813 6.14841 19.0646 6.24877 19.0591C6.38817 19.0591 6.52756 19.0591 6.66138 19.0591C13.9211 19.0591 21.1808 19.0591 28.4405 19.0591C35.7002 19.0591 42.9599 19.0591 50.2196 19.0591C50.359 19.0591 50.4984 19.0591 50.6322 19.0591C50.7382 19.0591 50.8274 19.0813 50.8776 19.1926C51.0839 19.6267 50.8553 19.9995 50.3758 20.0051C50.2475 20.0051 50.1249 20.0051 49.9966 20.0051H6.86768C6.73943 20.0051 6.61677 20.0051 6.48853 20.0051C6.00901 20.0051 5.78038 19.6322 5.98669 19.1926H6.00343ZM7.58698 42.7201C7.18552 42.6923 6.78404 42.6979 6.38258 42.7201C6.06476 42.7368 5.94768 42.6033 5.97556 42.3028C5.97556 42.2527 5.97556 42.2026 5.97556 42.1525C5.97556 37.0219 5.97556 31.8912 5.97556 26.7606C5.97556 26.3896 6.16329 26.2041 6.53872 26.2041C6.82867 26.2041 7.11303 26.2041 7.40297 26.2041C7.8416 26.2041 8.06091 26.4174 8.06091 26.8441C8.06091 29.3983 8.06091 31.9525 8.06091 34.5011C8.06091 37.0775 8.05534 39.6595 8.06649 42.236C8.06649 42.6144 7.96613 42.7535 7.5814 42.7257L7.58698 42.7201ZM5.94211 24.0895C5.94768 23.8113 6.18187 23.7612 6.39933 23.7501C6.57218 23.739 6.75061 23.7501 6.92346 23.7835C7.09631 23.8113 7.38623 23.6499 7.42526 23.8447C7.49217 24.1508 7.52562 24.4902 7.41968 24.8074C7.3918 24.8964 7.2803 24.902 7.19108 24.902C7.00151 24.902 6.8175 24.902 6.62792 24.902C6.62792 24.902 6.62792 24.902 6.62792 24.8964C6.41604 24.8964 6.0536 24.9576 6.02572 24.8853C5.93094 24.646 5.93653 24.3567 5.94211 24.0895ZM8.70214 24.2899C8.70214 23.7891 8.70212 23.7835 9.20395 23.7835C9.32661 23.7835 9.45485 23.7835 9.57752 23.7835C10.4083 23.7946 10.3358 23.6778 10.3526 24.5904C10.3526 24.863 10.2522 24.9465 9.9957 24.9131C9.84515 24.8964 9.69461 24.9131 9.54406 24.9131C9.47158 24.9131 9.39354 24.9131 9.32105 24.9131C8.90844 24.9131 8.70214 24.7072 8.70214 24.2954V24.2899ZM14.7519 26.193C15.0586 26.193 15.1701 26.2876 15.1701 26.6048C15.1589 28.8585 15.1589 31.1122 15.1701 33.3715C15.1701 33.6775 15.0697 33.7944 14.7575 33.7888C13.0513 33.7777 11.3451 33.7832 9.63888 33.7888C9.34336 33.7888 9.24299 33.6831 9.24856 33.3881C9.25971 32.2474 9.24856 31.1066 9.24856 29.9659C9.24856 28.8251 9.25414 27.7122 9.24856 26.5825C9.24856 26.2932 9.33778 26.1874 9.63888 26.1874C11.3451 26.1986 13.0513 26.1986 14.7575 26.1874L14.7519 26.193ZM11.635 24.4735C11.635 24.4234 11.635 24.3733 11.635 24.3233C11.635 23.9671 11.8172 23.7872 12.1814 23.7835C12.2818 23.7835 12.3822 23.7835 12.4825 23.7835C12.5717 23.7835 12.6554 23.7835 12.7446 23.7835C13.0977 23.7835 13.2761 23.9671 13.2799 24.3344C13.2836 24.7017 13.0903 24.8946 12.7 24.9131C12.4881 24.9131 12.2706 24.8964 12.0588 24.9131C11.7242 24.9409 11.6015 24.7851 11.635 24.4735ZM15.1701 42.2805C15.1701 42.6033 15.0753 42.7201 14.7407 42.7201C13.0234 42.709 11.3004 42.709 9.5831 42.7201C9.31546 42.7201 9.2374 42.62 9.2374 42.364C9.24855 41.2121 9.2374 40.0602 9.2374 38.9083C9.2374 37.7675 9.24854 36.6268 9.23182 35.4916C9.23182 35.1577 9.34335 35.0631 9.66675 35.0687C11.3506 35.0798 13.029 35.0854 14.7129 35.0687C15.0641 35.0687 15.1645 35.18 15.1645 35.5194C15.1533 37.7731 15.1533 40.0268 15.1645 42.2805H15.1701ZM15.9172 24.9131C15.7444 24.902 15.566 24.9131 15.3931 24.9131C15.3206 24.9131 15.2426 24.9131 15.1701 24.9131C14.5512 24.902 14.5735 25.0634 14.579 24.3066C14.579 23.7891 14.579 23.7891 15.1032 23.7835C15.2035 23.7835 15.3039 23.7835 15.4042 23.7835C16.3075 23.8002 16.2072 23.6332 16.2183 24.6516C16.2183 24.8742 16.1235 24.9298 15.9228 24.9131H15.9172ZM16.9041 42.7257C16.564 42.7257 16.4469 42.62 16.4469 42.2694C16.4581 39.6651 16.4525 37.0608 16.4525 34.4566C16.4525 31.8801 16.4525 29.2981 16.4525 26.7216C16.4525 26.2208 16.67 26.065 17.1551 26.2041C17.2499 26.232 17.3168 26.2765 17.3223 26.3766C17.3335 26.4657 17.3335 26.5491 17.3335 26.6382C17.3335 31.8467 17.3335 37.0553 17.3391 42.2583C17.3391 42.5921 17.2554 42.7257 16.8986 42.7201L16.9041 42.7257ZM18.22 24.9131C17.4952 24.9131 17.3614 24.7406 17.5063 24.0172C17.5398 23.8447 17.6402 23.789 17.7963 23.789C18.1476 23.789 18.4988 23.789 18.8501 23.789C19.0508 23.789 19.1345 23.8725 19.1456 24.0784C19.207 24.9131 19.2125 24.9131 18.3371 24.9131C18.2981 24.9131 18.2646 24.9131 18.2256 24.9131H18.22ZM28.8308 42.4809C28.7639 42.4809 28.7026 42.4809 28.6357 42.4809C28.5743 42.4809 28.513 42.4809 28.4517 42.4809C28.3903 42.4809 28.329 42.4809 28.2677 42.4809C28.2007 42.4864 28.1339 42.4864 28.0725 42.492C27.8662 42.492 27.777 42.4085 27.777 42.2026C27.777 40.9784 27.777 39.7486 27.777 38.5243C27.777 38.3129 27.8774 38.235 28.0781 38.2406C28.1394 38.2406 28.2063 38.2406 28.2677 38.2406C28.329 38.2406 28.3903 38.2406 28.4517 38.2406C28.513 38.2406 28.5743 38.2406 28.6357 38.2406C28.697 38.2406 28.7639 38.2406 28.8252 38.2406C29.026 38.2406 29.1263 38.3129 29.1263 38.5243C29.1263 39.7486 29.1263 40.9784 29.1263 42.2026C29.1263 42.4085 29.0371 42.4975 28.8308 42.492V42.4809ZM34.2059 42.275C34.2059 42.5254 34.1167 42.5921 33.8713 42.5921C32.8287 42.581 31.7916 42.5754 30.7489 42.5921C30.4032 42.5921 30.2973 42.4753 30.2973 42.1358C30.314 40.6723 30.3084 39.2088 30.2973 37.7397C30.2973 37.1833 30.0575 36.944 29.4943 36.944C29.2044 36.944 28.92 36.944 28.6301 36.944C28.5688 36.944 28.5074 36.944 28.4461 36.944C28.3848 36.944 28.3234 36.944 28.2621 36.944C27.9721 36.944 27.6878 36.944 27.3978 36.944C26.8347 36.944 26.5949 37.1833 26.5949 37.7397C26.5949 39.2032 26.5838 40.6668 26.5949 42.1358C26.5949 42.4809 26.4945 42.5977 26.1433 42.5921C25.1006 42.5754 24.0635 42.581 23.0208 42.5921C22.7755 42.5921 22.6863 42.5254 22.6863 42.275C22.6918 40.2995 22.6974 38.3185 22.6863 36.343C22.6863 36.0202 22.8535 35.9868 23.1156 35.9868C24.8887 35.9868 26.6674 35.9868 28.4405 35.9868C30.2136 35.9868 31.9923 35.9868 33.7654 35.9868C34.0275 35.9868 34.1947 36.0202 34.1947 36.343C34.1836 38.3185 34.1892 40.2995 34.1947 42.275H34.2059ZM28.4517 34.7571C28.3903 34.7571 28.329 34.7571 28.2677 34.7571C26.5503 34.7571 24.8385 34.7571 23.1212 34.7571C22.8089 34.7571 22.6807 34.7181 22.7699 34.3453C22.9651 33.5161 23.439 32.8762 24.0301 32.2975C24.9891 31.357 26.16 30.7783 27.3978 30.3053C27.7435 30.1718 28.106 30.0716 28.4572 29.9492C28.8085 30.0716 29.1654 30.1773 29.5166 30.3053C30.7545 30.7727 31.9254 31.357 32.8844 32.2975C33.4755 32.8762 33.9438 33.5161 34.1446 34.3453C34.2338 34.7181 34.1055 34.7571 33.7933 34.7571C32.076 34.7515 30.3642 34.7571 28.6468 34.7571C28.5855 34.7571 28.5242 34.7571 28.4628 34.7571H28.4517ZM37.8525 42.5921C37.2391 42.5643 36.6202 42.5866 36.0069 42.581C35.5051 42.581 35.4995 42.581 35.4995 42.0802C35.4995 39.8376 35.4995 37.5951 35.4995 35.3525C35.4995 34.924 35.466 34.4955 35.3657 34.0837C35.0423 32.7315 34.2059 31.7132 33.1465 30.8729C31.8195 29.8267 30.2917 29.1868 28.6803 28.7194C28.6635 28.7194 28.6468 28.7082 28.6301 28.7082V28.647C28.5688 28.647 28.5074 28.6582 28.4461 28.6693C28.3848 28.6582 28.3234 28.6526 28.2621 28.647V28.7082C28.2621 28.7082 28.2286 28.7138 28.2119 28.7194C26.6005 29.1868 25.0727 29.8267 23.7457 30.8729C22.6807 31.7132 21.8499 32.7315 21.5265 34.0837C21.4261 34.4955 21.3927 34.924 21.3927 35.3525C21.3982 37.5951 21.3927 39.8376 21.3927 42.0802C21.3927 42.5755 21.3927 42.5754 20.8853 42.581C20.2719 42.581 19.653 42.5587 19.0397 42.5921C18.6996 42.6088 18.6159 42.4975 18.6215 42.1692C18.6327 39.5872 18.6271 37.0052 18.6271 34.4287C18.6271 31.8579 18.6271 29.2925 18.6271 26.7216C18.6271 26.1986 18.6271 26.1986 19.1512 26.1986C22.0897 26.1986 25.0281 26.1986 27.961 26.193C28.0725 26.193 28.1729 26.193 28.2565 26.2208H28.6245C28.7082 26.1986 28.8085 26.193 28.92 26.193C31.8585 26.2041 34.797 26.1986 37.7298 26.1986C38.2484 26.1986 38.254 26.1986 38.254 26.7216C38.254 29.2925 38.254 31.8579 38.254 34.4287C38.254 37.0108 38.2539 39.5928 38.2595 42.1692C38.2595 42.492 38.1814 42.6088 37.8413 42.5921H37.8525ZM20.4448 24.0172C20.4783 23.867 20.5563 23.8002 20.7013 23.7946C21.0749 23.7946 21.454 23.7946 21.8276 23.7946C21.9949 23.7946 22.0785 23.8836 22.0785 24.0506C22.0785 24.0617 22.0785 24.0729 22.0785 24.0895C22.1231 24.6423 21.8536 24.9187 21.27 24.9187H21.1585C20.4448 24.9187 20.2998 24.7295 20.4504 24.0172H20.4448ZM23.255 24.1285C23.2606 23.8892 23.3442 23.7891 23.584 23.7946C23.9464 23.8057 24.3088 23.8057 24.6712 23.7946C24.9389 23.7835 25.017 23.9059 25.0114 24.1563C24.9947 25.0467 25.1062 24.9131 24.1416 24.9243H24.0301C23.2216 24.9243 23.2271 24.9243 23.255 24.1341V24.1285ZM26.1935 24.3789C26.1935 23.9857 26.3923 23.789 26.7901 23.789C27.1023 23.789 27.4146 23.789 27.7268 23.789C27.9443 23.789 28.0446 23.8781 28.0446 24.1007C28.0446 25.0968 28.1171 24.8909 27.1079 24.9131C26.9852 24.9131 26.857 24.9131 26.7343 24.9131C26.3775 24.9131 26.199 24.7332 26.199 24.3733L26.1935 24.3789ZM28.8587 24.1007C28.8587 23.8781 28.9591 23.7835 29.1765 23.789C29.4888 23.789 29.801 23.789 30.1132 23.789C30.511 23.789 30.7099 23.9857 30.7099 24.3789C30.7099 24.7388 30.5314 24.9187 30.1746 24.9187C30.0519 24.9187 29.9237 24.9187 29.801 24.9187C28.7918 24.8964 28.8643 25.1023 28.8643 24.1062L28.8587 24.1007ZM31.8864 24.1452C31.8864 23.8948 31.9644 23.7779 32.2265 23.7835C32.5889 23.7946 32.9513 23.7946 33.3138 23.7835C33.5535 23.7835 33.6372 23.8837 33.6427 24.1174C33.6706 24.9076 33.6762 24.9076 32.8677 24.9076H32.7562C31.7916 24.8964 31.9031 25.03 31.8864 24.1396V24.1452ZM34.8248 24.084C34.8248 24.084 34.8248 24.0617 34.8248 24.045C34.8248 23.8781 34.9029 23.789 35.0757 23.789C35.4493 23.789 35.8284 23.789 36.202 23.789C36.347 23.789 36.4251 23.8614 36.4585 24.0116C36.6091 24.7239 36.4641 24.9131 35.7504 24.9131H35.6389C35.0553 24.9131 34.7858 24.6367 34.8304 24.084H34.8248ZM38.6777 24.9131C38.6387 24.9131 38.6052 24.9131 38.5662 24.9131C37.6908 24.9131 37.6964 24.9131 37.7577 24.0784C37.7744 23.8725 37.8525 23.7835 38.0532 23.789C38.4045 23.789 38.7558 23.789 39.107 23.789C39.2632 23.789 39.358 23.8447 39.397 24.0172C39.542 24.7406 39.4081 24.9131 38.6833 24.9131H38.6777ZM39.9936 42.7257C39.6368 42.7257 39.5531 42.5977 39.5531 42.2638C39.5587 37.0553 39.5531 31.8467 39.5587 26.6437C39.5587 26.5547 39.5587 26.4657 39.5698 26.3822C39.581 26.282 39.6423 26.2375 39.7371 26.2097C40.2278 26.0706 40.4397 26.2264 40.4397 26.7272C40.4397 29.3037 40.4397 31.8857 40.4397 34.4621C40.4397 37.0664 40.4397 39.6707 40.4453 42.275C40.4453 42.62 40.3282 42.7257 39.988 42.7313L39.9936 42.7257ZM41.5102 24.9131C41.3374 24.9131 41.1589 24.902 40.9861 24.9131C40.7854 24.9298 40.685 24.8742 40.6906 24.6516C40.7017 23.6332 40.6014 23.8002 41.5046 23.7835C41.605 23.7835 41.7054 23.7835 41.8058 23.7835C42.3299 23.7835 42.3299 23.7835 42.3299 24.3066C42.3299 25.0578 42.3578 24.8964 41.7388 24.9131C41.6664 24.9131 41.5883 24.9131 41.5158 24.9131H41.5102ZM47.27 26.193C47.5656 26.193 47.6604 26.2932 47.6604 26.5881C47.6492 27.7177 47.6604 28.8418 47.6604 29.9714C47.6604 31.1011 47.6548 32.2529 47.6604 33.3937C47.6604 33.6831 47.5656 33.7944 47.27 33.7944C45.5638 33.7832 43.8576 33.7832 42.1514 33.7944C41.8392 33.7944 41.7333 33.6831 41.7388 33.377C41.7444 31.1233 41.75 28.8696 41.7388 26.6104C41.7388 26.2987 41.8504 26.1986 42.157 26.1986C43.8632 26.2097 45.5694 26.2097 47.2756 26.1986L47.27 26.193ZM43.6234 24.3344C43.6234 23.9708 43.8019 23.7872 44.1587 23.7835C44.2479 23.7835 44.3316 23.7835 44.4208 23.7835C44.5212 23.7835 44.6215 23.7835 44.7219 23.7835C45.0862 23.7835 45.2683 23.9634 45.2683 24.3233C45.2683 24.3733 45.2683 24.4234 45.2683 24.4735C45.3018 24.7907 45.1847 24.9409 44.8445 24.9131C44.6327 24.8964 44.4208 24.9131 44.2033 24.9131C43.8168 24.9131 43.6234 24.7202 43.6234 24.3344ZM47.3147 42.7201C45.5973 42.709 43.8744 42.709 42.157 42.7201C41.8225 42.7201 41.7277 42.6033 41.7277 42.2805C41.7388 40.0268 41.7388 37.7731 41.7277 35.5194C41.7277 35.18 41.828 35.0631 42.1793 35.0687C43.8632 35.0854 45.5415 35.0798 47.2254 35.0687C47.5488 35.0687 47.6659 35.1577 47.6604 35.4916C47.6436 36.6324 47.6548 37.7731 47.6548 38.9083C47.6548 40.0602 47.6548 41.2121 47.6548 42.364C47.6548 42.62 47.5767 42.7201 47.3091 42.7201H47.3147ZM47.5823 24.9076C47.5098 24.9076 47.4317 24.9076 47.3592 24.9076C47.2087 24.9076 47.0581 24.8964 46.9076 24.9076C46.6511 24.9354 46.5452 24.8575 46.5507 24.5848C46.5675 23.6722 46.495 23.7891 47.3258 23.7779C47.4485 23.7779 47.5767 23.7779 47.6994 23.7779C48.1956 23.7779 48.1956 23.7835 48.2012 24.2843C48.2012 24.6961 47.9949 24.902 47.5823 24.902V24.9076ZM50.5152 42.7146C50.1137 42.6979 49.7122 42.6867 49.3108 42.7146C48.926 42.7424 48.8201 42.6033 48.8257 42.2249C48.8424 39.6484 48.8313 37.0664 48.8313 34.4899C48.8313 31.9358 48.8313 29.3816 48.8313 26.8329C48.8313 26.4063 49.0506 26.193 49.4892 26.193C49.7791 26.193 50.0635 26.193 50.3535 26.193C50.7289 26.193 50.9166 26.3785 50.9166 26.7495C50.9166 31.8801 50.9166 37.0107 50.9166 42.1414C50.9166 42.1915 50.9166 42.2416 50.9166 42.2917C50.9501 42.5921 50.8274 42.7257 50.5096 42.709L50.5152 42.7146ZM50.8776 24.8853C50.8497 24.9576 50.4873 24.8964 50.2754 24.8964C50.2754 24.8964 50.2754 24.8964 50.2754 24.902C50.0858 24.902 49.9018 24.902 49.7123 24.902C49.623 24.902 49.5115 24.902 49.4836 24.8074C49.3777 24.4902 49.4111 24.1508 49.478 23.8447C49.5226 23.6499 49.807 23.8113 49.9799 23.7835C50.1527 23.7557 50.3312 23.739 50.504 23.7501C50.7215 23.7612 50.9557 23.8113 50.9612 24.0895C50.9668 24.3567 50.9724 24.646 50.8776 24.8853ZM49.5394 22.4814C49.3889 22.4814 49.3219 22.281 49.1658 22.3534C48.6751 22.5648 48.151 22.4869 47.6436 22.4869C41.2482 22.4869 34.8471 22.4869 28.4517 22.4869C22.0562 22.4869 15.6552 22.4869 9.25972 22.4869C8.75233 22.4869 8.22818 22.5648 7.7375 22.3534C7.58138 22.2866 7.51448 22.4869 7.36393 22.4814C6.00344 22.4758 4.63735 22.4814 3.17091 22.4814C3.97383 22.0473 4.68196 21.6633 5.40124 21.2849C5.55178 21.207 5.71908 21.2349 5.88078 21.2349C13.4026 21.2349 20.9299 21.2349 28.4517 21.2349C35.9734 21.2349 43.5008 21.2349 51.0226 21.2349C51.1843 21.2349 51.3571 21.207 51.5021 21.2849C52.2158 21.6633 52.9295 22.0529 53.7324 22.4814C52.2659 22.4814 50.8999 22.4814 49.5394 22.4814Z" fill="#7F7E02"/>
<path d="M34.8638 27.9014C34.3174 27.9014 33.8769 28.3298 33.8769 28.8641C33.8769 29.3927 34.3341 29.8657 34.8415 29.8601C35.2932 29.8601 35.8285 29.3426 35.8452 28.903C35.8619 28.4411 35.3378 27.9014 34.8638 27.8958V27.9014Z" fill="#7F7E02"/>
<path d="M45.4969 36.0035C44.7051 35.5361 44.0472 35.8143 43.4227 36.2818C42.7647 36.7715 42.3633 37.4003 42.4525 38.2739C42.4915 38.6857 42.4581 39.0975 42.4581 39.5149C42.4581 40.0658 42.4525 40.6167 42.4581 41.1676C42.4581 41.5627 42.6867 41.8186 43.077 41.8242C44.1699 41.8409 45.2571 41.8409 46.35 41.8242C46.7347 41.8242 46.9801 41.5738 46.9856 41.1731C47.0024 40.0825 47.0414 38.9918 46.9689 37.9067C46.9076 36.9941 46.2496 36.4598 45.4913 36.0091L45.4969 36.0035ZM45.7143 39.1142C45.7143 39.4759 45.7143 39.8376 45.7143 40.1993C45.7143 40.4108 45.6475 40.5388 45.4188 40.5388C44.917 40.5388 44.4152 40.5388 43.9189 40.5388C43.7349 40.5388 43.6457 40.4553 43.6457 40.2661C43.6457 39.5427 43.629 38.8137 43.6513 38.0903C43.6625 37.6284 44.2925 37.0219 44.6773 37.0441C45.2237 37.0775 45.7144 37.6062 45.7199 38.1793C45.7199 38.491 45.7199 38.8026 45.7199 39.1142H45.7143Z" fill="#7F7E02"/>
<path d="M42.4637 30.5947C42.4637 31.1456 42.4637 31.6965 42.4637 32.2474C42.4692 32.6925 42.709 32.9485 43.1662 32.9541C44.181 32.9652 45.2014 32.9652 46.2162 32.9541C46.7124 32.9541 46.9968 32.6814 47.0024 32.1862C47.0191 31.1456 47.0693 30.0994 46.9912 29.0699C46.9132 28.0238 46.1827 27.4117 45.2739 27.0221C44.4821 26.6827 43.8353 27.0444 43.2443 27.5396C42.6922 28.0015 42.4023 28.5747 42.4581 29.3148C42.4915 29.7377 42.4637 30.1662 42.4637 30.5947ZM43.6513 29.2369C43.6625 28.7472 44.2591 28.174 44.7107 28.1963C45.1345 28.2185 45.7868 28.7305 45.7255 29.2647C45.6865 29.5875 45.7199 29.9158 45.7199 30.2385C45.7199 30.6002 45.7143 30.9619 45.7199 31.3236C45.7199 31.5518 45.6419 31.6742 45.3965 31.6687C44.9226 31.6631 44.4487 31.6575 43.9691 31.6687C43.7238 31.6687 43.6401 31.5741 43.6401 31.3348C43.6513 30.6336 43.6346 29.938 43.6457 29.2369H43.6513Z" fill="#7F7E02"/>
</svg>
