<svg width="41" height="44" viewBox="0 0 41 44" fill="none" xmlns="http://www.w3.org/2000/svg">
<path d="M19.5086 3.79645H17.6112V1.92444H19.5033V0H21.4702V1.88774H23.3889V3.80694H21.4969C21.4969 5.03396 21.4007 6.22953 21.5343 7.40412C21.6091 8.06483 22.0581 8.68359 22.3521 9.31283C23.9234 12.6583 25.5108 15.9933 27.0662 19.3441C27.2372 19.7059 27.3174 20.1359 27.328 20.5396C27.3548 22.1914 27.3387 23.8379 27.3387 25.5159C29.0811 26.077 30.8128 26.6328 32.5392 27.1887C35.0833 28.0067 37.6274 28.8247 40.1716 29.6532C40.7809 29.8525 41 30.1566 41 30.7754C41 34.8078 41 38.8402 41 42.8726C41 43.6434 40.6152 43.9895 39.7654 43.9895C34.3938 43.9895 29.0223 43.9895 23.6508 43.9895C16.2002 43.9895 8.74958 43.9843 1.29896 44C0.470515 44 -0.0105151 43.6959 0.000174472 42.7258C0.0375879 38.7825 0.0162088 34.8392 0.0162088 30.896C0.0162088 30.0675 0.160518 29.8629 0.962235 29.606C5.0403 28.2951 9.11303 26.9789 13.1964 25.6785C13.5759 25.5579 13.6989 25.3953 13.6935 24.9968C13.6668 23.4656 13.7095 21.9292 13.6668 20.398C13.6507 19.8579 13.8752 19.4175 14.0837 18.9718C15.8475 15.2173 17.6219 11.4628 19.3964 7.70826C19.4445 7.60338 19.5033 7.48802 19.5033 7.3779C19.5086 6.20331 19.5033 5.03396 19.5033 3.80169L19.5086 3.79645ZM20.5188 16.8218C20.444 16.8743 20.3531 16.9215 20.2729 16.9844C18.7817 18.1223 17.2852 19.2602 15.81 20.419C15.6711 20.5291 15.6123 20.8018 15.6123 20.9958C15.6016 27.8546 15.6016 34.7081 15.6016 41.5669C15.6016 41.7242 15.6016 41.8868 15.6016 42.0651H17.5792V41.5564C17.5792 40.5601 17.6059 39.5638 17.5738 38.5675C17.5097 36.6011 18.5252 35.1224 19.7972 33.7695C20.2088 33.329 20.77 33.3657 21.2029 33.7957C21.4595 34.0474 21.7 34.3201 21.9191 34.598C22.9079 35.8513 23.5172 37.2199 23.4317 38.8507C23.3783 39.9151 23.421 40.9849 23.421 42.0546H25.3344C25.3451 41.9759 25.3558 41.9287 25.3558 41.8868C25.3558 34.8654 25.3558 27.8441 25.3451 20.8228C25.3451 20.6497 25.2169 20.4295 25.0725 20.3194C23.5707 19.15 22.0527 17.9964 20.5134 16.8166L20.5188 16.8218ZM13.6507 42.0756V27.5452C13.5599 27.5714 13.5064 27.5872 13.453 27.6029C9.72233 28.8037 5.99702 30.0045 2.26102 31.1896C1.97774 31.2787 1.94033 31.4203 1.94033 31.6668C1.94568 34.9861 1.94033 38.3001 1.94033 41.6194C1.94033 41.7662 1.95102 41.9078 1.96171 42.0651H3.9179C3.9179 41.8868 3.9179 41.7452 3.9179 41.5984C3.93393 40.8433 3.8698 40.0725 3.98204 39.3279C4.28669 37.3143 5.51599 35.8618 7.13011 34.6872C7.64856 34.3096 7.99062 34.3044 8.49303 34.6977C9.03286 35.1276 9.56733 35.5733 10.027 36.082C11.0104 37.1727 11.6571 38.4312 11.6839 39.9256C11.6946 40.6335 11.6839 41.3467 11.6839 42.0756H13.6507ZM29.2629 42.0756C29.2629 41.8081 29.2522 41.5826 29.2629 41.3624C29.2949 40.6073 29.2468 39.8365 29.3911 39.1076C29.7813 37.1779 30.9785 35.7516 32.5766 34.6295C32.9775 34.3463 33.4264 34.3201 33.7899 34.64C34.474 35.2378 35.1849 35.8303 35.7621 36.5277C36.6921 37.6551 37.1411 38.9818 37.0876 40.45C37.0662 40.9901 37.0876 41.5355 37.0876 42.0651H39.001C39.0117 41.9759 39.0224 41.913 39.0224 41.8553C39.0224 38.4522 39.0224 35.0437 39.0278 31.6406C39.0278 31.3626 38.9209 31.263 38.6643 31.1844C35.5323 30.1828 32.4056 29.1708 29.2789 28.164C28.6429 27.9595 28.0068 27.755 27.3708 27.5505V42.086H29.2575L29.2629 42.0756ZM7.79821 36.7217C6.15736 37.8963 5.36099 40.1773 5.91685 42.0703H9.70095C9.96819 39.9728 9.7063 38.0798 7.79287 36.7217H7.79821ZM33.1966 36.7375C31.2404 38.0641 31.0587 39.9886 31.2992 42.0598H35.0887C35.3292 39.9623 35.0887 38.0536 33.1966 36.7375ZM20.4974 9.92635C19.4071 12.2441 18.3595 14.4674 17.3119 16.6907C18.1404 16.1664 18.894 15.5948 19.6423 15.018C20.3371 14.4779 20.6845 14.4831 21.3633 15.018C22.1169 15.6105 22.8865 16.1926 23.6508 16.7799C23.6669 16.7642 23.6882 16.7484 23.7043 16.7327C22.646 14.4884 21.5931 12.2493 20.4974 9.92111V9.92635ZM20.5134 35.9719C20.4226 36.0767 20.3478 36.1449 20.2943 36.2288C19.7972 36.9892 19.4766 37.7914 19.5033 38.7248C19.5354 39.8312 19.5086 40.9429 19.5086 42.0598H21.4809C21.4809 41.8553 21.4809 41.6823 21.4809 41.504C21.4648 40.2874 21.4862 39.0709 21.406 37.8544C21.3579 37.157 20.9571 36.5592 20.5134 35.9666V35.9719Z" fill="#E2D512"/>
<path d="M17.189 22.9098C17.205 21.1531 18.7016 19.6744 20.46 19.6744C22.3307 19.6744 23.8432 21.1846 23.8219 23.0461C23.8058 24.7661 22.2077 26.2658 20.4226 26.229C18.6321 26.1923 17.1676 24.6926 17.1836 22.9098H17.189ZM20.4279 24.8657C21.6412 24.8814 22.4483 24.1525 22.4803 23.0094C22.5124 21.8768 21.7053 21.043 20.5402 21.022C19.4498 21.0011 18.5038 21.8873 18.4824 22.9517C18.4664 23.9743 19.359 24.8552 20.4226 24.8709L20.4279 24.8657Z" fill="#E2D512"/>
<path d="M21.3472 23.6124H20.2195V21.7667H20.754V23.0881H21.3472V23.6124Z" fill="#E2D512"/>
<path d="M15.6764 21.0168H13.6561V8.81468L14.6663 6.63854L15.6764 8.81468V21.0168Z" fill="#E2D512"/>
<path d="M27.2799 21.0168H25.2596V8.81468L26.2698 6.63854L27.2799 8.81468V21.0168Z" fill="#E2D512"/>
</svg>
