<svg width="53" height="44" viewBox="0 0 53 44" fill="none" xmlns="http://www.w3.org/2000/svg">
<path d="M0 42.7286C0.255862 42.3729 0.601581 42.1928 1.04325 42.2246C1.51537 42.2579 1.67376 42.0218 1.66006 41.5875C1.6433 41.0835 1.64483 40.5796 1.65092 40.0756C1.6631 39.0148 1.99664 38.6576 3.0673 38.6515C5.27411 38.6364 7.48244 38.6304 9.68925 38.6697C10.3076 38.6803 10.568 38.5335 10.5178 37.8828C10.466 37.2063 10.4858 36.5222 10.498 35.8412C10.5056 35.3978 10.3289 35.1935 9.86744 35.2102C9.31003 35.2298 8.75109 35.2056 8.19368 35.2132C7.6652 35.2207 7.22658 35.0785 7.06362 34.5246C6.89152 33.9419 7.27684 33.6272 7.70785 33.379C9.24454 32.4967 10.7736 31.5962 12.3423 30.773C12.9911 30.4325 13.1815 30.0148 13.2348 29.2989C13.3261 28.1049 12.9682 27.2256 12.0377 26.4795C11.3706 25.9438 10.801 25.287 10.1995 24.6726C9.42578 23.8841 9.51563 23.2515 10.5178 22.7945C12.6149 21.8381 14.7182 20.8922 16.8427 19.9993C17.4641 19.7375 17.589 19.3773 17.6484 18.7508C17.7626 17.531 17.3712 16.6336 16.4224 15.8709C15.7553 15.3351 15.1857 14.6783 14.5841 14.0624C13.8257 13.2845 13.9719 12.5914 15.0121 12.2494C17.4687 11.4397 19.7379 10.2896 21.7498 8.66874C22.8768 7.76224 23.8805 6.73163 24.7257 5.55121C24.9999 5.16984 25.0593 4.92316 24.6618 4.53574C23.5637 3.46428 23.5835 1.7451 24.6328 0.747787C25.7004 -0.266168 27.3514 -0.246494 28.4083 0.791675C29.4165 1.78293 29.418 3.47487 28.3504 4.52363C27.9727 4.89441 27.9788 5.14109 28.2682 5.53759C30.3379 8.38423 33.1113 10.3062 36.3355 11.6365C36.8259 11.8392 37.333 12.0057 37.8356 12.1813C39.0631 12.6111 39.2246 13.2527 38.326 14.1577C37.63 14.8569 36.9645 15.5909 36.2167 16.231C35.5603 16.794 35.3805 17.4311 35.3501 18.2741C35.3151 19.2668 35.5846 19.8071 36.5578 20.1885C38.5149 20.9527 40.4186 21.8532 42.3345 22.7173C43.5209 23.253 43.6214 23.8523 42.7092 24.7664C41.8883 25.5897 41.0567 26.4054 40.2358 27.2287C39.8399 27.6252 39.5794 29.7938 39.8993 30.2387C40.0241 30.4113 40.2495 30.5202 40.4445 30.6322C41.9644 31.4948 43.4889 32.3484 45.0089 33.208C45.2069 33.32 45.4109 33.4319 45.5815 33.5772C45.8861 33.839 46.0704 34.1644 45.9212 34.5806C45.778 34.9816 45.4734 35.1874 45.053 35.198C44.4697 35.2132 43.8849 35.2374 43.3031 35.2026C42.7198 35.1678 42.4624 35.3675 42.4929 35.9729C42.5264 36.6267 42.5234 37.285 42.4838 37.9388C42.4503 38.4972 42.6361 38.6773 43.2178 38.6667C45.3226 38.6273 47.4289 38.6409 49.5352 38.6455C51.0886 38.6485 51.3536 38.9179 51.3521 40.4434C51.3521 40.6961 51.3689 40.9503 51.3384 41.1985C51.2577 41.8871 51.413 42.3351 52.2507 42.2443C52.5385 42.2125 52.77 42.4213 53 42.5772V43.4852C52.6558 44.0089 52.1243 44.0013 51.5791 43.9998C45.7201 43.9937 39.8612 43.9952 34.0007 43.9952C23.0946 43.9952 12.187 43.9952 1.28083 43.9998C0.811753 43.9998 0.370086 43.9589 0 43.6351V42.727V42.7286ZM26.5198 35.2117C26.0629 35.2117 25.606 35.2117 25.1491 35.2117C21.165 35.2117 17.1808 35.2223 13.1967 35.1996C12.5692 35.1965 12.324 35.3872 12.3682 36.0183C12.4108 36.6206 12.4047 37.229 12.3728 37.8328C12.3423 38.4003 12.522 38.6652 13.1403 38.65C14.4334 38.6198 15.7294 38.6228 17.0224 38.6546C17.5007 38.6667 17.6469 38.5063 17.6271 38.0507C17.6012 37.4469 17.8647 36.9717 18.5195 36.9641C19.1866 36.9566 19.4409 37.4242 19.3968 38.0386C19.3602 38.5411 19.5582 38.6939 20.0608 38.6682C20.8954 38.6243 21.7361 38.6228 22.5722 38.6576C23.585 38.7 23.8759 39.0163 23.9079 40.0075C23.9216 40.4615 23.9338 40.9171 23.9079 41.3695C23.8744 41.9461 24.016 42.2458 24.7014 42.2428C25.3654 42.2382 25.5999 42.04 25.574 41.3726C25.5314 40.2391 25.5588 39.104 25.5771 37.969C25.5832 37.5377 25.7766 37.1821 26.1954 37.005C26.532 36.8627 26.8472 36.9475 27.1046 37.1987C27.3772 37.4636 27.4412 37.8071 27.4412 38.1718C27.4412 39.2811 27.4717 40.3919 27.4321 41.4997C27.4092 42.1504 27.7336 42.2307 28.2728 42.2352C28.8378 42.2412 29.1424 42.099 29.0952 41.4755C29.0617 41.0245 29.083 40.5675 29.0906 40.115C29.1119 38.983 29.4211 38.6637 30.542 38.647C31.3538 38.6364 32.167 38.6288 32.9773 38.6697C33.4448 38.6939 33.6337 38.5456 33.6002 38.0795C33.5575 37.4772 33.7677 36.9808 34.4409 36.9687C35.1475 36.9551 35.3958 37.459 35.3729 38.0916C35.3577 38.5123 35.4948 38.6652 35.938 38.6561C37.231 38.6288 38.527 38.6258 39.8201 38.6515C40.3973 38.6621 40.6668 38.482 40.6257 37.8722C40.5876 37.2941 40.5755 36.7084 40.6303 36.1333C40.7003 35.3963 40.4155 35.192 39.6876 35.198C35.2968 35.2283 30.9075 35.2132 26.5168 35.2132L26.5198 35.2117ZM11.8428 33.3427H41.5471C41.0232 33.0491 40.5313 32.8357 40.111 32.5254C39.185 31.8414 38.1676 31.6961 37.0376 31.7007C29.881 31.7355 22.7245 31.7567 15.568 31.6886C14.0206 31.6734 13.0124 32.5633 11.8428 33.3427ZM40.0972 24.6862H12.8753C13.7206 25.6971 14.4562 26.4039 15.8832 26.3872C22.9636 26.3025 30.047 26.3055 37.1274 26.3857C38.5453 26.4024 39.3068 25.7365 40.0957 24.6862H40.0972ZM26.5015 29.8513C30.0547 29.8513 33.6078 29.8438 37.1609 29.8589C37.7458 29.8619 38.0366 29.7393 38.0366 29.0674C38.0366 28.4061 37.8265 28.1942 37.1609 28.1972C32.4655 28.2199 27.7702 28.2078 23.0748 28.2078C20.6639 28.2078 18.253 28.2048 15.8421 28.2154C15.5375 28.2154 15.1583 28.0928 15.0091 28.5377C14.7288 29.3746 15.0502 29.8483 15.9183 29.8483C19.4455 29.8513 22.9743 29.8483 26.5015 29.8483V29.8513ZM19.776 12.2312H33.2103C32.9925 12.089 32.895 12.0193 32.793 11.9588C30.4659 10.5726 28.3992 8.89424 26.8412 6.65899C26.5335 6.21709 26.3645 6.38659 26.1269 6.71347C25.2801 7.88179 24.3008 8.9245 23.1921 9.85976C22.1686 10.7239 21.0462 11.4397 19.7775 12.2297L19.776 12.2312ZM12.787 42.2185C15.603 42.2185 18.419 42.2019 21.235 42.2307C21.8762 42.2367 22.0666 42.0203 22.059 41.4028C22.0514 40.8096 21.9798 40.4827 21.2426 40.4873C15.6106 40.5145 9.97862 40.51 4.34661 40.4903C3.71 40.4888 3.51201 40.7022 3.51963 41.3196C3.52724 41.9159 3.60491 42.2428 4.33899 42.2337C7.155 42.1959 9.97101 42.2185 12.787 42.2185ZM40.2876 40.5024C37.4716 40.5024 34.6556 40.5175 31.8396 40.4903C31.203 40.4842 30.9349 40.631 30.9395 41.3257C30.9441 42.0067 31.1268 42.2382 31.8426 42.2337C37.4244 42.2064 43.0061 42.2064 48.5864 42.2337C49.3068 42.2367 49.4849 41.9976 49.491 41.3226C49.4986 40.6189 49.2108 40.4857 48.5833 40.4903C45.8176 40.516 43.0534 40.5009 40.2876 40.5009V40.5024ZM15.1583 22.8308H38.0778C36.7391 22.2391 35.5694 21.7185 34.3937 21.2115C34.2383 21.1449 34.0464 21.1434 33.8713 21.1419C32.8067 21.1358 31.7421 21.1404 30.6776 21.1374C30.3897 21.1374 30.1323 21.1495 29.9739 21.4597C29.7211 21.9561 29.2612 22.0424 28.7495 22.0393C27.2539 22.0287 25.7583 22.0272 24.2627 22.0393C23.7205 22.0439 23.2515 21.941 22.991 21.4083C22.8875 21.1964 22.7032 21.1601 22.49 21.1404C19.8461 20.8801 17.3682 21.3371 15.1583 22.8323V22.8308ZM26.4528 20.1703C26.832 20.1703 27.2128 20.1552 27.592 20.1733C28.0656 20.1961 28.3047 20.0205 28.2712 19.5196C28.1662 17.9381 28.192 16.3566 28.2712 14.7752C28.2971 14.2591 28.0337 14.1259 27.5752 14.138C26.9173 14.1547 26.2578 14.1774 25.6014 14.1335C24.9526 14.0911 24.6968 14.2985 24.7181 14.9795C24.7516 16.0827 24.9009 17.1829 24.779 18.2922C24.5734 20.1643 24.5871 20.1658 26.4513 20.1688L26.4528 20.1703ZM17.4534 14.1411C17.4352 14.2016 17.4154 14.2621 17.3971 14.3242C18.0642 14.7948 18.3581 15.7468 19.3618 15.774C20.3456 15.8012 21.3325 15.7679 22.3164 15.78C22.7565 15.7846 22.9438 15.6181 22.9575 15.1611C22.9849 14.2122 22.9453 14.1486 21.96 14.1456C21.3279 14.1426 20.6974 14.1441 20.0654 14.1426C19.1942 14.1426 18.3246 14.1426 17.4534 14.1426V14.1411ZM35.6516 14.1471C33.8956 14.1471 32.2599 14.1532 30.6227 14.1441C29.9892 14.1411 30.0668 14.5769 30.0577 14.978C30.047 15.4078 30.0501 15.7967 30.6608 15.7785C31.2913 15.7589 31.9371 15.6968 32.5508 15.7982C33.9611 16.0313 34.8323 15.3185 35.6516 14.1471ZM21.168 19.3667C21.168 19.3667 21.168 19.3622 21.168 19.3592C21.5975 19.3592 22.0285 19.3607 22.458 19.3592C23.0718 19.3561 22.953 18.8946 22.9408 18.5435C22.9286 18.1818 23.1174 17.6627 22.4519 17.6536C21.5914 17.6415 20.7324 17.6491 19.872 17.6506C19.6831 17.6506 19.5536 17.7035 19.479 17.9184C19.1257 18.9218 19.4303 19.3728 20.4857 19.3682C20.7126 19.3682 20.9411 19.3682 21.168 19.3682V19.3667ZM31.902 17.6445V17.6475C31.4726 17.6475 31.0416 17.6521 30.6121 17.6475C29.8963 17.6369 30.0805 18.1636 30.0623 18.5586C30.044 18.9702 30.0044 19.3909 30.6425 19.3682C31.2989 19.3455 31.9584 19.3682 32.6163 19.3682C33.6047 19.3682 33.6383 19.3017 33.5804 18.3497C33.5484 17.8186 33.3885 17.5598 32.8128 17.6385C32.5143 17.6793 32.2066 17.646 31.9036 17.646L31.902 17.6445ZM26.5122 1.81017C26.034 1.88281 25.7111 2.16127 25.6791 2.63041C25.6456 3.12528 25.9715 3.43704 26.4543 3.46277C26.9797 3.49001 27.3361 3.18279 27.327 2.65463C27.3194 2.18246 26.9904 1.90097 26.5122 1.81168V1.81017Z" fill="#ED7977"/>
</svg>
