<svg width="35" height="44" viewBox="0 0 35 44" fill="none" xmlns="http://www.w3.org/2000/svg">
<path d="M17.5268 43.9862C12.5684 43.9862 7.61009 43.9862 2.65174 43.9862C0.50329 43.9862 -0.558867 42.3575 0.295686 40.3743C0.590194 39.6892 1.14541 39.3156 1.87927 39.2581C2.52139 39.2054 2.70485 38.894 2.70002 38.2761C2.67588 34.9756 2.68071 31.6798 2.6952 28.3793C2.6952 27.8667 2.59381 27.5889 1.97583 27.5266C0.50329 27.3733 -0.0422727 26.5637 0.0349751 24.8201C0.0929109 23.541 0.855733 22.789 2.21723 22.7602C3.93599 22.7267 5.65958 22.7458 7.38317 22.7458C8.54189 22.7458 8.59017 22.6644 8.75914 21.5243C9.24194 18.2956 9.7006 15.0574 10.28 11.8431C10.8352 8.75808 12.776 6.82758 15.8032 6.02759C16.5515 5.83119 16.8171 5.5294 16.7833 4.77253C16.7253 3.56536 16.7543 2.3582 16.7688 1.15104C16.7833 0.0157313 17.1985 -0.252527 18.193 0.226506C19.2359 0.72949 20.2787 1.22768 21.2974 1.76899C22.2485 2.27677 22.2485 2.92825 21.2974 3.4504C20.467 3.90548 19.6076 4.31266 18.7579 4.73421C18.4344 4.89229 18.2413 5.11743 18.2896 5.49587C18.3379 5.85035 18.6131 5.85514 18.8786 5.91742C22.3692 6.76051 24.2811 9.02634 24.8363 12.485C25.3384 15.5939 25.8454 18.7028 26.2896 21.8165C26.4054 22.6309 26.7289 22.9087 27.5448 22.8848C29.2636 22.8369 30.9872 22.8608 32.7108 22.8752C34.1882 22.8848 34.8592 23.4979 34.9799 24.9015C35.1199 26.5637 34.5309 27.4835 33.0922 27.6799C32.5032 27.7613 32.3632 28.0104 32.3632 28.5374C32.3777 31.8091 32.3825 35.0761 32.3632 38.3479C32.3632 38.9372 32.5756 39.1671 33.155 39.2677C34.6034 39.5312 35.1248 40.3503 34.9703 41.9934C34.8399 43.3634 34.135 43.991 32.6528 43.9957C27.6076 44.0053 22.5575 43.9957 17.5123 43.9957L17.5268 43.9862ZM17.5992 27.699C15.7887 27.699 13.9782 27.7278 12.1677 27.6847C11.3904 27.6655 11.1345 27.9242 11.1442 28.7002C11.178 31.9097 11.1876 35.1193 11.1393 38.3288C11.1249 39.2294 11.5352 39.3348 12.2691 39.3204C12.9643 39.3108 13.4519 39.2916 13.423 38.3527C13.3554 36.2354 13.3988 34.1133 13.4037 31.9912C13.4085 30.3433 14.2534 29.4954 15.9191 29.4667C16.9571 29.4475 17.9951 29.4427 19.0331 29.4715C21.0126 29.5289 21.8188 30.3529 21.8333 32.3313C21.8478 34.3624 21.872 36.3935 21.8237 38.4246C21.8044 39.3108 22.2872 39.3539 22.9486 39.3348C23.5618 39.3204 24.1121 39.397 24.0977 38.4581C24.0542 35.1911 24.0687 31.9193 24.0977 28.6523C24.1025 27.9242 23.8514 27.6655 23.1176 27.6799C21.2781 27.7134 19.4387 27.6895 17.5992 27.6895V27.699ZM17.4495 26.0464C22.4079 26.0464 27.3614 26.0368 32.3197 26.056C33.0487 26.056 33.435 25.8883 33.3819 25.0692C33.3336 24.2931 32.8122 24.3746 32.3101 24.3746C25.0971 24.3746 17.8889 24.3746 10.6759 24.3746C8.00598 24.3746 5.3361 24.3746 2.6614 24.3746C2.14481 24.3746 1.73443 24.4129 1.6958 25.0979C1.65235 25.8404 1.93237 26.0655 2.66623 26.0607C7.59077 26.0368 12.5201 26.0464 17.4447 26.0464H17.4495ZM17.5413 40.8198C12.6119 40.8198 7.68251 40.8198 2.7483 40.8198C2.15929 40.8198 1.70063 40.8533 1.6958 41.6389C1.69097 42.3958 2.08687 42.5012 2.70968 42.5012C12.6022 42.4916 22.4899 42.4916 32.3825 42.5012C33.0149 42.5012 33.3915 42.3814 33.3867 41.6341C33.3867 40.8437 32.9184 40.8198 32.3294 40.8198C27.4 40.8293 22.4706 40.8198 17.5364 40.8198H17.5413ZM20.1725 35.3396C20.1725 34.281 20.1532 33.2175 20.1773 32.1588C20.1966 31.4211 19.9214 31.0666 19.1393 31.0906C18.0723 31.1241 17.0005 31.1145 15.9335 31.0906C15.2286 31.0762 14.8955 31.3541 14.9003 32.0774C14.9148 34.2283 14.9197 36.3791 14.9003 38.53C14.8955 39.1671 15.1852 39.3443 15.7646 39.3348C16.9522 39.3156 18.1399 39.306 19.3276 39.3348C20.0084 39.3539 20.2015 39.0473 20.1822 38.4294C20.1532 37.3995 20.1725 36.3695 20.1725 35.3348V35.3396ZM17.5413 11.2299C19.0572 11.2251 20.5684 11.2299 22.0844 11.2203C22.9631 11.2203 23.0645 11.067 22.6348 10.3293C21.4761 8.34132 19.7138 7.35931 17.4157 7.39284C15.1707 7.42637 13.5389 8.50898 12.4236 10.4155C12.076 11.0095 12.187 11.2538 12.9112 11.2395C14.4562 11.2107 16.0011 11.2299 17.5461 11.2299H17.5413ZM17.5364 22.856C17.9806 22.856 18.4248 22.8273 18.8689 22.8608C19.6028 22.9231 19.8683 22.7075 19.7332 21.9123C19.4628 20.3219 19.2842 18.7172 19.1055 17.1124C18.951 15.7136 18.9703 15.7136 17.5702 15.7136C17.4833 15.7136 17.3916 15.728 17.3047 15.7136C16.3632 15.5508 16.0687 16.0394 15.9915 16.8825C15.8515 18.401 15.6004 19.91 15.4797 21.4285C15.3542 22.9758 15.0162 22.856 16.7398 22.856C17.0053 22.856 17.2709 22.856 17.5413 22.856H17.5364ZM11.8684 22.856C12.076 22.856 12.2836 22.8321 12.4912 22.856C13.3457 22.9614 13.7947 22.7027 13.8382 21.7447C13.8961 20.5471 14.1182 19.3591 14.2775 18.1663C14.6251 15.5603 14.63 15.5699 11.9939 15.7041C11.458 15.7328 11.2118 15.9053 11.1345 16.4609C10.9173 17.9986 10.6517 19.5315 10.3862 21.0644C10.0772 22.856 10.0675 22.856 11.8684 22.856ZM22.9631 22.856C23.3445 22.856 23.6197 22.8225 23.8804 22.8608C24.7736 23.0045 24.9377 22.6021 24.7832 21.8213C24.537 20.6094 24.3391 19.3878 24.1411 18.1711C23.7356 15.6705 23.7404 15.6897 21.2733 15.7088C20.5877 15.7136 20.3946 15.9196 20.5056 16.5998C20.7519 18.1088 20.9546 19.6273 21.1188 21.1507C21.3457 23.2776 21.365 22.7985 22.9631 22.8608V22.856ZM5.90098 33.5145C5.90098 31.8954 5.88167 30.281 5.91063 28.6619C5.92029 28.0296 5.81407 27.6655 5.05125 27.6751C4.35602 27.6847 4.21601 27.996 4.22084 28.5996C4.24015 31.8906 4.24015 35.1863 4.22084 38.4773C4.22084 39.0761 4.4043 39.306 5.03677 39.3156C5.69338 39.3252 5.92995 39.1 5.91546 38.4485C5.88649 36.8007 5.90581 35.1576 5.90581 33.5097L5.90098 33.5145ZM29.1815 33.5385C29.1815 35.1863 29.2008 36.8294 29.1719 38.4773C29.1622 39.0761 29.3505 39.3156 29.983 39.3204C30.6348 39.3204 30.8762 39.1096 30.8713 38.4533C30.852 35.1336 30.852 31.8091 30.8713 28.4894C30.8713 27.8523 30.5961 27.6895 30.0119 27.6847C29.3988 27.6799 29.1719 27.9098 29.1767 28.5182C29.2008 30.1948 29.1864 31.8666 29.1864 33.5432L29.1815 33.5385ZM17.633 12.8442C15.8853 12.8442 14.1375 12.8538 12.3898 12.8442C11.8249 12.8442 11.5883 13.1317 11.5497 13.6442C11.5063 14.2574 11.9891 14.0658 12.2932 14.1041C13.7706 14.2765 15.2431 14.0322 16.7302 14.1137C18.7917 14.2238 20.8677 14.0993 22.9389 14.1137C23.6004 14.1137 23.5762 13.8167 23.4411 13.3376C23.2962 12.8299 22.9148 12.8538 22.5286 12.8538C20.9015 12.8538 19.2697 12.8538 17.6378 12.8538L17.633 12.8442ZM8.49844 32.6666C9.43024 32.9445 9.4592 32.3984 9.51231 31.6798C9.59922 30.4966 8.74466 30.8319 8.15565 30.7601C7.26247 30.6547 7.48939 31.3205 7.43145 31.8187C7.33972 32.6618 7.73561 32.8726 8.49361 32.6666H8.49844ZM26.6661 30.8175C25.9033 30.6211 25.4978 30.8271 25.5799 31.6702C25.633 32.1732 25.4447 32.8534 26.3185 32.7241C26.8496 32.6475 27.7235 33.0642 27.6511 31.8954C27.6076 31.196 27.709 30.511 26.6661 30.8175ZM8.38256 36.1204C9.07297 36.2115 9.53162 36.1061 9.50748 35.2342C9.48817 34.5444 9.32885 34.1899 8.5612 34.2474C7.96253 34.2905 7.36869 34.166 7.41214 35.1145C7.44593 35.8234 7.54249 36.2881 8.38739 36.1204H8.38256ZM26.5986 36.1204C27.3324 36.2402 27.68 36.0103 27.6704 35.1959C27.6607 34.4582 27.4097 34.2235 26.6855 34.2426C26.0289 34.2618 25.5509 34.2762 25.5654 35.1576C25.5799 35.924 25.8164 36.2642 26.5986 36.1204ZM8.64327 37.7635C8.01081 37.7492 7.39283 37.6246 7.41214 38.5827C7.43145 39.4641 8.02046 39.2581 8.52257 39.3012C9.1647 39.3587 9.50748 39.191 9.50748 38.4437C9.50748 37.7204 9.14056 37.6773 8.64327 37.7635ZM26.4972 39.2964C27.0958 39.2964 27.6511 39.4258 27.6607 38.5635C27.6704 37.5767 26.9993 37.8066 26.4441 37.7492C25.8888 37.6917 25.5654 37.7779 25.5654 38.4725C25.5654 39.2389 25.9468 39.3779 26.4972 39.3012V39.2964ZM8.17496 29.2367C8.88467 29.1984 9.47369 29.3804 9.493 28.5134C9.51231 27.723 9.07296 27.6703 8.47429 27.6895C7.92873 27.7086 7.40248 27.6224 7.40731 28.4607C7.40731 29.2032 7.80803 29.2799 8.17013 29.2415L8.17496 29.2367ZM26.5599 29.2176C27.1393 29.2367 27.6607 29.3086 27.6607 28.4655C27.6607 27.632 27.1441 27.6895 26.5986 27.6847C26.082 27.6847 25.5943 27.6416 25.575 28.4128C25.5557 29.2032 25.9951 29.2751 26.5599 29.2176Z" fill="#A05A5A"/>
</svg>
