<svg width="51" height="44" viewBox="0 0 51 44" fill="none" xmlns="http://www.w3.org/2000/svg">
<path d="M1.39768 32.3186C1.69065 32.3363 1.98363 32.3683 2.2766 32.3688C4.36742 32.3732 6.45874 32.3713 8.54957 32.3708C8.88898 32.3708 8.88997 32.3693 8.88997 32.0295C8.88997 30.6675 8.88997 29.305 8.88997 27.9429C8.88997 27.3786 9.09698 27.1698 9.66563 27.1693C11.2876 27.1679 12.9096 27.1669 14.5315 27.1743C14.6985 27.1752 14.7356 27.1354 14.7346 26.9709C14.7267 25.5429 14.7282 24.1154 14.7292 22.6873C14.7297 22.0826 14.9372 21.8812 15.5473 21.8807C16.0083 21.8807 16.4697 21.8768 16.9307 21.8827C17.0818 21.8847 17.1683 21.8379 17.2276 21.6887C17.9212 19.946 19.0793 18.6062 20.7334 17.7016C21.0876 17.5081 21.4527 17.3352 21.8391 17.218C22.0219 17.1629 22.0925 17.0659 22.0816 16.8807C22.0698 16.6764 22.0816 16.4705 22.0732 16.2657C22.0648 16.0692 22.012 15.9303 21.758 15.9239C21.4809 15.917 21.2689 15.7112 21.2136 15.4635C21.1592 15.2193 21.2536 15.0302 21.4473 14.8844C21.5579 14.8012 21.6884 14.783 21.8228 14.7879C21.971 14.7933 22.0322 14.7195 22.0278 14.5777C22.0258 14.5038 22.0283 14.4299 22.0283 14.3561C22.0283 14.0964 21.9058 13.9375 21.6607 13.8794C21.3737 13.8115 21.178 13.5638 21.1973 13.2929C21.218 13.0059 21.4409 12.7813 21.7546 12.7779C21.9774 12.7754 22.0456 12.6838 22.0312 12.48C22.0238 12.3746 22.0273 12.2653 22.0471 12.1614C22.1014 11.8762 22.3272 11.6906 22.5994 11.6936C22.886 11.697 23.0964 11.8674 23.1498 12.1609C23.1745 12.2968 23.1725 12.4381 23.174 12.5775C23.175 12.7109 23.2333 12.771 23.3686 12.771C23.9131 12.77 24.0356 12.8306 23.7659 12.2648C23.6389 11.9989 23.5386 11.7192 23.4378 11.4419C23.3835 11.2922 23.3005 11.2213 23.133 11.213C22.8034 11.1962 22.5737 10.9761 22.552 10.687C22.5307 10.4024 22.7318 10.1503 23.0618 10.0952C23.2431 10.0651 23.3034 9.9824 23.3331 9.81153C23.3854 9.51312 23.4674 9.22013 23.5386 8.92566C23.5742 8.77794 23.5663 8.66616 23.4047 8.57851C23.1814 8.45737 23.088 8.25056 23.1389 7.99499C23.1873 7.7537 23.3662 7.57988 23.6364 7.5523C23.8128 7.53458 23.8716 7.45037 23.9037 7.29624C24.002 6.82254 24.1102 6.3508 24.214 5.87857C24.3034 5.47134 24.4936 5.30243 24.918 5.30293C25.1378 5.30293 25.2095 5.22266 25.1986 5.0124C25.1858 4.76668 25.1882 4.51998 25.1981 4.27426C25.2055 4.08911 25.126 4.02411 24.9486 4.03445C24.7925 4.04332 24.6359 4.03938 24.4793 4.03445C24.1211 4.02313 23.9096 3.8237 23.9017 3.49525C23.8943 3.1742 24.1275 2.91715 24.461 2.89302C24.625 2.8812 24.7905 2.88219 24.9545 2.88958C25.1383 2.89795 25.1991 2.81473 25.1976 2.63893C25.1922 1.99091 25.1961 1.34239 25.1956 0.693874C25.1956 0.544671 25.2065 0.39793 25.2915 0.267931C25.4333 0.050281 25.6956 -0.0486955 25.9377 0.0231978C26.1665 0.0911518 26.3374 0.317665 26.3394 0.584064C26.3443 1.24883 26.3492 1.9136 26.3379 2.57787C26.3339 2.80931 26.4021 2.91371 26.6447 2.89056C26.7914 2.87677 26.9416 2.88071 27.0888 2.89352C27.4134 2.92158 27.6768 3.19882 27.6674 3.49181C27.658 3.80006 27.4016 4.02657 27.0523 4.03495C27.0439 4.03495 27.036 4.03495 27.0276 4.03495C26.5707 4.04217 26.3423 4.27081 26.3423 4.72089C26.3423 4.77013 26.3423 4.81937 26.3423 4.86861C26.3423 5.12828 26.4688 5.27305 26.7218 5.30293C27.0355 5.33986 27.2119 5.50433 27.2795 5.83819C27.3793 6.32815 27.4791 6.8186 27.5671 7.31052C27.5938 7.45923 27.6323 7.53655 27.8067 7.54886C28.0621 7.56708 28.2602 7.76503 28.3072 7.99204C28.3586 8.24022 28.2558 8.47067 27.9974 8.60165C27.8655 8.66862 27.8428 8.73756 27.8719 8.87051C27.9445 9.19896 28.0053 9.52986 28.0661 9.86028C28.0898 9.98781 28.1496 10.0538 28.2849 10.0853C28.6387 10.1671 28.8249 10.3852 28.8111 10.6693C28.7968 10.9727 28.5829 11.178 28.2232 11.2144C28.1002 11.2267 28.0261 11.274 27.986 11.3897C27.8522 11.7773 27.7178 12.1648 27.5784 12.5504C27.5281 12.6892 27.5379 12.7616 27.7133 12.772C28.1234 12.7961 28.1456 12.7823 28.1496 12.3711C28.154 11.9565 28.3625 11.699 28.699 11.6926C29.0473 11.6857 29.2987 11.9536 29.2933 12.3637C29.2903 12.609 29.2992 12.7828 29.6209 12.803C29.8358 12.8163 30.0309 13.1314 30.0186 13.3373C30.0037 13.5884 29.8111 13.8371 29.5502 13.874C29.3358 13.904 29.2706 13.9966 29.2968 14.1946C29.3076 14.2753 29.3047 14.359 29.2968 14.4403C29.2775 14.6525 29.3121 14.7889 29.5803 14.814C29.8264 14.8367 30.0112 15.1026 30.0186 15.3449C30.025 15.5541 29.8412 15.8235 29.5833 15.885C29.3338 15.9446 29.275 16.0741 29.2943 16.3021C29.3111 16.4976 29.3057 16.6961 29.2953 16.8925C29.2864 17.0659 29.3486 17.157 29.5206 17.2161C30.9434 17.7065 32.1138 18.554 33.0382 19.7358C33.4754 20.2947 33.8376 20.9013 34.0826 21.5686C34.1691 21.8044 34.2985 21.8975 34.5569 21.8852C35.0169 21.8635 35.4788 21.8778 35.9398 21.8798C36.4091 21.8817 36.6156 22.0866 36.6161 22.5598C36.6181 23.9878 36.6166 25.4153 36.6171 26.8434C36.6171 27.1708 36.6181 27.1684 36.9343 27.1679C38.5153 27.1669 40.0957 27.1654 41.6767 27.1679C42.2883 27.1688 42.4899 27.3757 42.4899 27.9838C42.4899 29.3296 42.4899 30.6754 42.4899 32.0212C42.4899 32.3678 42.4909 32.3693 42.8259 32.3688C45.2383 32.3654 47.6503 32.358 50.0627 32.3634C50.3389 32.3639 50.6502 32.3028 50.8665 32.5727C50.9461 32.6716 50.999 32.7696 50.999 32.9046C50.9975 35.8911 51.0004 38.8781 50.9999 41.8646C50.9999 42.2211 50.7989 42.4482 50.4466 42.5068C50.374 42.5191 50.2989 42.5205 50.2253 42.5205C46.8578 42.5215 43.4904 42.5215 40.1229 42.5215C38.9658 42.5215 37.8093 42.526 36.6522 42.5161C36.4585 42.5146 36.4096 42.5786 36.4195 42.7559C36.4319 42.9686 36.4249 43.1823 36.421 43.3956C36.4146 43.724 36.1848 43.983 35.8899 43.9993C35.6152 44.0145 35.337 43.7861 35.299 43.4744C35.2684 43.2232 35.2787 42.9667 35.2787 42.7126C35.2787 42.5727 35.2412 42.5127 35.0801 42.5131C28.8724 42.5191 22.6641 42.5205 16.4564 42.5166C16.2632 42.5166 16.1881 42.5639 16.2 42.7618C16.2128 42.9741 16.2108 43.1892 16.1955 43.4015C16.1698 43.7545 15.9001 44.015 15.5952 43.9993C15.2934 43.984 15.0701 43.7245 15.0612 43.37C15.0557 43.1651 15.0528 42.9593 15.0612 42.7544C15.0686 42.5796 15.0167 42.5141 14.823 42.5146C12.2377 42.522 9.65279 42.5205 7.06741 42.521C5.16976 42.521 3.27211 42.521 1.37495 42.521C1.21785 42.521 1.0642 42.5146 0.914993 42.4531C0.629925 42.3349 0.53902 42.1104 0.539514 41.8233C0.540996 40.5351 0.540008 39.2464 0.539514 37.9583C0.539514 36.744 0.536549 35.5292 0.542478 34.3148C0.543466 34.108 0.501966 33.9805 0.259881 33.9982C0.115618 34.0091 0.0523796 33.917 0.0553439 33.7801C0.0667071 33.2877 0.0370634 32.7967 0.00149174 32.3063C-0.0133298 32.099 0.0825167 32.0409 0.279149 32.0349C0.738617 32.0212 1.19808 31.9906 1.65706 31.9562C1.79836 31.9453 1.88729 31.9832 1.9026 32.1251C1.92039 32.291 1.79095 32.2772 1.68522 32.2816C1.58888 32.2856 1.49204 32.2826 1.39521 32.2826C1.39521 32.294 1.39521 32.3048 1.39472 32.3161L1.39768 32.3186ZM10.6498 36.1826C7.76798 36.1826 4.88667 36.1851 2.00487 36.1782C1.75933 36.1777 1.67633 36.2456 1.6783 36.4977C1.68818 38.0238 1.68769 39.5503 1.6783 41.0768C1.67682 41.3161 1.75537 41.3845 1.99005 41.3825C3.32399 41.3732 4.65743 41.3811 5.99137 41.3762C6.40983 41.3747 6.82731 41.3845 7.24676 41.3643C7.73735 41.3407 8.23041 41.3821 8.72199 41.3821C9.33017 41.3821 9.93835 41.3501 10.546 41.3629C11.9704 41.3939 13.3942 41.3643 14.8181 41.3801C15.0256 41.3826 15.0636 41.2826 15.0646 41.1068C15.0656 40.9226 15.0295 40.7981 14.8077 40.8187C14.7262 40.8266 14.6432 40.8207 14.5607 40.8192C14.3972 40.8163 14.2302 40.8379 14.0775 40.7527C13.872 40.6375 13.75 40.3908 13.7915 40.1712C13.8404 39.9117 14.0464 39.7221 14.3448 39.6862C14.5073 39.6665 14.6733 39.6753 14.8379 39.6729C14.9535 39.6714 15.0538 39.6576 15.0572 39.5059C15.0607 39.3558 14.9678 39.3321 14.8477 39.3321C14.7573 39.3321 14.6654 39.3346 14.5765 39.3208C14.289 39.276 14.0696 39.0135 14.0795 38.7343C14.0889 38.462 14.3112 38.2296 14.5982 38.1951C14.6551 38.1882 14.7143 38.1833 14.7707 38.1907C15.0162 38.2217 15.0844 38.1045 15.0755 37.8765C15.0636 37.5737 15.0612 37.2684 15.0878 36.967C15.1175 36.6327 15.3863 36.4032 15.6777 36.4214C15.986 36.4411 16.2 36.6765 16.2123 37.0212C16.2197 37.2344 16.2148 37.4476 16.2148 37.6613C16.2148 37.9857 16.3735 38.1626 16.691 38.1922C16.9677 38.2183 17.1861 38.433 17.2083 38.7008C17.2325 38.9958 17.0645 39.241 16.78 39.3065C16.6772 39.3301 16.568 39.3262 16.4613 39.3321C16.3477 39.339 16.2163 39.3173 16.2103 39.4907C16.2039 39.6763 16.3378 39.6684 16.4648 39.6734C16.6856 39.6822 16.9099 39.6443 17.1258 39.7226C17.4084 39.825 17.5453 40.0555 17.5028 40.3628C17.4662 40.6262 17.2641 40.803 16.9722 40.8163C16.816 40.8237 16.6584 40.8296 16.5033 40.8163C16.282 40.7976 16.196 40.8744 16.1975 41.1058C16.199 41.3299 16.2869 41.3821 16.4934 41.3806C17.4237 41.3722 18.354 41.3776 19.2843 41.3766C19.6138 41.3766 19.6153 41.3752 19.6153 41.0497C19.6158 39.5478 19.6153 38.0464 19.6153 36.5445C19.6153 36.3029 19.4912 36.1819 19.2428 36.1816C16.3778 36.1816 13.5128 36.1816 10.6483 36.1816L10.6498 36.1826ZM39.3275 36.1816C36.9654 36.1816 34.6029 36.1826 32.2408 36.1816C32.0689 36.1816 31.9137 36.1663 31.9147 36.4224C31.9212 37.9977 31.9192 39.5724 31.9162 41.1477C31.9162 41.3161 31.979 41.3801 32.1494 41.3791C33.1123 41.3747 34.0752 41.3752 35.0386 41.3791C35.1992 41.3796 35.2802 41.3348 35.2832 41.1575C35.2881 40.8488 35.2703 40.8212 34.9586 40.8197C34.8598 40.8192 34.761 40.8207 34.6622 40.8192C34.2872 40.8133 34.0313 40.5962 34.0204 40.2766C34.01 39.9723 34.2733 39.7064 34.6241 39.6788C34.7876 39.666 34.9532 39.6734 35.1177 39.6684C35.2303 39.665 35.2773 39.5995 35.2748 39.4917C35.2723 39.3922 35.2214 39.3415 35.1226 39.3361C35.0159 39.3306 34.9077 39.3341 34.803 39.3164C34.5065 39.2656 34.3143 39.016 34.3326 38.7176C34.3499 38.4379 34.5708 38.2163 34.8598 38.1927C34.9334 38.1868 35.0085 38.1843 35.0816 38.1902C35.2649 38.2055 35.3301 38.1217 35.3252 37.944C35.3168 37.649 35.3207 37.3536 35.3242 37.0581C35.3286 36.6996 35.5628 36.4332 35.8765 36.4214C36.1908 36.4101 36.4462 36.6637 36.4659 37.0237C36.4778 37.2364 36.4704 37.4501 36.4704 37.6633C36.4704 37.9804 36.6296 38.1569 36.9481 38.1927C37.2258 38.2237 37.4501 38.4625 37.4595 38.7368C37.4694 39.0229 37.2791 39.2661 36.9936 39.3149C36.873 39.3356 36.7476 39.3301 36.6245 39.3326C36.5149 39.3351 36.4299 39.3553 36.4269 39.4926C36.4239 39.6399 36.5089 39.6724 36.6319 39.6724C36.8128 39.6724 36.9951 39.6645 37.1749 39.6793C37.5301 39.7088 37.7692 39.9654 37.7574 40.2874C37.746 40.604 37.5059 40.8109 37.1388 40.8177C36.9743 40.8207 36.8093 40.8271 36.6453 40.8168C36.4412 40.804 36.4185 40.9212 36.4235 41.0807C36.4284 41.2338 36.4116 41.3786 36.6413 41.3781C37.9802 41.3762 39.3191 41.4072 40.657 41.3747C41.6352 41.351 42.6124 41.3796 43.5897 41.3702C45.5896 41.3505 47.5895 41.3698 49.5894 41.3776C49.79 41.3786 49.8572 41.3102 49.8562 41.1053C49.8488 39.5631 49.8488 38.0208 49.8557 36.4785C49.8567 36.2594 49.7945 36.1737 49.5623 36.1772C48.7145 36.1885 47.8667 36.1806 47.0189 36.1836C46.9191 36.1836 46.7961 36.1452 46.7427 36.2835C46.7215 36.3382 46.7042 36.3244 46.6884 36.2806C46.6429 36.1531 46.5347 36.1811 46.4384 36.1811C44.0679 36.1811 41.6979 36.1816 39.3275 36.1816ZM15.7884 32.3127C15.7914 32.3333 15.7943 32.3535 15.7973 32.3742C16.3778 32.3742 16.9588 32.3742 17.5393 32.3742C18.3955 32.3737 19.2512 32.3708 20.1074 32.3722C20.5609 32.3732 20.767 32.5825 20.7684 33.04C20.7709 33.6146 20.7773 34.1888 20.765 34.763C20.76 34.9816 20.8381 35.0436 21.051 35.0436C24.1962 35.0382 27.3413 35.0382 30.4864 35.0436C30.7172 35.0436 30.7848 34.9639 30.7804 34.7428C30.769 34.1524 30.772 33.561 30.7794 32.9705C30.7839 32.5904 31.0007 32.3831 31.3822 32.3718C31.4563 32.3698 31.5304 32.3708 31.6045 32.3708C32.4029 32.3713 33.2017 32.3698 34.0001 32.3737C34.2808 32.3752 34.589 32.2157 34.8267 32.5018C34.8282 32.5037 34.8504 32.489 34.8652 32.4806C34.8064 32.3885 34.6735 32.3476 34.673 32.2127C34.718 32.1984 34.7303 32.2339 34.7496 32.256C34.8163 32.3348 34.8914 32.4003 35.0035 32.3599C35.0717 32.3353 35.0801 32.2743 35.0505 32.2171C34.9937 32.1088 34.9141 32.031 34.7768 32.0537C34.7061 32.0655 34.6365 32.095 34.5619 32.064C34.5574 31.936 34.6849 31.9286 34.757 31.8493C34.5391 31.7799 34.59 31.5248 34.3959 31.4086C33.6904 30.9866 33.0031 30.535 32.3159 30.0835C32.1351 29.9643 31.9538 29.9161 31.7389 29.9161C28.034 29.9205 24.3291 29.9328 20.6242 29.9082C19.9073 29.9033 19.2912 30.019 18.6905 30.4459C17.7547 31.1112 16.7597 31.6942 15.7899 32.3122L15.7884 32.3127ZM31.1885 23.6584C31.855 23.6584 32.5219 23.6535 33.1884 23.6613C33.4018 23.6638 33.4601 23.5949 33.4201 23.3826C33.3712 23.1246 33.3198 22.869 33.2492 22.6159C32.8781 21.2829 32.1376 20.1922 31.061 19.332C29.8229 18.3432 28.3887 17.9192 26.8151 17.9227C26.0084 17.9246 25.2021 17.9143 24.3953 17.9256C23.6517 17.936 22.9186 18.0325 22.217 18.293C19.8619 19.168 18.4504 20.8432 17.9627 23.296C17.899 23.616 17.9385 23.6574 18.2582 23.6574C19.5175 23.6579 20.7768 23.6574 22.0357 23.6574C22.2939 23.6574 22.4242 23.5274 22.4265 23.2674C22.4423 21.315 24.3068 19.7796 26.2341 20.1317C27.8131 20.4202 28.9272 21.732 28.9519 23.3309C28.9569 23.6554 28.9569 23.6569 29.2874 23.6574C29.9212 23.6584 30.5546 23.6584 31.1885 23.6584ZM26.532 25.6985L26.574 25.7059C26.574 25.6177 26.5735 25.5291 26.574 25.4409C26.5765 25.0721 26.575 24.7033 26.5834 24.3345C26.5933 23.8869 26.8265 23.6643 27.2805 23.6589C27.3873 23.6574 27.4945 23.6554 27.6012 23.6574C27.7459 23.6604 27.8161 23.5914 27.8092 23.4486C27.7953 23.162 27.78 22.8754 27.6738 22.6036C27.3255 21.7128 26.6002 21.2411 25.5983 21.2524C24.5366 21.2642 23.6418 22.1082 23.5766 23.1576C23.5562 23.4892 23.7141 23.6562 24.0504 23.6589C24.0751 23.6589 24.0998 23.6589 24.1245 23.6589C24.5499 23.6702 24.7629 23.8785 24.7673 24.299C24.7717 24.7087 24.7658 25.1189 24.7703 25.5286C24.7712 25.6113 24.7337 25.7103 24.8286 25.7758C24.9274 25.7261 24.9017 25.6345 24.9037 25.5586C24.9086 25.37 24.914 25.181 24.9037 24.9933C24.8933 24.8062 24.9545 24.7171 25.1551 24.6821C25.5222 24.6181 25.8898 24.6048 26.2598 24.6028C26.4639 24.6019 26.5385 24.6939 26.534 24.888C26.5276 25.1578 26.532 25.4286 26.532 25.6985ZM25.7668 40.378C24.3266 40.378 22.886 40.378 21.4458 40.378C20.9923 40.378 20.7665 40.6021 20.7684 41.0502C20.7699 41.3762 20.7699 41.3776 21.0995 41.3776C22.5312 41.3781 23.963 41.3776 25.3947 41.3776C26.9579 41.3776 28.5216 41.3776 30.0848 41.3776C30.7804 41.3776 30.7695 41.3776 30.7814 40.6907C30.7858 40.4381 30.7038 40.3716 30.4568 40.3731C28.8936 40.3829 27.3299 40.378 25.7668 40.378ZM25.7584 37.1532C27.2311 37.1532 28.7044 37.1566 30.1772 37.1517C30.8659 37.1492 30.768 37.2511 30.775 36.5504C30.7784 36.1831 30.775 36.1826 30.4108 36.1826C27.4075 36.1826 24.4037 36.1826 21.4003 36.1826C20.9778 36.1826 20.7671 36.3958 20.7684 36.8223C20.7694 37.1517 20.7694 37.1532 21.0925 37.1532C22.6478 37.1537 24.2031 37.1532 25.7584 37.1532ZM25.7954 38.2951C24.3068 38.2951 22.8178 38.2926 21.3292 38.2961C20.6795 38.2975 20.7764 38.2202 20.7694 38.8604C20.7655 39.2307 20.7694 39.2312 21.1553 39.2312C24.1655 39.2312 27.1763 39.2326 30.1865 39.2302C30.856 39.2297 30.7695 39.3139 30.775 38.6403C30.7774 38.2975 30.774 38.2961 30.4341 38.2956C28.8877 38.2951 27.3418 38.2951 25.7954 38.2951ZM36.2901 28.3403C36.2817 28.3531 36.2733 28.3659 36.2649 28.3792C37.0178 28.8593 37.7697 29.3404 38.5246 29.8171C38.576 29.8496 38.6506 29.857 38.7144 29.857C39.5128 29.8594 40.3111 29.8565 41.1095 29.8609C41.279 29.8619 41.3452 29.7959 41.3422 29.6275C41.3358 29.2749 41.3328 28.9219 41.3437 28.5693C41.3491 28.3866 41.2904 28.3349 41.1026 28.3359C39.4984 28.3438 37.8942 28.3403 36.2901 28.3403ZM15.1486 28.3418C14.9599 28.3418 14.8299 28.3418 14.6995 28.3418C13.2352 28.3418 11.7703 28.3472 10.3059 28.3359C10.0806 28.3339 10.0233 28.4019 10.0332 28.6131C10.049 28.9406 10.047 29.2695 10.0342 29.597C10.0263 29.8043 10.1073 29.8653 10.3084 29.8634C11.0653 29.8545 11.8222 29.8594 12.5795 29.8599C12.6872 29.8599 12.7915 29.8555 12.8878 29.7934C13.6264 29.3183 14.365 28.8441 15.1486 28.3418ZM30.6208 25.828C31.4928 25.828 32.3653 25.8245 33.2373 25.8309C33.428 25.8324 33.51 25.7669 33.4962 25.5734C33.4858 25.4267 33.4952 25.2784 33.4942 25.1307C33.4927 24.8067 33.4913 24.8038 33.1612 24.8038C31.5896 24.8033 30.0181 24.8038 28.4465 24.8038C27.7173 24.8038 27.7247 24.8038 27.7262 25.535C27.7262 25.762 27.8062 25.8344 28.029 25.8324C28.8926 25.8236 29.7567 25.8285 30.6208 25.828ZM20.7363 25.828C21.469 25.828 22.2012 25.828 22.9339 25.828C23.3933 25.828 23.6218 25.5974 23.6191 25.1361C23.6171 24.8102 23.6122 24.8033 23.2891 24.8033C21.7254 24.8028 20.1618 24.8033 18.5981 24.8033C17.8802 24.8033 17.8886 24.8033 17.8837 25.5207C17.8822 25.7546 17.9548 25.8359 18.1935 25.8324C19.0412 25.8211 19.889 25.828 20.7363 25.828ZM15.9011 30.8679C15.9594 30.8462 15.991 30.8403 16.0167 30.8241C16.903 30.2593 17.7878 29.692 18.6756 29.1292C18.7982 29.0514 18.8234 28.9455 18.8224 28.815C18.8199 28.4216 18.8229 28.0281 18.8209 27.6347C18.8194 27.3633 18.7977 27.3481 18.5689 27.4938C17.7177 28.0375 16.8694 28.5855 16.0191 29.1316C15.9544 29.1735 15.9006 29.2198 15.9006 29.305C15.9006 29.8181 15.9011 30.3322 15.9011 30.8679ZM25.743 13.9065V13.9129C25.0934 13.9129 24.4437 13.9104 23.794 13.9134C23.1577 13.9163 23.2451 13.8425 23.2229 14.4782C23.214 14.7362 23.3094 14.7933 23.5509 14.7914C24.8666 14.781 26.1828 14.7929 27.4984 14.784C28.2543 14.7786 28.1412 14.9376 28.1506 14.0892C28.1525 13.938 28.0878 13.9001 27.9386 13.9016C27.2069 13.9099 26.4747 13.9065 25.743 13.9065ZM11.0757 32.3087C11.0841 32.3284 11.0929 32.3476 11.1013 32.3673C11.9057 32.3673 12.7095 32.3673 13.5138 32.3673C13.582 32.3673 13.6408 32.3402 13.6971 32.3038C13.9935 32.1127 14.29 31.9207 14.5884 31.7331C14.6961 31.6651 14.74 31.5819 14.7371 31.4495C14.7267 31.0319 14.7331 30.6143 14.7292 30.1967C14.7287 30.1357 14.7702 30.0515 14.698 30.018C14.6333 29.988 14.5795 30.0569 14.5261 30.0914C13.7238 30.6035 12.9219 31.1161 12.1206 31.6302C11.7713 31.8547 11.424 32.0822 11.0757 32.3087ZM35.4719 29.9909C35.6265 29.4025 35.3672 29.0351 34.839 28.8101C34.802 28.7943 34.7699 28.7658 34.7353 28.7436C34.1765 28.3846 33.6187 28.0232 33.0575 27.6677C32.8613 27.5436 32.8223 27.5667 32.8198 27.7986C32.8164 28.1507 32.8198 28.5023 32.8193 28.8544C32.8193 28.9741 32.8416 29.078 32.9547 29.1503C33.7294 29.6433 34.5031 30.1381 35.2763 30.6345C35.4106 30.7207 35.4818 30.7187 35.4734 30.5311C35.4655 30.3514 35.4719 30.1711 35.4719 29.9909ZM25.7188 15.9353C25.0529 15.9353 24.3869 15.9343 23.7204 15.9353C23.1814 15.9363 23.2298 15.8919 23.2283 16.4252C23.2273 16.7734 23.2293 16.7743 23.59 16.7743C24.9219 16.7743 26.2544 16.7773 27.5864 16.7734C28.2212 16.7714 28.1372 16.8586 28.154 16.2105C28.1595 15.9904 28.0745 15.9284 27.865 15.9313C27.1496 15.9407 26.4342 15.9353 25.7188 15.9353ZM40.3057 32.3703C40.2835 32.3225 40.281 32.3028 40.2701 32.2959C39.1096 31.5499 37.9486 30.8054 36.7881 30.0594C36.6438 29.9668 36.6196 30.0461 36.6196 30.1692C36.6196 30.5217 36.6305 30.8743 36.6146 31.2264C36.6058 31.4263 36.6868 31.5474 36.8469 31.6469C37.1467 31.8331 37.4526 32.0133 37.7332 32.2255C37.8685 32.3279 37.994 32.3747 38.1571 32.3727C38.6422 32.3673 39.1274 32.3708 39.6125 32.3708C39.8383 32.3708 40.0646 32.3703 40.3057 32.3703ZM30.5729 28.7776C30.8609 28.7776 31.149 28.7732 31.4365 28.7791C31.6005 28.7825 31.6781 28.7219 31.6761 28.5501C31.6707 28.099 31.6712 27.648 31.6761 27.1974C31.6776 27.0285 31.6035 26.964 31.438 26.965C30.8703 26.9689 30.3026 26.9694 29.735 26.965C29.5695 26.964 29.4954 27.027 29.4968 27.1964C29.5018 27.6475 29.5023 28.0985 29.4968 28.5491C29.4949 28.72 29.5685 28.7825 29.7345 28.7786C30.0141 28.7722 30.2933 28.7776 30.5729 28.7776ZM27.3136 28.7776C27.5849 28.7776 27.8561 28.7741 28.1268 28.7791C28.2765 28.782 28.3561 28.7347 28.3541 28.5693C28.3482 28.1025 28.3497 27.6357 28.3531 27.1693C28.3541 27.0206 28.2849 26.966 28.1427 26.9665C27.5839 26.9689 27.0256 26.9694 26.4668 26.9655C26.3087 26.9645 26.2465 27.031 26.248 27.1866C26.2524 27.6366 26.2544 28.0872 26.2475 28.5378C26.2445 28.7214 26.3255 28.784 26.5004 28.7796C26.7712 28.7727 27.0424 28.7771 27.3136 28.7776ZM24.042 28.7776C24.3217 28.7776 24.6013 28.7741 24.8804 28.7791C25.0366 28.782 25.1042 28.718 25.1028 28.5604C25.0988 28.1099 25.0973 27.6588 25.1037 27.2082C25.1062 27.026 25.0282 26.963 24.8518 26.965C24.3256 26.9709 23.7995 26.9709 23.2733 26.965C23.0935 26.963 23.0233 27.0334 23.0258 27.2122C23.0322 27.6544 23.0332 28.0971 23.0258 28.5397C23.0228 28.7244 23.1018 28.786 23.2777 28.78C23.5322 28.7722 23.7871 28.7781 24.042 28.7776ZM35.4729 25.1327C35.4729 24.6491 35.4783 24.1656 35.4714 23.6825C35.4605 22.9276 35.5969 23.0414 34.8005 23.0251C34.589 23.0207 34.5174 23.1034 34.5549 23.3058C34.6533 23.8406 34.6439 24.3817 34.6419 24.9229C34.6399 25.472 34.6419 26.021 34.6419 26.5701C34.6419 27.1743 34.6419 27.1679 35.2476 27.1728C35.42 27.1743 35.4783 27.125 35.4759 26.9522C35.468 26.346 35.4729 25.7389 35.4729 25.1327ZM15.9065 25.1071C15.9065 25.6153 15.9075 26.1234 15.9075 26.6316C15.9075 27.1624 15.908 27.1496 16.4499 27.1743C16.6817 27.1851 16.7404 27.1181 16.7429 26.8921C16.7553 25.664 16.6737 24.4335 16.8195 23.2083C16.8358 23.0724 16.779 23.0286 16.6579 23.0286C16.4771 23.0286 16.2958 23.0345 16.1155 23.0256C15.9559 23.0177 15.9011 23.0749 15.9035 23.2383C15.9119 23.8613 15.9065 24.4842 15.9065 25.1071ZM20.9147 28.7781C21.1533 28.7781 21.3919 28.7736 21.6306 28.7796C21.802 28.784 21.8914 28.7244 21.889 28.5392C21.8835 28.0882 21.8845 27.6371 21.8885 27.1856C21.8899 27.028 21.8203 26.965 21.6651 26.9665C21.1716 26.9699 20.6775 26.9704 20.1835 26.9665C20.0224 26.965 19.9671 27.0398 19.9686 27.1925C19.973 27.6519 19.9725 28.1113 19.9686 28.5708C19.9676 28.7155 20.0264 28.781 20.1736 28.7791C20.4206 28.7751 20.6677 28.7776 20.9147 28.7781ZM5.78634 35.0392C6.06647 35.0392 6.3461 35.0348 6.62573 35.0407C6.78877 35.0441 6.86831 34.989 6.86485 34.8142C6.85744 34.4532 6.85893 34.0923 6.86436 33.7313C6.86683 33.5703 6.79272 33.5142 6.63957 33.5152C6.0882 33.5186 5.53635 33.5186 4.98499 33.5152C4.83183 33.5142 4.75822 33.5678 4.76118 33.7303C4.76711 34.0913 4.76859 34.4522 4.76019 34.8132C4.75624 34.987 4.83035 35.0456 4.99635 35.0412C5.25968 35.0338 5.52301 35.0392 5.78634 35.0392ZM36.0692 33.5166C35.7896 33.5166 35.5095 33.5216 35.2298 33.5147C35.0623 33.5107 34.9922 33.5742 34.9961 33.7456C35.0035 34.0982 35.0031 34.4508 34.9961 34.8033C34.9927 34.9673 35.0465 35.0431 35.2219 35.0412C35.7733 35.0353 36.3246 35.0367 36.876 35.0402C37.0306 35.0412 37.1013 34.9836 37.0988 34.8235C37.0934 34.4626 37.0924 34.1016 37.0988 33.7412C37.1023 33.5664 37.0217 33.5112 36.8587 33.5147C36.5954 33.5206 36.3325 33.5166 36.0692 33.5166ZM12.293 33.5166C12.0139 33.5166 11.7347 33.5211 11.4556 33.5147C11.2861 33.5107 11.2214 33.5821 11.2244 33.7491C11.2308 34.1006 11.2308 34.4532 11.2244 34.8048C11.2214 34.9698 11.2807 35.0426 11.4531 35.0407C11.9867 35.0353 12.5208 35.0348 13.0543 35.0407C13.2361 35.0426 13.3023 34.9673 13.2999 34.7915C13.2954 34.4232 13.2974 34.0549 13.3073 33.687C13.3107 33.5511 13.249 33.5152 13.1309 33.5161C12.8518 33.5181 12.5721 33.5171 12.293 33.5166ZM45.7343 35.0387C46.014 35.0387 46.2936 35.0358 46.5732 35.0397C46.7185 35.0417 46.7827 34.9796 46.7812 34.8339C46.7778 34.465 46.7783 34.0962 46.7812 33.7269C46.7822 33.5851 46.7254 33.5152 46.5772 33.5161C46.0258 33.5186 45.475 33.5181 44.9236 33.5161C44.7808 33.5161 44.7112 33.5782 44.7121 33.723C44.7141 34.0918 44.7151 34.4611 44.7121 34.8299C44.7107 34.9934 44.7966 35.0422 44.9449 35.0397C45.2082 35.0358 45.4715 35.0392 45.7343 35.0387ZM15.5038 35.0387C15.7756 35.0387 16.0473 35.0338 16.3185 35.0407C16.49 35.0451 16.5522 34.9717 16.5492 34.8053C16.5428 34.4527 16.5428 34.1002 16.5492 33.7476C16.5522 33.5787 16.4816 33.5132 16.3141 33.5147C15.779 33.5196 15.2445 33.5196 14.7094 33.5147C14.5394 33.5132 14.4737 33.5866 14.4757 33.7515C14.4807 34.1041 14.4811 34.4567 14.4757 34.8097C14.4732 34.9796 14.5478 35.0446 14.7138 35.0407C14.9772 35.0348 15.2405 35.0392 15.5038 35.0387ZM9.04461 35.0387C9.31634 35.0387 9.58757 35.0353 9.8593 35.0402C10.0159 35.0431 10.0831 34.9767 10.0811 34.8201C10.0767 34.4591 10.0772 34.0982 10.0811 33.7372C10.0831 33.5816 10.0169 33.5147 9.85979 33.5156C9.31683 33.5191 8.77337 33.5191 8.23041 33.5156C8.07429 33.5147 8.0071 33.5802 8.00858 33.7367C8.01303 34.0977 8.01303 34.4586 8.00858 34.8196C8.00661 34.9757 8.07231 35.0431 8.22942 35.0402C8.50066 35.0353 8.77288 35.0387 9.04461 35.0387ZM39.2672 35.0387C39.5468 35.0387 39.827 35.0362 40.1066 35.0397C40.2519 35.0417 40.3161 34.9781 40.3146 34.8329C40.3116 34.4636 40.3116 34.0947 40.3146 33.7254C40.3156 33.5811 40.2528 33.5161 40.1071 33.5166C39.5557 33.5186 39.0044 33.5186 38.453 33.5166C38.3088 33.5161 38.243 33.5802 38.244 33.7244C38.2465 34.0938 38.2465 34.4626 38.244 34.8319C38.243 34.9762 38.3073 35.0412 38.4525 35.0397C38.7242 35.0362 38.9955 35.0387 39.2672 35.0387ZM42.4978 35.0392C42.7611 35.0392 43.025 35.0353 43.2883 35.0407C43.4479 35.0441 43.5363 34.9924 43.5338 34.8166C43.5284 34.4557 43.5299 34.0947 43.5328 33.7338C43.5343 33.5757 43.4597 33.5147 43.3066 33.5156C42.7631 33.5186 42.2197 33.5191 41.6767 33.5156C41.5166 33.5147 41.4583 33.5866 41.4603 33.7407C41.4652 34.1016 41.4657 34.4626 41.4603 34.8235C41.4578 34.9831 41.5275 35.0436 41.6831 35.0407C41.9548 35.0353 42.2261 35.0392 42.4978 35.0392ZM25.7169 8.69718C25.4619 8.69718 25.2065 8.69866 24.9516 8.69669C24.8147 8.6957 24.7416 8.75775 24.7134 8.89267C24.6547 9.17335 24.5885 9.45255 24.5232 9.73176C24.4452 10.0671 24.4516 10.0779 24.8029 10.073C25.4595 10.0632 26.1156 9.97797 26.7736 10.0568C26.9332 10.076 26.9199 9.96959 26.8991 9.86372C26.8374 9.54217 26.7741 9.22062 26.7158 8.89809C26.6892 8.75036 26.6042 8.69275 26.4574 8.6957C26.2109 8.70063 25.9639 8.69669 25.7169 8.69718ZM18.6781 33.5171V33.5201C18.4232 33.5201 18.1678 33.5225 17.9128 33.5191C17.7582 33.5171 17.688 33.5841 17.6895 33.7407C17.6935 34.1016 17.6925 34.4626 17.6895 34.8235C17.6885 34.9624 17.7404 35.0397 17.8906 35.0392C18.401 35.0372 18.9113 35.0377 19.4217 35.0387C19.5551 35.0387 19.6168 34.9762 19.6163 34.8432C19.6148 34.4739 19.6138 34.1051 19.6178 33.7358C19.6198 33.5787 19.5491 33.5132 19.394 33.5161C19.1554 33.5206 18.9167 33.5171 18.6781 33.5171ZM48.8765 35.0387C49.1309 35.0387 49.3854 35.0362 49.6398 35.0397C49.7811 35.0417 49.8532 34.985 49.8523 34.8373C49.8493 34.4695 49.8483 34.1011 49.8523 33.7333C49.8537 33.5752 49.7811 33.5152 49.628 33.5161C49.1354 33.5196 48.6433 33.5196 48.1507 33.5161C47.9981 33.5152 47.923 33.5742 47.9245 33.7328C47.9279 34.0928 47.9289 34.4527 47.9235 34.8122C47.921 34.9826 47.9986 35.0451 48.1626 35.0412C48.4002 35.0353 48.6384 35.0397 48.8765 35.0387ZM1.79292 33.5171C1.99449 33.6368 2.04835 33.7973 1.88827 33.8638C1.66447 33.9569 1.68374 34.107 1.68374 34.2769C1.68374 34.4567 1.68818 34.6369 1.68374 34.8166C1.67978 34.9698 1.74203 35.0417 1.90112 35.0402C2.39369 35.0362 2.88576 35.0353 3.37833 35.0402C3.54582 35.0417 3.61548 34.9747 3.61301 34.8073C3.60757 34.4557 3.60807 34.1036 3.61301 33.752C3.61548 33.5875 3.55076 33.5137 3.3813 33.5152C2.87292 33.5196 2.36306 33.5171 1.79292 33.5171ZM33.514 33.5314C33.5342 33.6688 33.7249 33.7569 33.5851 33.8599C33.4483 33.9608 33.4018 33.7756 33.3257 33.7102C33.22 33.6195 33.1345 33.5117 32.973 33.5156C32.6939 33.5225 32.4142 33.5161 32.1351 33.5181C32.062 33.5181 31.9869 33.5181 31.9419 33.5974C31.8639 33.7353 31.9325 34.1194 32.0575 34.2297C32.2868 34.432 32.2966 34.5 32.1321 34.7639C32.0358 34.9181 32.0768 35.0279 32.2566 35.0323C32.7245 35.0436 33.1933 35.0367 33.6617 35.0372C33.7832 35.0372 33.8435 34.9771 33.8435 34.8565C33.8435 34.4961 33.8514 34.1356 33.8391 33.7756C33.8326 33.59 33.718 33.5048 33.514 33.5314ZM25.7109 7.52374V7.52522C25.8839 7.52522 26.0573 7.51242 26.2287 7.52867C26.41 7.5459 26.45 7.47401 26.408 7.31594C26.3932 7.26079 26.3893 7.20269 26.3759 7.14704C26.1783 6.30845 26.4219 6.45618 25.5059 6.43796C25.3305 6.43451 25.2307 6.49508 25.2026 6.68072C25.1724 6.88261 25.1289 7.0845 25.0716 7.28049C25.0089 7.49567 25.0706 7.56215 25.2915 7.52768C25.4278 7.50651 25.5711 7.52374 25.7109 7.52374ZM25.7109 12.771C26.0874 12.771 26.3435 12.5962 26.4792 12.2465C26.491 12.216 26.5009 12.185 26.5152 12.1554C26.6002 11.9801 26.54 11.9422 26.3547 11.9398C25.912 11.9348 25.4827 12.0993 25.0356 12.0279C24.9229 12.0097 24.9595 12.1072 24.9694 12.1653C25.0583 12.671 25.1769 12.7705 25.6857 12.7705L25.7109 12.771ZM40.4608 31.0107C40.4559 31.025 40.451 31.0393 40.446 31.0535C40.6911 31.2106 40.9356 31.3687 41.1826 31.5228C41.2138 31.542 41.282 31.5588 41.2928 31.545C41.3827 31.4317 41.3294 31.2958 41.3368 31.1693C41.3427 31.0723 41.2918 31.0122 41.191 31.0112C40.9475 31.0092 40.7044 31.0107 40.4608 31.0107ZM10.9008 31.0634C10.8953 31.0462 10.8904 31.0284 10.8849 31.0112C10.6518 31.0112 10.4181 31.0092 10.1849 31.0122C10.0989 31.0132 10.0456 31.0629 10.0436 31.1496C10.0406 31.287 10.0149 31.4263 10.0628 31.5607C10.0653 31.5676 10.1266 31.5667 10.1493 31.5519C10.4013 31.3909 10.6508 31.2269 10.9008 31.0634Z" fill="#3A6C52"/>
<path d="M11.8294 36.7924C11.8239 37.1082 11.5458 37.39 11.2503 37.3791C10.9781 37.3687 10.6802 37.0736 10.6866 36.8205C10.694 36.5225 10.9944 36.2071 11.2627 36.216C11.5517 36.2254 11.8338 36.5126 11.8294 36.7929V36.7924Z" fill="#3A6C52"/>
<path d="M5.8257 36.7999C5.82768 36.4889 6.0831 36.2349 6.39238 36.2354C6.69227 36.2363 6.96004 36.5048 6.96103 36.8063C6.96202 37.092 6.67695 37.3752 6.38546 37.3787C6.09941 37.3817 5.82323 37.0964 5.8257 36.7999Z" fill="#3A6C52"/>
<path d="M11.2709 39.3744C10.9527 39.3799 10.7032 39.1391 10.6988 38.8233C10.6948 38.5257 10.9616 38.2449 11.2566 38.2365C11.5431 38.2281 11.8183 38.5079 11.8208 38.8094C11.8237 39.1426 11.6034 39.369 11.2704 39.3744H11.2709Z" fill="#3A6C52"/>
<path d="M9.38925 38.8122C9.3853 39.088 9.14025 39.3792 8.91002 39.3817C8.58148 39.3856 8.25293 39.1103 8.25837 38.835C8.2643 38.5171 8.53257 38.2354 8.83048 38.2344C9.12889 38.2334 9.3937 38.5067 9.38925 38.8122Z" fill="#3A6C52"/>
<path d="M3.94344 39.3728C3.61588 39.3728 3.39257 39.1425 3.39554 38.8073C3.3985 38.4974 3.65985 38.2309 3.95727 38.2344C4.22208 38.2379 4.53778 38.5582 4.53383 38.8197C4.52939 39.1108 4.25074 39.3718 3.94393 39.3723L3.94344 39.3728Z" fill="#3A6C52"/>
<path d="M9.38891 36.8128C9.38595 37.0896 9.10928 37.3754 8.84002 37.3788C8.54359 37.3828 8.25062 37.0852 8.2605 36.7896C8.27087 36.4752 8.52679 36.2296 8.83607 36.2365C9.14485 36.2434 9.39187 36.5014 9.38891 36.8128Z" fill="#3A6C52"/>
<path d="M3.39602 36.7989C3.39849 36.4875 3.65441 36.2314 3.95924 36.2354C4.25271 36.2394 4.53382 36.5221 4.52888 36.8088C4.52443 37.0861 4.22158 37.3822 3.94689 37.3792C3.64601 37.3758 3.39306 37.1093 3.39553 36.7989H3.39602Z" fill="#3A6C52"/>
<path d="M5.8262 38.8231C5.82323 38.5295 6.09941 38.2354 6.37854 38.2344C6.66065 38.2334 6.95164 38.5196 6.95807 38.8048C6.96498 39.1113 6.71203 39.3693 6.39979 39.3733C6.08557 39.3772 5.82867 39.1311 5.8262 38.8231Z" fill="#3A6C52"/>
<path d="M42.7913 38.8233C42.7878 39.1396 42.522 39.3888 42.1975 39.3804C41.9213 39.3734 41.6476 39.0887 41.6565 38.8169C41.6663 38.5049 41.9603 38.2217 42.2666 38.2276C42.5008 38.2326 42.7943 38.5652 42.7913 38.8233Z" fill="#3A6C52"/>
<path d="M47.1029 36.2334C47.4161 36.2388 47.6765 36.4914 47.677 36.7905C47.677 37.0841 47.3815 37.3812 47.0915 37.3772C46.8035 37.3733 46.5327 37.0871 46.5387 36.7925C46.5446 36.4756 46.7946 36.2285 47.1029 36.2339V36.2334Z" fill="#3A6C52"/>
<path d="M42.7916 36.794C42.7931 37.0945 42.5219 37.3792 42.2353 37.3787C41.9463 37.3787 41.6587 37.0965 41.6563 36.8108C41.6533 36.5068 41.9147 36.2394 42.218 36.2354C42.5238 36.2314 42.7906 36.491 42.7916 36.794Z" fill="#3A6C52"/>
<path d="M47.1004 39.373C46.7842 39.3705 46.5337 39.1194 46.5371 38.808C46.5406 38.5168 46.8306 38.2257 47.1083 38.2346C47.3988 38.2435 47.6774 38.5292 47.6764 38.8169C47.6754 39.1209 47.4116 39.3754 47.1004 39.373Z" fill="#3A6C52"/>
<path d="M45.2215 38.8231C45.2229 39.1503 44.9902 39.3777 44.6573 39.3742C44.344 39.3708 44.0772 39.1083 44.0856 38.8112C44.0935 38.5359 44.3994 38.2339 44.6676 38.2363C44.9606 38.2393 45.22 38.5137 45.2215 38.8231Z" fill="#3A6C52"/>
<path d="M45.2362 36.7603C45.2308 37.096 44.9803 37.3797 44.6883 37.3807C44.3894 37.3817 44.1182 37.095 44.1231 36.784C44.1281 36.4781 44.3721 36.2334 44.669 36.2354C44.9902 36.2378 45.2407 36.4692 45.2357 36.7603H45.2362Z" fill="#3A6C52"/>
<path d="M40.3473 36.7994C40.3498 37.0985 40.0806 37.3773 39.7866 37.3798C39.5139 37.3817 39.2125 37.0832 39.2081 36.8059C39.2036 36.5177 39.4813 36.2419 39.7817 36.2364C40.0875 36.231 40.3444 36.4865 40.3468 36.7999L40.3473 36.7994Z" fill="#3A6C52"/>
<path d="M39.7962 39.3728C39.4835 39.3748 39.2217 39.1222 39.2241 38.8211C39.2266 38.5255 39.5038 38.2329 39.7799 38.2344C40.0897 38.2364 40.3496 38.5092 40.3476 38.8305C40.3456 39.1306 40.1016 39.3708 39.7962 39.3728Z" fill="#3A6C52"/>
<path d="M25.6698 32.9396C24.9391 32.9351 24.3028 32.2955 24.3166 31.5797C24.3314 30.8373 24.9688 30.2065 25.6985 30.2129C26.4183 30.2189 27.0813 30.8788 27.0492 31.6118C27.0146 32.4008 26.3847 32.9578 25.6693 32.9396H25.6698Z" fill="#3A6C52"/>
<path d="M26.2454 18.1981C26.2508 18.5075 25.9983 18.7774 25.6985 18.7828C25.4045 18.7878 25.115 18.5169 25.1081 18.2302C25.1006 17.9173 25.3689 17.6518 25.6915 17.6533C25.9954 17.6543 26.2399 17.895 26.2454 18.1985V18.1981Z" fill="#3A6C52"/>
</svg>
