<svg width="15" height="25" viewBox="0 0 15 25" fill="none" xmlns="http://www.w3.org/2000/svg">
<mask id="path-1-inside-1_1175_33547" fill="white">
<path d="M7.49715 43.9986C5.16153 43.9986 2.82591 43.9986 0.490296 43.9986C0.038927 43.9986 -0.0567598 43.8814 0.0278116 43.4363C0.123498 42.9332 0.224017 42.4306 0.314387 41.9264C0.359331 41.6758 0.493679 41.5615 0.74691 41.5703C1.00449 41.5791 1.26255 41.5664 1.52013 41.5742C1.67478 41.5786 1.73132 41.5195 1.7376 41.3622C1.76128 40.7692 1.79994 40.1762 1.82652 39.5832C1.91351 37.6493 1.99615 35.7149 2.08314 33.7809C2.14499 32.4078 2.2112 31.0347 2.27548 29.6615C2.35666 27.9225 2.43785 26.184 2.51952 24.445C2.58138 23.1285 2.64517 21.8126 2.70703 20.4966C2.79064 18.717 2.86458 16.937 2.96123 15.1584C2.98443 14.7315 3.0168 14.3172 2.82688 13.9167C2.77034 13.797 2.72395 13.7169 2.57268 13.7081C2.30351 13.692 2.1363 13.5103 2.12421 13.2299C2.11213 12.9539 2.11117 12.6759 2.12421 12.3999C2.13871 12.1005 2.32864 11.9276 2.62584 11.9237C2.90759 11.9198 3.19078 11.9075 3.47107 11.9271C3.71222 11.9437 3.7707 11.8465 3.76538 11.6184C3.75233 10.9999 3.75958 10.381 3.76103 9.76211C3.762 9.32101 3.95095 9.12659 4.39073 9.10852C4.62527 9.09875 4.74254 8.97305 4.74254 8.73141C4.74254 7.89268 4.74013 7.05444 4.74448 6.21571C4.74544 6.04718 4.7121 5.95339 4.51976 5.91724C4.24091 5.86498 4.10608 5.64955 4.10463 5.34132C4.09932 4.16553 4.9286 3.00538 6.07442 2.61801C6.30349 2.54034 6.41029 2.43923 6.4388 2.18521C6.50742 1.57168 6.61809 0.962536 6.7046 0.350952C6.73939 0.105732 6.86649 -0.00564227 7.11054 0.00021956C7.37633 0.00656987 7.64213 0.00412728 7.90793 0.00119637C8.12974 -0.00124606 8.25298 0.105732 8.28536 0.327016C8.37959 0.97084 8.48205 1.6132 8.5671 2.258C8.5903 2.43532 8.65892 2.52813 8.82854 2.58675C10.0174 2.99903 10.6857 3.8529 10.8747 5.09805C10.9515 5.60461 10.8418 5.78682 10.3808 5.93874C10.2682 5.97586 10.2537 6.04865 10.2537 6.14195C10.2532 7.07007 10.2542 7.99819 10.2513 8.92631C10.2513 9.05918 10.2938 9.12073 10.4344 9.11194C10.5461 9.1051 10.6611 9.10998 10.7708 9.12903C11.0743 9.1813 11.2299 9.36839 11.2323 9.68835C11.2367 10.3151 11.2338 10.9423 11.2338 11.569C11.2338 11.8045 11.3541 11.9225 11.5948 11.9232C11.8523 11.9232 12.1104 11.9207 12.368 11.9241C12.6657 11.9285 12.8556 12.1005 12.8706 12.3994C12.8841 12.6754 12.8836 12.9534 12.8706 13.2294C12.8575 13.5176 12.6951 13.6807 12.3984 13.7115C12.2858 13.7232 12.2283 13.7677 12.1868 13.8717C12.0553 14.2 11.9809 14.5297 12.006 14.8917C12.065 15.7353 12.1012 16.5809 12.1418 17.4255C12.2375 19.416 12.3327 21.4066 12.424 23.3972C12.4811 24.6326 12.5275 25.868 12.5854 27.1033C12.6565 28.6147 12.7377 30.1251 12.8097 31.6365C12.8667 32.8308 12.9136 34.0257 12.9696 35.2205C13.0431 36.7885 13.1224 38.3566 13.1973 39.9246C13.22 40.396 13.2451 40.8674 13.2543 41.3388C13.2577 41.5195 13.3205 41.5835 13.4974 41.5762C13.7627 41.5654 14.029 41.5752 14.2948 41.5737C14.504 41.5728 14.6268 41.6739 14.6669 41.8805C14.7746 42.4393 14.8892 42.9972 14.9882 43.5575C15.0433 43.8682 14.9061 43.9996 14.5514 43.9996C12.1998 44.0005 9.84775 43.9996 7.49619 43.9996L7.49715 43.9986ZM7.50488 14.687C6.30494 14.687 5.10451 14.688 3.90456 14.6856C3.75427 14.6856 3.64166 14.6909 3.6349 14.8966C3.61363 15.5389 3.57449 16.1803 3.54453 16.8222C3.50683 17.635 3.47446 18.4479 3.43531 19.2602C3.34591 21.1043 3.25215 22.9483 3.16227 24.7928C3.09751 26.1254 3.03372 27.4575 2.97283 28.7901C2.88681 30.6756 2.80465 32.5607 2.72008 34.4463C2.6848 35.2347 2.65049 36.0231 2.61231 36.811C2.53934 38.3058 2.46637 39.8005 2.38566 41.2948C2.37406 41.5078 2.43834 41.5786 2.65436 41.5767C3.62862 41.5664 4.60336 41.565 5.57811 41.5777C5.81732 41.5806 5.90044 41.52 5.89561 41.266C5.88063 40.4195 5.88836 39.5729 5.89078 38.7259C5.89223 38.1768 6.18219 37.8759 6.72199 37.8681C7.16466 37.8617 7.60782 37.8627 8.05097 37.8681C8.58401 37.874 8.86624 38.1651 8.8672 38.7059C8.86866 39.569 8.87349 40.4317 8.86382 41.2948C8.86141 41.5044 8.91795 41.5791 9.13494 41.5772C10.2059 41.5674 11.2772 41.5689 12.3486 41.5762C12.5482 41.5777 12.6227 41.5151 12.6082 41.3105C12.5719 40.7995 12.5453 40.2876 12.5207 39.7756C12.455 38.4186 12.3926 37.0621 12.3288 35.7051C12.2481 33.9827 12.1669 32.2598 12.0862 30.5374C12.006 28.8228 11.9253 27.1087 11.8451 25.3941C11.7639 23.6634 11.6832 21.9327 11.6025 20.202C11.5213 18.463 11.4358 16.7245 11.3638 14.9855C11.3541 14.7544 11.2888 14.6807 11.0564 14.6826C9.8724 14.6934 8.68888 14.687 7.50488 14.687ZM7.50923 43.343C9.6356 43.343 11.762 43.343 13.8878 43.343C13.9603 43.343 14.0328 43.3391 14.1053 43.343C14.2397 43.3509 14.2749 43.2849 14.2508 43.1623C14.2126 42.9708 14.1793 42.7788 14.142 42.5874C14.096 42.3503 13.951 42.2316 13.7071 42.2313C10.0585 42.2313 6.41029 42.2313 2.76164 42.2313C2.23005 42.2313 1.69846 42.2361 1.16687 42.2288C0.992408 42.2264 0.898171 42.2791 0.876424 42.4677C0.854194 42.6611 0.803934 42.8511 0.765756 43.0421C0.706798 43.3386 0.709215 43.3426 1.00932 43.3426C3.1758 43.3426 5.34276 43.343 7.50923 43.343ZM7.487 11.9217C8.42889 11.9217 9.37029 11.9158 10.3122 11.9261C10.5277 11.9285 10.59 11.8543 10.5852 11.6438C10.5736 11.1069 10.5765 10.5701 10.5838 10.0332C10.5862 9.85493 10.5219 9.78849 10.3445 9.78898C8.44532 9.79289 6.5456 9.79289 4.64637 9.78898C4.46515 9.78898 4.40861 9.86274 4.41102 10.0371C4.41779 10.574 4.42165 11.1113 4.40909 11.6477C4.40426 11.8631 4.47578 11.9281 4.68648 11.9261C5.62015 11.9168 6.55334 11.9217 7.487 11.9217ZM7.5015 5.93727C6.89017 5.93727 6.27884 5.94216 5.66799 5.93434C5.47904 5.9319 5.41331 6.00371 5.41428 6.19128C5.42008 7.0774 5.4196 7.96351 5.41428 8.84962C5.41331 9.03818 5.48484 9.10901 5.67089 9.10803C6.88534 9.10363 8.09978 9.10315 9.31423 9.10852C9.51478 9.1095 9.58147 9.03085 9.58002 8.83399C9.57374 7.95618 9.57326 7.07789 9.58002 6.20008C9.58147 5.99687 9.50705 5.93092 9.31036 5.93385C8.70725 5.94264 8.10461 5.93727 7.5015 5.93727ZM7.47057 5.27928C8.31484 5.27928 9.1591 5.27537 10.0034 5.28221C10.1889 5.28368 10.2358 5.23288 10.2029 5.04139C10.0391 4.08445 9.33211 3.33853 8.38829 3.15193C7.92581 3.06058 7.45801 3.10748 6.99311 3.11041C5.92316 3.11773 4.99432 3.92276 4.80295 4.98863C4.75124 5.27733 4.75124 5.27879 5.03395 5.27928C5.84584 5.28026 6.65869 5.27928 7.47057 5.27928ZM6.54319 40.0463C6.54319 40.4766 6.54705 40.9075 6.54125 41.3378C6.53884 41.4956 6.5775 41.5791 6.75582 41.5757C7.17336 41.5669 7.59187 41.5684 8.00941 41.5747C8.16889 41.5772 8.22012 41.5068 8.21963 41.3554C8.21673 40.4942 8.21625 39.633 8.21963 38.7723C8.22012 38.5994 8.15777 38.5212 7.97897 38.5246C7.5851 38.5319 7.19124 38.5329 6.79787 38.5246C6.61326 38.5207 6.53739 38.5881 6.54125 38.7796C6.54995 39.2017 6.54367 39.6237 6.54319 40.0463ZM7.49763 13.054C8.97932 13.054 10.461 13.0511 11.9427 13.0574C12.1428 13.0584 12.237 13.0115 12.2293 12.7858C12.2215 12.5504 12.0722 12.5812 11.9297 12.5812C8.97449 12.5812 6.01933 12.5812 3.06416 12.5812C3.03178 12.5812 2.99941 12.5836 2.96751 12.5812C2.82156 12.5719 2.77759 12.6452 2.76696 12.7863C2.74956 13.0135 2.85394 13.0579 3.05305 13.0569C4.53474 13.0511 6.01594 13.054 7.49763 13.054ZM7.52373 13.7135C6.72683 13.7135 5.93041 13.7135 5.1335 13.7135C4.64251 13.7135 4.15151 13.712 3.661 13.7159C3.59865 13.7159 3.49137 13.6763 3.48992 13.7877C3.48847 13.8815 3.5194 13.9895 3.63345 14.0163C3.70256 14.0329 3.77746 14.0281 3.84947 14.0281C6.27981 14.0281 8.71015 14.0281 11.1405 14.0281C11.1888 14.0281 11.2371 14.0251 11.2855 14.0271C11.4474 14.0334 11.5082 13.9162 11.5029 13.7926C11.4971 13.6588 11.3647 13.7164 11.2903 13.7159C10.0348 13.712 8.77925 13.7135 7.52373 13.7135ZM7.49038 2.44655C7.53871 2.44655 7.58704 2.44655 7.63536 2.44655C7.93257 2.4446 7.93402 2.4402 7.88956 2.14174C7.83012 1.7402 7.77793 1.3372 7.71607 0.936158C7.69577 0.80622 7.69916 0.652347 7.49184 0.655278C7.29901 0.658209 7.30046 0.800847 7.28113 0.922969C7.22266 1.29178 7.17771 1.66302 7.11924 2.03183C7.05303 2.45046 7.00374 2.45046 7.49038 2.44655Z"/>
</mask>
<path d="M7.49715 43.9986C5.16153 43.9986 2.82591 43.9986 0.490296 43.9986C0.038927 43.9986 -0.0567598 43.8814 0.0278116 43.4363C0.123498 42.9332 0.224017 42.4306 0.314387 41.9264C0.359331 41.6758 0.493679 41.5615 0.74691 41.5703C1.00449 41.5791 1.26255 41.5664 1.52013 41.5742C1.67478 41.5786 1.73132 41.5195 1.7376 41.3622C1.76128 40.7692 1.79994 40.1762 1.82652 39.5832C1.91351 37.6493 1.99615 35.7149 2.08314 33.7809C2.14499 32.4078 2.2112 31.0347 2.27548 29.6615C2.35666 27.9225 2.43785 26.184 2.51952 24.445C2.58138 23.1285 2.64517 21.8126 2.70703 20.4966C2.79064 18.717 2.86458 16.937 2.96123 15.1584C2.98443 14.7315 3.0168 14.3172 2.82688 13.9167C2.77034 13.797 2.72395 13.7169 2.57268 13.7081C2.30351 13.692 2.1363 13.5103 2.12421 13.2299C2.11213 12.9539 2.11117 12.6759 2.12421 12.3999C2.13871 12.1005 2.32864 11.9276 2.62584 11.9237C2.90759 11.9198 3.19078 11.9075 3.47107 11.9271C3.71222 11.9437 3.7707 11.8465 3.76538 11.6184C3.75233 10.9999 3.75958 10.381 3.76103 9.76211C3.762 9.32101 3.95095 9.12659 4.39073 9.10852C4.62527 9.09875 4.74254 8.97305 4.74254 8.73141C4.74254 7.89268 4.74013 7.05444 4.74448 6.21571C4.74544 6.04718 4.7121 5.95339 4.51976 5.91724C4.24091 5.86498 4.10608 5.64955 4.10463 5.34132C4.09932 4.16553 4.9286 3.00538 6.07442 2.61801C6.30349 2.54034 6.41029 2.43923 6.4388 2.18521C6.50742 1.57168 6.61809 0.962536 6.7046 0.350952C6.73939 0.105732 6.86649 -0.00564227 7.11054 0.00021956C7.37633 0.00656987 7.64213 0.00412728 7.90793 0.00119637C8.12974 -0.00124606 8.25298 0.105732 8.28536 0.327016C8.37959 0.97084 8.48205 1.6132 8.5671 2.258C8.5903 2.43532 8.65892 2.52813 8.82854 2.58675C10.0174 2.99903 10.6857 3.8529 10.8747 5.09805C10.9515 5.60461 10.8418 5.78682 10.3808 5.93874C10.2682 5.97586 10.2537 6.04865 10.2537 6.14195C10.2532 7.07007 10.2542 7.99819 10.2513 8.92631C10.2513 9.05918 10.2938 9.12073 10.4344 9.11194C10.5461 9.1051 10.6611 9.10998 10.7708 9.12903C11.0743 9.1813 11.2299 9.36839 11.2323 9.68835C11.2367 10.3151 11.2338 10.9423 11.2338 11.569C11.2338 11.8045 11.3541 11.9225 11.5948 11.9232C11.8523 11.9232 12.1104 11.9207 12.368 11.9241C12.6657 11.9285 12.8556 12.1005 12.8706 12.3994C12.8841 12.6754 12.8836 12.9534 12.8706 13.2294C12.8575 13.5176 12.6951 13.6807 12.3984 13.7115C12.2858 13.7232 12.2283 13.7677 12.1868 13.8717C12.0553 14.2 11.9809 14.5297 12.006 14.8917C12.065 15.7353 12.1012 16.5809 12.1418 17.4255C12.2375 19.416 12.3327 21.4066 12.424 23.3972C12.4811 24.6326 12.5275 25.868 12.5854 27.1033C12.6565 28.6147 12.7377 30.1251 12.8097 31.6365C12.8667 32.8308 12.9136 34.0257 12.9696 35.2205C13.0431 36.7885 13.1224 38.3566 13.1973 39.9246C13.22 40.396 13.2451 40.8674 13.2543 41.3388C13.2577 41.5195 13.3205 41.5835 13.4974 41.5762C13.7627 41.5654 14.029 41.5752 14.2948 41.5737C14.504 41.5728 14.6268 41.6739 14.6669 41.8805C14.7746 42.4393 14.8892 42.9972 14.9882 43.5575C15.0433 43.8682 14.9061 43.9996 14.5514 43.9996C12.1998 44.0005 9.84775 43.9996 7.49619 43.9996L7.49715 43.9986ZM7.50488 14.687C6.30494 14.687 5.10451 14.688 3.90456 14.6856C3.75427 14.6856 3.64166 14.6909 3.6349 14.8966C3.61363 15.5389 3.57449 16.1803 3.54453 16.8222C3.50683 17.635 3.47446 18.4479 3.43531 19.2602C3.34591 21.1043 3.25215 22.9483 3.16227 24.7928C3.09751 26.1254 3.03372 27.4575 2.97283 28.7901C2.88681 30.6756 2.80465 32.5607 2.72008 34.4463C2.6848 35.2347 2.65049 36.0231 2.61231 36.811C2.53934 38.3058 2.46637 39.8005 2.38566 41.2948C2.37406 41.5078 2.43834 41.5786 2.65436 41.5767C3.62862 41.5664 4.60336 41.565 5.57811 41.5777C5.81732 41.5806 5.90044 41.52 5.89561 41.266C5.88063 40.4195 5.88836 39.5729 5.89078 38.7259C5.89223 38.1768 6.18219 37.8759 6.72199 37.8681C7.16466 37.8617 7.60782 37.8627 8.05097 37.8681C8.58401 37.874 8.86624 38.1651 8.8672 38.7059C8.86866 39.569 8.87349 40.4317 8.86382 41.2948C8.86141 41.5044 8.91795 41.5791 9.13494 41.5772C10.2059 41.5674 11.2772 41.5689 12.3486 41.5762C12.5482 41.5777 12.6227 41.5151 12.6082 41.3105C12.5719 40.7995 12.5453 40.2876 12.5207 39.7756C12.455 38.4186 12.3926 37.0621 12.3288 35.7051C12.2481 33.9827 12.1669 32.2598 12.0862 30.5374C12.006 28.8228 11.9253 27.1087 11.8451 25.3941C11.7639 23.6634 11.6832 21.9327 11.6025 20.202C11.5213 18.463 11.4358 16.7245 11.3638 14.9855C11.3541 14.7544 11.2888 14.6807 11.0564 14.6826C9.8724 14.6934 8.68888 14.687 7.50488 14.687ZM7.50923 43.343C9.6356 43.343 11.762 43.343 13.8878 43.343C13.9603 43.343 14.0328 43.3391 14.1053 43.343C14.2397 43.3509 14.2749 43.2849 14.2508 43.1623C14.2126 42.9708 14.1793 42.7788 14.142 42.5874C14.096 42.3503 13.951 42.2316 13.7071 42.2313C10.0585 42.2313 6.41029 42.2313 2.76164 42.2313C2.23005 42.2313 1.69846 42.2361 1.16687 42.2288C0.992408 42.2264 0.898171 42.2791 0.876424 42.4677C0.854194 42.6611 0.803934 42.8511 0.765756 43.0421C0.706798 43.3386 0.709215 43.3426 1.00932 43.3426C3.1758 43.3426 5.34276 43.343 7.50923 43.343ZM7.487 11.9217C8.42889 11.9217 9.37029 11.9158 10.3122 11.9261C10.5277 11.9285 10.59 11.8543 10.5852 11.6438C10.5736 11.1069 10.5765 10.5701 10.5838 10.0332C10.5862 9.85493 10.5219 9.78849 10.3445 9.78898C8.44532 9.79289 6.5456 9.79289 4.64637 9.78898C4.46515 9.78898 4.40861 9.86274 4.41102 10.0371C4.41779 10.574 4.42165 11.1113 4.40909 11.6477C4.40426 11.8631 4.47578 11.9281 4.68648 11.9261C5.62015 11.9168 6.55334 11.9217 7.487 11.9217ZM7.5015 5.93727C6.89017 5.93727 6.27884 5.94216 5.66799 5.93434C5.47904 5.9319 5.41331 6.00371 5.41428 6.19128C5.42008 7.0774 5.4196 7.96351 5.41428 8.84962C5.41331 9.03818 5.48484 9.10901 5.67089 9.10803C6.88534 9.10363 8.09978 9.10315 9.31423 9.10852C9.51478 9.1095 9.58147 9.03085 9.58002 8.83399C9.57374 7.95618 9.57326 7.07789 9.58002 6.20008C9.58147 5.99687 9.50705 5.93092 9.31036 5.93385C8.70725 5.94264 8.10461 5.93727 7.5015 5.93727ZM7.47057 5.27928C8.31484 5.27928 9.1591 5.27537 10.0034 5.28221C10.1889 5.28368 10.2358 5.23288 10.2029 5.04139C10.0391 4.08445 9.33211 3.33853 8.38829 3.15193C7.92581 3.06058 7.45801 3.10748 6.99311 3.11041C5.92316 3.11773 4.99432 3.92276 4.80295 4.98863C4.75124 5.27733 4.75124 5.27879 5.03395 5.27928C5.84584 5.28026 6.65869 5.27928 7.47057 5.27928ZM6.54319 40.0463C6.54319 40.4766 6.54705 40.9075 6.54125 41.3378C6.53884 41.4956 6.5775 41.5791 6.75582 41.5757C7.17336 41.5669 7.59187 41.5684 8.00941 41.5747C8.16889 41.5772 8.22012 41.5068 8.21963 41.3554C8.21673 40.4942 8.21625 39.633 8.21963 38.7723C8.22012 38.5994 8.15777 38.5212 7.97897 38.5246C7.5851 38.5319 7.19124 38.5329 6.79787 38.5246C6.61326 38.5207 6.53739 38.5881 6.54125 38.7796C6.54995 39.2017 6.54367 39.6237 6.54319 40.0463ZM7.49763 13.054C8.97932 13.054 10.461 13.0511 11.9427 13.0574C12.1428 13.0584 12.237 13.0115 12.2293 12.7858C12.2215 12.5504 12.0722 12.5812 11.9297 12.5812C8.97449 12.5812 6.01933 12.5812 3.06416 12.5812C3.03178 12.5812 2.99941 12.5836 2.96751 12.5812C2.82156 12.5719 2.77759 12.6452 2.76696 12.7863C2.74956 13.0135 2.85394 13.0579 3.05305 13.0569C4.53474 13.0511 6.01594 13.054 7.49763 13.054ZM7.52373 13.7135C6.72683 13.7135 5.93041 13.7135 5.1335 13.7135C4.64251 13.7135 4.15151 13.712 3.661 13.7159C3.59865 13.7159 3.49137 13.6763 3.48992 13.7877C3.48847 13.8815 3.5194 13.9895 3.63345 14.0163C3.70256 14.0329 3.77746 14.0281 3.84947 14.0281C6.27981 14.0281 8.71015 14.0281 11.1405 14.0281C11.1888 14.0281 11.2371 14.0251 11.2855 14.0271C11.4474 14.0334 11.5082 13.9162 11.5029 13.7926C11.4971 13.6588 11.3647 13.7164 11.2903 13.7159C10.0348 13.712 8.77925 13.7135 7.52373 13.7135ZM7.49038 2.44655C7.53871 2.44655 7.58704 2.44655 7.63536 2.44655C7.93257 2.4446 7.93402 2.4402 7.88956 2.14174C7.83012 1.7402 7.77793 1.3372 7.71607 0.936158C7.69577 0.80622 7.69916 0.652347 7.49184 0.655278C7.29901 0.658209 7.30046 0.800847 7.28113 0.922969C7.22266 1.29178 7.17771 1.66302 7.11924 2.03183C7.05303 2.45046 7.00374 2.45046 7.49038 2.44655Z" fill="#F2BF30" stroke="#F2BF30" stroke-width="8" mask="url(#path-1-inside-1_1175_33547)"/>
<path d="M8.46459 33.4066C8.46459 33.6988 8.46845 33.9914 8.46362 34.2835C8.45637 34.6879 8.24277 34.92 7.84456 34.942C7.60438 34.9551 7.36178 34.9571 7.12208 34.9395C6.74706 34.9127 6.53346 34.6836 6.52863 34.3069C6.52138 33.7144 6.52041 33.1214 6.52959 32.5284C6.53539 32.1366 6.73015 31.9182 7.11096 31.885C7.36564 31.8625 7.62564 31.8625 7.88032 31.885C8.26113 31.9182 8.44526 32.1366 8.46362 32.5288C8.46459 32.545 8.46459 32.5611 8.46459 32.5777C8.46459 32.8537 8.46459 33.1297 8.46459 33.4062V33.4066ZM7.78753 33.4174C7.78753 33.2064 7.78125 32.9949 7.78946 32.7843C7.79768 32.5757 7.67831 32.545 7.51207 32.5498C7.35501 32.5547 7.19795 32.5357 7.20182 32.7745C7.2081 33.1966 7.20762 33.6191 7.20182 34.0412C7.19892 34.2805 7.35839 34.2591 7.51449 34.2649C7.68315 34.2708 7.79768 34.2322 7.78946 34.0265C7.78125 33.8238 7.78753 33.6206 7.78753 33.4174Z" fill="#F2BF30"/>
<path d="M6.52847 25.9308C6.52847 25.6465 6.52315 25.3617 6.52943 25.0774C6.5391 24.6421 6.75753 24.413 7.18281 24.3959C7.40753 24.3871 7.63369 24.3842 7.85793 24.3994C8.23439 24.4248 8.45428 24.6456 8.46201 25.0261C8.47409 25.6357 8.47312 26.2453 8.46297 26.855C8.45669 27.2213 8.21361 27.4578 7.84826 27.4729C7.61533 27.4822 7.38143 27.4827 7.14898 27.4729C6.77445 27.4578 6.54007 27.216 6.5304 26.833C6.52267 26.5326 6.52895 26.2317 6.52847 25.9308ZM7.206 25.9606C7.206 26.1804 7.21035 26.4002 7.20504 26.6195C7.19972 26.8325 7.3418 26.8242 7.4834 26.8193C7.62209 26.8144 7.79124 26.8608 7.78979 26.6239C7.78737 26.1765 7.78689 25.729 7.78979 25.2816C7.79124 25.0769 7.65737 25.0705 7.51143 25.0735C7.36742 25.0769 7.20455 25.049 7.20552 25.2772C7.20697 25.5048 7.20552 25.7329 7.20552 25.9606H7.206Z" fill="#F2BF30"/>
<path d="M8.46453 18.4814C8.46453 18.7735 8.47081 19.0661 8.46308 19.3582C8.45341 19.7319 8.23594 19.9678 7.86673 19.9923C7.61881 20.0089 7.368 20.0093 7.12009 19.9918C6.75135 19.9659 6.53292 19.7294 6.52857 19.3538C6.52132 18.753 6.52084 18.1521 6.52857 17.5513C6.5334 17.1996 6.71898 16.993 7.06499 16.9436C7.35205 16.9031 7.64249 16.9026 7.92955 16.9441C8.27412 16.9944 8.45341 17.2015 8.46259 17.5552C8.47033 17.8634 8.46404 18.1722 8.46404 18.4809L8.46453 18.4814ZM7.20369 18.4599C7.20369 18.687 7.20852 18.9142 7.20224 19.1413C7.19644 19.3518 7.33417 19.3504 7.4777 19.3431C7.6135 19.3362 7.78796 19.3914 7.78747 19.153C7.78651 18.7066 7.78457 18.2606 7.78844 17.8141C7.79037 17.5874 7.63621 17.6089 7.48978 17.6055C7.33417 17.6021 7.19499 17.6075 7.20224 17.8263C7.20949 18.0368 7.20369 18.2484 7.20369 18.4594V18.4599Z" fill="#F2BF30"/>
</svg>
