<svg width="74" height="44" viewBox="0 0 74 44" fill="none" xmlns="http://www.w3.org/2000/svg">
<path d="M69.0505 44C68.9937 44 68.9253 43.9902 68.842 43.9705C68.7176 43.9418 68.5858 43.9279 68.4268 43.9279C68.3336 43.9279 68.2438 43.932 68.1565 43.9369C68.0757 43.941 67.9991 43.9451 67.9266 43.9451H48.3422C39.1763 43.9459 28.35 43.9451 17.546 43.9328C17.1085 43.9328 16.661 43.9271 16.2285 43.9222C15.7629 43.9164 15.2817 43.9107 14.8087 43.9107C14.6118 43.9107 14.4149 43.9115 14.2179 43.914C12.2116 43.9377 10.0255 43.9484 7.34017 43.9484C5.84299 43.9484 4.34583 43.9451 2.84866 43.9418C1.35066 43.9386 5.93707 43.9387 4.43907 43.9387C3.05726 43.9387 1.83365 43.9411 0.698203 43.9477C0.628165 43.9477 0.559775 43.9477 0.50292 43.9411C0.193928 43.9034 -0.00877178 43.6814 0.000291999 43.3881C0.0085318 43.0948 0.196399 42.9088 0.503744 42.8891C0.661948 42.8793 0.831688 42.8752 1.05499 42.8752C1.15634 42.8752 1.25851 42.876 1.35986 42.8769C1.46368 42.8777 1.5675 42.8785 1.67132 42.8785C2.09485 42.8785 2.51838 42.8777 2.9419 42.8769C3.43382 42.876 3.92573 42.8752 4.41765 42.8752C5.32403 42.8752 6.05984 42.8785 0.650282 42.8817H0.675002C0.866166 42.8817 1.14467 42.8579 1.34984 42.6531C1.55501 42.4474 1.57973 42.1689 1.57726 41.9493C1.56325 40.5614 1.56572 39.149 1.5682 37.784C1.5682 37.426 1.56984 37.0688 1.56984 36.7108C1.57067 36.1094 1.73546 35.9398 2.33614 35.9251C2.75143 35.9144 3.17166 35.8997 3.57788 35.8849C4.1283 35.8661 4.69767 35.8456 5.2555 35.8358C5.87596 35.8243 6.50218 35.7858 7.10698 35.7489C7.81807 35.7055 8.55389 35.6596 9.2724 35.6596C9.39435 35.6596 9.51713 35.6613 9.6399 35.6637H9.66956C10.3683 35.6637 10.4556 35.0837 10.4886 34.8657C10.6921 33.5147 10.6773 32.1531 10.6633 30.8348C10.6567 30.2343 10.6501 29.6141 10.6649 29.0078L10.6674 28.8988C10.6699 28.7391 10.6732 28.5883 10.6954 28.4515C10.7449 28.15 10.9352 27.9771 11.245 27.9509L11.5779 27.9222C12.0698 27.8796 12.5782 27.8362 13.0751 27.8133C13.4994 27.7936 13.7755 27.5888 13.9188 27.189C14.8631 24.5558 16.2482 22.1299 18.0338 19.9776C20.4415 17.0781 23.4119 14.8161 26.8636 13.2545C27.9685 12.7539 29.1583 12.3303 30.4009 11.9936C31.0098 11.8273 31.1161 11.3939 31.098 11.0588C31.0832 10.7876 31.0832 10.5131 31.098 10.2428C31.1227 9.79872 31.1631 9.0548 30.2238 8.7959C30.096 8.76067 29.9897 8.48376 30.0384 8.30925C30.1059 8.0651 30.3342 7.88731 30.5814 7.88567C31.4902 7.88158 32.3949 7.88076 33.2379 7.88076H35.1948C35.3028 7.88076 35.4453 7.87994 35.5895 7.87092C35.9306 7.85126 36.1712 7.61285 36.1877 7.27858C36.2067 6.90826 35.9636 6.6297 35.5978 6.60184C35.5014 6.59447 35.4091 6.59283 35.3201 6.59119C35.2583 6.59037 35.1973 6.58873 35.1355 6.58546C34.7746 6.56579 34.5447 6.35442 34.5497 6.04555C34.5546 5.74241 34.7746 5.54168 35.1231 5.52038C35.1775 5.5171 35.2377 5.51546 35.3176 5.51546H35.442C35.5335 5.51546 35.812 5.51547 36.0139 5.31392C36.1004 5.22708 36.2034 5.06977 36.2009 4.81743C36.2009 4.79285 36.2026 4.76827 36.2034 4.74287C36.2124 4.57656 36.2396 4.07188 35.6332 3.91949C35.0572 3.77529 35.0515 3.51394 35.049 3.38859C35.0465 3.27471 35.0399 2.97403 35.6661 2.79132C36.0905 2.66679 36.2512 2.35874 36.1432 1.87454C36.1375 1.84832 36.1317 1.82292 36.1276 1.79752L35.7214 1.80899C35.7222 1.73198 35.7238 1.65415 35.7246 1.57632C35.7312 1.1339 35.7378 0.675916 35.7502 0.226945C35.7502 0.215475 35.751 0.205642 35.7518 0.197449C35.7642 0.195811 35.7799 0.194992 35.7996 0.194992C35.8103 0.194992 35.8211 0.194992 35.8318 0.194992C35.9537 0.200727 36.0773 0.203185 36.1993 0.203185C36.8139 0.203185 37.4517 0.135183 38.0969 0C38.0911 0.470273 38.0911 0.9471 38.0903 1.40836C38.0903 1.67545 38.0903 1.94336 38.0886 2.21045C38.0878 2.4251 38.1134 2.70858 38.3243 2.99123C38.4817 3.20097 38.5361 3.41398 38.4751 3.57456C38.4158 3.73023 38.246 3.84493 37.998 3.89655C37.2432 4.05303 37.2844 4.64128 37.3001 4.86249C37.3141 5.05912 37.4113 5.51628 38.0153 5.51628C38.0384 5.51628 38.0623 5.51628 38.0854 5.51546C38.1027 5.51546 38.12 5.51546 38.1364 5.51546C38.1472 5.51546 38.1579 5.51547 38.1677 5.51628C38.2394 5.52284 38.3087 5.52284 38.3688 5.52284C38.4257 5.52284 38.4784 5.52284 38.5204 5.52857C38.7791 5.56216 39.0024 5.79894 39.0082 6.04555C39.014 6.29871 38.7849 6.54777 38.5179 6.57809C38.4108 6.59038 38.2955 6.59119 38.1727 6.59201C38.0919 6.59201 38.0112 6.59365 37.9304 6.59693C37.5613 6.61331 37.3108 6.86893 37.3067 7.2327C37.3026 7.60302 37.5531 7.86191 37.9288 7.87666C38.0524 7.88158 38.1727 7.88158 38.2749 7.88158H41.1267C41.6861 7.88158 42.2465 7.88158 42.8068 7.8824C43.0762 7.8824 43.4099 7.9463 43.4709 8.24862C43.5327 8.55093 43.4775 8.76067 43.0095 8.93928C42.5546 9.11297 42.4615 9.45871 42.4632 9.7176L42.4648 9.87983C42.4697 10.2657 42.4739 10.6639 42.4599 11.0514C42.4409 11.5356 42.6782 11.8469 43.1644 11.9748C45.4138 12.5679 47.5446 13.479 49.4966 14.6817C53.5786 17.1985 56.7023 20.6428 58.7788 24.9179C59.1529 25.6864 59.4742 26.4598 59.7346 27.216C59.8631 27.5896 60.126 27.7903 60.5157 27.8108C60.8956 27.8313 61.2845 27.8633 61.6611 27.8936C61.8918 27.9124 62.1225 27.9313 62.3532 27.9476C62.6894 27.9722 62.8871 28.1426 62.9407 28.454C62.9662 28.6014 62.9695 28.7628 62.9704 28.9169C62.9704 29.2266 62.972 29.5379 62.9728 29.8492C62.9761 30.8168 62.9803 31.818 62.9671 32.8003C62.9613 33.2493 63.0173 33.6843 63.0709 34.1046C63.1096 34.4086 63.1467 34.6953 63.1615 34.9853C63.1722 35.1902 63.2719 35.6662 63.9641 35.6662H63.983C64.03 35.6662 64.0753 35.6654 64.1206 35.6654C64.6571 35.6654 65.2066 35.7022 65.7389 35.7383C66.099 35.762 66.4723 35.7874 66.8422 35.8014C67.7956 35.8382 68.7638 35.8612 69.7006 35.8833C70.1761 35.8948 70.6515 35.9062 71.1261 35.9193C71.2777 35.9243 71.4203 35.9284 71.543 35.9538C71.9287 36.0357 72.0597 36.1954 72.0622 36.5887C72.0655 37.1188 72.0646 37.6587 72.0638 38.1814C72.0638 38.6058 72.063 39.0302 72.0638 39.4554C72.0655 39.8142 72.0679 40.1739 72.0712 40.5328C72.0753 41.0751 72.0803 41.6364 72.0786 42.1869C72.077 42.6072 72.3357 42.8694 72.7543 42.871C67.9505 42.8645 68.2669 42.8661 68.5833 42.8661H69.694C70.3689 42.8669 71.0437 42.8677 71.7186 42.8677C72.4865 42.8677 72.6442 42.8702 73.4122 42.8677C73.6907 42.8677 73.8505 42.9644 73.9494 43.1922C74.0433 43.4085 74.0071 43.592 73.8357 43.769C73.7302 43.8787 73.5827 43.932 73.3841 43.9328C72.781 43.9336 72.7864 43.9345 72.1825 43.9377C71.4417 43.941 70.6762 43.9451 69.9239 43.9451C68.8297 43.9451 67.9266 43.9369 72.2039 43.9287C72.1479 43.9279 72.0926 43.9271 72.0366 43.9271C71.7705 43.9271 71.5035 43.9386 71.2456 43.95C70.9968 43.9607 70.7388 43.9721 70.4908 43.9721C70.1299 43.9721 69.8358 43.9484 69.5663 43.8968C69.5391 43.8919 69.5053 43.8861 69.4641 43.8861C69.385 43.8861 69.3076 43.9066 69.2408 43.9451C69.1758 43.9828 69.1173 43.9992 69.0439 43.9992L69.0505 44ZM46.9003 42.8751C46.9794 42.8956 47.0618 42.9062 47.1458 42.9062H48.6405C49.1868 42.9062 49.6318 42.4638 49.6318 41.9206V40.6401C49.6318 40.0969 49.1868 39.6545 48.6405 39.6545H47.1458C46.5995 39.6545 46.1554 40.0969 46.1554 40.6401V41.9206C46.1554 41.9878 46.162 42.0542 46.176 42.1197C46.1777 42.3467 46.2452 42.5294 46.3754 42.6629C46.504 42.7948 46.6762 42.8645 46.9003 42.8751ZM38.5179 42.8718C39.042 42.8718 39.4672 42.8743 39.8577 42.8792H39.8841C39.9863 42.8792 40.2977 42.8792 40.5169 42.6596C40.7386 42.4376 40.7361 42.1238 40.7353 42.0206C40.7229 40.1846 40.7237 38.4739 40.7353 36.7902C40.7369 36.6043 40.7147 36.3339 40.512 36.1315C40.3101 35.9292 40.0382 35.9062 39.852 35.9062H39.838C38.822 35.9111 37.792 35.9144 36.7752 35.9144C35.7584 35.9144 34.7285 35.912 33.7125 35.9062H33.7026C33.5147 35.9062 33.2412 35.93 33.0376 36.1332C32.8111 36.3601 32.8127 36.6846 32.8135 36.7911C32.8251 38.4649 32.8251 40.2247 32.8135 42.0214C32.8135 42.1246 32.8119 42.4376 33.0335 42.6588C33.2527 42.8776 33.5642 42.8792 33.6696 42.8792H33.6952C34.0858 42.8743 34.5117 42.8718 35.0358 42.8718C35.3258 42.8718 35.6151 42.8718 35.9051 42.8735C36.1951 42.8735 36.486 42.8751 36.776 42.8751C37.0661 42.8751 37.357 42.8751 37.647 42.8735C37.937 42.8735 38.2279 42.8718 38.5179 42.8718ZM68.5223 40.1878C68.29 40.1878 68.1038 40.2575 67.9695 40.3943C67.8327 40.5336 67.7667 40.7261 67.7733 40.967C67.784 41.4012 67.784 41.733 67.7717 42.0419C67.761 42.3098 67.8261 42.5122 67.9711 42.6621C68.1104 42.8063 68.3064 42.8792 68.5536 42.8792C68.5693 42.8792 68.5858 42.8792 68.6023 42.8784H68.6294C68.9549 42.8661 69.2911 42.8554 69.6182 42.8554C69.816 42.8554 69.9948 42.8596 70.1637 42.8677C70.1868 42.8686 70.2098 42.8694 70.2321 42.8694C70.7067 42.8694 71.0009 42.5884 71.019 42.1173C71.0289 41.8461 71.0289 41.5749 71.0289 41.3127C71.0289 41.1825 71.0289 41.053 71.0289 40.9227C71.0314 40.6589 70.9267 40.4975 70.8377 40.4082C70.7042 40.2747 70.5188 40.2067 70.2857 40.2067H70.2708C70.1423 40.2083 70.0146 40.2091 69.8868 40.2091H69.8267V40.1928H69.4147C69.3257 40.1928 69.2367 40.1936 69.1477 40.1944C69.0612 40.1952 68.9747 40.196 68.889 40.196C68.7654 40.196 68.6641 40.1944 68.5701 40.1903C68.5528 40.1903 68.5363 40.1895 68.5207 40.1895L68.5223 40.1878ZM11.9767 40.024C11.7542 40.024 11.5746 40.0912 11.4428 40.2239C11.3101 40.3566 11.245 40.5377 11.2475 40.7613C11.2524 41.1882 11.2557 41.6437 11.2458 42.0984C11.2401 42.3368 11.306 42.5286 11.4419 42.6678C11.5787 42.8071 11.7715 42.8776 12.0163 42.8776H12.0336C12.3104 42.8735 12.5931 42.871 12.874 42.871C13.1394 42.871 13.4047 42.8727 13.6692 42.8768H13.6857C13.923 42.8768 14.1125 42.8071 14.2493 42.6687C14.3877 42.5286 14.4561 42.3336 14.452 42.0894C14.4445 41.5692 14.4454 41.1456 14.4544 40.7564C14.4569 40.6663 14.4635 40.3927 14.2674 40.1928C14.143 40.0666 13.974 40.0027 13.7648 40.0027C13.7384 40.0027 13.7104 40.0035 13.6807 40.006C13.5967 40.0117 13.5052 40.015 13.3931 40.015C13.3116 40.015 13.23 40.0133 13.1484 40.0125C13.0619 40.0109 12.9754 40.0092 12.8889 40.0092H12.4769V40.0264H12.2857C12.186 40.0264 12.0863 40.0264 11.9866 40.0264H11.9775L11.9767 40.024ZM65.5865 42.871C65.6878 42.871 65.7892 42.8718 65.8897 42.8751C65.9029 42.8751 65.9161 42.8751 65.9293 42.8751C66.1641 42.8751 66.352 42.8055 66.4879 42.6678C66.6255 42.5286 66.6931 42.336 66.6881 42.096C66.6799 41.6617 66.6807 41.266 66.689 40.8859C66.6939 40.6475 66.6272 40.4566 66.4912 40.3181C66.3544 40.1788 66.1616 40.1084 65.9177 40.1084H65.8955C65.79 40.1108 65.6854 40.1108 65.5799 40.1108C65.3912 40.1108 65.2025 40.1084 65.0138 40.1059C64.9001 40.1043 64.7856 40.1035 64.6719 40.1018C64.6084 40.1018 64.5507 40.101 64.4972 40.101C63.5199 40.101 63.4746 40.5057 63.4746 41.2816C63.4746 41.9337 63.4746 42.2926 63.702 42.5605C63.9665 42.8718 64.3917 42.8718 64.9306 42.8718H65.0806C65.1654 42.8718 65.2503 42.8718 65.336 42.8702C65.4192 42.8702 65.5024 42.8686 65.5857 42.8686L65.5865 42.871ZM42.6403 39.6135C42.4055 39.6135 42.2176 39.6832 42.0817 39.8216C41.9441 39.9617 41.8765 40.1559 41.8823 40.3992C41.8872 40.6065 41.8856 40.8203 41.8847 41.0268C41.8847 41.1276 41.8831 41.2292 41.8831 41.3299C41.8831 41.9723 41.8831 42.3262 42.1245 42.5892C42.3874 42.8751 42.7754 42.8751 43.3638 42.8751H43.4511C44.1556 42.8751 44.5437 42.8751 44.8173 42.6023C45.0917 42.3295 45.0917 41.9444 45.0908 41.2455C45.0908 41.1612 45.0892 41.0768 45.0875 40.9924C45.0842 40.8064 45.0809 40.6303 45.0941 40.4607C45.1131 40.2075 45.0521 40.0051 44.9137 39.8568C44.7027 39.6315 44.4012 39.6315 44.3015 39.6315H44.2018C43.6826 39.6315 43.1677 39.6258 42.67 39.6135H42.6403ZM21.4146 42.871C21.7178 42.871 22.021 42.8727 22.3234 42.8751H22.3333C22.5723 42.8751 22.7618 42.8063 22.8969 42.6703C23.0304 42.5359 23.0972 42.3532 23.0947 42.1263C23.0889 41.6126 23.0898 41.0784 23.0963 40.5385C23.0988 40.3197 23.0378 40.1461 22.9134 40.0207C22.7923 39.8995 22.6283 39.8372 22.4256 39.8372C22.4083 39.8372 22.3902 39.8372 22.3721 39.8388C22.2781 39.8437 22.1759 39.8454 22.0507 39.8454C21.965 39.8454 21.8793 39.8446 21.7936 39.8437C21.7046 39.8429 21.6165 39.8421 21.5275 39.8421H21.1155V39.8593C21.0825 39.8593 21.0487 39.8593 21.0158 39.8593C20.8839 39.8593 20.7752 39.8577 20.6763 39.8544C20.6631 39.8544 20.6516 39.8544 20.6392 39.8544C20.411 39.8544 20.2272 39.9232 20.0929 40.0592C19.9545 40.1993 19.8861 40.3959 19.8902 40.6442C19.8968 41.0801 19.8968 41.5446 19.8902 42.1066C19.8878 42.3459 19.9553 42.5359 20.0913 42.6728C20.2248 42.8071 20.4077 42.8751 20.6351 42.8751H20.6433C20.9004 42.8727 21.1575 42.871 21.4146 42.871ZM4.73722 42.8718C4.84351 42.8718 4.94898 42.8718 5.05527 42.8743H5.08082C5.32472 42.8743 5.51835 42.803 5.65843 42.6629C5.79603 42.5245 5.86442 42.336 5.86112 42.1042C5.85783 41.8248 5.85865 41.5397 5.85865 41.2627V40.9227C5.85783 40.4779 5.56779 40.1919 5.12119 40.1919L4.88553 40.1944C4.38126 40.1993 3.85886 40.2042 3.34634 40.205C3.11975 40.205 2.93683 40.273 2.80417 40.4058C2.67233 40.5385 2.60641 40.7179 2.60888 40.94C2.61218 41.4151 2.61136 41.7789 2.60888 42.1173C2.60724 42.3475 2.67562 42.5318 2.81076 42.6678C2.94671 42.8038 3.13211 42.8727 3.362 42.8727H3.3826C3.48065 42.871 3.57953 42.8702 3.67841 42.8702C3.78305 42.8702 3.88688 42.8702 3.99152 42.871H4.19669C4.28898 42.8718 4.37879 42.871 4.46943 42.871C4.55842 42.871 4.64823 42.8718 4.73722 42.8718ZM26.2711 42.8718C26.3873 42.8718 26.5043 42.8718 26.6205 42.8751H26.6436C26.8693 42.8751 27.0523 42.8071 27.1866 42.6728C27.3225 42.5368 27.3909 42.3499 27.3893 42.1173C27.386 41.6306 27.3868 41.0989 27.3893 40.4443C27.3901 40.2182 27.3233 40.0363 27.1907 39.9035C27.1009 39.8142 26.9377 39.7077 26.6691 39.7077H26.6493C26.075 39.7176 25.4908 39.7233 24.9247 39.729C24.8374 39.729 24.568 39.7315 24.371 39.9322C24.2433 40.0617 24.1807 40.2362 24.1832 40.4516C24.1898 40.9014 24.1881 41.3602 24.1873 41.8043V42.164C24.1856 42.4286 24.2911 42.59 24.3801 42.6785C24.4691 42.767 24.6314 42.8735 24.8984 42.8735H25.7644C25.8492 42.8735 26.1879 42.8718 26.2711 42.8718ZM30.0705 42.871C30.3498 42.871 30.63 42.8718 30.9093 42.8751H30.9208C31.1507 42.8751 31.3345 42.8063 31.4688 42.6703C31.6047 42.5327 31.6707 42.3434 31.6657 42.1083C31.6624 41.928 31.6632 41.742 31.6632 41.5618C31.6632 41.461 31.6641 41.3602 31.6632 41.2595C31.6632 41.1702 31.6632 41.0792 31.6624 40.9891C31.6616 40.7859 31.6608 40.5762 31.6649 40.373C31.6698 40.142 31.6039 39.956 31.4704 39.8208C31.3369 39.6848 31.1507 39.616 30.9184 39.616H30.8969C30.4042 39.625 29.9724 39.6291 29.5778 39.6291C29.4739 39.6291 29.3701 39.6291 29.2663 39.6283C29.0125 39.6283 28.8164 39.6987 28.6771 39.8388C28.5395 39.9765 28.4711 40.1657 28.4736 40.4017C28.4802 40.9703 28.4777 41.5495 28.4753 42.1091C28.4753 42.3442 28.5437 42.5335 28.6813 42.6703C28.8172 42.8055 29.001 42.8743 29.2284 42.8743C29.5118 42.8727 29.7903 42.8718 30.0688 42.8718L30.0705 42.871ZM52.6673 42.8718C52.7769 42.8718 52.8857 42.8718 52.9944 42.8735H53.0109C53.2326 42.8735 53.4122 42.8071 53.5432 42.6752C53.675 42.5433 53.741 42.3639 53.7393 42.1418C53.7352 41.6273 53.7352 41.1063 53.7393 40.5926C53.7418 40.3689 53.6759 40.1878 53.544 40.0551C53.413 39.9232 53.2334 39.856 53.0109 39.856H52.8799C52.6854 39.856 52.491 39.8544 52.2957 39.8528C52.1902 39.8519 52.0848 39.8503 51.9793 39.8495C51.9109 39.8495 51.8474 39.8495 51.7881 39.8495C50.6296 39.8495 50.5324 40.1985 50.5324 41.2775C50.5324 41.9313 50.5324 42.2918 50.759 42.5605C51.0218 42.8718 51.4429 42.8743 51.9768 42.8743C51.9768 42.8743 52.58 42.8718 52.6673 42.8718ZM56.9421 42.8718C57.0566 42.8718 57.1704 42.8718 57.2849 42.8735H57.2981C57.7471 42.8735 58.038 42.5892 58.038 42.15C58.0372 41.6593 58.0364 41.1685 58.038 40.6786C58.038 40.4558 57.9721 40.2763 57.8386 40.1436C57.7051 40.0109 57.5238 39.9437 57.2997 39.9437C57.0756 39.9437 56.868 39.9412 56.6521 39.938C56.4988 39.9363 56.3447 39.9339 56.1906 39.933C56.1132 39.933 56.0415 39.9322 55.9756 39.9322C55.6411 39.9322 55.2958 39.9322 55.0602 40.1665C54.8212 40.4041 54.822 40.7146 54.8228 41.2783C54.8245 41.96 54.8261 42.336 55.0939 42.6031C55.3634 42.8718 55.7391 42.8727 56.4222 42.8735H56.9405L56.9421 42.8718ZM9.08783 42.8702C9.19742 42.8702 9.30618 42.8702 9.41495 42.8718H9.42896C9.64978 42.8718 9.82941 42.8055 9.96042 42.6736C10.0931 42.5408 10.159 42.3606 10.1574 42.1369C10.1541 41.724 10.1508 41.2972 10.1598 40.8801C10.1648 40.6385 10.098 40.4451 9.96042 40.3058C9.82447 40.1674 9.63578 40.0977 9.39929 40.0977H9.36716C9.07547 40.1059 8.77637 40.1059 8.48715 40.1059C8.37179 40.1059 8.25643 40.1059 8.14107 40.1059C7.66811 40.1092 7.38301 40.1108 7.16548 40.3238C6.94383 40.5401 6.94383 40.8212 6.94383 41.2857C6.94383 41.9411 6.94383 42.3016 7.18031 42.5695C7.44646 42.871 7.85927 42.871 8.42947 42.871C8.42947 42.871 8.99966 42.8702 9.08783 42.8702ZM17.7108 42.8694C17.8212 42.8694 17.9316 42.8694 18.0429 42.8718H18.0618C18.2884 42.8718 18.4689 42.8055 18.6007 42.6736C18.7309 42.5425 18.7952 42.3663 18.7935 42.1476C18.7894 41.6642 18.7902 41.1579 18.7943 40.6008C18.796 40.3918 18.7342 40.2239 18.6122 40.101C18.4895 39.9781 18.3181 39.9158 18.1038 39.9158C18.0907 39.9158 18.0766 39.9158 18.0635 39.9158C17.5411 39.9314 17.1406 39.9388 16.7665 39.9388C16.6297 39.9388 16.493 39.938 16.3562 39.9355H16.3331C16.0801 39.9355 15.8807 40.0084 15.7415 40.1518C15.5273 40.3722 15.538 40.6778 15.5413 40.7777C15.5536 41.1472 15.5544 41.5561 15.5429 42.0632C15.5388 42.2353 15.5544 42.486 15.7374 42.6728C15.8634 42.8014 16.0348 42.8669 16.2466 42.8669C16.2861 42.8669 16.3273 42.8645 16.3702 42.8604C16.4501 42.8522 16.5383 42.8481 16.6479 42.8481C16.6767 42.8481 16.7055 42.8481 16.7344 42.8481V42.871H17.1464C17.2411 42.871 17.3367 42.871 17.4315 42.871C17.5254 42.871 17.6193 42.871 17.7124 42.871L17.7108 42.8694ZM60.5981 42.8702C60.9574 42.8702 61.3166 42.8702 61.6767 42.8718C61.9445 42.8718 62.1068 42.7662 62.195 42.6785C62.284 42.59 62.3895 42.4286 62.3878 42.1615C62.3853 41.6888 62.3853 41.2103 62.3878 40.7376C62.3903 40.4721 62.2848 40.3099 62.1958 40.2214C62.1068 40.1321 61.9453 40.0264 61.6775 40.0264H61.1469V40.0035H60.7349C60.6459 40.0035 60.5561 40.0043 60.4663 40.0051C60.3798 40.0051 60.2924 40.0068 60.2059 40.0068C60.0675 40.0068 59.9546 40.0043 59.8516 39.9994C59.8335 39.9994 59.8178 39.9986 59.803 39.9986C59.5962 39.9986 59.4297 40.0609 59.3069 40.1846C59.1825 40.3099 59.1199 40.4812 59.1215 40.695C59.124 41.1816 59.124 41.6699 59.1232 42.1582C59.1224 42.4253 59.2278 42.5875 59.3177 42.6768C59.4066 42.7653 59.5673 42.871 59.8326 42.871C60.0881 42.871 60.3427 42.8702 60.5981 42.8702ZM5.12531 36.9066C5.09977 36.9066 5.0734 36.9074 5.04621 36.909L4.88224 36.9197C4.55018 36.9418 4.20658 36.9648 3.87287 36.9762C3.75998 36.9795 3.66275 36.9803 3.57788 36.9811C2.68551 36.9877 2.60559 37.2892 2.60559 38.1494V38.3313C2.60476 38.5771 2.6748 38.7721 2.81323 38.9097C2.94919 39.0458 3.1387 39.1146 3.37683 39.1146C3.39661 39.1146 3.41638 39.1146 3.43698 39.1129C3.52515 39.1088 3.62073 39.1072 3.73773 39.1072C3.82013 39.1072 3.90253 39.108 3.98493 39.1088C4.0698 39.1097 4.15467 39.1105 4.23954 39.1105C5.04704 39.1039 5.4137 39.1015 5.67491 38.8229C5.92128 38.5607 5.9015 38.2215 5.86772 37.6587V37.639C5.83805 37.1794 5.5612 36.9049 5.12614 36.9049L5.12531 36.9066ZM69.0126 39.1105H69.9173C70.2791 39.1105 70.621 39.1105 70.8493 38.8737C71.0791 38.6345 71.0651 38.3321 71.0388 37.784V37.7603C71.0132 37.2671 70.7265 36.9918 70.2305 36.9836C69.8119 36.9779 69.4468 36.9615 69.114 36.932L69.0966 36.9303C68.8865 36.9115 68.7209 36.8968 68.5833 36.8968C68.402 36.8968 68.1713 36.9197 67.9933 37.0967C67.77 37.3195 67.7717 37.6104 67.775 38.1363C67.7799 38.9179 67.9571 39.099 68.7242 39.1047C68.8206 39.1047 68.917 39.1056 69.0134 39.1056L69.0126 39.1105ZM9.4957 36.7493C9.47922 36.7493 9.46274 36.7493 9.44709 36.7501H9.43473C9.26828 36.7542 9.09772 36.755 8.93292 36.755C8.50528 36.755 8.06362 36.755 7.61702 36.8189L7.59725 36.8214C7.21986 36.8738 7.01057 37.0541 6.97514 37.3556C6.96937 37.4047 6.96361 37.4531 6.95702 37.5014C6.91087 37.866 6.85814 38.2789 7.05424 38.6722C7.12511 38.8131 7.30391 39.0498 7.71096 39.0498C7.79335 39.0498 7.87246 39.0408 7.94249 39.0326C7.99523 39.0269 8.04549 39.0212 8.08175 39.0212C8.08834 39.0212 8.09493 39.0212 8.1007 39.0212C8.16085 39.0277 8.21935 39.0302 8.28939 39.0302C8.33141 39.0302 8.37344 39.0294 8.41546 39.0277C8.45007 39.0269 8.48468 39.0261 8.51928 39.0261H8.93127V39.013H9.09607C9.19165 39.013 9.28641 39.013 9.38199 39.013H9.39353C9.49405 39.013 9.80057 39.013 10.0024 38.7828C10.0865 38.6869 10.1796 38.5189 10.1442 38.2617C10.1335 38.1863 10.1458 38.0847 10.1582 37.9766C10.1928 37.68 10.2447 37.2327 9.8393 36.8689C9.74866 36.7878 9.6333 36.7468 9.49487 36.7468L9.4957 36.7493ZM64.1717 36.7558C63.7086 36.7558 63.4952 37.0663 63.4895 37.3736C63.4878 37.4571 63.4779 37.5505 63.4672 37.6497C63.4326 37.9733 63.3906 38.3756 63.6271 38.727C63.7688 38.9384 63.9929 39.0466 64.2928 39.0466C64.3843 39.0466 64.4708 39.0376 64.5549 39.0285C64.5928 39.0244 64.629 39.0212 64.6628 39.0179V39.0212L65.0748 39.0269H65.5914C65.7051 39.0261 65.8197 39.0269 65.9334 39.0269H65.9441C66.1707 39.0269 66.3536 38.9589 66.4871 38.8254C66.5777 38.7352 66.6857 38.5706 66.6849 38.3002C66.684 38.1707 66.684 38.0421 66.684 37.9143C66.684 37.7865 66.684 37.6538 66.684 37.5235C66.6807 37.1229 66.4121 36.8435 66.0158 36.8279C65.4143 36.8025 64.8111 36.7771 64.208 36.755C64.1948 36.755 64.1833 36.7558 64.1717 36.7558ZM13.7302 36.5756C13.7079 36.5756 13.6857 36.5756 13.6626 36.578C13.5349 36.5862 13.4071 36.5961 13.2803 36.6059C13.0347 36.6247 12.8032 36.642 12.5692 36.6501C12.4307 36.6551 12.3145 36.6559 12.2157 36.6567C11.381 36.6641 11.2524 36.8927 11.245 37.6775C11.2442 37.7726 11.2434 37.8832 11.2392 38.0118C11.2335 38.2199 11.2516 38.5222 11.4634 38.7385C11.6067 38.8843 11.8037 38.9589 12.0492 38.9589C12.0978 38.9589 12.1497 38.9556 12.2033 38.9499C12.2618 38.9433 12.3261 38.9409 12.4011 38.9409C12.4678 38.9409 12.5313 38.9433 12.5865 38.945C12.6384 38.9466 12.6845 38.9483 12.7232 38.9483H12.7381C12.9589 38.9401 13.1418 38.9392 13.2959 38.9392H13.3849C13.7672 38.9392 14.0433 38.9392 14.2501 38.7311C14.4577 38.523 14.4544 38.2633 14.4503 37.8332C14.4487 37.7029 14.447 37.5563 14.4503 37.3793C14.4503 37.3637 14.4503 37.3474 14.4503 37.3318C14.4577 37.0483 14.3506 36.8763 14.2583 36.7812C14.1677 36.6878 14.0029 36.5764 13.7318 36.5764L13.7302 36.5756ZM61.0867 38.9442C61.1939 38.9442 61.2886 38.9458 61.371 38.9474C61.4394 38.9483 61.5004 38.9499 61.5548 38.9499C61.7319 38.9499 61.9989 38.9499 62.1909 38.759C62.3903 38.5599 62.3903 38.31 62.3895 37.8963C62.3895 37.784 62.3895 37.6513 62.3919 37.4965C62.3952 37.322 62.3779 37.0663 62.1859 36.8722C62.0442 36.728 61.8497 36.6583 61.591 36.6583C61.507 36.6583 61.4303 36.6592 61.3537 36.66C61.2491 36.6608 61.1444 36.6616 61.0389 36.6616C60.7398 36.6616 60.3888 36.6542 60.0518 36.5977C59.9801 36.5862 59.9126 36.5797 59.8499 36.5797C59.5681 36.5797 59.3984 36.6977 59.3061 36.7968C59.1595 36.9549 59.096 37.1778 59.1174 37.4604C59.1331 37.671 59.1265 37.8963 59.1174 38.1077C59.1084 38.3641 59.1759 38.5681 59.3193 38.7156C59.4594 38.8598 59.653 38.9335 59.8944 38.9335C59.9052 38.9335 59.9159 38.9335 59.9274 38.9335C60.0222 38.931 60.1186 38.9302 60.2141 38.9302C60.2512 38.9302 60.2891 38.9302 60.3262 38.9302V38.945H60.8758C60.9005 38.945 60.9252 38.945 60.9491 38.945C60.9969 38.945 61.0439 38.9442 61.0867 38.9442ZM50.4343 36.6927C50.3824 36.7943 50.3536 36.909 50.3536 37.0278V38.1068C50.3536 38.5222 50.6931 38.8598 51.1108 38.8598H53.0035C53.4212 38.8598 53.7607 38.5222 53.7607 38.1068V37.0278C53.7607 36.6133 53.4212 36.2757 53.0035 36.2757H51.1108C51.0803 36.2757 51.0498 36.2774 51.0193 36.2815H49.9976L50.4343 36.6927ZM56.6768 38.8524C56.8037 38.8524 56.9133 38.8549 57.008 38.8565C57.0855 38.8581 57.153 38.8598 57.2132 38.8598C57.3747 38.8598 57.6458 38.8598 57.8386 38.6672C58.0438 38.4624 58.0421 38.1937 58.0405 37.7488C58.0405 37.6259 58.0397 37.4817 58.0421 37.3113C58.0462 37.0606 57.977 36.8615 57.8378 36.719C57.6458 36.5223 57.3879 36.4969 57.2107 36.4953C56.8292 36.4904 56.4362 36.4691 56.0563 36.4478L55.7927 36.433C55.721 36.4289 55.646 36.4257 55.576 36.4257C54.8303 36.4257 54.827 36.982 54.8245 37.3506C54.8245 37.453 54.8245 37.5546 54.8253 37.6571C54.8261 37.8029 54.8278 37.9405 54.8245 38.0798C54.8187 38.3166 54.8846 38.5058 55.0198 38.6443C55.1524 38.7795 55.3329 38.8475 55.557 38.8475H55.5867C55.6921 38.8442 55.7984 38.8442 55.9047 38.8442C55.9319 38.8442 55.9591 38.8442 55.9855 38.8442L56.3975 38.854H56.5202C56.5787 38.8532 56.6298 38.8524 56.6768 38.8524ZM18.0676 36.4125C18.0495 36.4125 18.0305 36.4126 18.0107 36.4142C17.4183 36.4429 16.8242 36.4683 16.2309 36.4945H16.2087C15.856 36.5117 15.6171 36.7222 15.5511 37.0737C15.43 37.7193 15.4127 38.156 15.6805 38.4763C15.9434 38.791 16.371 38.854 16.9766 38.854H17.5501V38.8426H17.7026C17.8278 38.8426 17.953 38.8426 18.0783 38.8442H18.0898C18.3016 38.8442 18.473 38.7795 18.5999 38.6525C18.7284 38.5239 18.7919 38.3493 18.7902 38.1331C18.7861 37.7898 18.7828 37.4809 18.7919 37.1679C18.7976 36.9361 18.7325 36.7501 18.599 36.6149C18.468 36.4814 18.2884 36.4134 18.0659 36.4134L18.0676 36.4125ZM22.4396 36.2651C21.8216 36.2757 21.2045 36.2847 20.589 36.2929C20.3681 36.2954 20.1918 36.3634 20.0657 36.4945C19.9405 36.6239 19.8803 36.7984 19.8869 37.0123C19.8952 37.3031 19.896 37.6128 19.8894 38.0151C19.8845 38.2437 19.9504 38.4296 20.0839 38.5648C20.2165 38.6992 20.3994 38.768 20.6285 38.768C20.6409 38.768 20.6532 38.768 20.6664 38.768C20.7669 38.7647 20.8683 38.7639 20.9696 38.7639C21.0529 38.7639 21.1369 38.7639 21.2201 38.7656C21.3058 38.7656 21.3915 38.7672 21.4764 38.7672H21.8884V38.7533C21.937 38.7533 21.9856 38.7533 22.0342 38.7533C22.1479 38.7533 22.2625 38.7533 22.377 38.7549H22.3902C22.6522 38.7549 22.8121 38.6509 22.9002 38.5632C23.0296 38.4346 23.0939 38.2592 23.093 38.0438C23.0914 37.8135 23.0914 37.5841 23.0914 37.3547C23.0914 37.2163 23.0914 37.0786 23.0914 36.9402C23.0914 36.4437 22.747 36.2667 22.4512 36.2667L22.4396 36.2651ZM26.529 36.075C26.4384 36.075 26.3313 36.0783 26.2036 36.0824C26.1022 36.0857 25.9877 36.0889 25.8575 36.0914C25.1868 36.1045 24.6883 36.1397 24.39 36.4748C24.0909 36.8099 24.1139 37.2916 24.184 37.9889C24.2425 38.5738 24.6817 38.6369 24.8671 38.6369C24.8835 38.6369 24.9009 38.6369 24.9182 38.6361C25.0162 38.6312 25.1208 38.6287 25.2502 38.6287C25.3334 38.6287 25.4167 38.6296 25.4999 38.6304C25.5864 38.6312 25.6729 38.632 25.7586 38.632H26.1706V38.6181H26.2934C26.7251 38.6156 26.9855 38.614 27.1907 38.4059C27.3959 38.1978 27.3926 37.9356 27.3876 37.5374C27.386 37.381 27.3876 37.2474 27.3893 37.1343C27.395 36.7419 27.3983 36.4822 27.194 36.2774C27.0094 36.0914 26.754 36.075 26.529 36.075ZM46.864 36.1356C46.1834 36.1356 46.1801 36.6477 46.1777 37.0221C46.1727 37.7038 46.1702 38.0782 46.4397 38.3477C46.7075 38.6156 47.0857 38.6181 47.7729 38.6222H48.2936C48.409 38.623 48.5252 38.6222 48.6405 38.6222C48.8918 38.6189 49.0921 38.5419 49.2363 38.392C49.3796 38.2428 49.4488 38.0413 49.4406 37.7939V37.775C49.4324 37.5276 49.4249 37.2933 49.4422 37.0655C49.4505 36.9598 49.4752 36.637 49.2544 36.4003C49.111 36.2462 48.9017 36.1676 48.6331 36.1676C48.6158 36.1676 48.5985 36.1676 48.5812 36.1684C48.4452 36.1725 48.301 36.175 48.1535 36.175C47.8512 36.175 47.529 36.1659 47.1401 36.1471L47.1063 36.1455C47.014 36.1414 46.9349 36.1373 46.8649 36.1373L46.864 36.1356ZM30.4446 35.9202C30.3053 35.9202 30.1471 35.9243 29.9626 35.9292C29.3281 35.9464 28.9787 35.9562 28.7266 36.2118C28.4728 36.4691 28.4728 36.8148 28.4736 37.4416C28.4736 37.8078 28.4736 38.0298 28.5816 38.2207C28.7661 38.5484 29.1312 38.5484 29.3264 38.5484C29.3998 38.5484 29.4846 38.546 29.5827 38.5435C29.6264 38.5427 29.6684 38.5419 29.7112 38.5419C29.7557 38.5419 29.9387 38.5435 29.9856 38.5435H30.3976V38.5263C30.4149 38.5263 30.4314 38.5263 30.4487 38.5263C30.5418 38.5263 30.6176 38.5296 30.6868 38.5361C30.7396 38.5411 30.7907 38.5435 30.8376 38.5435C31.0898 38.5435 31.2925 38.469 31.4383 38.3223C31.655 38.1052 31.6773 37.7955 31.6748 37.5817V37.5383C31.6641 36.4945 31.6583 35.9202 30.4446 35.9202ZM42.9493 38.5329C43.2468 38.5329 43.5426 38.5378 43.845 38.5435C43.9496 38.5452 44.037 38.5468 44.1136 38.5468C44.369 38.5468 44.7546 38.5468 44.959 38.2174C45.0917 38.0044 45.0908 37.7595 45.0908 37.3138C45.0908 37.2679 45.0892 37.222 45.0884 37.1761C45.0859 37.095 45.0834 37.018 45.0917 36.9557C45.1271 36.6624 45.0678 36.4281 44.9178 36.2593C44.6887 36.0029 44.3418 36.0029 44.2273 36.0029C44.2116 36.0029 44.196 36.0029 44.1803 36.0029C44.0946 36.0045 44.0081 36.0054 43.9208 36.0054C43.5566 36.0054 43.1569 35.9898 42.6609 35.9562C42.6329 35.9546 42.6065 35.9538 42.581 35.9538C42.37 35.9538 42.1995 36.0177 42.0742 36.143C41.8781 36.3396 41.8814 36.6092 41.8823 36.6977C41.8864 37.0541 41.8897 37.4031 41.8823 37.7455C41.8765 37.9872 41.9441 38.1814 42.0825 38.3223C42.2201 38.4624 42.4121 38.5337 42.6535 38.5337H42.6659C42.7614 38.5321 42.8554 38.5329 42.9493 38.5329ZM56.5631 35.3794C57.2668 35.4073 57.9704 35.436 58.6741 35.4646C59.5022 35.4982 60.3295 35.5326 61.1584 35.5646C61.1807 35.5646 61.2029 35.567 61.2243 35.5687C61.273 35.572 61.3216 35.5752 61.3694 35.5752C61.7805 35.5752 62.0401 35.3237 62.064 34.9018C62.0895 34.4413 62.0079 34.1251 61.8094 33.9055C61.7047 33.7908 61.5152 33.6499 61.2046 33.6352C60.7168 33.6106 60.2281 33.5876 59.7395 33.5655C58.7038 33.5172 57.6326 33.4672 56.5812 33.4025C56.175 33.3771 55.8034 33.3517 55.4466 33.3255L55.2151 33.3083H55.1178L53.942 33.2468C53.8604 33.228 53.7813 33.2255 53.7096 33.2231C53.357 33.2091 53.0018 33.1952 52.6475 33.1788C52.1878 33.1583 51.7848 33.1387 51.4173 33.1182L51.1232 33.1018C50.9345 33.0911 50.7466 33.0805 50.5579 33.069C49.7323 33.0223 48.9083 32.9748 48.0843 32.9281C46.4578 32.8347 44.7761 32.7388 43.1207 32.6487C42.951 32.6397 42.8117 32.6323 42.6922 32.6323C42.4516 32.6323 42.2028 32.6586 42.0157 32.847C41.7875 33.0772 41.7924 33.3877 41.7999 33.9022V33.935C41.8122 34.7051 42.4178 34.7568 42.6172 34.774C43.1059 34.8158 43.5953 34.8248 44.0691 34.833C44.355 34.8379 44.6508 34.8436 44.9384 34.8559C46.9028 34.9427 48.947 35.0304 51.1874 35.1246L56.334 35.3958C56.3513 35.3966 56.3694 35.3974 56.3876 35.3974C56.4469 35.3974 56.5062 35.3917 56.5639 35.3811L56.5631 35.3794ZM28.1968 32.7782C26.3016 32.879 24.4262 32.9789 22.5517 33.078C22.1669 33.0985 21.7813 33.1182 21.3965 33.137C20.7513 33.1698 20.0847 33.2034 19.428 33.2411C18.5628 33.2894 17.6968 33.3394 16.8308 33.3894C15.4753 33.4672 14.0737 33.5483 12.6952 33.6212C11.8531 33.6671 11.6776 33.831 11.587 34.6568C11.5655 34.8477 11.559 35.1271 11.7501 35.3393C11.8852 35.4892 12.083 35.5654 12.3376 35.5654C12.3698 35.5654 12.4044 35.5646 12.4406 35.5621C14.1199 35.4482 15.8329 35.3843 17.4891 35.3229C18.417 35.2885 19.3769 35.2533 20.3212 35.209L21.2589 35.1648C23.4943 35.0591 25.8064 34.9493 28.0789 34.91C28.7431 34.8985 29.413 34.8584 30.0606 34.819C30.3358 34.8026 30.6119 34.7854 30.8871 34.7707C30.9019 34.7707 30.9167 34.7699 30.9324 34.7691C31.0642 34.7666 31.4663 34.7584 31.5899 34.3709C31.7275 33.9383 31.7308 33.4787 31.6006 33.0764C31.51 32.7962 31.2743 32.6291 30.9711 32.6291C30.8936 32.6291 30.8236 32.6389 30.7668 32.6471C30.7495 32.6496 30.728 32.6528 30.7132 32.6545L30.6835 32.6471L28.1984 32.779L28.1968 32.7782ZM33.6012 32.5553C32.7633 32.5553 32.7567 33.0281 32.7484 33.5753C32.7476 33.6466 32.746 33.7253 32.7443 33.8138C32.7377 34.0981 32.8069 34.3103 32.9569 34.4635C33.1571 34.6675 33.4323 34.6904 33.621 34.6904H33.6532C34.0454 34.6847 34.4706 34.6822 34.9913 34.6822C35.2978 34.6822 35.6043 34.683 35.91 34.6838C36.1712 34.6838 36.4324 34.6855 36.6936 34.6855C37.6412 34.6855 38.588 34.6855 39.5356 34.6855C40.5301 34.6855 40.7089 34.5183 40.7345 33.5696L40.7361 33.5123C40.7419 33.3066 40.7254 33.0076 40.5128 32.7905C40.3019 32.5742 40.0069 32.5496 39.8034 32.5496H39.7811C38.8558 32.5586 37.9461 32.5594 37.2564 32.5594C36.8634 32.5594 36.4703 32.5594 36.0773 32.5594C35.6843 32.5594 35.2904 32.5586 34.8974 32.5586C34.6049 32.5586 34.3123 32.5586 34.0198 32.5594H33.9902C33.9045 32.5594 33.827 32.5586 33.7586 32.5578C33.7001 32.5578 33.6474 32.5561 33.5996 32.5561L33.6012 32.5553ZM14.3036 28.8456C14.2896 28.8456 14.2756 28.8456 14.2608 28.8464C13.9287 28.8644 13.5958 28.8841 13.263 28.9046C12.9803 28.9218 12.6985 28.9382 12.4159 28.9537C12.0006 28.9783 11.7452 29.2593 11.7468 29.6878C11.7493 30.3555 11.7518 31.0454 11.7452 31.7246C11.7435 31.9564 11.8111 32.1416 11.9446 32.2751C12.0764 32.407 12.256 32.4734 12.4785 32.4734C12.4934 32.4734 12.5082 32.4734 12.5238 32.4726C12.696 32.466 12.8724 32.4636 13.0438 32.4611C13.4187 32.4562 13.8068 32.4505 14.199 32.4021C14.6835 32.3423 14.9398 32.0416 14.92 31.555C14.9109 31.3461 14.9134 31.138 14.915 30.9176C14.9159 30.8225 14.9167 30.7275 14.9167 30.6316V30.222H14.9142C14.9142 29.9901 14.9142 29.7575 14.9134 29.5256C14.9101 28.8775 14.405 28.8456 14.3036 28.8456ZM59.3185 28.8489C59.1314 28.8489 58.6972 28.9177 58.6972 29.5518C58.6972 29.8156 58.6972 30.0803 58.6972 30.3449C58.6972 30.7668 58.698 31.2035 58.6947 31.632C58.6931 31.8802 58.7821 32.3095 59.3943 32.3964C59.7964 32.4537 60.1927 32.4587 60.5767 32.4636C60.73 32.4652 60.8832 32.4677 61.0365 32.4734C61.0505 32.4734 61.0637 32.4734 61.076 32.4734C61.2993 32.4734 61.4789 32.4054 61.61 32.2719C61.7443 32.135 61.8094 31.9458 61.8036 31.7106C61.7987 31.4788 61.8003 31.2404 61.8011 31.0093C61.8011 30.92 61.802 30.8307 61.8028 30.7414C61.8028 30.6374 61.8028 30.5341 61.8011 30.4309C61.7995 30.1999 61.7978 29.9615 61.8044 29.7304C61.8176 29.2651 61.5424 28.9627 61.0859 28.9406C60.4424 28.9103 59.8804 28.8808 59.3687 28.8497C59.3498 28.8489 59.3333 28.848 59.3168 28.848L59.3185 28.8489ZM16.0101 30.7873C16.0101 31.0183 16.0101 31.2494 16.0101 31.4812C16.0093 31.7106 16.0768 31.895 16.212 32.0302C16.3018 32.1203 16.4649 32.2268 16.7311 32.2268H16.7418C16.8448 32.2252 16.947 32.2252 17.0491 32.2243C17.4999 32.2219 17.9662 32.2202 18.4375 32.1539C18.7358 32.1121 19.0893 31.9458 19.0794 31.3919C19.0646 30.6226 19.0646 29.9934 19.0794 29.4101C19.0819 29.3142 19.0893 29.025 18.8874 28.8194C18.7605 28.6899 18.5859 28.6244 18.3692 28.6244C18.3453 28.6244 18.3205 28.6244 18.295 28.6268C17.7784 28.658 17.2436 28.685 16.661 28.7088C16.3273 28.7227 15.978 28.9251 15.9969 29.4519C16.0043 29.6632 16.0027 29.8738 16.001 30.0966C16.001 30.19 15.9994 30.2834 15.9994 30.3768V30.7865L16.0101 30.7873ZM55.1541 28.6178C54.9563 28.6178 54.7965 28.6784 54.677 28.7981C54.4908 28.9849 54.4924 29.2323 54.4933 29.3134C54.4982 29.9172 54.499 30.5792 54.4949 31.3977C54.4933 31.8172 54.7347 32.0924 55.1566 32.1547C55.6262 32.2243 56.0909 32.2243 56.54 32.2243C56.6595 32.2243 56.7781 32.2243 56.8976 32.226H56.9083C57.1621 32.226 57.3187 32.1227 57.406 32.0359C57.537 31.9048 57.6038 31.7246 57.603 31.5009C57.6013 31.1625 57.603 30.8225 57.603 30.4842V30.1868C57.6021 29.9483 57.6013 29.7017 57.6046 29.4609C57.6112 29.0135 57.3417 28.7243 56.9001 28.7071C56.3233 28.6842 55.7605 28.6555 55.2258 28.6203C55.2011 28.6186 55.1772 28.6178 55.1541 28.6178ZM20.158 30.6603C20.158 30.8897 20.158 31.1191 20.1564 31.3493C20.1539 31.6189 20.2585 31.7803 20.3459 31.8679C20.4275 31.9499 20.5717 32.0466 20.7991 32.0466C20.8427 32.0466 20.8881 32.0433 20.9342 32.0359C21.3083 31.9761 21.689 31.9744 22.0927 31.9728C22.2485 31.9728 22.4042 31.9712 22.5608 31.9671C23.0485 31.9548 23.3369 31.6615 23.3312 31.1838C23.3238 30.4989 23.3238 29.8156 23.3312 29.1528C23.3345 28.9103 23.2669 28.7178 23.1301 28.5801C22.9991 28.4482 22.8203 28.381 22.5995 28.381C22.5756 28.381 22.55 28.381 22.5245 28.3835C21.9164 28.4212 21.3833 28.4482 20.8955 28.4671C20.4176 28.4843 20.1399 28.7891 20.1531 29.2814C20.1597 29.5043 20.158 29.7345 20.1564 29.9574C20.1564 30.0549 20.1555 30.1524 20.1555 30.2498V30.6595L20.158 30.6603ZM51.6678 31.9712C52.0213 31.9712 52.3163 31.981 52.603 32.0277C52.6549 32.0359 52.706 32.0408 52.7547 32.0408C52.9845 32.0408 53.1287 31.9433 53.2103 31.8622C53.3389 31.7328 53.4023 31.5492 53.3982 31.3174C53.3957 31.1003 53.3957 30.8823 53.3965 30.6636C53.3965 30.5415 53.3965 30.4203 53.3965 30.2982C53.3965 30.1925 53.3965 30.0852 53.3957 29.9778C53.3949 29.7362 53.3941 29.4863 53.3982 29.2421C53.4081 28.7841 53.1263 28.4859 52.664 28.4654C52.1293 28.4417 51.5755 28.4163 51.0334 28.3761C51.0053 28.3737 50.979 28.3728 50.9534 28.3728C50.7557 28.3728 50.595 28.4335 50.4755 28.5539C50.305 28.7243 50.2868 28.9488 50.2885 29.1028C50.2942 29.8304 50.2984 30.485 50.2868 31.1396C50.2827 31.4034 50.3503 31.6025 50.4936 31.7491C50.637 31.8958 50.8372 31.9687 51.105 31.972C51.1635 31.972 51.2212 31.9728 51.2797 31.9728C51.3448 31.9728 51.6052 31.972 51.6695 31.972L51.6678 31.9712ZM47.2604 31.7303C47.6394 31.7303 48.0094 31.7352 48.3653 31.7934C48.4205 31.8024 48.4741 31.8073 48.5252 31.8073C48.7682 31.8073 48.9199 31.7049 49.0047 31.6189C49.1374 31.4837 49.2025 31.2977 49.1984 31.0642C49.1942 30.8414 49.1951 30.6128 49.1959 30.3908C49.1959 30.2761 49.1959 30.1622 49.1959 30.0483V29.7443C49.1959 29.492 49.1951 29.2405 49.1959 28.9881C49.1992 28.5383 48.933 28.2459 48.5005 28.2237C47.9772 28.1992 47.4375 28.1729 46.9028 28.1402C46.878 28.1385 46.8533 28.1377 46.8294 28.1377C46.6086 28.1377 46.429 28.2057 46.2955 28.3393C46.0821 28.5531 46.0845 28.8513 46.0862 28.9496C46.0936 29.5747 46.0977 30.2433 46.0846 30.9028C46.0788 31.1625 46.1463 31.3608 46.2897 31.5075C46.5056 31.7278 46.8096 31.7295 46.9102 31.7303H47.2604ZM26.8075 28.1394C26.7869 28.1394 26.7647 28.1394 26.7424 28.141C26.164 28.1729 25.5897 28.2008 25.1035 28.2246C24.6874 28.2442 24.418 28.5285 24.4164 28.948V29.5551C24.4164 30.0622 24.4172 30.5694 24.4155 31.0765C24.4147 31.3575 24.5235 31.5255 24.6149 31.6164C24.7015 31.7025 24.8564 31.8057 25.1027 31.8057C25.1538 31.8057 25.2065 31.8016 25.2618 31.7926C25.6498 31.7311 26.0454 31.7303 26.4648 31.7295C26.5496 31.7295 26.6337 31.7295 26.7185 31.7287C26.9797 31.727 27.1849 31.6508 27.3283 31.5009C27.4741 31.3485 27.5401 31.1437 27.5285 30.8733C27.5203 30.6734 27.5219 30.4727 27.5236 30.2605C27.5244 30.1565 27.5252 30.0524 27.5252 29.9483C27.5252 29.8427 27.5252 29.7362 27.5244 29.6296C27.5236 29.3871 27.5227 29.1373 27.5269 28.8931C27.5318 28.6604 27.4659 28.4736 27.3324 28.3376C27.2426 28.2467 27.0794 28.1394 26.8075 28.1394ZM30.9447 27.9001C30.9241 27.9001 30.9019 27.9001 30.8796 27.9018C30.4413 27.928 30.0046 27.9517 29.5679 27.9747L29.2828 27.9902C28.8592 28.0132 28.6005 28.2909 28.6071 28.7161C28.6162 29.3134 28.6244 30.0221 28.6112 30.7447C28.6063 31.0077 28.678 31.215 28.823 31.3616C28.9631 31.5034 29.1575 31.5746 29.4006 31.5746C29.4344 31.5746 29.4698 31.573 29.5069 31.5705C30.0268 31.532 30.5056 31.5034 30.9703 31.4829C31.3106 31.4673 31.6715 31.26 31.6649 30.7242C31.6624 30.4883 31.6632 30.2523 31.6641 30.0163V29.7075C31.6641 29.6026 31.6641 29.4977 31.6641 29.3929C31.6632 29.1495 31.6624 28.8972 31.6665 28.6514C31.6707 28.4204 31.6047 28.2344 31.4704 28.0984C31.3806 28.0074 31.2158 27.9001 30.9447 27.9001ZM42.6238 27.8968C42.3997 27.8968 42.2176 27.9648 42.0849 28.0984C41.949 28.2352 41.8806 28.4236 41.8831 28.6596C41.8872 29.1659 41.8864 29.6821 41.8864 30.181V30.7373C41.8864 31.2576 42.2267 31.4616 42.5464 31.478C43.0952 31.5066 43.6431 31.5386 44.1919 31.5697L44.2224 31.5714C44.2438 31.5722 44.2636 31.573 44.2825 31.573C44.5487 31.573 44.7093 31.4657 44.7983 31.3747C44.9334 31.2371 44.9985 31.0462 44.9928 30.8061C44.987 30.5767 44.9887 30.3408 44.9903 30.1122C44.9903 30.0065 44.992 29.9016 44.992 29.796C44.992 29.6903 44.992 29.5887 44.9903 29.4854C44.9887 29.2421 44.987 28.9914 44.9944 28.7473C45.006 28.304 44.7373 28.0148 44.2949 27.9919C43.7807 27.9657 43.2608 27.9354 42.7038 27.8993C42.6766 27.8977 42.6494 27.8968 42.6238 27.8968ZM33.6886 27.8075C33.5815 27.8075 33.2552 27.8075 33.0286 28.041C32.8226 28.2532 32.8078 28.5367 32.8152 28.7325C32.8391 29.3871 32.8284 30.0475 32.8152 30.5505C32.8127 30.6538 32.8069 30.9626 33.0261 31.1855C33.1736 31.3354 33.3788 31.4075 33.654 31.4075C34.665 31.4034 35.7172 31.4009 36.7851 31.4009C37.7854 31.4009 38.8376 31.4026 39.9138 31.4067C40.184 31.4067 40.3818 31.3362 40.5252 31.1904C40.7402 30.9725 40.7344 30.6726 40.732 30.5735C40.7221 30.0049 40.7139 29.3331 40.7336 28.6686C40.7419 28.3942 40.6743 28.1869 40.5268 28.0361C40.3291 27.8338 40.0613 27.81 39.8775 27.81H39.847C39.4598 27.8149 39.0403 27.8174 38.5278 27.8174C38.2155 27.8174 37.9024 27.8174 37.5901 27.8157C37.3289 27.8157 37.0677 27.8141 36.8065 27.8141C36.5091 27.8141 36.2116 27.8149 35.9142 27.8166C35.6175 27.8174 35.3217 27.819 35.0251 27.819C34.5192 27.819 34.1072 27.8157 33.7273 27.8075C33.7141 27.8075 33.7018 27.8075 33.6886 27.8075ZM36.7975 12.2173C35.0597 12.2173 33.3005 12.418 31.5693 12.8137C26.6831 13.9304 22.5113 16.4448 19.1692 20.2873C17.5221 22.1815 16.1922 24.3673 15.2158 26.7843C15.1647 26.9112 15.0444 27.2086 15.2158 27.4618C15.3221 27.6183 15.4959 27.6978 15.7324 27.6978C15.781 27.6978 15.8338 27.6953 15.8997 27.6887C16.4353 27.6396 17.017 27.5978 17.7298 27.5577C18.4507 27.5183 19.1725 27.4806 19.8935 27.443C20.8411 27.3938 21.8208 27.343 22.7849 27.2881C23.8552 27.2267 24.9256 27.1636 25.9959 27.1005C27.5681 27.0071 29.1946 26.9112 30.7939 26.8244C31.0123 26.8129 31.6789 26.7769 31.6773 25.9502C31.6764 25.5586 31.5224 25.0924 30.7948 25.0924C30.7791 25.0924 30.7635 25.0924 30.7478 25.0924C30.3877 25.0998 30.0697 25.1031 29.7763 25.1031C29.4393 25.1031 29.1303 25.0982 28.8337 25.0891C28.4316 25.0769 28.1366 24.8278 28.1465 24.5107C28.1564 24.1805 28.3888 24.0118 28.837 24.0101C28.982 24.0101 29.1279 24.0085 29.2729 24.0077C29.5135 24.006 29.7541 24.0052 29.9939 24.0052C30.3202 24.0052 30.5904 24.0077 30.8442 24.0134H30.8763C31.1318 24.0134 31.3328 23.9405 31.4721 23.7963C31.6855 23.5759 31.674 23.276 31.6698 23.1769C31.6525 22.764 31.6534 22.401 31.6698 22.0676C31.6756 21.9627 31.6913 21.644 31.4704 21.4122C31.2513 21.1828 30.9398 21.1828 30.8376 21.1828C30.8244 21.1828 30.8104 21.1828 30.7972 21.1828C30.4701 21.1909 30.1315 21.195 29.7912 21.195C29.4179 21.195 29.029 21.1901 28.6351 21.1803C28.3681 21.1737 28.1679 20.9771 28.1481 20.7018C28.13 20.4528 28.3039 20.2226 28.5519 20.1668C28.7035 20.1332 28.8765 20.1152 29.0784 20.1128C29.4039 20.1087 29.6972 20.1054 29.9939 20.1054C30.321 20.1054 30.6086 20.1095 30.8722 20.1185C30.8895 20.1185 30.9068 20.1193 30.9233 20.1193C31.0123 20.1193 31.2817 20.1193 31.4787 19.9186C31.6773 19.7162 31.6707 19.445 31.6682 19.3557C31.6567 18.8502 31.6567 18.4414 31.6682 18.0686C31.6773 17.8048 31.6113 17.6049 31.4671 17.4566C31.3238 17.3092 31.1268 17.2379 30.8648 17.2379H30.8352C30.5962 17.242 30.3399 17.2444 30.0293 17.2444C29.8118 17.2444 29.5942 17.2436 29.3767 17.2428C29.193 17.2428 29.01 17.2411 28.8263 17.2411C28.6714 17.2411 28.5552 17.2379 28.4703 17.1895C28.2899 17.0879 28.0905 16.8987 28.1688 16.5775C28.2305 16.3252 28.4505 16.1712 28.7554 16.1662C29.2119 16.1589 29.6725 16.1556 30.1249 16.1556C30.5426 16.1556 30.9645 16.1589 31.3782 16.1646H31.4325C31.8701 16.1646 32.2722 16.0859 32.6619 15.9237C33.4966 15.5764 34.1467 15.3715 34.7705 15.2601L34.7969 15.2552C35.8771 15.061 36.0114 14.9152 36.1029 13.837L36.1045 13.8059V13.81C36.1399 13.488 36.3451 13.2897 36.6401 13.2897C36.9334 13.2922 37.16 13.5142 37.1864 13.8173C37.2029 14.0025 37.1987 14.1983 37.1922 14.3826C37.1782 14.8283 37.4204 15.1085 37.8744 15.1708C38.7676 15.2904 39.4762 15.4543 40.1074 15.6878C41.0212 16.0253 41.8386 16.1966 42.539 16.1966C42.7252 16.1966 42.9065 16.1843 43.0762 16.1597C43.302 16.1597 43.5055 16.1589 43.6934 16.1581C43.8606 16.1581 44.0164 16.1564 44.1647 16.1564C44.3954 16.1564 44.5742 16.1581 44.7448 16.1621C44.9631 16.1671 45.1592 16.2449 45.2845 16.3768C45.3454 16.4407 45.4171 16.548 45.4114 16.6939C45.3998 17.0224 45.1353 17.2362 44.7373 17.2387C44.5042 17.2403 44.271 17.2411 44.0378 17.2411H43.0713H42.7614C41.996 17.2436 41.8089 17.4337 41.8064 18.2087C41.8064 18.3243 41.8073 18.4406 41.8089 18.5561C41.8122 18.7822 41.8155 18.9961 41.8023 19.2074C41.7842 19.4958 41.8501 19.7146 42.0017 19.8752C42.2275 20.1136 42.5579 20.1152 42.67 20.1152H42.7029C43.0095 20.1095 43.3349 20.1038 43.662 20.1038C44.1012 20.1038 44.4671 20.1136 44.8115 20.1349C45.2012 20.1586 45.4311 20.3708 45.4122 20.6887C45.385 21.1344 44.9302 21.186 44.7357 21.1869L44.444 21.1885C44.1663 21.1901 43.8895 21.1926 43.6118 21.1926C43.2591 21.1926 42.9658 21.1893 42.6889 21.1828C42.6733 21.1828 42.6576 21.1828 42.6428 21.1828C42.5381 21.1828 42.2193 21.1828 41.9993 21.4138C41.8518 21.5686 41.7875 21.7792 41.8032 22.0553C41.8221 22.4002 41.8229 22.7607 41.8032 23.1589C41.79 23.4309 41.8542 23.6374 41.9993 23.7889C42.2143 24.0134 42.5217 24.0134 42.6222 24.0134H42.6576C42.9987 24.006 43.3564 24.0028 43.7197 24.0028C44.0831 24.0028 44.4959 24.0068 44.9063 24.0142C45.2416 24.02 45.3586 24.2526 45.3982 24.446C45.441 24.6574 45.3257 24.8696 45.1057 24.9843C44.9582 25.0613 44.7983 25.0973 44.6014 25.0973H44.5857C44.4572 25.0965 44.3295 25.0957 44.2018 25.0957C44.0419 25.0957 43.8821 25.0957 43.7222 25.0965C43.5632 25.0965 43.4041 25.0973 43.2451 25.0973C43.0342 25.0973 42.8232 25.0965 42.6123 25.0932H42.59C42.3462 25.0932 42.1517 25.1653 42.0124 25.3071C41.8172 25.5062 41.7999 25.7683 41.804 25.9486C41.8089 26.1763 41.8229 26.7785 42.5505 26.8154C43.8384 26.8809 45.1477 26.9547 46.4141 27.0259C47.1524 27.0677 47.8899 27.1095 48.6282 27.1497C49.036 27.1718 49.4488 27.189 49.8493 27.2054C50.6189 27.2373 51.4149 27.2709 52.1894 27.3397C53.1559 27.4266 54.1373 27.4741 55.0857 27.52C55.9962 27.5642 56.9372 27.6093 57.8567 27.6896C57.8897 27.6928 57.9218 27.6937 57.9515 27.6937C58.2382 27.6937 58.3783 27.5478 58.4368 27.461C58.5093 27.352 58.5719 27.1644 58.4566 26.8916C58.4129 26.7883 58.3701 26.6843 58.3272 26.5794C58.2663 26.4295 58.2045 26.2796 58.1402 26.1321C56.6636 22.7181 54.4644 19.8072 51.6035 17.482C47.8446 14.4269 43.4964 12.6802 38.6803 12.2918C38.054 12.241 37.4212 12.2156 36.7983 12.2156L36.7975 12.2173ZM35.2896 24.1191C34.5307 24.1625 33.8732 24.4198 33.3458 24.6262C32.9511 24.7811 32.8061 25.2972 32.7624 25.5119C32.7196 25.7224 32.6512 26.2435 32.9487 26.5344C33.1143 26.6966 33.3499 26.7236 33.443 26.7277C33.6227 26.7367 33.8122 26.7408 34.0058 26.7408C34.7845 26.7408 35.5582 26.6687 36.2223 26.6007L36.238 25.788C36.0295 25.7585 35.8301 25.756 35.6381 25.7544C35.6365 25.6962 35.634 25.6389 35.6315 25.5823C35.6192 25.262 35.6068 24.9597 35.7057 24.6557L35.8919 24.0855L35.2896 24.1191ZM39.6839 26.7302C39.7564 26.7302 39.8157 26.7318 39.8701 26.7359C39.9031 26.7384 39.9344 26.7392 39.9649 26.7392C40.1947 26.7392 40.7303 26.6564 40.7369 25.8937V25.8576C40.7435 24.9613 40.6249 24.7975 39.7597 24.5074C39.6278 24.4632 39.4812 24.4222 39.3263 24.3862C39.0362 24.319 38.8434 24.2739 38.6753 24.2739C38.363 24.2739 38.1381 24.4427 38.0573 24.7368C38.0112 24.9048 38.0112 25.1121 38.0104 25.425C38.0095 25.9691 38.0087 26.2681 38.2427 26.5008C38.4767 26.7335 38.7783 26.7334 39.3271 26.7334C39.3889 26.7334 39.4515 26.7326 39.5133 26.731C39.5702 26.7302 39.627 26.7285 39.6847 26.7285L39.6839 26.7302ZM39.3164 20.5593C39.1054 20.5593 38.9687 20.6519 38.8912 20.7289C38.7602 20.86 38.6976 21.0427 38.6992 21.2876L38.7009 21.5342C38.7025 21.8382 38.705 22.152 38.6967 22.4576C38.6852 22.9008 38.9209 23.1974 39.3625 23.2908C39.529 23.326 39.6641 23.3612 39.7729 23.3899C39.9484 23.4358 40.0646 23.4653 40.1824 23.4653C40.3719 23.4653 40.4922 23.3842 40.5606 23.3162C40.7328 23.1433 40.732 22.9254 40.7295 22.5944C40.7295 22.501 40.7279 22.3904 40.7295 22.2601C40.7295 22.2429 40.7295 22.2192 40.7295 22.1962V22.1733C40.7295 22.0832 40.7295 22.0029 40.7295 21.93C40.7328 21.1795 40.7023 20.9329 40.0374 20.7485C39.9311 20.719 39.7984 20.6822 39.6303 20.6215C39.5158 20.5806 39.4136 20.5609 39.3156 20.5609L39.3164 20.5593ZM33.2486 20.8018C32.9355 20.9239 32.7534 21.1869 32.755 21.5219C32.755 21.9553 32.755 22.3904 32.7525 22.8254C32.7525 22.8967 32.7501 23.1187 32.9141 23.2834C32.9841 23.3539 33.1102 23.4383 33.3096 23.4383C33.3664 23.4383 33.4274 23.4317 33.4966 23.4178L33.5147 23.4137C34.7202 23.1712 34.8587 23.0049 34.8587 21.7989C34.8587 21.6711 34.8586 21.5604 34.8603 21.4646C34.8644 21.0459 34.8669 20.8149 34.684 20.6314C34.6147 20.5626 34.4936 20.4798 34.3058 20.4798C34.1509 20.4798 34.0017 20.5339 33.7545 20.6224C33.6375 20.6641 33.4925 20.7166 33.3195 20.7723C33.2947 20.7805 33.2708 20.7911 33.2486 20.8018ZM36.8041 20.1005C36.6492 20.1005 36.3599 20.1005 36.1498 20.3143C36.0147 20.4511 35.9488 20.6396 35.9529 20.8731C35.9603 21.3163 35.9595 21.6735 35.9496 21.998C35.9438 22.2028 35.9611 22.4625 36.1531 22.6599C36.2965 22.8082 36.4942 22.8811 36.7587 22.8836H36.7711C37.0562 22.8836 37.268 22.8058 37.4179 22.6468C37.6412 22.4092 37.6182 22.0823 37.6107 21.975C37.6074 21.9308 37.6058 21.8865 37.6058 21.8407H37.6099L37.6132 21.431C37.6132 21.3712 37.6116 21.3122 37.6099 21.2524C37.6066 21.1426 37.6033 21.0394 37.6149 20.9509C37.647 20.6994 37.5951 20.4937 37.4608 20.3405C37.254 20.1046 36.9384 20.1021 36.8345 20.1013L36.8041 20.1005ZM39.2678 16.5751C39.1137 16.5751 38.9728 16.6316 38.8698 16.7356C38.752 16.8544 38.6935 17.0232 38.6967 17.2362C38.7033 17.7073 38.7017 18.1784 38.6984 18.6167C38.6967 18.9117 38.8096 19.2935 39.36 19.436L39.3831 19.4418C39.6913 19.5212 39.8956 19.5737 40.0711 19.5737C40.3851 19.5737 40.6092 19.4 40.6875 19.0968C40.7312 18.9264 40.7312 18.7142 40.7303 18.3931V18.2661C40.7303 18.2071 40.7287 18.1481 40.727 18.0883C40.7246 17.9752 40.7213 17.8695 40.7303 17.7729C40.7822 17.2321 40.5013 16.8635 39.9574 16.7627C39.8643 16.7455 39.7605 16.707 39.6501 16.666C39.618 16.6537 39.585 16.6423 39.5529 16.63C39.449 16.5923 39.3568 16.5751 39.2678 16.5751ZM34.2341 16.5341C34.1813 16.5341 34.1269 16.539 34.0684 16.5497C33.0714 16.7217 32.7517 17.097 32.7525 18.094V18.2972C32.7525 18.6348 32.7526 18.8584 32.7962 19.0354C32.8737 19.3492 33.1003 19.5286 33.4183 19.5286C33.6078 19.5286 33.8188 19.4688 34.1682 19.3705L34.192 19.3639C34.2135 19.3574 34.2349 19.3508 34.2571 19.3459C34.6353 19.2681 34.8595 18.9871 34.8578 18.593C34.8554 18.1309 34.8562 17.6688 34.857 17.2067C34.8578 16.9954 34.7968 16.8258 34.6757 16.7053C34.5974 16.6275 34.4574 16.5341 34.2341 16.5341ZM36.7324 16.1073C36.4852 16.1073 36.2899 16.1785 36.1523 16.3186C35.9438 16.53 35.9496 16.8061 35.9529 17.0077C35.9554 17.1289 35.9545 17.2485 35.9537 17.369V17.5295C35.9537 17.6082 35.9545 17.6877 35.9562 17.7663C35.9587 17.9302 35.962 18.085 35.9521 18.2349C35.9364 18.466 35.9924 18.6528 36.1185 18.7904C36.3047 18.9944 36.5602 19.0026 36.7126 19.0075C36.748 19.0084 36.7843 19.01 36.8049 19.0125C36.8519 19.0198 36.898 19.0231 36.9417 19.0231C37.1757 19.0231 37.324 18.924 37.4072 18.8412C37.544 18.7052 37.6099 18.5168 37.6091 18.2653C37.6091 18.1719 37.6074 18.0785 37.6066 17.9859C37.6033 17.668 37.6 17.3403 37.6132 17.0224C37.6173 16.9143 37.6313 16.5824 37.4023 16.3448C37.2482 16.1851 37.0307 16.1073 36.7365 16.1073H36.7324ZM33.1744 8.95895C32.8391 8.95895 32.5672 8.97451 32.3727 9.17114C32.1741 9.37105 32.1782 9.62257 32.1824 9.94127C32.1832 10.0183 32.1848 10.1059 32.184 10.2051C32.184 10.2575 32.184 10.3059 32.1857 10.3542C32.1873 10.4525 32.1889 10.5451 32.1832 10.6328C32.1766 10.7319 32.1576 11.0342 32.3653 11.2538C32.4518 11.3455 32.6108 11.4553 32.8753 11.4553C32.9487 11.4553 33.0261 11.4471 33.1134 11.4307C33.2906 11.3972 33.434 11.3759 33.5493 11.3586C34.2382 11.2546 34.3857 11.0825 34.3766 10.3894C34.375 10.2755 34.3733 10.1346 34.3774 9.96094C34.3783 9.91424 34.3774 9.86999 34.3766 9.82575C34.3766 9.7897 34.375 9.75447 34.3766 9.71842C34.3832 9.4923 34.3206 9.30878 34.1888 9.17196C34.0989 9.07856 33.9341 8.96714 33.6565 8.96468L33.4793 8.96222C33.3639 8.96058 33.2626 8.95895 33.1744 8.95895ZM40.1189 8.9614C39.8487 8.9614 39.5685 8.9614 39.3708 9.15967C39.1755 9.35548 39.1771 9.60782 39.1788 9.95766C39.1788 10.042 39.1796 10.1395 39.1788 10.2501C39.1722 10.8818 39.2035 11.2726 39.9162 11.3406C39.9649 11.3455 40.0201 11.3505 40.0835 11.3586L40.1231 11.3636C40.348 11.3931 40.5103 11.4144 40.6504 11.4144C41.078 11.4144 41.2486 11.1809 41.317 10.985C41.3788 10.8064 41.3788 10.5967 41.3788 10.2501C41.3788 10.1363 41.3788 10.0265 41.3788 9.9167C41.3755 9.21292 41.2363 8.96304 40.4592 8.96304H40.1198L40.1189 8.9614ZM36.3715 8.95976C36.1317 8.95976 35.8598 8.95976 35.6628 9.15557C35.4618 9.3563 35.4626 9.60946 35.4634 10.0273C35.4634 10.1027 35.4634 10.1862 35.4634 10.2796C35.4634 10.3034 35.4634 10.3239 35.4651 10.3444C35.4651 10.3591 35.4667 10.3739 35.4651 10.3886C35.4519 10.6196 35.5129 10.8114 35.6464 10.9523C35.7329 11.044 35.8911 11.1522 36.149 11.1522C36.2042 11.1522 36.2627 11.1473 36.3237 11.1374C36.5396 11.1014 36.7085 11.0842 36.8576 11.0842C36.9672 11.0842 37.0653 11.0932 37.1584 11.1112C37.2449 11.1284 37.3232 11.1366 37.3965 11.1366C37.6486 11.1366 37.8044 11.0326 37.8901 10.9457C38.0771 10.7556 38.0969 10.4935 38.0928 10.287C38.0911 10.1789 38.0903 10.0838 38.0903 9.99944C38.0878 9.35466 38.0425 8.95895 37.1839 8.95895C37.1839 8.95895 36.9614 8.95976 36.9046 8.95976C36.8617 8.95976 36.8164 8.95976 36.7686 8.95976C36.7184 8.95976 36.6788 8.95976 36.6409 8.95976C36.5865 8.95976 36.3715 8.95976 36.3715 8.95976Z" fill="#8F0038"/>
</svg>
