<svg width="60" height="44" viewBox="0 0 60 44" fill="none" xmlns="http://www.w3.org/2000/svg">
<path d="M44.0101 44H15.9957C15.5688 44 15.2179 43.6452 15.2179 43.2135V17.9524C15.2179 17.5208 15.5688 17.166 15.9957 17.166H44.0101C44.4371 17.166 44.788 17.5208 44.788 17.9524V43.2135C44.788 43.6452 44.4371 44 44.0101 44ZM16.7736 42.4271H43.2323V18.733H16.7736V42.4271Z" fill="#E67716"/>
<path d="M35.6234 44C35.1964 44 34.8455 43.6452 34.8455 43.2135V33.3976C34.8455 29.2348 31.1843 26.562 29.9971 25.811C28.8098 26.5679 25.1486 29.2407 25.1486 33.3976V43.2135C25.1486 43.6452 24.7977 44 24.3708 44C23.9439 44 23.5929 43.6452 23.5929 43.2135V33.3976C23.5929 27.5022 29.383 24.3327 29.6286 24.1967C29.8567 24.0726 30.1316 24.0726 30.3597 24.1967C30.6053 24.3268 36.3953 27.5022 36.3953 33.3976V43.2135C36.3953 43.6452 36.0444 44 35.6175 44H35.6234Z" fill="#E67716"/>
<path d="M13.2586 44C12.8317 44 12.4807 43.6452 12.4807 43.2135V36.9692C12.4807 33.4745 9.45121 31.2039 8.38678 30.5179C7.32235 31.2098 4.29281 33.4804 4.29281 36.9692V43.2135C4.29281 43.6452 3.9419 44 3.51496 44C3.08802 44 2.7371 43.6452 2.7371 43.2135V36.9692C2.7371 31.7952 7.80777 29.0219 8.02417 28.9036C8.25226 28.7795 8.52714 28.7795 8.75523 28.9036C8.97163 29.0219 14.0423 31.7952 14.0423 36.9692V43.2135C14.0423 43.6452 13.6914 44 13.2644 44H13.2586Z" fill="#E67716"/>
<path d="M21.3413 44C20.9143 44 20.5634 43.6452 20.5634 43.2135V17.9524C20.5634 17.5208 20.9143 17.166 21.3413 17.166C21.7682 17.166 22.1191 17.5208 22.1191 17.9524V43.2135C22.1191 43.6452 21.7682 44 21.3413 44Z" fill="#E67716"/>
<path d="M21.3413 22.133H15.9899C15.5629 22.133 15.212 21.7783 15.212 21.3466C15.212 20.9149 15.5629 20.5601 15.9899 20.5601H21.3413C21.7682 20.5601 22.1191 20.9149 22.1191 21.3466C22.1191 21.7783 21.7682 22.133 21.3413 22.133Z" fill="#E67716"/>
<path d="M21.3413 39.3286H15.9899C15.5629 39.3286 15.212 38.9738 15.212 38.5421C15.212 38.1105 15.5629 37.7557 15.9899 37.7557H21.3413C21.7682 37.7557 22.1191 38.1105 22.1191 38.5421C22.1191 38.9738 21.7682 39.3286 21.3413 39.3286Z" fill="#E67716"/>
<path d="M38.6587 44C38.2318 44 37.8809 43.6452 37.8809 43.2135V17.9524C37.8809 17.5208 38.2318 17.166 38.6587 17.166C39.0857 17.166 39.4366 17.5208 39.4366 17.9524V43.2135C39.4366 43.6452 39.0857 44 38.6587 44Z" fill="#E67716"/>
<path d="M44.0101 22.133H38.6587C38.2318 22.133 37.8809 21.7783 37.8809 21.3466C37.8809 20.9149 38.2318 20.5601 38.6587 20.5601H44.0101C44.4371 20.5601 44.788 20.9149 44.788 21.3466C44.788 21.7783 44.4371 22.133 44.0101 22.133Z" fill="#E67716"/>
<path d="M44.0101 39.3286H38.6587C38.2318 39.3286 37.8809 38.9738 37.8809 38.5421C37.8809 38.1105 38.2318 37.7557 38.6587 37.7557H44.0101C44.4371 37.7557 44.788 38.1105 44.788 38.5421C44.788 38.9738 44.4371 39.3286 44.0101 39.3286Z" fill="#E67716"/>
<path d="M19.1481 18.733C18.7211 18.733 18.3702 18.3782 18.3702 17.9465V8.91708H16.7736V17.9465C16.7736 18.3782 16.4226 18.733 15.9957 18.733C15.5688 18.733 15.2179 18.3782 15.2179 17.9465V8.13062C15.2179 7.69896 15.5688 7.34417 15.9957 7.34417H19.1481C19.575 7.34417 19.9259 7.69896 19.9259 8.13062V17.9465C19.9259 18.3782 19.575 18.733 19.1481 18.733Z" fill="#E67716"/>
<path d="M44.0101 18.733C43.5832 18.733 43.2323 18.3782 43.2323 17.9465V8.91708H41.6356V17.9465C41.6356 18.3782 41.2847 18.733 40.8578 18.733C40.4308 18.733 40.0799 18.3782 40.0799 17.9465V8.13062C40.0799 7.69896 40.4308 7.34417 40.8578 7.34417H44.0101C44.4371 7.34417 44.788 7.69896 44.788 8.13062V17.9465C44.788 18.3782 44.4371 18.733 44.0101 18.733Z" fill="#E67716"/>
<path d="M40.8578 10.626H19.1481C18.7211 10.626 18.3702 10.2712 18.3702 9.83953C18.3702 9.40787 18.7211 9.05309 19.1481 9.05309H40.8578C41.2847 9.05309 41.6356 9.40787 41.6356 9.83953C41.6356 10.2712 41.2847 10.626 40.8578 10.626Z" fill="#E67716"/>
<path d="M40.8578 14.9899H19.1481C18.7211 14.9899 18.3702 14.6351 18.3702 14.2035C18.3702 13.7718 18.7211 13.417 19.1481 13.417H40.8578C41.2847 13.417 41.6356 13.7718 41.6356 14.2035C41.6356 14.6351 41.2847 14.9899 40.8578 14.9899Z" fill="#E67716"/>
<path d="M30.0029 18.733C29.576 18.733 29.2251 18.3782 29.2251 17.9465V14.2035C29.2251 13.7718 29.576 13.417 30.0029 13.417C30.4299 13.417 30.7808 13.7718 30.7808 14.2035V17.9465C30.7808 18.3782 30.4299 18.733 30.0029 18.733Z" fill="#E67716"/>
<path d="M26.9734 18.733C26.6693 18.733 26.3768 18.5497 26.254 18.2422L24.7392 14.4991C24.5755 14.097 24.7685 13.6358 25.1662 13.4761C25.5639 13.3106 26.0201 13.5057 26.178 13.9078L27.6928 17.6509C27.8565 18.0529 27.6635 18.5142 27.2658 18.6738C27.1722 18.7152 27.0728 18.733 26.9734 18.733Z" fill="#E67716"/>
<path d="M23.8152 18.733C23.5871 18.733 23.3648 18.6324 23.2128 18.4432L20.1891 14.7002C19.9201 14.3631 19.9669 13.8664 20.3002 13.5944C20.6336 13.3224 21.1249 13.3697 21.3939 13.7068L24.4176 17.4498C24.6866 17.7869 24.6398 18.2836 24.3065 18.5556C24.1603 18.6738 23.9906 18.733 23.8152 18.733Z" fill="#E67716"/>
<path d="M33.0266 18.733C32.9272 18.733 32.8278 18.7152 32.7342 18.6738C32.3365 18.5083 32.1435 18.0529 32.3072 17.6509L33.822 13.9078C33.9858 13.5057 34.4361 13.3106 34.8338 13.4761C35.2315 13.6417 35.4245 14.097 35.2607 14.4991L33.746 18.2422C33.6231 18.5497 33.3307 18.733 33.0266 18.733Z" fill="#E67716"/>
<path d="M36.1848 18.733C36.0093 18.733 35.8397 18.6738 35.6935 18.5556C35.3602 18.2836 35.3134 17.7869 35.5824 17.4498L38.6061 13.7068C38.8751 13.3697 39.3664 13.3224 39.6998 13.5944C40.0331 13.8664 40.0799 14.3631 39.8109 14.7002L36.7872 18.4432C36.6351 18.6324 36.4071 18.733 36.1848 18.733Z" fill="#E67716"/>
<path d="M19.1481 8.91708C18.7211 8.91708 18.3702 8.56229 18.3702 8.13062V6.20293C18.3702 5.75944 18.0134 5.39874 17.5748 5.39874C17.1362 5.39874 16.7794 5.75944 16.7794 6.20293V8.13062C16.7794 8.56229 16.4285 8.91708 16.0016 8.91708C15.5746 8.91708 15.2237 8.56229 15.2237 8.13062V6.20293C15.2237 4.8902 16.2823 3.82583 17.5748 3.82583C18.8673 3.82583 19.9259 4.89612 19.9259 6.20293V8.13062C19.9259 8.56229 19.575 8.91708 19.1481 8.91708Z" fill="#E67716"/>
<path d="M17.569 5.39874C17.142 5.39874 16.7911 5.04395 16.7911 4.61228V0.786454C16.7911 0.354792 17.142 0 17.569 0C17.9959 0 18.3468 0.354792 18.3468 0.786454V4.61228C18.3468 5.04395 17.9959 5.39874 17.569 5.39874Z" fill="#E67716"/>
<path d="M44.0101 8.91708C43.5832 8.91708 43.2323 8.56229 43.2323 8.13062V6.20293C43.2323 5.75944 42.8755 5.39874 42.431 5.39874C41.9865 5.39874 41.6356 5.75944 41.6356 6.20293V8.13062C41.6356 8.56229 41.2847 8.91708 40.8578 8.91708C40.4308 8.91708 40.0799 8.56229 40.0799 8.13062V6.20293C40.0799 4.8902 41.1385 3.82583 42.431 3.82583C43.7235 3.82583 44.7821 4.89612 44.7821 6.20293V8.13062C44.7821 8.56229 44.4312 8.91708 44.0043 8.91708H44.0101Z" fill="#E67716"/>
<path d="M42.431 5.39874C42.0041 5.39874 41.6532 5.04395 41.6532 4.61228V0.786454C41.6532 0.354792 42.0041 0 42.431 0C42.858 0 43.2089 0.354792 43.2089 0.786454V4.61228C43.2089 5.04395 42.858 5.39874 42.431 5.39874Z" fill="#E67716"/>
<path d="M15.9957 44L0.777846 44C0.350904 44 0 43.6452 0 43.2135V24.4096C0 23.9779 0.350904 23.6232 0.777846 23.6232H15.9957C16.4226 23.6232 16.7736 23.9779 16.7736 24.4096C16.7736 24.8413 16.4226 25.1961 15.9957 25.1961H1.5557V42.4271H15.9957C16.4226 42.4271 16.7736 42.7819 16.7736 43.2135C16.7736 43.6452 16.4226 44 15.9957 44Z" fill="#E67716"/>
<path d="M15.9957 28.2532H0.777846C0.350904 28.2532 0 27.8984 0 27.4667C0 27.0351 0.350904 26.6803 0.777846 26.6803H15.9957C16.4226 26.6803 16.7736 27.0351 16.7736 27.4667C16.7736 27.8984 16.4226 28.2532 15.9957 28.2532Z" fill="#E67716"/>
<path d="M2.14055 25.1961C1.71361 25.1961 1.3627 24.8413 1.3627 24.4096V17.9465C1.3627 17.5148 1.71361 17.1601 2.14055 17.1601H15.9957C16.4226 17.1601 16.7736 17.5148 16.7736 17.9465C16.7736 18.3782 16.4226 18.733 15.9957 18.733H2.91841V24.4096C2.91841 24.8413 2.56749 25.1961 2.14055 25.1961Z" fill="#E67716"/>
<path d="M11.6736 44C11.2467 44 10.8958 43.6452 10.8958 43.2135C10.8958 38.7313 9.99512 37.8148 9.884 37.7202C9.60327 37.596 9.41612 37.3181 9.41612 36.9988C9.41612 35.9167 8.78448 35.2721 8.38678 34.9706C7.98323 35.2721 7.35743 35.9108 7.35743 36.9988C7.35743 37.3122 7.17029 37.596 6.88956 37.7202C6.77844 37.8148 5.87776 38.7313 5.87776 43.2135C5.87776 43.6452 5.52685 44 5.0999 44C4.67296 44 4.32206 43.6452 4.32206 43.2135C4.32206 38.82 5.15255 37.1762 5.81928 36.5671C6.04152 34.2965 7.97738 33.3799 8.06511 33.3385C8.26981 33.2439 8.50375 33.2439 8.70845 33.3385C8.79618 33.3799 10.7262 34.2965 10.9484 36.5671C11.6152 37.1762 12.4457 38.82 12.4457 43.2135C12.4457 43.6452 12.0947 44 11.6678 44H11.6736Z" fill="#E67716"/>
<path d="M15.9957 21.1396H2.14055C1.71361 21.1396 1.3627 20.7848 1.3627 20.3532C1.3627 19.9215 1.71361 19.5667 2.14055 19.5667H15.9957C16.4226 19.5667 16.7736 19.9215 16.7736 20.3532C16.7736 20.7848 16.4226 21.1396 15.9957 21.1396Z" fill="#E67716"/>
<path d="M56.4909 44C56.0639 44 55.713 43.6452 55.713 43.2135V36.9692C55.713 33.4745 52.6835 31.2039 51.6191 30.5179C50.5546 31.2098 47.5251 33.4804 47.5251 36.9692V43.2135C47.5251 43.6452 47.1742 44 46.7472 44C46.3203 44 45.9694 43.6452 45.9694 43.2135V36.9692C45.9694 31.7952 51.0401 29.0219 51.2564 28.9036C51.4845 28.7795 51.7594 28.7795 51.9875 28.9036C52.2039 29.0219 57.2746 31.7952 57.2746 36.9692V43.2135C57.2746 43.6452 56.9237 44 56.4967 44H56.4909Z" fill="#E67716"/>
<path d="M59.2221 44H44.0043C43.5773 44 43.2264 43.6452 43.2264 43.2135C43.2264 42.7819 43.5773 42.4271 44.0043 42.4271H58.4443V25.1961H44.0043C43.5773 25.1961 43.2264 24.8413 43.2264 24.4096C43.2264 23.9779 43.5773 23.6232 44.0043 23.6232H59.2221C59.6491 23.6232 60 23.9779 60 24.4096V43.2135C60 43.6452 59.6491 44 59.2221 44Z" fill="#E67716"/>
<path d="M59.2221 28.2532H44.0043C43.5773 28.2532 43.2264 27.8984 43.2264 27.4667C43.2264 27.0351 43.5773 26.6803 44.0043 26.6803H59.2221C59.6491 26.6803 60 27.0351 60 27.4667C60 27.8984 59.6491 28.2532 59.2221 28.2532Z" fill="#E67716"/>
<path d="M57.8594 25.1961C57.4325 25.1961 57.0816 24.8413 57.0816 24.4096V18.733H44.0043C43.5773 18.733 43.2264 18.3782 43.2264 17.9465C43.2264 17.5148 43.5773 17.1601 44.0043 17.1601H57.8594C58.2864 17.1601 58.6373 17.5148 58.6373 17.9465V24.4096C58.6373 24.8413 58.2864 25.1961 57.8594 25.1961Z" fill="#E67716"/>
<path d="M54.9001 44C54.4731 44 54.1222 43.6452 54.1222 43.2135C54.1222 38.7313 53.2216 37.8148 53.1104 37.7202C52.8297 37.596 52.6425 37.3181 52.6425 36.9988C52.6425 35.9167 52.0109 35.2721 51.6132 34.9706C51.2097 35.2721 50.5839 35.9108 50.5839 36.9988C50.5839 37.3122 50.3967 37.596 50.116 37.7202C50.0049 37.8148 49.1042 38.7313 49.1042 43.2135C49.1042 43.6452 48.7533 44 48.3264 44C47.8994 44 47.5485 43.6452 47.5485 43.2135C47.5485 38.82 48.379 37.1762 49.0457 36.5671C49.268 34.2965 51.2038 33.3799 51.2915 33.3385C51.4962 33.2439 51.7302 33.2439 51.9349 33.3385C52.0226 33.3799 53.9526 34.2965 54.1749 36.5671C54.8416 37.1762 55.6721 38.82 55.6721 43.2135C55.6721 43.6452 55.3212 44 54.8942 44H54.9001Z" fill="#E67716"/>
<path d="M57.8594 21.1396H44.0043C43.5773 21.1396 43.2264 20.7848 43.2264 20.3532C43.2264 19.9215 43.5773 19.5667 44.0043 19.5667H57.8594C58.2864 19.5667 58.6373 19.9215 58.6373 20.3532C58.6373 20.7848 58.2864 21.1396 57.8594 21.1396Z" fill="#E67716"/>
<path d="M38.6587 23.0259H21.3413C20.9143 23.0259 20.5634 22.6711 20.5634 22.2395C20.5634 21.8078 20.9143 21.453 21.3413 21.453H38.6587C39.0857 21.453 39.4366 21.8078 39.4366 22.2395C39.4366 22.6711 39.0857 23.0259 38.6587 23.0259Z" fill="#E67716"/>
</svg>
