<svg width="38" height="44" viewBox="0 0 38 44" fill="none" xmlns="http://www.w3.org/2000/svg">
<path d="M21.1768 1.73325H18.8238V0.649489H21.1768V1.73325ZM19.1762 1.38737H20.8244V0.995371H19.1762V1.38737Z" fill="#CC8229"/>
<path d="M21.1768 3.17827H18.8238V2.09451H21.1768V3.17827ZM19.1762 2.83239H20.8244V2.44039H19.1762V2.83239Z" fill="#CC8229"/>
<path d="M38 26.8097H0V23.6891H38V26.8097ZM0.783021 26.0411H37.217V24.4577H0.783021V26.0411Z" fill="#CC8229"/>
<path d="M9.4354 28.7505H0.571605V26.2409H9.4354V28.7505ZM1.35463 27.9818H8.65238V27.0095H1.35463V27.9818Z" fill="#CC8229"/>
<path d="M1.51515 30.4914V27.9818H9.43932V30.4914H1.51515ZM2.29425 29.7228H8.65238V28.7505H2.29817V29.7228H2.29425Z" fill="#CC8229"/>
<path d="M25.4795 30.4914H11.9019V27.9818H25.4795V30.4914ZM12.6849 29.7228H24.6965V28.7505H12.6849V29.7228Z" fill="#CC8229"/>
<path d="M26.5757 28.7505H10.8096V26.2409H26.5757V28.7505ZM11.5926 27.9818H25.7927V27.0095H11.5926V27.9818Z" fill="#CC8229"/>
<path d="M24.0074 32.3822H13.374V29.8727H24.0074V32.3822ZM14.157 31.6136H23.2244V30.6413H14.157V31.6136Z" fill="#CC8229"/>
<path d="M22.7781 33.5582H14.6073V31.6136H22.7781V33.5582ZM15.3903 32.7896H21.9951V32.3822H15.3903V32.7896Z" fill="#CC8229"/>
<path d="M21.5448 34.8188H15.8366V32.8741H21.5448V34.8188ZM16.6196 34.0501H20.7618V33.6428H16.6196V34.0501Z" fill="#CC8229"/>
<path d="M9.4354 32.2323H2.45477V29.7228H9.4354V32.2323ZM3.23779 31.4637H8.65238V30.4914H3.23779V31.4637Z" fill="#CC8229"/>
<path d="M9.4354 33.9733H3.3944V31.4637H9.4354V33.9733ZM4.17742 33.2046H8.65238V32.2323H4.17742V33.2046Z" fill="#CC8229"/>
<path d="M9.4354 35.7142H5.74737V33.2046H9.4354V35.7142ZM6.53039 34.9456H8.65238V33.9733H6.53039V34.9456Z" fill="#CC8229"/>
<path d="M9.4354 37.4552H7.15681V34.9456H9.4354V37.4552ZM7.93983 36.6865H8.65238V35.7142H7.93983V36.6865Z" fill="#CC8229"/>
<path d="M28.9013 44H9.0987V23.6891H28.9013V44ZM9.88172 43.2314H28.1183V24.4577H9.88172V43.2314Z" fill="#CC8229"/>
<path d="M37.1857 28.7505H28.3219V26.2409H37.1857V28.7505ZM29.1049 27.9818H36.4026V27.0095H29.1049V27.9818Z" fill="#CC8229"/>
<path d="M36.246 30.4914H28.3219V27.9818H36.246V30.4914ZM29.1049 29.7228H35.463V28.7505H29.1049V29.7228Z" fill="#CC8229"/>
<path d="M35.3025 32.2323H28.3219V29.7228H35.3025V32.2323ZM29.1049 31.4637H34.5195V30.4914H29.1049V31.4637Z" fill="#CC8229"/>
<path d="M34.3629 33.9733H28.3219V31.4637H34.3629V33.9733ZM29.1049 33.2046H33.5798V32.2323H29.1049V33.2046Z" fill="#CC8229"/>
<path d="M32.0138 35.7142H28.3258V33.2046H32.0138V35.7142ZM29.1088 34.9456H31.2308V33.9733H29.1088V34.9456Z" fill="#CC8229"/>
<path d="M30.6005 37.4552H28.3219V34.9456H30.6005V37.4552ZM29.1049 36.6865H29.8174V35.7142H29.1049V36.6865Z" fill="#CC8229"/>
<path d="M29.7313 23.3355H7.65403V19.4962H29.7313V23.3355ZM8.43705 22.5669H28.9483V20.2648H8.43705V22.5669Z" fill="#CC8229"/>
<path d="M28.9365 22.9512H8.44879V24.058H28.9365V22.9512Z" fill="#CC8229"/>
<path d="M23.1344 43.9155H14.4311V36.9017H23.1344V43.9155ZM15.2141 43.1468H22.3513V37.6704H15.2141V43.1468Z" fill="#CC8229"/>
<path d="M20.8988 9.19277C20.8988 9.19277 23.2401 10.0114 23.7725 7.56328C23.7725 7.56328 24.3324 10.3226 21.2903 10.2496" fill="#CC8229"/>
<path d="M21.2943 10.9375C21.2943 10.9375 23.6355 11.7561 24.1679 9.30806C24.1679 9.30806 24.7278 12.0674 21.6858 11.9944" fill="#CC8229"/>
<path d="M22.1477 12.3249C22.1477 12.3249 24.489 13.1435 25.0214 10.6954C25.0214 10.6954 25.5813 13.4548 22.5393 13.3818" fill="#CC8229"/>
<path d="M17.0738 9.19277C17.0738 9.19277 14.7325 10.0114 14.2001 7.56328C14.2001 7.56328 13.6402 10.3226 16.6823 10.2496" fill="#CC8229"/>
<path d="M16.6783 10.9375C16.6783 10.9375 14.3371 11.7561 13.8047 9.30806C13.8047 9.30806 13.2448 12.0674 16.2868 11.9944" fill="#CC8229"/>
<path d="M15.8249 12.3249C15.8249 12.3249 13.4836 13.1435 12.9512 10.6954C12.9512 10.6954 12.3913 13.4548 15.4333 13.3818" fill="#CC8229"/>
<path d="M19.2349 0H18.7651V7.56712H19.2349V0Z" fill="#CC8229"/>
<path d="M21.1768 4.62329H18.8238V3.53952H21.1768V4.62329ZM19.1762 4.2774H20.8244V3.88541H19.1762V4.2774Z" fill="#CC8229"/>
<path d="M8.69545 20.2418V19.892C8.69545 19.2964 8.91861 18.7199 9.34144 18.2203C9.34144 17.4978 9.61158 16.8022 10.1088 16.2526C10.148 15.7761 10.3359 15.3725 10.7078 14.9575C10.7509 14.6077 10.8996 14.2465 11.0993 14.0044V13.9775C11.0993 13.2281 11.7727 12.617 12.6027 12.617C13.4327 12.617 14.11 13.2281 14.11 13.9775V14.0044C14.1766 14.0851 14.2353 14.1735 14.2862 14.2734C14.4467 14.0197 14.6307 13.7815 14.8304 13.5624C14.8891 12.7438 15.2102 12.0521 15.864 11.3334C15.9306 10.73 16.1929 10.0805 16.5452 9.677V9.57708C16.5452 8.36265 17.6454 7.37112 19 7.37112C20.3546 7.37112 21.4548 8.35881 21.4548 9.57708V9.67316C21.8071 10.0767 22.0694 10.7146 22.136 11.3295C22.7898 12.0405 23.1109 12.7361 23.1696 13.5586C23.3771 13.7853 23.5611 14.0236 23.7177 14.2734C23.7686 14.1735 23.8312 14.0812 23.8939 14.0005V13.9736C23.8939 13.2242 24.5673 12.6132 25.3973 12.6132C26.2273 12.6132 26.9046 13.2242 26.9046 13.9736V14.0005C27.1082 14.2465 27.253 14.6039 27.2922 14.9536C27.6641 15.361 27.8521 15.7645 27.8951 16.2488C28.3923 16.8022 28.6625 17.4978 28.6625 18.2126C29.0814 18.7122 29.3006 19.2887 29.3006 19.8882V20.2379H8.69545V20.2418ZM28.5333 19.5423C28.455 19.1695 28.2592 18.8121 27.9538 18.5085C27.8481 18.4048 27.7307 18.3048 27.6015 18.2164C27.0064 17.7822 26.2234 17.5477 25.3934 17.5477C25.2368 17.5477 25.0841 17.5554 24.9392 17.5708C25.319 18.1857 25.5382 18.8621 25.5813 19.5423H28.5333ZM12.4148 19.5423C12.4539 18.8582 12.6771 18.1819 13.0608 17.5708C12.9159 17.5554 12.7632 17.5477 12.6066 17.5477C11.7805 17.5477 10.9975 17.786 10.3985 18.2164C10.2693 18.3087 10.1519 18.4086 10.0462 18.5124C9.74861 18.816 9.54894 19.1695 9.47064 19.5462H12.4187L12.4148 19.5423ZM24.5751 19.3117C24.489 18.7391 24.2502 18.1934 23.8626 17.6938C23.7999 17.6092 23.7334 17.5285 23.659 17.4517C23.6081 17.3902 23.5611 17.3402 23.5141 17.2941C23.3497 17.1327 23.2048 17.0097 23.06 16.9021C22.9934 16.8444 22.9425 16.806 22.8916 16.7676C22.8681 16.7522 22.8407 16.733 22.8133 16.7176C21.7641 15.9874 20.4173 15.5916 19.0039 15.5916C17.5906 15.5916 16.2555 15.9874 15.2141 16.7022C15.1789 16.7253 15.1554 16.7407 15.1319 16.756C15.0614 16.806 15.0105 16.8444 14.9557 16.8906C14.7834 17.0212 14.6307 17.1557 14.4976 17.2941C14.4467 17.344 14.3998 17.394 14.3567 17.444C14.2823 17.5247 14.2118 17.6054 14.157 17.6899C13.7616 18.1934 13.5228 18.7391 13.4366 19.3156H24.5869L24.5751 19.3117ZM25.3973 16.8444C26.2899 16.8444 27.1278 17.0712 27.809 17.4939C27.715 17.2211 27.5623 16.9597 27.3587 16.7291C27.2687 16.6254 27.1669 16.5255 27.0495 16.4332C26.5914 16.0643 26.008 15.8606 25.4012 15.8606C25.0606 15.8606 24.7239 15.9259 24.4185 16.0451C24.4655 16.3179 24.4929 16.5985 24.4929 16.8829V16.929C24.7904 16.8713 25.0958 16.8444 25.4012 16.8444H25.3973ZM12.6027 15.8606C11.9959 15.8606 11.4086 16.0643 10.9545 16.4294C10.837 16.5255 10.7352 16.6254 10.6491 16.7215C10.4455 16.952 10.2928 17.2095 10.1949 17.4862C10.8762 17.0673 11.7101 16.8406 12.6027 16.8406C12.912 16.8406 13.2174 16.8675 13.511 16.9251V16.879C13.511 16.5946 13.5345 16.3141 13.5854 16.0412C13.28 15.9182 12.9512 15.8568 12.6027 15.8568V15.8606ZM19 12.6939C17.9233 12.6939 16.8819 13.0551 16.0715 13.7084C15.8718 13.866 15.6917 14.0351 15.5234 14.2311C15.1984 14.6001 14.944 15.0113 14.7717 15.4494C14.7208 15.5724 14.6738 15.7069 14.6386 15.8491C14.6386 15.8491 14.6073 15.9721 14.6073 15.9759C14.6464 15.9413 14.709 15.899 14.7717 15.8606C15.9423 15.0881 17.4457 14.6615 19 14.6615C20.5543 14.6615 22.0616 15.0881 23.244 15.8683C23.2949 15.9029 23.3458 15.9375 23.3927 15.9721L23.3614 15.8491C23.3262 15.7146 23.2831 15.5839 23.2283 15.4609C23.06 15.019 22.8094 14.6077 22.4805 14.235C22.3083 14.039 22.1321 13.8699 21.9324 13.7161C21.122 13.059 20.0806 12.7015 18.9961 12.7015L19 12.6939ZM12.6027 14.8191C12.2308 14.8191 11.8706 14.9344 11.5652 15.1535C11.4439 15.2342 11.3421 15.3264 11.2559 15.434C11.2559 15.4379 11.2481 15.4417 11.2442 15.4455C11.667 15.2649 12.1329 15.1688 12.6027 15.1688C13.0021 15.1688 13.3975 15.238 13.7616 15.3687C13.7733 15.3379 13.7851 15.3072 13.7929 15.2764C13.7459 15.2342 13.6989 15.1996 13.6441 15.1611C13.3427 14.9382 12.9825 14.823 12.5988 14.823L12.6027 14.8191ZM25.3973 15.165C25.871 15.165 26.3291 15.2572 26.7519 15.4379C26.6619 15.3264 26.5562 15.2342 26.4426 15.1573C26.1411 14.9344 25.7849 14.823 25.4012 14.823C25.0175 14.823 24.6691 14.9382 24.3637 15.1573C24.305 15.1957 24.2541 15.2342 24.2071 15.2764C24.2188 15.3072 24.2306 15.3379 24.2423 15.3687C24.6103 15.238 25.0019 15.1688 25.4012 15.1688L25.3973 15.165ZM25.3973 14.0351C25.1741 14.0351 24.9549 14.0928 24.7669 14.1965C24.9705 14.1427 25.182 14.1158 25.3973 14.1158C25.6126 14.1158 25.8201 14.1427 26.0237 14.1927C25.8358 14.0889 25.6165 14.0313 25.3973 14.0313V14.0351ZM12.6027 14.0351C12.3796 14.0351 12.1603 14.0928 11.9724 14.1965C12.176 14.1427 12.3874 14.1158 12.6027 14.1158C12.8181 14.1158 13.0256 14.1427 13.2291 14.1927C13.0412 14.0889 12.822 14.0313 12.6027 14.0313V14.0351ZM25.3973 13.3357C25.4834 13.3357 25.5695 13.3395 25.6518 13.351C25.5735 13.328 25.4873 13.3126 25.3973 13.3126C25.3072 13.3126 25.225 13.3241 25.1467 13.351C25.2289 13.3395 25.3111 13.3357 25.3973 13.3357ZM12.6027 13.3357C12.6889 13.3357 12.775 13.3395 12.8572 13.351C12.7789 13.328 12.6928 13.3126 12.6027 13.3126C12.5127 13.3126 12.4305 13.3241 12.3522 13.351C12.4344 13.3395 12.5166 13.3357 12.6027 13.3357ZM19 10.8953C18.3227 10.8953 17.6767 11.1028 17.1247 11.491C16.9211 11.6332 16.7332 11.8023 16.5609 12.0021C16.4004 12.1866 16.2594 12.3441 16.1498 12.5132C17.0072 12.029 17.9977 11.7638 19 11.7638C20.0023 11.7638 20.985 12.0175 21.8424 12.5017C21.7327 12.3403 21.5996 12.1866 21.4391 12.0021C21.2786 11.8023 21.0907 11.6332 20.8793 11.491C20.3311 11.099 19.6851 10.8914 19 10.8914V10.8953ZM19 9.54249C18.4793 9.54249 17.9782 9.70391 17.5866 9.99983C17.5005 10.0652 17.4105 10.1689 17.3165 10.3073C17.845 10.0805 18.4166 9.96139 19 9.96139C19.5834 9.96139 20.155 10.0805 20.6835 10.3073C20.6013 10.1843 20.5073 10.0728 20.4094 10.0037C20.0062 9.70006 19.5168 9.54249 18.9961 9.54249H19ZM19 8.30116C18.5263 8.30116 18.0917 8.50485 17.8216 8.81998C18.1935 8.68548 18.5928 8.61246 19 8.61246C19.4072 8.61246 19.8104 8.68163 20.1784 8.81614C19.9083 8.49716 19.4776 8.29732 19 8.29732V8.30116Z" fill="#CC8229"/>
</svg>
