<svg width="79" height="44" viewBox="0 0 79 44" fill="none" xmlns="http://www.w3.org/2000/svg">
<path d="M76.9548 25.8506C76.579 26.3938 76.1508 26.4027 75.6351 26.3671C74.5863 26.2959 73.7123 25.8328 73.2491 24.88C72.8034 23.9539 72.4712 22.9476 72.1828 21.9503C71.4836 19.4658 70.9942 16.9012 70.1289 14.4791C68.6431 10.3205 65.8726 7.31063 61.756 5.68103C58.933 4.55902 55.9702 4.23844 52.9811 4.21173C46.6621 4.14939 40.413 5.05769 34.1639 5.87694C31.1749 6.26876 28.2732 6.18861 25.4414 5.02207C23.7022 4.30078 21.9629 3.59729 20.2149 2.90271C18.3708 2.1636 16.5092 1.46012 14.499 1.40669C13.9047 1.38888 13.5201 1.2464 13.1618 0.738822C12.5587 -0.116047 12.0605 -0.196191 11.1778 0.329197C10.6272 0.658678 10.0328 0.988159 9.62207 1.46902C9.02775 2.17251 8.30233 2.48418 7.45456 2.67118C5.31326 3.13424 3.65267 4.35421 2.74371 6.37562C1.73861 8.59293 0.908314 10.8993 0.069276 13.2057C-0.0705636 13.5797 0.00809613 14.2119 0.244076 14.5058C1.21421 15.6901 2.18435 16.9012 3.33803 17.8896C5.12972 19.4302 6.1086 19.2076 7.55944 17.7739C8.45965 16.8745 9.57837 16.3224 10.8806 16.3313C11.9207 16.3402 12.9695 16.4292 14.1319 16.4916C14.4291 17.6403 14.8224 18.8336 15.0409 20.0624C16.1334 26.0554 15.0321 31.7813 12.8733 37.3557C12.7772 37.614 12.4626 37.8811 12.1916 37.9613C11.2215 38.2462 10.4786 38.7983 9.98915 39.6799C9.57837 40.4279 9.20255 41.2115 8.84421 41.9952C8.31107 43.1617 8.80051 43.9631 10.0678 43.981C11.5623 44.0077 13.0569 44.0077 14.5427 43.972C14.901 43.9631 15.3118 43.8207 15.609 43.607C16.212 43.1706 16.7801 42.663 17.322 42.1376C19.3846 40.134 21.019 37.7832 22.4524 35.2898C23.4487 33.5533 24.3664 31.7724 25.3802 29.8934C26.3591 32.6985 27.3118 35.4145 28.1945 37.9434C27.574 38.6736 27.0059 39.2436 26.5689 39.9025C26.1231 40.5704 25.7998 41.3184 25.4414 42.0486C24.8996 43.1439 25.3977 43.9721 26.6301 43.9899C28.3256 44.0077 30.0299 43.9899 31.7255 43.9988C32.4596 43.9988 32.9316 43.696 33.2113 42.9925C33.8231 41.4698 34.4786 39.9559 35.0904 38.4332C35.2215 38.1126 35.2739 37.7119 35.2302 37.3646C34.9855 35.548 34.6883 33.7403 34.4086 31.9326C34.1989 30.5257 33.9979 29.1098 33.7881 27.6316C38.9796 27.1062 43.9877 26.1445 48.8209 24.2923C49.4152 28.8605 50.0008 33.3396 50.5951 37.8633C49.0131 38.0592 48.078 39.0298 47.37 40.33C47.0816 40.8553 46.7582 41.3629 46.4611 41.8794C45.7444 43.1261 46.2164 43.981 47.641 43.9899C49.3365 43.9988 51.0408 43.972 52.7364 43.9988C53.5055 44.0077 54.0561 43.7227 54.4756 43.0638C54.834 42.4938 55.201 41.9061 55.6555 41.4074C56.9578 39.9559 57.4035 38.2818 57.4123 36.3228C57.4297 34.5151 57.8056 32.6985 58.0415 30.8284C58.0415 30.8284 58.0503 30.8284 58.059 30.8284C58.1202 30.8462 58.1989 30.8819 58.26 30.8997C58.4523 30.9709 58.6446 31.0422 58.8544 31.1134C61.1355 32.6005 62.665 34.5151 63.2943 37.1687C63.4428 37.7921 63.3991 38.1126 62.7961 38.4777C62.2629 38.8072 61.8259 39.4127 61.52 39.9916C61.1704 40.6505 60.9782 41.3985 60.7509 42.1198C60.3839 43.2864 60.8471 43.9631 62.0619 43.972C63.9148 43.9899 65.7677 43.9899 67.6206 43.972C68.6256 43.972 69.0189 43.5713 69.1151 42.574C69.4822 38.5579 69.8318 34.5329 70.2425 30.5257C70.3299 29.6975 70.1202 29.0742 69.6482 28.4241C67.9876 26.1445 66.6766 23.6333 66.2309 20.855C65.7152 17.667 65.6104 14.4078 65.3307 11.1843C65.4181 11.1575 65.5142 11.1397 65.6016 11.113C66.0124 11.7096 66.4581 12.2796 66.8427 12.894C68.3372 15.2805 68.9578 17.9787 69.587 20.6858C69.9454 22.2085 70.2775 23.758 70.8456 25.2005C71.8332 27.7295 74.0444 28.994 76.5266 28.718C77.6628 28.5933 78.5455 28.1392 79 27.0171V26.2335C78.3183 25.3163 77.4967 25.1204 76.9985 25.8506H76.9548ZM52.6839 6.58933C54.4669 6.61605 56.2586 6.81195 58.0328 7.10582C57.8755 7.48873 57.6832 7.8004 57.4997 7.88945C57.2549 8.00521 56.346 8.10316 55.6905 8.1655C53.8201 8.36141 51.8973 8.55731 51.1457 9.75057C50.9884 9.9999 50.866 10.1246 50.8048 10.178C50.6563 10.0711 50.2367 9.67933 49.6337 8.33469C49.3278 7.66682 49.0131 7.12363 48.6898 6.67838C50.0182 6.60714 51.3555 6.58043 52.6927 6.59824L52.6839 6.58933ZM37.1967 7.85383C37.1443 7.90726 37.0656 7.96069 36.9782 7.9874L36.952 7.88054C37.0394 7.87164 37.118 7.86273 37.2054 7.84492L37.1967 7.85383ZM34.2513 8.21893C34.5397 8.18331 34.8282 8.14769 35.1253 8.11207C35.1253 8.82446 35.2564 9.61699 35.3788 10.3383C35.4749 10.8993 35.6148 11.7542 35.6148 12.2617C34.767 11.8788 33.0365 10.3828 31.236 8.52169C32.2411 8.48607 33.2462 8.3525 34.2513 8.22783V8.21893ZM17.4618 20.6234C17.8376 20.8817 18.2484 21.1666 18.6505 21.4694C20.8355 23.1257 21.0802 23.9272 21.1064 24.0696C20.5558 24.8978 19.1836 25.815 18.0736 26.5541C17.9513 26.6342 17.8289 26.7144 17.7065 26.7945C17.8376 24.7642 17.7677 22.7072 17.4618 20.6234ZM32.5295 38.4243C32.2411 39.3148 31.8129 40.1608 31.4808 41.0334C31.3234 41.4609 31.1137 41.6479 30.6417 41.6212C29.8988 41.5766 29.1559 41.6123 28.3169 41.6123C28.5966 40.8197 28.9462 40.321 29.724 40.1786C30.8427 39.9738 31.1486 39.3593 30.7553 38.2373C29.6716 35.1117 28.5703 31.9861 27.4778 28.8516C27.3904 28.6111 27.3205 28.3618 27.2156 28.0145C28.649 27.9433 30.0212 27.8809 31.4371 27.8097C31.673 29.3591 31.909 30.8552 32.1362 32.3512C32.3547 33.8027 32.617 35.2453 32.7655 36.6968C32.8267 37.2578 32.7218 37.8811 32.5383 38.4243H32.5295ZM58.8456 27.8275C58.8194 27.9611 58.7932 28.0946 58.7669 28.2371C57.2462 27.1863 55.7167 26.1534 54.2309 25.0581C53.724 24.6841 53.2258 24.2655 52.7888 23.7936C53.3307 23.8381 53.9163 23.9004 54.5106 23.9806C58.3737 24.4882 58.8456 25.2629 58.8456 25.2629C59.204 26.1712 59.0204 27.0171 58.8456 27.8275ZM54.9563 37.6674C54.9039 38.0592 54.7203 38.4421 54.5543 38.8161C54.4581 39.0298 54.2921 39.199 54.161 39.3949C53.019 41.0156 51.4545 41.7429 49.4676 41.5766C49.6949 40.5882 50.1406 40.2231 51.102 40.1964C51.3292 40.1964 51.5652 40.2053 51.7925 40.1964C52.7451 40.1251 53.1821 39.6087 53.051 38.638C52.7276 36.207 52.3606 33.776 52.0284 31.336C51.7837 29.5283 51.5565 27.7117 51.3292 25.8684C51.3992 25.9218 51.4691 25.9664 51.539 26.0198C51.7225 26.2691 52.2994 26.9014 54.7553 28.7269C55.1748 29.0386 55.5943 29.3502 55.9876 29.6263C55.9876 29.6441 55.9876 29.6619 55.9876 29.6797C55.6643 32.3512 55.3234 35.0137 54.9651 37.6763L54.9563 37.6674ZM67.3409 29.2167C67.7517 29.8133 67.9002 30.3921 67.8303 31.1134C67.4982 34.426 67.201 37.7386 66.9039 41.0513C66.8689 41.4787 66.7203 41.639 66.2921 41.6301C65.3394 41.6033 64.3868 41.6301 63.3817 41.6301C63.4865 40.8286 63.8449 40.3656 64.614 40.2142C65.6628 40.0094 65.9425 39.671 65.8289 38.5935C65.4793 35.1028 64.1158 32.1285 61.2753 30.027C61.1704 29.9469 61.0656 29.8756 60.9607 29.7955C60.9345 29.6352 60.8908 29.466 60.7946 29.279C60.7509 29.1365 60.8558 28.6378 60.9257 28.2994C61.1355 27.3288 61.4152 25.9931 60.8208 24.4703C60.3052 23.1435 58.4785 22.3421 54.9039 21.8523C53.3132 21.6386 51.8012 21.5495 50.9709 21.5139C50.3154 20.9529 49.5375 20.5967 48.7247 20.2672C44.2673 18.4417 39.6002 18.0855 34.8544 18.3794C34.129 18.4239 33.6832 18.9404 33.7094 19.5994C33.7357 20.2583 34.2076 20.7036 34.9505 20.7214C37.2142 20.7837 39.4866 20.7036 41.724 20.9262C43.5769 21.1132 45.3861 21.6475 47.2215 22.0304C47.204 22.1373 47.1865 22.2441 47.1603 22.3421C40.7539 24.6574 34.094 25.4143 27.1982 25.6458C27.7226 24.2922 28.1945 23.0367 28.7014 21.7989C28.7626 21.6564 29.0248 21.5763 29.2084 21.5139C29.4968 21.416 29.8202 21.3982 30.0998 21.2824C30.6767 21.0509 30.9389 20.5967 30.8165 19.9734C30.6942 19.3411 30.2572 18.9849 29.6541 19.0562C28.9199 19.1363 28.1596 19.261 27.4866 19.5638C27.1108 19.7329 26.8049 20.2494 26.6126 20.668C24.8908 24.4971 23.3001 28.3885 21.4647 32.1553C19.9265 35.3343 17.9513 38.2462 15.3992 40.7129C14.7262 41.3629 14.027 41.7636 13.0744 41.6123C12.6286 41.541 12.1654 41.6034 11.6934 41.6034C11.9294 40.5704 12.2615 40.232 13.188 40.1964C13.8872 40.1608 14.3329 39.858 14.6039 39.199C15.8974 36.0912 16.8588 32.9389 17.3657 29.7331C17.6628 29.4037 18.5805 28.7892 19.2186 28.3707C20.582 27.4713 22.1202 26.4472 22.8981 25.2184C23.2127 24.7286 23.3001 24.1409 23.1516 23.5264C22.566 21.0954 17.8027 18.2369 16.85 17.6937C16.649 17.017 16.4218 16.3402 16.1858 15.6634C16.0285 15.2093 16.0809 14.8976 16.3256 14.5147C16.6578 13.9893 16.9287 13.4194 17.1559 12.8406C17.4181 12.146 17.1385 11.5226 16.5441 11.2733C15.9411 11.024 15.373 11.2733 15.0321 11.9679C14.8923 12.2528 14.7961 12.5467 14.665 12.8317C14.2368 13.7667 13.5376 14.2653 12.5063 14.0872C9.81435 13.6242 7.54196 14.4613 5.59294 16.3491C5.5405 16.4025 5.46184 16.4292 5.20838 16.5895C4.32564 15.6456 3.40795 14.6839 2.51647 13.6865C2.42033 13.5797 2.42907 13.2858 2.49899 13.1255C3.19819 11.3 3.87991 9.46561 4.65776 7.66682C5.26082 6.28657 6.30088 5.34265 7.78668 5.00426C8.84421 6.05504 9.50845 5.89475 10.1902 4.55902C10.531 3.88225 11.0729 3.31233 11.5186 2.6979C11.6235 2.71571 11.7197 2.73352 11.8245 2.75133C12.0343 3.48153 12.2441 4.21173 12.4451 4.94193C12.6811 5.7968 13.2754 6.19752 13.9658 5.96599C14.499 5.78789 14.7524 5.39608 14.7437 4.83507C14.7437 4.50559 14.6825 4.1672 14.6476 3.78429C16.483 3.90896 18.1086 4.61245 19.7692 5.22688C22.4873 6.24204 25.2054 7.28391 27.9673 8.14769C28.011 8.15659 28.0547 8.1744 28.0984 8.18331L28.0634 8.21893C28.1159 8.28126 29.4531 9.804 31.035 11.3356C33.8231 14.0249 35.0991 14.5236 35.9119 14.5236C35.9993 14.5236 36.078 14.5236 36.1566 14.5058C36.6373 14.4523 37.0394 14.2119 37.3191 13.829C37.9746 12.9296 37.7473 11.5583 37.4764 9.96429C37.3628 9.31423 37.188 8.25455 37.2491 7.83602C40.0284 7.47982 42.8165 7.11472 45.6046 6.87429V6.901C45.6046 6.901 45.5871 6.901 45.5521 6.90991C45.5609 6.90991 46.6097 6.83867 47.6934 9.21627C48.279 10.5075 49.2229 12.2439 50.6737 12.3419C50.7174 12.3419 50.7699 12.3419 50.8136 12.3419C51.6002 12.3419 52.3081 11.861 52.9199 10.9082C53.2695 10.5609 55.0437 10.3828 55.9002 10.2938C56.9665 10.1869 57.8143 10.0979 58.3824 9.83071C59.2914 9.40328 59.807 8.44155 60.1042 7.6312C61.9396 8.49498 63.1457 10.3917 63.2243 12.5467C63.2768 14.0427 63.2243 15.5387 63.2855 17.0259C63.4865 21.4783 64.8587 25.5389 67.3496 29.1988L67.3409 29.2167Z" fill="#A45A23"/>
</svg>
