<svg width="47" height="44" viewBox="0 0 47 44" fill="none" xmlns="http://www.w3.org/2000/svg">
<path d="M10.2455 20.897C9.24594 21.5873 8.26344 22.1191 7.17871 22.4303C4.87295 23.0923 2.64103 22.815 0.465893 21.8815C-0.0395557 21.6665 -0.136102 21.2025 0.193292 20.699C0.977022 19.4938 2.02767 18.5773 3.31685 17.9379C3.77687 17.7059 3.77687 17.689 3.385 17.3495C1.91409 16.0878 0.840721 14.5432 0.125141 12.7553C-0.164498 12.0254 0.0399532 11.652 0.829362 11.5162C3.55538 11.0466 6.04855 11.5388 8.24072 13.2984C8.34863 13.3833 8.45085 13.5643 8.58715 13.5021C8.73481 13.4342 8.7121 13.2305 8.72913 13.0778C8.93359 11.4426 9.5299 9.97156 10.5181 8.65327C11.0179 7.97998 11.4835 7.97997 11.9947 8.64195C13.1873 10.2035 14.0335 11.9066 14.1073 13.9095C14.1187 14.2433 14.238 14.1924 14.4424 14.0679C15.1466 13.6322 15.8906 13.2928 16.68 13.0438C16.9413 12.9589 17.0094 12.8005 17.0094 12.5516C16.9981 11.5105 17.0208 10.4695 16.9981 9.4284C16.9867 8.93051 16.7255 8.4609 16.8561 7.94037C17.0208 7.28971 17.2877 6.68997 17.6512 6.12983C18.804 4.35325 20.309 2.92745 22.0355 1.72231C23.0634 1.00376 24.1311 0.358754 25.3749 0.081516C26.8458 -0.246643 27.6863 0.426649 27.692 1.90902C27.692 3.6743 27.6977 5.43957 27.692 7.20484C27.692 7.52734 27.7942 7.70274 28.1009 7.8555C30.2704 8.90222 32.0252 10.4412 33.3712 12.4328C33.9334 13.2701 34.3821 14.1584 33.9902 15.2221C33.9618 15.29 33.9789 15.3805 33.9789 15.4597C33.9789 16.9874 33.9789 18.5207 33.9789 20.1388C34.0754 19.9748 34.1379 19.8842 34.1833 19.7881C35.4611 17.2759 37.5284 15.7313 40.1919 14.9166C40.7314 14.7525 41.1006 15.0241 41.1858 15.6069C41.4016 17.0326 41.1517 18.3962 40.6179 19.7258C40.4134 20.235 40.4134 20.2407 40.9529 20.2407C42.8441 20.2407 44.6103 20.7273 46.2857 21.5816C47.1205 22.006 47.2171 22.436 46.6094 23.1319C45.0874 24.8802 43.2246 26.0514 40.8905 26.4022C40.4021 26.4757 39.9136 26.4305 39.4309 26.4644C39.3684 26.6341 39.4877 26.7134 39.5559 26.8095C40.5156 28.1901 41.0154 29.7347 41.1687 31.3981C41.2483 32.2694 40.8677 32.6033 40.0159 32.4222C37.8578 31.9583 35.9325 31.0813 34.5638 29.2594C34.3764 29.0105 34.2117 28.7502 33.9732 28.4051C33.9732 29.8761 33.9618 31.2397 33.9732 32.6033C33.9789 33.3275 33.9107 34.0517 34.0357 34.7759C34.1038 35.1833 34.206 35.5793 34.4048 35.9414C34.6036 36.3148 34.632 36.6656 34.4786 37.0673C34.1038 38.0349 33.9732 39.0476 33.9732 40.083C33.9732 40.6205 33.9846 41.158 33.9675 41.6899C33.9221 42.912 32.8885 43.9417 31.6618 43.9587C30.1908 43.9757 28.7086 44.0549 27.249 43.9248C26.4653 43.8569 25.7156 43.9191 24.9489 43.9417C23.2281 44.004 21.496 44.0379 19.7752 43.9304C18.8722 43.8738 18.009 43.8512 17.1003 43.9304C15.6407 44.0549 14.1585 43.97 12.6875 43.9587C11.2053 43.9474 10.2455 42.9912 10.2682 41.5201C10.2852 40.2641 10.2455 39.0307 9.68324 37.8708C9.55262 37.5992 9.62077 37.3502 9.77411 37.107C10.1489 36.5298 10.2682 35.8962 10.2625 35.2172C10.2455 33.0898 10.2512 30.9625 10.2625 28.8294C10.2625 28.2297 10.1489 27.6695 9.79683 27.1773C9.5583 26.8378 9.55262 26.5097 9.81386 26.1759C10.1205 25.7855 10.2284 25.3102 10.2398 24.8406C10.2682 23.5676 10.2512 22.2889 10.2512 20.9083L10.2455 20.897ZM21.4789 34.4251C22.3819 34.4251 23.2849 34.4251 24.1822 34.4251C24.6555 34.4251 24.8921 34.1969 24.8921 33.7405C24.8921 31.2057 24.8808 28.6653 24.8978 26.1306C24.8978 25.3724 24.7899 24.6595 24.3924 24.0032C24.2504 23.7712 24.2163 23.5223 24.3697 23.2903C24.8751 22.5095 24.9205 21.6382 24.9035 20.7442C24.8978 20.3878 24.7615 20.286 24.4208 20.286C22.4614 20.2973 20.4964 20.2916 18.5371 20.286C18.2475 20.286 18.1339 20.3482 18.2248 20.665C18.4292 21.3327 18.469 22.0229 18.4633 22.7189C18.4633 25.7741 18.4633 28.8351 18.4633 31.8904C18.4633 32.6033 18.4122 33.3105 18.202 33.9894C18.0998 34.3176 18.1736 34.4421 18.5371 34.4308C19.5196 34.4138 20.4964 34.4251 21.4789 34.4251ZM29.4639 35.8396C30.4294 35.8396 31.3948 35.8339 32.3546 35.8396C32.667 35.8396 32.7976 35.7604 32.6897 35.4266C32.5534 35.0022 32.5704 34.5552 32.5704 34.1139C32.5704 31.4377 32.5704 28.7615 32.5704 26.0797C32.5704 25.6214 32.5477 25.1631 32.684 24.7218C32.7692 24.4502 32.684 24.354 32.3944 24.3597C30.4521 24.3653 28.5041 24.3653 26.5618 24.3597C26.2836 24.3597 26.1416 24.4276 26.2268 24.7444C26.3631 25.2819 26.3631 25.8364 26.3631 26.3852C26.3631 28.9199 26.3631 31.4547 26.3631 33.9951C26.3631 34.4817 26.3744 34.9739 26.2495 35.4492C26.1643 35.766 26.2836 35.8396 26.5732 35.8339C27.5387 35.8283 28.5041 35.8339 29.4639 35.8339V35.8396ZM26.2324 4.91338C25.284 5.92049 24.3413 6.87668 23.2679 7.69142C21.9276 8.70985 20.5476 9.66604 18.8324 9.93762C18.486 9.99419 18.4633 10.2035 18.4633 10.4751C18.4633 12.3535 18.4633 14.2263 18.469 16.1048C18.469 16.8629 18.4122 17.6154 18.2248 18.3509C18.1225 18.7413 18.2248 18.8375 18.6223 18.8375C20.5078 18.8206 22.3876 18.8319 24.2731 18.8319C24.8978 18.8319 24.8978 18.8319 24.8978 18.1982C24.8978 15.1542 24.8978 12.1103 24.8978 9.0663C24.8978 8.30248 25.142 7.70274 25.9428 7.45945C26.1359 7.40287 26.2324 7.28405 26.2324 7.08037C26.2324 6.35615 26.2324 5.6376 26.2324 4.91338ZM26.3574 11.7934V12.4497C26.3574 14.9562 26.3574 17.4627 26.3574 19.9635C26.3574 20.8631 26.3971 21.7627 26.17 22.6397C26.1018 22.8999 26.1927 22.9735 26.4482 22.9735C28.4416 22.9678 30.435 22.9735 32.4284 22.9735C32.667 22.9735 32.7862 22.9112 32.7124 22.6397C32.5364 22.006 32.5761 21.361 32.5761 20.716C32.5761 19.2506 32.5761 17.7852 32.5761 16.3198C32.5761 16.0991 32.6102 15.8841 32.2751 15.8388C31.4119 15.7144 30.6565 15.324 29.9239 14.8713C28.6063 14.0622 27.4705 13.0495 26.3631 11.7934H26.3574ZM17.0094 30.4136C17.0094 29.4178 17.0037 28.6144 17.0094 27.8167C17.0094 27.5224 16.9185 27.3866 16.6062 27.3866C15.0387 27.398 13.4769 27.3923 11.9095 27.3866C11.6426 27.3866 11.5403 27.4659 11.6028 27.7544C11.7107 28.2806 11.7164 28.8181 11.7164 29.3499C11.7107 30.9568 11.7164 32.5636 11.7164 34.1705C11.7164 34.8947 11.7675 35.6246 11.6198 36.3375C11.5347 36.7449 11.671 36.8354 12.0401 36.8297C13.2725 36.8184 14.5049 36.8297 15.7373 36.8297C16.8106 36.8241 16.8618 36.9768 16.4415 35.8339C16.2541 35.3247 16.2257 34.8777 16.521 34.3968C16.7368 34.046 16.8334 33.6443 16.9072 33.2369C17.1003 32.2355 16.9469 31.2284 16.9981 30.4136H17.0094ZM21.3086 35.8226C20.5362 35.8226 19.7581 35.8226 18.9858 35.8226C18.026 35.8226 18.009 35.8226 18.202 36.7335C18.5087 38.165 18.4633 39.6134 18.469 41.0618C18.469 41.9445 18.9744 42.5272 19.8433 42.5442C21.4733 42.5838 23.0975 42.5555 24.7274 42.5612C24.966 42.5612 25.0852 42.4763 25.0057 42.2104C24.8694 41.7691 24.8751 41.3051 24.8921 40.8525C24.9546 39.5003 24.7956 38.182 24.3697 36.8976C24.2901 36.6543 24.2561 36.3941 24.3981 36.1677C24.6195 35.817 24.3981 35.8226 24.1425 35.8226C23.1941 35.8226 22.2456 35.8226 21.2972 35.8226H21.3086ZM16.8788 17.8304C16.8163 17.8248 16.7993 17.8134 16.7879 17.8248C16.6687 17.904 16.5494 17.9775 16.4358 18.0624C15.2148 18.9224 13.9597 19.7202 12.4831 20.0596C11.6994 20.2407 11.7278 20.1219 11.7107 21.0385C11.688 22.5208 11.8186 24.0032 11.5971 25.4743C11.5403 25.8703 11.671 25.9439 12.0117 25.9439C13.5167 25.9382 15.016 25.9326 16.521 25.9439C16.8902 25.9439 17.0265 25.8194 17.0151 25.4516C16.9981 24.4728 16.9924 23.494 17.0151 22.5208C17.0378 21.6325 16.8674 20.7952 16.4188 20.0257C16.2314 19.7088 16.2314 19.409 16.4188 19.0921C16.6403 18.7074 16.8163 18.3113 16.8788 17.8361V17.8304ZM29.4639 37.2371C28.436 37.2371 27.408 37.2371 26.3801 37.2371C26.1529 37.2371 25.9655 37.2427 26.0507 37.5709C26.3744 38.7874 26.3687 40.0321 26.3574 41.2768C26.3517 42.1934 26.7208 42.5555 27.6522 42.5612C28.7881 42.5669 29.9296 42.5612 31.0654 42.5612C32.2126 42.5612 32.5591 42.2104 32.5648 41.0618C32.5761 39.9303 32.4739 38.7874 32.7862 37.6784C32.8998 37.271 32.7294 37.2258 32.3944 37.2314C31.4119 37.2427 30.435 37.2314 29.4525 37.2314L29.4639 37.2371ZM14.238 38.2725C13.4145 38.2725 12.5967 38.2781 11.7732 38.2725C11.5006 38.2725 11.3927 38.3404 11.4722 38.6233C11.7278 39.5285 11.7164 40.4564 11.7164 41.3843C11.7164 42.2047 11.9322 42.5103 12.733 42.5386C14.1357 42.5895 15.5442 42.5555 16.9469 42.5612C17.2366 42.5612 17.3047 42.4254 17.2025 42.1651C17.0094 41.6729 16.9981 41.1524 17.0037 40.6318C17.0151 40.0321 16.9867 39.438 17.0094 38.8383C17.0264 38.4196 16.9129 38.2442 16.4529 38.2668C15.7146 38.3008 14.9706 38.2781 14.2266 38.2781L14.238 38.2725ZM2.95906 12.7949C2.7035 12.7949 2.45361 12.7949 2.19805 12.7949C1.84594 12.7836 1.74371 12.8911 1.92545 13.2362C3.05561 15.3522 4.65147 16.9648 6.90611 17.887C7.71824 18.2208 8.56444 18.4019 9.42768 18.5207C9.92177 18.5886 9.98424 18.5207 9.8025 18.0737C9.63781 17.6663 9.46743 17.2533 9.26298 16.8686C7.91133 14.3678 5.88953 12.8797 2.95906 12.7949ZM35.3703 23.4035C35.9212 23.7147 36.4493 23.9466 36.9037 24.2804C37.801 24.9537 38.846 25.0386 39.8796 25.0273C41.7764 25.0047 43.4007 24.2465 44.7921 22.9735C45.1442 22.651 45.1442 22.6114 44.6898 22.4303C43.0486 21.7683 41.3562 21.4798 39.5899 21.7231C38.0622 21.9324 36.6708 22.4812 35.376 23.4035H35.3703ZM18.7472 8.49485C18.7472 8.49485 18.8438 8.48353 18.9347 8.4609C19.2981 8.35906 19.6616 8.2459 20.0024 8.07616C22.24 6.95023 24.0459 5.33207 25.4941 3.30653C25.7611 2.93311 25.9882 2.53705 26.1416 2.10139C26.204 1.92034 26.2949 1.71666 26.17 1.55823C26.0223 1.37152 25.7781 1.44508 25.5907 1.496C25.2443 1.59784 24.8921 1.711 24.5684 1.86942C22.2968 2.99535 20.4624 4.63049 18.9971 6.68431C18.7018 7.09734 18.4406 7.533 18.3099 8.02524C18.2361 8.30813 18.2645 8.54577 18.7472 8.49485ZM34.5298 25.0782C34.7512 27.9355 36.4209 29.8818 39.2832 30.7475C39.7035 30.8776 39.6013 30.606 39.5502 30.391C38.9595 27.7714 37.3864 25.9609 34.9671 24.8349C34.6036 24.6652 34.4673 24.7444 34.5298 25.0782ZM10.1092 14.2546C10.1092 15.3409 10.1205 15.3749 10.5976 16.3311C10.7736 16.6819 10.9156 17.0496 11.0917 17.4061C11.1542 17.5362 11.1258 17.7682 11.3302 17.7682C11.4722 17.7682 11.529 17.5815 11.6085 17.4683C13.068 15.3353 13.0056 12.512 11.4665 10.3676C11.228 10.0395 11.1598 10.2658 11.0633 10.4468C10.4272 11.6406 10.0808 12.9024 10.1092 14.2546ZM26.7606 8.86261C26.4142 8.82866 26.3176 8.95314 26.4028 9.19643C26.4539 9.34353 26.505 9.4963 26.5902 9.62643C27.8794 11.6576 29.5945 13.2136 31.7867 14.2376C32.0423 14.3565 32.4114 14.5941 32.6102 14.3508C32.7976 14.1188 32.5136 13.7907 32.366 13.5417C31.162 11.5388 29.4185 10.1187 27.3512 9.0663C27.1411 8.9588 26.9083 8.90787 26.7663 8.85695L26.7606 8.86261ZM9.14372 19.9352C7.79775 19.6975 6.63351 19.3524 5.53174 18.8206C5.39544 18.7583 5.25346 18.764 5.11148 18.7979C3.93021 19.1035 2.93067 19.7032 2.08447 20.5745C1.84594 20.8178 1.92545 20.931 2.22077 21.0215C2.73757 21.1742 3.26574 21.2817 3.79959 21.3327C5.69644 21.5194 7.4286 21.0498 9.14372 19.9352ZM34.95 21.8419C35.0352 21.8871 35.1034 21.8419 35.1715 21.8079C36.154 21.2252 37.199 20.7952 38.3064 20.5123C38.4541 20.4727 38.562 20.3935 38.6472 20.269C39.3344 19.2958 39.7205 18.2152 39.7944 17.0213C39.8171 16.6705 39.7149 16.5574 39.3628 16.7215C37.2331 17.7003 35.7451 19.2562 34.9898 21.4854C34.95 21.5986 34.8705 21.7118 34.95 21.8419ZM12.7898 18.4019C14.1471 17.9266 15.3057 17.1515 16.4017 16.2632C16.8618 15.8898 17.0719 15.4824 17.0151 14.8883C16.981 14.5488 16.9356 14.4243 16.5778 14.5884C15.7032 14.9901 14.8513 15.4315 14.0789 16.0142C13.954 16.1104 13.812 16.1953 13.7552 16.3537C13.5053 17.0666 13.1476 17.7286 12.7841 18.3962L12.7898 18.4019Z" fill="#0B449C"/>
</svg>
