<svg width="56" height="44" viewBox="0 0 56 44" fill="none" xmlns="http://www.w3.org/2000/svg">
<path d="M50.846 43.9936H44.9806L44.9605 43.1749C44.9605 42.8807 44.9336 42.5353 44.853 42.2091C44.5507 41.0258 44.1005 39.9257 43.5093 38.8959C43.4555 39.8809 43.4287 40.7955 43.4287 41.6846C43.4287 42.1323 43.4152 42.4905 43.4018 42.7847C43.4018 42.9319 43.3883 43.0598 43.3883 43.1749L43.3749 44H36.9721L37.4491 42.9127C37.4491 42.8807 37.4424 42.8167 37.4223 42.7144C37.1132 40.8403 36.2734 39.0622 34.849 37.2713C34.4728 36.798 34.1839 36.4398 34.1839 36.0048C34.1839 35.9409 34.1839 35.8769 34.2041 35.8066C32.4169 36.5421 30.6634 36.8236 28.8494 36.6764L28.7889 38.2179C28.7351 39.657 28.6747 41.1026 28.6344 42.5417C28.6276 42.8423 28.6344 42.9382 28.6411 42.9638L28.883 43.9872L27.7811 44H23.1722L23.1251 43.2069C22.8161 40.6932 22.2987 38.736 20.7669 37.1945C20.3101 36.7404 19.7255 36.427 18.8118 36.1584C15.7549 35.2565 13.484 33.8302 11.8648 31.7962C9.15723 28.3999 9.1102 24.4471 9.31175 21.7671C9.38566 20.7885 9.54018 19.8163 9.69471 18.876C9.75518 18.4923 9.82237 18.1149 9.87611 17.7311C9.90299 17.5264 9.93658 17.3218 9.89627 17.245C8.95567 15.4669 7.79336 14.6482 6.13387 14.5906C5.73076 14.5778 5.32764 14.5459 4.93125 14.5203C4.65578 14.5011 4.38032 14.4819 4.10486 14.4691C2.95599 14.4051 1.41743 13.9062 0.611204 11.8979C0.221527 10.8873 0.11403 9.87668 0.0132516 8.89168V8.80213C-0.0606527 8.18171 0.140904 7.40778 1.48462 7.23508H1.5518C3.04333 7.03041 4.53485 6.64024 5.97934 6.06459C6.30855 5.93667 6.53027 5.77677 6.71839 5.54651C7.06103 5.11797 7.47087 4.68942 7.94116 4.27368C10.3061 2.15656 13.4168 2.10539 15.8624 4.15215C16.158 4.4016 16.4469 4.66384 16.7291 4.91969C17.0851 5.24589 17.4211 5.5529 17.7772 5.83433C19.8935 7.49732 22.8967 7.38219 24.9123 5.5529C24.9929 5.47615 25.0735 5.39939 25.1541 5.31625L25.2482 5.2203C26.041 4.42079 26.7868 4.63186 27.1563 4.83014C27.5056 5.01563 28.0767 5.48254 27.902 6.50592C27.593 8.34161 26.6524 9.78714 25.1138 10.7977C24.6637 11.0919 24.1934 11.3414 23.6962 11.5333C24.6032 11.4821 25.3288 11.674 26.0141 12.1345C28.6881 13.919 31.8391 15.9274 35.3596 17.1427C38.8063 18.326 42.0715 18.4667 45.3434 17.5712C46.9425 17.1299 48.3937 17.0595 49.771 17.3601C51.7395 17.7823 53.1504 18.8504 53.9567 20.5262C54.1649 20.9676 54.3531 21.2874 54.6218 21.5432C56.12 22.9887 56.4022 24.7796 55.4415 26.7241C54.9376 27.7411 54.1851 28.5598 53.5199 29.2889C53.1504 29.6919 52.7406 29.8838 52.2972 29.8518C51.8537 29.8198 51.4708 29.5767 51.155 29.1226C50.6041 28.3103 50.0532 27.3829 49.7508 26.3531C49.724 26.6537 49.6971 26.9543 49.6769 27.2486C49.3947 30.3507 49.724 32.6661 50.7452 34.7576C51.1349 35.5635 51.1416 36.3438 51.1147 37.0218C51.0744 37.9429 51.0408 38.8639 51.0072 39.7786C50.9669 40.9171 50.9199 42.0492 50.8728 43.1877L50.8392 43.9936H50.846ZM46.6603 42.3178H49.1529C49.1865 41.4543 49.2201 40.5845 49.2537 39.721C49.2873 38.7999 49.3208 37.8789 49.3612 36.9579C49.388 36.331 49.3612 35.8897 49.1529 35.4676C48.0107 33.1266 47.621 30.4722 47.9234 27.1078C48.1048 25.1059 48.2929 23.0399 47.1575 21.2554C46.8753 20.8013 46.8283 20.3919 47.0298 20.0273C47.2314 19.6628 47.621 19.4581 48.1921 19.4197C49.6635 19.3238 51.1281 20.0785 51.8067 21.313C51.9142 21.5048 52.2434 22.0933 51.8269 22.8096C50.9266 24.3575 51.1013 25.8606 52.4383 27.9265C52.9757 27.3317 53.5065 26.7113 53.8559 26.0141C54.5009 24.7093 54.3531 23.6667 53.3789 22.7265C52.875 22.2468 52.5928 21.6967 52.3644 21.2234C51.7866 20.0273 50.8124 19.2982 49.3947 18.9912C48.3131 18.7609 47.1507 18.8185 45.8406 19.183C42.2529 20.168 38.5241 20.0145 34.7684 18.7225C31.0463 17.4433 27.7811 15.3582 25.0131 13.5097C24.6167 13.241 24.2337 13.1643 23.629 13.2219C20.4847 13.5353 17.9787 13.1899 15.7885 12.1409C15.6205 12.9596 15.4189 13.8807 14.7807 14.7505L13.961 15.8698L12.9398 14.0661C12.6106 13.4777 12.3082 12.9468 12.0126 12.4095L11.9387 12.2752C11.5356 11.5589 11.0317 10.6634 11.2467 9.64003C11.4281 8.77015 11.1392 8.39918 9.84924 7.81713C9.6544 7.76596 9.08332 7.59966 8.8952 6.92807L8.62646 5.98144C8.43834 6.17333 8.27038 6.36521 8.12257 6.5507C7.73961 7.02401 7.27603 7.363 6.6512 7.60606C5.06562 8.23288 3.42629 8.66142 1.78695 8.87889H1.77352C1.86086 9.73597 1.95492 10.5419 2.25725 11.2838C2.65365 12.2688 3.2516 12.7294 4.21236 12.7805C4.49454 12.7933 4.78344 12.8189 5.06562 12.8381C5.44858 12.8637 5.83153 12.8893 6.21449 12.9084C8.52568 12.9916 10.2456 14.1621 11.4751 16.4775C11.764 17.0275 11.6901 17.5584 11.6297 17.9486C11.5692 18.3451 11.5087 18.7353 11.4415 19.1255C11.287 20.0721 11.1392 20.9676 11.072 21.8758C10.7831 25.7583 11.4617 28.5022 13.2757 30.7728C14.6665 32.519 16.6484 33.7534 19.3359 34.5465C20.1488 34.7896 21.1902 35.1734 22.0502 36.0304C23.9314 37.9237 24.4957 40.2199 24.7913 42.3114H26.8808C26.9211 40.9235 26.9749 39.5355 27.0286 38.1475L27.0891 36.5357C27.1025 36.2095 27.1227 35.6659 27.5863 35.2821C27.8886 35.0326 28.2984 34.9303 28.7956 34.9751C31.3957 35.2309 33.8883 34.4378 36.6429 32.4614C37.6305 31.7514 38.5174 31.7258 39.5184 32.391C43.2674 34.8791 45.5719 37.9493 46.5595 41.7933C46.6065 41.966 46.6401 42.1387 46.6603 42.305V42.3178ZM39.1422 42.3178H41.6617C41.6617 42.1259 41.6684 41.9149 41.6684 41.6782C41.6684 40.7252 41.702 39.753 41.7557 38.704C41.7557 38.6912 41.7557 38.672 41.7557 38.6592C41.7557 38.5313 41.7221 38.4098 41.5878 38.2307C40.6942 37.0474 39.6125 35.9984 38.383 35.1158C38.3561 35.0966 38.3293 35.0774 38.3024 35.0582C38.289 35.0518 38.2755 35.039 38.2688 35.0326C38.2218 35.0007 38.1882 34.9751 38.1613 34.9623C38.1411 34.9751 38.1143 34.9879 38.0874 35.0134C37.5902 35.3844 37.0124 35.7362 36.2667 36.1264C36.2398 36.1392 36.2129 36.152 36.186 36.1647C36.2062 36.1903 36.2263 36.2159 36.2465 36.2415C37.8186 38.2179 38.766 40.2007 39.1355 42.3114L39.1422 42.3178ZM49.1059 21.185C49.4283 21.8886 49.6232 22.605 49.724 23.3149C49.8382 22.912 50.0129 22.4962 50.248 22.0741C49.9927 21.6455 49.5761 21.3321 49.1059 21.185ZM13.0473 9.48012C13.0338 9.64002 13.0137 9.79993 12.9734 9.97262C12.8793 10.4076 13.1749 10.9384 13.4907 11.4949L13.5713 11.6356C13.699 11.8659 13.8266 12.0961 13.961 12.3264C14.008 12.1281 14.0483 11.9298 14.0887 11.7316L14.1357 11.5141C14.1827 11.2774 14.2902 10.7657 14.7336 10.4651C14.1357 10.1517 13.578 9.81272 13.054 9.48012H13.0473ZM9.00942 5.61686L10.0105 5.91748C11.3005 6.30125 12.3217 6.97284 13.3093 7.62525L13.7662 7.92586C15.3047 8.92366 17.1792 9.98541 19.3896 10.3244C21.2372 10.6058 22.7825 10.3116 24.1262 9.42895C25.1004 8.78934 25.7319 7.93866 26.041 6.85131C23.367 9.1923 19.4434 9.30743 16.6619 7.12635C16.252 6.80654 15.8758 6.46115 15.513 6.12855C15.2443 5.8855 14.9822 5.64245 14.7 5.40579C12.9599 3.94747 10.8302 3.98585 9.14379 5.49534C9.09676 5.54011 9.04973 5.57849 9.0027 5.62326L9.00942 5.61686Z" fill="#2C2C2C"/>
<path d="M16.2856 42.4138C16.037 42.4138 15.7213 42.3306 15.3853 42.0492C14.176 41.045 13.0204 40.5525 11.7506 40.4949C11.0384 40.4629 10.6555 39.9449 10.4673 39.6954C9.7619 38.7424 9.27816 37.7702 8.98254 36.7276C8.76755 35.9729 8.98926 35.2949 9.60737 34.8216C10.3464 34.2523 11.0586 33.5423 11.8581 32.6021C12.0664 32.3527 12.3956 31.9625 12.9599 31.9305C13.2152 31.9177 13.5848 31.9753 13.9476 32.3207C15.1703 33.4912 16.6887 34.2523 18.1467 34.9047L19.8733 35.6722L18.14 36.4206C17.6831 36.6189 17.2195 36.7724 16.7694 36.9195C16.6619 36.9515 16.5544 36.9898 16.4536 37.0218C16.9844 37.4184 17.1389 38.0836 17.2665 39.35C17.3203 39.9193 17.374 40.4885 17.4076 41.0578C17.4479 41.8957 16.9709 42.2091 16.7626 42.305C16.6686 42.3498 16.5073 42.4074 16.2991 42.4074L16.2856 42.4138ZM11.979 38.8319C13.2287 38.9151 14.4044 39.318 15.56 40.06C15.5466 39.8745 15.5264 39.6954 15.5063 39.5163C15.4525 38.979 15.3988 38.429 15.3114 38.3074C15.1905 38.2307 14.5388 38.1475 13.9073 38.058L11.7909 37.7766L13.5041 36.5549C14.1827 36.0752 14.9016 35.7746 15.5802 35.5379C14.7068 35.071 13.8468 34.5209 13.0607 33.8302C12.2478 34.7704 11.4953 35.4996 10.7159 36.1072C10.6756 36.1392 10.6622 36.1584 10.6555 36.1648C10.6555 36.1648 10.6555 36.2031 10.6756 36.2799C10.9175 37.1306 11.3206 37.9301 11.9051 38.7168C11.9253 38.7424 11.9589 38.7872 11.9857 38.8191L11.979 38.8319Z" fill="#2C2C2C"/>
<path d="M19.8666 7.91307C19.3224 7.91307 18.8723 7.71479 18.5968 7.59327C17.5487 7.13274 16.6283 6.42917 15.775 5.45056L14.5858 4.08179H16.4536C16.6283 4.08179 16.8097 4.08819 16.9844 4.10098C17.2934 4.11377 17.5823 4.13296 17.8107 4.08819C19.2956 3.80676 20.3302 2.9177 20.9752 1.36984C20.9953 1.31867 21.0155 1.2611 21.0357 1.20354C21.1432 0.883732 21.4791 -0.0948754 22.6616 0.00746257C23.8104 0.103404 24.0389 1.0948 24.1195 1.47218L24.1464 1.58731C24.7712 4.0754 23.0311 7.0496 20.4915 7.82992C20.2697 7.90028 20.0548 7.92586 19.8532 7.92586L19.8666 7.91307ZM18.5364 5.63605C18.7917 5.80235 19.0537 5.94946 19.3359 6.07099C19.6852 6.2245 19.833 6.26287 19.9607 6.2245C21.4992 5.75118 22.7019 3.81955 22.4936 2.2525C21.6672 4.05621 20.3369 5.19472 18.5364 5.64245V5.63605Z" fill="#2C2C2C"/>
</svg>
