<svg width="68" height="46" viewBox="0 0 68 46" fill="none" xmlns="http://www.w3.org/2000/svg">
<path d="M35.0022 45.0004H34.828L22.0552 44.7391C22.1749 44.6248 22.2955 44.512 22.4169 44.3984C22.8763 43.9691 23.3449 43.5307 23.8075 42.9744L23.8112 42.9701L23.8146 42.9658L27.9101 37.3564L27.9124 37.3531L27.9146 37.3499C27.9621 37.2785 28.004 37.215 28.0415 37.1581C28.1138 37.0488 28.1697 36.9641 28.2179 36.8949C28.2908 36.7907 28.3358 36.7377 28.3778 36.7017C28.4172 36.6678 28.4618 36.6422 28.546 36.6069C28.593 36.587 28.643 36.5679 28.7044 36.5445C28.7569 36.5243 28.8178 36.5012 28.8924 36.4717L39.7003 36.6072L40.735 37.7695C43.3557 41.4639 45.3189 42.7062 47.0961 43.831C47.6877 44.2052 48.2585 44.5664 48.8261 45.0004H35.0022Z" stroke="#EF2129" stroke-width="0.5"/>
<path d="M9.68746 39.2868H9.68748L9.68907 39.2853C11.0023 37.9657 11.7686 37.061 12.2877 36.4486C12.3243 36.4051 12.3596 36.3635 12.3939 36.323C12.918 35.7058 13.1573 35.4476 13.4969 35.3358C13.6695 35.2794 13.8731 35.2593 14.1598 35.2619C14.3949 35.2642 14.6793 35.2816 15.042 35.3035C15.1222 35.3084 15.2062 35.3132 15.2944 35.3184C16.242 35.3745 17.6489 35.4428 19.8571 35.3804C19.8209 35.6118 19.7854 35.8402 19.7503 36.066C19.4133 38.2365 19.1117 40.1785 18.5027 42.0133C18.2271 42.7884 18.0188 43.3291 17.8184 43.7106C17.6207 44.0872 17.4358 44.2981 17.2083 44.4233C16.9752 44.551 16.6858 44.5952 16.2675 44.6041C16.047 44.6086 15.7997 44.6038 15.5125 44.5978C15.2505 44.5923 14.9552 44.5863 14.6169 44.5863H1C1.45467 44.3672 1.97168 44.1689 2.51512 43.9609C2.60267 43.9275 2.69091 43.8937 2.77968 43.8591C3.69093 43.5081 4.65275 43.1174 5.46601 42.5447C7.07207 41.5535 8.3795 40.5607 9.68746 39.2868Z" stroke="#EF2129" stroke-width="0.5"/>
<path d="M61.9428 40.4728L61.9447 40.475L61.9466 40.4767C62.3031 40.8156 62.5826 41.0535 62.8483 41.2736C62.8995 41.3159 62.9503 41.3579 63.0008 41.3995C63.2109 41.5727 63.4187 41.7441 63.6591 41.9585C64.374 42.7109 65.1628 43.2891 65.8448 43.7454C66.0661 43.8933 66.2781 44.0298 66.472 44.1546C66.5767 44.2218 66.6761 44.2859 66.7691 44.3467C66.8514 44.4004 66.9285 44.4516 66.9999 44.5003C65.8923 44.5565 63.6405 44.6059 61.432 44.6059C60.1411 44.6059 58.8666 44.5892 57.8467 44.5469C57.3363 44.5259 56.8908 44.4985 56.5391 44.464C56.1831 44.4288 55.9341 44.3876 55.8101 44.342L55.8055 44.3403L55.801 44.3392C55.3318 44.2133 54.8244 43.7916 54.3191 43.1568C53.8159 42.5246 53.3252 41.6939 52.8887 40.7754C52.0484 39.0078 51.4217 36.9421 51.2856 35.3814C51.8367 35.3772 52.4477 35.3509 53.0731 35.3242C53.4434 35.3082 53.8188 35.2922 54.1897 35.2805C55.2482 35.2467 56.2729 35.247 57.0683 35.3804L57.0765 35.3818H57.0848C57.1549 35.3818 57.2588 35.4206 57.3996 35.5123C57.5375 35.6023 57.6985 35.7353 57.8788 35.9045C58.2399 36.2427 58.6671 36.7142 59.1267 37.2451C59.4012 37.5619 59.687 37.9005 59.9761 38.2425C60.6498 39.0394 61.3406 39.8566 61.9428 40.4728Z" stroke="#EF2129" stroke-width="0.5"/>
<path d="M34.3612 31.5823L34.3637 31.5812L34.3662 31.5797C34.964 31.2142 35.5125 31.1352 35.9688 31.2326C36.4262 31.3303 36.7998 31.6064 37.0438 31.9655C37.5329 32.684 37.4969 33.7168 36.5936 34.299C35.4754 34.9562 34.3644 34.56 33.8095 33.8567C33.5316 33.5048 33.3974 33.0809 33.465 32.6775C33.532 32.2762 33.8008 31.879 34.3612 31.5823Z" stroke="#EF2129" stroke-width="0.5"/>
<path d="M23.0236 38.4405C22.4365 37.9639 22.1278 36.9981 22.6446 35.674C23.8344 35.2248 24.905 35.4667 25.4658 36.0121C25.7481 36.2868 25.9024 36.6387 25.8846 37.0244C25.8668 37.4109 25.6759 37.8428 25.2451 38.275C24.5232 38.9293 23.6174 38.9228 23.0236 38.4405Z" stroke="#EF2129" stroke-width="0.5"/>
<path d="M29.9933 34.2926L29.989 34.2905C28.8861 33.7717 28.7896 32.5752 29.3388 31.8629C29.6116 31.5096 30.0444 31.2752 30.5983 31.3077C31.1478 31.3398 31.8273 31.635 32.5921 32.3593C32.5838 33.0824 32.3495 33.7901 31.9194 34.2047C31.702 34.4145 31.4346 34.5497 31.1179 34.5778C30.8002 34.6056 30.4255 34.5262 29.9933 34.2926Z" stroke="#EF2129" stroke-width="0.5"/>
<path d="M36.5461 27.6128L36.55 27.6107C37.5275 27.0238 38.537 27.4128 39.061 28.0847C39.3227 28.4207 39.4569 28.8205 39.4094 29.1955C39.3626 29.5664 39.1355 29.928 38.6457 30.1901L38.6428 30.1919C37.5239 30.8502 36.5169 30.4536 36.0307 29.7723C35.7867 29.4298 35.6755 29.0181 35.7432 28.6309C35.8105 28.2463 36.0563 27.8749 36.5461 27.6128Z" stroke="#EF2129" stroke-width="0.5"/>
<path d="M33.752 27.3464L33.7527 27.3468C34.6528 27.5403 35.0714 28.4088 34.8619 29.1677C34.7579 29.5451 34.4973 29.8969 34.0568 30.1226C33.6206 30.3465 33.002 30.4492 32.1767 30.3213C32.1397 30.2841 32.1019 30.247 32.0645 30.2102C31.828 29.9777 31.5952 29.7491 31.4436 29.4734C31.2684 29.1554 31.2018 28.7725 31.3976 28.2491L31.3987 28.2458C31.6513 27.487 32.5471 27.0775 33.752 27.3464Z" stroke="#EF2129" stroke-width="0.5"/>
<path d="M28.0524 32.8324C28.1142 33.2185 27.9664 33.6302 27.5711 34.2938C26.8435 34.455 26.2283 34.4846 25.7456 34.407C25.2541 34.3277 24.9084 34.1388 24.7138 33.8739C24.5208 33.6107 24.4648 33.2563 24.5854 32.8187C24.7041 32.3875 24.993 31.8814 25.4818 31.3193L27.175 31.4502C27.7095 32.0544 27.9898 32.4405 28.0524 32.8324Z" stroke="#EF2129" stroke-width="0.5"/>
<path d="M26.8908 29.5467C26.7959 29.3213 26.7738 29.1245 26.7972 28.9461C26.8209 28.7654 26.8918 28.5978 26.9902 28.4338C27.089 28.2687 27.2131 28.1111 27.3418 27.9478L27.3432 27.946C27.4607 27.7968 27.5819 27.6432 27.6831 27.481C28.6054 27.3883 29.2549 27.5001 29.6876 27.7193C30.1241 27.9403 30.344 28.2719 30.407 28.627C30.5348 29.3469 30.0212 30.1934 29.2432 30.4562C28.6429 30.5874 28.1521 30.5517 27.765 30.3902C27.3787 30.2291 27.0875 29.9392 26.8908 29.5467Z" stroke="#EF2129" stroke-width="0.5"/>
<path d="M46.1795 38.5948C45.7703 38.5318 45.3838 38.2816 44.786 37.7505C44.7234 36.8839 44.8307 36.209 45.1618 35.7984C45.4893 35.3918 46.0608 35.2177 46.999 35.4188C47.3593 35.5176 47.6062 35.6798 47.7717 35.8785C47.9376 36.0782 48.0265 36.3215 48.0593 36.5904C48.1233 37.1193 47.9682 37.735 47.771 38.2711C47.039 38.5364 46.5902 38.6583 46.1795 38.5948Z" stroke="#EF2129" stroke-width="0.5"/>
<path d="M41.3432 31.8357C41.6027 32.8941 41.5303 33.4093 41.4058 33.7046C41.3482 33.8416 41.2784 33.9349 41.2136 34.0214C41.2071 34.0301 41.2007 34.0384 41.1945 34.047C41.1391 34.1213 41.0826 34.201 41.0635 34.3016C39.9853 34.5831 39.2148 34.4346 38.7246 34.1026C38.2258 33.7648 38.0052 33.228 38.0451 32.7204C38.0854 32.2135 38.3859 31.7362 38.9348 31.5127C39.4786 31.2914 40.2829 31.3133 41.3432 31.8357Z" stroke="#EF2129" stroke-width="0.5"/>
<path d="M23.3002 27.751L23.302 27.7499C23.8662 27.4514 24.3731 27.397 24.786 27.4943C25.1994 27.5913 25.5252 27.8419 25.7263 28.1642C26.1261 28.8055 26.0367 29.7399 25.1264 30.3283C24.4693 30.6556 23.7179 30.6203 23.1834 30.312C22.6535 30.0063 22.3317 29.4306 22.5267 28.6512H22.5267L22.5272 28.649C22.5957 28.3404 22.6458 28.149 22.6904 28.0293C22.7358 27.9075 22.7683 27.8804 22.7873 27.8711C22.7985 27.8653 22.8134 27.8613 22.8404 27.8588C22.854 27.8577 22.8687 27.857 22.8869 27.8559H22.8892C22.9062 27.8548 22.9257 27.8541 22.9465 27.8523C23.0368 27.8451 23.1511 27.8256 23.3002 27.751Z" stroke="#EF2129" stroke-width="0.5"/>
<path d="M43.3579 31.5889H43.3582L43.3662 31.5864L43.3737 31.5824C43.8646 31.3207 44.3249 31.3066 44.714 31.4414C45.1055 31.5766 45.4309 31.865 45.6432 32.2169C45.8559 32.5691 45.9516 32.9793 45.8915 33.3546C45.8318 33.727 45.6184 34.0706 45.1998 34.2966L45.1973 34.298L45.1951 34.2995C44.1507 34.9498 43.1139 34.4311 42.7248 33.7818L42.7245 33.7807C42.4585 33.3474 42.3725 32.9977 42.3844 32.7187C42.3962 32.4411 42.506 32.2248 42.6489 32.0575C42.7928 31.8895 42.9699 31.772 43.1135 31.6959C43.1848 31.6581 43.2467 31.6311 43.2906 31.6137C43.3125 31.6047 43.3298 31.5986 43.3413 31.5946C43.3471 31.5925 43.3518 31.591 43.3543 31.59L43.3575 31.5892L43.3579 31.5889Z" stroke="#EF2129" stroke-width="0.5"/>
<path d="M42.7417 27.4854C42.962 27.759 43.1491 27.9609 43.2992 28.1231C43.3287 28.1548 43.3564 28.1851 43.3831 28.2139C43.5533 28.3996 43.657 28.5247 43.7095 28.6606C43.7606 28.7918 43.7678 28.9429 43.716 29.1858C43.6656 29.4241 43.5616 29.7396 43.3986 30.1967C42.9066 30.3564 42.3937 30.4516 41.9291 30.4595C41.4494 30.4678 41.0305 30.3834 40.7357 30.192C40.4467 30.0045 40.2693 29.7093 40.275 29.2691C40.2808 28.8304 40.4694 28.2453 40.9246 27.4854H42.7417Z" stroke="#EF2129" stroke-width="0.5"/>
<path d="M30.2398 26.4893L30.2366 26.4889L30.2337 26.4886C29.9371 26.4554 29.7228 26.3739 29.5681 26.2579C29.4142 26.1421 29.3127 25.9875 29.2491 25.7964C29.1225 25.4166 29.1489 24.9043 29.2144 24.3047C29.3546 24.2016 29.617 24.0296 29.9368 23.8742C30.2794 23.7077 30.681 23.5635 31.0658 23.5389C31.448 23.5144 31.8061 23.6079 32.0792 23.9089C32.3509 24.2081 32.551 24.7258 32.5899 25.5777C32.465 25.6806 32.3527 25.7878 32.2462 25.8898C32.2167 25.9179 32.1875 25.9457 32.1584 25.9731C32.0141 26.1093 31.8748 26.2323 31.7125 26.3296C31.3943 26.521 30.9743 26.6234 30.2398 26.4893Z" stroke="#EF2129" stroke-width="0.5"/>
<path d="M20.5927 31.9728C21.0973 31.4666 22.1278 31.3178 23.3253 31.7067C23.4863 32.1981 23.581 32.6361 23.5951 33.0128C23.6097 33.4007 23.5389 33.7176 23.3738 33.962C23.0487 34.4426 22.3228 34.6877 20.9859 34.5598C20.5302 33.9646 20.308 33.4433 20.2601 33.011C20.2117 32.5741 20.3404 32.2255 20.5927 31.9728Z" stroke="#EF2129" stroke-width="0.5"/>
<path d="M37.0876 24.5483L36.5701 26.2301C35.9802 26.3898 35.435 26.4601 34.9772 26.4395C34.505 26.4182 34.1358 26.3014 33.9015 26.0981C33.6722 25.8991 33.5599 25.607 33.62 25.201C33.6801 24.7966 33.9115 24.282 34.3708 23.6514C35.2381 23.5203 35.6847 23.4941 36.0299 23.6197C36.3711 23.7437 36.6248 24.0191 37.0876 24.5483Z" stroke="#EF2129" stroke-width="0.5"/>
<path d="M49.9384 31.9682C49.9701 32.1727 50 32.3475 50.0262 32.4985C50.0316 32.5288 50.0367 32.5577 50.0414 32.5858C50.0629 32.7098 50.0817 32.8165 50.0964 32.9106C50.1324 33.1428 50.1428 33.2884 50.1202 33.4178C50.0975 33.5458 50.041 33.6666 49.9258 33.8447C49.8521 33.9589 49.757 34.092 49.6361 34.2621C49.5728 34.3512 49.5022 34.45 49.4241 34.5617C48.3714 34.6526 47.6614 34.4006 47.2385 34.0188C46.8106 33.6323 46.6674 33.1049 46.7634 32.6312C46.8599 32.1572 47.1964 31.735 47.7362 31.5594C48.2692 31.3857 49.0146 31.4491 49.9384 31.9682Z" stroke="#EF2129" stroke-width="0.5"/>
<path d="M38.8255 23.7041L38.8655 23.7847C39.392 23.5215 39.8706 23.5078 40.2662 23.6427C40.6631 23.7781 40.9838 24.0657 41.1875 24.4167C41.3916 24.7681 41.4754 25.1779 41.4052 25.5536C41.3354 25.9257 41.1144 26.2689 40.698 26.4956C39.7184 26.8843 38.7042 26.4585 38.2144 25.8046C37.97 25.4781 37.8621 25.1033 37.9441 24.7509C38.0258 24.4003 38.3008 24.0514 38.8637 23.7856L38.8255 23.7041Z" stroke="#EF2129" stroke-width="0.5"/>
<path d="M19.3337 27.6162C20.3192 27.2906 21.1549 27.6897 21.4724 28.3105C21.6314 28.6216 21.6637 28.9922 21.5193 29.3675C21.3753 29.7413 21.0531 30.1267 20.4915 30.4591C19.8288 30.6559 19.3277 30.6181 18.9739 30.4515C18.6194 30.2846 18.401 29.9836 18.313 29.6307C18.136 28.9208 18.4898 28.0098 19.3337 27.6162Z" stroke="#EF2129" stroke-width="0.5"/>
<path d="M45.9278 27.5889C46.3471 27.5889 46.8693 27.6848 47.4948 27.8798C47.7208 28.5053 47.8226 29.0183 47.8147 29.4213C47.8061 29.8319 47.6841 30.1203 47.4703 30.3042C47.2551 30.4891 46.9312 30.5814 46.4914 30.5645C46.0617 30.5482 45.5305 30.4278 44.9043 30.1996C44.7113 29.6077 44.6253 29.1199 44.6397 28.7335C44.6541 28.3394 44.7722 28.0582 44.9787 27.874C45.1864 27.6887 45.4988 27.5889 45.9278 27.5889Z" stroke="#EF2129" stroke-width="0.5"/>
<path d="M16.6232 31.8455C17.4842 31.2503 18.2853 31.3307 18.7582 31.8196C19.2314 32.3091 19.4108 33.2418 18.9602 34.4336C17.4364 34.8182 16.5454 34.408 16.1857 33.8124C15.8201 33.2071 15.9742 32.369 16.6232 31.8455Z" stroke="#EF2129" stroke-width="0.5"/>
<path d="M25.4737 23.8664C25.9619 23.5668 26.7022 23.5856 27.705 23.9162C28.3569 25.0472 28.1975 25.9308 27.6275 26.3317C27.0479 26.7395 25.9821 26.6998 24.7139 25.845C24.7217 24.7892 24.9926 24.1616 25.4737 23.8664Z" stroke="#EF2129" stroke-width="0.5"/>
<path d="M45.3856 24.568C45.5756 24.9247 45.6285 25.3986 45.4349 25.9889C44.7802 26.8945 43.8114 26.9565 43.0977 26.5834C42.3769 26.2063 41.9346 25.399 42.3182 24.5662C42.7029 23.7974 43.6725 23.5605 44.4635 23.8245C44.8558 23.9554 45.1938 24.2073 45.3856 24.568Z" stroke="#EF2129" stroke-width="0.5"/>
<path d="M20.7455 26.1255C20.5154 25.6635 20.4779 25.2418 20.5718 24.8926C20.6657 24.5433 20.8932 24.2587 21.2074 24.0733C21.8294 23.7062 22.8007 23.7258 23.7251 24.439C23.8485 25.0909 23.7627 25.5966 23.5622 25.9701C23.3583 26.3501 23.0314 26.601 22.6661 26.7307C21.9267 26.9935 21.061 26.7556 20.7455 26.1255Z" stroke="#EF2129" stroke-width="0.5"/>
<path d="M28.0778 20.2312L28.0779 20.2312L28.0818 20.2292C29.0592 19.7078 29.929 20.1312 30.2989 20.7763C30.4846 21.0997 30.5422 21.4747 30.4299 21.814C30.3184 22.1512 30.0341 22.4668 29.5086 22.6645L29.5054 22.6657L29.5022 22.6672C28.5167 23.1269 27.6106 22.7619 27.2269 22.1694C27.0354 21.8737 26.9738 21.5222 27.0917 21.182C27.2097 20.8412 27.5129 20.4979 28.0778 20.2312Z" stroke="#EF2129" stroke-width="0.5"/>
<path d="M31.906 22.511C31.5155 22.1357 31.3431 21.4703 31.4004 20.6161C31.72 20.4534 31.9251 20.3218 32.0784 20.218C32.1083 20.1976 32.136 20.1786 32.1619 20.1609C32.2763 20.0823 32.3541 20.029 32.4433 19.9907C32.5481 19.9457 32.6715 19.9208 32.8914 19.9167C33.1066 19.9125 33.4075 19.9283 33.8646 19.9608C34.0294 20.1593 34.2126 20.385 34.3724 20.6233C34.5404 20.874 34.6794 21.1334 34.7438 21.3841C34.8078 21.6331 34.7974 21.8681 34.6758 22.0795C34.553 22.2924 34.3094 22.4955 33.8779 22.6624C32.9389 22.9986 32.2979 22.8878 31.906 22.511Z" stroke="#EF2129" stroke-width="0.5"/>
<path d="M38.9046 22.2859C38.364 22.7161 37.2919 22.8619 36.0276 22.4061C36.0009 22.3272 35.9736 22.2493 35.947 22.1725C35.835 21.8539 35.7296 21.553 35.704 21.2708C35.6878 21.0934 35.7044 20.9302 35.7695 20.7812C35.8339 20.6328 35.9498 20.4916 36.1427 20.3626L36.146 20.3605L36.1492 20.358C36.4717 20.0997 36.928 19.9668 37.3905 19.9668C37.8515 19.9668 38.3068 20.099 38.6292 20.3561C39.0615 20.7564 39.2576 21.1379 39.2846 21.4639C39.3116 21.7868 39.1745 22.0711 38.9046 22.2859Z" stroke="#EF2129" stroke-width="0.5"/>
<path d="M52.9632 31.7026C53.3122 31.8417 53.6088 32.0764 53.7679 32.3601C53.9989 32.8591 54.0526 33.2909 53.9827 33.6385C53.9126 33.9856 53.7182 34.2553 53.44 34.4301C52.8876 34.7776 51.985 34.7607 51.0586 34.1771C50.8664 33.3515 50.9049 32.7599 51.0701 32.3536C51.2364 31.9452 51.5337 31.7159 51.8752 31.6204C52.2196 31.5241 52.613 31.5634 52.9632 31.7026Z" stroke="#EF2129" stroke-width="0.5"/>
<path d="M41.5439 22.9859C41.0281 22.8727 40.5419 22.6174 40.272 22.4209C40.1413 21.9253 40.0784 21.5263 40.0884 21.2102C40.0985 20.8891 40.1838 20.662 40.3418 20.5037C40.5009 20.3441 40.7474 20.2417 41.1062 20.1981C41.4575 20.1554 41.9066 20.17 42.4673 20.2346C42.5282 20.3095 42.5929 20.3857 42.6584 20.4626L42.6656 20.4712C42.7423 20.5614 42.82 20.6528 42.8949 20.7466C43.045 20.9346 43.1803 21.1282 43.2695 21.3312C43.3584 21.5331 43.4009 21.7422 43.3678 21.963C43.3347 22.1833 43.2249 22.4238 42.9957 22.6869C42.6171 23.0642 42.0761 23.1027 41.5439 22.9859Z" stroke="#EF2129" stroke-width="0.5"/>
<path d="M14.1918 29.7933C14.1284 29.458 14.1978 29.0352 14.4643 28.5348C14.588 28.3192 14.8669 28.099 15.2153 27.9497C15.5624 27.8008 15.9626 27.7287 16.3164 27.7932C16.666 27.8571 16.9721 28.0535 17.1464 28.4504C17.3207 28.8474 17.3679 29.4544 17.1746 30.347C16.2484 30.8654 15.3097 30.8846 14.7381 30.5507C14.4511 30.3831 14.2548 30.1264 14.1918 29.7933Z" stroke="#EF2129" stroke-width="0.5"/>
<path d="M49.6461 27.891V27.8914L49.6504 27.8892C50.1367 27.6625 50.5761 27.7047 50.9327 27.8965C51.2926 28.09 51.5741 28.4394 51.7296 28.8334C51.8854 29.2278 51.9109 29.6568 51.7738 30.0068C51.6385 30.3518 51.3409 30.6316 50.823 30.7293L50.8205 30.7296L50.8179 30.7304C50.0521 30.9207 49.2697 30.4084 48.9242 29.7325C48.7529 29.3976 48.6957 29.0331 48.7961 28.7087C48.8954 28.3867 49.1542 28.0886 49.6461 27.891Z" stroke="#EF2129" stroke-width="0.5"/>
<path d="M13.1534 31.9103L13.1996 31.9878C13.6955 31.69 14.1019 31.6572 14.4084 31.7693C14.7163 31.8818 14.9431 32.1479 15.0642 32.4882C15.3077 33.1724 15.1102 34.1133 14.3377 34.5672C13.5599 34.9555 12.666 34.6952 12.279 33.9262C12.1144 33.4608 12.0933 33.1122 12.1468 32.8519C12.2001 32.5917 12.3291 32.4125 12.4776 32.287C12.6273 32.1608 12.7983 32.0887 12.9339 32.048C13.0013 32.0278 13.0591 32.0159 13.0996 32.0087C13.1198 32.0055 13.1357 32.0033 13.1462 32.0019C13.1515 32.0011 13.1554 32.0008 13.1579 32.0004H13.1605H13.1609C13.1609 32.0004 13.1608 32.0004 13.1534 31.9103Z" stroke="#EF2129" stroke-width="0.5"/>
<path d="M46.8033 24.3192C47.3172 23.8712 48.1604 23.8349 48.7794 24.2261C49.0868 24.4203 49.3373 24.7193 49.4625 25.125C49.5852 25.5212 49.5903 26.025 49.4038 26.64C48.2212 26.9548 47.252 26.6505 46.7399 26.1371C46.4804 25.8769 46.3394 25.5653 46.3394 25.2513C46.3394 24.9388 46.4786 24.612 46.8033 24.3192Z" stroke="#EF2129" stroke-width="0.5"/>
<path d="M47.0296 21.0309C47.2387 21.3785 47.333 21.876 47.2067 22.5649C46.9429 22.826 46.6549 23.0443 46.3105 23.1386C45.9614 23.2342 45.5418 23.2056 45.012 22.9409C44.3527 22.5433 43.8474 21.7705 44.2285 20.8721C44.3502 20.6633 44.6219 20.4866 44.971 20.3876C45.3201 20.2888 45.7307 20.2724 46.1065 20.3706C46.4815 20.4684 46.818 20.6788 47.0296 21.0309Z" stroke="#EF2129" stroke-width="0.5"/>
<path d="M25.5292 20.2313C25.7894 20.6237 25.9658 20.9073 26.0704 21.1311C26.1776 21.3605 26.2034 21.5147 26.1751 21.65C26.1463 21.7883 26.0579 21.9232 25.8971 22.1076C25.8208 22.1952 25.7308 22.2911 25.6264 22.4024L25.6123 22.4175C25.5082 22.5284 25.391 22.6536 25.2621 22.7978C24.3357 22.9255 23.6782 22.7967 23.2653 22.5508C22.8505 22.3037 22.6796 21.9382 22.7182 21.5752C22.7951 20.852 23.7333 20.0449 25.5292 20.2313Z" stroke="#EF2129" stroke-width="0.5"/>
<path d="M29.9203 16.9206C30.4482 16.5197 31.2944 16.4789 32.0883 16.9432C32.4449 17.1716 32.6404 17.4678 32.6969 17.7665C32.7534 18.0655 32.6724 18.3766 32.4579 18.6397C32.0321 19.1607 31.0662 19.5039 29.6057 19.1158C29.1635 18.0689 29.4057 17.3113 29.9203 16.9206Z" stroke="#EF2129" stroke-width="0.5"/>
<path d="M19.3708 24.3249C19.5611 24.777 19.6202 25.0619 19.6046 25.3421C19.5908 25.5903 19.5189 25.8381 19.4135 26.2015C19.397 26.2584 19.3797 26.3179 19.3617 26.381C18.3664 26.938 17.6307 26.9823 17.149 26.7855C16.6646 26.5876 16.413 26.1362 16.405 25.6538C16.3969 25.171 16.6339 24.6633 17.1233 24.3646C17.6061 24.07 18.3491 23.9706 19.3708 24.3249Z" stroke="#EF2129" stroke-width="0.5"/>
<path d="M34.2234 19.0485C33.9124 18.646 33.6897 18.3581 33.4658 17.7004C33.8945 17.0567 34.3958 16.7327 34.8748 16.6231C35.3639 16.5113 35.8386 16.6209 36.2039 16.8566C36.5699 17.093 36.82 17.4518 36.869 17.8329C36.9179 18.2094 36.7725 18.6239 36.3162 18.9829L36.3155 18.9834C35.9876 19.2461 35.6986 19.3416 35.3945 19.3577C35.1217 19.3721 34.8359 19.3234 34.4901 19.2645C34.4519 19.258 34.4134 19.2515 34.3742 19.2448C34.3216 19.1755 34.2713 19.1106 34.2234 19.0485Z" stroke="#EF2129" stroke-width="0.5"/>
<path d="M53.0716 28.1597L53.0745 28.1579L53.077 28.1564C53.4715 27.8933 53.8512 27.8071 54.1848 27.8489C54.5188 27.8907 54.815 28.062 55.041 28.3287C55.4869 28.8551 55.66 29.756 55.2825 30.7394C54.5328 30.8948 53.9696 30.8404 53.56 30.6713C53.1429 30.4986 52.8777 30.2044 52.733 29.8742C52.5876 29.5422 52.5631 29.173 52.6322 28.8547C52.7013 28.5349 52.8618 28.2797 53.0716 28.1597Z" stroke="#EF2129" stroke-width="0.5"/>
<path d="M47.0893 42.233C46.8996 41.5023 46.8787 40.698 47.1483 40.1418C47.2851 39.8598 47.4952 39.6428 47.7976 39.5264C48.1013 39.4092 48.5076 39.3898 49.0417 39.5235C49.4045 39.6223 49.578 39.764 49.6517 39.9291C49.7277 40.0989 49.7104 40.3195 49.6265 40.6061C49.5607 40.8303 49.4585 41.0801 49.3447 41.3599C49.3138 41.4356 49.2818 41.5135 49.2497 41.5939C49.1101 41.941 48.9654 42.3257 48.8621 42.7413L47.0893 42.233Z" stroke="#EF2129" stroke-width="0.5"/>
<path d="M15.5414 24.5991C15.7643 25.2982 15.6803 25.788 15.5622 26.4762C15.552 26.5357 15.5415 26.5966 15.531 26.6593C14.5717 27.2138 13.8634 27.265 13.4001 27.0793C12.9339 26.8922 12.6904 26.4545 12.6823 25.9798C12.6743 25.5049 12.9034 25.0009 13.3769 24.696C13.8424 24.3963 14.5577 24.281 15.5414 24.5991Z" stroke="#EF2129" stroke-width="0.5"/>
<path d="M55.0088 32.2376C55.3017 31.8804 55.6371 31.7246 55.96 31.7109C56.2853 31.6972 56.6092 31.8274 56.8762 32.0628C57.4067 32.5296 57.7026 33.401 57.3218 34.3138C56.8996 34.6328 56.4836 34.7485 56.1143 34.7265C55.739 34.7046 55.4046 34.5394 55.1545 34.2889C54.6535 33.7878 54.4919 32.9496 55.0088 32.2376Z" stroke="#EF2129" stroke-width="0.5"/>
<path d="M53.227 26.9166C52.2445 27.2342 51.5387 27.1185 51.0845 26.8196C50.6224 26.5154 50.4051 26.0121 50.4213 25.5367C50.4374 25.0612 50.6858 24.6229 51.1461 24.4357C51.6035 24.2497 52.2967 24.3014 53.2255 24.8591C53.354 25.2499 53.4156 25.5394 53.4156 25.8419C53.4156 26.1433 53.3544 26.4638 53.227 26.9166Z" stroke="#EF2129" stroke-width="0.5"/>
<path d="M19.6264 20.5056C20.1835 20.4421 20.6302 20.436 20.9773 20.4886C21.3331 20.5425 21.5749 20.6565 21.7265 20.8236C21.877 20.9894 21.9503 21.2204 21.9421 21.5344C21.9341 21.8412 21.8482 22.22 21.6874 22.6775C21.0248 22.9398 20.4577 23.0938 20.0063 23.1388C19.5428 23.185 19.2207 23.1144 19.0359 22.9516C18.8573 22.7941 18.7823 22.5266 18.8706 22.111C18.9575 21.7024 19.1996 21.1693 19.6264 20.5056Z" stroke="#EF2129" stroke-width="0.5"/>
<path d="M27.9827 17.21V17.2101L27.985 17.2118C28.3756 17.5051 28.5092 17.8276 28.4863 18.1233C28.4631 18.4239 28.2767 18.7188 27.9829 18.9477C27.3951 19.4054 26.4184 19.5673 25.6386 18.9846C25.2104 18.5875 25.078 18.2221 25.114 17.9194C25.1504 17.6138 25.3618 17.3439 25.6803 17.1475C26.3218 16.752 27.3372 16.6913 27.9827 17.21Z" stroke="#EF2129" stroke-width="0.5"/>
<path d="M12.5755 30.8714C12.0814 31.0682 11.6626 31.0563 11.3404 30.9215C11.0172 30.7867 10.7822 30.5246 10.6621 30.2041C10.4231 29.5657 10.6408 28.6896 11.5572 28.1619C12.0843 27.9329 12.4887 27.956 12.7798 28.1103C13.0736 28.2664 13.2704 28.566 13.3599 28.9247C13.5406 29.6489 13.2722 30.552 12.5755 30.8714Z" stroke="#EF2129" stroke-width="0.5"/>
<path d="M51.0335 21.2986C51.0497 21.3936 51.0655 21.4827 51.0806 21.5672C51.19 22.1815 51.257 22.5583 51.0454 23.2199C50.0639 23.472 49.3481 23.3258 48.881 23.0151C48.4048 22.6986 48.177 22.2059 48.1853 21.7582C48.1932 21.3121 48.4332 20.9141 48.8972 20.765C49.3607 20.6159 50.0715 20.7084 51.0335 21.2986Z" stroke="#EF2129" stroke-width="0.5"/>
<path d="M45.0237 19.006C44.3615 19.5224 43.5215 19.7055 42.9014 19.4827C42.5897 19.3707 42.3313 19.1556 42.1737 18.8236C42.0182 18.4964 41.9574 18.0485 42.0502 17.4622C42.7103 16.9465 43.5164 16.7956 44.1203 17.0342C44.4244 17.1545 44.6803 17.3745 44.8452 17.7025C45.0067 18.0243 45.083 18.4553 45.0237 19.006Z" stroke="#EF2129" stroke-width="0.5"/>
<path d="M15.6665 20.6553L17.6017 20.9142C17.9437 21.5591 17.9347 22.1048 17.7449 22.5256C17.5497 22.9586 17.157 23.2728 16.7231 23.4287C16.2878 23.585 15.826 23.5769 15.4947 23.3864C15.1711 23.2003 14.9515 22.8284 15.0169 22.2067L15.0174 22.202V22.1972C15.0174 21.9619 15.0344 21.8085 15.0637 21.6954C15.0924 21.5848 15.1338 21.5092 15.1891 21.4302C15.212 21.3976 15.2374 21.3643 15.265 21.328C15.3706 21.1894 15.5094 21.0071 15.6665 20.6553Z" stroke="#EF2129" stroke-width="0.5"/>
<path d="M41.0486 17.5944L40.7942 19.1198C39.6432 19.4063 38.8612 19.2825 38.3897 18.9948C37.9132 18.704 37.7434 18.2408 37.8214 17.8256C37.8999 17.4097 38.2296 17.0307 38.7802 16.916C39.3233 16.8028 40.0927 16.9461 41.0486 17.5944Z" stroke="#EF2129" stroke-width="0.5"/>
<path d="M21.1646 19.272V17.8625C21.4972 17.5362 21.9509 17.2202 22.4775 17.1082C23.0059 16.9959 23.6173 17.0867 24.2689 17.5989C24.3259 18.046 24.2581 18.4165 24.1053 18.7101C23.9485 19.0115 23.6992 19.2378 23.3907 19.3842C22.7846 19.6717 21.9495 19.6498 21.1646 19.272Z" stroke="#EF2129" stroke-width="0.5"/>
<path d="M56.7669 27.0651C56.4639 27.258 55.946 27.3697 55.1258 27.3092C55.0337 27.1898 54.9297 27.077 54.8282 26.9667C54.8199 26.9573 54.8112 26.9483 54.803 26.9389C54.6831 26.8084 54.5669 26.6801 54.4683 26.5402C54.2732 26.2648 54.1458 25.9457 54.2102 25.4939C54.2768 25.0265 54.4384 24.7559 54.6878 24.638C54.943 24.5173 55.3223 24.5402 55.8639 24.7436V24.7437L55.8672 24.7447C56.1536 24.8408 56.456 25.0682 56.6957 25.3564C56.9353 25.6447 57.1038 25.9832 57.1354 26.2933C57.1664 26.5975 57.0671 26.8744 56.7669 27.0651Z" stroke="#EF2129" stroke-width="0.5"/>
<path d="M29.3848 15.9566L29.3814 15.9574L29.3781 15.9585C28.3871 16.29 27.5865 15.8875 27.3368 15.3567C27.2129 15.0935 27.22 14.7939 27.4062 14.5178C27.5944 14.2387 27.9724 13.974 28.6084 13.806C29.6702 13.5399 30.3648 13.9761 30.5501 14.5004C30.643 14.7639 30.6131 15.0587 30.4331 15.3215C30.2525 15.5852 29.9156 15.8234 29.3848 15.9566Z" stroke="#EF2129" stroke-width="0.5"/>
<path d="M36.5217 13.8066V13.8065L36.5292 13.805L36.536 13.8023C37.3793 13.4768 38.1898 13.8663 38.5615 14.4175C38.7472 14.6925 38.8178 14.9985 38.7393 15.2698C38.6619 15.5385 38.4327 15.7943 37.9742 15.9586V15.9585L37.9713 15.9597C37.651 16.088 37.2612 16.0898 36.8981 16.0069C36.5342 15.9239 36.2103 15.7589 36.0203 15.5687C35.6521 15.1996 35.5157 14.9112 35.4988 14.6923C35.4826 14.4784 35.5795 14.3116 35.7277 14.1787C35.8774 14.0443 36.0743 13.9508 36.2384 13.8905C36.3194 13.8606 36.391 13.8395 36.4421 13.8258C36.4673 13.8191 36.4878 13.8142 36.5015 13.811C36.5083 13.8094 36.5134 13.8083 36.517 13.8075L36.5206 13.8067L36.5213 13.8066H36.5217Z" stroke="#EF2129" stroke-width="0.5"/>
<path d="M8.91701 32.548C9.14403 32.0775 9.72536 31.8024 10.9141 31.8601C11.4361 32.858 11.5123 33.658 11.2176 34.1554C10.9274 34.6454 10.245 34.8905 9.12585 34.7031C8.96545 34.2474 8.85478 33.8353 8.81249 33.4755C8.76866 33.1021 8.79932 32.792 8.91701 32.548Z" stroke="#EF2129" stroke-width="0.5"/>
<path d="M48.8558 19.6614C48.1403 19.7889 47.6901 19.8166 47.292 19.7366C46.8926 19.6564 46.537 19.4663 46.0101 19.1379C45.9219 18.3582 46.0986 17.8378 46.3855 17.5314C46.6773 17.2199 47.0966 17.1144 47.5152 17.1949C48.3386 17.3533 49.1523 18.237 48.8558 19.6614Z" stroke="#EF2129" stroke-width="0.5"/>
<path d="M52.4474 21.25C52.7386 21.1566 53.1755 21.1288 53.8042 21.193C54.2332 21.5919 54.5517 21.979 54.7432 22.3233C54.9397 22.6766 54.9936 22.9684 54.9209 23.1802C54.8508 23.3846 54.6499 23.547 54.2526 23.6147C53.8618 23.6813 53.2985 23.6518 52.5384 23.4892C52.3419 23.1277 52.1732 22.7866 52.0659 22.4813C51.9543 22.1635 51.9148 21.8981 51.9673 21.6936C52.0177 21.4985 52.157 21.3431 52.4474 21.25Z" stroke="#EF2129" stroke-width="0.5"/>
<path d="M32.9596 15.9545L32.9553 15.9541H32.9513C32.4208 15.9541 32.0706 15.822 31.8363 15.6033C31.6067 15.3892 31.4761 15.0805 31.4077 14.6938C31.8018 13.9873 32.3798 13.6748 32.9841 13.6748C33.5905 13.6748 34.2386 13.9896 34.768 14.5705C34.6993 15.096 34.5975 15.4617 34.3567 15.6878C34.113 15.9167 33.7035 16.0224 32.9596 15.9545Z" stroke="#EF2129" stroke-width="0.5"/>
<path d="M39.5926 14.5732V14.5733L39.5933 14.5711C39.6822 14.3318 39.927 14.1316 40.2638 14.0078C40.5985 13.8848 41.0092 13.8432 41.404 13.9089C41.7981 13.9747 42.1705 14.1465 42.4354 14.4441C42.6931 14.7335 42.8565 15.1496 42.8328 15.7242C42.1158 16.2923 41.179 16.3221 40.4801 16.0452C40.126 15.905 39.8402 15.6887 39.6758 15.4328C39.5135 15.1798 39.4674 14.8856 39.5926 14.5732Z" stroke="#EF2129" stroke-width="0.5"/>
<path d="M11.1906 27.3102C10.406 27.3704 9.88625 27.276 9.56285 27.1033C9.23891 26.9303 9.10808 26.6772 9.10046 26.4021C9.09261 26.1206 9.21436 25.8062 9.4181 25.5257C9.62115 25.2461 9.89902 25.0092 10.1893 24.8795C10.6535 24.6795 11.0376 24.6526 11.3326 24.7616C11.6233 24.869 11.8455 25.1152 11.9763 25.5027C12.0391 25.9529 11.9425 26.237 11.7828 26.4926C11.708 26.6123 11.6196 26.7255 11.5231 26.8488C11.5132 26.8614 11.5033 26.874 11.4933 26.887C11.3943 27.0139 11.2893 27.1509 11.1906 27.3102Z" stroke="#EF2129" stroke-width="0.5"/>
<path d="M17.3331 19.297L17.3325 19.2952C17.1337 18.7962 17.1407 18.4306 17.2634 18.1681C17.3863 17.9055 17.6344 17.7259 17.9614 17.6195C18.6016 17.4112 19.5029 17.4986 20.1665 17.7509C20.1897 18.4242 20.0486 18.9156 19.8245 19.2602C19.5942 19.614 19.2723 19.8195 18.9338 19.9084C18.594 19.9976 18.2378 19.9693 17.9434 19.8542C17.6482 19.7389 17.4243 19.5404 17.3331 19.297Z" stroke="#EF2129" stroke-width="0.5"/>
<path d="M56.6939 30.481C56.6021 30.4024 56.5038 30.318 56.3955 30.2304L56.5258 28.411C56.8364 28.2401 57.2218 28.2044 57.6011 28.2794C57.9963 28.3576 58.3764 28.5548 58.6438 28.8313C58.9108 29.1067 59.0634 29.4568 59.0181 29.8479C58.9734 30.2344 58.7327 30.6775 58.1813 31.1396C57.7386 31.1349 57.4561 31.0372 57.2045 30.8793C57.0735 30.7975 56.9497 30.698 56.8137 30.583C56.7748 30.5502 56.7349 30.5163 56.6939 30.481Z" stroke="#EF2129" stroke-width="0.5"/>
<path d="M23.3501 15.2361C23.3806 14.9871 23.5299 14.705 23.7619 14.4555C23.9933 14.2067 24.3002 13.998 24.6334 13.8922C24.9657 13.7866 25.3217 13.7839 25.6584 13.9416C25.9886 14.0962 26.3106 14.4099 26.5746 14.9562C26.1751 15.9845 25.3363 16.3644 24.6129 16.3321C24.2453 16.3157 23.911 16.193 23.6789 15.9984C23.4488 15.8054 23.3197 15.5432 23.3501 15.2361Z" stroke="#EF2129" stroke-width="0.5"/>
<path d="M14.0133 21.5922C14.2196 21.9716 14.1999 22.6211 13.649 23.613H11.7038C11.2688 22.9032 11.3131 22.3225 11.5707 21.9036C11.8376 21.4693 12.3443 21.1907 12.8433 21.1252C13.3442 21.0596 13.8057 21.2104 14.0133 21.5922Z" stroke="#EF2129" stroke-width="0.5"/>
<path d="M44.1774 14.3526V14.3526L44.1875 14.3496L44.1965 14.3441C44.9728 13.8895 45.7815 14.1465 46.2533 14.6354C46.489 14.88 46.6348 15.177 46.6528 15.4633C46.67 15.7457 46.5639 16.025 46.2806 16.2465H46.2803L46.2796 16.2472C45.9629 16.5011 45.5468 16.5682 45.138 16.5026C44.7295 16.437 44.3387 16.2402 44.0799 15.9815C43.7801 15.6476 43.6469 15.3808 43.6063 15.1723C43.5667 14.9669 43.6156 14.8118 43.697 14.6936C43.7797 14.5728 43.8985 14.487 44.0007 14.4308C44.0511 14.403 44.0961 14.3832 44.1281 14.3704C44.1443 14.364 44.1569 14.3594 44.1655 14.3565C44.1699 14.355 44.1731 14.354 44.1749 14.3533L44.1771 14.3527L44.1774 14.3526Z" stroke="#EF2129" stroke-width="0.5"/>
<path d="M52.4128 19.9534C52.1623 20.2356 51.8352 20.3234 51.4901 20.2777C51.1417 20.2316 50.7775 20.0489 50.4712 19.7919C50.1646 19.5349 49.9245 19.2104 49.8183 18.8898C49.7129 18.5725 49.7399 18.2671 49.9508 18.0237C50.518 17.4581 51.3824 17.6333 51.9979 18.133C52.3027 18.3807 52.5327 18.6992 52.6226 19.0234C52.7112 19.3439 52.6637 19.6707 52.4128 19.9534Z" stroke="#EF2129" stroke-width="0.5"/>
<path d="M21.7136 16.3744C20.6485 16.9082 19.8934 16.5941 19.6344 16.0897C19.3752 15.585 19.5726 14.8131 20.5658 14.3479C21.4168 13.9537 22.1141 14.2536 22.3943 14.7377C22.5353 14.9811 22.5742 15.2748 22.4762 15.5634C22.3783 15.8517 22.1407 16.1433 21.7136 16.3744Z" stroke="#EF2129" stroke-width="0.5"/>
<path d="M32.29 11.1813C32.5646 11.3488 32.7237 11.6223 32.7251 12.0731C32.6938 12.3134 32.5344 12.5483 32.2864 12.7386C32.0374 12.9296 31.7066 13.0691 31.3543 13.1182C30.6615 13.2148 29.8953 12.9624 29.4995 12.0744C29.6313 11.6876 29.7592 11.4453 29.9698 11.2793C30.1872 11.108 30.5057 11.0075 31.0462 10.9395C31.5853 10.9399 32.0057 11.008 32.29 11.1813Z" stroke="#EF2129" stroke-width="0.5"/>
<path d="M16.3458 18.397L16.3457 18.397L16.3473 18.4018C16.5363 18.9682 16.2555 19.5783 15.7181 19.9208C15.1923 20.2557 14.4249 20.3282 13.646 19.8225C13.4706 18.7973 14.0489 18.0975 14.7244 17.8241C15.0675 17.6852 15.4301 17.6591 15.7267 17.7522C16.02 17.8442 16.252 18.0531 16.3458 18.397Z" stroke="#EF2129" stroke-width="0.5"/>
<path d="M47.5156 15.3727L47.5163 15.3677V15.3627C47.5163 15.1203 47.5163 14.9723 47.5264 14.8778C47.5365 14.7845 47.5534 14.7748 47.5577 14.7724C47.5577 14.7723 47.5581 14.7722 47.5581 14.7722C47.5653 14.7679 47.579 14.7627 47.6096 14.757C47.6283 14.7536 47.6477 14.7508 47.6707 14.7475C47.6877 14.7451 47.7064 14.7425 47.7287 14.739C47.8294 14.7232 47.9648 14.6961 48.1436 14.6244L48.1102 14.5408L48.1436 14.6244C48.7817 14.3681 49.5631 14.6543 50.0241 15.1324C50.253 15.3699 50.3923 15.6446 50.3998 15.9081C50.4074 16.1663 50.2897 16.4302 49.9694 16.6552L49.969 16.6557C49.5256 16.9728 48.8803 16.9469 48.3538 16.6831C47.8276 16.4196 47.453 15.9365 47.5156 15.3727Z" stroke="#EF2129" stroke-width="0.5"/>
<path d="M59.9948 25.842C60.2226 26.302 60.2719 26.9361 59.9361 27.7083L58.1424 27.4513C57.7224 26.4602 57.7289 25.8056 57.9211 25.4241C58.1118 25.0454 58.5012 24.9089 58.9154 24.9887C59.3311 25.0688 59.7598 25.367 59.9948 25.842Z" stroke="#EF2129" stroke-width="0.5"/>
<path d="M38.0583 12.8287L38.0468 12.8199L38.0327 12.8153C37.9482 12.787 37.8319 12.7117 37.7236 12.599C37.616 12.4873 37.5224 12.3458 37.4763 12.1918C37.431 12.0393 37.4314 11.8748 37.5102 11.7097C37.5893 11.5437 37.7517 11.368 38.0464 11.2032C38.8299 10.8108 39.6782 11.0076 40.1647 11.4135C40.408 11.6166 40.552 11.8642 40.5635 12.1072C40.5747 12.3453 40.4591 12.6007 40.1374 12.827L40.1309 12.8315L40.1252 12.837C39.8758 13.0869 39.495 13.1868 39.1005 13.1703C38.7061 13.1538 38.3149 13.0215 38.0583 12.8287Z" stroke="#EF2129" stroke-width="0.5"/>
<path d="M56.0767 21.5946V21.5947L56.0774 21.5941C56.5151 21.3426 57.1906 21.4332 57.6451 21.8395C57.8697 22.0405 58.0381 22.3173 58.0943 22.6654C58.1493 23.0047 58.0986 23.4178 57.8801 23.9008C56.8469 24.1441 56.1185 23.7185 55.7859 23.163C55.4447 22.5924 55.5218 21.9042 56.0767 21.5946Z" stroke="#EF2129" stroke-width="0.5"/>
<path d="M18.0245 14.6308C18.0378 14.631 18.0493 14.6312 18.059 14.6313C18.4313 14.728 18.6317 14.9589 18.6974 15.2317C18.765 15.5122 18.6929 15.85 18.4907 16.15C18.0946 16.7377 17.2004 17.1708 15.9577 16.6617C15.7716 16.1143 15.7952 15.7241 15.9243 15.4444C16.0565 15.1577 16.3076 14.9696 16.6025 14.8465C17.1487 14.6186 17.8102 14.6278 18.0245 14.6308Z" stroke="#EF2129" stroke-width="0.5"/>
<path d="M11.7824 20.5583C11.4149 20.6705 10.997 20.6736 10.4748 20.481C10.4524 20.4599 10.4292 20.4406 10.4095 20.4243C10.4001 20.4164 10.3915 20.4093 10.3842 20.403C10.3558 20.3783 10.3336 20.3555 10.3148 20.3241C10.2765 20.2601 10.2422 20.1435 10.2422 19.8739V19.8683L10.2415 19.8627C10.1763 19.3422 10.3394 18.8637 10.7362 18.5618C11.1283 18.2633 11.7665 18.124 12.6828 18.3122C12.8744 18.7612 12.9306 18.943 12.9306 19.1209C12.9306 19.214 12.9151 19.3089 12.8894 19.4464C12.8859 19.4649 12.8823 19.4842 12.8785 19.5042C12.8558 19.6238 12.828 19.771 12.7999 19.9626C12.4692 20.2258 12.1472 20.4468 11.7824 20.5583Z" stroke="#EF2129" stroke-width="0.5"/>
<path d="M25.8 12.9631L25.6738 11.8285C25.9389 11.4563 26.578 11.0741 27.4887 11.0732C27.978 11.1067 28.3177 11.302 28.5057 11.5507C28.694 11.7998 28.7354 12.108 28.6202 12.385C28.3943 12.9283 27.523 13.4125 25.8 12.9631Z" stroke="#EF2129" stroke-width="0.5"/>
<path d="M33.5889 12.0684C33.5594 11.7959 33.6799 11.5315 33.9027 11.3167C34.1255 11.1018 34.4454 10.9427 34.7956 10.8854C35.1451 10.8283 35.5208 10.8733 35.8573 11.0608C36.1844 11.2432 36.4803 11.564 36.6793 12.0714C36.2165 12.8994 35.4776 13.1799 34.8388 13.1159C34.1823 13.0501 33.6493 12.6271 33.5889 12.0684Z" stroke="#EF2129" stroke-width="0.5"/>
<path d="M8.14861 31.1375C7.65016 30.4929 7.5193 29.728 7.64127 28.9514C8.30643 28.4255 8.86923 28.2924 9.23999 28.4853C9.61155 28.6789 9.85311 29.2323 9.79135 30.2348C9.75853 30.2759 9.7274 30.3152 9.6976 30.3531C9.4836 30.6238 9.33979 30.8059 9.14854 30.9295C8.93793 31.0654 8.66186 31.1339 8.14861 31.1375Z" stroke="#EF2129" stroke-width="0.5"/>
<path d="M10.0164 23.7168C9.62372 24.2092 9.05343 24.4194 8.55775 24.1724C8.00064 23.861 7.89249 23.1369 8.21837 22.533C8.53454 21.9472 9.26066 21.4889 10.3569 21.7294C10.5968 22.5018 10.3997 23.2363 10.0164 23.7168Z" stroke="#EF2129" stroke-width="0.5"/>
<path d="M51.1715 35.6764C51.2183 36.1238 51.1204 36.6621 50.9279 37.1765C50.7343 37.6942 50.4485 38.1772 50.1329 38.5082C49.0525 38.1664 48.6969 37.3369 48.8985 36.6689C49.1 36.0009 49.8759 35.4392 51.1715 35.6764Z" stroke="#EF2129" stroke-width="0.5"/>
<path d="M55.9442 19.4809C55.946 19.4905 55.9482 19.4998 55.9503 19.509C55.9449 19.5941 55.942 19.7125 55.942 19.8724V20.0487C55.9327 20.0568 55.9251 20.065 55.9204 20.0709C55.9089 20.084 55.8981 20.0991 55.8888 20.1135C55.8693 20.1424 55.8506 20.1751 55.8373 20.1995C55.8348 20.2047 55.8319 20.2096 55.8297 20.214C55.2471 20.563 54.6961 20.5507 54.2559 20.3593C53.8071 20.1641 53.471 19.7816 53.3342 19.3952C53.1978 19.0098 53.2637 18.6418 53.5826 18.4328C53.909 18.2185 54.5298 18.1483 55.5591 18.4413C55.5825 18.4866 55.6077 18.5328 55.6336 18.5807C55.6865 18.6783 55.743 18.7826 55.7959 18.8994C55.8794 19.0831 55.942 19.2748 55.942 19.4614V19.4713L55.9442 19.4809Z" stroke="#EF2129" stroke-width="0.5"/>
<path d="M51.8536 16.9318V16.9318L51.8507 16.9298C51.4127 16.6263 51.178 16.3712 51.0661 16.1646C50.956 15.9619 50.9639 15.8065 51.0125 15.6886C51.0629 15.5657 51.1622 15.471 51.2558 15.4052C51.3018 15.3728 51.3443 15.3487 51.3753 15.3328C51.3907 15.3248 51.403 15.319 51.4116 15.3153C51.4156 15.3134 51.4188 15.312 51.4206 15.3112L51.4228 15.3104V15.3102C51.4228 15.3103 51.4228 15.3103 51.3893 15.2266L51.4494 15.2939C51.7337 15.0397 52.0645 14.9681 52.3909 15.0177C52.7198 15.0677 53.0459 15.2415 53.309 15.48C53.572 15.7188 53.7653 16.016 53.8369 16.3049C53.9078 16.5908 53.8596 16.8642 53.6469 17.0772C53.4695 17.2551 53.1614 17.324 52.8148 17.2909C52.4715 17.2581 52.1127 17.1263 51.8536 16.9318Z" stroke="#EF2129" stroke-width="0.5"/>
<path d="M41.2145 35.9693C41.1972 35.9267 41.1695 35.8633 41.1191 35.7609C41.6943 35.174 42.6638 35.2951 43.2936 35.8128C43.6121 36.0745 43.8309 36.4293 43.8608 36.8269C43.89 37.2116 43.7428 37.6521 43.3077 38.1034C43.0971 38.0458 42.9733 38.0288 42.8963 38.0288C42.8736 38.0288 42.8545 38.0303 42.8376 38.0328C42.8301 38.022 42.8207 38.0094 42.8092 37.9949C42.7531 37.9228 42.6487 37.8013 42.4446 37.5966L41.4913 36.3723C41.3984 36.2479 41.3401 36.173 41.303 36.125C41.2994 36.12 41.2958 36.1153 41.2922 36.1109C41.2537 36.0608 41.2476 36.0518 41.244 36.0443C41.2422 36.041 41.2404 36.037 41.2357 36.0241L41.235 36.0223C41.2307 36.01 41.2246 35.9931 41.2145 35.9693Z" stroke="#EF2129" stroke-width="0.5"/>
<path d="M22.533 11.615C23.0568 11.3608 23.8261 11.3502 24.6835 11.4763C24.7381 11.9462 24.6934 12.3091 24.5769 12.5844C24.4556 12.8707 24.2541 13.0688 23.9905 13.1967C23.4683 13.4501 22.6989 13.4295 21.8401 13.2376C21.7854 12.8 21.83 12.4618 21.9459 12.2033C22.0665 11.9345 22.2677 11.7438 22.533 11.615Z" stroke="#EF2129" stroke-width="0.5"/>
<path d="M44.2111 13.1115C43.5586 13.431 43.0443 13.4894 42.5998 13.3938C42.1586 13.2989 41.7739 13.0502 41.3809 12.7265C41.446 12.3516 41.5108 12.1368 41.6018 11.97C41.694 11.801 41.8156 11.6757 42.0114 11.4795C42.6747 11.3507 43.3196 11.391 43.7475 11.6447C43.9617 11.7718 44.1214 11.9523 44.2057 12.195C44.2874 12.4307 44.3 12.7323 44.2111 13.1115Z" stroke="#EF2129" stroke-width="0.5"/>
<path d="M18.8495 11.9181C19.3375 11.6345 20.0733 11.6226 20.8589 12.0047C20.9476 12.4494 20.9107 12.7911 20.7943 13.0469C20.6747 13.3096 20.4669 13.4916 20.2025 13.6038C19.6798 13.8257 18.9415 13.7713 18.283 13.5169C18.1068 12.7521 18.3697 12.1969 18.8495 11.9181Z" stroke="#EF2129" stroke-width="0.5"/>
<path d="M38.4655 9.61652C38.4655 9.92089 38.3079 10.1501 38.0548 10.3012C37.7986 10.454 37.4466 10.5247 37.0759 10.4999C36.3421 10.4509 35.5788 10.0338 35.3726 9.21939C35.6983 8.6755 36.454 8.47949 37.1601 8.57831C37.5157 8.62809 37.8461 8.75185 38.0851 8.93272C38.323 9.11282 38.4655 9.34477 38.4655 9.61652Z" stroke="#EF2129" stroke-width="0.5"/>
<path d="M30.6813 9.9739C30.0821 10.3056 29.5705 10.5524 29.0978 10.552C28.6359 10.5516 28.1905 10.3128 27.7305 9.60677C27.9954 8.98151 28.4704 8.67151 29.0083 8.59213C29.5485 8.51242 30.1577 8.66539 30.6813 8.98151V9.9739Z" stroke="#EF2129" stroke-width="0.5"/>
<path d="M34.5034 9.84464C33.0495 10.8787 31.8841 10.2592 31.6567 9.6061C31.5991 9.44081 31.5991 9.2731 31.6631 9.12259C31.7272 8.97226 31.8582 8.83044 32.0781 8.72388C32.5136 8.51287 33.287 8.446 34.5034 8.73267V9.84464Z" stroke="#EF2129" stroke-width="0.5"/>
<path d="M12.6501 15.8031C12.8843 15.4367 13.4049 15.1137 14.3569 15.041C14.4942 15.1501 14.5975 15.2255 14.6763 15.2831C14.6883 15.2918 14.6997 15.3001 14.7106 15.3081C14.7996 15.3733 14.846 15.41 14.8805 15.4515C14.9135 15.4911 14.9391 15.5397 14.9742 15.6348C14.9976 15.6981 15.0234 15.7771 15.058 15.8826C15.073 15.9286 15.0898 15.9796 15.1086 16.0366C14.6411 16.9229 14.1289 17.2973 13.6964 17.3807C13.261 17.4646 12.8815 17.2585 12.6684 16.9341C12.455 16.6092 12.4135 16.1734 12.6501 15.8031Z" stroke="#EF2129" stroke-width="0.5"/>
<path d="M41.2065 8.91867C41.5095 9.01006 41.8262 9.13533 42.1472 9.26421C42.1073 9.83312 41.9684 10.2022 41.7776 10.4296C41.5822 10.6621 41.3238 10.757 41.029 10.7572C40.7314 10.7575 40.3989 10.6604 40.0699 10.5094C39.7604 10.3674 39.4592 10.18 39.1997 9.98922C39.3005 9.55124 39.4524 9.261 39.6355 9.07556C39.8245 8.88421 40.0541 8.79707 40.3179 8.78107C40.5846 8.76488 40.8844 8.82148 41.2065 8.91867Z" stroke="#EF2129" stroke-width="0.5"/>
<path d="M49.4926 12.1663C49.7737 12.1036 50.1282 12.1647 50.5334 12.2996C51.0128 12.5056 51.2241 12.6324 51.3436 12.826C51.4037 12.9237 51.444 13.044 51.4771 13.2123C51.508 13.3693 51.5322 13.5614 51.5631 13.8087C50.9758 14.1126 50.2106 14.169 49.6362 13.993C49.3411 13.9025 49.105 13.7534 48.9668 13.5551C48.8311 13.3605 48.7818 13.1082 48.8769 12.7905C49.0053 12.4059 49.2213 12.2269 49.4926 12.1663Z" stroke="#EF2129" stroke-width="0.5"/>
<path d="M47.5143 13.6372C46.8557 13.7649 46.3144 13.7238 45.9394 13.4892C45.5702 13.258 45.3391 12.8239 45.333 12.1097C45.7796 11.6189 46.3418 11.5613 46.8482 11.7678C47.3553 11.9744 47.8044 12.4464 48.0099 13.0169L47.5143 13.6372Z" stroke="#EF2129" stroke-width="0.5"/>
<path d="M57.559 20.7365C57.2009 20.5339 56.9418 20.1925 56.6787 19.6138L57.4345 18.6045C58.2144 18.7417 58.6783 18.9737 58.9244 19.3436C59.1692 19.7118 59.2145 20.2405 59.0932 21.0152C58.3875 21.0105 57.9171 20.9391 57.559 20.7365Z" stroke="#EF2129" stroke-width="0.5"/>
<path d="M10.7979 17.6024V17.6023L10.795 17.6038C9.99852 18.0027 9.41189 17.7885 9.20556 17.4196C9.00078 17.0534 9.12657 16.4522 9.92179 15.9858C10.4235 15.7181 10.8111 15.6585 11.086 15.7145C11.3572 15.7697 11.5284 15.9389 11.6036 16.1573C11.7561 16.6009 11.5145 17.2754 10.7979 17.6024Z" stroke="#EF2129" stroke-width="0.5"/>
<path d="M16.6859 12.1785C16.9683 12.2087 17.193 12.327 17.311 12.5335C17.469 12.8178 17.4749 13.0883 17.3807 13.3249C17.2853 13.5645 17.0839 13.777 16.815 13.932C16.2852 14.2374 15.5175 14.3053 14.8732 13.9343C14.7061 13.1894 15.1717 12.6236 15.7706 12.3481C16.074 12.2084 16.4035 12.1483 16.6859 12.1785Z" stroke="#EF2129" stroke-width="0.5"/>
<path d="M45.7329 9.96645C45.7603 10.026 45.7898 10.0906 45.8225 10.1578C45.2978 10.9113 44.5701 11.086 43.9921 10.8822C43.4116 10.6776 42.9618 10.085 43.0082 9.25835C43.196 9.14995 43.498 9.08949 43.8298 9.07359C44.1793 9.0569 44.5438 9.09032 44.8073 9.15579C45.2071 9.28968 45.3932 9.41899 45.5141 9.57073C45.5764 9.64838 45.6242 9.73537 45.6743 9.84024C45.6926 9.8787 45.7121 9.92114 45.7329 9.96645Z" stroke="#EF2129" stroke-width="0.5"/>
<path d="M26.7401 10.3522L24.1753 10.4808C24.1918 9.92935 24.3529 9.50295 24.5969 9.19681C24.8542 8.87394 25.2082 8.67934 25.5971 8.61387C25.8913 8.58136 26.1206 8.61503 26.2957 8.69394C26.4701 8.77253 26.5963 8.89849 26.6814 9.06119C26.847 9.37782 26.8586 9.83868 26.7401 10.3522Z" stroke="#EF2129" stroke-width="0.5"/>
<path d="M54.6171 16.4431V16.443L54.6164 16.4396C54.5512 16.082 54.6275 15.8522 54.765 15.7201C54.9043 15.586 55.1281 15.5312 55.402 15.5716C55.9411 15.6512 56.6224 16.096 57.0237 16.871C56.8265 17.3479 56.5882 17.6057 56.3507 17.7218C56.1096 17.8398 55.8522 17.8194 55.6057 17.708C55.3581 17.5959 55.126 17.3932 54.9471 17.1584C54.7679 16.923 54.6484 16.6634 54.6171 16.4431Z" stroke="#EF2129" stroke-width="0.5"/>
<path d="M23.043 9.51716L23.0429 9.51724L23.0454 9.5216C23.1654 9.73191 23.1599 9.96581 23.0569 10.1875C22.9532 10.4109 22.7505 10.62 22.4826 10.7663C21.9576 11.0529 21.1936 11.0921 20.4824 10.5301C20.502 9.78758 21.0323 9.34845 21.6274 9.18716C21.9304 9.10496 22.2439 9.09747 22.5032 9.15796C22.7643 9.21885 22.957 9.34477 23.043 9.51716Z" stroke="#EF2129" stroke-width="0.5"/>
<path d="M13.6291 12.9589C13.6305 12.9598 13.6319 12.9607 13.6331 12.9615C13.8203 13.3133 13.855 13.6339 13.7897 13.9009C13.7231 14.1732 13.5507 14.3982 13.3122 14.5494C12.8456 14.8452 12.1238 14.8579 11.4795 14.3657C11.4913 14.3054 11.502 14.2481 11.5122 14.1932C11.557 13.9535 11.593 13.7606 11.6683 13.585C11.7617 13.3671 11.9171 13.176 12.2421 12.9796C12.6995 12.7838 13.0542 12.7858 13.2914 12.8334C13.411 12.8575 13.502 12.8933 13.5622 12.9225C13.5923 12.9371 13.6147 12.95 13.6291 12.9589Z" stroke="#EF2129" stroke-width="0.5"/>
<path d="M38.5028 6.55597C38.953 6.64263 39.4334 6.84833 39.8228 7.192C39.7555 7.63005 39.6584 7.83579 39.5133 7.98082C39.4363 8.05796 39.3417 8.12174 39.2193 8.19337C39.1729 8.22059 39.1203 8.25022 39.0631 8.28238C38.989 8.32416 38.9069 8.37023 38.8213 8.42095C37.8967 7.95313 37.4173 7.55167 37.2298 7.2442C37.1359 7.09037 37.1208 6.96953 37.1463 6.87797C37.1719 6.78597 37.2442 6.70359 37.3666 6.63856C37.6145 6.50683 38.0353 6.46606 38.5028 6.55597Z" stroke="#EF2129" stroke-width="0.5"/>
<path d="M36.3892 6.80593C36.2626 7.17469 36.1359 7.46831 35.9444 7.67546C35.7432 7.8927 35.4625 8.02288 35.0036 8.02288C34.4634 8.02288 34.177 7.95449 33.9769 7.8308C33.7962 7.71919 33.6774 7.55923 33.5058 7.32804C33.4928 7.31063 33.4795 7.29279 33.4658 7.27454C33.5957 6.9387 33.7591 6.72265 33.9448 6.58865C34.1392 6.44838 34.367 6.3916 34.6268 6.3916C34.8881 6.3916 35.1778 6.44907 35.4913 6.53404C35.6939 6.58894 35.9019 6.65405 36.1164 6.72117C36.2061 6.74926 36.2971 6.7777 36.3892 6.80593Z" stroke="#EF2129" stroke-width="0.5"/>
<path d="M54.8284 13.7365C54.6445 14.1049 54.5826 14.2271 54.5214 14.3191C54.4897 14.3667 54.4581 14.4064 54.4062 14.4712C54.3594 14.5299 54.2983 14.6067 54.2097 14.724C53.3636 14.7158 52.8234 14.4753 52.5243 14.1754C52.2202 13.8704 52.1605 13.5016 52.2731 13.2228C52.3851 12.9464 52.6744 12.7378 53.116 12.7675C53.5522 12.7967 54.1395 13.0602 54.8284 13.7365Z" stroke="#EF2129" stroke-width="0.5"/>
<path d="M18.7258 11.172L18.7164 11.1751L18.7078 11.1803C18.3685 11.3853 18.1488 11.4756 17.954 11.4756C17.7664 11.4756 17.5847 11.3916 17.323 11.197C17.1685 10.9118 17.1346 10.6503 17.1871 10.4308C17.2406 10.2072 17.3861 10.0167 17.6075 9.88216C18.0432 9.61734 18.774 9.57188 19.6214 9.94918C19.6185 10.3923 19.5803 10.6224 19.4679 10.7767C19.3509 10.9376 19.1412 11.0333 18.7258 11.172Z" stroke="#EF2129" stroke-width="0.5"/>
<path d="M13.7899 11.6521C13.7899 11.6521 13.79 11.6521 13.7893 11.6523C13.6646 10.9586 14.1324 10.4448 14.7215 10.2314C15.0151 10.125 15.3304 10.0977 15.6013 10.1596C15.8697 10.221 16.0911 10.3685 16.2138 10.6116C16.3285 10.9055 16.2152 11.1756 16.0065 11.4007C15.7962 11.6277 15.5028 11.7913 15.3103 11.8556L15.3103 11.8555L15.3079 11.8564C14.5694 12.126 14.1925 12.049 14.0044 11.9329C13.9095 11.8742 13.8557 11.8017 13.8255 11.7447C13.8104 11.7161 13.8012 11.6914 13.7959 11.6745C13.7933 11.666 13.7916 11.6596 13.7907 11.6557L13.7899 11.6519C13.7898 11.6516 13.7898 11.6515 13.7898 11.6515L13.7899 11.6518L13.7899 11.652V11.6521Z" stroke="#EF2129" stroke-width="0.5"/>
<path d="M30.8005 8.15619L29.9429 7.41997C30.3935 6.90921 30.7408 6.57827 31.1384 6.45552C31.5376 6.33241 32.0087 6.41388 32.7227 6.79666C32.6529 7.43547 32.5186 7.72305 32.2591 7.88181C32.1206 7.96664 31.9381 8.01989 31.6902 8.05986C31.4688 8.09559 31.2032 8.11967 30.88 8.14895C30.8541 8.15132 30.8275 8.15374 30.8005 8.15619Z" stroke="#EF2129" stroke-width="0.5"/>
<path d="M60.6307 23.3719C60.6404 23.6953 60.6192 24.0548 60.5886 24.4338C59.912 24.4145 59.4913 24.1559 59.2476 23.7433C58.9968 23.3189 58.9233 22.7165 58.9809 22.0006C59.4168 21.9143 59.736 21.9286 59.9692 22.0128C60.2096 22.0996 60.3676 22.2641 60.4698 22.4931C60.5738 22.7254 60.6202 23.0239 60.6307 23.3719Z" stroke="#EF2129" stroke-width="0.5"/>
<path d="M49.233 10.6926C48.7123 11.1981 48.2404 11.4021 47.8143 11.3563C47.3832 11.3099 46.9671 11.0048 46.5698 10.4207C46.6706 10.0153 46.8516 9.7684 47.065 9.63483C47.2853 9.4969 47.5541 9.47102 47.8359 9.53562C48.3858 9.66173 48.9588 10.1274 49.233 10.6926Z" stroke="#EF2129" stroke-width="0.5"/>
<path d="M49.9814 11.086C50.0837 10.622 50.273 10.3547 50.4921 10.2127C50.7199 10.0648 50.9971 10.0421 51.281 10.099C51.5653 10.1558 51.8489 10.2909 52.0785 10.4462C52.3071 10.601 52.4698 10.7671 52.5302 10.8831C52.5925 11.0739 52.5975 11.2245 52.5655 11.3428C52.5334 11.4611 52.4625 11.5559 52.3575 11.6312C52.1451 11.7837 51.7996 11.8524 51.4009 11.8541C51.2044 11.7854 50.8783 11.6217 50.5781 11.4545C50.4256 11.3695 50.282 11.2847 50.1682 11.213C50.0833 11.1593 50.0196 11.1157 49.9814 11.086Z" stroke="#EF2129" stroke-width="0.5"/>
<path d="M45.002 8.5774V8.57737L45.0005 8.57683C44.6475 8.44204 44.4272 8.30256 44.3038 8.17177C44.1832 8.04382 44.1598 7.93001 44.1847 7.83178C44.2113 7.72691 44.2984 7.61793 44.4431 7.51767C44.5863 7.4185 44.777 7.33461 44.9915 7.27678C45.4223 7.16059 45.9294 7.15479 46.3152 7.31986C46.5067 7.40177 46.6658 7.5247 46.7737 7.69522C46.8774 7.85889 46.9379 8.07248 46.9278 8.3483C46.9188 8.35775 46.9094 8.36738 46.9001 8.37707C46.7709 8.50985 46.6211 8.66378 46.3728 8.7468C46.0925 8.8405 45.6721 8.84659 45.002 8.5774Z" stroke="#EF2129" stroke-width="0.5"/>
<path d="M40.8315 7.17603C41.2102 6.76369 41.7356 6.70161 42.2636 6.84563C42.7822 6.98713 43.2885 7.32525 43.6214 7.70114C43.3702 8.01341 43.1856 8.21937 42.9628 8.33891C42.7321 8.46252 42.4485 8.4989 41.9814 8.43253C41.4405 8.29806 41.1976 8.16796 41.0648 7.99073C40.9982 7.90155 40.955 7.79455 40.9204 7.65518C40.8909 7.53758 40.869 7.4025 40.842 7.2401C40.8387 7.21919 40.8351 7.19784 40.8315 7.17603Z" stroke="#EF2129" stroke-width="0.5"/>
<path d="M26.2388 7.68187C26.4326 7.28326 26.6599 7.02493 26.8962 6.86641C27.1436 6.70047 27.4063 6.64031 27.6627 6.64813C28.156 6.6632 28.6255 6.93058 28.8953 7.18283C28.7639 7.61103 28.5752 7.85066 28.3023 8.01779C28.0186 8.19155 27.6396 8.29065 27.1133 8.4226C26.9203 8.23301 26.7573 8.10258 26.6113 7.98888C26.5958 7.97676 26.5805 7.96487 26.5654 7.95315C26.4472 7.86133 26.3422 7.77978 26.2388 7.68187Z" stroke="#EF2129" stroke-width="0.5"/>
<path d="M20.4453 7.3457C20.9883 7.3457 21.5777 7.49117 21.9259 7.61911C21.7208 8.36632 21.3404 8.72495 20.9 8.84684C20.4452 8.97276 19.9019 8.85354 19.3735 8.5947C19.3557 8.55252 19.3326 8.51647 19.3007 8.4916C19.2534 8.45479 19.2008 8.45273 19.1577 8.46611C19.1566 8.46643 19.1554 8.46683 19.1543 8.46719C19.1713 8.3704 19.2024 8.22115 19.2526 7.99555C19.3138 7.75149 19.4643 7.59189 19.6718 7.49073C19.883 7.38777 20.1535 7.3457 20.4453 7.3457Z" stroke="#EF2129" stroke-width="0.5"/>
<path d="M55.4429 13.4921C55.8755 13.2098 56.3955 13.2718 56.8378 13.5404C57.2837 13.8113 57.6328 14.2832 57.7106 14.7842C57.6472 14.856 57.5857 14.9482 57.5292 15.0331L57.5256 15.0384C57.4651 15.1294 57.4097 15.2121 57.3568 15.272C56.7061 15.2669 56.2674 15.1314 55.9734 14.8521C55.68 14.5741 55.5138 14.1381 55.4429 13.4921Z" stroke="#EF2129" stroke-width="0.5"/>
<path d="M22.7989 8.18556C22.7769 7.7181 22.8762 7.4099 23.036 7.2126C23.2018 7.00805 23.4445 6.90815 23.727 6.88386C24.2724 6.83696 24.9331 7.07608 25.3392 7.3302C25.2403 7.66258 25.1002 7.90203 24.934 8.0707C24.7579 8.24933 24.5484 8.35291 24.3164 8.40111C23.8634 8.49516 23.3252 8.37782 22.7989 8.18556Z" stroke="#EF2129" stroke-width="0.5"/>
<path d="M48.6615 7.69386C48.669 7.68701 48.6798 7.67565 48.687 7.65922C48.7173 7.65922 48.7504 7.65918 48.7874 7.65918C49.2503 7.72468 49.5724 7.85609 49.8113 8.04726C50.0374 8.22849 50.1957 8.46912 50.3249 8.77631C50.042 9.046 49.7642 9.18728 49.5058 9.24626C49.2337 9.30826 48.9771 9.28058 48.7507 9.20783C48.524 9.1349 48.3289 9.01694 48.1821 8.90061C48.0327 8.782 47.9424 8.67219 47.9169 8.62107V8.62104L47.9143 8.61668C47.7797 8.38047 47.7164 8.21861 47.6934 8.10984C47.6707 8.0004 47.6912 7.95991 47.7013 7.94711C47.7099 7.93623 47.7247 7.92837 47.7463 7.92483V7.96809L47.8647 7.92855L48.2674 7.79412C48.3836 7.77732 48.4675 7.76228 48.5262 7.74862C48.556 7.74163 48.5809 7.73463 48.601 7.72728C48.6187 7.7209 48.6424 7.71095 48.6615 7.69386Z" stroke="#EF2129" stroke-width="0.5"/>
<path d="M7.80908 21.1342L8.31189 18.7451C8.52214 18.7755 8.72645 18.807 8.9105 18.8513C9.11978 18.9017 9.29321 18.9666 9.41496 19.058C9.53269 19.1464 9.60233 19.2593 9.60945 19.417C9.61683 19.5805 9.55745 19.8018 9.3906 20.102C9.18978 20.437 8.99464 20.6635 8.73869 20.8243C8.50515 20.971 8.21439 21.0671 7.80908 21.1342Z" stroke="#EF2129" stroke-width="0.5"/>
<path d="M54.1615 12.2714L54.1558 12.2685L54.1496 12.2665C53.7595 12.1363 53.5785 11.9484 53.4874 11.7056C53.3975 11.4666 53.391 11.167 53.3906 10.7861C54.0269 10.6678 54.4897 10.7107 54.8244 10.9087C55.1606 11.1075 55.3877 11.4746 55.523 12.0498C55.333 12.2413 55.1854 12.38 55.0001 12.4371C54.8104 12.4958 54.5624 12.4723 54.1615 12.2714Z" stroke="#EF2129" stroke-width="0.5"/>
<path d="M16.114 9.19603C16.0696 9.17794 16.0239 9.15926 15.9775 9.142C16.0022 8.60344 16.3419 8.21046 16.8265 8.00717C17.3138 7.80269 17.942 7.79418 18.517 8.03071C18.4526 8.3959 18.3875 8.59652 18.274 8.73827C18.154 8.88813 17.9709 8.98366 17.6279 9.12116C17.0912 9.32333 16.7661 9.35289 16.5301 9.32135C16.4116 9.30548 16.3121 9.27376 16.2153 9.23659C16.1827 9.22408 16.1488 9.21024 16.114 9.19603Z" stroke="#EF2129" stroke-width="0.5"/>
<path d="M7.2373 27.6934V25.0312C7.75184 25.0768 8.10886 25.2366 8.33365 25.4488C8.57075 25.6726 8.66839 25.9616 8.64478 26.2611C8.59914 26.8394 8.09594 27.4681 7.2373 27.6934Z" stroke="#EF2129" stroke-width="0.5"/>
<path d="M36.4803 4.69552C36.9708 4.74311 37.5088 4.95909 37.9015 5.26836C37.6337 5.94257 37.1371 6.20296 36.6512 6.15725C36.1542 6.1105 35.6442 5.74105 35.3765 5.10733C35.5661 4.77321 35.9822 4.64714 36.4803 4.69552Z" stroke="#EF2129" stroke-width="0.5"/>
<path d="M33.1067 6.0091C32.6402 6.10272 32.1414 5.98682 31.6934 5.49834C31.7376 5.38651 31.774 5.29307 31.8042 5.2147C31.86 5.07151 31.896 4.97871 31.9251 4.91631C31.9489 4.8658 31.9626 4.84825 31.9698 4.84154C31.9701 4.84143 31.9701 4.84132 31.9701 4.84122C31.9726 4.83898 31.9755 4.83621 31.9949 4.8335C32.0047 4.83213 32.0169 4.83116 32.032 4.82997C32.0896 4.82536 32.1864 4.81764 32.3279 4.77276C32.4981 4.71875 32.7381 4.61104 33.0894 4.39062L34.3227 5.25781C33.996 5.62383 33.5623 5.91761 33.1067 6.0091Z" stroke="#EF2129" stroke-width="0.5"/>
<path d="M23.041 5.228C23.2681 5.274 23.5259 5.34819 23.8289 5.439C23.8235 5.45526 23.8182 5.47108 23.8131 5.48655C23.7367 5.71648 23.6884 5.8618 23.6434 5.96378C23.5931 6.07781 23.5513 6.12731 23.4822 6.17572C23.4443 6.20226 23.3973 6.2289 23.3327 6.26397C23.3189 6.27144 23.3044 6.27926 23.2892 6.28748C23.234 6.31726 23.1689 6.35233 23.0929 6.39556C22.9067 6.50151 22.6543 6.65656 22.3022 6.91122C22.0554 6.75923 21.8951 6.67916 21.7883 6.63298C21.731 6.60825 21.6898 6.59358 21.6607 6.5832C21.6457 6.57786 21.6361 6.57444 21.6287 6.57141C21.628 6.57112 21.6273 6.57087 21.6267 6.57062C21.6231 6.56099 21.6196 6.54841 21.6135 6.52703C21.6109 6.51773 21.6078 6.50681 21.604 6.49376C21.581 6.41412 21.5408 6.28532 21.4497 6.06833C21.7778 5.48893 22.0622 5.25428 22.4066 5.19422C22.5872 5.16271 22.7923 5.17767 23.041 5.228Z" stroke="#EF2129" stroke-width="0.5"/>
<path d="M53.2131 9.59139C53.2131 9.59142 53.2131 9.59146 53.2131 9.5915V9.592L53.2113 9.59745C53.2095 9.60256 53.2066 9.6106 53.2023 9.62088C53.1937 9.6415 53.18 9.67066 53.1595 9.70318C53.1184 9.76854 53.0529 9.84475 52.9522 9.89529C52.7575 9.99302 52.3857 10.0144 51.7149 9.54319C51.446 9.34286 51.2898 9.18362 51.197 8.98225C51.1102 8.79428 51.0739 8.56035 51.0688 8.2041C51.644 8.21679 52.236 8.34957 52.6581 8.58386C52.8802 8.707 53.0493 8.85503 53.1472 9.02244C53.244 9.18716 53.2746 9.37552 53.2131 9.59139ZM53.2131 9.59139L53.2135 9.59114V9.59128L53.2131 9.59139Z" stroke="#EF2129" stroke-width="0.5"/>
<path d="M38.9258 5.47706C38.965 5.33138 39.0593 5.22431 39.1979 5.14644C39.3562 5.05722 39.5714 5.0075 39.8208 4.99081C40.2963 4.95901 40.8681 5.04892 41.3302 5.17488C41.3328 5.54772 41.3569 5.77184 41.3752 5.90833C41.3792 5.93828 41.3828 5.96237 41.3857 5.98223C41.3878 5.99773 41.3896 6.01064 41.3911 6.02174C41.3896 6.02192 41.3882 6.0221 41.3867 6.02232C41.3482 6.0274 41.2935 6.03555 41.2205 6.05646C41.0787 6.09709 40.8724 6.184 40.5727 6.38228C40.2678 6.37536 39.9868 6.25055 39.7111 6.07171C39.525 5.95072 39.3487 5.8107 39.1712 5.66949C39.0899 5.60504 39.0086 5.54033 38.9258 5.47706ZM41.4314 6.01576C41.4314 6.01576 41.431 6.01579 41.431 6.01586L41.4314 6.01576Z" stroke="#EF2129" stroke-width="0.5"/>
<path d="M18.5117 6.93725L18.5069 6.93544L18.5019 6.93418C18.2328 6.8668 18.1565 6.80454 18.1247 6.76208C18.1096 6.74189 18.1015 6.72307 18.0889 6.6938C18.0867 6.68864 18.0843 6.68316 18.0817 6.67729C18.0747 6.66121 18.0666 6.64362 18.0562 6.62519L18.8021 6.00253C19.2377 5.8013 19.5603 5.6859 19.8009 5.63269C20.0446 5.5788 20.1933 5.5912 20.2877 5.63179C20.3779 5.67058 20.4328 5.74146 20.4745 5.84409C20.5071 5.92423 20.5281 6.01392 20.5517 6.11429C20.5573 6.13848 20.5631 6.16328 20.5693 6.18873C20.372 6.57288 20.1172 6.8508 19.7933 6.9902C19.4623 7.13264 19.0437 7.13707 18.5117 6.93725Z" stroke="#EF2129" stroke-width="0.5"/>
<path d="M37.2175 4.05531C37.1095 4.01768 37.0033 3.98058 36.9004 3.95026C36.9371 3.84388 36.963 3.7447 36.986 3.65717C36.9932 3.62884 37.0004 3.60176 37.0076 3.57603C37.0436 3.44368 37.0778 3.35118 37.139 3.28279C37.1977 3.21747 37.2909 3.16404 37.4676 3.1361C37.6461 3.10788 37.9016 3.10708 38.2745 3.14111L38.2784 3.14147H38.2827C38.7546 3.14147 38.9302 3.21022 39.0407 3.30745C39.0986 3.35835 39.1432 3.42058 39.203 3.50418L39.2059 3.50843C39.2559 3.57819 39.3138 3.65833 39.3937 3.74539C39.3203 3.85992 39.2966 3.9539 39.3149 4.0344C39.3185 4.05153 39.3246 4.06735 39.3318 4.08177C39.294 4.09028 39.2462 4.10052 39.1861 4.11346C39.0929 4.13347 38.9694 4.15993 38.8064 4.19631L38.8021 4.19732L38.7978 4.19879C38.4091 4.32854 38.0524 4.29707 37.7217 4.21397C37.5554 4.17226 37.397 4.11786 37.2434 4.06433C37.2347 4.0613 37.2261 4.0583 37.2175 4.05531Z" stroke="#EF2129" stroke-width="0.5"/>
<path d="M36.7499 1.08984H37.302L38.0441 1.40842L36.7978 1.3303L36.7499 1.08984ZM37.4625 2.47252C36.9644 2.71236 36.5682 2.82192 36.2087 2.77682C35.8502 2.73179 35.5108 2.53027 35.1333 2.10812C35.1941 2.05249 35.2233 2.00094 35.2456 1.9561C35.2477 1.95152 35.2499 1.9473 35.2517 1.94341C35.2625 1.92185 35.2683 1.91031 35.2765 1.89917C35.2837 1.88937 35.2942 1.87906 35.3161 1.86799C35.3669 1.84254 35.4698 1.81737 35.7001 1.80025C35.9269 1.78338 36.2655 1.7748 36.7769 1.7748H36.8867L36.8651 1.66701L36.8583 1.63208C36.8601 1.63251 36.8622 1.6329 36.8644 1.6333L37.4625 2.47252Z" stroke="#EF2129" stroke-width="0.5"/>
<path d="M44.7186 6.25973C44.2295 6.31921 43.8868 6.34719 43.5604 6.33158C43.2243 6.3155 42.9022 6.25303 42.453 6.12653L42.3364 5.65957C42.3832 5.54147 42.4131 5.45689 42.4343 5.39737C42.4412 5.37823 42.4469 5.36168 42.452 5.34744C42.4638 5.31511 42.4707 5.29903 42.4761 5.28958C42.4779 5.28634 42.4789 5.2849 42.4793 5.28443C42.4793 5.28443 42.4797 5.28443 42.4797 5.28439C42.4822 5.2827 42.4883 5.27945 42.5113 5.27116C42.5157 5.26961 42.5203 5.26792 42.5254 5.26608C42.5452 5.25909 42.5707 5.24989 42.602 5.23742C42.6772 5.20717 42.7849 5.15757 42.9439 5.06348C43.4035 5.1314 43.7868 5.231 44.088 5.42088C44.3691 5.5981 44.584 5.85774 44.7186 6.25973Z" stroke="#EF2129" stroke-width="0.5"/>
<path d="M34.473 4.19713L34.4702 4.19648L34.4666 4.19608C33.9253 4.12827 33.7644 3.99676 33.7 3.85436C33.6644 3.77584 33.6521 3.6833 33.6413 3.56455C33.6403 3.55186 33.6388 3.53889 33.6377 3.52566C33.6298 3.43434 33.6208 3.33124 33.5981 3.22208C33.651 3.18188 33.7248 3.14716 33.818 3.1198C33.9332 3.08591 34.0707 3.06526 34.2193 3.05697C34.5119 3.04064 34.8369 3.0725 35.0993 3.13638L35.1047 3.13988C35.1162 3.1476 35.1331 3.15852 35.154 3.17161C35.1954 3.19774 35.2519 3.23275 35.3134 3.26782C35.3742 3.30276 35.4415 3.33866 35.5031 3.36613C35.5491 3.38657 35.6017 3.40691 35.6492 3.41401C35.7733 3.5072 35.8345 3.55341 35.8655 3.57847C35.8673 3.57998 35.8691 3.58135 35.8705 3.58262C35.8723 3.58925 35.8745 3.59657 35.8781 3.6045C35.8863 3.62414 35.9 3.64531 35.9191 3.67014C35.9465 3.70627 35.9914 3.75829 36.0659 3.83605C35.9173 3.88951 35.7874 3.942 35.6701 3.9902C35.6528 3.99727 35.6359 4.00422 35.6193 4.01107C35.4883 4.06493 35.3746 4.11172 35.2645 4.14864C35.0212 4.22997 34.7977 4.26216 34.473 4.19713Z" stroke="#EF2129" stroke-width="0.5"/>
<path d="M27.3605 5.18658C27.3285 5.27743 27.3151 5.35663 27.3034 5.42541C27.3028 5.42942 27.3021 5.43342 27.3014 5.43735C27.2845 5.53667 27.27 5.60758 27.2152 5.68314C27.1587 5.76093 27.0533 5.85146 26.8366 5.96646C26.626 6.07821 26.3173 6.20954 25.8607 6.37422C25.557 6.22505 25.3987 6.18763 25.3031 6.16499C25.2755 6.15846 25.2531 6.15316 25.234 6.14674C25.1992 6.13514 25.168 6.11855 25.111 6.06149C25.059 6.00943 24.9902 5.92835 24.8833 5.79562L25.6162 5.06152L27.3605 5.18658Z" stroke="#EF2129" stroke-width="0.5"/>
<path d="M29.1137 6.05563C29.0132 5.98858 28.9087 5.91875 28.7706 5.84899C28.5075 5.651 28.442 5.58539 28.4115 5.55493L28.4106 5.55395L28.4101 5.55352C28.3919 5.53528 28.3771 5.52039 28.3462 5.50186C28.3406 5.49847 28.3343 5.49487 28.3271 5.49097L28.6421 5.17553C28.9808 4.97221 29.2685 4.81597 29.6156 4.80014C29.9444 4.78514 30.3406 4.89632 30.8927 5.24929C30.7656 5.35654 30.6638 5.45287 30.5735 5.54C30.5537 5.55932 30.5342 5.57811 30.5155 5.59635C30.4288 5.68078 30.3532 5.75432 30.2719 5.82246C30.0836 5.97999 29.8627 6.10942 29.416 6.24039C29.3 6.17997 29.2092 6.1194 29.1148 6.05639L29.1137 6.05563Z" stroke="#EF2129" stroke-width="0.5"/>
<path d="M32.7145 3.94234C31.9475 4.1285 31.4771 4.15136 31.1219 4.04295C30.7836 3.93971 30.5367 3.71356 30.2305 3.35436C31.3893 2.79248 31.9695 2.82074 32.2739 3.02396C32.4316 3.12904 32.5291 3.28896 32.5957 3.47149C32.6526 3.62639 32.6846 3.78988 32.7145 3.94234Z" stroke="#EF2129" stroke-width="0.5"/>
<path d="M58.9477 32.1915C59.1143 32.0801 59.3385 32.0137 59.7337 32.0029L59.088 34.1977C59.0337 34.2799 58.9959 34.3393 58.9685 34.383C58.9631 34.3913 58.9581 34.3992 58.9538 34.4064C58.9221 34.4562 58.9106 34.4724 58.902 34.481C58.898 34.485 58.8948 34.4879 58.866 34.5005C58.8616 34.5023 58.857 34.5041 58.8516 34.5063C58.8347 34.5138 58.8127 34.5228 58.7853 34.5355C58.3895 34.0318 58.2703 33.4496 58.4312 32.7795C58.4553 32.747 58.4784 32.716 58.5003 32.6861C58.6666 32.4597 58.7828 32.3018 58.9477 32.1915Z" stroke="#EF2129" stroke-width="0.5"/>
<path d="M46.3891 6.67281L46.3783 6.66495L46.3653 6.66066C46.1649 6.59372 46.05 6.53247 45.9644 6.41808C45.8823 6.30856 45.8204 6.14154 45.7578 5.85029C46.3941 5.66777 46.8541 5.65079 47.201 5.81673C47.5414 5.97967 47.7962 6.3308 47.9946 6.94492C47.7732 6.9769 47.6127 7.01374 47.4875 7.0438C47.477 7.04629 47.4673 7.04871 47.4572 7.05105C47.3277 7.08227 47.2489 7.10123 47.174 7.10123C47.1002 7.10123 47.0254 7.08205 46.9077 7.01799C46.7871 6.95256 46.6291 6.84459 46.3891 6.67281Z" stroke="#EF2129" stroke-width="0.5"/>
<path d="M28.6774 4.20481C28.284 4.40143 27.966 4.43048 27.6672 4.3515C27.3882 4.27774 27.1178 4.10794 26.8125 3.87012C27.3079 3.43986 27.5518 3.27075 27.847 3.22633C28.0041 3.20268 28.1811 3.21386 28.4263 3.24994C28.5678 3.27074 28.7274 3.29904 28.9157 3.33243C29.026 3.35197 29.1461 3.37327 29.2781 3.3958C29.2091 3.5811 29.193 3.70703 29.2069 3.7974C29.2135 3.84012 29.2267 3.87412 29.243 3.90152C29.2269 3.90999 29.208 3.91979 29.1861 3.93119C29.0874 3.98234 28.9272 4.0654 28.6774 4.20481Z" stroke="#EF2129" stroke-width="0.5"/>
<path d="M49.7426 7.39865C49.4046 7.20722 49.1268 6.83489 48.8184 6.29785L50.5163 6.41959L51.1163 7.38116C50.5019 7.60904 50.083 7.59134 49.7426 7.39865Z" stroke="#EF2129" stroke-width="0.5"/>
<path d="M42.5419 4.24461C42.0305 4.55277 41.631 4.66247 41.287 4.58785C40.9487 4.51434 40.6395 4.25651 40.3203 3.76763C40.7662 3.52577 41.2251 3.38676 41.6166 3.43247C41.8225 3.45652 42.0097 3.53158 42.1694 3.67026C42.3174 3.79849 42.4455 3.98466 42.5419 4.24461Z" stroke="#EF2129" stroke-width="0.5"/>
<path d="M25.8159 3.72464C25.8353 3.73783 25.8554 3.75153 25.8764 3.76573C25.8738 3.77118 25.8711 3.77662 25.8684 3.7821C25.742 4.04087 25.6139 4.30303 25.3367 4.442C25.0435 4.58905 24.5566 4.607 23.6743 4.24419C23.6805 4.23449 23.6873 4.22379 23.6943 4.2129C23.7051 4.19581 23.7163 4.17819 23.7262 4.16301C23.7733 4.0908 23.8331 4.00648 23.9207 3.91833C24.0936 3.74425 24.3825 3.54756 24.909 3.41406C25.1676 3.41496 25.3227 3.44802 25.4597 3.50902C25.573 3.55949 25.6753 3.62899 25.8159 3.72464Z" stroke="#EF2129" stroke-width="0.5"/>
<path d="M45.811 4.76652C45.5429 4.82596 45.305 4.87597 45.0916 4.9039C44.853 4.93512 44.6518 4.93776 44.4791 4.89814C44.3085 4.85909 44.1627 4.77831 44.0346 4.63641C43.914 4.50292 43.8064 4.31253 43.7114 4.04501C44.2156 3.68923 44.6734 3.67153 45.0355 3.83772C45.3903 4.00052 45.6685 4.34693 45.811 4.76652Z" stroke="#EF2129" stroke-width="0.5"/>
<path d="M34.3254 2.44013C34.3071 2.4442 34.2895 2.4482 34.2715 2.45221C33.7428 2.57077 33.3854 2.65091 33.0424 2.63592C32.6951 2.62078 32.3572 2.50693 31.8706 2.2138C32.1988 1.91495 32.6512 1.66505 33.0957 1.6357C33.3354 1.61988 33.5718 1.668 33.7881 1.80604C33.9843 1.93117 34.1692 2.13348 34.3254 2.44013Z" stroke="#EF2129" stroke-width="0.5"/>
<path d="M22.0387 3.74425C22.2198 3.79255 22.4141 3.94285 22.6036 4.26957C22.2201 4.70769 21.9389 4.88513 21.6372 4.94573C21.4786 4.9776 21.3091 4.97821 21.1081 4.96141C20.9651 4.94944 20.8101 4.92911 20.6339 4.906C20.6037 4.90204 20.573 4.898 20.5415 4.89389C20.7541 4.55747 21.0842 4.11109 21.447 3.87842C21.6487 3.74904 21.8484 3.69345 22.0387 3.74425Z" stroke="#EF2129" stroke-width="0.5"/>
<path d="M40.5135 2.41745C40.5409 2.47553 40.5718 2.54053 40.6122 2.61032C40.1184 2.90276 39.7524 2.95427 39.4213 2.89382C39.1308 2.84086 38.8638 2.70272 38.55 2.54053C38.492 2.51064 38.4326 2.47996 38.3711 2.44885C38.3805 2.35771 38.4139 2.28385 38.4647 2.22234C38.5266 2.14754 38.6187 2.08647 38.7375 2.0387C38.9754 1.9431 39.3 1.90864 39.6361 1.9082C40.1047 1.97591 40.2811 2.07443 40.3782 2.18565C40.429 2.24369 40.4628 2.31027 40.5035 2.39614C40.5071 2.40314 40.5103 2.41024 40.5135 2.41745Z" stroke="#EF2129" stroke-width="0.5"/>
<path d="M29.7465 1.70269C30.053 1.64407 30.4165 1.74973 30.9203 2.11424C30.6666 2.46537 30.3636 2.66206 30.0256 2.70633C29.6844 2.75103 29.291 2.64263 28.8555 2.35004C29.1694 1.98456 29.4425 1.76084 29.7465 1.70269Z" stroke="#EF2129" stroke-width="0.5"/>
<path d="M27.3183 2.83262C26.9973 2.96035 26.6745 2.96153 26.3578 2.92804C26.2411 2.91571 26.1275 2.89899 26.0147 2.88237C25.973 2.87624 25.9315 2.87011 25.8899 2.86424C25.7703 2.84733 25.6517 2.83262 25.5366 2.8271C25.5439 2.70677 25.5666 2.61091 25.6023 2.53297C25.6456 2.43819 25.7104 2.36497 25.8001 2.30488C25.9851 2.18076 26.2712 2.11428 26.6832 2.04539C27.0208 2.01172 27.2425 2.01251 27.3878 2.03245C27.5349 2.05264 27.5892 2.09045 27.6108 2.11644C27.6321 2.142 27.637 2.17294 27.6392 2.22917C27.6393 2.23191 27.6394 2.2348 27.6395 2.23782C27.6403 2.26147 27.6414 2.2924 27.6468 2.3211C27.6495 2.3353 27.6535 2.35048 27.6596 2.3658C27.6085 2.45056 27.5838 2.51646 27.5742 2.57201C27.5684 2.60525 27.5685 2.6324 27.5698 2.65442C27.5704 2.66275 27.5711 2.67083 27.5717 2.67674C27.5719 2.67807 27.572 2.6793 27.5721 2.68038C27.5723 2.68308 27.5725 2.68517 27.5726 2.68687C27.5698 2.68957 27.5652 2.69372 27.5576 2.69941C27.5227 2.72562 27.454 2.76459 27.3183 2.83262Z" stroke="#EF2129" stroke-width="0.5"/>
<path d="M48.7087 5.21396C48.7152 5.24129 48.7257 5.27287 48.7393 5.30907C48.7519 5.34162 48.7678 5.37954 48.7879 5.4237C48.4766 5.42342 48.2182 5.42125 47.9972 5.40481C47.7435 5.38592 47.5459 5.34858 47.3797 5.27738C47.0694 5.1445 46.8488 4.88468 46.5947 4.33567C46.8895 4.25932 47.2627 4.34692 47.6147 4.50057C47.999 4.66845 48.3301 4.90245 48.4568 5.02964L48.4604 5.03317L48.4644 5.03631C48.5511 5.10578 48.6173 5.15463 48.6681 5.18819C48.6825 5.19774 48.6958 5.20632 48.7087 5.21396Z" stroke="#EF2129" stroke-width="0.5"/>
<path d="M44.1537 39.6735C44.1242 39.6068 44.0875 39.5242 44.0371 39.4189C44.6878 39.5498 45.1254 39.7131 45.4209 39.9795C45.7113 40.2413 45.8754 40.6129 45.9528 41.1897C45.6242 41.0145 45.459 40.8884 45.1589 40.6587C45.0804 40.5989 44.9926 40.5318 44.8904 40.455C44.8156 40.3927 44.7501 40.3386 44.6925 40.2914C44.5921 40.2084 44.5158 40.1457 44.4553 40.0934C44.3606 40.0116 44.3117 39.9619 44.2754 39.9114C44.2386 39.8602 44.212 39.8043 44.1667 39.7027C44.1627 39.6933 44.1584 39.6836 44.1537 39.6735Z" stroke="#EF2129" stroke-width="0.5"/>
<path d="M42.5179 3.27281C42.1878 3.18683 41.8855 2.9114 41.5742 2.44196C42.1112 2.38446 42.4711 2.36225 42.786 2.42249C43.0973 2.48208 43.3712 2.62397 43.7307 2.91194C43.2369 3.26001 42.85 3.35944 42.5179 3.27281Z" stroke="#EF2129" stroke-width="0.5"/>
<path d="M59.6381 29.3818C59.6939 29.0613 59.9289 28.8161 60.4482 28.6211C60.4471 29.5833 60.4274 30.1914 60.0077 30.7845C59.871 30.4997 59.768 30.2491 59.7036 30.0271C59.6291 29.7715 59.6071 29.5598 59.6381 29.3818Z" stroke="#EF2129" stroke-width="0.5"/>
<path d="M11.5518 12.4917C11.7265 12.1425 11.9012 11.8064 12.0878 11.533C12.2904 11.2362 12.496 11.0303 12.7146 10.9531C12.7259 10.9619 12.7375 10.9691 12.7478 10.9749C12.7706 10.9879 12.8006 11.0018 12.8289 11.015C12.8392 11.0197 12.8492 11.0244 12.8586 11.0288C12.94 11.0675 13.01 11.1091 13.0457 11.1688C13.0758 11.2192 13.0933 11.304 13.0127 11.4614C12.9311 11.621 12.7544 11.8414 12.4193 12.1439C12.2218 12.2754 12.0933 12.3389 11.9504 12.3867C11.8487 12.4206 11.7408 12.4464 11.5942 12.4815C11.5804 12.4848 11.5663 12.4882 11.5518 12.4917Z" stroke="#EF2129" stroke-width="0.5"/>
<path d="M15.1574 8.61245C15.1783 8.61271 15.1996 8.61292 15.2215 8.61314C15.0923 9.07905 14.9339 9.33501 14.6883 9.50855C14.4443 9.68102 14.1062 9.77904 13.5938 9.89689C13.9548 9.19539 14.1979 8.88106 14.4289 8.73665C14.6371 8.60643 14.84 8.60878 15.1574 8.61245Z" stroke="#EF2129" stroke-width="0.5"/>
<path d="M16.123 7.45088C16.2341 7.33361 16.3156 7.24075 16.3819 7.16417C16.392 7.15249 16.4017 7.14128 16.411 7.13043C16.4922 7.03652 16.5465 6.97358 16.6105 6.9168C16.7398 6.80205 16.9102 6.71099 17.413 6.48438C17.3855 6.67699 17.3563 6.82458 17.3166 6.94045C17.2677 7.08321 17.2049 7.17174 17.1138 7.23487C17.0192 7.30041 16.8856 7.34468 16.6825 7.38037C16.5314 7.4069 16.3484 7.42774 16.123 7.45088Z" stroke="#EF2129" stroke-width="0.5"/>
<path d="M32.4293 1.09013H32.5243H32.5451C32.5451 1.10213 32.5451 1.11745 32.5451 1.13699V1.09013L32.5919 1C32.5919 1.01849 32.5876 1.02635 32.5858 1.0292C32.5836 1.03266 32.5797 1.03605 32.5736 1.03926C32.5667 1.04265 32.5588 1.04481 32.552 1.04596C32.5487 1.04651 32.5462 1.04676 32.5448 1.04683C32.5444 1.04687 32.5444 1.04687 32.5441 1.04687H32.5261L32.5088 1.05469L32.4293 1.09013ZM32.4293 1.09013H30.958L31.3449 1.57432L32.4293 1.09013Z" stroke="#EF2129" stroke-width="0.5"/>
<path d="M59.9194 19.9648C60.1652 20.2811 60.2819 20.4998 60.3211 20.6473C60.3438 20.7319 60.3384 20.785 60.3261 20.8177C60.3142 20.8486 60.2919 20.8715 60.257 20.8891C60.1796 20.9278 60.0573 20.931 59.94 20.9183C59.8928 20.9132 59.8496 20.9059 59.8154 20.8992L59.9194 19.9648Z" stroke="#EF2129" stroke-width="0.5"/>
<path d="M10.1862 14.8409C10.1714 14.8523 10.1562 14.864 10.1405 14.8761C10.1458 14.8256 10.1477 14.7847 10.1477 14.7504C10.1477 14.712 10.1453 14.6831 10.143 14.6601C10.1425 14.6554 10.1421 14.6513 10.1417 14.6475C10.1401 14.6313 10.1392 14.6226 10.1392 14.6134C10.1392 14.5996 10.1408 14.5801 10.1724 14.5167C10.2042 14.4531 10.2605 14.356 10.36 14.1898C10.4583 14.0914 10.5149 14.0347 10.5512 14.0004C10.5891 13.9645 10.598 13.9598 10.6023 13.9577C10.6055 13.9561 10.6082 13.955 10.6152 13.9522C10.6176 13.9512 10.6205 13.95 10.6241 13.9486C10.6369 13.9434 10.6531 13.9365 10.6749 13.9256C10.6875 13.9193 10.7019 13.9117 10.7184 13.9023C10.6972 14.0438 10.6786 14.1532 10.6581 14.2422C10.6296 14.3665 10.5986 14.4445 10.5556 14.5088C10.5122 14.5739 10.4526 14.631 10.3561 14.7087C10.3132 14.7432 10.2644 14.7807 10.2075 14.8245C10.2005 14.8299 10.1934 14.8354 10.1862 14.8409Z" stroke="#EF2129" stroke-width="0.5"/>
</svg>
