<svg width="60" height="44" viewBox="0 0 60 44" fill="none" xmlns="http://www.w3.org/2000/svg">
<path d="M29.9829 43.9983C21.128 43.9983 12.273 43.9983 3.41983 43.9983C3.35913 43.9983 3.30017 43.9983 3.23947 43.9983C2.59607 43.9896 2.21108 43.611 2.21108 42.9729C2.20761 41.294 2.21108 39.6168 2.21108 37.9379C2.21108 34.1789 2.21108 30.4199 2.21108 26.6609C2.21108 26.3289 2.21108 26.3289 1.86423 26.3289C1.56421 26.3289 1.26246 26.3324 0.962437 26.3272C0.378004 26.3151 -0.0295383 25.9313 0.00167766 25.352C0.0831861 23.8201 0.678025 22.5354 1.94921 21.619C2.15038 21.4737 2.21801 21.3371 2.21801 21.0985C2.21108 17.8444 2.21281 14.5903 2.21281 11.3362C2.21281 10.7206 2.38103 10.4769 2.9672 10.2711C3.07992 10.2313 3.11287 10.1587 3.13021 10.0671C3.29323 9.21117 3.67823 8.46595 4.28521 7.84348C4.52453 7.59795 4.81414 7.4043 5.13324 7.27289C5.32747 7.19335 5.3795 7.07405 5.37603 6.88039C5.36736 6.33228 5.37256 5.78416 5.37603 5.23605C5.37603 4.85911 5.46794 4.51676 5.80959 4.30235C6.46339 3.89429 7.25419 4.33002 7.27674 5.1202C7.29235 5.71846 7.28194 6.31844 7.28021 6.91843C7.28021 7.06367 7.29755 7.17606 7.45363 7.25214C8.59995 7.80371 9.2156 8.76162 9.50868 9.95813C9.55551 10.1483 9.61794 10.2607 9.82951 10.323C10.218 10.4354 10.4348 10.7673 10.4365 11.1823C10.4417 11.9621 10.4417 12.7402 10.4365 13.52C10.4365 13.6704 10.4625 13.7396 10.6359 13.7119C12.0268 13.4923 13.4142 14.5436 13.4072 16.1949C13.4055 16.7776 13.4072 17.3603 13.4072 17.9412C13.4072 18.2058 13.6639 18.3614 13.8963 18.2421C13.9986 18.1902 13.9604 18.0917 13.9604 18.0121C13.9639 17.3793 13.9552 16.7447 13.9639 16.1119C13.9778 15.1592 14.3975 14.4381 15.2386 13.9765C15.3964 13.89 15.4553 13.7897 15.4536 13.6134C15.4449 12.8595 15.4536 12.1056 15.4467 11.3535C15.4397 10.6134 15.7883 10.2452 16.5357 10.2348C16.9312 10.2296 17.3266 10.2261 17.7202 10.2348C17.9214 10.24 18.0029 10.1622 18.0411 9.96159C18.5006 7.53916 19.8949 5.87407 22.172 4.93519C22.5292 4.78822 22.9055 4.68448 23.2871 4.62915C23.5004 4.59802 23.5698 4.50292 23.5472 4.30754C23.5472 4.29889 23.5472 4.29025 23.5472 4.2816C23.5958 3.84069 23.5039 3.49834 23.1189 3.17673C22.5067 2.66493 22.413 1.69838 22.805 1.00675C23.2455 0.228669 24.0675 -0.14308 24.919 0.0505757C25.7185 0.232128 26.315 0.939316 26.3688 1.74679C26.4156 2.42458 26.1763 2.97443 25.6387 3.38249C25.4739 3.50698 25.4254 3.64358 25.4254 3.83896C25.4306 4.55998 25.4254 4.55998 26.1347 4.7277C28.488 5.28273 30.4841 7.4164 30.8968 9.81808C30.9107 9.89415 30.935 9.96851 30.9385 10.0446C30.9471 10.2175 31.046 10.2469 31.1986 10.2434C31.6963 10.2348 32.1958 10.2002 32.69 10.2642C33.1999 10.3316 33.519 10.693 33.5225 11.21C33.5277 12.0157 33.5277 12.8197 33.5207 13.6255C33.5207 13.8018 33.5797 13.8969 33.7358 13.9869C34.556 14.452 34.9827 15.1661 35.0035 16.1067C35.0173 16.7309 35.0052 17.3568 35.0087 17.9827C35.0087 18.0726 34.9827 18.1902 35.0989 18.2283C35.2289 18.2715 35.3729 18.2784 35.5029 18.2352C35.5914 18.2058 35.5584 18.1003 35.5584 18.0277C35.5602 17.4191 35.5584 16.8122 35.5584 16.2035C35.5584 14.8324 36.4429 13.8433 37.806 13.686C39.0754 13.539 40.3657 14.6612 40.3813 15.9303C40.39 16.6064 40.3813 17.2825 40.383 17.9603C40.383 18.2041 40.6848 18.37 40.9033 18.249C40.9917 18.2006 40.9623 18.1141 40.9623 18.0415C40.964 17.4242 40.9623 16.8087 40.9623 16.1914C40.9623 14.8376 41.8207 13.8537 43.1682 13.6964C43.9035 13.6099 44.533 13.8745 45.0672 14.3759C45.1296 14.4347 45.1834 14.5056 45.2545 14.5523C45.4123 14.656 45.5354 14.5903 45.5475 14.4001C45.6516 12.6036 46.5725 11.4209 48.2581 10.8123C48.3934 10.7639 48.4506 10.6878 48.4472 10.5495C48.4437 10.2503 48.4402 9.94948 48.4472 9.65036C48.4506 9.48609 48.3466 9.41174 48.2356 9.32356C47.6234 8.83596 47.398 8.00083 47.672 7.25906C47.9442 6.52593 48.6709 6.03315 49.4495 6.05908C50.2456 6.08502 50.9288 6.59509 51.1682 7.34724C51.4057 8.09074 51.1508 8.89475 50.5178 9.3616C50.3912 9.45497 50.3444 9.55007 50.3496 9.70223C50.3617 9.97542 50.36 10.2503 50.3496 10.5235C50.3444 10.6861 50.4051 10.7656 50.5612 10.8192C52.0543 11.3362 52.9509 12.3702 53.2249 13.9263C53.251 14.0768 53.2562 14.2324 53.2544 14.3863C53.2544 14.5419 53.3221 14.6007 53.4712 14.6007C53.6516 14.6007 53.8337 14.5938 54.0105 14.6145C54.5603 14.6785 54.8933 15.0468 54.8967 15.5983C54.9019 16.3954 54.9054 17.1908 54.8933 17.9879C54.8898 18.2075 54.9592 18.2611 55.1707 18.2542C55.6771 18.2386 56.1835 18.2456 56.6899 18.2507C57.4356 18.2577 57.7877 18.6156 57.7877 19.3625C57.7877 19.9712 57.7911 20.5781 57.7825 21.1867C57.7807 21.37 57.8536 21.4754 58.0027 21.5826C59.3069 22.506 59.926 23.801 59.9988 25.3658C60.0248 25.9295 59.6208 26.3134 59.0485 26.3272C58.7571 26.3341 58.464 26.3272 58.1727 26.3289C57.916 26.3289 57.7871 26.4615 57.7859 26.7266C57.7859 29.047 57.7859 31.3674 57.7859 33.6879C57.7859 36.7535 57.7859 39.8191 57.7859 42.8848C57.7859 43.6438 57.4287 44 56.6656 44C47.7673 44 38.8708 44 29.9725 44L29.9829 43.9983ZM18.5058 36.1103C23.1865 36.1103 27.8672 36.1103 32.5478 36.1103C32.8045 36.1103 32.9328 35.9858 32.9328 35.7368C32.9328 33.3299 32.9328 30.9248 32.9328 28.5179C32.9328 27.79 33.2953 27.4286 34.0236 27.4286C37.2701 27.4286 40.5166 27.4286 43.763 27.4286C44.514 27.4286 44.8573 27.7727 44.8573 28.5318C44.8573 32.8907 44.8556 37.2497 44.8573 41.6087C44.8573 42.1862 44.7793 42.1171 45.3585 42.1205C45.7071 42.1222 45.7088 42.1205 45.7088 41.7643C45.7088 36.7379 45.7088 31.7115 45.7088 26.6834C45.7088 26.3289 45.7088 26.3272 45.3568 26.3272C40.0223 26.3272 34.6896 26.3272 29.3551 26.322C29.1071 26.322 29.0343 26.3946 29.036 26.6419C29.0464 28.3883 29.0412 30.1363 29.0412 31.8827C29.0412 32.6037 28.6892 32.9565 27.9695 32.9565C22.8847 32.9565 17.8 32.9565 12.7153 32.9565C11.8863 32.9565 11.5464 32.6158 11.5464 31.7841C11.5464 30.0793 11.5464 28.3762 11.5464 26.6713C11.5464 26.3289 11.5464 26.3272 11.2065 26.3272C8.95547 26.3272 6.70618 26.3272 4.45516 26.3272C4.21699 26.3272 4.09733 26.4436 4.09618 26.6765C4.09618 29.6989 4.09618 32.723 4.09618 35.7454C4.09618 35.9875 4.21873 36.1091 4.46383 36.1103C9.1445 36.1103 13.8252 36.1103 18.5058 36.1103ZM18.518 37.9863V37.9829C15.3062 37.9829 12.0944 37.9829 8.88263 37.9829C7.38773 37.9829 5.89456 37.9846 4.39966 37.9863C4.24012 37.9863 4.09097 37.969 4.09271 38.2111C4.09964 39.4439 4.09791 40.6767 4.09271 41.9096C4.09271 42.0634 4.15167 42.1222 4.30602 42.1205C4.80374 42.1153 5.30146 42.1153 5.80092 42.1205C5.96567 42.1222 6.03504 42.0652 6.03157 41.8975C6.02636 41.6329 6.03157 41.3684 6.07492 41.1038C6.34373 39.4992 8.08315 38.4722 9.611 39.022C10.7989 39.4474 11.4475 40.4122 11.4562 41.7609C11.4574 41.9995 11.5747 42.1188 11.8083 42.1188C13.0274 42.1188 14.2466 42.1188 15.4675 42.1188C15.816 42.1188 15.8265 42.1188 15.8126 41.7626C15.7814 40.9309 16.0484 40.222 16.6433 39.6289C17.7029 38.5707 19.6001 38.6555 20.5574 39.7984C21.0534 40.3897 21.265 41.0606 21.2077 41.8197C21.1904 42.0617 21.2788 42.124 21.513 42.1222C22.6888 42.1119 23.8663 42.1171 25.0421 42.1171C25.604 42.1171 25.6109 42.1171 25.604 41.5638C25.5919 40.6646 25.9699 39.9574 26.6688 39.4197C28.0042 38.3926 29.9916 38.8785 30.7217 40.3897C30.9402 40.8427 31.0252 41.3148 30.994 41.8093C30.9801 42.0358 31.0408 42.1326 31.2922 42.1222C31.7379 42.1015 32.1854 42.1049 32.6311 42.1222C32.8721 42.1309 32.9398 42.0479 32.938 41.8145C32.9276 40.6664 32.9328 39.52 32.9345 38.3719C32.9345 38.1125 32.8016 37.9829 32.5357 37.9829C27.8637 37.9829 23.1917 37.9829 18.5197 37.9829L18.518 37.9863ZM30.0124 24.4494C38.0696 24.4494 46.125 24.4512 54.1822 24.4494C55.3511 24.4494 56.5182 24.4443 57.6871 24.4494C57.8917 24.4494 57.9264 24.3941 57.8362 24.2126C57.7183 23.9739 57.583 23.744 57.4166 23.5382C57.1842 23.2477 56.9102 23.0506 56.4957 23.0766C55.9997 23.1077 55.5002 23.0835 55.0025 23.0835C44.6874 23.0835 34.3722 23.0835 24.0571 23.0835C17.2121 23.0835 10.3654 23.0869 3.52041 23.0748C3.12154 23.0748 2.84407 23.227 2.61515 23.5106C2.48682 23.6696 2.37236 23.8425 2.27351 24.0224C2.04459 24.4425 2.04979 24.446 2.51977 24.446C11.6834 24.446 20.8488 24.446 30.0124 24.446V24.4494ZM47.5957 34.2273C47.5957 36.7431 47.5957 39.2606 47.5957 41.7764C47.5957 42.0047 47.7072 42.1188 47.9304 42.1188C50.471 42.1188 53.0134 42.1188 55.554 42.1188C55.7922 42.1188 55.9113 42.0035 55.9113 41.773C55.9113 36.7396 55.9113 31.7063 55.9113 26.673C55.9113 26.3289 55.9113 26.3272 55.5748 26.3272C53.0255 26.3272 50.4745 26.3307 47.9252 26.322C47.6685 26.322 47.5887 26.386 47.5887 26.6505C47.5991 29.175 47.5939 31.7011 47.5939 34.2256L47.5957 34.2273ZM20.2817 31.0787C22.4703 31.0787 24.6606 31.0752 26.8492 31.0821C27.0781 31.0821 27.1648 31.0268 27.1631 30.783C27.1527 29.3963 27.1544 28.0096 27.1631 26.6229C27.1631 26.405 27.1058 26.3237 26.8734 26.3237C22.5032 26.3289 18.1347 26.3272 13.7645 26.3272C13.4315 26.3272 13.4298 26.3307 13.4298 26.6782C13.4298 28.0303 13.4298 29.3825 13.4298 30.7363C13.4298 31.077 13.4298 31.0787 13.7679 31.0787C15.9392 31.0787 18.1122 31.0787 20.2834 31.0787H20.2817ZM34.8144 35.6901C34.8144 35.8613 34.8144 36.0325 34.8144 36.2036C34.8144 38.0797 34.8179 39.954 34.8092 41.83C34.8092 42.0513 34.8647 42.1464 35.0971 42.124C35.2757 42.1067 35.4578 42.1119 35.6382 42.124C35.8168 42.1343 35.8845 42.0583 35.8827 41.8836C35.8775 41.5153 35.8775 41.147 35.8827 40.7788C35.8983 39.5546 35.8255 38.3287 35.9157 37.1079C36.0475 35.3426 37.7644 34.0838 39.4986 34.4521C40.931 34.7564 41.9057 35.9426 41.9126 37.4105C41.9196 38.8837 41.9178 40.3569 41.9109 41.8283C41.9109 42.0479 41.9681 42.1482 42.2005 42.124C42.3531 42.1084 42.5109 42.1067 42.6635 42.124C42.9167 42.1534 42.9809 42.0496 42.9809 41.8058C42.974 37.7477 42.974 33.6879 42.9809 29.6297C42.9809 29.3635 42.8994 29.2995 42.6427 29.3012C40.1437 29.3098 37.6447 29.3064 35.1457 29.3064C34.8144 29.3064 34.8127 29.3064 34.8127 29.6539C34.8127 31.6666 34.8127 33.6792 34.8127 35.6901H34.8144ZM33.1739 21.1953V21.2005C37.0204 21.2005 40.8669 21.2005 44.7134 21.2005C48.2078 21.2005 51.704 21.204 55.1985 21.2057C55.676 21.2057 55.9136 20.9688 55.9113 20.4951C55.9113 20.1493 55.9113 20.1493 55.5713 20.1493C51.8792 20.1423 48.187 20.1354 44.4949 20.132C43.1561 20.132 41.8172 20.1475 40.4801 20.1475C36.1515 20.1493 31.8246 20.151 27.496 20.1475C22.8327 20.1441 18.1711 20.1337 13.5078 20.132C12.5384 20.132 11.5689 20.1683 10.6012 20.1268C10.4746 20.1216 10.433 20.1821 10.4348 20.2962C10.4365 20.5279 10.44 20.7596 10.433 20.9896C10.4278 21.1573 10.4955 21.2126 10.6619 21.2109C11.9331 21.204 13.2026 21.2057 14.4738 21.2057C18.5006 21.2023 22.5292 21.1971 26.5561 21.1953C28.7637 21.1953 30.9697 21.1953 33.1773 21.1953H33.1739ZM4.09618 16.679C4.09618 18.1003 4.09964 19.5216 4.09271 20.9429C4.09271 21.1383 4.1378 21.2092 4.34937 21.2074C5.65351 21.1988 6.95938 21.1988 8.26351 21.2109C8.51671 21.2126 8.56006 21.1158 8.56006 20.8945C8.55486 18.0778 8.55313 15.2612 8.56006 12.4463C8.56006 12.1938 8.47509 12.1264 8.23229 12.1281C6.96111 12.1368 5.69166 12.1385 4.42048 12.1281C4.15341 12.1247 4.0875 12.2146 4.08924 12.4687C4.09964 13.8727 4.09444 15.2767 4.09444 16.6807L4.09618 16.679ZM24.5045 12.1333C23.7484 12.1333 22.994 12.1333 22.2379 12.1333C20.71 12.1333 19.1804 12.1368 17.6526 12.1281C17.4063 12.1281 17.3161 12.2042 17.3266 12.4514C17.3422 12.8353 17.337 13.2226 17.3266 13.6065C17.3214 13.7915 17.389 13.8935 17.5537 13.9886C18.3463 14.4537 18.7764 15.1436 18.785 16.0721C18.7902 16.705 18.7972 17.3395 18.7798 17.9724C18.7729 18.2058 18.8457 18.2559 19.0694 18.2559C19.2984 18.2559 19.4059 18.2075 19.3712 17.962C19.3539 17.8444 19.3677 17.7234 19.3677 17.6023C19.3729 16.9781 19.3157 16.3453 19.3955 15.7298C19.5602 14.4727 20.6493 13.6203 21.8667 13.6808C23.2142 13.7465 24.1837 14.777 24.1906 16.0859C24.1941 16.7188 24.1941 17.3533 24.1906 17.9862C24.1906 18.1453 24.1854 18.2732 24.4143 18.2507C24.6033 18.2317 24.7889 18.2784 24.7802 17.9724C24.7629 17.2963 24.7664 16.6202 24.7785 15.9442C24.7993 14.7563 25.8503 13.6047 27.2827 13.6808C28.6632 13.7534 29.5979 14.7943 29.5979 16.1776C29.5979 16.7862 29.6048 17.3931 29.5927 18.0018C29.5875 18.294 29.7973 18.2386 29.9621 18.2646C30.1719 18.2974 30.1511 18.1487 30.1511 18.019C30.1511 17.4104 30.1511 16.8035 30.1511 16.1949C30.1546 15.2024 30.5743 14.4485 31.4518 13.9661C31.594 13.8883 31.6408 13.7915 31.6374 13.6376C31.6304 13.252 31.6356 12.8664 31.6356 12.4826C31.6356 12.1333 31.6356 12.1316 31.2749 12.1316C29.0169 12.1316 26.7572 12.1316 24.4993 12.1316L24.5045 12.1333ZM24.4698 10.2261C25.9023 10.2261 27.3365 10.2227 28.7689 10.2296C29.0013 10.2296 29.0672 10.1795 29.01 9.93911C28.5591 8.04924 26.837 6.56051 24.8982 6.39798C22.6246 6.20778 20.5331 7.68613 19.9747 9.88032C19.8897 10.2158 19.8967 10.2261 20.247 10.2261C21.6552 10.2261 23.0616 10.2261 24.4698 10.2261ZM37.7886 39.5719C37.7886 40.3327 37.7938 41.0952 37.7852 41.856C37.7834 42.0565 37.8511 42.1274 38.054 42.124C38.6367 42.1136 39.2211 42.117 39.8055 42.124C39.9651 42.124 40.0397 42.0807 40.0397 41.9078C40.0345 40.4018 40.0483 38.8958 40.031 37.3898C40.0223 36.6739 39.3737 36.1552 38.7164 36.2901C38.1459 36.4077 37.799 36.8209 37.7921 37.4174C37.7834 38.1367 37.7904 38.8543 37.7904 39.5736L37.7886 39.5719ZM49.3698 18.2507C50.4849 18.2507 51.6017 18.2438 52.7168 18.2542C52.9509 18.2559 53.0359 18.1833 53.0255 17.9447C53.0082 17.5522 53.0151 17.158 53.022 16.7637C53.0255 16.5856 52.977 16.4975 52.7775 16.4975C50.5282 16.5009 48.2807 16.5009 46.0314 16.4975C45.8545 16.4975 45.7869 16.5649 45.7903 16.7413C45.799 17.177 45.8025 17.6144 45.7903 18.0502C45.7851 18.2317 45.8597 18.2559 46.0193 18.2559C47.1344 18.249 48.2512 18.2525 49.3663 18.2525L49.3698 18.2507ZM49.4131 14.5989C49.9698 14.5989 50.5282 14.5886 51.0849 14.6024C51.3329 14.6093 51.4023 14.5108 51.3763 14.2825C51.3329 13.9177 51.2063 13.5892 50.9895 13.2918C50.5213 12.652 49.6837 12.3633 48.8825 12.5708C48.1437 12.7609 47.5176 13.4889 47.4431 14.2428C47.4118 14.5609 47.4431 14.5972 47.7673 14.5989C48.3171 14.5989 48.8651 14.5989 49.4149 14.5989H49.4131ZM33.1288 17.0784C33.1288 16.7534 33.1375 16.4283 33.1253 16.105C33.1166 15.8456 32.9432 15.6416 32.7056 15.5845C32.4594 15.5275 32.2651 15.6174 32.1316 15.8231C32.0449 15.9563 32.038 16.1136 32.038 16.2692C32.038 16.7222 32.038 17.1753 32.038 17.6265C32.0356 18.0427 32.2455 18.2502 32.6675 18.249C32.7438 18.249 32.8218 18.2438 32.8981 18.249C33.0768 18.2594 33.1392 18.1747 33.134 18.0018C33.1253 17.694 33.1323 17.3862 33.1323 17.0784H33.1288ZM15.8473 17.075C15.8473 17.407 15.8507 17.7407 15.8473 18.0726C15.8455 18.2023 15.8889 18.2577 16.0259 18.2525C16.2565 18.2438 16.4889 18.2421 16.7196 18.2525C16.8687 18.2594 16.9138 18.2006 16.9121 18.0588C16.9069 17.4104 16.9155 16.762 16.9069 16.1136C16.9034 15.7989 16.6658 15.5569 16.3883 15.5551C16.0935 15.5551 15.8577 15.8006 15.8525 16.1274C15.8473 16.4439 15.8525 16.7586 15.8525 17.075H15.8473ZM22.3124 17.0784C22.3124 16.7793 22.3124 16.4819 22.3124 16.1828C22.3124 16.1655 22.3124 16.1482 22.3124 16.1309C22.3003 15.7989 22.0783 15.5586 21.78 15.5551C21.4974 15.5517 21.2598 15.8058 21.2563 16.1344C21.2511 16.7568 21.2563 17.381 21.2511 18.0035C21.2511 18.1764 21.3135 18.2559 21.4904 18.249C21.6951 18.2421 21.9014 18.2404 22.1061 18.2525C22.2621 18.2611 22.3194 18.2092 22.3159 18.0502C22.3072 17.7268 22.3124 17.4018 22.3124 17.0767V17.0784ZM43.9104 17.0784H43.9087C43.9087 16.7447 43.9174 16.4127 43.9052 16.079C43.8948 15.7816 43.6503 15.5534 43.378 15.562C43.078 15.5707 42.8612 15.7747 42.856 16.0877C42.8456 16.7361 42.8543 17.3845 42.8491 18.0346C42.8491 18.1885 42.9167 18.249 43.0659 18.2473C43.2792 18.2455 43.4942 18.2386 43.7075 18.2559C43.8758 18.2698 43.9139 18.1989 43.9122 18.0502C43.907 17.7251 43.9104 17.4018 43.9104 17.0767V17.0784ZM11.5013 17.0646C11.5013 16.7568 11.5048 16.4508 11.5013 16.143C11.4961 15.8006 11.2897 15.5707 10.988 15.5551C10.7122 15.543 10.4486 15.8041 10.4452 16.1257C10.4365 16.7741 10.4452 17.4225 10.4382 18.0709C10.4382 18.2248 10.5024 18.2577 10.6394 18.2525C10.8527 18.2438 11.0677 18.2404 11.2811 18.2525C11.4493 18.2628 11.51 18.2041 11.5065 18.0363C11.4978 17.713 11.503 17.3879 11.503 17.0629L11.5013 17.0646ZM27.7215 17.0992C27.7215 16.8173 27.7215 16.5355 27.7215 16.2537C27.7215 16.2364 27.7215 16.2191 27.7215 16.2018C27.7163 15.837 27.496 15.5638 27.2012 15.5551C26.8786 15.5447 26.6619 15.792 26.6584 16.1949C26.6532 16.7413 26.6567 17.2876 26.6567 17.834C26.6567 18.3424 26.6411 18.2438 27.0607 18.249C27.2238 18.2507 27.3868 18.2438 27.5481 18.2525C27.6868 18.2611 27.7267 18.2006 27.7249 18.0726C27.7197 17.7493 27.7232 17.4242 27.7232 17.0992H27.7215ZM38.5101 17.0473C38.5101 16.7395 38.5153 16.4318 38.5101 16.1257C38.5031 15.8024 38.2812 15.5586 38.0054 15.5568C37.7106 15.5551 37.4557 15.7972 37.4505 16.1171C37.4401 16.7568 37.4505 17.3983 37.4453 18.0381C37.4453 18.1954 37.5146 18.2525 37.662 18.249C37.8597 18.2456 38.0557 18.2438 38.2534 18.249C38.4372 18.2559 38.5187 18.1816 38.5153 17.9931C38.5083 17.6767 38.5135 17.362 38.5135 17.0456L38.5101 17.0473ZM6.31251 10.2261C6.6819 10.2261 7.05129 10.2209 7.42068 10.2261C7.60104 10.2296 7.62358 10.1552 7.56809 10.0048C7.45536 9.70396 7.29408 9.43422 7.0721 9.20253C6.66803 8.78236 6.17724 8.75643 5.709 9.10743C5.41418 9.32875 5.2529 9.63307 5.10723 9.95467C5.02052 10.1449 5.04479 10.2365 5.28412 10.2279C5.62749 10.214 5.97087 10.2244 6.31425 10.2244L6.31251 10.2261ZM8.73348 42.1205H9.06819C9.61967 42.1205 9.64395 42.0928 9.56765 41.5413C9.50001 41.064 9.17224 40.7597 8.73175 40.7667C8.24617 40.7736 7.92014 41.1557 7.91493 41.7245C7.91262 41.9897 8.04037 42.1222 8.2982 42.1222C8.44387 42.1222 8.58954 42.1222 8.73522 42.1222L8.73348 42.1205ZM18.511 42.1205C18.5873 42.1205 18.6654 42.1205 18.7417 42.1205C19.3764 42.1205 19.3799 42.1205 19.3244 41.4911C19.2949 41.1609 19.1093 40.9361 18.8076 40.822C18.5058 40.7079 18.2197 40.7476 17.9769 40.9793C17.7393 41.2058 17.604 41.7367 17.7098 42.0219C17.7445 42.1171 17.8191 42.1188 17.8954 42.1188C18.1 42.1188 18.3064 42.1188 18.511 42.1188V42.1205ZM28.3024 42.1205C28.3961 42.1205 28.4915 42.1205 28.5851 42.1205C28.9678 42.1205 29.1435 41.9263 29.1123 41.5378C29.0759 41.0917 28.7377 40.7701 28.3059 40.7667C27.7007 40.7632 27.2428 41.4756 27.4943 42.0271C27.5342 42.1153 27.6088 42.1188 27.6868 42.1188C27.8914 42.1188 28.0978 42.1188 28.3024 42.1188V42.1205Z" fill="#C0145B"/>
<path d="M10.2319 31.3623C10.2319 31.9951 10.2336 32.6279 10.2319 33.2608C10.2284 33.8504 9.86593 34.2273 9.27109 34.2325C8.22536 34.2412 7.17789 34.2412 6.13215 34.2325C5.53731 34.229 5.15232 33.8383 5.15058 33.2435C5.14538 31.9951 5.14711 30.7467 5.15058 29.4966C5.15232 28.9052 5.53905 28.5128 6.13389 28.5076C7.17962 28.4989 8.22709 28.5006 9.27283 28.5076C9.85206 28.511 10.2284 28.9035 10.2301 29.4862C10.2319 30.1104 10.2301 30.7346 10.2301 31.3588L10.2319 31.3623ZM7.03568 31.3744C7.03568 31.6303 7.03915 31.8879 7.03568 32.1438C7.03221 32.2925 7.08251 32.3651 7.24205 32.3617C7.54207 32.3547 7.84209 32.3565 8.14212 32.3617C8.29646 32.3651 8.35716 32.2977 8.35542 32.1473C8.35196 31.6337 8.35196 31.1219 8.35542 30.6084C8.35542 30.4631 8.31034 30.3836 8.14905 30.3871C7.84903 30.394 7.54901 30.3922 7.24899 30.3871C7.09291 30.3836 7.03395 30.4545 7.03568 30.6032C7.03915 30.8591 7.03568 31.1167 7.03568 31.3726V31.3744Z" fill="#C0145B"/>
<path d="M54.2932 38.0537C54.2932 38.6952 54.295 39.3367 54.2932 39.9782C54.2915 40.5142 53.9117 40.9067 53.3724 40.9119C52.3075 40.9188 51.2445 40.9205 50.1797 40.9119C49.5987 40.9084 49.2137 40.5142 49.212 39.9367C49.2085 38.6797 49.2085 37.4209 49.212 36.1639C49.2137 35.5812 49.5935 35.1956 50.1814 35.1921C51.2375 35.1852 52.2919 35.1852 53.3481 35.1921C53.9169 35.1956 54.2898 35.5846 54.2932 36.1535C54.295 36.7863 54.2932 37.4192 54.2932 38.0537ZM51.0936 38.0295C51.0936 38.2958 51.0971 38.5604 51.0936 38.8266C51.0901 38.9788 51.1491 39.0428 51.3052 39.0393C51.6052 39.0324 51.9069 39.0324 52.207 39.0393C52.3648 39.0428 52.4203 38.9702 52.4185 38.8215C52.4151 38.3079 52.4151 37.7944 52.4185 37.2809C52.4185 37.1304 52.3596 37.063 52.2035 37.0664C51.9121 37.0716 51.6191 37.0751 51.3277 37.0664C51.1421 37.0595 51.0867 37.1408 51.0936 37.312C51.1023 37.5506 51.0953 37.7909 51.0953 38.0313L51.0936 38.0295Z" fill="#C0145B"/>
<path d="M54.2932 30.3888C54.2932 31.0043 54.2932 31.6199 54.2932 32.2354C54.2932 32.8423 53.9481 33.2348 53.3429 33.2469C52.2885 33.266 51.2323 33.2677 50.1779 33.2469C49.5588 33.2348 49.212 32.8406 49.212 32.2181C49.212 30.9957 49.212 29.7715 49.212 28.5491C49.212 27.9024 49.5848 27.5306 50.2351 27.5289C51.2566 27.5272 52.2763 27.5272 53.2978 27.5289C53.9238 27.5289 54.2932 27.8972 54.295 28.5145C54.295 29.1387 54.295 29.7629 54.295 30.3871L54.2932 30.3888ZM51.0953 30.3732C51.0953 30.6291 51.0988 30.8868 51.0953 31.1427C51.0919 31.2862 51.1352 31.3709 51.2965 31.3692C51.6139 31.3657 51.9312 31.3692 52.2486 31.3744C52.3682 31.3744 52.4185 31.3208 52.4185 31.2032C52.4185 30.6724 52.4151 30.1433 52.4185 29.6124C52.4185 29.4568 52.3457 29.4015 52.1965 29.4032C51.9052 29.4084 51.6139 29.4101 51.3208 29.4032C51.1578 29.3998 51.0867 29.462 51.0919 29.628C51.1005 29.8753 51.0936 30.1242 51.0953 30.3715V30.3732Z" fill="#C0145B"/>
</svg>
