<svg width="41" height="44" viewBox="0 0 41 44" fill="none" xmlns="http://www.w3.org/2000/svg">
<path d="M0.52272 44C0.372895 44 0.145575 43.9897 0.042247 43.7581C-0.0869124 43.4698 0.114576 43.2536 0.186906 43.1764L1.39067 41.8793C1.96414 41.2616 2.53244 40.6439 3.10591 40.0262C3.1989 39.9233 3.24024 39.8306 3.23507 39.6968C3.2299 38.6724 3.23507 37.6481 3.23507 36.6289C3.23507 36.4796 3.20924 36.3458 3.14724 36.2017C2.63577 35.0229 1.19435 31.6926 1.19435 31.6926C1.11685 31.5124 1.03936 31.2808 1.15302 31.1109C1.26668 30.941 1.50433 30.9153 1.70065 30.9153H2.84242C3.16791 30.9153 3.49339 30.9153 3.81887 30.9153C3.94803 30.9153 3.96869 30.9102 3.97903 30.7557C3.99453 30.5241 3.99969 30.2976 4.01003 30.066C4.04102 29.3505 4.07202 28.6144 4.21151 27.8938C4.54733 26.1385 5.49794 25.2429 7.28551 24.9855C7.74015 24.9186 8.23096 24.8877 8.82509 24.8877C9.06791 24.8877 9.30556 24.8877 9.54838 24.898H9.55355C9.72921 24.898 9.76021 24.8774 9.78087 24.6869C9.9307 22.9162 10.0857 21.3051 10.2407 19.7712C10.2872 19.2925 10.3285 18.8189 10.3698 18.3402C10.4525 17.3416 10.5403 16.307 10.7108 15.2981C10.8761 14.3201 11.3101 13.5583 12.0076 13.0332C12.5914 12.5905 13.2992 12.3641 14.1103 12.3538H14.3634C14.6476 12.3486 14.9318 12.3435 15.2107 12.3435C15.3244 12.3435 15.4381 12.3435 15.5414 12.3435C15.2934 12.2045 15.1539 11.9626 15.1281 11.6331C15.1074 11.2883 15.1539 10.9382 15.2882 10.4853C15.4639 9.88816 15.4329 9.3168 15.1901 8.74544C14.8956 8.05054 14.7406 7.45344 14.6993 6.87693C14.6683 6.46514 14.7148 6.07908 14.8284 5.72391C14.9214 5.43051 15.0712 5.23491 15.2882 5.12167C15.3812 5.07019 15.4071 5.01357 15.3916 4.87974C15.2211 3.54141 15.7067 2.40898 16.833 1.50819C17.4788 0.993449 18.1091 0.607394 18.7497 0.339729C19.287 0.113243 19.8295 0 20.3668 0C20.9712 0 21.5757 0.144127 22.1647 0.432382C23.0533 0.864764 23.7714 1.35891 24.3501 1.95087C25.1095 2.72298 25.4298 3.70613 25.311 4.86944C25.2955 5.02387 25.311 5.06504 25.4143 5.12681C25.9361 5.44595 25.9775 6.02246 26.0085 6.4394C26.055 7.13945 25.8638 7.79832 25.6675 8.34394C25.6107 8.50351 25.5538 8.65793 25.4867 8.81236C25.2645 9.34254 25.2387 9.88301 25.3988 10.4595C25.4608 10.6809 25.5125 10.9176 25.5642 11.2059C25.6572 11.7258 25.497 12.153 25.1405 12.3486C25.3162 12.3435 25.497 12.3383 25.6727 12.3383C26.1841 12.3383 26.6026 12.3692 26.9901 12.4361C28.3437 12.6626 29.2943 13.4605 29.8264 14.8091C30.0692 15.4216 30.1829 16.0702 30.2914 16.6982C30.3224 16.868 30.3534 17.0379 30.3844 17.2129C30.6995 18.8549 31.0044 20.497 31.3092 22.139L31.5675 23.5236C31.645 23.9354 31.7018 24.3781 31.5882 24.8156C31.5727 24.8774 31.5727 24.9083 31.5727 24.9237L31.9033 24.9186C32.2391 24.9083 32.5801 24.898 32.9159 24.898C33.5152 24.898 34.006 24.9289 34.4503 24.9958C36.0674 25.2377 36.9767 26.1437 37.2247 27.7599C37.3538 28.599 37.3797 29.4895 37.297 30.4829C37.2815 30.6682 37.266 30.8535 37.2918 30.8844C37.3177 30.9153 37.5088 30.9153 37.6896 30.9153H39.3636C39.596 30.9153 39.7562 30.9822 39.8389 31.1058C39.9215 31.2293 39.9164 31.3992 39.8285 31.6102C39.5547 32.2536 39.2757 32.8919 38.9967 33.5302L38.5576 34.5442L37.8395 36.2171C37.7878 36.3407 37.762 36.4796 37.762 36.6444V37.2054C37.7671 37.9827 37.7723 38.7599 37.762 39.5321C37.762 39.7894 37.8343 39.9747 38.0255 40.1806C38.7591 40.9527 39.4824 41.7351 40.2057 42.5176L40.774 43.1301C40.8308 43.1919 40.9031 43.2691 40.9496 43.3669C41.0168 43.5059 41.0168 43.6551 40.9496 43.7735C40.8825 43.8919 40.7585 43.9691 40.6035 43.9897C40.5466 43.9949 40.4898 44 40.433 44C40.433 44 0.52272 44 0.517554 44H0.52272ZM39.5599 43.1249L39.1207 42.6514C38.4904 41.9771 37.886 41.3182 37.2815 40.6593C37.1833 40.5512 37.08 40.5101 36.9199 40.5101H4.09269C3.92736 40.5101 3.8292 40.5512 3.73104 40.6593C3.2919 41.138 2.85276 41.6116 2.41361 42.0852L1.51983 43.0477C1.51983 43.0477 1.4475 43.1198 1.44234 43.1249H39.5599ZM4.20635 36.7473C4.17535 36.7473 4.13919 36.7473 4.12369 36.7679C4.11335 36.7782 4.09269 36.8142 4.09269 36.9275C4.10302 37.4937 4.10302 38.065 4.09785 38.6313V39.321C4.09785 39.4445 4.09785 39.5784 4.11335 39.6041C4.13918 39.6196 4.26834 39.6196 4.39234 39.6196H36.6512C36.7545 39.6196 36.8682 39.6196 36.894 39.6041C36.894 39.5887 36.894 39.4754 36.894 39.3725V38.7548C36.894 38.2143 36.894 37.679 36.894 37.1385C36.894 37.0562 36.894 36.9841 36.894 36.9275C36.894 36.8503 36.894 36.7731 36.894 36.7473C36.894 36.7473 36.8837 36.7525 36.863 36.7525H4.39234L4.32517 36.6238V36.7525C4.32517 36.7525 4.23218 36.7473 4.21151 36.7473H4.20635ZM36.6564 35.862C36.739 35.862 36.8579 35.862 36.8837 35.8465C36.8837 35.8259 36.8475 35.6767 36.832 35.6046C36.6357 34.7244 35.8401 34.1118 34.8946 34.1118H34.8326C33.944 34.1376 33.1587 34.8428 32.9986 35.7539C32.9882 35.8208 32.9934 35.8517 32.9934 35.8568C32.9934 35.8568 33.0244 35.862 33.0761 35.862C33.3499 35.862 33.6134 35.862 33.8769 35.862H35.9434C35.9434 35.862 36.646 35.862 36.6564 35.862ZM15.6395 34.1118C14.7406 34.1273 13.9346 34.817 13.7641 35.7127C13.7435 35.8208 13.7641 35.8414 13.7641 35.8465C13.7641 35.8517 13.7848 35.862 13.8675 35.862C14.1361 35.862 14.3944 35.8568 14.6476 35.8568H17.4581C17.6079 35.8568 17.6493 35.8465 17.6596 35.8414C17.6596 35.8414 17.6596 35.795 17.6286 35.6509C17.4271 34.745 16.6263 34.1118 15.6809 34.1118V33.9832L15.6447 34.1118H15.6395ZM6.10241 34.1015C5.86476 34.1015 5.61677 34.153 5.36878 34.2508C4.70232 34.5185 4.29418 35.0178 4.14952 35.7281C4.13402 35.8156 4.14952 35.8362 4.14952 35.8362C4.14952 35.8362 4.17018 35.8568 4.25801 35.8568C4.537 35.8568 4.81081 35.8517 5.08463 35.8517H7.11502C7.38367 35.8517 7.65232 35.8517 7.92097 35.8517C8.00364 35.8517 8.0243 35.8414 8.02947 35.8362C8.02947 35.8362 8.03464 35.8105 8.01914 35.723C7.91064 35.1876 7.64199 34.7707 7.22868 34.4773C6.86703 34.2251 6.48989 34.0964 6.10758 34.0964L6.10241 34.1015ZM18.574 35.8465C18.574 35.8465 18.5999 35.8568 18.6774 35.8568C18.946 35.8568 19.2043 35.8517 19.4575 35.8517H21.9684C22.0924 35.8517 22.2215 35.8517 22.3455 35.8517C22.4178 35.8517 22.4385 35.8414 22.4437 35.8362C22.4437 35.8362 22.4592 35.8156 22.4437 35.7333C22.3972 35.4759 22.3042 35.2288 22.1647 35.0075C21.8185 34.4567 21.1727 34.0964 20.5166 34.0964C20.4133 34.0964 20.3151 34.1067 20.2118 34.1221C19.3593 34.2817 18.7652 34.8582 18.5792 35.7075C18.5585 35.8053 18.5689 35.8311 18.5689 35.8362L18.574 35.8465ZM23.3839 35.8465C23.3839 35.8465 23.4149 35.8517 23.4718 35.8517C23.7456 35.8517 24.0039 35.8517 24.2674 35.8517H27.0314C27.2071 35.8517 27.2536 35.8362 27.2639 35.8311C27.2639 35.8208 27.2691 35.7745 27.2277 35.6046C27.0056 34.7244 26.2048 34.1067 25.28 34.1067H25.2128C24.3294 34.1376 23.5648 34.817 23.3891 35.7281C23.3736 35.8105 23.3788 35.8414 23.3788 35.8465H23.3839ZM28.1938 35.8465C28.1938 35.8465 28.2248 35.8517 28.292 35.8517C28.571 35.8517 28.8396 35.8517 29.1031 35.8517H31.8775C31.9343 35.8517 32.0635 35.8517 32.0893 35.8414C32.079 35.8311 32.0583 35.7127 32.048 35.6612C31.8723 34.7759 31.0405 34.1118 30.1157 34.1118H30.0641C29.1548 34.1376 28.3488 34.8376 28.199 35.7487C28.1887 35.8259 28.1938 35.8517 28.199 35.8568L28.1938 35.8465ZM8.95942 35.8362C8.95942 35.8362 8.98008 35.8517 9.05241 35.8517C9.32106 35.8517 9.57938 35.8465 9.8377 35.8465H11.9146C12.1884 35.8465 12.736 35.8465 12.736 35.8465C12.8032 35.8465 12.8239 35.8362 12.829 35.8362C12.829 35.8362 12.8342 35.8105 12.829 35.7487C12.6895 34.8376 11.8629 34.117 10.9536 34.1015L10.9226 33.9729V34.1015C9.96686 34.1015 9.12474 34.7964 8.96458 35.7127C8.94909 35.8105 8.96458 35.8362 8.96458 35.8362H8.95942ZM34.9308 33.2213C35.8711 33.2213 36.7494 33.6898 37.2815 34.4773C37.3332 34.5494 37.3745 34.6317 37.4107 34.7141C37.4313 34.7604 37.4572 34.8016 37.4778 34.8479C37.4778 34.8479 38.4129 32.6809 38.7281 31.9551C38.7539 31.8933 38.7849 31.8212 38.8004 31.7698C38.7487 31.7698 38.6661 31.7698 38.5886 31.7698H2.38778C2.34645 31.7698 2.30512 31.7698 2.26379 31.7698L2.22762 31.6411V31.7698C2.22762 31.7698 2.20696 31.7698 2.19663 31.7698C2.20179 31.7801 2.21213 31.8007 2.22246 31.8315C2.48078 32.4235 2.7391 33.0154 2.99225 33.6074L3.52439 34.8428C4.03586 33.8442 5.0123 33.2265 6.08174 33.2265C7.01686 33.2265 7.87448 33.6898 8.44278 34.4927C8.46344 34.5185 8.47378 34.5391 8.48928 34.5494C8.49961 34.5339 8.51511 34.5133 8.53577 34.4876C9.07308 33.7001 9.95653 33.2265 10.902 33.2265C11.8474 33.2265 12.7257 33.6949 13.2475 34.4825C13.2682 34.5185 13.2888 34.5391 13.2992 34.5545C13.3095 34.5391 13.3302 34.5133 13.3508 34.4825C13.8933 33.6846 14.7509 33.2265 15.7067 33.2265C16.6625 33.2265 17.5046 33.6795 18.0522 34.4619C18.0677 34.4825 18.0936 34.5236 18.1194 34.5494C18.1246 34.5339 18.1452 34.5082 18.1762 34.467C18.7342 33.6743 19.5918 33.2213 20.5218 33.2213C21.4517 33.2213 22.33 33.6898 22.8828 34.503C22.8983 34.5288 22.9138 34.5442 22.9241 34.5545C22.9345 34.5442 22.95 34.5236 22.9655 34.4979C23.5286 33.6846 24.3914 33.2162 25.3317 33.2162C26.272 33.2162 27.1141 33.6743 27.672 34.4722C27.7185 34.5339 27.7392 34.5597 27.7495 34.57C27.734 34.5494 27.7805 34.4927 27.796 34.4619C28.354 33.6743 29.2116 33.2213 30.1519 33.2213C31.0922 33.2213 31.8723 33.6383 32.4148 34.3692C32.4768 34.4516 32.5388 34.5339 32.5646 34.5494C32.5439 34.5339 32.6111 34.4464 32.6731 34.3589C33.2207 33.6331 34.0473 33.2213 34.9411 33.2213H34.9308ZM20.8679 30.8999C20.9041 30.8999 20.9454 30.905 20.9816 30.9102C21.0074 30.9102 21.0384 30.9153 21.0642 30.9205C21.0539 30.9102 21.0332 30.8947 21.0229 30.8844C20.9919 30.8535 20.9506 30.8175 20.9248 30.7763C20.9093 30.7557 20.8938 30.73 20.8834 30.7043C20.8731 30.6837 20.8524 30.6425 20.8369 30.6373L20.7026 30.7197C20.5889 30.7763 20.4753 30.8329 20.3564 30.905C20.3926 30.905 20.4236 30.905 20.4494 30.905H20.8266L20.8679 30.8999ZM33.758 30.8999C34.5588 30.8999 35.3596 30.8999 36.1604 30.9102C36.3825 30.9102 36.4187 30.8587 36.4239 30.6785C36.4549 29.891 36.4755 29.1189 36.4239 28.3519C36.3981 27.9453 36.3154 27.5643 36.1914 27.2195C35.9899 26.6841 35.6593 26.3135 35.1736 26.0922C34.7345 25.8914 34.2333 25.7936 33.5979 25.7936C32.7661 25.7885 31.9291 25.7885 31.0973 25.7885H27.858C27.7134 25.7885 27.5997 25.8297 27.4861 25.9172C26.2668 26.9055 24.939 27.9555 23.5183 28.9336C23.5028 28.9438 23.4924 28.9541 23.4873 28.9593C23.5028 28.9593 23.5234 28.9799 23.5389 28.9902C24.3294 29.6696 25.1715 30.2461 25.962 30.7712C26.1015 30.8638 26.2461 30.905 26.4218 30.905C27.2794 30.905 28.1267 30.905 28.9791 30.905H33.758V30.8999ZM13.7176 30.8999C14.6838 30.8999 15.6499 30.8999 16.616 30.9102C16.8433 30.9102 16.9828 30.8329 17.1378 30.6322C17.6906 29.891 18.1607 29.0571 18.5379 28.1511L18.636 27.9144C18.8944 27.307 19.1423 26.7356 18.8479 26.0922C18.8272 26.0459 18.8169 25.9944 18.8117 25.9481C18.8014 25.8297 18.7807 25.7833 18.574 25.7833H8.37045C7.96231 25.7833 7.52833 25.8297 7.05302 25.9275C5.98875 26.1437 5.35845 26.7716 5.1363 27.8372C4.97614 28.6041 4.93997 29.3968 4.90898 30.1689L4.88831 30.6322C4.88831 30.7249 4.87798 30.8638 4.88831 30.8947C4.90898 30.905 5.0278 30.905 5.14146 30.905H13.7228L13.7176 30.8999ZM18.5017 30.8999C18.6567 30.8999 18.8117 30.8999 18.9615 30.9102C19.1269 30.9102 19.1837 30.8638 19.2405 30.6991C19.7158 29.402 19.9896 27.9813 20.0723 26.3753C19.5505 28.2026 18.9047 29.6285 18.0212 30.8999H18.5017ZM20.8731 27.5849C20.8318 27.8886 20.7956 28.1717 20.7388 28.4497C20.6974 28.6504 20.7336 28.8255 20.8576 29.0468C21.1676 29.5924 21.5499 30.1432 22.0355 30.73C22.1337 30.8484 22.237 30.8999 22.3972 30.8999C22.7588 30.8999 23.1101 30.8999 23.4666 30.8999H24.5567C23.0068 29.8086 21.8289 28.7122 20.8834 27.4871C20.8834 27.5232 20.8731 27.5541 20.8731 27.5901V27.5849ZM21.2554 25.7833C21.1211 25.7833 21.0281 25.8142 20.9919 25.8709C20.9557 25.9275 20.9661 26.0304 21.0281 26.1643C21.0436 26.2054 21.0694 26.2363 21.0952 26.2723L21.1262 26.3187C21.5809 26.993 21.9632 27.4717 22.3765 27.8835C22.4953 28.0019 22.5832 28.0945 22.6503 28.1717C22.7175 28.2438 22.7898 28.3313 22.8156 28.3365C22.8466 28.3365 22.9655 28.2489 23.0895 28.1563C23.1566 28.11 23.2341 28.0482 23.3271 27.9864C24.3346 27.2761 25.2645 26.5555 26.1635 25.7885H21.2554V25.7833ZM15.0816 13.234C14.7044 13.234 14.3325 13.234 13.9605 13.2494C13.077 13.2752 12.4106 13.6509 11.9817 14.3613C11.7648 14.7164 11.6253 15.1025 11.5633 15.504C11.4444 16.2967 11.3721 17.11 11.305 17.8975C11.2688 18.3042 11.2378 18.7057 11.1965 19.1123C11.1138 19.941 11.0363 20.7749 10.9588 21.6037C10.9588 21.6037 10.7108 24.3369 10.6643 24.8259C10.6592 24.898 10.6643 24.9134 10.6643 24.9186C10.9588 24.8928 11.2223 24.8825 11.5684 24.8825C11.7338 24.8825 12.6482 24.8928 12.6482 24.8928C12.7877 24.8928 12.8239 24.862 12.8549 24.7178C12.9995 24.059 13.1958 23.4207 13.3663 22.8802L13.5058 22.4427C13.7538 21.6706 14.007 20.8779 14.1775 20.0697C14.2136 19.9102 14.1981 19.7712 14.1258 19.6219C13.7848 18.8704 13.542 18.1806 13.387 17.5166C13.2165 16.7754 13.0719 15.8952 13.263 14.9686C13.3147 14.7061 13.4903 14.5363 13.7022 14.5363C13.7435 14.5363 13.7796 14.5414 13.821 14.5569C14.0018 14.6135 14.2033 14.7576 14.131 15.1385C14.0638 15.4834 14.0483 15.818 14.0741 16.168C14.2963 15.6996 14.5753 15.3238 14.9369 15.0304C15.0402 14.9429 15.1487 14.9017 15.2572 14.9017C15.3399 14.9017 15.4691 14.9326 15.5827 15.0665C15.7532 15.2672 15.7325 15.5091 15.5259 15.6841C14.8439 16.2709 14.6424 17.0791 14.5288 17.7843C14.4978 17.9799 14.4771 18.1034 14.5288 18.2321C14.6941 18.6696 14.8491 19.066 15.0351 19.4469C15.0764 19.5344 15.0971 19.5344 15.1281 19.5344C17.0086 19.1998 18.4346 18.7211 19.6538 18.0159C21.4311 16.9916 22.4798 15.6121 22.8518 13.8053C22.9293 13.4296 23.0068 13.0435 22.9603 12.6626C22.9551 12.6163 22.95 12.5905 22.9448 12.5803C22.9448 12.5854 22.9241 12.5905 22.888 12.606C22.5677 12.7295 22.2112 12.7861 21.7669 12.7861H21.3846C20.8266 12.7861 20.2686 12.7861 19.7107 12.7964C19.5712 12.7964 19.4368 12.8016 19.2973 12.8016C18.884 12.8016 18.3932 12.781 17.9128 12.6266C17.8611 12.6111 17.8353 12.606 17.8249 12.606C17.8249 12.606 17.8094 12.6266 17.7991 12.7038C17.7268 13.1671 17.6338 13.2443 17.1688 13.2443C16.833 13.2443 16.5178 13.2443 16.2027 13.2391C15.8307 13.2391 15.4639 13.234 15.0919 13.234H15.0816ZM14.255 23.0295C14.0535 23.642 13.8623 24.2649 13.7228 24.8928C13.697 24.9031 13.7073 24.9083 13.7486 24.9134H13.8158C13.8158 24.9134 13.8261 24.8928 13.8261 24.8362C13.8158 24.4399 13.9243 24.0693 14.1568 23.7347C14.1775 23.7038 14.193 23.6626 14.1981 23.6266L14.2085 23.5545C14.2291 23.3847 14.2446 23.2096 14.2601 23.0295H14.255ZM26.4476 24.8877C27.7702 24.8877 29.0928 24.898 30.4154 24.9031C30.5755 24.9031 30.6582 24.8465 30.6995 24.7075C30.777 24.4399 30.7822 24.1516 30.715 23.7862C30.5032 22.6177 30.2862 21.4544 30.0641 20.2859C29.9814 19.8484 29.9039 19.416 29.8213 18.9785C29.6198 17.8924 29.4183 16.7702 29.1755 15.6738C28.8138 14.037 27.796 13.2391 26.0705 13.2391H24.3242C24.0074 13.2426 23.8231 13.397 23.7714 13.7024C23.5028 15.2775 22.7846 16.6107 21.6377 17.6607C20.6406 18.577 19.4162 19.2513 17.7836 19.7866C17.081 20.0183 16.3525 20.2036 15.5569 20.3528C15.8255 20.3065 17.1533 20.0697 17.1533 20.0697C17.4219 20.0234 17.6906 19.9719 17.9592 19.9307C17.9954 19.9256 18.0264 19.9205 18.0574 19.9205C18.2899 19.9205 18.4501 20.0594 18.4862 20.2962C18.5069 20.4506 18.4656 20.5845 18.3622 20.672C18.3932 20.6668 18.4242 20.6617 18.4552 20.6617C18.6205 20.6617 18.7549 20.7492 18.8272 20.9036C18.8944 21.0426 18.8789 21.1558 18.8582 21.2227C18.8169 21.336 18.7239 21.4286 18.5844 21.4956C18.4656 21.5522 18.3364 21.6037 18.2124 21.65L15.5001 22.6537C15.1591 22.7824 15.1022 22.8133 15.1436 23.1067C15.2056 23.081 15.2624 23.0552 15.3244 23.0295L20.8163 20.497C20.9351 20.4403 21.0436 20.4146 21.1366 20.4146C21.3019 20.4146 21.4259 20.4918 21.5086 20.6411C21.5654 20.744 21.5757 20.847 21.5447 20.9448C21.5034 21.0735 21.3897 21.1764 21.1986 21.2742C20.9609 21.3926 20.7233 21.5007 20.4804 21.6139L18.9822 22.3088C17.7164 22.8957 16.4558 23.4825 15.1849 24.059C14.8853 24.1928 14.7406 24.3833 14.6993 24.7024C14.6838 24.8311 14.6889 24.8671 14.6993 24.8723C14.6993 24.8723 14.7303 24.8877 14.8543 24.8877C14.8543 24.8877 15.8049 24.8774 15.9805 24.8774C16.2182 24.8774 16.4558 24.8774 16.6883 24.8928C16.7606 24.8928 16.833 24.898 16.9053 24.898C17.4478 24.898 17.8869 24.7693 18.2796 24.4965L18.3622 24.4399C18.4294 24.3935 18.5017 24.3421 18.5172 24.3215C18.5069 24.3215 18.4346 24.2288 18.3571 24.1362C18.1711 23.9097 18.1711 23.6781 18.3571 23.4979C18.4656 23.3898 18.574 23.3692 18.6464 23.3692C18.76 23.3692 18.8789 23.4258 18.9822 23.5288C19.2198 23.7707 19.4058 23.9766 19.5712 24.1722C19.659 24.2752 19.6952 24.3884 19.6848 24.4965C19.6745 24.6149 19.6022 24.7281 19.4782 24.8259C19.4523 24.8465 19.4213 24.8671 19.3903 24.8825H26.4528L26.4476 24.8877ZM17.1791 20.9654C16.6625 21.058 16.1459 21.1507 15.6292 21.2433C15.5259 21.2639 15.4484 21.2742 15.3812 21.2845C15.3141 21.2948 15.2366 21.3051 15.2211 21.3154C15.2107 21.336 15.2107 21.4647 15.2107 21.6037V21.7632C15.2107 21.7993 15.2107 21.8198 15.2107 21.8301C15.2159 21.825 15.2366 21.8198 15.2624 21.8095C15.3037 21.789 15.3502 21.7735 15.3916 21.7581L17.9024 20.8367L17.1791 20.9654ZM16.8071 12.3847C16.8485 12.3847 16.9105 12.3795 16.9363 12.3538C16.957 12.328 16.9725 12.2766 16.9673 12.1993C16.9673 12.1427 16.9673 12.0861 16.9776 12.0295C16.8485 12.1788 16.7038 12.292 16.5437 12.3641C16.616 12.3641 16.8071 12.3795 16.8071 12.3795V12.3847ZM23.7611 12.0707C23.7559 12.1993 23.7663 12.2714 23.8024 12.3074C23.8438 12.3538 23.9419 12.3744 24.1021 12.3744C24.1021 12.3744 24.1847 12.3744 24.1951 12.3744C24.0607 12.3177 23.9316 12.2354 23.8179 12.1273C23.7973 12.1067 23.7818 12.0913 23.7611 12.0707ZM25.0734 6.10482C25.0217 6.26954 24.9752 6.42396 24.9339 6.58353C24.9029 6.71221 24.8564 6.8306 24.815 6.95414C24.7427 7.16004 24.6755 7.35049 24.6549 7.55639C24.5825 8.36968 24.4689 9.33224 24.1434 10.2588C23.9884 10.6963 24.1227 11.036 24.3656 11.4066C24.4069 11.4736 24.4586 11.5199 24.5205 11.5456C24.5722 11.5662 24.6084 11.5714 24.6239 11.5714C24.6239 11.5714 24.6859 11.5714 24.6859 11.453C24.6859 11.3397 24.6652 11.2265 24.6497 11.1132C24.6239 10.9588 24.5877 10.8095 24.5515 10.6551C24.4947 10.4286 24.4379 10.197 24.4172 9.95508C24.3552 9.26018 24.5929 8.6322 24.8254 8.02995C25.0682 7.39167 25.156 6.8409 25.1043 6.31586C25.0992 6.23865 25.0889 6.16659 25.0682 6.09453L25.0734 6.10482ZM15.6395 6.22836C15.5775 6.45484 15.5672 6.68648 15.6034 6.93355C15.6809 7.51006 15.8772 8.04539 16.0735 8.54469C16.3422 9.21385 16.3783 9.9036 16.1872 10.5882C16.1149 10.8507 16.058 11.1184 16.0064 11.3861C15.9805 11.525 16.0064 11.5456 16.027 11.5559C16.0529 11.5714 16.0735 11.5765 16.0993 11.5765C16.1458 11.5765 16.1923 11.5559 16.2492 11.5147C16.5178 11.3088 16.6935 10.7323 16.5953 10.4081C16.306 9.49696 16.1355 8.66823 16.0839 7.89097C16.0529 7.40197 15.8927 6.95929 15.7274 6.49088C15.6964 6.40337 15.6654 6.32101 15.6395 6.23351V6.22836ZM17.9489 3.46935C17.4529 3.46935 17.2876 3.59804 17.1068 4.13337C16.8795 4.82826 16.864 5.56434 16.8691 6.19747C16.8795 7.69537 17.081 9.02855 17.4839 10.2742C17.6648 10.8353 18.0212 11.103 18.636 11.139C19.1888 11.175 19.752 11.1905 20.3151 11.1905C20.8783 11.1905 21.4052 11.175 21.9529 11.139C22.8156 11.0875 23.0378 10.9073 23.2961 10.0632C23.7146 8.68367 23.8954 7.2321 23.8438 5.61582C23.8231 4.9621 23.7353 4.44736 23.5699 3.99953C23.4201 3.60318 23.2238 3.4642 22.8053 3.45906H22.6142C22.547 3.45906 22.4798 3.45905 22.4127 3.46935C21.865 3.55171 21.2761 3.59289 20.5579 3.59289C20.124 3.59289 19.6848 3.57745 19.2508 3.56715H19.1217C18.9357 3.55686 18.7549 3.53627 18.5689 3.51568C18.3984 3.49509 18.2279 3.4745 18.0574 3.46935H17.9489ZM20.3513 0.869911C20.0568 0.869911 19.7623 0.916238 19.4782 1.01404C18.4759 1.34862 17.6028 1.90969 16.8898 2.6818C16.6367 2.95461 16.461 3.26345 16.3628 3.60318C16.6418 2.90828 17.143 2.56855 17.8766 2.56855C17.9747 2.56855 18.0781 2.5737 18.1866 2.58914C18.8272 2.66121 19.4782 2.67665 20.1085 2.68694C20.3926 2.69209 20.6716 2.69724 20.9557 2.70753H21.0797C21.3639 2.70753 21.6532 2.67665 21.9374 2.64062C22.144 2.61488 22.3455 2.58914 22.5522 2.57885C22.6245 2.57885 22.6968 2.5737 22.764 2.5737C23.5028 2.5737 23.9987 2.85681 24.3036 3.4642C24.1537 3.05241 23.9006 2.68694 23.5389 2.36781C23.0016 1.89424 22.4075 1.50304 21.7669 1.20964C21.2709 0.983154 20.8111 0.869911 20.3564 0.869911H20.3513Z" fill="#EC5B12"/>
<path d="M21.8857 24.7693C21.7514 24.7693 21.648 24.7075 21.5705 24.6561C21.5705 24.6561 20.3461 23.8119 19.9225 23.5185C19.7933 23.431 19.7158 23.3177 19.6952 23.1993C19.6848 23.1221 19.69 23.0037 19.7881 22.8699C19.8966 22.7258 20.0258 22.6949 20.1136 22.6949C20.2118 22.6949 20.3203 22.7309 20.4236 22.803C20.8938 23.117 21.3639 23.431 21.8237 23.7604C21.9012 23.817 21.9735 23.8428 22.0562 23.8428C22.0872 23.8428 22.1234 23.8428 22.1595 23.8325C23.1153 23.6266 24.0711 23.4207 25.0269 23.2199L25.2645 23.1685C25.3782 23.1427 25.497 23.1221 25.6158 23.117H25.621C25.8793 23.117 26.0343 23.2405 26.0756 23.4516C26.1273 23.6986 26.0033 23.8994 25.7605 23.9612C25.5125 24.0229 25.2593 24.0796 25.0062 24.131C25.0062 24.131 23.0946 24.5377 22.1905 24.7281C22.1337 24.7384 21.9322 24.7745 21.9322 24.7745H21.8857V24.7693Z" fill="#EC5B12"/>
<path d="M26.7111 23.3229C26.4631 23.3229 26.2875 23.1376 26.2616 22.8442L25.838 18.1652C25.8276 18.0416 25.8121 17.9233 25.8018 17.8203L25.7915 17.7071V17.6196C25.7708 17.2695 25.9103 17.0791 26.1738 17.0585H26.2255C26.4631 17.0585 26.6284 17.2181 26.6543 17.4857C26.7059 17.9696 26.7524 18.4534 26.7989 18.9321L27.1451 22.7567C27.1606 22.9059 27.1347 23.0346 27.0727 23.1324C27.0056 23.2405 26.8919 23.3074 26.7628 23.3229H26.7111Z" fill="#EC5B12"/>
<path d="M29.7438 39.3622C29.4131 39.3622 29.222 39.1872 29.2116 38.8886C29.2013 38.4357 29.2013 37.9621 29.2116 37.4525C29.2168 37.1797 29.4079 37.0047 29.7024 37.0047C29.8626 37.0047 30.0176 37.0047 30.1777 37.0047C30.3069 37.0047 30.4361 37.0047 30.5652 37.0047C30.87 37.0047 31.0612 37.1951 31.0664 37.504C31.0715 37.6687 31.0664 37.8334 31.0664 37.9981V38.3996C31.0664 38.5438 31.0664 38.693 31.0664 38.8372C31.056 39.1923 30.8959 39.3519 30.5445 39.3622C30.4671 39.3622 30.3896 39.3622 30.3121 39.3622H29.7386H29.7438ZM30.1002 37.9055C30.1002 37.9055 30.0951 37.9209 30.0951 37.9724V38.4357L30.1726 38.4562C30.1726 38.379 30.1726 38.3224 30.1726 38.2658V37.9775C30.1726 37.9209 30.1622 37.9106 30.1622 37.9106H30.0951L30.1002 37.9055Z" fill="#EC5B12"/>
<path d="M10.437 39.3622C10.127 39.3622 9.94103 39.182 9.9307 38.868C9.92553 38.7085 9.9307 38.5489 9.9307 38.3893V37.9621C9.9307 37.8077 9.9307 37.6584 9.9307 37.504C9.94619 37.1745 10.1167 37.0098 10.4473 36.9995C10.5507 36.9995 10.9278 36.9995 10.9278 36.9995H11.2585C11.5788 36.9995 11.7699 37.1694 11.7906 37.4679C11.8216 37.9261 11.8216 38.4151 11.7906 38.9092C11.7751 39.1872 11.5839 39.357 11.2998 39.357H10.437V39.3622ZM10.871 37.9055C10.8348 37.9055 10.8245 37.9261 10.8245 37.9775C10.8245 37.9775 10.8245 38.343 10.8245 38.4408L10.902 38.4614V37.9775C10.902 37.9209 10.8968 37.9055 10.8916 37.9055H10.8606H10.871Z" fill="#EC5B12"/>
<path d="M34.533 39.3622C34.223 39.3622 34.0422 39.1717 34.037 38.8577V37.5091C34.037 37.19 34.2178 37.0098 34.5278 37.0047H34.9825C35.1168 37.0047 35.2563 37.0047 35.3906 37.0047C35.7006 37.0047 35.8814 37.19 35.8866 37.504C35.8866 37.6584 35.8866 38.8526 35.8866 38.8526C35.8866 39.1666 35.7058 39.3519 35.3958 39.357C35.2511 39.357 35.1065 39.357 34.9566 39.357C34.8068 39.357 34.6725 39.357 34.533 39.357V39.3622ZM34.9308 38.3996C34.9308 38.4408 34.9308 38.4768 34.9308 38.4871L34.9773 38.4614C34.9773 38.4614 34.9876 38.4511 34.9876 38.4048V38.3173C34.9876 38.1834 34.9876 38.0496 34.9825 37.9209C34.9411 37.9878 34.9411 38.0547 34.9411 38.1268V38.3482H34.9308V38.3996Z" fill="#EC5B12"/>
<path d="M6.04041 39.3673C5.88542 39.3673 5.7356 39.3673 5.5806 39.3622C5.29645 39.3519 5.1208 39.1769 5.1208 38.8835C5.1208 38.4151 5.1208 37.9467 5.1208 37.4834C5.1208 37.2003 5.30162 37.0201 5.58577 37.0098C5.74076 37.0098 5.89575 37.0047 6.04558 37.0047C6.1954 37.0047 6.3504 37.0047 6.50022 37.0098C6.78437 37.0201 6.95486 37.1951 6.96003 37.4885C6.96003 37.6584 6.96003 37.8334 6.96003 38.0033V38.4048C6.96003 38.5695 6.96003 38.7342 6.96003 38.8989C6.9497 39.1872 6.7792 39.3622 6.48989 39.3673C6.3349 39.3673 6.18507 39.3673 6.03008 39.3673H6.04041ZM6.04041 37.9106H6.01975C6.01975 38.1165 6.01458 38.2864 6.01975 38.4511C6.01975 38.4511 6.03008 38.4614 6.07141 38.4614C6.07141 38.4048 6.07141 38.3584 6.07141 38.3173V38.1165C6.07141 38.0599 6.07141 38.0033 6.07141 37.9415L6.04558 37.9003L6.04041 37.9106Z" fill="#EC5B12"/>
<path d="M20.5011 39.3673C20.3564 39.3673 20.2066 39.3673 20.062 39.3673C19.7623 39.3622 19.5815 39.182 19.5763 38.8835C19.5763 38.7239 19.5763 38.5592 19.5763 38.3996V38.0187C19.5763 37.854 19.5763 37.6944 19.5763 37.5297C19.5867 37.1848 19.7416 37.0201 20.0775 37.0098C20.2066 37.0098 20.3358 37.0047 20.4649 37.0047C20.6251 37.0047 20.7853 37.0047 20.9454 37.0098C21.2451 37.015 21.4259 37.1951 21.4311 37.4937C21.4311 37.9518 21.4311 38.4099 21.4311 38.868C21.4311 39.1769 21.2451 39.3622 20.9299 39.3622H20.5063L20.5011 39.3673ZM20.4701 38.4614L20.5476 38.4717L20.5321 38.2349C20.5321 38.132 20.5321 38.0239 20.5218 37.9209C20.4753 37.9878 20.4804 38.0599 20.4804 38.1268V38.3533H20.4701C20.4701 38.3893 20.4701 38.4254 20.4701 38.4614Z" fill="#EC5B12"/>
<path d="M15.2624 39.3622C15.1022 39.3622 14.9782 39.3159 14.8904 39.2284C14.8078 39.1409 14.7664 39.0173 14.7664 38.8629C14.7664 38.7085 14.7664 38.554 14.7664 38.3996V38.3224L14.7458 38.1937C14.7458 38.1937 14.7458 37.715 14.7458 37.5709C14.7458 37.2003 14.9266 37.0098 15.2934 37.0047H16.0735C16.4145 37.0047 16.6057 37.19 16.6108 37.4988C16.616 37.957 16.6212 38.4202 16.6108 38.8783C16.6057 39.182 16.4145 39.3673 16.0993 39.3673H15.2572L15.2624 39.3622Z" fill="#EC5B12"/>
<path d="M24.908 39.3622C24.5877 39.3622 24.4017 39.182 24.3914 38.8783C24.3811 38.4202 24.3862 37.957 24.3914 37.4988C24.3914 37.2054 24.5825 37.015 24.8719 37.0098C25.0217 37.0098 25.1715 37.0047 25.3213 37.0047C25.4712 37.0047 25.6313 37.0047 25.7863 37.0098C26.0653 37.0201 26.2306 37.19 26.2358 37.4679C26.2358 37.643 26.2358 38.2195 26.2358 38.2195V38.4151C26.2358 38.5695 26.2358 38.7188 26.2358 38.8732C26.2255 39.2026 26.0756 39.357 25.745 39.3622C25.6468 39.3622 25.5487 39.3622 25.4557 39.3622H24.908ZM25.3265 37.9003C25.2955 37.9003 25.2852 37.9055 25.2852 37.9055C25.2852 38.0856 25.2852 38.2709 25.2955 38.4562H25.3678C25.3678 38.3893 25.3627 38.1783 25.3627 38.1783V38.0908C25.3627 38.029 25.3627 37.9672 25.3627 37.9055H25.3265V37.9003Z" fill="#EC5B12"/>
<path d="M20.2893 9.82125C19.6125 9.79036 19.0597 9.6102 18.5999 9.27562C18.3932 9.1212 18.2951 8.97192 18.2951 8.80721C18.2951 8.64764 18.3932 8.50351 18.5947 8.36453C18.9099 8.14319 19.2922 7.92185 19.7313 7.92185C19.9276 7.92185 20.1291 7.96818 20.3254 8.06083C20.3358 8.06083 20.3461 8.06083 20.3564 8.06083C20.3978 8.06083 20.4288 8.04539 20.4598 8.02995C20.6096 7.95789 20.7801 7.91671 20.9609 7.91671C21.4827 7.91671 22.02 8.2204 22.299 8.50351C22.3868 8.59102 22.4282 8.69911 22.4282 8.81235C22.423 8.95133 22.3455 9.09031 22.206 9.2087C21.772 9.57932 21.0436 9.81095 20.31 9.81095H20.2893V9.82125Z" fill="#EC5B12"/>
<path d="M19.938 6.10997C19.8346 6.10997 19.6797 6.06364 19.5505 5.85775L19.4885 5.7548C19.3697 5.5592 19.2612 5.37904 19.1062 5.22461C18.915 5.03931 18.729 4.94666 18.543 4.94666C18.3984 4.94666 18.2434 4.99813 18.0677 5.10622C17.9179 5.19888 17.7888 5.32242 17.6389 5.47169C17.5201 5.60038 17.3909 5.66214 17.2669 5.66214C17.1688 5.66214 17.0706 5.62096 16.9828 5.54375C16.8846 5.45625 16.833 5.3533 16.8278 5.24006C16.8226 5.11652 16.8743 4.99298 16.9776 4.87974C17.4581 4.3547 17.9541 4.08704 18.4965 4.05615C18.9667 4.06645 19.349 4.22602 19.6797 4.5503C19.9173 4.78194 20.124 5.06504 20.3099 5.42536C20.4443 5.68273 20.3874 5.91437 20.1601 6.0482C20.0826 6.08938 20.0103 6.11511 19.9328 6.11511L19.938 6.10997Z" fill="#EC5B12"/>
<path d="M20.8473 6.10997C20.7801 6.10997 20.7078 6.08938 20.6406 6.05335C20.5528 6.00187 20.279 5.80627 20.5166 5.35845C20.6974 5.01872 20.9661 4.59663 21.4104 4.30838C21.648 4.15395 21.9219 4.06645 22.2008 4.05101C22.857 4.09733 23.3891 4.39074 23.8438 4.94151C24.0039 5.13711 23.9832 5.37389 23.7973 5.53861C23.7094 5.61582 23.6113 5.657 23.5131 5.657C23.4046 5.657 23.2961 5.61067 23.198 5.51802L23.1205 5.44081C22.981 5.30183 22.8518 5.17314 22.6916 5.08049C22.5263 4.98269 22.3817 4.93636 22.2473 4.93636C22.0717 4.93636 21.9012 5.01357 21.7255 5.17829C21.5654 5.32756 21.4311 5.51287 21.2916 5.77024C21.1779 5.98128 21.0177 6.09967 20.8421 6.09967L20.8473 6.10997Z" fill="#EC5B12"/>
<path d="M17.7371 6.23865C17.4633 6.22836 17.2928 6.05849 17.298 5.80112C17.3031 5.5592 17.4736 5.39448 17.7268 5.38418C18.0832 5.36874 18.4397 5.35845 18.791 5.34815C18.884 5.34815 18.9667 5.36359 19.039 5.38933C19.2715 5.47169 19.3852 5.63641 19.3645 5.8526C19.3387 6.07394 19.1785 6.22321 18.9409 6.23351C18.8582 6.23351 18.7704 6.23865 18.6825 6.23865H17.9592C17.8818 6.23865 17.8094 6.23865 17.7319 6.23865H17.7371Z" fill="#EC5B12"/>
<path d="M22.2783 6.23865H22.0975C22.0149 6.23865 21.9374 6.23865 21.8547 6.23865C21.6015 6.22836 21.4311 6.07394 21.4156 5.83716C21.4052 5.70332 21.4466 5.58493 21.5241 5.50257C21.6015 5.42022 21.71 5.37389 21.834 5.37389H22.0614C22.4127 5.37389 22.764 5.38418 23.1101 5.40477C23.3271 5.41507 23.4718 5.58493 23.4718 5.82686C23.4718 6.07394 23.322 6.23351 23.0843 6.24895C23.0016 6.24895 22.9138 6.2541 22.8311 6.2541H22.2732L22.2783 6.23865Z" fill="#EC5B12"/>
</svg>
