<svg width="53" height="44" viewBox="0 0 53 44" fill="none" xmlns="http://www.w3.org/2000/svg">
<path d="M32.3258 36.3702H20.6793C20.3278 36.3702 20.0425 36.0848 20.0425 35.7331V20.7488C20.0425 20.3971 20.3278 20.1117 20.6793 20.1117H32.3258C32.6773 20.1117 32.9626 20.3971 32.9626 20.7488V35.7331C32.9626 36.0848 32.6773 36.3702 32.3258 36.3702ZM21.3111 35.1011H31.6889V21.3858H21.3111V35.1011Z" fill="#6B3197"/>
<path d="M32.3258 21.5031H20.6793C20.3278 21.5031 20.0425 21.2177 20.0425 20.866V12.5481C20.0425 12.1965 20.3278 11.911 20.6793 11.911H32.3258C32.6773 11.911 32.9626 12.1965 32.9626 12.5481V20.866C32.9626 21.2177 32.6773 21.5031 32.3258 21.5031ZM21.3111 20.234H31.6889V13.1852H21.3111V20.234Z" fill="#6B3197"/>
<path d="M29.1925 21.5031H23.8126C23.461 21.5031 23.1757 21.2177 23.1757 20.866V15.2392C23.1757 14.8875 23.461 14.6021 23.8126 14.6021H29.1925C29.5441 14.6021 29.8294 14.8875 29.8294 15.2392V20.866C29.8294 21.2177 29.5441 21.5031 29.1925 21.5031ZM24.4443 20.234H28.5557V15.8763H24.4443V20.234Z" fill="#6B3197"/>
<path d="M32.3258 13.1801H20.6793C20.4552 13.1801 20.2514 13.0629 20.1342 12.8692C20.0221 12.6755 20.017 12.4411 20.1189 12.2423L21.2295 10.1833C21.3416 9.97939 21.5556 9.85196 21.79 9.85196H31.2151C31.4495 9.85196 31.6635 9.97939 31.7755 10.1833L32.8862 12.2423C32.9932 12.4411 32.9881 12.6755 32.8709 12.8692C32.7588 13.0629 32.5499 13.1801 32.3258 13.1801ZM31.261 11.911L30.833 11.1211H22.1619L21.7339 11.911H31.261Z" fill="#6B3197"/>
<path d="M32.3258 23.608H20.6793C20.3278 23.608 20.0425 23.3226 20.0425 22.9709C20.0425 22.6193 20.3278 22.3338 20.6793 22.3338H32.3258C32.6773 22.3338 32.9626 22.6193 32.9626 22.9709C32.9626 23.3226 32.6773 23.608 32.3258 23.608Z" fill="#6B3197"/>
<path d="M30.0077 36.3702H22.9923C22.6408 36.3702 22.3555 36.0848 22.3555 35.7331V26.0392C22.3555 25.6875 22.6408 25.4021 22.9923 25.4021H30.0077C30.3592 25.4021 30.6445 25.6875 30.6445 26.0392V35.7331C30.6445 36.0848 30.3592 36.3702 30.0077 36.3702ZM23.624 35.1011H29.3709V26.6762H23.624V35.1011Z" fill="#6B3197"/>
<path d="M35.6577 43.9949H17.3474C17.1334 43.9949 16.9347 43.8879 16.8176 43.7095C16.7004 43.5311 16.68 43.3018 16.7666 43.1081L20.0985 35.4834C20.2004 35.254 20.4297 35.1011 20.6793 35.1011H32.3258C32.5754 35.1011 32.8047 35.2489 32.9066 35.4834L36.2385 43.1081C36.3251 43.3018 36.3047 43.5311 36.1875 43.7095C36.0704 43.8879 35.8717 43.9949 35.6577 43.9949ZM18.3154 42.7258H34.6897L31.9131 36.3702H21.092L18.3154 42.7258Z" fill="#6B3197"/>
<path d="M20.6742 36.3702H14.6065C14.2549 36.3702 13.9696 36.0848 13.9696 35.7331V17.7111C13.9696 15.6877 15.6152 14.0415 17.6378 14.0415C19.6604 14.0415 21.306 15.6877 21.306 17.7111V35.7331C21.306 36.0848 21.0207 36.3702 20.6691 36.3702H20.6742ZM15.2433 35.1011H20.0425V17.7162C20.0425 16.3911 18.9675 15.3157 17.6429 15.3157C16.3183 15.3157 15.2433 16.3911 15.2433 17.7162V35.1011Z" fill="#6B3197"/>
<path d="M17.3423 43.9949H0.636836C0.285302 43.9949 0 43.7095 0 43.3578V39.0868C0 38.7351 0.285302 38.4497 0.636836 38.4497H19.0083C19.3598 38.4497 19.6451 38.7351 19.6451 39.0868C19.6451 39.4384 19.3598 39.7239 19.0083 39.7239H1.27367V42.7258H17.3474C17.6989 42.7258 17.9842 43.0112 17.9842 43.3629C17.9842 43.7146 17.6989 44 17.3474 44L17.3423 43.9949Z" fill="#6B3197"/>
<path d="M2.78679 39.7239C2.43526 39.7239 2.14996 39.4384 2.14996 39.0868V35.7331C2.14996 35.3814 2.43526 35.096 2.78679 35.096H14.6116C14.9631 35.096 15.2484 35.3814 15.2484 35.7331C15.2484 36.0848 14.9631 36.3702 14.6116 36.3702H3.41853V39.0868C3.41853 39.4384 3.13323 39.7239 2.7817 39.7239H2.78679Z" fill="#6B3197"/>
<path d="M20.6742 18.9955H14.6065C14.2549 18.9955 13.9696 18.7101 13.9696 18.3584C13.9696 18.0067 14.2549 17.7213 14.6065 17.7213H20.6742C21.0258 17.7213 21.3111 18.0067 21.3111 18.3584C21.3111 18.7101 21.0258 18.9955 20.6742 18.9955Z" fill="#6B3197"/>
<path d="M20.6742 21.3858H14.6065C14.2549 21.3858 13.9696 21.1004 13.9696 20.7488C13.9696 20.3971 14.2549 20.1117 14.6065 20.1117H20.6742C21.0258 20.1117 21.3111 20.3971 21.3111 20.7488C21.3111 21.1004 21.0258 21.3858 20.6742 21.3858Z" fill="#6B3197"/>
<path d="M14.6116 36.3702H5.19658C4.84504 36.3702 4.55974 36.0848 4.55974 35.7331V25.2033C4.55974 24.8516 4.84504 24.5662 5.19658 24.5662H14.6116C14.9631 24.5662 15.2484 24.8516 15.2484 25.2033L15.2484 35.7331C15.2484 36.0848 14.9631 36.3702 14.6116 36.3702ZM5.83341 35.1011H13.9798V25.8404H5.83341V35.1011Z" fill="#6B3197"/>
<path d="M12.105 36.3702H7.70316C7.35163 36.3702 7.06633 36.0848 7.06633 35.7331V29.3928C7.06633 29.0411 7.35163 28.7557 7.70316 28.7557H12.105C12.4565 28.7557 12.7418 29.0411 12.7418 29.3928V35.7331C12.7418 36.0848 12.4565 36.3702 12.105 36.3702ZM8.3349 35.1011H11.4681V30.0299H8.3349V35.1011Z" fill="#6B3197"/>
<path d="M26.5025 11.1211C24.5462 11.1211 22.9516 9.52578 22.9516 7.56863C22.9516 5.61149 24.5462 4.01622 26.5025 4.01622C28.4589 4.01622 30.0535 5.61149 30.0535 7.56863C30.0535 9.52578 28.4589 11.1211 26.5025 11.1211ZM26.5025 5.28531C25.2442 5.28531 24.2201 6.30974 24.2201 7.56863C24.2201 8.82753 25.2442 9.85196 26.5025 9.85196C27.7609 9.85196 28.785 8.82753 28.785 7.56863C28.785 6.30974 27.7609 5.28531 26.5025 5.28531Z" fill="#6B3197"/>
<path d="M31.2151 11.1261C30.8636 11.1261 30.5783 10.8407 30.5783 10.4891V8.19044C30.5783 7.19658 29.7733 6.39129 28.7799 6.39129C28.4283 6.39129 28.143 6.10588 28.143 5.7542C28.143 5.40253 28.4283 5.11711 28.7799 5.11711C30.4713 5.11711 31.8469 6.49323 31.8469 8.18534V10.484C31.8469 10.8356 31.5616 11.1211 31.21 11.1211L31.2151 11.1261Z" fill="#6B3197"/>
<path d="M21.7849 11.1261C21.4333 11.1261 21.148 10.8407 21.148 10.4891V8.19044C21.148 6.49832 22.5236 5.12221 24.215 5.12221C24.5666 5.12221 24.8519 5.40762 24.8519 5.7593C24.8519 6.11097 24.5666 6.39639 24.215 6.39639C23.2216 6.39639 22.4166 7.20167 22.4166 8.19553V10.4942C22.4166 10.8458 22.1313 11.1312 21.7798 11.1312L21.7849 11.1261Z" fill="#6B3197"/>
<path d="M26.5025 5.28531C26.151 5.28531 25.8657 4.99989 25.8657 4.64822V0.63709C25.8657 0.285416 26.151 0 26.5025 0C26.8541 0 27.1394 0.285416 27.1394 0.63709V4.64822C27.1394 4.99989 26.8541 5.28531 26.5025 5.28531Z" fill="#6B3197"/>
<path d="M17.6429 15.3157C17.2914 15.3157 17.0061 15.0302 17.0061 14.6786V10.0558C17.0061 9.70416 17.2914 9.41875 17.6429 9.41875C17.9944 9.41875 18.2797 9.70416 18.2797 10.0558V14.6786C18.2797 15.0302 17.9944 15.3157 17.6429 15.3157Z" fill="#6B3197"/>
<path d="M14.6116 25.8404C14.26 25.8404 13.9747 25.555 13.9747 25.2033C13.9747 22.9556 12.1457 21.131 9.90407 21.131C7.66241 21.131 5.83341 22.9607 5.83341 25.2033C5.83341 25.555 5.54811 25.8404 5.19658 25.8404C4.84504 25.8404 4.55974 25.555 4.55974 25.2033C4.55974 22.2574 6.95424 19.8619 9.89897 19.8619C12.8437 19.8619 15.2382 22.2574 15.2382 25.2033C15.2382 25.555 14.9529 25.8404 14.6014 25.8404H14.6116Z" fill="#6B3197"/>
<path d="M9.90407 21.1361C9.55253 21.1361 9.26723 20.8507 9.26723 20.499V16.7071C9.26723 16.3554 9.55253 16.07 9.90407 16.07C10.2556 16.07 10.5409 16.3554 10.5409 16.7071V20.499C10.5409 20.8507 10.2556 21.1361 9.90407 21.1361Z" fill="#6B3197"/>
<path d="M38.3935 36.3702H32.3258C31.9742 36.3702 31.6889 36.0848 31.6889 35.7331V17.7111C31.6889 15.6877 33.3345 14.0415 35.3571 14.0415C37.3797 14.0415 39.0253 15.6877 39.0253 17.7111V35.7331C39.0253 36.0848 38.74 36.3702 38.3884 36.3702H38.3935ZM32.9626 35.1011H37.7618V17.7162C37.7618 16.3911 36.6868 15.3157 35.3622 15.3157C34.0376 15.3157 32.9626 16.3911 32.9626 17.7162V35.1011Z" fill="#6B3197"/>
<path d="M52.3632 43.9949H35.6577C35.3062 43.9949 35.0209 43.7095 35.0209 43.3578C35.0209 43.0061 35.3062 42.7207 35.6577 42.7207H51.7314V39.7188H33.9917C33.6402 39.7188 33.3549 39.4333 33.3549 39.0817C33.3549 38.73 33.6402 38.4446 33.9917 38.4446H52.3632C52.7147 38.4446 53 38.73 53 39.0817V43.3527C53 43.7044 52.7147 43.9898 52.3632 43.9898V43.9949Z" fill="#6B3197"/>
<path d="M50.2132 39.7239C49.8617 39.7239 49.5764 39.4384 49.5764 39.0868V36.3702H38.3884C38.0369 36.3702 37.7516 36.0848 37.7516 35.7331C37.7516 35.3814 38.0369 35.096 38.3884 35.096H50.2132C50.5647 35.096 50.85 35.3814 50.85 35.7331V39.0868C50.85 39.4384 50.5647 39.7239 50.2132 39.7239Z" fill="#6B3197"/>
<path d="M38.3935 18.9955H32.3258C31.9742 18.9955 31.6889 18.7101 31.6889 18.3584C31.6889 18.0067 31.9742 17.7213 32.3258 17.7213H38.3935C38.7451 17.7213 39.0304 18.0067 39.0304 18.3584C39.0304 18.7101 38.7451 18.9955 38.3935 18.9955Z" fill="#6B3197"/>
<path d="M38.3935 21.3858H32.3258C31.9742 21.3858 31.6889 21.1004 31.6889 20.7488C31.6889 20.3971 31.9742 20.1117 32.3258 20.1117H38.3935C38.7451 20.1117 39.0304 20.3971 39.0304 20.7488C39.0304 21.1004 38.7451 21.3858 38.3935 21.3858Z" fill="#6B3197"/>
<path d="M47.8034 36.3702H38.3884C38.0369 36.3702 37.7516 36.0848 37.7516 35.7331V25.2033C37.7516 24.8516 38.0369 24.5662 38.3884 24.5662H47.8034C48.155 24.5662 48.4403 24.8516 48.4403 25.2033V35.7331C48.4403 36.0848 48.155 36.3702 47.8034 36.3702ZM39.0253 35.1011H47.1717V25.8404H39.0253V35.1011Z" fill="#6B3197"/>
<path d="M45.2968 36.3702H40.895C40.5435 36.3702 40.2582 36.0848 40.2582 35.7331V29.3928C40.2582 29.0411 40.5435 28.7557 40.895 28.7557H45.2968C45.6484 28.7557 45.9337 29.0411 45.9337 29.3928V35.7331C45.9337 36.0848 45.6484 36.3702 45.2968 36.3702ZM41.5268 35.1011H44.66V30.0299H41.5268V35.1011Z" fill="#6B3197"/>
<path d="M35.3571 15.3157C35.0056 15.3157 34.7203 15.0302 34.7203 14.6786V10.0558C34.7203 9.70416 35.0056 9.41875 35.3571 9.41875C35.7086 9.41875 35.9939 9.70416 35.9939 10.0558V14.6786C35.9939 15.0302 35.7086 15.3157 35.3571 15.3157Z" fill="#6B3197"/>
<path d="M47.8034 25.8404C47.4519 25.8404 47.1666 25.555 47.1666 25.2033C47.1666 22.9556 45.3376 21.131 43.0959 21.131C40.8543 21.131 39.0253 22.9607 39.0253 25.2033C39.0253 25.555 38.74 25.8404 38.3884 25.8404C38.0369 25.8404 37.7516 25.555 37.7516 25.2033C37.7516 22.2574 40.1461 19.8619 43.0908 19.8619C46.0356 19.8619 48.4301 22.2574 48.4301 25.2033C48.4301 25.555 48.1448 25.8404 47.7932 25.8404H47.8034Z" fill="#6B3197"/>
<path d="M43.0959 21.1361C42.7444 21.1361 42.4591 20.8507 42.4591 20.499V16.7071C42.4591 16.3554 42.7444 16.07 43.0959 16.07C43.4475 16.07 43.7328 16.3554 43.7328 16.7071V20.499C43.7328 20.8507 43.4475 21.1361 43.0959 21.1361Z" fill="#6B3197"/>
<path d="M20.6742 28.878H14.6065C14.2549 28.878 13.9696 28.5926 13.9696 28.2409C13.9696 27.8893 14.2549 27.6038 14.6065 27.6038H20.6742C21.0258 27.6038 21.3111 27.8893 21.3111 28.2409C21.3111 28.5926 21.0258 28.878 20.6742 28.878Z" fill="#6B3197"/>
<path d="M20.6742 31.1002H14.6065C14.2549 31.1002 13.9696 30.8148 13.9696 30.4631C13.9696 30.1114 14.2549 29.826 14.6065 29.826H20.6742C21.0258 29.826 21.3111 30.1114 21.3111 30.4631C21.3111 30.8148 21.0258 31.1002 20.6742 31.1002Z" fill="#6B3197"/>
<path d="M38.3935 31.1002H32.3258C31.9742 31.1002 31.6889 30.8148 31.6889 30.4631C31.6889 30.1114 31.9742 29.826 32.3258 29.826H38.3935C38.7451 29.826 39.0304 30.1114 39.0304 30.4631C39.0304 30.8148 38.7451 31.1002 38.3935 31.1002Z" fill="#6B3197"/>
<path d="M38.3935 28.878H32.3258C31.9742 28.878 31.6889 28.5926 31.6889 28.2409C31.6889 27.8893 31.9742 27.6038 32.3258 27.6038H38.3935C38.7451 27.6038 39.0304 27.8893 39.0304 28.2409C39.0304 28.5926 38.7451 28.878 38.3935 28.878Z" fill="#6B3197"/>
</svg>
