<svg width="33" height="44" viewBox="0 0 33 44" fill="none" xmlns="http://www.w3.org/2000/svg">
<path d="M31.6733 42.73C32.021 42.7776 32.3741 42.9837 32.3901 43.3272C32.4062 43.6812 32.1922 43.8926 31.8552 43.956C31.6144 43.9983 31.363 43.9983 31.1169 43.9983C24.05 43.9983 23.5739 43.9983 16.5124 43.9983C9.46688 43.9983 9.02286 43.9983 1.97736 43.9983C1.74733 43.9983 1.51729 44.0089 1.29261 43.9772C0.912782 43.9296 0.629251 43.7394 0.650649 43.3272C0.672048 42.9255 0.93953 42.7353 1.34075 42.7194L1.29261 41.9849C1.27121 38.2962 1.26586 34.6128 1.29261 30.9241C1.29796 30.2688 1.01443 29.7984 0.650649 29.3492C0.16918 28.7626 -0.0287568 28.1338 0.00334113 27.3728C0.0568377 26.226 0.0140404 25.0792 0.0193901 23.9325C0.0193901 23.2402 0.238726 22.9971 0.934181 23.0024C1.98271 23.0024 1.84362 22.9072 1.85432 22.0511C1.85432 21.8609 1.83827 21.6706 1.85432 21.4857C1.99341 20.3495 1.69383 19.3665 0.993027 18.4364C0.431313 17.6913 0.704146 16.7665 0.78439 15.9209C0.811139 15.6091 1.13212 15.4876 1.44775 15.5087C1.80617 15.5299 1.96131 15.3978 1.96131 15.0225C1.95061 13.4213 1.96131 11.8253 1.95596 10.2241C1.95596 10.092 1.96666 9.95456 1.87037 9.84886C1.04652 8.97161 1.52264 7.92525 1.4852 6.94759C2.26089 6.14432 1.90782 5.14552 1.94527 4.22599C1.97201 3.51256 2.18065 2.89426 2.62467 2.35522C2.98845 1.91131 3.17569 1.43569 3.11684 0.854378C3.07404 0.415752 3.22383 0.0563955 3.73205 0.0035489C4.13327 -0.0387283 4.4168 0.29949 4.40076 0.870232C4.38471 1.40398 4.481 1.86375 4.85548 2.27067C5.51348 2.97881 5.73282 3.82964 5.66862 4.77559C5.64188 5.16666 5.66327 5.56301 5.66862 5.95936C5.66862 6.10733 5.63118 6.28172 5.74887 6.3927C6.69576 7.26995 6.0966 8.36916 6.19824 9.36796C6.19824 9.41552 6.17149 9.49479 6.13404 9.52121C5.47604 9.97041 5.67932 10.6521 5.67397 11.2652C5.65792 12.4859 5.67397 13.7119 5.66327 14.9327C5.66327 15.3238 5.75957 15.5246 6.19824 15.5246C6.73855 15.5246 6.87765 15.9156 6.90439 16.3701C6.95254 17.1364 6.95789 17.1364 7.73359 17.1364C13.5433 17.1364 19.3477 17.1364 25.1574 17.1364C26.0027 17.1364 26.0241 17.1258 26.0562 16.2961C26.0775 15.7941 26.2808 15.5034 26.8105 15.514C27.1796 15.5193 27.2545 15.3132 27.2491 15.0067C27.2491 13.4266 27.2491 11.8465 27.2438 10.2664C27.2438 10.1395 27.2438 9.97569 27.1635 9.88585C26.4199 8.99803 26.8907 7.97281 26.7944 7.011C27.5166 6.12846 27.1742 5.07682 27.2491 4.09387C27.3026 3.38573 27.5861 2.78328 28.0302 2.24953C28.3618 1.84789 28.5491 1.42512 28.4314 0.90194C28.4207 0.849094 28.4207 0.790963 28.426 0.732831C28.4635 0.336482 28.6347 0.0194029 29.068 0.0035489C29.4799 -0.0123051 29.7367 0.273066 29.71 0.642992C29.6511 1.49911 30.0363 2.14383 30.5445 2.77799C30.9136 3.23247 30.9885 3.8085 30.9992 4.38453C31.0099 4.85486 31.0099 5.3252 30.9992 5.79553C30.9939 6.12318 31.0153 6.42441 31.3256 6.64108C31.5074 6.76262 31.5609 6.98458 31.5609 7.19597C31.5716 7.83541 31.5716 8.47485 31.5609 9.1143C31.5609 9.25698 31.5235 9.46308 31.4272 9.53178C30.8976 9.91228 31.0046 10.4513 31.0046 10.9692C31.0046 12.2851 31.0099 13.601 31.0046 14.9168C31.0046 15.2973 31.0848 15.5246 31.5342 15.5193C31.9782 15.514 32.1655 15.7888 32.1922 16.2116C32.2564 17.3161 32.235 18.3942 31.4112 19.282C31.0955 19.6202 31.026 20.0324 31.0474 20.4869C31.0741 21.1422 31.0688 21.8028 31.0474 22.4633C31.0367 22.8438 31.1811 23.0288 31.577 23.0024C31.6893 22.9918 31.807 23.0024 31.9194 23.0024C32.8021 23.0182 32.9946 23.2032 32.9946 24.0699C32.9946 25.3276 32.984 26.5907 33 27.8484C33 28.2659 32.9305 28.6411 32.6309 28.937C31.6947 29.8566 31.6037 30.9663 31.6572 32.2082C31.7428 34.2164 31.6412 36.2299 31.6412 38.238C31.6412 39.5169 31.6198 40.7958 31.6786 42.0747L31.6679 42.7353L31.6733 42.73ZM16.5124 42.7141C17.8819 42.7141 19.2514 42.6877 20.6209 42.7247C21.188 42.7406 21.3378 42.5345 21.3271 42.006C21.3057 40.2409 21.2896 38.4758 21.3271 36.7108C21.3485 35.7542 20.9526 35.0514 20.2411 34.4701C19.2728 33.6774 18.1547 33.1753 16.9724 32.7843C16.6729 32.6839 16.3733 32.6786 16.0737 32.7737C14.9984 33.1066 13.9659 33.54 13.0511 34.2058C12.1578 34.8559 11.6388 35.6591 11.6816 36.827C11.7405 38.571 11.7084 40.3202 11.687 42.0694C11.6816 42.5503 11.8261 42.7353 12.3396 42.7247C13.7252 42.6983 15.1161 42.7141 16.507 42.7141H16.5124ZM16.5124 20.0958C16.3626 20.0958 16.2074 20.0958 16.0576 20.0958C12.8586 20.0958 9.66481 20.1064 6.46572 20.0852C5.90936 20.0852 5.70607 20.2596 5.76492 20.7987C5.79702 21.1157 5.76492 21.4381 5.77027 21.7552C5.78097 23.1186 5.62048 22.9865 7.02744 22.9918C7.88873 22.9918 7.89408 22.9918 7.92083 22.141C7.93688 21.7023 8.05992 21.3113 8.56279 21.306C9.06565 21.2954 9.23149 21.6706 9.22079 22.1198C9.19939 23.0288 9.22079 22.9971 10.1516 22.9971C10.264 22.9971 10.3817 22.9865 10.494 22.9971C10.9594 23.0446 11.152 22.8544 11.1199 22.3841C11.0932 21.9137 11.0557 21.3853 11.7298 21.306C12.1792 21.2532 12.3878 21.6072 12.4145 22.3841C12.4199 22.5796 12.345 22.865 12.5911 22.9284C13.0886 23.0605 13.6289 23.0869 14.1104 22.9284C14.4635 22.8121 14.2495 22.3946 14.303 22.1145C14.3137 22.0406 14.303 21.9666 14.3137 21.8873C14.3458 21.5385 14.549 21.3271 14.8914 21.2954C15.2499 21.2637 15.4692 21.4751 15.5441 21.8028C15.5976 22.0353 15.5869 22.2889 15.6029 22.532C15.6136 22.7011 15.6136 22.9125 15.8223 22.9442C16.293 23.0235 16.7852 23.0869 17.2292 22.9178C17.577 22.7857 17.379 22.3841 17.4325 22.104C17.4539 21.993 17.4539 21.8767 17.4914 21.771C17.5876 21.4751 17.7856 21.2796 18.1173 21.2954C18.465 21.3113 18.679 21.5121 18.7164 21.8609C18.7378 22.067 18.7432 22.2731 18.7271 22.4792C18.7057 22.8333 18.8502 23.0077 19.2246 22.9918C19.3958 22.9812 19.567 22.9918 19.7382 22.9918C20.5888 22.9918 20.5942 22.9918 20.6156 22.178C20.6263 21.7235 20.7332 21.306 21.2789 21.306C21.8299 21.306 21.9155 21.7341 21.9209 22.1885C21.9316 22.9971 21.9369 22.9971 22.7394 22.9971C23.7291 22.9971 23.7344 22.9971 23.8039 22.0353C23.836 21.6336 23.9965 21.3113 24.4352 21.306C24.8685 21.3007 25.0558 21.6019 25.0986 22.0089C25.1663 22.6712 25.5354 23.0024 26.2059 23.0024C26.3985 23.0024 26.5858 22.9971 26.7784 23.0024C27.094 23.0077 27.2224 22.8597 27.2224 22.5532C27.217 21.9877 27.2224 21.4275 27.2224 20.8621C27.2224 20.1117 27.2224 20.1064 26.4627 20.1064C23.1513 20.1064 19.8399 20.1064 16.5284 20.1064L16.5124 20.0958ZM10.3389 34.6709C10.3389 32.9798 10.3175 31.2834 10.3496 29.5923C10.3603 29.011 10.1516 28.8155 9.58457 28.8631C9.0924 28.9 8.59488 28.8683 8.09737 28.8736C7.26282 28.8736 6.34803 29.7297 6.34803 30.5753C6.33198 33.6985 6.34803 36.8217 6.33733 39.945C6.33733 40.3677 6.50852 40.5104 6.91509 40.5052C7.82988 40.4893 8.74467 40.4787 9.65411 40.5104C10.1891 40.5263 10.3442 40.3149 10.3389 39.8129C10.3175 38.1006 10.3282 36.3884 10.3282 34.6762L10.3389 34.6709ZM22.6698 34.692C22.6698 36.4201 22.6752 38.1535 22.6698 39.8816C22.6698 40.3043 22.8089 40.5051 23.2636 40.4946C24.1784 40.4787 25.0932 40.4787 26.0027 40.4946C26.4253 40.4999 26.5804 40.3255 26.5697 39.9186C26.5537 39.0889 26.5697 38.2645 26.5697 37.4348C26.5697 35.1994 26.5751 32.9587 26.5697 30.7233C26.5697 29.6135 25.8154 28.8683 24.7187 28.8683C24.3015 28.8683 23.8788 28.8683 23.4616 28.8683C22.6859 28.8683 22.6752 28.8789 22.6752 29.6716C22.6752 31.3468 22.6752 33.0168 22.6752 34.692H22.6698ZM21.3057 33.6721C21.3057 32.1078 21.3057 30.681 21.3057 29.2594C21.3057 28.9265 21.0703 28.8736 20.7974 28.8736C17.9461 28.8736 15.0947 28.8736 12.2433 28.8736C11.8582 28.8736 11.6923 29.0216 11.6977 29.4074C11.7084 30.6281 11.6977 31.8489 11.703 33.0696C11.703 33.1965 11.6549 33.3656 11.7779 33.4343C11.9438 33.5294 12.0561 33.3603 12.1685 33.2757C13.2705 32.4355 14.5223 31.9176 15.8383 31.5001C16.293 31.3574 16.721 31.3574 17.1757 31.5001C18.6308 31.9704 20.0003 32.5993 21.311 33.6721H21.3057ZM16.5017 24.276C13.8001 24.276 11.0985 24.2865 8.39695 24.2654C7.89408 24.2654 7.66939 24.3817 7.69079 24.926C7.72289 25.65 7.72824 25.6975 8.39695 25.6975C13.8001 25.6975 19.2032 25.6923 24.601 25.7081C25.1681 25.7081 25.3018 25.4967 25.3125 24.9788C25.3179 24.4451 25.1574 24.2601 24.601 24.2654C21.8995 24.2918 19.1979 24.276 16.4963 24.276H16.5017ZM2.57117 35.5693C2.57117 36.9961 2.58722 38.423 2.56048 39.8499C2.54978 40.3466 2.73701 40.5263 3.22383 40.4946C3.65715 40.4682 4.09583 40.4787 4.5345 40.4893C4.89827 40.4999 5.04271 40.3466 5.03736 39.9873C5.03201 37.0384 5.03201 34.0896 5.03736 31.146C5.03736 30.8025 4.88757 30.6757 4.5559 30.6863C4.10118 30.6968 3.6411 30.7074 3.18638 30.6863C2.72096 30.6598 2.54443 30.8237 2.55513 31.2993C2.57652 32.7261 2.56582 34.153 2.56048 35.5798L2.57117 35.5693ZM30.3305 35.5798C30.3305 34.4701 30.3305 33.3656 30.3305 32.2558C30.3305 31.2059 29.8009 30.681 28.7417 30.681C27.859 30.681 27.8483 30.681 27.859 31.5318C27.8804 33.2018 27.8322 34.8717 27.9018 36.5417C27.9499 37.625 27.9018 38.7137 27.8429 39.8023C27.8162 40.3625 28.0302 40.5421 28.5651 40.4946C28.945 40.4629 29.3248 40.4682 29.7046 40.4946C30.1807 40.5263 30.3359 40.3149 30.3305 39.8604C30.3145 38.4336 30.3252 37.0067 30.3252 35.5798H30.3305ZM29.1108 24.2707C29.1108 24.2707 29.1108 24.3024 29.1108 24.3183C28.426 24.3183 27.7413 24.3341 27.0565 24.313C26.6981 24.2971 26.5858 24.4345 26.5911 24.7674C26.6072 25.539 26.6072 26.3106 26.5911 27.0821C26.5858 27.4415 26.7195 27.5842 27.094 27.5789C28.4474 27.5683 29.7956 27.563 31.149 27.5789C31.5342 27.5789 31.7054 27.4521 31.6947 27.0557C31.6786 26.3053 31.6733 25.5496 31.6947 24.7992C31.7054 24.3658 31.5128 24.2495 31.1062 24.2601C30.4429 24.2813 29.7742 24.2654 29.1055 24.2654L29.1108 24.2707ZM3.84974 27.5789C4.5345 27.5789 5.21925 27.5789 5.90401 27.5789C6.17684 27.5789 6.40153 27.5472 6.40153 27.1984C6.40153 26.3528 6.40153 25.5073 6.40153 24.6618C6.40153 24.4345 6.31058 24.3183 6.05915 24.3183C4.61474 24.3235 3.17034 24.3288 1.72593 24.3183C1.39425 24.3183 1.29796 24.4451 1.30331 24.7516C1.31936 25.5232 1.31936 26.2947 1.30331 27.061C1.29261 27.4573 1.46915 27.5895 1.84897 27.5789C2.51233 27.5577 3.18103 27.5789 3.84439 27.5736L3.84974 27.5789ZM16.5605 26.9764C13.875 26.9764 11.1895 26.9711 8.50394 26.987C8.23111 26.987 7.74429 26.7809 7.74429 27.2935C7.74429 27.7586 8.20971 27.5736 8.47184 27.5736C13.8215 27.5842 19.1711 27.5842 24.5208 27.5842C24.6331 27.5842 24.7508 27.5842 24.8632 27.5842C25.0611 27.5842 25.2644 27.563 25.2698 27.2988C25.2804 26.9976 25.0558 26.987 24.8364 26.987C24.6866 26.987 24.5315 26.987 24.3817 26.987C21.7711 26.987 19.1658 26.987 16.5552 26.987L16.5605 26.9764ZM26.4306 18.7112C26.2059 18.3836 25.901 18.4681 25.6335 18.4629C19.5189 18.4629 13.4042 18.4629 7.29492 18.4629C7.04883 18.4629 6.60481 18.3519 6.61016 18.6425C6.61016 18.9385 7.05418 18.7905 7.29492 18.7905C13.4631 18.8011 19.6366 18.7958 25.8047 18.7905C25.992 18.7905 26.1845 18.8328 26.4306 18.7007V18.7112ZM3.81764 16.777C3.36292 16.777 2.9082 16.777 2.45348 16.777C2.14855 16.777 2.02016 16.9092 2.00411 17.2157C1.95596 18.0454 2.65142 18.7958 3.49666 18.8011C3.7053 18.8011 3.91394 18.8011 4.12257 18.8011C4.90897 18.8011 5.61513 18.0348 5.60443 17.2421C5.60443 16.9039 5.45999 16.7665 5.12831 16.777C4.69499 16.7876 4.25632 16.777 3.81764 16.777ZM3.24523 12.6709C3.24523 13.4424 3.25593 14.214 3.24523 14.9855C3.23453 15.3872 3.42177 15.5034 3.80159 15.4982C4.16537 15.4982 4.36866 15.4242 4.36866 15.0014C4.35261 13.4794 4.35796 11.9522 4.36866 10.4302C4.36866 10.0602 4.26166 9.87 3.85509 9.87C3.46457 9.87 3.24523 9.97569 3.25058 10.409C3.26663 11.1595 3.25058 11.9152 3.25058 12.6656L3.24523 12.6709ZM28.5384 12.6392C28.5384 13.4266 28.5491 14.214 28.5384 15.0067C28.533 15.3766 28.6989 15.5034 29.0573 15.4982C29.3997 15.4982 29.6511 15.4559 29.6511 15.0225C29.6404 13.4847 29.6404 11.9416 29.6511 10.4038C29.6511 9.96513 29.4211 9.87529 29.0359 9.87529C28.6133 9.87529 28.5277 10.0867 28.533 10.446C28.5491 11.1753 28.533 11.9099 28.5384 12.6444V12.6392ZM29.1269 16.777C28.731 16.777 28.3298 16.7929 27.9339 16.777C27.4738 16.7506 27.3347 16.9673 27.3561 17.3901C27.3989 18.2409 28.0462 18.7429 29.0038 18.8222C29.8758 18.8962 30.4482 18.6425 30.7906 17.8287C31.0741 17.1417 30.8815 16.7876 30.1486 16.7823C29.8063 16.7823 29.4639 16.7823 29.1269 16.7823V16.777ZM4.45425 21.0682C4.45425 20.8779 4.45425 20.693 4.45425 20.5027C4.45425 19.9901 4.06373 20.0958 3.7588 20.0852C3.43782 20.0694 3.13824 20.0641 3.14894 20.5292C3.16499 21.2056 3.14894 21.882 3.15429 22.5585C3.15964 23.1133 3.59296 22.9601 3.90859 22.9759C4.22422 22.9971 4.5131 22.939 4.4489 22.532C4.37401 22.0406 4.4596 21.5597 4.45425 21.0682ZM8.30065 42.6983C8.85167 42.6983 9.40268 42.6983 9.9537 42.6983C10.3068 42.6983 10.3282 42.4605 10.3335 42.1962C10.3335 41.969 10.3014 41.7788 10.0072 41.7788C8.94261 41.784 7.88338 41.7893 6.8188 41.7946C6.50852 41.7946 6.32663 41.8739 6.33733 42.2438C6.34803 42.6349 6.54062 42.7194 6.87765 42.7089C7.35376 42.693 7.82988 42.7089 8.30065 42.7089V42.6983ZM24.6117 42.6983C24.6117 42.6983 24.6117 42.6983 24.6117 42.693C25.1467 42.693 25.6763 42.6983 26.2113 42.693C26.5751 42.6877 26.5537 42.4129 26.559 42.1645C26.559 41.9056 26.452 41.784 26.1792 41.8052C25.1735 41.895 24.1677 41.7048 23.1566 41.7788C22.8303 41.8052 22.6591 41.8475 22.6645 42.2121C22.6645 42.5767 22.8303 42.7141 23.1887 42.7036C23.6649 42.6877 24.141 42.7036 24.6171 42.7036L24.6117 42.6983ZM29.7421 21.528C29.7421 21.2109 29.726 20.8885 29.7421 20.5767C29.7742 20.1064 29.4799 20.08 29.1215 20.08C28.7684 20.08 28.4742 20.0958 28.4902 20.5661C28.5063 21.1475 28.5116 21.7288 28.4902 22.3048C28.4742 22.7593 28.5919 22.9918 29.1215 22.9918C29.6458 22.9918 29.7902 22.7698 29.7474 22.3101C29.726 22.0511 29.7474 21.7869 29.7474 21.5227L29.7421 21.528ZM4.36866 5.00812C4.36866 5.00812 4.38471 5.00812 4.39006 5.00812C4.36866 4.61705 4.38471 4.21542 4.30981 3.83492C4.25097 3.5337 4.10118 3.11621 3.7588 3.14792C3.43782 3.17434 3.30943 3.59183 3.29338 3.90891C3.25593 4.56421 3.28268 5.2195 3.26128 5.8748C3.24523 6.31343 3.47527 6.40855 3.86579 6.40855C4.27236 6.40855 4.40076 6.22359 4.37936 5.85366C4.36331 5.57358 4.37936 5.29349 4.37936 5.0134L4.36866 5.00812ZM29.6565 4.99755C29.6565 4.99755 29.6672 4.99755 29.6725 4.99755C29.6565 4.60648 29.6672 4.21013 29.6083 3.82435C29.5655 3.5337 29.4264 3.14263 29.1269 3.13207C28.8112 3.1215 28.7042 3.51256 28.6347 3.80322C28.4742 4.44794 28.5865 5.10853 28.5491 5.76382C28.5277 6.1496 28.5865 6.41384 29.0841 6.40855C29.5495 6.40855 29.6832 6.19717 29.6618 5.78496C29.6458 5.52601 29.6618 5.26178 29.6618 4.99755H29.6565ZM29.0787 42.7089C29.3462 42.7089 29.6083 42.7036 29.8758 42.7089C30.1754 42.7194 30.3359 42.6084 30.3359 42.2861C30.3359 41.9584 30.1914 41.7946 29.8651 41.784C29.3569 41.7735 28.8433 41.784 28.3351 41.7682C27.9981 41.7576 27.8643 41.9056 27.8643 42.2385C27.8643 42.5767 28.0088 42.7194 28.3458 42.7036C28.5919 42.693 28.838 42.7036 29.0841 42.7036L29.0787 42.7089ZM3.76415 42.7089C3.99418 42.7089 4.21887 42.7089 4.4489 42.7089C4.76453 42.7089 5.06411 42.73 5.05341 42.2649C5.04271 41.7999 4.72708 41.8422 4.42215 41.8316C3.98883 41.821 3.55016 41.8157 3.11684 41.7893C2.82261 41.7735 2.59257 41.7788 2.57652 42.1698C2.56582 42.5397 2.67282 42.7458 3.08474 42.7141C3.30943 42.6983 3.53946 42.7141 3.7695 42.7141L3.76415 42.7089ZM3.84439 28.8683C3.34687 28.8683 2.85471 28.8683 2.35719 28.8683C2.2395 28.8683 2.05761 28.8155 2.03621 29.0057C2.02551 29.1379 2.12715 29.2594 2.2502 29.3175C2.36789 29.3704 2.50698 29.3915 2.63537 29.3968C3.41642 29.4021 4.19747 29.3968 4.97852 29.3968C5.12831 29.3968 5.2888 29.3968 5.40114 29.2753C5.48674 29.1801 5.63653 29.0956 5.57233 28.9529C5.52418 28.8313 5.37439 28.8736 5.2674 28.8683C4.79128 28.8683 4.31516 28.8683 3.83904 28.8683H3.84439ZM29.191 28.8683C28.7577 28.8683 28.3191 28.8578 27.8857 28.8683C27.7145 28.8736 27.431 28.7679 27.4043 29.0057C27.3722 29.2594 27.6182 29.3862 27.8697 29.3862C28.7203 29.3862 29.5762 29.3862 30.4268 29.3862C30.5017 29.3862 30.582 29.3651 30.6462 29.3334C30.7799 29.2594 30.9243 29.159 30.8922 28.9952C30.8601 28.8313 30.6836 28.8683 30.5552 28.8683C30.1005 28.8631 29.6458 28.8683 29.191 28.8683ZM3.88184 8.54355C3.88184 8.54355 3.88184 8.54884 3.88184 8.55412C4.10652 8.55412 4.33656 8.54355 4.56125 8.55412C4.82338 8.56998 4.94642 8.48014 4.94107 8.20533C4.93572 7.95167 4.87687 7.75614 4.57194 7.75085C4.07978 7.75085 3.58761 7.75085 3.09544 7.75085C2.83866 7.75085 2.72631 7.88826 2.72096 8.14192C2.72096 8.3903 2.81726 8.53827 3.07939 8.54355C3.34152 8.54355 3.60901 8.54355 3.87649 8.54355H3.88184ZM29.1643 8.54355C29.4264 8.54355 29.6939 8.54884 29.956 8.54355C30.1914 8.53827 30.2824 8.39558 30.2877 8.17363C30.2877 7.93582 30.2128 7.76142 29.9453 7.76142C29.4371 7.75614 28.9236 7.75614 28.4153 7.76142C28.1853 7.76142 28.089 7.90939 28.0837 8.13135C28.0837 8.37444 28.1639 8.53827 28.4314 8.54355C28.6775 8.54884 28.9236 8.54355 29.1696 8.54355H29.1643Z" fill="#08A24C"/>
<path d="M8.99611 38.5551C8.99611 38.7031 9.00681 38.8563 8.99611 39.0043C8.96936 39.3425 8.78747 39.5698 8.43439 39.5962C8.08667 39.6226 7.86733 39.4376 7.76569 39.11C7.66939 38.7982 7.69614 38.4811 7.72289 38.1641C7.76034 37.7677 7.93688 37.4612 8.38625 37.4876C8.81957 37.514 8.99611 37.81 9.00146 38.2169C9.00146 38.3279 9.00146 38.4389 9.00146 38.5551C9.00146 38.5551 9.00146 38.5551 8.99611 38.5551Z" fill="#08A24C"/>
<path d="M8.99611 35.0355C8.99611 35.1835 9.01216 35.3368 8.99611 35.4794C8.95866 35.8177 8.77142 36.0449 8.42369 36.066C8.08132 36.0872 7.85128 35.8969 7.76034 35.5693C7.67474 35.2416 7.69079 34.9034 7.73359 34.5705C7.78709 34.1953 8.00642 33.9363 8.40765 33.9575C8.81422 33.9786 8.98541 34.264 9.00146 34.6445C9.00146 34.7766 9.00146 34.9034 9.00146 35.0355C9.00146 35.0355 9.00146 35.0355 8.99611 35.0355Z" fill="#08A24C"/>
<path d="M9.00146 31.4737C9.00146 32.2188 8.81957 32.5359 8.37555 32.5359C7.92083 32.5359 7.69079 32.1554 7.70684 31.4261C7.70684 31.294 7.70684 31.1619 7.73359 31.035C7.80848 30.6598 8.01177 30.4062 8.42904 30.4326C8.81957 30.459 8.98006 30.718 9.00146 31.0826C9.00681 31.2147 9.00146 31.3468 9.00146 31.4737Z" fill="#08A24C"/>
<path d="M25.243 31.5107C25.227 31.6956 25.2377 31.8859 25.1949 32.0656C25.1253 32.3456 24.9327 32.5148 24.6331 32.5306C24.3389 32.5465 24.1089 32.4196 24.0179 32.1343C23.8842 31.7168 23.8842 31.2834 24.0019 30.8659C24.0928 30.5436 24.355 30.385 24.7027 30.4326C25.029 30.4749 25.1949 30.6915 25.2216 31.0033C25.2377 31.1672 25.2216 31.3363 25.2216 31.5054C25.227 31.5054 25.2377 31.5054 25.243 31.5054V31.5107Z" fill="#08A24C"/>
<path d="M25.227 38.5234C25.227 38.6555 25.2323 38.7876 25.227 38.9198C25.2056 39.3055 25.0183 39.5803 24.6064 39.5909C24.1891 39.6015 23.9858 39.332 23.9484 38.9515C23.9216 38.6925 23.9216 38.423 23.9484 38.1641C23.9858 37.7624 24.1784 37.4612 24.6278 37.4876C25.0344 37.514 25.2163 37.7888 25.227 38.1799C25.227 38.2909 25.227 38.4071 25.227 38.5181V38.5234Z" fill="#08A24C"/>
<path d="M25.2323 35.0197C25.2323 35.7437 25.0237 36.0872 24.585 36.0766C24.1517 36.066 23.9323 35.7067 23.9323 35.0038C23.9323 34.9298 23.9323 34.8559 23.9323 34.7766C23.9537 34.3485 24.0821 33.9469 24.5903 33.9575C25.0932 33.968 25.2323 34.3485 25.2216 34.7924C25.2216 34.8664 25.2216 34.9404 25.2216 35.0197H25.2323Z" fill="#08A24C"/>
</svg>
