<svg width="49" height="44" viewBox="0 0 49 44" fill="none" xmlns="http://www.w3.org/2000/svg">
<path d="M1.0339 43.9958C0.3504 43.9958 0.134104 43.8095 0 43.5639V26.1087C0.25523 25.5668 0.506134 25.0207 0.757038 24.4746C1.37997 23.1198 2.02454 21.7185 2.72101 20.3764C3.67272 18.5475 4.01446 17.0107 3.83277 15.4019V15.385C3.85008 14.9362 4.10098 14.6399 4.47734 14.6272H4.51627C4.90128 14.6272 5.17814 14.9023 5.20842 15.3299C5.23438 15.6475 5.25601 16.0581 5.21707 16.4391C5.11325 17.4552 5.3382 18.4332 5.93085 19.517C6.24232 20.0885 6.71385 20.3764 7.3238 20.3764C7.70881 20.3722 8.06353 20.3679 8.41826 20.3679C8.77299 20.3679 9.11041 20.3679 9.45216 20.3764C9.90206 20.3764 10.2395 20.2536 10.4904 20.0038C10.7413 19.7541 10.8624 19.4154 10.8538 18.9878C10.8408 18.2088 10.8408 17.4044 10.8538 16.5958C10.8581 16.2867 11.0657 16.0285 11.3512 15.9692C11.4118 15.9565 11.468 15.948 11.5286 15.948C11.8617 15.948 12.1213 16.1682 12.1775 16.4984C12.264 17.0234 12.251 17.5992 12.2337 18.158C12.2251 18.4205 12.2208 18.6745 12.2208 18.9285C12.2208 19.8218 12.7788 20.3764 13.6656 20.3764C14.0723 20.3679 14.427 20.3679 14.786 20.3679H16.5164C17.6714 20.3679 18.0824 19.97 18.0824 18.8438C18.0824 18.8438 18.0824 12.3283 18.0824 10.7576C18.0824 7.69249 19.7868 5.40633 22.7501 4.4834C23.4639 4.25902 23.8316 3.75945 23.8143 3.0355C23.8013 2.34966 23.7969 1.62994 23.8143 0.694313C23.8186 0.266718 24.0652 0.00423362 24.4588 0C25.0342 0 25.1293 0.436063 25.1337 0.698547C25.1466 1.46483 25.1466 2.27345 25.1337 3.09478C25.125 3.79756 25.51 4.30136 26.1978 4.47917C28.5036 5.07611 30.952 7.33686 30.8785 10.8973C30.8396 12.7517 30.8482 14.6356 30.8612 16.4561C30.8612 17.2647 30.8698 18.0606 30.8698 18.8565C30.8698 19.9657 31.2938 20.3764 32.4358 20.3806C32.9117 20.3806 33.3832 20.3806 33.8591 20.3806C34.3349 20.3806 34.7632 20.3806 35.2174 20.3806C36.2729 20.3722 36.7099 19.9446 36.7272 18.8989C36.7272 18.6449 36.7272 18.3951 36.7272 18.1453C36.7272 17.6203 36.7272 17.0869 36.7661 16.5873C36.8007 16.1978 37.0429 15.9692 37.4193 15.9692C37.4409 15.9692 37.4626 15.9692 37.4842 15.9692C37.8649 15.9946 38.0942 16.2698 38.0985 16.7016C38.1071 17.4213 38.1158 18.1961 38.0985 19.0005C38.0898 19.4238 38.2109 19.7625 38.4619 20.0123C38.7084 20.2579 39.0459 20.3849 39.4655 20.3849C39.7769 20.3806 40.0581 20.3806 40.335 20.3806H41.6717C42.273 20.3806 42.6796 20.1605 42.8873 19.7287C42.9565 19.5847 43.0344 19.445 43.1122 19.3053C43.4021 18.7803 43.7308 18.1834 43.7352 17.4044C43.7352 17.18 43.7352 16.9556 43.7352 16.7313C43.7352 16.2656 43.7308 15.7999 43.7481 15.3553C43.7698 14.9108 44.0337 14.6356 44.4403 14.6356C44.9291 14.6441 45.1151 15.0293 45.1238 15.3892C45.1368 15.8888 45.1454 16.4857 45.1238 17.0869C45.1065 17.6584 45.219 18.1792 45.4828 18.7295C46.0928 20.0081 46.6941 21.2951 47.2954 22.5779L47.3906 22.7811C47.8491 23.7591 48.3077 24.7413 48.7705 25.7192C48.9306 26.0579 49.0041 26.3627 48.9998 26.7141C48.9912 29.3136 48.9955 31.913 48.9955 34.5125V39.3642C48.9955 40.6512 48.9955 41.9382 48.9955 43.2295C48.9955 43.6952 48.7576 43.945 48.2731 43.9873C48.1736 43.9958 48.0741 43.9958 47.9746 43.9958H47.6718H15.2749C10.5293 43.9958 5.78377 43.9958 1.03822 44L1.0339 43.9958ZM28.43 42.6283C29.7408 42.6283 31.0472 42.6283 32.358 42.6368C32.5613 42.6368 33.0761 42.6368 33.4611 42.2515C33.8461 41.8705 33.8374 41.3582 33.8331 41.1931C33.8115 39.9611 33.8115 38.6868 33.8331 37.2982C33.8331 37.1246 33.8418 36.6039 33.4567 36.2144C33.0717 35.8291 32.5526 35.8291 32.3839 35.8291C29.7494 35.8333 27.1193 35.8376 24.4891 35.8376C21.8589 35.8376 19.2288 35.8376 16.5986 35.8291C16.4212 35.8291 15.8891 35.8291 15.4998 36.2144C15.1105 36.5996 15.1191 37.1119 15.1235 37.277C15.1364 38.1407 15.1364 39.0001 15.1321 39.8638C15.1321 39.8638 15.1321 40.7824 15.1321 41.1381C15.1321 42.2346 15.5387 42.6241 16.6808 42.6241H28.4343L28.43 42.6283ZM36.5844 35.8333C36.1691 35.8333 35.8274 35.9604 35.5808 36.2101C35.1958 36.5954 35.2088 37.095 35.2131 37.2601C35.2261 37.7173 35.2217 38.1745 35.2217 38.6318V39.2202V39.8172C35.2217 40.2913 35.2217 40.7655 35.2174 41.2397C35.2174 41.4006 35.2044 41.8917 35.5808 42.2684C35.823 42.5098 36.1518 42.6325 36.5584 42.6325C36.9218 42.6241 37.2246 42.6198 37.5318 42.6198C37.8562 42.6198 38.1763 42.6241 38.5008 42.6325C38.9377 42.6325 39.2621 42.5182 39.5044 42.2769C39.751 42.0356 39.8721 41.7011 39.8678 41.282C39.8591 39.8934 39.8591 38.5132 39.8678 37.1796C39.8678 36.7732 39.7467 36.443 39.5001 36.2017C39.2535 35.9604 38.9247 35.8376 38.5181 35.8376C38.159 35.8418 37.8346 35.8461 37.5101 35.8461C37.2203 35.8461 36.9348 35.8461 36.645 35.8333H36.5844ZM42.6234 35.8333C42.2038 35.8333 41.862 35.9604 41.6155 36.2059C41.3646 36.4557 41.2391 36.7986 41.2478 37.222C41.2564 37.675 41.2564 38.1322 41.2521 38.5894V39.2372V39.9019C41.2521 40.3549 41.2521 40.8078 41.2521 41.2566C41.2434 41.6757 41.3689 42.0144 41.6155 42.26C41.8577 42.5013 42.1865 42.6241 42.5888 42.6241C43.2074 42.6198 43.8087 42.6156 44.41 42.6156C45.0113 42.6156 45.6386 42.6156 46.2529 42.6241C46.6768 42.6241 47.0142 42.5013 47.2608 42.26C47.5074 42.0187 47.6328 41.6884 47.6328 41.282C47.6285 39.9103 47.6285 38.5429 47.6328 37.1712C47.6328 36.769 47.5074 36.443 47.2608 36.2017C47.0099 35.9561 46.6725 35.8333 46.2572 35.8333C45.6386 35.8333 45.0329 35.8376 44.423 35.8376C43.813 35.8376 43.2377 35.8376 42.645 35.8291H42.6277L42.6234 35.8333ZM2.70371 35.8333C2.29274 35.8333 1.95532 35.9561 1.70442 36.2017C1.45784 36.443 1.32806 36.7732 1.33239 37.1754C1.33239 38.5471 1.33671 39.9146 1.33239 41.2862C1.33239 41.6884 1.45351 42.0187 1.70009 42.26C1.94667 42.5013 2.28409 42.6241 2.69506 42.6241C3.30934 42.6198 3.90632 42.6156 4.50329 42.6156C5.10027 42.6156 5.74051 42.6156 6.35912 42.6198C6.77441 42.6198 7.10318 42.4971 7.34543 42.26C7.58768 42.0187 7.70881 41.6969 7.70448 41.3032C7.70016 40.8248 7.70016 40.3422 7.70448 39.8638V38.5429C7.70448 38.0814 7.70448 37.6157 7.70448 37.1542C7.70448 36.7563 7.58768 36.4303 7.3411 36.189C7.09453 35.9477 6.77008 35.8249 6.36777 35.8249C5.75349 35.8249 5.14353 35.8249 4.53358 35.8249C3.92362 35.8249 3.31366 35.8249 2.70803 35.8249H2.69938L2.70371 35.8333ZM10.4212 35.8333C10.0189 35.8333 9.69441 35.9561 9.45216 36.1974C9.20991 36.4388 9.08878 36.7605 9.09311 37.1585C9.10176 37.658 9.09743 38.1534 9.09311 38.6487V39.8299C9.09311 40.321 9.09311 40.8078 9.08878 41.2947C9.08013 41.6969 9.20126 42.0271 9.44351 42.2684C9.68143 42.5055 10.0016 42.6283 10.3995 42.6283C10.7543 42.6241 11.0787 42.6198 11.4032 42.6198C11.7276 42.6198 12.0564 42.6198 12.3808 42.6283C12.8091 42.6283 13.1335 42.5098 13.3758 42.2727C13.618 42.0356 13.7392 41.7138 13.7348 41.3201C13.7262 39.9357 13.7305 38.5513 13.7348 37.1669C13.7348 36.7647 13.6137 36.4388 13.3671 36.1974C13.2027 36.0323 12.8999 35.8418 12.4111 35.8418C12.0693 35.8418 11.7449 35.8461 11.4205 35.8461C11.096 35.8461 10.7629 35.846 10.4341 35.8418H10.4125L10.4212 35.8333ZM37.5664 34.4744C37.8605 34.4744 38.159 34.4744 38.4532 34.4871H38.5094C38.9334 34.4871 39.2708 34.3643 39.5131 34.1187C39.7596 33.8689 39.8808 33.5303 39.8678 33.1111C39.8548 32.6327 39.8591 32.1501 39.8591 31.6717V31.0536V30.3889C39.8591 29.9232 39.8591 29.4533 39.8635 28.9876C39.8721 28.5727 39.751 28.2382 39.5087 27.9927C39.2665 27.7514 38.942 27.6286 38.5354 27.6286C38.1807 27.6371 37.8692 27.6371 37.5577 27.6371C37.2463 27.6371 36.9175 27.6371 36.6017 27.6286C36.1561 27.6286 35.8274 27.7471 35.5808 27.9885C35.3342 28.2298 35.2131 28.56 35.2174 28.9622C35.2261 30.3593 35.2261 31.7606 35.2174 33.1577C35.2174 33.5557 35.3342 33.8774 35.5808 34.1187C35.823 34.36 36.1561 34.4786 36.5714 34.4786C36.9348 34.4701 37.2549 34.4659 37.5707 34.4659L37.5664 34.4744ZM42.6234 27.5016C42.2038 27.5016 41.8664 27.6286 41.6155 27.8741C41.3646 28.1239 41.2391 28.4669 41.2478 28.8902C41.2564 29.3855 41.2564 29.8851 41.2521 30.3804V31.0028V31.7013C41.2521 32.1755 41.2521 32.6497 41.2521 33.1238C41.2434 33.5387 41.3689 33.8774 41.6155 34.123C41.8577 34.3643 42.1865 34.4871 42.5931 34.4871C43.2117 34.4828 43.8174 34.4786 44.4187 34.4786C45.02 34.4786 45.6429 34.4786 46.2572 34.4871C46.6811 34.4871 47.0142 34.3643 47.2608 34.123C47.5074 33.8816 47.6328 33.5514 47.6285 33.145C47.6242 31.7098 47.6242 30.2746 47.6285 28.8436C47.6285 28.4457 47.503 28.1197 47.2565 27.8784C47.0056 27.6328 46.6681 27.5101 46.2485 27.5101C45.6169 27.5101 44.9983 27.5143 44.3797 27.5143C43.8 27.5143 43.2204 27.5143 42.6364 27.5058H42.6191L42.6234 27.5016ZM4.50762 34.4828C5.12623 34.4828 5.74916 34.4828 6.36777 34.4871C6.77873 34.4871 7.1075 34.3643 7.34976 34.1272C7.59201 33.8901 7.71313 33.5641 7.70881 33.1619C7.70448 32.6497 7.70448 32.1374 7.70881 31.6251V30.4143C7.70881 29.8978 7.70881 29.3855 7.70881 28.8733C7.71313 28.4541 7.59201 28.1155 7.3411 27.8699C7.09885 27.6286 6.77008 27.5058 6.36344 27.5058C5.75349 27.5058 5.15651 27.5101 4.55521 27.5101C3.9539 27.5101 3.31799 27.5101 2.69938 27.5058C2.28409 27.5058 1.95099 27.6286 1.70009 27.8741C1.44919 28.1197 1.32373 28.4499 1.32373 28.8606C1.32373 30.2958 1.32373 31.731 1.32373 33.1662C1.32373 33.5684 1.44486 33.8943 1.69144 34.1357C1.85582 34.3008 2.15864 34.4955 2.6518 34.4955C3.27473 34.4955 3.88901 34.4913 4.49897 34.4913L4.50762 34.4828ZM10.4212 27.6371C10.0189 27.6371 9.69009 27.7598 9.44783 28.0012C9.20126 28.2467 9.08446 28.5812 9.08878 28.9961C9.09743 29.4745 9.09743 29.9486 9.09311 30.427V31.6844C9.09311 32.184 9.09311 32.6835 9.09311 33.1831C9.09311 33.5853 9.20991 33.9071 9.44783 34.1441C9.60789 34.305 9.89773 34.4913 10.3736 34.4913C10.724 34.4913 11.0571 34.4871 11.3859 34.4871C11.7406 34.4871 12.4544 34.4871 12.4544 34.4871C12.9302 34.4871 13.22 34.3008 13.3801 34.1399C13.618 33.9071 13.7392 33.598 13.7348 33.2212C13.7348 31.786 13.7348 30.355 13.7348 28.9198C13.7348 28.5388 13.618 28.2255 13.3801 27.9927C13.1379 27.7556 12.8177 27.6371 12.4284 27.6371C12.0607 27.6371 11.7103 27.6455 11.3599 27.6455C11.0614 27.6455 10.7586 27.6455 10.4601 27.6371H10.4168H10.4212ZM16.5597 27.6371C16.391 27.6371 15.8805 27.6371 15.4998 28.0139C15.1191 28.3906 15.1235 28.8987 15.1278 29.0638C15.1408 29.9148 15.1364 30.7699 15.1364 31.6209C15.1364 31.6209 15.1364 32.5819 15.1364 33.0222C15.1364 34.0891 15.5474 34.4871 16.6505 34.4871H32.332C33.4221 34.4871 33.8288 34.0849 33.8331 33.0053C33.8331 32.6454 33.8331 31.7098 33.8331 31.7098C33.8331 30.8207 33.8288 29.9317 33.8418 29.0469C33.8418 28.886 33.8504 28.3906 33.4697 28.0096C33.089 27.6328 32.5656 27.6328 32.3969 27.6328C29.7667 27.6371 27.1452 27.6413 24.5237 27.6413C21.9022 27.6413 19.2201 27.6413 16.5683 27.6328L16.5597 27.6371ZM37.4669 26.3416C37.9081 26.3416 38.3537 26.3416 38.7949 26.35C39.4828 26.35 39.9846 26.0325 40.2485 25.4398C40.4215 25.0503 40.6075 24.6608 40.7892 24.2756C40.9233 23.9919 41.0574 23.7125 41.1872 23.4288C41.3083 23.1621 41.5333 22.671 41.2261 22.2011C40.919 21.7354 40.3696 21.7312 40.0754 21.7312C39.565 21.7312 39.0588 21.7312 38.5484 21.7312C38.5484 21.7312 33.673 21.7312 33.0025 21.7312C32.9463 21.7227 32.8857 21.7185 32.8338 21.7185C32.4358 21.7185 32.1027 21.9047 31.921 22.2307C31.7177 22.5948 31.7004 23.1325 32.2628 23.5601C32.6478 23.9242 33.0458 24.2967 33.4438 24.6651L33.5433 24.7582C33.9369 25.1223 34.3263 25.4906 34.7156 25.8589C35.0617 26.1849 35.4856 26.35 35.9744 26.35C36.4806 26.35 36.9694 26.3416 37.4626 26.3416H37.4669ZM17.0831 22.0233C16.5251 21.8328 15.9324 21.7312 15.3398 21.7312H8.76434C8.18034 21.7269 7.88617 21.9894 7.74342 22.2138C7.53145 22.5398 7.53145 22.925 7.73909 23.3653L7.92943 23.7718C8.20197 24.3475 8.47882 24.9275 8.74271 25.5076C8.91574 25.8928 9.2921 26.35 10.1097 26.35C10.5682 26.35 11.0095 26.3458 11.4464 26.3458H12.9864C13.2157 26.3458 13.6916 26.3458 14.0939 25.9775C14.626 25.4864 16.3217 23.9115 17.2994 23.0055C17.6238 22.7049 17.507 22.1715 17.0831 22.0275V22.0233ZM24.4848 18.6025C23.983 18.6025 23.6542 18.9073 23.4812 19.0725C22.5943 19.9022 21.7075 20.732 20.8207 21.5576C20.8207 21.5576 18.9346 23.3145 18.1559 24.047C17.6541 24.4322 17.6238 24.881 17.6887 25.1943L17.8272 25.8759H32.2931L31.2159 24.5127L31.1207 24.3899C31.0386 24.2798 30.978 24.2121 30.9131 24.1486L29.2779 22.6245C27.9844 21.4221 26.6953 20.2198 25.4105 19.0047C25.125 18.7338 24.8135 18.5983 24.4804 18.5983L24.4848 18.6025ZM3.34827 22.1969C3.03248 22.8658 2.73831 23.4966 2.44848 24.1232C2.21055 24.6397 2.37061 25.0207 2.48741 25.2027C2.60854 25.3848 2.89405 25.6896 3.48237 25.6938C3.86738 25.6938 4.25672 25.6938 4.64172 25.6938H5.55882C6.15147 25.6938 6.43699 25.3848 6.55379 25.207C6.67059 25.0249 6.83497 24.6481 6.58839 24.1232L4.51627 19.6948L3.34394 22.1926L3.34827 22.1969ZM44.4403 21.0623C44.25 21.0623 43.7784 21.1258 43.4972 21.7185C43.1166 22.5229 42.7402 23.3315 42.3595 24.1401C42.1173 24.6566 42.2773 25.0334 42.3941 25.2112C42.5109 25.3932 42.8008 25.6981 43.3977 25.7023H45.4309C46.0452 25.7023 46.3394 25.3932 46.4605 25.207C46.5816 25.0249 46.7417 24.6397 46.4994 24.1105C46.2226 23.5178 45.9457 22.925 45.6689 22.3323L45.3877 21.7312C45.1065 21.13 44.6306 21.0623 44.436 21.0623H44.4403ZM24.4761 14.6272C24.8308 14.6272 25.1077 14.8642 25.1293 15.1902C25.1466 15.4231 25.1466 15.6771 25.1423 15.9226V16.1386C25.1423 16.3248 25.138 16.8879 25.6138 17.3324L27.6903 19.2714C27.7898 19.3688 28.0537 19.6355 28.4819 19.6355C28.6247 19.6355 28.7631 19.6059 28.8929 19.5466C29.0789 19.4619 29.5158 19.1952 29.4769 18.5221V16.092C29.4769 15.8591 29.4769 15.6263 29.4769 15.3977C29.4769 14.86 29.4682 14.3181 29.4899 13.8016C29.4942 13.628 29.5158 13.1031 29.1265 12.7093C28.7372 12.3114 28.1921 12.3114 28.0147 12.3114C27.1625 12.3198 26.3406 12.3198 25.5143 12.3198H23.174C22.6679 12.3198 21.5821 12.3198 21.5821 12.3198C21.435 12.3198 20.9505 12.3156 20.9462 12.3156H20.9375C20.6433 12.3156 20.1761 12.3156 19.8301 12.6628C19.471 13.0184 19.4753 13.4502 19.484 14.0006V14.0598C19.484 14.1742 19.484 14.3012 19.484 14.4451C19.4753 15.6686 19.484 16.8964 19.484 18.1199V18.4247C19.4018 19.1868 19.895 19.4704 20.1069 19.5551C20.2324 19.6059 20.3622 19.6313 20.4919 19.6313C20.9548 19.6313 21.2317 19.3349 21.3355 19.2249C21.4782 19.0936 21.6037 18.9666 21.7335 18.8396C21.9368 18.6406 22.1271 18.4501 22.3305 18.2977C23.1134 17.6965 24.1084 16.7186 23.8316 15.1183C23.8964 14.8388 24.156 14.6314 24.4675 14.6272H24.4761ZM26.505 10.9524C27.0284 10.9524 27.5519 10.9524 28.071 10.9608H28.0753C28.2743 10.9608 28.8237 10.9566 29.1741 10.5248C29.5331 10.0845 29.4034 9.54681 29.3644 9.369C28.8453 7.16328 26.8511 5.61378 24.5107 5.59684C22.1531 5.59684 20.1415 7.12518 19.6094 9.30973C19.5316 9.63148 19.4148 10.1183 19.7479 10.5332C20.081 10.9481 20.6001 10.9524 20.9116 10.9524C21.3961 10.9524 21.8806 10.9524 22.3607 10.9524H26.4963H26.505Z" fill="#0A878E"/>
<path d="M19.4192 31.922C19.3283 31.922 19.2375 31.9051 19.1466 31.867C18.9303 31.7781 18.714 31.6426 18.7097 31.0457C18.7011 30.4064 18.9303 30.254 19.1423 30.1566C19.2245 30.1185 19.311 30.1016 19.4062 30.1016C19.5965 30.1016 19.7782 30.1778 19.9037 30.309C20.0507 30.4657 20.1113 30.6858 20.0854 30.9695V31.0245V31.0795C20.107 31.3462 20.0464 31.5579 19.9037 31.7103C19.7782 31.8458 19.6009 31.922 19.4192 31.922Z" fill="#0A878E"/>
<path d="M29.5546 31.9175C29.2561 31.9175 29.0139 31.7481 28.9057 31.4645C28.8754 31.3883 28.8754 31.2231 28.8711 31.0538V30.9141C28.8408 30.5288 28.9922 30.3595 29.109 30.2621C29.2431 30.152 29.3686 30.1055 29.533 30.1055C29.5762 30.1055 29.6195 30.1055 29.6628 30.1139C30.13 30.1817 30.2381 30.6135 30.2468 30.9649C30.2597 31.3671 30.1213 31.8243 29.7103 31.9005C29.6584 31.909 29.6065 31.9175 29.5546 31.9175Z" fill="#0A878E"/>
<path d="M24.4761 31.9214C24.1171 31.9214 23.8402 31.6631 23.8229 31.3075C23.8142 31.1509 23.8142 30.9942 23.8229 30.8376C23.8315 30.4819 24.0089 30.1009 24.4848 30.0967C24.9606 30.0967 25.138 30.4777 25.1466 30.8333V31.0154C25.1466 31.8579 24.7313 31.896 24.554 31.9129C24.5323 31.9129 24.5064 31.9129 24.4848 31.9129L24.4761 31.9214Z" fill="#0A878E"/>
<path d="M19.4492 40.118C19.3627 40.118 19.2718 40.1011 19.1766 40.0672C19.0079 40.0079 18.8695 39.8682 18.7786 39.6735C18.6489 39.3856 18.6445 39.0342 18.7786 38.7082C18.8781 38.4542 19.142 38.2764 19.4102 38.2764C19.4924 38.2764 19.5703 38.2891 19.6438 38.3187C19.8645 38.4034 20.0851 38.5431 20.0851 39.2035C20.0851 39.6438 19.8861 40.118 19.4492 40.118Z" fill="#0A878E"/>
<path d="M29.5546 40.1098C29.4291 40.1098 29.3037 40.076 29.1912 40.0082C29.0095 39.9024 28.8711 39.7712 28.8711 39.1954C28.8711 38.4249 29.2172 38.336 29.4075 38.2894C29.4551 38.2767 29.4984 38.2725 29.5503 38.2725C29.7882 38.2725 30.0261 38.4164 30.1472 38.6365C30.3635 39.026 30.2554 39.7034 30.0175 39.9278C29.892 40.0463 29.7276 40.1141 29.5632 40.1141L29.5546 40.1098Z" fill="#0A878E"/>
<path d="M24.4675 40.1141C24.3939 40.1141 24.3247 40.1014 24.2641 40.0717C23.9137 39.9109 23.8315 39.7246 23.8229 39.496C23.8142 39.3393 23.8142 39.1785 23.8229 39.0176C23.8315 38.662 24.0046 38.2767 24.4761 38.2725C24.9563 38.2725 25.138 38.6662 25.1466 39.0303V39.2462L25.151 39.2758C25.1769 39.5341 25.1207 39.7415 24.9822 39.8897C24.8568 40.0294 24.6578 40.1141 24.4718 40.1141H24.4675Z" fill="#0A878E"/>
<path d="M4.51605 31.9305C4.40358 31.9305 4.28245 31.8924 4.15268 31.8119C3.93205 31.6765 3.79362 31.359 3.79795 30.9991C3.79795 30.6392 3.94936 30.3259 4.16998 30.1989C4.29543 30.127 4.41223 30.0889 4.52038 30.0889C4.6242 30.0889 4.73668 30.1227 4.85348 30.1862C5.04382 30.2921 5.21686 30.4403 5.22118 31.0965C5.22118 31.5749 5.03517 31.7357 4.83617 31.8374C4.7237 31.8966 4.61555 31.9263 4.51605 31.9263V31.9305Z" fill="#0A878E"/>
<path d="M44.4576 31.9178C44.4101 31.9178 44.3625 31.9178 44.3106 31.9051C43.9429 31.85 43.8131 31.5325 43.7698 31.3462C43.653 30.8551 43.7698 30.3979 44.064 30.2074C44.1721 30.1354 44.2976 30.1016 44.436 30.1016C44.5744 30.1016 44.7042 30.1397 44.8124 30.2116C44.9768 30.3217 45.1455 30.4826 45.1282 30.9991C45.1282 31.2319 45.0762 31.9178 44.4576 31.9178Z" fill="#0A878E"/>
<path d="M4.52076 40.3641C4.43857 40.3641 4.3607 40.3514 4.29149 40.3217C4.05356 40.2328 3.82861 40.0635 3.82861 39.4496C3.82861 38.5521 4.33907 38.5479 4.50778 38.5479C4.84088 38.5479 5.07881 38.7172 5.15667 39.0093C5.32971 39.6867 5.16533 39.983 4.97498 40.182C4.86684 40.2963 4.70245 40.3641 4.52076 40.3641Z" fill="#0A878E"/>
<path d="M44.4662 40.3641C44.4013 40.3641 44.3277 40.3556 44.2542 40.3344C43.7697 40.2074 43.6788 39.6359 43.7481 39.1871C43.7956 38.895 43.9514 38.5479 44.4532 38.5479H44.5181C45.0415 38.5817 45.1237 39.1109 45.1237 39.4242C45.1237 39.7544 45.0285 40.0381 44.8598 40.2032C44.7517 40.309 44.6219 40.3641 44.4618 40.3641H44.4662Z" fill="#0A878E"/>
</svg>
