<svg width="44" height="44" viewBox="0 0 44 44" fill="none" xmlns="http://www.w3.org/2000/svg">
<path d="M43.9988 44C32.1325 43.9918 20.1249 43.9918 8.83792 43.9918H0.474519C0.129527 43.7975 -0.00116957 43.5256 7.87737e-06 43.0335C0.0106049 38.5625 0.0106049 34.0174 0.00942745 29.6217C0.00942745 28.0726 0.00942745 26.5222 0.00942745 24.973C0.00942745 24.209 0.23432 23.9877 1.00908 23.9877C1.98165 23.9877 7.9254 23.9877 7.9254 23.9877C8.09731 23.9877 8.27039 23.9877 8.4423 23.9853C8.61421 23.9853 8.78611 23.983 8.95802 23.983C9.21824 23.983 9.43135 23.9853 9.62916 23.99H9.67037C9.98357 23.99 10.2344 23.897 10.4133 23.7122C10.5947 23.5262 10.683 23.2684 10.6759 22.9459C10.663 22.4362 10.663 21.8982 10.6759 21.2531C10.6818 20.9352 10.5935 20.6821 10.4133 20.4973C10.2932 20.3749 10.0731 20.2289 9.71159 20.2289C9.69157 20.2289 9.67037 20.2289 9.64918 20.2301C9.55381 20.2336 9.45726 20.236 9.36188 20.236C9.26651 20.236 9.16407 20.2348 9.06517 20.2336L8.88737 20.2313C8.62951 20.2289 8.02784 20.1489 8.03255 19.4531C8.03608 18.9846 8.34928 18.7033 8.87324 18.7009L9.429 18.6986C9.84581 18.6962 10.2626 18.6938 10.6794 18.6938C11.2493 18.6938 11.7203 18.6986 12.1619 18.7068H12.2137C12.3491 18.7068 12.76 18.7068 13.0485 18.4101C13.3405 18.11 13.3311 17.6909 13.3275 17.5531C13.3028 16.5596 13.3028 15.5319 13.3275 14.4995C13.3334 14.2594 13.311 13.9086 13.0485 13.6402C12.76 13.3447 12.3526 13.3447 12.2195 13.3447C12.2019 13.3447 12.1842 13.3447 12.1654 13.3447C12.1159 13.3447 12.0665 13.3459 12.017 13.3459C10.7666 13.3459 9.61032 12.9809 8.58006 12.2628C8.33515 12.0921 8.03726 11.8237 8.01018 11.52C7.98309 11.2187 8.22565 10.9067 8.43406 10.6972C8.89561 10.2345 9.36071 9.77542 9.82462 9.31514C10.8584 8.29216 11.9287 7.23386 12.9484 6.15673C13.4771 5.59874 13.9268 5.35977 14.4532 5.35977C14.5474 5.35977 14.6463 5.36801 14.7487 5.38331C14.8299 5.39508 14.9077 5.40215 14.9818 5.40215C15.3398 5.40215 15.5611 5.25264 15.6848 5.12786C15.9532 4.85475 15.9768 4.48511 15.9721 4.23084C15.9556 3.40798 15.9591 2.56864 15.9626 1.7552C15.9638 1.46796 15.965 1.1819 15.965 0.895845V0.869947C15.965 0.731038 15.965 0.612141 15.9944 0.530915C16.1134 0.203655 16.3912 0.00824036 16.7386 0.00824036C16.788 0.00824036 16.8398 0.0117719 16.8917 0.0200123C17.2319 0.0729861 17.4898 0.382588 17.4933 0.741633C17.5051 1.93413 17.5133 3.10073 17.4898 4.24732C17.4874 4.38623 17.478 4.80884 17.7724 5.1102C17.9631 5.30444 18.2198 5.39979 18.5589 5.39979C18.5966 5.39979 18.6355 5.39979 18.6755 5.39626C18.898 5.38331 19.1288 5.37742 19.3796 5.37742C19.6304 5.37742 19.8741 5.38331 20.1602 5.39508C20.185 5.39508 20.2097 5.39626 20.2332 5.39626C20.5476 5.39626 20.7996 5.30326 20.9809 5.11844C21.2635 4.83238 21.2588 4.43685 21.2576 4.30735C21.2447 3.30439 21.2482 2.28258 21.2517 1.29491V0.881719C21.2541 0.559167 21.3554 0.0176579 22.0194 0.0176579C22.6823 0.0176579 22.7836 0.562699 22.7848 0.886428V1.3267C22.7895 2.30612 22.7942 3.31851 22.7801 4.31206C22.7789 4.44038 22.773 4.83121 23.0556 5.11726C23.2381 5.30208 23.4924 5.39626 23.8103 5.39626C23.8327 5.39626 23.8562 5.39626 23.881 5.39508C24.1483 5.38449 24.412 5.37978 24.6652 5.37978C24.9183 5.37978 25.175 5.38566 25.4187 5.39508C25.4482 5.39626 25.4752 5.39744 25.5023 5.39744C25.8261 5.39744 26.084 5.30208 26.2677 5.11491C26.5538 4.82414 26.5479 4.42272 26.5467 4.29087C26.5349 3.49391 26.5373 2.68165 26.5396 1.89528C26.5396 1.52211 26.542 1.14894 26.5408 0.775771C26.5408 0.467346 26.6515 0.269578 26.9105 0.116542C27.0412 0.0400246 27.1778 0 27.3179 0C27.6782 0 28.0633 0.271932 28.0691 0.774594C28.0821 1.83525 28.0821 2.99831 28.0691 4.32972C28.068 4.45686 28.0644 4.84416 28.3447 5.12668C28.5213 5.30562 28.7591 5.39508 29.0511 5.39508C29.0853 5.39508 29.1206 5.39391 29.1583 5.39155C29.2042 5.38802 29.2513 5.38802 29.2972 5.38802C29.3514 5.38802 29.4067 5.3892 29.4621 5.39037C29.5257 5.39155 29.5892 5.39273 29.6528 5.39273C29.7223 5.39273 29.7906 5.39155 29.86 5.38684C29.8824 5.38566 29.9048 5.38449 29.9272 5.38449C30.1827 5.38449 30.3981 5.48573 30.6242 5.71292C31.3766 6.46751 32.1302 7.22091 32.8837 7.97432C33.8233 8.91254 34.7618 9.85076 35.6978 10.7925C35.8603 10.9562 36.0487 11.2116 36.0263 11.5035C36.004 11.8002 35.7732 12.0286 35.5836 12.1687C34.5251 12.948 33.3194 13.3435 31.9995 13.3435C31.9547 13.3435 31.91 13.3435 31.8652 13.3423H31.8181C31.6839 13.3423 31.2777 13.3423 30.9892 13.6378C30.7266 13.9062 30.7043 14.2594 30.7102 14.503C30.7266 15.1905 30.7231 15.8933 30.7208 16.5737C30.7196 16.8916 30.7184 17.2106 30.7184 17.5284C30.7196 18.4101 30.9986 18.6938 31.8676 18.695H32.2667C32.5352 18.695 33.609 18.6938 33.8763 18.6938C34.3355 18.6938 34.7959 18.6938 35.2551 18.6997C35.7014 18.7044 36.0028 19.007 36.004 19.4543C36.0063 19.9099 35.7143 20.2124 35.2622 20.2266C35.168 20.2289 35.0738 20.2301 34.9796 20.2301H34.5286C33.6385 20.2336 33.3653 20.5008 33.3618 21.3755C33.3594 21.8617 33.3594 22.3479 33.3618 22.834C33.3653 23.7028 33.6491 23.9818 34.5286 23.9818C35.2351 23.9818 35.9416 23.983 36.648 23.9842C37.4781 23.9842 38.3082 23.9865 39.1371 23.9865C40.6608 23.9865 41.9006 23.983 43.0357 23.9747H43.0533C43.5278 23.9747 43.801 24.1101 43.9918 24.4492V27.524C43.9918 32.9226 43.9918 38.5025 44 43.9953L43.9988 44ZM14.1117 42.4802C14.3637 42.4802 14.5874 42.4861 14.7923 42.4979C14.8323 42.5003 14.87 42.5014 14.9065 42.5014C15.2338 42.5014 15.494 42.4049 15.6812 42.2166C15.9462 41.9482 15.9721 41.5903 15.9685 41.3431C15.9568 40.406 15.9579 39.4525 15.9603 38.5296C15.9603 37.9269 15.9626 37.3253 15.9603 36.7226C15.9521 34.8508 16.7562 33.4688 18.4176 32.4976C18.7638 32.2952 19.0028 32.0279 19.1688 31.6559C19.4926 30.9308 19.913 30.3504 20.4546 29.8807C20.9221 29.4758 21.4613 29.2615 22.0159 29.2615C22.5705 29.2615 23.1097 29.4758 23.5772 29.8796C24.1129 30.3434 24.538 30.9273 24.8406 31.6136C25.0125 32.002 25.2798 32.2963 25.6836 32.5388C27.2885 33.5018 28.0703 34.8567 28.0703 36.6814C28.0703 37.071 28.0703 37.4607 28.0715 37.8503C28.0739 39.0111 28.075 40.2118 28.0644 41.3902C28.0633 41.5244 28.0597 41.9317 28.347 42.2213C28.5307 42.4061 28.7839 42.5003 29.0994 42.5003C29.1289 42.5003 29.1583 42.5003 29.1901 42.4979C29.3467 42.4897 29.5174 42.4861 29.727 42.4861C29.8671 42.4861 30.0072 42.4873 30.1473 42.4897C30.2922 42.4908 30.4358 42.4932 30.5806 42.4932H30.6171C31.5544 42.492 31.8252 42.2224 31.8264 41.296C31.8264 36.4353 31.8264 31.5735 31.8264 26.7129C31.8264 25.79 31.5532 25.5228 30.6101 25.5228H13.4665C12.4656 25.5228 12.2066 25.7853 12.2066 26.8012V40.3707C12.2066 40.4861 12.2066 40.6014 12.2089 40.7168C12.2113 40.9699 12.2137 41.21 12.2042 41.4478C12.1913 41.7669 12.2761 42.0247 12.4574 42.213C12.6375 42.4014 12.8919 42.4967 13.2098 42.4967H13.2557C13.5194 42.4897 13.8185 42.4814 14.1117 42.4814V42.4802ZM40.5654 42.4802C40.8444 42.4802 41.127 42.485 41.4061 42.4955C41.4285 42.4955 41.4496 42.4955 41.4708 42.4955C41.784 42.4955 42.036 42.4025 42.2173 42.2189C42.4999 41.934 42.4964 41.535 42.4952 41.4031C42.4811 39.8421 42.4811 38.4637 42.4964 37.1876C42.4976 37.0569 42.5023 36.6602 42.2173 36.3718C41.9348 36.0857 41.5438 36.0857 41.4155 36.0857H41.3814C40.9445 36.0928 40.4665 36.0951 39.8778 36.0951C39.5575 36.0951 39.2372 36.0951 38.9181 36.094C38.5967 36.094 38.2764 36.0928 37.955 36.0928H36.0675C35.5236 36.0928 34.9784 36.0928 34.4344 36.0904H34.4179C34.2602 36.0904 33.8904 36.0904 33.6196 36.3635C33.4442 36.5401 33.3559 36.7814 33.3571 37.0793C33.3653 38.5602 33.3618 40.067 33.3594 41.5232C33.3594 41.8175 33.4465 42.0541 33.622 42.2295C33.7951 42.4025 34.027 42.4897 34.312 42.4897C34.6311 42.4873 34.9395 42.4861 35.2492 42.4861C35.5589 42.4861 35.8591 42.4861 36.1641 42.4885C36.5244 42.4885 36.7399 42.3449 36.8576 42.2248C37.0331 42.047 37.1202 41.8034 37.1143 41.5043C37.1096 41.203 37.1061 40.8816 37.1166 40.5649C37.1308 40.1435 37.4428 39.8492 37.8737 39.8469C38.3118 39.8469 38.6261 40.1365 38.6438 40.552C38.6544 40.8004 38.6626 41.0912 38.6438 41.3713C38.6356 41.502 38.6108 41.8975 38.8946 42.2001C39.0783 42.3967 39.3385 42.4955 39.6646 42.4955C39.6858 42.4955 39.707 42.4955 39.7294 42.4955C40.0049 42.485 40.2852 42.4802 40.563 42.4802H40.5654ZM8.81319 42.4826C9.09225 42.4826 9.34187 42.4861 9.57618 42.4944C9.59973 42.4944 9.62092 42.4944 9.64329 42.4944C9.96356 42.4944 10.2191 42.4014 10.4027 42.2166C10.6842 41.9317 10.6806 41.5444 10.6794 41.4161C10.663 39.7868 10.6641 38.4472 10.6818 37.2017C10.6842 37.0687 10.6889 36.6661 10.4016 36.3741C10.1461 36.114 9.80931 36.0845 9.57853 36.0845H9.53615C9.10756 36.0928 8.63775 36.0951 8.05845 36.0951C7.74996 36.0951 7.44029 36.0951 7.1318 36.0928C6.82213 36.0928 6.51129 36.0904 6.20162 36.0904H4.2659C3.70661 36.0904 3.1485 36.0904 2.58921 36.0881H2.5845C2.43261 36.0881 2.07114 36.0904 1.80386 36.3588C1.62959 36.5331 1.54246 36.7697 1.54364 37.0616C1.54953 38.4448 1.54953 39.8975 1.54364 41.5055C1.54364 41.8045 1.63195 42.0459 1.80739 42.2224C1.98283 42.399 2.22303 42.4885 2.52092 42.4885H2.53858C2.85061 42.485 3.16263 42.4826 3.47465 42.4826C3.78668 42.4826 4.10694 42.4838 4.4225 42.4861C4.72275 42.4861 4.95823 42.3967 5.13132 42.2213C5.30558 42.0447 5.39153 41.8081 5.38683 41.5161V41.4996C5.38212 41.1665 5.37741 40.8522 5.39153 40.5379C5.4092 40.14 5.7224 39.8492 6.13686 39.8445C6.58076 39.8445 6.89749 40.1294 6.91633 40.5379C6.92928 40.8263 6.93046 41.1276 6.91868 41.4596C6.90809 41.7728 6.99286 42.0258 7.17301 42.2107C7.35081 42.3955 7.59807 42.4885 7.90538 42.4885H7.936C8.19503 42.4838 8.50235 42.4779 8.81437 42.4779L8.81319 42.4826ZM22.0171 30.9037C21.519 30.9037 21.2082 31.3346 21.041 31.5653C20.7466 31.9726 20.5194 32.4423 20.3475 33.0003C20.2474 33.324 20.0484 33.5277 19.7022 33.6595C18.281 34.201 17.5192 35.2829 17.5016 36.7885C17.4921 37.6125 17.4933 38.4472 17.4945 39.2559C17.4957 39.9646 17.4969 40.6968 17.491 41.4161C17.491 41.5432 17.4863 41.9317 17.7677 42.2142C18.0467 42.4955 18.4259 42.4955 18.5507 42.4955H18.5778C19.0181 42.4897 19.5009 42.4873 20.0967 42.4873C20.411 42.4873 20.7254 42.4873 21.0398 42.4885C21.3554 42.4885 21.6709 42.4897 21.9853 42.4897H22.0065C22.3279 42.4897 22.6482 42.4897 22.9696 42.4897C23.2899 42.4897 23.6102 42.4885 23.9304 42.4885C24.538 42.4885 25.0313 42.4908 25.4811 42.4955H25.5023C25.6236 42.4955 25.9933 42.4955 26.2688 42.2177C26.5455 41.9387 26.5432 41.562 26.542 41.4384C26.5373 40.8204 26.5396 40.1918 26.542 39.5832C26.5455 38.6591 26.5479 37.7044 26.5291 36.7614C26.4973 35.2381 25.7413 34.1669 24.3425 33.6631C23.9846 33.5347 23.7868 33.3311 23.6796 32.9826C23.5171 32.4517 23.297 31.9961 23.0061 31.5877C22.8366 31.3499 22.5198 30.9061 22.0171 30.9061V30.9037ZM7.89243 30.8048C7.59454 30.8048 7.35316 30.8955 7.17772 31.0732C7.0011 31.251 6.91397 31.4935 6.91751 31.7925C6.92457 32.3823 6.92457 32.9838 6.91751 33.5783C6.91397 33.875 7.0011 34.1151 7.17654 34.2929C7.35316 34.4706 7.59454 34.5613 7.89596 34.5613H7.91598C8.20916 34.5577 8.50235 34.5565 8.79553 34.5565C9.08872 34.5565 9.40192 34.5577 9.70452 34.5601C10.0071 34.5601 10.2438 34.4706 10.4181 34.2929C10.537 34.1716 10.6783 33.9515 10.6724 33.5924C10.6688 33.3664 10.67 33.1321 10.6724 32.9061V32.6825C10.6724 32.593 10.6724 32.5059 10.6724 32.4188C10.67 32.2292 10.6677 32.0503 10.6771 31.8749C10.6924 31.5429 10.6076 31.2781 10.4251 31.0862C10.2461 30.8978 9.9977 30.8025 9.68686 30.8025H9.648C9.40074 30.8084 9.13817 30.8119 8.84381 30.8119C8.53296 30.8119 8.22329 30.8084 7.91245 30.8048H7.89243ZM39.6387 30.8025C39.3267 30.8025 39.0783 30.8978 38.8993 31.0862C38.7168 31.2781 38.632 31.5429 38.6473 31.8737C38.6556 32.0432 38.6532 32.2175 38.652 32.4011C38.652 32.4953 38.6497 32.5883 38.6509 32.6825V32.9603C38.652 33.171 38.6532 33.3817 38.6509 33.5912C38.645 33.9515 38.7851 34.1704 38.9052 34.2929C39.0795 34.4694 39.3161 34.5601 39.6081 34.5601C39.9437 34.5577 40.2698 34.5565 40.5948 34.5565C40.9198 34.5565 41.2283 34.5565 41.5438 34.5589C41.9018 34.5589 42.1161 34.4176 42.2338 34.2987C42.4093 34.1222 42.4964 33.8808 42.494 33.5818C42.4905 33.0933 42.487 32.4482 42.494 31.7937C42.4976 31.4947 42.4104 31.2522 42.2338 31.0732C42.0584 30.8955 41.817 30.8048 41.5191 30.8048H41.5003C41.1753 30.8084 40.8515 30.8119 40.5265 30.8119C40.2016 30.8119 39.9378 30.8095 39.6764 30.8025H39.6399H39.6387ZM3.46876 34.5565C3.78785 34.5565 4.10576 34.5565 4.42485 34.5601C4.79104 34.5601 5.00769 34.4176 5.12661 34.2976C5.30087 34.1222 5.388 33.8844 5.38565 33.5924C5.38094 32.9567 5.37741 32.3834 5.388 31.8078C5.39389 31.5029 5.30558 31.2569 5.12779 31.0756C4.95117 30.8955 4.70862 30.8048 4.40719 30.8048C4.38717 30.8048 4.36716 30.8048 4.34596 30.806C4.23764 30.8095 4.12931 30.8107 4.02216 30.8107C3.93857 30.8107 3.85614 30.8107 3.77255 30.8095C3.68659 30.8095 3.59946 30.8084 3.51351 30.8084H3.48878C3.39105 30.8084 3.29215 30.8084 3.19324 30.8095C3.09669 30.8095 3.00014 30.8095 2.90359 30.8095H2.90241C2.78114 30.8095 2.65986 30.8095 2.53858 30.8048H2.49973C2.13943 30.8048 1.9216 30.9484 1.80268 31.0697C1.62606 31.2486 1.53775 31.4935 1.54129 31.7972C1.54835 32.4058 1.54599 33.0168 1.54246 33.5854C1.54011 33.8808 1.62842 34.1198 1.80386 34.2964C1.92278 34.4165 2.13825 34.5589 2.49148 34.5589C2.82235 34.5565 3.14497 34.5554 3.46876 34.5554V34.5565ZM35.2575 34.5565C35.5624 34.5565 35.8674 34.5565 36.1723 34.5577C36.5267 34.5577 36.7399 34.4165 36.8576 34.2976C36.9754 34.1798 37.1143 33.9656 37.1131 33.6195C37.1131 33.4229 37.1131 33.2263 37.1131 33.0297C37.1131 32.9049 37.1131 32.7813 37.1131 32.6566C37.1131 31.9137 37.1131 31.5053 36.8188 31.1745C36.4891 30.806 35.9922 30.806 35.3634 30.806H34.6852C34.5675 30.8072 34.4509 30.806 34.3332 30.806H34.3073C33.9529 30.806 33.7362 30.9484 33.6173 31.0673C33.443 31.2427 33.3571 31.4782 33.3582 31.7666C33.3629 32.3976 33.3618 33.0227 33.3582 33.6042C33.3571 33.9632 33.4984 34.181 33.6173 34.2999C33.7338 34.4165 33.9434 34.5565 34.2825 34.5565H35.2539H35.2575ZM2.51974 25.5192C2.21832 25.5192 1.97694 25.6099 1.80032 25.7888C1.62371 25.9677 1.53658 26.2126 1.54011 26.5151L1.54246 26.6752C1.54953 27.1638 1.55659 27.6676 1.53658 28.155C1.53069 28.2868 1.5142 28.6882 1.80032 28.9861C2.08409 29.2815 2.47853 29.2815 2.60805 29.2815H2.64102C3.08138 29.2745 3.56178 29.2709 4.15404 29.2709C4.47901 29.2709 4.80399 29.2709 5.12896 29.2733C5.45512 29.2733 5.78127 29.2757 6.10742 29.2757C6.43357 29.2757 6.75031 29.2757 7.07175 29.2745C7.39202 29.2745 7.71228 29.2733 8.03372 29.2733C8.63893 29.2733 9.12993 29.2757 9.57736 29.2804H9.60444C9.83404 29.2804 10.1673 29.2498 10.4192 28.9884C10.6041 28.7965 10.6912 28.5317 10.6783 28.2009C10.6594 27.69 10.6665 27.1626 10.6736 26.6529L10.6759 26.5151C10.6794 26.2126 10.5923 25.9677 10.4157 25.79C10.2391 25.611 9.9977 25.5204 9.69628 25.5204C8.49882 25.5228 7.30371 25.5239 6.1086 25.5239C4.91349 25.5239 3.71838 25.5239 2.52328 25.5204H2.52092L2.51974 25.5192ZM34.392 25.5169C34.2672 25.5169 33.8893 25.5169 33.6149 25.7982C33.4359 25.9819 33.3488 26.2326 33.3559 26.5446C33.37 27.1449 33.3641 27.7559 33.3571 28.2821C33.3535 28.5835 33.4407 28.8271 33.6173 29.0061C33.7939 29.185 34.0364 29.2757 34.3379 29.2757C35.5483 29.2733 36.7563 29.2721 37.9644 29.2721C39.1725 29.2721 40.3275 29.2721 41.5097 29.2745C41.8123 29.2745 42.0537 29.1838 42.2303 29.0049C42.4069 28.826 42.4952 28.5811 42.4905 28.2774L42.4882 28.1079C42.4811 27.6229 42.474 27.1214 42.494 26.6376C42.4999 26.5057 42.5164 26.1055 42.2303 25.8076C41.9465 25.5122 41.5509 25.5122 41.4202 25.5122H41.3872C40.9445 25.5192 40.4606 25.5228 39.8624 25.5228C39.5457 25.5228 39.2278 25.5228 38.9111 25.5216C38.5932 25.5216 38.2741 25.5204 37.9562 25.5204C37.9562 25.5204 36.3254 25.5216 36.0063 25.5216C35.4729 25.5216 34.9395 25.5216 34.4062 25.5169H34.3897H34.392ZM29.9978 23.9795C30.278 23.9795 30.5229 23.983 30.7467 23.9912C30.769 23.9912 30.7902 23.9924 30.8114 23.9924C31.1376 23.9924 31.3954 23.8935 31.5791 23.6969C31.8629 23.3944 31.837 22.9965 31.8287 22.8658C31.8181 22.7022 31.8205 22.5315 31.8228 22.3502C31.824 22.256 31.8252 22.1607 31.8252 22.0665V21.8016C31.824 21.6015 31.8228 21.4026 31.8252 21.2025C31.8323 20.8411 31.691 20.6209 31.5721 20.4997C31.452 20.3784 31.2341 20.2324 30.8715 20.2324C30.5512 20.2348 30.2427 20.236 29.933 20.236C29.6234 20.236 29.3267 20.236 29.0241 20.2336C28.6649 20.2336 28.4506 20.3761 28.3317 20.495C28.1563 20.6715 28.0692 20.9117 28.0715 21.2107C28.075 21.7004 28.0786 22.3467 28.0715 22.9988C28.068 23.299 28.1551 23.5427 28.3317 23.7205C28.5072 23.8982 28.7474 23.9889 29.0441 23.9889H29.1877C29.4585 23.983 29.7282 23.9795 29.999 23.9795H29.9978ZM25.1856 23.9842C25.301 23.9842 25.4175 23.9842 25.5329 23.9889H25.5741C25.8673 23.9889 26.104 23.8994 26.2794 23.7228C26.456 23.5451 26.5432 23.3037 26.5396 23.0047C26.5326 22.4114 26.5326 21.8111 26.5396 21.2189C26.5432 20.9199 26.456 20.6786 26.2794 20.5008C26.104 20.3231 25.8626 20.2324 25.5635 20.2324H25.5435C25.2515 20.236 24.9595 20.2372 24.6675 20.2372C24.3755 20.2372 24.0588 20.236 23.755 20.2336C23.4512 20.2336 23.2157 20.3219 23.0415 20.4973C22.9225 20.6174 22.7812 20.834 22.7836 21.1907C22.7883 21.8064 22.7883 22.4244 22.7836 23.0259C22.7812 23.385 22.9225 23.6039 23.0426 23.724C23.1616 23.8441 23.377 23.9865 23.7326 23.9865H23.7597C23.8692 23.9842 23.9775 23.983 24.0858 23.983C24.1848 23.983 24.6251 23.9853 24.6251 23.9853C24.7205 23.9853 24.8147 23.9853 24.9101 23.9842C25.0019 23.9842 25.0937 23.983 25.1856 23.983V23.9842ZM14.1211 23.9842C14.4061 23.9842 14.6898 23.9853 14.9748 23.9889H14.9936C15.2891 23.9889 15.527 23.8994 15.7024 23.7216C15.879 23.5427 15.9674 23.2979 15.9626 22.9953C15.9556 22.4691 15.9497 21.857 15.965 21.2601C15.9721 20.9446 15.8849 20.6904 15.7036 20.5044C15.5258 20.3219 15.2797 20.2289 14.9748 20.2289C14.9489 20.2289 14.9218 20.2289 14.8935 20.2313C14.8064 20.236 14.7098 20.2372 14.5909 20.2372C14.5156 20.2372 14.4414 20.2372 14.366 20.236C14.2871 20.236 14.2083 20.2348 14.1294 20.2348H13.5277C13.4099 20.236 13.2922 20.2348 13.1745 20.2348H13.1509C12.7989 20.2348 12.5846 20.3772 12.4656 20.4961C12.2914 20.6715 12.2042 20.9093 12.2066 21.2025C12.2113 21.7699 12.2113 22.3702 12.2066 23.0389C12.2042 23.3909 12.3444 23.6063 12.4633 23.7252C12.6375 23.9006 12.8766 23.99 13.1733 23.99H13.1851C13.4971 23.9877 13.8079 23.9853 14.1199 23.9853L14.1211 23.9842ZM18.4212 20.236C18.0809 20.236 17.8713 20.3749 17.7547 20.4926C17.6358 20.6115 17.4945 20.8293 17.4957 21.1871C17.498 21.7675 17.4992 22.3914 17.4957 23.0247C17.4933 23.3143 17.5805 23.551 17.7547 23.7252C17.9278 23.8994 18.1621 23.9889 18.4506 23.9889C18.7709 23.9865 19.0793 23.9853 19.389 23.9853C19.6987 23.9853 19.9954 23.9853 20.298 23.9877C20.6607 23.9877 20.8761 23.8441 20.9951 23.7228C21.1705 23.5439 21.2564 23.3026 21.2506 23.0047C21.247 22.807 21.247 22.608 21.2482 22.4103C21.2482 22.3043 21.2482 22.1984 21.2482 22.0924V21.8158C21.2482 21.6027 21.2482 21.3896 21.2482 21.1766C21.2506 20.8293 21.1116 20.615 20.9939 20.4961C20.8761 20.3772 20.6618 20.236 20.3133 20.236C19.9919 20.236 19.674 20.2372 19.3572 20.2372H18.4223L18.4212 20.236ZM16.7174 12.2499C16.3818 12.2499 16.0368 12.2887 15.6918 12.3653C15.1479 12.4853 14.8405 12.8785 14.8488 13.4447C14.857 13.9592 14.8547 14.4842 14.8535 14.9928C14.8535 15.1917 14.8523 15.3906 14.8523 15.5896C14.8523 15.7897 14.8523 15.9898 14.8535 16.19C14.8547 16.6691 14.857 17.1635 14.8488 17.6473C14.8464 17.7721 14.8405 18.1512 15.1161 18.4313C15.2939 18.6114 15.5376 18.7033 15.839 18.7033H15.8779C16.1263 18.6962 16.3912 18.6938 16.6868 18.6938C16.9964 18.6938 17.3061 18.6974 17.6158 18.7009H17.6358C17.9313 18.7009 18.1692 18.6114 18.3446 18.436C18.5212 18.2595 18.6095 18.017 18.6095 17.7156C18.6048 16.4278 18.6048 15.0198 18.6095 13.4094C18.6107 12.8938 18.3305 12.5242 17.8395 12.3947C17.4733 12.2982 17.0977 12.2499 16.7209 12.2499H16.7174ZM22.0618 18.6938C22.3562 18.6938 22.6199 18.6962 22.8684 18.7033H22.906C23.2075 18.7033 23.4512 18.6114 23.629 18.4313C23.9045 18.1512 23.8986 17.7721 23.8963 17.6473C23.888 17.1647 23.8904 16.6703 23.8916 16.1923C23.8916 15.9922 23.8927 15.7921 23.8927 15.5919C23.8927 15.3918 23.8927 15.1811 23.8904 14.9763C23.888 14.4901 23.8857 13.9862 23.8975 13.4965C23.9116 12.8915 23.5925 12.4877 22.9991 12.3605C22.6647 12.2887 22.3303 12.2522 22.0077 12.2522C21.6521 12.2522 21.2965 12.2958 20.9515 12.3829C20.4322 12.5136 20.1343 12.8891 20.1367 13.4153C20.1414 14.8138 20.1414 16.2618 20.1367 17.718C20.1367 18.0181 20.225 18.2595 20.4004 18.436C20.5759 18.6114 20.8149 18.7009 21.1104 18.7009H21.1305C21.4401 18.6974 21.7498 18.6938 22.0606 18.6938H22.0618ZM27.305 18.6938C27.5946 18.6938 27.8866 18.6962 28.1728 18.7021H28.201C28.5013 18.7021 28.7426 18.6114 28.9193 18.4325C29.0994 18.25 29.1877 17.997 29.1842 17.6803C29.1771 17.1788 29.1783 16.6667 29.1807 16.1723C29.1807 15.9745 29.1807 15.7768 29.1818 15.5778C29.1818 15.3742 29.1818 15.1717 29.1807 14.968C29.1795 14.4783 29.1771 13.9721 29.1865 13.4777C29.1971 12.8832 28.8828 12.4759 28.3235 12.3594C27.9773 12.2876 27.6347 12.2511 27.3073 12.2511C26.9423 12.2511 26.5809 12.2958 26.2323 12.3853C25.7107 12.5183 25.4258 12.8867 25.427 13.4224C25.4328 14.9445 25.4328 16.3383 25.427 17.6826C25.4258 18.0005 25.5164 18.2536 25.6966 18.4349C25.8732 18.6126 26.1134 18.7021 26.4101 18.7021H26.4372C26.7269 18.6962 27.0177 18.6938 27.3073 18.6938H27.305ZM27.3391 10.6548C28.2199 10.6548 29.1088 10.8643 29.979 11.2775C30.643 11.593 31.3483 11.7531 32.076 11.7531C32.1996 11.7531 32.3268 11.7484 32.4528 11.739C32.4634 11.739 32.4728 11.739 32.4846 11.739C32.4858 11.739 32.4952 11.739 32.4975 11.739C32.9014 11.7366 33.1734 11.5836 33.3076 11.2846C33.3806 11.1233 33.496 10.7066 33.0085 10.3311C33.0015 10.3252 32.9932 10.3193 32.9862 10.3146C32.6365 9.9626 32.2856 9.61297 31.9359 9.26334C31.3436 8.67239 30.7314 8.06143 30.1379 7.454C29.7823 7.09024 29.3808 6.92073 28.8757 6.92073H28.8627C27.8678 6.92661 26.7999 6.92897 25.3975 6.92897H22.0371L18.9145 6.92779C17.6499 6.92779 16.3853 6.92779 15.1208 6.92661H15.1172C14.8688 6.92661 14.4237 6.92779 14.054 7.30096C13.4276 7.93311 12.7977 8.56174 12.1677 9.18918C11.7709 9.58472 11.3741 9.98143 10.9785 10.3781L10.9656 10.3887C10.504 10.7737 10.6724 11.1975 10.7348 11.3175C10.9338 11.7013 11.3329 11.7272 11.4636 11.7355H11.4895C11.6367 11.7484 11.7839 11.7543 11.9264 11.7543C12.6893 11.7543 13.3864 11.5989 14.0552 11.2799C14.9218 10.8667 15.8084 10.656 16.688 10.656C17.3991 10.656 18.1268 10.7925 18.8509 11.0621C19.0252 11.1268 19.1947 11.1586 19.3666 11.1586C19.5386 11.1586 19.7175 11.1257 19.8988 11.0574C20.6018 10.7937 21.313 10.6607 22.0135 10.6607C22.7141 10.6607 23.4265 10.7949 24.1306 11.0586C24.3107 11.1257 24.4826 11.1586 24.6581 11.1586C24.8335 11.1586 25.0019 11.1268 25.1785 11.0609C25.9003 10.7925 26.6268 10.656 27.3368 10.656L27.3391 10.6548Z" fill="#1C2974"/>
</svg>
