<svg width="52" height="44" viewBox="0 0 52 44" fill="none" xmlns="http://www.w3.org/2000/svg">
<path d="M51.999 10.93C51.8803 11.1184 51.709 11.2293 51.4913 11.2454C51.3325 11.2569 51.2902 11.3318 51.2927 11.4791C51.3216 13.0397 51.3474 14.6002 51.3722 16.1607C51.3815 16.7417 51.3851 17.3231 51.3918 17.904C51.4119 19.7336 51.4083 21.5643 51.4589 23.3934C51.5022 24.9634 51.4542 26.5333 51.5022 28.1021C51.5744 30.4596 51.5765 32.8181 51.6157 35.1761C51.6337 36.2858 51.6224 37.3966 51.6616 38.5053C51.7183 40.1184 51.675 41.731 51.6889 43.3441C51.6936 43.887 51.5739 44 51.0384 44C34.369 44 17.7001 44 1.03071 44C0.477183 44 0.361627 43.887 0.361111 43.3337C0.360079 41.9283 0.338929 40.5229 0.365754 39.118C0.413214 36.6039 0.43127 34.0892 0.474603 31.5751C0.49369 30.4653 0.467897 29.354 0.520516 28.2458C0.588095 26.8242 0.542698 25.4022 0.566429 23.9806C0.609246 21.4316 0.635556 18.8821 0.673214 16.3325C0.696429 14.7548 0.724802 13.1766 0.759881 11.5989C0.76504 11.3756 0.736667 11.2439 0.473056 11.2267C0.240397 11.2116 0.102659 11.0273 0 10.8264V10.3579C0.13 10.1679 0.276508 9.98784 0.525675 9.98472C0.724802 9.98211 0.769683 9.89206 0.767103 9.71196C0.759365 9.15708 0.763492 8.60168 0.76504 8.0468C0.767103 7.16451 1.15968 6.51906 1.93762 6.12294C2.11095 6.03445 2.17183 5.92566 2.16615 5.73827C2.15583 5.40878 2.1548 5.07876 2.1677 4.74979C2.18317 4.35055 2.4571 4.08769 2.82492 4.09705C3.18242 4.1059 3.41869 4.36825 3.42282 4.76853C3.42591 5.08085 3.43417 5.39368 3.41921 5.70496C3.40889 5.91421 3.47647 6.02404 3.67147 6.1219C4.35036 6.46128 4.7548 7.00991 4.82032 7.78862C4.87448 8.42939 4.83373 9.07171 4.84456 9.713C4.84714 9.8702 4.87191 9.96546 5.06433 9.98576C5.41151 10.0227 5.6194 10.2601 5.63437 10.5844C5.64933 10.8977 5.43369 11.1778 5.08754 11.235C4.89409 11.2673 4.85437 11.3537 4.85849 11.5281C4.87603 12.2386 4.87758 12.9496 4.89151 13.6607C4.94103 16.2185 4.96373 18.7764 5.0019 21.3342C5.02202 22.6611 5.02976 23.9879 5.04421 25.3147C5.07206 27.9335 5.11849 30.5517 5.15718 33.17C5.18298 34.9043 5.20619 36.6387 5.21548 38.3731C5.21702 38.6287 5.29131 38.7208 5.5348 38.6787C5.56833 38.6729 5.60393 38.674 5.63798 38.6787C5.88508 38.7115 5.98774 38.6183 5.99909 38.3523C6.04913 37.217 6.03056 36.0807 6.05687 34.9455C6.10484 32.8998 6.13012 30.8531 6.16468 28.8069C6.19976 26.7607 6.22504 24.7145 6.26941 22.6684C6.30552 21.0126 6.31171 19.3557 6.34214 17.6994C6.34679 17.4444 6.29726 17.3309 6.00992 17.3226C5.53841 17.309 5.26603 16.8947 5.41409 16.4757C5.53067 16.1462 5.79996 16.0462 6.11 16.0431C6.32718 16.041 6.3896 15.951 6.3829 15.7438C6.37052 15.3539 6.38496 14.963 6.37825 14.5731C6.36484 13.8049 6.70119 13.2385 7.35687 12.8695C7.52813 12.7732 7.57972 12.6597 7.57456 12.4759C7.56476 12.1465 7.56425 11.8164 7.57508 11.4875C7.58798 11.0934 7.87325 10.8108 8.22611 10.8254C8.56968 10.8394 8.82917 11.1247 8.83484 11.5036C8.83948 11.8331 8.84567 12.1631 8.83278 12.4921C8.82504 12.6831 8.89778 12.7825 9.06337 12.8752C9.69222 13.2265 10.0317 13.7637 10.0275 14.5034C10.025 14.9198 10.0363 15.3362 10.0234 15.7521C10.0167 15.9728 10.0807 16.0655 10.3149 16.0566C10.7363 16.0415 11.0258 16.295 11.0428 16.661C11.0598 17.029 10.7941 17.3158 10.3706 17.3262C10.107 17.333 10.0621 17.4418 10.0678 17.6744C10.1049 19.2865 10.1333 20.8991 10.1617 22.5117C10.1973 24.5407 10.2303 26.5692 10.2638 28.5982C10.2994 30.7651 10.3345 32.9326 10.3701 35.0995C10.3881 36.1921 10.4057 37.2847 10.4258 38.3768C10.4273 38.4689 10.3954 38.5959 10.4944 38.6376C10.6889 38.7193 10.9092 38.7078 11.1021 38.6604C11.2533 38.6235 11.1759 38.4335 11.1759 38.3153C11.18 32.703 11.1795 27.0907 11.18 21.4784C11.18 21.0225 11.4405 20.7127 11.8125 20.72C12.1963 20.7273 12.4418 21.0214 12.4439 21.4831C12.446 22.0208 12.4511 22.559 12.4413 23.0962C12.4377 23.2888 12.5048 23.357 12.6946 23.3534C13.1589 23.3445 13.6232 23.3419 14.0869 23.3554C14.3077 23.3617 14.3903 23.2961 14.3846 23.0614C14.3702 22.4372 14.3763 21.8121 14.382 21.188C14.3836 21.0323 14.3361 20.9069 14.2505 20.7794C13.1176 19.0882 13.2517 17.068 14.6162 15.5627C15.2538 14.8589 15.9245 14.1854 16.5874 13.5056C16.7287 13.3608 16.8097 13.2172 16.8015 13.0053C16.786 12.6331 16.7989 12.2594 16.7973 11.8867C16.7968 11.7529 16.8231 11.6301 16.9 11.5182C17.0496 11.3006 17.3127 11.1934 17.5521 11.2558C17.843 11.3318 18.0339 11.5468 18.0499 11.8763C18.0679 12.2568 18.0525 12.6394 18.0535 13.0209C18.0535 13.1329 18.0421 13.25 18.1144 13.3468C18.1541 13.3999 18.1917 13.48 18.2707 13.4603C18.3346 13.4441 18.3357 13.3645 18.345 13.3067C18.4012 12.9554 18.4724 12.6082 18.5812 12.2683C19.0058 10.9461 19.8162 9.87488 20.7644 8.90306C22.1031 7.53096 23.4604 6.17759 24.815 4.82111C24.9688 4.66703 25.0183 4.58479 24.8187 4.40312C23.7369 3.41829 24.1202 1.71201 25.5099 1.25967C25.5672 1.24093 25.6539 1.26071 25.6745 1.16962C25.2664 0.712599 25.3025 0.365929 25.7937 0H26.2579C26.4762 0.12857 26.6345 0.299302 26.6583 0.568414C26.682 0.833361 26.5236 1.01502 26.358 1.192C26.3931 1.21178 26.4065 1.22428 26.422 1.22792C27.8994 1.57823 28.404 3.44744 27.1664 4.47392C26.991 4.61966 27.12 4.69045 27.2056 4.77738C27.8551 5.4348 28.5144 6.08234 29.1556 6.74757C30.1796 7.81048 31.2923 8.78803 32.2261 9.93787C32.9983 10.8894 33.4765 11.9835 33.6979 13.1917C33.7169 13.2968 33.6906 13.4722 33.8124 13.4665C33.9393 13.4608 33.9888 13.2973 33.994 13.1589C33.9971 13.0808 33.995 13.0027 33.9955 12.9246C33.9981 12.5603 33.9831 12.1949 34.0089 11.8326C34.0347 11.4739 34.3123 11.2324 34.6414 11.2361C34.9612 11.2397 35.2094 11.4729 35.2568 11.8206C35.3094 12.2094 35.2847 12.6004 35.2775 12.9902C35.2733 13.2281 35.3585 13.3968 35.5204 13.5618C36.155 14.2088 36.7719 14.874 37.4075 15.52C38.8262 16.9603 38.8932 19.2282 37.7831 20.8018C37.7108 20.9043 37.669 21.01 37.6696 21.1385C37.6721 21.7892 37.6768 22.4398 37.6675 23.0905C37.6644 23.3008 37.7511 23.3596 37.945 23.3554C38.3918 23.3461 38.8396 23.3404 39.2858 23.3575C39.5293 23.3669 39.619 23.2961 39.6113 23.039C39.5943 22.4846 39.6015 21.9287 39.6092 21.3738C39.6134 21.0761 39.7877 20.8408 40.04 20.7559C40.2892 20.6721 40.5347 20.7455 40.7168 20.9485C40.87 21.1193 40.8711 21.3244 40.8711 21.5352C40.87 27.0954 40.8706 32.6557 40.8711 38.2164C40.8711 38.3117 40.8716 38.4075 40.8737 38.5027C40.8747 38.5558 40.8783 38.6214 40.9283 38.6407C41.1192 38.713 41.3209 38.6984 41.5123 38.6594C41.6733 38.6266 41.6222 38.4632 41.6248 38.3507C41.6588 36.938 41.7021 35.5253 41.7156 34.1121C41.7357 32.0654 41.7702 30.0192 41.8156 27.9735C41.8502 26.413 41.86 24.852 41.8817 23.2909C41.8868 22.9182 41.893 22.545 41.8992 22.1723C41.9255 20.6378 41.9513 19.1033 41.9812 17.5688C41.9843 17.4006 41.9162 17.346 41.7532 17.3356C41.274 17.3049 41.0052 17.0618 41.0062 16.6823C41.0067 16.3195 41.2698 16.091 41.7434 16.0421C41.7522 16.041 41.7604 16.0395 41.7692 16.04C41.9776 16.0577 42.0318 15.9494 42.0261 15.7553C42.0153 15.3654 42.0323 14.9745 42.021 14.5846C41.9977 13.7898 42.3506 13.2208 43.031 12.8512C43.176 12.7726 43.2198 12.6737 43.2162 12.5197C43.209 12.199 43.2126 11.8779 43.2152 11.5567C43.2183 11.1257 43.4819 10.8248 43.8508 10.8269C44.2093 10.829 44.4719 11.1257 44.4775 11.5437C44.4822 11.8643 44.4863 12.186 44.476 12.5067C44.4698 12.6868 44.54 12.7831 44.6963 12.871C45.3323 13.2302 45.6718 13.7778 45.6702 14.5247C45.6697 14.8891 45.6702 15.2535 45.6702 15.6178C45.6702 15.8757 45.7949 16.0209 46.0442 16.0535C46.4549 16.1077 46.6793 16.3393 46.6752 16.7057C46.671 17.0665 46.4059 17.3267 45.9921 17.3319C45.7559 17.3351 45.7017 17.4329 45.7084 17.6479C45.7321 18.4365 45.7301 19.2256 45.7497 20.0147C45.8013 22.0864 45.824 24.1591 45.859 26.2314C45.8931 28.2515 45.9297 30.2717 45.9607 32.2918C45.9885 34.1392 46.0092 35.986 46.035 37.8333C46.0381 38.041 46.0592 38.2487 46.0639 38.4569C46.0675 38.6068 46.1309 38.6823 46.2826 38.6792C46.377 38.6771 46.4724 38.6735 46.5663 38.6813C46.7721 38.699 46.831 38.6011 46.833 38.4038C46.8392 37.6845 46.8614 36.9646 46.8727 36.2452C46.8918 34.9965 46.8908 33.7477 46.9176 32.499C46.9739 29.9156 47.0017 27.3312 47.0254 24.7473C47.0492 22.1718 47.0791 19.5962 47.1281 17.0207C47.1621 15.2259 47.1663 13.4301 47.1946 11.6353C47.1983 11.3948 47.1658 11.2605 46.8908 11.2142C46.5725 11.1611 46.3925 10.8717 46.4183 10.5651C46.444 10.2601 46.6535 10.0107 46.9537 9.99096C47.1668 9.97691 47.2096 9.88217 47.2075 9.69634C47.2013 9.14979 47.1993 8.60324 47.2075 8.05669C47.2204 7.14785 47.6238 6.48106 48.4456 6.09275C48.5865 6.02612 48.6334 5.94232 48.6308 5.79397C48.6241 5.43845 48.6308 5.08293 48.6283 4.72689C48.6267 4.55199 48.6835 4.4026 48.8057 4.28132C48.9966 4.09185 49.2246 4.04969 49.4722 4.1387C49.7498 4.23864 49.871 4.46403 49.8829 4.74251C49.8978 5.08865 49.8927 5.43637 49.886 5.78304C49.8829 5.94128 49.9396 6.03393 50.084 6.1068C50.8929 6.51385 51.2948 7.177 51.2881 8.09209C51.2845 8.63864 51.2865 9.18519 51.2881 9.73174C51.2881 9.84261 51.2711 9.97847 51.4403 9.97535C51.6786 9.97066 51.8427 10.1029 52 10.2559V10.9326L51.999 10.93ZM12.4444 31.6531C12.4444 33.9002 12.4475 36.1468 12.4398 38.3939C12.4387 38.6204 12.4939 38.6844 12.7256 38.6834C15.4251 38.6745 18.1247 38.6782 20.8248 38.6766C21.1977 38.6766 21.1885 38.7552 21.1885 38.3211C21.1885 34.4869 21.1952 30.6522 21.1828 26.818C21.1802 26.0507 21.4134 25.3845 21.8699 24.7937C22.9393 23.4085 24.392 22.5393 25.9139 21.7658C26.0098 21.7168 26.0954 21.7434 26.1837 21.7876C27.6013 22.4987 28.9374 23.3268 29.9877 24.5495C30.5433 25.1965 30.8719 25.9284 30.8683 26.818C30.8528 30.635 30.8616 34.452 30.8616 38.269C30.8616 38.5407 30.9914 38.6768 31.2511 38.6771C33.9078 38.6771 36.5646 38.6771 39.2213 38.6771C39.4772 38.6771 39.6055 38.5482 39.6062 38.2904C39.6062 33.8576 39.6062 29.4243 39.6062 24.9915C39.6062 24.7489 39.4808 24.6274 39.2301 24.6271C36.8055 24.6271 34.3809 24.6271 31.9563 24.6266C31.6153 24.6266 31.6075 24.6177 31.607 24.2783C31.606 23.4023 31.5926 22.5257 31.6127 21.6497C31.6225 21.2281 31.5761 20.846 31.2975 20.5092C31.201 20.3926 31.1304 20.2411 31.0886 20.0938C31.0169 19.8398 30.8709 19.7758 30.6165 19.7763C27.6075 19.7852 24.5984 19.782 21.5893 19.7826C21.4773 19.7826 21.3659 19.7857 21.254 19.7836C21.1472 19.782 21.0739 19.8226 21.0363 19.9278C20.9119 20.2729 20.7226 20.5831 20.5204 20.8856C20.4477 20.9943 20.4461 21.1125 20.4461 21.2343C20.4466 22.2405 20.4466 23.2472 20.4461 24.2534C20.4461 24.625 20.4451 24.6261 20.07 24.6261C17.6454 24.6261 15.2208 24.6261 12.7962 24.6266C12.4454 24.6266 12.4449 24.6281 12.4449 24.9899C12.4449 27.211 12.4449 29.4315 12.4449 31.6526L12.4444 31.6531ZM26.0124 18.4885C27.5167 18.4885 29.0204 18.4865 30.5247 18.4922C30.6733 18.4927 30.7295 18.4459 30.7259 18.3022C30.7187 18.006 30.7563 17.7145 30.8198 17.4256C31.0148 16.5345 31.5193 15.8261 32.1549 15.2144C32.4804 14.9011 32.6088 14.5992 32.5593 14.1286C32.4108 12.719 31.9361 11.4651 30.9756 10.4246C29.429 8.74899 27.7725 7.18221 26.1878 5.54412C26.0671 5.41919 25.9892 5.43428 25.8746 5.55453C25.529 5.91681 25.1674 6.26348 24.8202 6.6242C23.6708 7.81829 22.4503 8.94106 21.3267 10.1617C20.2506 11.3308 19.5753 12.6774 19.4716 14.2915C19.452 14.5945 19.5005 14.8292 19.7399 15.0515C20.6901 15.9317 21.3551 16.9644 21.3246 18.3319C21.3215 18.4786 21.4062 18.4911 21.5269 18.4906C23.0224 18.487 24.5179 18.488 26.0134 18.488L26.0124 18.4885ZM26.0299 42.7226C32.597 42.7226 39.1646 42.7226 45.7316 42.7226C47.2101 42.7226 48.6886 42.7195 50.1671 42.7263C50.3657 42.7273 50.4364 42.6732 50.4333 42.4618C50.4219 41.742 50.4219 41.0221 50.4364 40.3022C50.441 40.057 50.3724 39.9649 50.1186 39.9717C49.5269 39.9878 48.9342 39.9769 48.3419 39.9769C43.21 39.9769 38.0787 39.9769 32.9467 39.9769C27.8148 39.9769 22.41 39.9769 17.1419 39.9769C12.0874 39.9769 7.03341 39.9769 1.97889 39.9769C1.61984 39.9769 1.61933 39.9779 1.61933 40.3334C1.61933 40.9924 1.61933 41.6519 1.61933 42.3109C1.61933 42.5854 1.75362 42.7226 2.02222 42.7226C10.025 42.7226 18.0277 42.7226 26.0304 42.7226H26.0299ZM22.4534 32.4714C22.4534 34.4057 22.4534 36.34 22.4534 38.2737C22.4534 38.6651 22.4539 38.6662 22.8279 38.6662C24.9683 38.6662 27.1086 38.6662 29.249 38.6662C29.5961 38.6662 29.5967 38.6651 29.5967 38.3252C29.5967 34.5004 29.5915 30.6756 29.6018 26.8503C29.6034 26.3636 29.4672 25.9471 29.1762 25.5744C28.3606 24.5298 27.2788 23.8286 26.1465 23.1936C26.0531 23.141 25.968 23.154 25.8788 23.204C24.829 23.7916 23.8328 24.4522 23.0332 25.3709C22.668 25.7905 22.4384 26.2569 22.4451 26.8508C22.4663 28.7241 22.4529 30.5975 22.4529 32.4709L22.4534 32.4714ZM17.4107 19.7102C18.1066 19.7102 18.8031 19.7055 19.499 19.7133C19.678 19.7154 19.791 19.6608 19.8518 19.4848C20.2243 18.4068 20.151 17.3923 19.3705 16.5173C18.7902 15.8667 18.1654 15.2571 17.5644 14.6252C17.4602 14.5154 17.387 14.4951 17.2725 14.6164C16.6916 15.2316 16.088 15.8255 15.5216 16.4538C14.7308 17.3304 14.5677 18.3407 14.967 19.4526C15.0362 19.6451 15.1414 19.718 15.3472 19.7144C16.0344 19.7029 16.7225 19.7102 17.4097 19.7102H17.4107ZM34.6233 19.7102C35.328 19.7102 36.0327 19.7055 36.7374 19.7133C36.9112 19.7154 37.001 19.6514 37.0619 19.489C37.4565 18.4297 37.3698 17.4293 36.626 16.5631C36.0415 15.8828 35.3899 15.2618 34.7719 14.6106C34.6687 14.5024 34.596 14.5107 34.498 14.6143C33.8918 15.253 33.247 15.8547 32.6764 16.5262C31.9367 17.3965 31.8118 18.3803 32.1817 19.4479C32.2472 19.6379 32.354 19.718 32.5619 19.7149C33.249 19.7034 33.9367 19.7107 34.6244 19.7102H34.6233ZM50.3894 37.3732C50.376 37.3732 50.3626 37.3732 50.3492 37.3732C50.3492 36.81 50.3544 36.2468 50.3482 35.6836C50.3306 34.0975 50.3043 32.5115 50.294 30.9254C50.2925 30.6803 50.2094 30.6137 49.9788 30.6204C49.481 30.635 48.9821 30.636 48.4838 30.6204C48.2527 30.6131 48.1944 30.6954 48.1929 30.9192C48.1815 32.5745 48.1598 34.2303 48.1382 35.8855C48.1268 36.7434 48.1098 37.6012 48.0948 38.459C48.0928 38.5756 48.083 38.6828 48.2589 38.6808C48.8944 38.6735 49.5305 38.6745 50.1661 38.6771C50.3327 38.6776 50.3941 38.6027 50.391 38.4392C50.3853 38.0837 50.3894 37.7282 50.3894 37.3727V37.3732ZM1.66008 37.2186C1.66008 37.7022 1.67194 38.0322 1.65595 38.3606C1.6446 38.5949 1.71837 38.6865 1.9598 38.6813C2.55202 38.6683 3.14528 38.6714 3.73802 38.6813C3.90877 38.6844 3.96552 38.6318 3.95778 38.4606C3.93869 38.028 3.92889 37.5949 3.92321 37.1619C3.89794 35.0824 3.87266 33.0023 3.85667 30.9228C3.85512 30.7006 3.79373 30.6147 3.56365 30.6209C3.04881 30.635 2.53294 30.6313 2.01758 30.6225C1.83135 30.6194 1.75861 30.6798 1.7581 30.875C1.75603 31.4814 1.73591 32.0878 1.72714 32.6937C1.70393 34.2532 1.7096 35.8132 1.66008 37.2186ZM50.2785 26.5176C50.246 26.5176 50.213 26.5176 50.1805 26.5176C50.1805 25.1575 50.1805 23.7974 50.1805 22.4372C50.1805 22.0213 50.1723 21.6049 50.1764 21.189C50.1779 21.0173 50.1243 20.9345 49.9401 20.9371C49.4851 20.9449 49.0296 20.9454 48.5746 20.9366C48.3884 20.9329 48.3399 21.0178 48.3388 21.1875C48.3368 21.5164 48.3125 21.8454 48.3089 22.1744C48.2831 24.4787 48.2625 26.7836 48.2341 29.088C48.2315 29.303 48.3234 29.3535 48.5132 29.3503C49.0115 29.3425 49.5099 29.3394 50.0077 29.3514C50.2244 29.3566 50.2858 29.2764 50.2832 29.0635C50.2734 28.2146 50.279 27.3656 50.279 26.5166L50.2785 26.5176ZM1.77202 26.6722C1.77202 27.4598 1.77976 28.2479 1.76738 29.0349C1.76377 29.2665 1.82155 29.3618 2.0671 29.3535C2.54738 29.3368 3.02921 29.3384 3.51 29.3529C3.74782 29.3602 3.82417 29.278 3.81746 29.0385C3.78548 27.8783 3.81849 26.718 3.77464 25.5568C3.72048 24.1196 3.75865 22.6803 3.71583 21.2421C3.70861 21.0022 3.63433 20.9262 3.40064 20.935C2.98897 20.9511 2.57575 20.9506 2.16409 20.935C1.93194 20.9267 1.87107 21.0188 1.87313 21.2395C1.8881 23.0509 1.82929 24.8613 1.77306 26.6722H1.77202ZM2.01861 16.2669C1.9046 17.3064 1.93298 18.347 1.91234 19.387C1.90873 19.5832 1.96341 19.6707 2.17337 19.6649C2.60258 19.653 3.03282 19.6556 3.46202 19.6639C3.64206 19.6675 3.70603 19.5988 3.69984 19.4198C3.6823 18.9435 3.67147 18.4672 3.66579 17.9904C3.64052 15.8667 3.61421 13.7429 3.59976 11.6197C3.59821 11.3683 3.5229 11.2824 3.27579 11.2964C2.9673 11.3147 2.65623 11.3167 2.34825 11.2959C2.08103 11.2777 2.01242 11.3828 2.01397 11.6389C2.02325 13.1818 2.01861 14.7246 2.01861 16.2675V16.2669ZM50.1341 18.3022C50.1186 18.3022 50.1037 18.3022 50.0882 18.3022C50.0882 17.6005 50.0938 16.8983 50.0871 16.1967C50.0717 14.6627 50.0464 13.1287 50.035 11.5942C50.0335 11.3678 49.9608 11.2855 49.7358 11.2964C49.4186 11.3115 49.0992 11.3167 48.7825 11.2954C48.5158 11.2772 48.4482 11.3787 48.4498 11.6369C48.456 12.5733 48.4431 13.5092 48.4302 14.4456C48.4069 16.1092 48.3801 17.7733 48.3502 19.4369C48.3471 19.6087 48.4167 19.6649 48.5792 19.6628C49.0172 19.6566 49.4557 19.6556 49.8937 19.6628C50.0712 19.666 50.1403 19.5999 50.1362 19.4198C50.1279 19.0471 50.1336 18.6744 50.1336 18.3017L50.1341 18.3022ZM7.27536 37.33C7.27536 37.5736 7.28 37.9895 7.27329 38.4054C7.2702 38.586 7.32333 38.6813 7.51988 38.6787C7.99242 38.6724 8.46444 38.674 8.93698 38.6782C9.1 38.6797 9.16191 38.6193 9.15829 38.446C9.12321 36.7918 9.09433 35.137 9.06544 33.4828C9.05976 33.145 9.05615 32.8066 9.06028 32.4688C9.06234 32.3022 8.99579 32.2356 8.83071 32.2382C8.44433 32.2445 8.05742 32.2507 7.67155 32.2356C7.44611 32.2268 7.3744 32.3064 7.37079 32.5323C7.34655 34.0741 7.31095 35.6159 7.27587 37.3305L7.27536 37.33ZM44.7742 37.2462C44.754 37.2462 44.7339 37.2462 44.7138 37.2462C44.7138 36.3368 44.7185 35.427 44.7123 34.5176C44.7076 33.8419 44.7205 33.1663 44.6787 32.4907C44.6669 32.3012 44.6034 32.2314 44.4156 32.2367C44.0468 32.2471 43.6764 32.2528 43.3081 32.2346C43.0579 32.2226 42.9867 32.3142 42.9846 32.5615C42.9712 34.2422 42.9449 35.923 42.9212 37.6038C42.9175 37.8807 42.9217 38.1592 42.8969 38.4345C42.8794 38.6287 42.9562 38.6797 43.1275 38.6782C43.5913 38.674 44.055 38.6724 44.5188 38.6782C44.7061 38.6808 44.7798 38.6053 44.7757 38.4153C44.7675 38.0254 44.7731 37.6355 44.7731 37.2457L44.7742 37.2462ZM43.047 29.9536C43.0429 29.9536 43.0388 29.9536 43.0346 29.9536C43.0346 30.2139 43.0403 30.4736 43.0326 30.7339C43.0279 30.901 43.0945 30.9681 43.2601 30.9655C43.6124 30.9598 43.9642 30.9645 44.3166 30.964C44.6576 30.9634 44.6633 30.9624 44.6565 30.6173C44.6282 29.0578 44.5941 27.4988 44.5673 25.9393C44.5544 25.1768 44.5498 24.4142 44.5482 23.6511C44.5482 23.4471 44.4827 23.3554 44.2624 23.37C43.9802 23.3888 43.6955 23.3825 43.4123 23.3721C43.2173 23.3648 43.1404 23.4288 43.1378 23.6381C43.1125 25.7436 43.078 27.8486 43.046 29.9541L43.047 29.9536ZM9.0154 29.975C9.00095 29.975 8.98702 29.975 8.97258 29.975C8.97258 29.4555 8.97774 28.9355 8.97155 28.416C8.95246 26.83 8.92563 25.2439 8.91119 23.6579C8.90913 23.446 8.84567 23.3596 8.63056 23.3711C8.3819 23.3846 8.13222 23.3737 7.88306 23.3742C7.53278 23.3747 7.50441 23.3997 7.50028 23.7589C7.49202 24.4871 7.49409 25.2153 7.48171 25.9435C7.45488 27.5118 7.42702 29.0802 7.38679 30.648C7.38008 30.9051 7.46778 30.9801 7.71075 30.9681C8.05381 30.951 8.39841 30.9541 8.74147 30.9671C8.95968 30.9754 9.03036 30.889 9.01746 30.6772C9.00353 30.444 9.01436 30.2092 9.01436 29.975H9.0154ZM17.3839 23.3508C17.8992 23.3508 18.4151 23.3445 18.9305 23.3539C19.1229 23.3575 19.1863 23.2852 19.1843 23.0957C19.1765 22.4799 19.1771 21.8647 19.1843 21.2489C19.1863 21.0651 19.1322 20.9834 18.9351 20.985C17.9209 20.9917 16.9072 20.9917 15.893 20.985C15.7001 20.9839 15.6397 21.0552 15.6418 21.2442C15.65 21.8595 15.6521 22.4758 15.6408 23.091C15.6371 23.3034 15.7192 23.3575 15.9142 23.3539C16.4037 23.344 16.8938 23.3508 17.3834 23.3502L17.3839 23.3508ZM34.6414 20.9886C34.1353 20.9886 33.6287 20.9943 33.1227 20.9855C32.9328 20.9824 32.8658 21.0516 32.8683 21.2426C32.8766 21.8574 32.875 22.4721 32.8694 23.0869C32.8678 23.269 32.9215 23.3544 33.118 23.3534C34.1307 23.3471 35.1433 23.3471 36.1555 23.3534C36.3484 23.3544 36.4098 23.2784 36.4077 23.091C36.4005 22.4763 36.3979 21.8615 36.4093 21.2468C36.4129 21.0339 36.3273 20.9813 36.1343 20.985C35.637 20.9943 35.1392 20.9881 34.6414 20.9881V20.9886ZM43.1853 20.8751C43.1853 21.2447 43.192 21.5477 43.1827 21.8506C43.1781 22.0146 43.2229 22.0848 43.3999 22.077C43.6908 22.0635 43.9838 22.063 44.2748 22.0786C44.4631 22.089 44.5136 22.0161 44.508 21.8402C44.4894 21.278 44.477 20.7153 44.4693 20.1532C44.4574 19.3047 44.4456 18.4563 44.4461 17.6078C44.4461 17.4001 44.3728 17.333 44.1742 17.3455C43.9519 17.3595 43.728 17.3569 43.5051 17.3465C43.324 17.3382 43.2415 17.3913 43.2425 17.5927C43.2472 18.7098 43.2276 19.8263 43.1853 20.8762V20.8751ZM8.86476 20.8366C8.82349 19.8091 8.80286 18.6999 8.8075 17.5906C8.80802 17.4137 8.75179 17.3377 8.56968 17.346C8.34683 17.3564 8.12242 17.36 7.90008 17.3449C7.68341 17.3304 7.60706 17.4293 7.60448 17.6318C7.58591 19.0439 7.56734 20.4566 7.54258 21.8688C7.53948 22.0479 7.61377 22.0921 7.77214 22.0859C8.05536 22.075 8.33909 22.0708 8.6223 22.0744C8.79667 22.0765 8.87147 22.0073 8.86683 21.8277C8.85909 21.5248 8.86476 21.2213 8.86476 20.8366ZM48.4926 8.81926C48.4926 8.81926 48.4905 8.81926 48.4895 8.81926C48.4895 9.13105 48.4915 9.44233 48.4885 9.75412C48.4869 9.90091 48.539 9.97951 48.6979 9.97743C49.0755 9.97222 49.4526 9.97431 49.8302 9.97691C49.9556 9.97795 50.0227 9.93318 50.0221 9.79681C50.0185 9.16489 50.0356 8.53245 50.0108 7.90157C49.9943 7.48099 49.6208 7.17856 49.2055 7.19314C48.8155 7.20667 48.5112 7.51691 48.4941 7.93645C48.4823 8.23003 48.4921 8.52516 48.4921 8.81926H48.4926ZM3.56107 8.82186C3.56107 8.82186 3.56004 8.82186 3.55952 8.82186C3.55952 8.53661 3.56726 8.25085 3.55798 7.9656C3.5425 7.50702 3.22627 7.19262 2.79448 7.19262C2.38591 7.19262 2.03925 7.53877 2.03151 7.98017C2.02119 8.56837 2.03151 9.15656 2.02583 9.74423C2.02429 9.9056 2.07175 9.98263 2.24508 9.97847C2.60464 9.97014 2.96524 9.96962 3.3248 9.97847C3.50742 9.98315 3.56675 9.90143 3.56313 9.72966C3.55694 9.42723 3.56159 9.12429 3.56159 8.82134L3.56107 8.82186ZM7.6473 15.1207C7.6473 15.1207 7.64524 15.1207 7.64421 15.1207C7.64421 15.3461 7.64833 15.5715 7.64266 15.7969C7.63853 15.9593 7.70044 16.0389 7.86809 16.0353C8.09147 16.0301 8.31484 16.0306 8.53821 16.0353C8.70175 16.0384 8.77087 15.9629 8.76933 15.7995C8.76468 15.3576 8.775 14.9151 8.7621 14.4732C8.75282 14.1515 8.4954 13.9126 8.19567 13.9188C7.90988 13.9246 7.66484 14.1651 7.64988 14.4711C7.63905 14.6871 7.64782 14.9047 7.64782 15.1213L7.6473 15.1207ZM44.4058 15.1645C44.4058 15.1645 44.4038 15.1645 44.4027 15.1645C44.4027 14.9313 44.412 14.6976 44.4002 14.4644C44.3857 14.1807 44.1092 13.9183 43.8435 13.9188C43.55 13.9188 43.3008 14.1453 43.2905 14.4555C43.2756 14.9042 43.2859 15.3539 43.2812 15.8037C43.2797 15.9692 43.3555 16.0358 43.5154 16.0353C43.7378 16.0353 43.9601 16.0462 44.183 16.052C44.3285 16.0561 44.4084 15.9947 44.4058 15.838C44.4027 15.6132 44.4048 15.3888 44.4048 15.1639L44.4058 15.1645ZM26.0273 3.59006C26.3384 3.59006 26.5963 3.34229 26.5989 3.04091C26.6015 2.73692 26.3224 2.45896 26.0191 2.46365C25.7209 2.46833 25.4676 2.73276 25.4692 3.03726C25.4707 3.35635 25.7065 3.59006 26.0279 3.59006H26.0273Z" fill="#F5293E"/>
<path d="M16.8087 37.535C16.3274 37.535 15.8456 37.5381 15.3643 37.534C14.9304 37.5303 14.7906 37.3888 14.7901 36.9567C14.7886 36.1067 14.8004 35.2562 14.785 34.4067C14.7772 33.9866 14.9278 33.6472 15.1977 33.3479C15.6088 32.8909 16.1175 32.5703 16.655 32.2907C16.752 32.2402 16.8515 32.2189 16.9511 32.2725C17.5603 32.6004 18.1495 32.9554 18.5756 33.5259C18.7577 33.7701 18.8505 34.0371 18.848 34.3468C18.8407 35.2057 18.8459 36.0645 18.8454 36.9229C18.8454 37.4044 18.7138 37.534 18.2274 37.535C17.7543 37.5361 17.2818 37.535 16.8087 37.535ZM16.054 35.2385C16.054 35.5076 16.0581 35.7762 16.0525 36.0453C16.0494 36.1999 16.1102 36.2639 16.266 36.2613C16.6184 36.2556 16.9712 36.2498 17.323 36.2639C17.534 36.2722 17.5887 36.1832 17.5846 35.9875C17.5753 35.5019 17.583 35.0162 17.5805 34.5306C17.5789 34.251 17.1275 33.7414 16.8531 33.7034C16.8283 33.6998 16.8015 33.7034 16.7773 33.7086C16.4332 33.7852 16.054 34.2604 16.0535 34.6149C16.0535 34.8231 16.0535 35.0313 16.054 35.2395V35.2385Z" fill="#F5293E"/>
<path d="M35.2243 37.5352C34.7342 37.5352 34.2441 37.5383 33.754 37.5341C33.3558 37.531 33.2082 37.3816 33.2072 36.9824C33.2051 36.1323 33.2185 35.2818 33.2015 34.4318C33.1933 34.0128 33.33 33.6692 33.6003 33.3678C34.0223 32.8973 34.5412 32.5621 35.0979 32.2789C35.2016 32.2263 35.2929 32.2367 35.3914 32.2877C35.9305 32.5657 36.4376 32.8889 36.8508 33.3428C37.1216 33.6406 37.2743 33.9794 37.2671 34.4C37.2516 35.2584 37.2635 36.1178 37.262 36.9766C37.2609 37.3795 37.116 37.5305 36.7203 37.5341C36.2214 37.5383 35.7231 37.5352 35.2243 37.5352ZM35.9986 35.2698H35.9996C35.9996 35.071 35.9821 34.8701 36.0037 34.6733C36.0378 34.3615 35.9104 34.1491 35.6731 33.9654C35.2377 33.6276 35.2413 33.6192 34.8105 33.9659C34.6434 34.1007 34.4695 34.2319 34.4706 34.4844C34.4737 35.0033 34.4731 35.5223 34.4695 36.0412C34.4685 36.1912 34.5191 36.2635 34.6785 36.2609C35.0468 36.2547 35.4156 36.2552 35.7845 36.2609C35.9367 36.263 36.0037 36.2047 36.0006 36.048C35.995 35.7888 35.9991 35.5291 35.9991 35.2698H35.9986Z" fill="#F5293E"/>
<path d="M16.8078 31.4596C16.3007 31.4596 15.7936 31.4607 15.2865 31.4596C14.9466 31.4591 14.7944 31.3155 14.7928 30.974C14.7887 30.0464 14.7882 29.1183 14.7928 28.1907C14.7954 27.7155 15.0843 27.3834 15.3974 27.0836C15.7539 26.7416 16.1769 26.4891 16.6092 26.2523C16.7645 26.1675 16.893 26.1805 17.0431 26.2606C17.594 26.5553 18.0991 26.9076 18.5087 27.3891C18.7233 27.6416 18.8492 27.9242 18.8481 28.2636C18.845 29.148 18.8481 30.0324 18.8466 30.9167C18.8455 31.3259 18.7114 31.4576 18.3028 31.4591C17.8045 31.4607 17.3062 31.4591 16.8073 31.4591V31.4602L16.8078 31.4596ZM16.0552 29.1719C16.0552 29.4317 16.0603 29.6919 16.0531 29.9517C16.0485 30.1177 16.1145 30.1875 16.2801 30.1849C16.6319 30.1797 16.9843 30.1771 17.3361 30.1864C17.5301 30.1916 17.5894 30.1078 17.5863 29.922C17.578 29.4286 17.5863 28.9346 17.5827 28.4406C17.5811 28.1907 17.0715 27.6499 16.8295 27.6359C16.7975 27.6338 16.763 27.6478 16.732 27.6608C16.3018 27.8415 16.0552 28.2131 16.0552 28.6785C16.0552 28.843 16.0552 29.0074 16.0552 29.1725V29.1719Z" fill="#F5293E"/>
<path d="M35.2325 31.4584C34.76 31.4584 34.2869 31.4595 33.8144 31.4584C33.3099 31.4574 33.2056 31.3533 33.2051 30.8536C33.2046 30.0473 33.2258 29.2399 33.1974 28.4342C33.1804 27.9407 33.3609 27.5586 33.6854 27.2234C34.0795 26.8164 34.5418 26.503 35.0416 26.2438C35.1546 26.185 35.2599 26.1569 35.3826 26.2219C35.9558 26.5264 36.5052 26.8632 36.9235 27.3764C37.1423 27.6445 37.2697 27.9423 37.2645 28.3045C37.2522 29.1717 37.2614 30.0389 37.2604 30.9061C37.2604 31.3309 37.1268 31.461 36.7017 31.461C36.2116 31.461 35.7221 31.461 35.232 31.461V31.4589L35.2325 31.4584ZM34.4695 29.1619C34.4695 29.4221 34.4757 29.6824 34.4675 29.9421C34.4618 30.1233 34.5376 30.1888 34.7125 30.1852C35.0561 30.1779 35.4002 30.1769 35.7432 30.1857C35.9305 30.1904 36.0043 30.1212 36.0006 29.9281C35.9919 29.4341 35.9996 28.9396 35.9965 28.4456C35.995 28.201 35.4899 27.6508 35.2516 27.6284C35.2274 27.6263 35.2016 27.6346 35.1773 27.6419C34.8059 27.7585 34.4685 28.2218 34.4685 28.6158C34.4685 28.798 34.4685 28.9802 34.469 29.1619H34.4695Z" fill="#F5293E"/>
<path d="M13.4326 41.3487C13.4341 41.7188 13.1674 41.9848 12.8001 41.9801C12.4591 41.9759 12.1801 41.6902 12.1826 41.3487C12.1852 40.9963 12.4787 40.7048 12.8259 40.71C13.17 40.7152 13.4316 40.9906 13.4326 41.3482V41.3487Z" fill="#F5293E"/>
<path d="M10.4071 41.9731C10.0506 41.9695 9.78909 41.7076 9.78857 41.3537C9.78806 40.9909 10.0651 40.7103 10.4216 40.7129C10.7522 40.7155 11.0447 41.0101 11.0473 41.3438C11.0504 41.7009 10.7698 41.9767 10.4076 41.9731H10.4071Z" fill="#F5293E"/>
<path d="M39.2313 41.9756C38.8826 41.974 38.6226 41.706 38.6226 41.3473C38.6226 40.9897 38.8826 40.7149 39.2277 40.7081C39.5697 40.7014 39.872 40.9996 39.8736 41.3458C39.8756 41.7023 39.595 41.9772 39.2308 41.9756H39.2313Z" fill="#F5293E"/>
<path d="M44.0422 41.9793C43.6801 41.9757 43.4128 41.6977 43.4206 41.3334C43.4278 40.9856 43.7028 40.7134 44.0474 40.7129C44.3904 40.7129 44.6793 41.0127 44.6762 41.3656C44.6731 41.704 44.3853 41.983 44.0427 41.9793H44.0422Z" fill="#F5293E"/>
<path d="M20.0124 41.9713C19.6595 41.9687 19.3897 41.7021 19.3887 41.3544C19.3876 41.0104 19.6936 40.7038 20.0309 40.7111C20.3704 40.7184 20.6464 41.0015 20.6495 41.3451C20.6526 41.7136 20.3879 41.9739 20.0129 41.9713H20.0124Z" fill="#F5293E"/>
<path d="M42.2656 41.352C42.2651 41.7044 41.9989 41.974 41.6496 41.9761C41.2891 41.9782 41.0033 41.6976 41.0069 41.3447C41.0105 41.0027 41.3164 40.7029 41.6574 40.7081C41.986 40.7133 42.2666 41.01 42.2661 41.3514L42.2656 41.352Z" fill="#F5293E"/>
<path d="M24.8089 41.9749C24.4679 41.9734 24.193 41.6923 24.1914 41.3446C24.1899 41.0151 24.4953 40.7038 24.8136 40.7101C25.1829 40.7173 25.4476 40.9844 25.4481 41.3493C25.4486 41.7162 25.1824 41.977 24.8089 41.9749Z" fill="#F5293E"/>
<path d="M21.8022 41.3395C21.8059 40.9741 22.0849 40.7003 22.443 40.7123C22.7778 40.7232 23.0584 41.0194 23.0538 41.3562C23.0486 41.719 22.7726 41.9793 22.4022 41.972C22.0421 41.9647 21.7997 41.7086 21.8028 41.3395H21.8022Z" fill="#F5293E"/>
<path d="M27.237 41.9754C26.8671 41.9775 26.6019 41.7125 26.6045 41.3435C26.6071 40.988 26.8661 40.7215 27.2184 40.7121C27.5568 40.7033 27.8674 41.0119 27.8612 41.3503C27.855 41.6975 27.579 41.9728 27.237 41.9749V41.9754Z" fill="#F5293E"/>
<path d="M34.4151 41.9717C34.0576 41.9659 33.7986 41.6974 33.8058 41.3392C33.813 40.9978 34.103 40.7084 34.4367 40.711C34.7782 40.713 35.0542 40.9972 35.0537 41.347C35.0537 41.7249 34.7947 41.9779 34.4151 41.9722V41.9717Z" fill="#F5293E"/>
<path d="M36.833 41.9731C36.4698 41.9731 36.2 41.6983 36.2046 41.3334C36.2093 40.9992 36.5028 40.7108 36.8371 40.7129C37.1858 40.715 37.4675 41.008 37.4649 41.3656C37.4618 41.7108 37.1895 41.9731 36.8335 41.9731H36.833Z" fill="#F5293E"/>
<path d="M46.4361 41.9712C46.0848 41.9681 45.815 41.699 45.8145 41.3508C45.8145 41.0041 46.1116 40.7069 46.4562 40.71C46.8091 40.7131 47.0758 41.001 47.067 41.3695C47.0587 41.7271 46.7993 41.9749 46.4361 41.9712Z" fill="#F5293E"/>
<path d="M48.8425 41.9725C48.4855 41.9725 48.2198 41.7096 48.2178 41.3546C48.2157 41.0126 48.5062 40.7102 48.8322 40.7149C49.1747 40.7196 49.4853 41.0319 49.4781 41.3635C49.4703 41.7153 49.2021 41.9725 48.842 41.9725H48.8425Z" fill="#F5293E"/>
<path d="M15.204 41.9728C14.8491 41.9686 14.5813 41.7 14.5865 41.3523C14.5917 40.9999 14.88 40.712 15.2277 40.71C15.5507 40.7084 15.8452 41.0119 15.8468 41.3471C15.8478 41.7073 15.5708 41.9769 15.204 41.9728Z" fill="#F5293E"/>
<path d="M32.0283 41.9721C31.6599 41.97 31.3948 41.6999 31.4025 41.3345C31.4102 40.994 31.694 40.714 32.0324 40.7119C32.3698 40.7104 32.67 41.0211 32.6618 41.3641C32.654 41.7087 32.3775 41.9737 32.0277 41.9716L32.0283 41.9721Z" fill="#F5293E"/>
<path d="M29.6202 41.9726C29.2715 41.9716 28.9955 41.6936 28.9986 41.3459C29.0011 41.0013 29.2849 40.714 29.6238 40.7119C29.9859 40.7098 30.2557 40.9894 30.2496 41.361C30.2439 41.7202 29.9828 41.9737 29.6202 41.9726Z" fill="#F5293E"/>
<path d="M5.61836 41.9723C5.25312 41.9743 4.99209 41.7235 4.98641 41.3643C4.98074 40.9999 5.26344 40.7048 5.61217 40.711C5.95367 40.7173 6.23482 41.002 6.23844 41.3456C6.24256 41.6943 5.96967 41.9697 5.61836 41.9723Z" fill="#F5293E"/>
<path d="M3.17533 41.9733C2.82918 41.9623 2.55886 41.6729 2.57331 41.3294C2.58724 41.0077 2.90862 40.7042 3.22537 40.7141C3.57462 40.725 3.84906 41.0295 3.83204 41.3871C3.81553 41.7349 3.53541 41.9842 3.17481 41.9733H3.17533Z" fill="#F5293E"/>
<path d="M8.01062 41.9722C7.65777 41.9748 7.38177 41.7089 7.37558 41.3596C7.36939 41.0124 7.66808 40.7079 8.01372 40.71C8.34542 40.7121 8.62915 41.0072 8.62967 41.3507C8.63019 41.7104 8.37225 41.9691 8.01062 41.9722Z" fill="#F5293E"/>
<path d="M17.6093 41.9718C17.2637 41.9676 16.9877 41.6892 16.9898 41.3456C16.9913 41.0052 17.2771 40.7116 17.6093 40.709C17.9323 40.7064 18.2511 41.0359 18.2444 41.3654C18.2371 41.7147 17.9637 41.9765 17.6093 41.9723V41.9718Z" fill="#F5293E"/>
<path d="M28.0685 28.9659C28.0685 29.6078 28.0711 30.2496 28.0675 30.8919C28.0654 31.3172 27.9267 31.4577 27.5124 31.4582C26.5152 31.4598 25.5181 31.4598 24.5209 31.4582C24.1366 31.4577 23.9895 31.3203 23.9875 30.9242C23.9813 29.6405 23.9833 28.3564 23.9859 27.0728C23.9869 26.6782 24.1634 26.355 24.4192 26.0708C24.8247 25.621 25.3256 25.304 25.8544 25.0256C25.971 24.9641 26.0804 24.9621 26.1975 25.024C26.7412 25.3113 27.254 25.6403 27.6692 26.1057C27.9401 26.4096 28.0778 26.7574 28.0716 27.1707C28.0623 27.7693 28.0691 28.3679 28.0691 28.9665L28.0685 28.9659ZM26.8052 28.5808C26.8052 28.1997 26.7814 27.8166 26.8124 27.4377C26.8402 27.0999 26.7035 26.8828 26.4549 26.6892C26.0231 26.3529 26.0148 26.343 25.5939 26.7001C25.4329 26.8365 25.2457 26.9614 25.2462 27.2165C25.2483 28.1258 25.2493 29.0357 25.2446 29.9451C25.2436 30.1293 25.3272 30.1876 25.4959 30.185C25.8477 30.1798 26.2 30.1772 26.5519 30.1866C26.7381 30.1913 26.8134 30.1278 26.8088 29.932C26.7985 29.4818 26.8057 29.031 26.8057 28.5808H26.8052Z" fill="#F5293E"/>
<path d="M26.0252 37.5344C25.5181 37.5344 25.0115 37.5397 24.5044 37.5324C24.1876 37.5282 23.9947 37.3663 23.9921 37.0686C23.9844 36.1587 23.989 35.2483 24.0004 34.3384C24.0086 33.6763 24.4554 33.2792 24.9057 32.8976C25.1889 32.6571 25.517 32.4812 25.84 32.2995C25.9772 32.222 26.0902 32.2319 26.2253 32.3006C26.752 32.5692 27.222 32.9184 27.6352 33.338C27.9096 33.6165 28.0562 33.9699 28.0592 34.3691C28.066 35.2358 28.069 36.102 28.0675 36.9686C28.0665 37.3684 27.8993 37.5303 27.4944 37.5334C27.0048 37.5376 26.5147 37.5344 26.0252 37.5334V37.5344ZM25.2483 35.2639H25.2467C25.2467 35.5153 25.2529 35.7667 25.2446 36.0176C25.239 36.1962 25.3081 36.2659 25.4866 36.2618C25.8472 36.2534 26.2078 36.2529 26.5684 36.2618C26.7469 36.2664 26.8103 36.2009 26.8083 36.0202C26.8026 35.5091 26.8124 34.9979 26.8129 34.4868C26.8129 34.2624 26.2671 33.7039 26.0437 33.6966C26.0107 33.6956 25.9767 33.707 25.9447 33.718C25.5521 33.8543 25.2436 34.2994 25.2483 34.7174C25.2503 34.899 25.2483 35.0812 25.2483 35.2634V35.2639Z" fill="#F5293E"/>
</svg>
