<svg width="39" height="44" viewBox="0 0 39 44" fill="none" xmlns="http://www.w3.org/2000/svg">
<path d="M21.9572 35.4982H17.0476C16.9312 35.4982 16.8196 35.4643 16.7226 35.4014C15.2526 34.4621 14.3745 32.8548 14.3745 31.107C14.3745 28.2843 16.6741 25.9894 19.5024 25.9894C22.3307 25.9894 24.6303 28.2843 24.6303 31.107C24.6303 32.8596 23.7522 34.4621 22.2822 35.4062C22.1852 35.4692 22.0736 35.5031 21.9572 35.5031V35.4982ZM17.232 34.2927H21.7728C22.811 33.5665 23.4223 32.3851 23.4223 31.107C23.4223 28.9476 21.6661 27.195 19.5024 27.195C17.3387 27.195 15.5825 28.9525 15.5825 31.107C15.5825 32.3851 16.1938 33.5665 17.232 34.2927Z" fill="#E0E700"/>
<path d="M19.5025 34.5929C17.5765 34.5929 16.0143 33.029 16.0143 31.1118C16.0143 29.1945 17.5813 27.6307 19.5025 27.6307C21.4236 27.6307 22.9906 29.1945 22.9906 31.1118C22.9906 33.029 21.4236 34.5929 19.5025 34.5929ZM19.5025 28.8314C18.246 28.8314 17.2223 29.853 17.2223 31.107C17.2223 32.3609 18.246 33.3825 19.5025 33.3825C20.759 33.3825 21.7826 32.3609 21.7826 31.107C21.7826 29.853 20.759 28.8314 19.5025 28.8314Z" fill="#E0E700"/>
<path d="M22.0931 44C21.7584 44 21.4867 43.7289 21.4867 43.3948V36.5101L20.4679 35.4934H18.5274L17.5086 36.5101V43.3948C17.5086 43.7289 17.2369 44 16.9022 44C16.5674 44 16.2957 43.7289 16.2957 43.3948V36.2632C16.2957 36.1034 16.3588 35.9485 16.4704 35.8371L17.8433 34.467C17.9549 34.3556 18.1101 34.2927 18.2702 34.2927H20.7153C20.8754 34.2927 21.0307 34.3556 21.1422 34.467L22.5152 35.8371C22.6268 35.9485 22.6898 36.1034 22.6898 36.2632V43.3948C22.6898 43.7289 22.4181 44 22.0834 44H22.0931Z" fill="#E0E700"/>
<path d="M30.5829 44H8.41705C8.0823 44 7.81063 43.7289 7.81063 43.3948V25.0792C7.81063 24.7452 8.0823 24.474 8.41705 24.474H30.5829C30.9176 24.474 31.1893 24.7452 31.1893 25.0792V43.3948C31.1893 43.7289 30.9176 44 30.5829 44ZM29.9765 42.7944V25.6844H9.01862V42.7944H29.9765Z" fill="#E0E700"/>
<path d="M13.6323 28.4151H8.41705C8.0823 28.4151 7.81063 28.1439 7.81063 27.8099C7.81063 27.4758 8.0823 27.2047 8.41705 27.2047H13.3363L15.3108 24.7064C15.5194 24.445 15.8978 24.4014 16.1598 24.6048C16.4218 24.8129 16.4655 25.1906 16.2617 25.452L14.1077 28.1827C13.9913 28.3279 13.8166 28.4102 13.6323 28.4102V28.4151Z" fill="#E0E700"/>
<path d="M30.5828 28.415H25.3676C25.1833 28.415 25.0086 28.3327 24.8922 28.1875L22.7382 25.4569C22.5296 25.1954 22.5781 24.8178 22.8401 24.6096C23.1021 24.4014 23.4805 24.4498 23.6891 24.7113L25.6636 27.2095H30.5828C30.9176 27.2095 31.1893 27.4806 31.1893 27.8147C31.1893 28.1488 30.9176 28.4199 30.5828 28.4199V28.415Z" fill="#E0E700"/>
<path d="M13.6324 44H11.1194C10.7846 44 10.5129 43.7289 10.5129 43.3948V27.805C10.5129 27.4709 10.7846 27.1998 11.1194 27.1998H13.6324C13.9671 27.1998 14.2388 27.4709 14.2388 27.805V43.3948C14.2388 43.7289 13.9671 44 13.6324 44ZM11.7209 42.7945H13.0259V28.4102H11.7209V42.7945Z" fill="#E0E700"/>
<path d="M27.8855 44H25.3725C25.0378 44 24.7661 43.7289 24.7661 43.3948V27.805C24.7661 27.4709 25.0378 27.1998 25.3725 27.1998H27.8855C28.2203 27.1998 28.492 27.4709 28.492 27.805V43.3948C28.492 43.7289 28.2203 44 27.8855 44ZM25.9741 42.7945H27.2791V28.4102H25.9741V42.7945Z" fill="#E0E700"/>
<path d="M25.3677 25.6844C25.0329 25.6844 24.7613 25.4133 24.7613 25.0792C24.7613 20.8187 20.5551 18.4463 19.4975 17.9186C18.44 18.4463 14.2338 20.8187 14.2338 25.0792C14.2338 25.4133 13.9621 25.6844 13.6274 25.6844C13.2927 25.6844 13.021 25.4133 13.021 25.0792C13.021 19.4291 19.0027 16.8099 19.255 16.6985C19.4054 16.6356 19.58 16.6356 19.7304 16.6985C19.9827 16.8099 25.9644 19.4291 25.9644 25.0792C25.9644 25.4133 25.6927 25.6844 25.358 25.6844H25.3677Z" fill="#E0E700"/>
<path d="M11.2843 16.1466H5.68581C5.35106 16.1466 5.07939 15.8754 5.07939 15.5414C5.07939 13.6677 6.60756 12.1474 8.48019 12.1474C10.3528 12.1474 11.881 13.6725 11.881 15.5414C11.881 15.8754 11.6093 16.1466 11.2746 16.1466H11.2843ZM6.3747 14.941H10.5954C10.3334 14.026 9.48441 13.353 8.48503 13.353C7.48566 13.353 6.63667 14.026 6.3747 14.941Z" fill="#E0E700"/>
<path d="M11.2843 25.6844C10.9495 25.6844 10.6778 25.4133 10.6778 25.0792V16.1417H6.29223V21.6901C6.29223 22.0242 6.02055 22.2953 5.68581 22.2953C5.35106 22.2953 5.07939 22.0242 5.07939 21.6901V15.5365C5.07939 15.2025 5.35106 14.9313 5.68581 14.9313H11.2843C11.619 14.9313 11.8907 15.2025 11.8907 15.5365V25.0744C11.8907 25.4085 11.619 25.6796 11.2843 25.6796V25.6844Z" fill="#E0E700"/>
<path d="M8.4171 26.0136H0.60642C0.271677 26.0136 7.0496e-07 25.7425 7.0496e-07 25.4084C7.0496e-07 22.9296 2.02302 20.9106 4.51176 20.9106C7.00051 20.9106 9.01867 22.9296 9.01867 25.4084C9.01867 25.7425 8.74699 26.0136 8.41225 26.0136H8.4171ZM1.2662 24.8081H7.75731C7.47108 23.2782 6.12726 22.1162 4.51176 22.1162C2.89626 22.1162 1.55243 23.2782 1.2662 24.8081Z" fill="#E0E700"/>
<path d="M8.41705 44H0.606419C0.271676 44 0 43.7289 0 43.3948L7.0496e-07 25.4084C7.0496e-07 25.0744 0.271676 24.8033 0.606419 24.8033H8.4171C8.75184 24.8033 9.02352 25.0744 9.02352 25.4084V43.3948C9.02352 43.7289 8.75179 44 8.41705 44ZM1.21284 42.7944H7.81553V26.0136H1.21284V42.7944Z" fill="#E0E700"/>
<path d="M8.4171 27.7663H0.606419C0.271676 27.7663 0 27.4952 0 27.1611C0 26.827 0.271676 26.5559 0.606419 26.5559H8.4171C8.75184 26.5559 9.02352 26.827 9.02352 27.1611C9.02352 27.4952 8.75184 27.7663 8.4171 27.7663Z" fill="#E0E700"/>
<path d="M11.2843 18.2865H5.68581C5.35106 18.2865 5.07939 18.0154 5.07939 17.6813C5.07939 17.3473 5.35106 17.0761 5.68581 17.0761H11.2843C11.619 17.0761 11.8907 17.3473 11.8907 17.6813C11.8907 18.0154 11.619 18.2865 11.2843 18.2865Z" fill="#E0E700"/>
<path d="M11.2843 20.7315H5.68581C5.35106 20.7315 5.07939 20.4604 5.07939 20.1263C5.07939 19.7923 5.35106 19.5211 5.68581 19.5211H11.2843C11.619 19.5211 11.8907 19.7923 11.8907 20.1263C11.8907 20.4604 11.619 20.7315 11.2843 20.7315Z" fill="#E0E700"/>
<path d="M27.7157 16.1466L11.2843 16.1466C10.9495 16.1466 10.6777 15.8754 10.6777 15.5414C10.6777 15.2073 10.9494 14.9362 11.2842 14.9362H27.7157C28.0504 14.9362 28.3221 15.2073 28.3221 15.5414C28.3221 15.8754 28.0504 16.1466 27.7157 16.1466Z" fill="#E0E700"/>
<path d="M33.3143 16.1466H27.7207C27.3859 16.1466 27.1143 15.8754 27.1143 15.5414C27.1143 13.6677 28.6425 12.1474 30.5151 12.1474C32.3877 12.1474 33.9159 13.6725 33.9159 15.5414C33.9159 15.8754 33.6442 16.1466 33.3094 16.1466H33.3143ZM28.4047 14.941H32.6254C32.3634 14.026 31.5145 13.353 30.5151 13.353C29.5157 13.353 28.6667 14.026 28.4047 14.941Z" fill="#E0E700"/>
<path d="M27.7158 25.6844C27.381 25.6844 27.1094 25.4133 27.1094 25.0792V15.5414C27.1094 15.2073 27.381 14.9362 27.7157 14.9362H33.3094C33.6441 14.9362 33.9159 15.2073 33.9159 15.5414L33.9158 21.695C33.9158 22.0291 33.6441 22.3002 33.3094 22.3002C32.9746 22.3002 32.703 22.0291 32.703 21.695V16.1466H28.3174V25.0841C28.3174 25.4181 28.0457 25.6893 27.7109 25.6893L27.7158 25.6844Z" fill="#E0E700"/>
<path d="M38.3936 26.0136H30.5829C30.2481 26.0136 29.9765 25.7425 29.9765 25.4084C29.9765 22.9296 31.9995 20.9106 34.4882 20.9106C36.977 20.9106 38.9951 22.9296 38.9951 25.4084C38.9951 25.7425 38.7235 26.0136 38.3887 26.0136H38.3936ZM31.2427 24.8081H37.7338C37.4476 23.2782 36.1037 22.1162 34.4882 22.1162C32.8727 22.1162 31.5289 23.2782 31.2427 24.8081Z" fill="#E0E700"/>
<path d="M38.3936 44H30.5829C30.2481 44 29.9765 43.7289 29.9765 43.3948L29.9765 25.4084C29.9765 25.0744 30.2481 24.8033 30.5829 24.8033H38.3936C38.7283 24.8033 39 25.0744 39 25.4084V43.3948C39 43.7289 38.7283 44 38.3936 44ZM31.1893 42.7944H37.792V26.0136H31.1893V42.7944Z" fill="#E0E700"/>
<path d="M38.3936 27.7663H30.5829C30.2481 27.7663 29.9765 27.4952 29.9765 27.1611C29.9765 26.827 30.2481 26.5559 30.5829 26.5559H38.3936C38.7283 26.5559 39 26.827 39 27.1611C39 27.4952 38.7283 27.7663 38.3936 27.7663Z" fill="#E0E700"/>
<path d="M33.3143 18.2865H27.7207C27.3859 18.2865 27.1143 18.0154 27.1143 17.6813C27.1143 17.3473 27.3859 17.0761 27.7207 17.0761H33.3143C33.649 17.0761 33.9207 17.3473 33.9207 17.6813C33.9207 18.0154 33.649 18.2865 33.3143 18.2865Z" fill="#E0E700"/>
<path d="M33.3143 20.7315H27.7207C27.3859 20.7315 27.1143 20.4604 27.1143 20.1263C27.1143 19.7923 27.3859 19.5211 27.7207 19.5211H33.3143C33.649 19.5211 33.9207 19.7923 33.9207 20.1263C33.9207 20.4604 33.649 20.7315 33.3143 20.7315Z" fill="#E0E700"/>
<path d="M25.2658 16.1466H12.8609C12.5261 16.1466 12.2545 15.8754 12.2545 15.5414V10.1624C12.2545 9.82835 12.5261 9.55722 12.8609 9.55722H25.2658C25.6005 9.55722 25.8722 9.82835 25.8722 10.1624V15.5414C25.8722 15.8754 25.6005 16.1466 25.2658 16.1466ZM13.4624 14.941H24.6594V10.7676H13.4624V14.941Z" fill="#E0E700"/>
<path d="M20.3806 16.1466C20.0458 16.1466 19.7742 15.8754 19.7742 15.5414V12.8495C19.7742 12.4573 19.454 12.1378 19.061 12.1378C18.6681 12.1378 18.3479 12.4573 18.3479 12.8495V15.5414C18.3479 15.8754 18.0762 16.1466 17.7414 16.1466C17.4067 16.1466 17.135 15.8754 17.135 15.5414V12.8495C17.135 11.794 17.9986 10.9322 19.0562 10.9322C20.1138 10.9322 20.9773 11.794 20.9773 12.8495V15.5414C20.9773 15.8754 20.7056 16.1466 20.3709 16.1466H20.3806Z" fill="#E0E700"/>
<path d="M15.4953 16.1466C15.1605 16.1466 14.8889 15.8754 14.8889 15.5414V12.8495C14.8889 12.4573 14.5687 12.1378 14.1757 12.1378C13.7828 12.1378 13.4626 12.4573 13.4626 12.8495V15.5414C13.4626 15.8754 13.1909 16.1466 12.8561 16.1466C12.5214 16.1466 12.2497 15.8754 12.2497 15.5414V12.8495C12.2497 11.794 13.1133 10.9322 14.1709 10.9322C15.2284 10.9322 16.092 11.794 16.092 12.8495V15.5414C16.092 15.8754 15.8203 16.1466 15.4856 16.1466H15.4953Z" fill="#E0E700"/>
<path d="M25.2658 16.1466C24.931 16.1466 24.6595 15.8754 24.6595 15.5414V12.8495C24.6595 12.4573 24.3393 12.1378 23.9463 12.1378C23.5534 12.1378 23.2332 12.4573 23.2332 12.8495V15.5414C23.2332 15.8754 22.9615 16.1466 22.6267 16.1466C22.292 16.1466 22.0203 15.8754 22.0203 15.5414V12.8495C22.0203 11.794 22.8839 10.9322 23.9415 10.9322C24.9991 10.9322 25.8626 11.794 25.8626 12.8495V15.5414C25.8626 15.8754 25.5909 16.1466 25.2562 16.1466L25.2658 16.1466Z" fill="#E0E700"/>
<path d="M25.2659 10.7628C24.9312 10.7628 24.6595 10.4916 24.6595 10.1576C24.6595 7.07834 22.1465 4.57042 19.061 4.57042C15.9756 4.57042 13.4626 7.07834 13.4626 10.1576C13.4626 10.4916 13.1909 10.7628 12.8561 10.7628C12.5214 10.7628 12.2497 10.4916 12.2497 10.1576C12.2497 6.41021 15.3012 3.36488 19.0562 3.36488C22.8111 3.36488 25.8626 6.41021 25.8626 10.1576C25.8626 10.4916 25.5909 10.7628 25.2562 10.7628H25.2659Z" fill="#E0E700"/>
<path d="M19.061 4.57526C18.7262 4.57526 18.4545 4.30414 18.4545 3.97007V0.605194C18.4545 0.271127 18.7262 0 19.061 0C19.3957 0 19.6674 0.271127 19.6674 0.605194V3.97007C19.6674 4.30414 19.3957 4.57526 19.061 4.57526Z" fill="#E0E700"/>
<path d="M6.15636 40.0977H2.87199C2.53725 40.0977 2.26557 39.8266 2.26557 39.4925V34.404C2.26557 34.07 2.53725 33.7989 2.87199 33.7989H6.15636C6.4911 33.7989 6.76278 34.07 6.76278 34.404V39.4925C6.76278 39.8266 6.4911 40.0977 6.15636 40.0977ZM3.47841 38.8922H5.55479V35.0092H3.47841V38.8922Z" fill="#E0E700"/>
<path d="M36.1281 40.0977H32.8437C32.509 40.0977 32.2373 39.8266 32.2373 39.4925V34.404C32.2373 34.07 32.509 33.7989 32.8437 33.7989H36.1281C36.4628 33.7989 36.7345 34.07 36.7345 34.404V39.4925C36.7345 39.8266 36.4628 40.0977 36.1281 40.0977ZM33.4501 38.8922H35.5265V35.0092H33.4501V38.8922Z" fill="#E0E700"/>
<path d="M4.51175 32.7821C3.27466 32.7821 2.26557 31.7751 2.26557 30.5405C2.26557 29.3059 3.27466 28.2989 4.51175 28.2989C5.74885 28.2989 6.75792 29.3059 6.75792 30.5405C6.75792 31.7751 5.74885 32.7821 4.51175 32.7821ZM4.51175 29.5044C3.93929 29.5044 3.47356 29.9692 3.47356 30.5405C3.47356 31.1118 3.93929 31.5766 4.51175 31.5766C5.08421 31.5766 5.54994 31.1118 5.54994 30.5405C5.54994 29.9692 5.08421 29.5044 4.51175 29.5044Z" fill="#E0E700"/>
<path d="M34.4882 32.7821C33.2511 32.7821 32.242 31.7751 32.242 30.5405C32.242 29.3059 33.2511 28.2989 34.4882 28.2989C35.7253 28.2989 36.7344 29.3059 36.7344 30.5405C36.7344 31.7751 35.7253 32.7821 34.4882 32.7821ZM34.4882 29.5044C33.9158 29.5044 33.45 29.9692 33.45 30.5405C33.45 31.1118 33.9158 31.5766 34.4882 31.5766C35.0607 31.5766 35.5264 31.1118 35.5264 30.5405C35.5264 29.9692 35.0607 29.5044 34.4882 29.5044Z" fill="#E0E700"/>
</svg>
