<svg width="284" height="250" viewBox="0 0 284 250" fill="none" xmlns="http://www.w3.org/2000/svg">
<path d="M38.5539 223.028H33.918V223.211H38.5539V223.028Z" fill="#EBEBEB"/>
<path d="M142 249.463C220.424 249.463 284 245.754 284 241.178C284 236.603 220.424 232.894 142 232.894C63.5756 232.894 0 236.603 0 241.178C0 245.754 63.5756 249.463 142 249.463Z" fill="#F5F5F5"/>
<path d="M176.217 124.096H132.883V241.214H176.217V124.096Z" fill="#0A97D9"/>
<path opacity="0.2" d="M145.12 123.979H132.875V241.236H145.12V123.979Z" fill="#19486A"/>
<path d="M132.831 170.935H89.4961V241.214H132.831V170.935Z" fill="#0A97D9"/>
<path opacity="0.2" d="M102.518 170.935H89.4961V241.141H102.518V170.935Z" fill="#19486A"/>
<path d="M89.4596 185.856H46.125V241.214H89.4596V185.856Z" fill="#0A97D9"/>
<path opacity="0.2" d="M59.0148 185.856H46.125V241.141H59.0148V185.856Z" fill="#19486A"/>
<path d="M46.1119 200.778H2.77734V241.213H46.1119V200.778Z" fill="#0A97D9"/>
<path opacity="0.2" d="M15.0304 200.742H2.78516V241.14H15.0304V200.742Z" fill="#19486A"/>
<path d="M120.604 33.6169C118.546 36.1052 116.43 38.5423 114.306 40.972L112.702 42.787L111.267 44.3898C110.673 45.085 110.285 45.9633 110.146 46.9147L109.663 51.6424C109.502 53.2452 109.348 54.8479 109.157 56.4507C108.806 59.6562 108.432 62.8544 108.008 66.0526C107.854 67.1723 106.821 67.9627 105.701 67.8091C104.712 67.6773 103.979 66.8576 103.928 65.8989C103.745 62.6788 103.621 59.4586 103.511 56.2458C103.445 54.6357 103.416 53.033 103.372 51.4229L103.262 46.5195C103.291 44.2654 104.038 41.9966 105.327 40.0865L106.924 37.9422L108.366 36.0247C110.307 33.4779 112.255 30.9383 114.262 28.4427C115.683 26.679 118.261 26.4009 120.018 27.8206C121.783 29.2404 122.062 31.8166 120.641 33.573C120.641 33.5803 120.612 33.6096 120.604 33.6169Z" fill="#0A97D9"/>
<path d="M103.415 66.2648L100.742 70.8023L106.901 71.4244L107.985 66.8137C108.117 66.2648 107.766 65.7159 107.209 65.6208C106.191 65.4452 104.587 65.372 103.415 66.2575V66.2648Z" fill="#CB7A63"/>
<path d="M100.734 70.8027L101.012 72.4128C101.151 73.2032 101.84 73.7887 102.645 73.7814H104.652C105.26 73.7814 105.824 73.4374 106.11 72.8958L106.886 71.4248L100.727 70.8027H100.734Z" fill="#CB7A63"/>
<path d="M102.977 62.8613L108.909 63.0589L108.528 66.6011L103.519 66.2132L102.977 62.8613Z" fill="#0A97D9"/>
<path opacity="0.3" d="M102.977 62.8613L108.909 63.0589L108.528 66.6011L103.519 66.2132L102.977 62.8613Z" fill="white"/>
<path d="M108.957 100.032L107.983 101.496L107.236 99.981L109.008 77.0009C109.294 73.3489 108.056 70.3483 103.508 70.2385C99.253 70.1361 96.675 73.0415 96.3748 76.6862L94.5145 99.6224L93.4965 101.079L92.8008 99.5712L94.6757 76.6422C95.0199 72.4048 96.9021 69.0017 103.596 69.1627C110.297 69.3237 111.044 72.8 110.715 77.0448L108.95 100.032H108.957Z" fill="#263238"/>
<path d="M90.1059 84.5382H88.9268C86.4807 84.5235 84.4007 86.3312 84.0858 88.761L81.918 105.323L89.5493 105.594L90.1059 84.5382Z" fill="#263238"/>
<path opacity="0.2" d="M90.1059 84.5382H88.9268C86.4807 84.5235 84.4007 86.3312 84.0858 88.761L81.918 105.323L89.5493 105.594L90.1059 84.5382Z" fill="white"/>
<path d="M111.651 100.229L109.93 100.178L110.099 77.1981C110.128 73.5462 108.685 70.5456 104.13 70.4358C99.8674 70.3333 97.4872 73.2388 97.4506 76.8834L97.1942 99.8197L95.4805 99.7684L95.7515 76.8395C95.8027 72.6021 97.4432 69.199 104.144 69.36C110.86 69.521 111.849 72.9973 111.82 77.242L111.666 100.229H111.651Z" fill="#263238"/>
<path d="M119.737 106.479L85.8203 105.477L86.1499 88.3954C86.1792 86.2072 87.9515 84.48 90.1047 84.5386L114.793 85.1826C117.583 85.2558 119.832 87.605 119.824 90.43L119.737 106.479Z" fill="#263238"/>
<path opacity="0.4" d="M115.981 106.37L89.5565 105.587C87.4985 105.529 85.8507 103.772 85.8873 101.664L86.1583 88.3886C86.1876 86.2003 87.9599 84.4732 90.1131 84.5317L114.801 85.1758C117.592 85.2489 119.84 87.5982 119.833 90.4231L119.76 102.645C119.752 104.76 118.061 106.421 115.988 106.363L115.981 106.37Z" fill="white"/>
<g opacity="0.3">
<path d="M111.651 100.229L110.78 101.693L109.93 100.178L110.099 77.1981C110.128 73.5462 108.685 70.5456 104.13 70.4358C99.8674 70.3333 97.4872 73.2388 97.4506 76.8834L97.1942 99.8197L96.2788 101.276L95.4805 99.7684L95.7515 76.8395C95.8027 72.6021 97.4432 69.199 104.144 69.36C110.86 69.521 111.849 72.9973 111.82 77.242L111.666 100.229H111.651Z" fill="white"/>
</g>
<path d="M97.7645 90.9571L94.9375 90.8839L94.9521 89.8154L97.7791 89.8959L97.7645 90.9571Z" fill="#263238"/>
<path d="M97.6937 97.8507L94.8594 97.7702L94.874 96.709L97.7083 96.7822L97.6937 97.8507Z" fill="#263238"/>
<path d="M112.295 91.3526L109.453 91.2721L109.46 90.2109L112.302 90.2841L112.295 91.3526Z" fill="#263238"/>
<path d="M112.244 98.2603L109.402 98.1798L109.41 97.1113L112.251 97.1845L112.244 98.2603Z" fill="#263238"/>
<path d="M106.884 91.8135L100.82 91.6452L100.842 89.3691L106.906 89.5301L106.884 91.8135Z" fill="white"/>
<path d="M133.066 7.93581C133.301 7.8919 133.55 8.13341 133.623 8.4847C133.696 8.83599 133.579 9.16533 133.345 9.21656C133.11 9.26047 132.861 9.01896 132.788 8.66767C132.693 8.30174 132.832 7.98704 133.066 7.93581Z" fill="#263238"/>
<path d="M133.111 8.22951C133.353 8.11973 133.565 7.8709 133.668 7.62207C133.463 7.81235 133.185 7.92213 132.906 7.91481C133.016 7.97336 133.111 8.10509 133.119 8.22951H133.111Z" fill="#263238"/>
<path d="M133.581 11.8148C134.197 11.8367 134.79 11.5952 135.207 11.1415C134.314 10.3657 133.523 9.46554 132.871 8.47754L133.581 11.8221V11.8148Z" fill="#B74D3C"/>
<path d="M131.105 7.35844C131.442 6.93396 131.969 6.69977 132.511 6.72904C132.511 6.72904 132.555 6.73636 132.584 6.73636C132.702 6.73636 132.797 6.6339 132.797 6.51681C132.797 6.39971 132.694 6.30457 132.577 6.30457C131.896 6.24602 131.237 6.52413 130.797 7.05106C130.761 7.08765 130.746 7.13888 130.746 7.19011C130.746 7.30721 130.841 7.40235 130.966 7.40235C131.017 7.40235 131.076 7.38771 131.112 7.35844H131.105Z" fill="#263238"/>
<path d="M128.879 28.5089C122.786 28.5748 121.855 25.2595 121.855 25.2595C123.664 23.4811 123.752 20.2316 123.371 17.3408C123.84 17.9922 124.419 18.5703 125.18 19.0753C126.638 20.034 129.802 18.4971 129.802 18.4971C129.809 18.4971 129.802 19.0387 129.846 19.8145C129.941 21.71 130.358 25.0472 132.087 25.5595C132.087 25.5595 135.602 28.443 128.886 28.5162L128.879 28.5089Z" fill="#CB7A63"/>
<path d="M129.881 18.9868C129.815 19.2649 129.749 19.543 129.712 19.8431C129.69 19.8577 129.661 19.8724 129.639 19.8724C128.211 20.2237 126.636 20.0334 125.179 19.0746C124.41 18.5697 123.831 17.9988 123.363 17.3402C123.268 16.6083 123.136 15.8838 123.004 15.2324L129.639 18.8551L129.888 18.9868H129.881Z" fill="#CB7A63"/>
<path d="M134.246 14.0175C134.202 16.2717 132.971 18.1671 131.243 19.1991H131.236C131.236 19.1991 131.221 19.2064 131.214 19.2064C130.752 19.4991 130.247 19.704 129.712 19.8431C129.69 19.8577 129.661 19.8724 129.639 19.8724C128.211 20.2237 126.636 20.0334 125.179 19.0746C124.41 18.5697 123.831 17.9988 123.363 17.3402C122.169 15.7008 121.671 13.5199 120.814 10.4461C120.55 9.54593 120.499 8.5872 120.668 7.66507C121.268 4.3571 124.432 2.16886 127.735 2.76898C132.364 3.58865 134.341 9.90454 134.246 14.0175Z" fill="#CB7A63"/>
<path opacity="0.2" d="M130.913 19.3162C130.488 19.587 130.276 19.6894 129.829 19.8065C129.785 19.0307 129.8 18.4892 129.785 18.4892C129.829 17.8086 129.873 17.1279 129.873 17.1279C129.873 17.1499 130.583 19.3162 130.906 19.3162H130.913Z" fill="#19486A"/>
<path d="M132.651 5.71145C132.153 6.50185 130.593 7.16784 130.644 6.98488C130.915 6.33353 130.864 5.07474 130.051 5.36748C130.278 5.86514 130.944 9.62686 130.644 10.0806C130.476 10.3294 130.322 13.3374 129.04 15.9867C128.022 18.1017 128.022 18.7604 128.022 18.7604L123.862 19.5654C122.302 19.3678 120.852 17.3845 120.728 17.1649C120.186 16.2282 118.523 15.006 117.659 14.3546C117.286 14.0765 116.993 13.6594 116.831 13.2203C116.546 12.4225 117.132 9.54636 117.256 8.19975C117.439 6.25303 118.457 4.45999 121.284 3.30366C123.027 2.58644 124.499 1.02028 126.279 0.405526C128.059 -0.216549 130.175 -0.187274 131.684 0.947097C132.424 1.50331 133.896 3.75741 132.658 5.72609L132.651 5.71145Z" fill="#263238"/>
<path d="M130.474 8.44815C131.755 8.8214 132.422 10.7096 132.48 11.9098C132.546 13.2345 131.66 14.0688 130.503 13.1832C129.632 12.5026 129.009 11.5512 128.738 10.4827C128.423 9.18732 129.199 8.07491 130.481 8.44815H130.474Z" fill="#CB7A63"/>
<path d="M132.019 12.8619C132.019 13.1693 131.77 13.4181 131.463 13.4181C131.155 13.4181 130.906 13.1693 130.906 12.8619C130.906 12.5545 131.155 12.3057 131.463 12.3057C131.77 12.3057 132.019 12.5545 132.019 12.8619Z" fill="#0A97D9"/>
<path opacity="0.3" d="M132.019 12.8619C132.019 13.1693 131.77 13.4181 131.463 13.4181C131.155 13.4181 130.906 13.1693 130.906 12.8619C130.906 12.5545 131.155 12.3057 131.463 12.3057C131.77 12.3057 132.019 12.5545 132.019 12.8619Z" fill="white"/>
<path d="M120.105 27.4545C120.105 27.4545 121.05 24.5344 122.478 23.6123C123.906 22.6901 130.175 23.6489 131.157 24.0294C132.138 24.41 133.127 26.6787 133.127 26.6787L120.098 27.4545H120.105Z" fill="#0A97D9"/>
<path opacity="0.3" d="M120.105 27.4545C120.105 27.4545 121.05 24.5344 122.478 23.6123C123.906 22.6901 130.175 23.6489 131.157 24.0294C132.138 24.41 133.127 26.6787 133.127 26.6787L120.098 27.4545H120.105Z" fill="white"/>
<path d="M134.417 26.2104C133.442 26.0494 133.171 25.903 132.058 25.8152C128.697 25.6542 125.328 25.6908 121.966 25.925C120.743 26.0128 119.557 26.247 118.385 26.5324C115.975 27.1106 114.357 29.35 114.533 31.8017C115.031 38.6519 117.059 42.6697 117.36 47.1853C117.953 56.1724 116.517 62.4737 116.276 64.5668L120.89 65.2693C129.121 65.0717 134.592 63.308 139.126 61.3759C139.126 61.3759 137.939 50.5079 139.089 46.5998C142.224 35.9074 140.188 34.2095 139.572 31.1504C139.06 28.6035 137.009 26.6422 134.424 26.2177L134.417 26.2104Z" fill="#0A97D9"/>
<path opacity="0.1" d="M139.083 46.5851C138.71 47.8585 138.585 49.8711 138.585 52.0008C138.585 56.4212 139.127 61.3612 139.127 61.3612C134.601 63.2933 129.13 65.057 120.891 65.2546L116.277 64.5521C116.526 62.459 117.954 56.1577 117.368 47.1706C117.068 42.6624 115.039 38.6445 114.541 31.787C114.358 29.3427 115.984 27.0959 118.394 26.525C119.565 26.2396 120.745 26.0127 121.975 25.9176C125.329 25.6907 128.698 25.6468 132.067 25.8005C133.18 25.8883 133.451 26.0347 134.425 26.203C137.011 26.6275 139.061 28.5815 139.574 31.1357C139.794 32.2335 140.204 33.1556 140.482 34.3851C140.826 35.8781 140.987 37.8175 140.416 41.0596C140.153 42.5819 139.728 44.3895 139.091 46.5778L139.083 46.5851Z" fill="white"/>
<path d="M135.742 25.8738C137.426 26.108 139.089 26.4447 140.766 26.7301C142.436 27.0521 144.106 27.3814 145.768 27.74L145.167 27.6888C145.907 27.7181 146.566 27.7766 146.976 27.8059C147.174 27.8205 147.313 27.8132 147.262 27.8498C147.255 27.8645 147.152 27.901 147.042 27.9742C146.903 28.0474 146.727 28.1718 146.544 28.3621C146.164 28.7427 146.01 29.2623 146.017 29.416C146.017 29.5843 146.068 29.5404 146.076 29.416C146.105 29.1525 146.046 28.6475 145.936 28.1279L146.01 28.3402C145.167 25.9031 144.362 23.4514 143.63 20.9704C142.919 18.4821 142.231 15.9865 141.747 13.4104C141.564 12.4224 142.209 11.471 143.205 11.2807C143.959 11.1416 144.699 11.4856 145.087 12.1004C146.478 14.3179 147.68 16.6159 148.844 18.9285C149.994 21.2485 151.07 23.5904 152.103 25.9543L152.176 26.1739C152.462 26.9204 152.733 27.7034 152.901 28.7646C152.975 29.2916 153.033 29.9283 152.909 30.748C152.799 31.5457 152.359 32.6947 151.488 33.5436C151.063 33.9681 150.609 34.2682 150.17 34.495C149.752 34.7 149.342 34.8536 149.012 34.9415C148.317 35.1318 147.789 35.1903 147.328 35.2415C146.413 35.3293 145.739 35.3293 145.153 35.3659H145.058L144.545 35.3147C142.853 35.1391 141.161 34.9341 139.477 34.7219C137.792 34.4731 136.108 34.2682 134.431 33.9754C132.204 33.5802 130.718 31.4505 131.121 29.2257C131.509 27.0521 133.552 25.5884 135.72 25.8885L135.742 25.8738Z" fill="#0A97D9"/>
<g opacity="0.1">
<path d="M135.742 25.8738C137.426 26.108 139.089 26.4447 140.766 26.7301C142.436 27.0521 144.106 27.3814 145.768 27.74L145.167 27.6888C145.907 27.7181 146.566 27.7766 146.976 27.8059C147.174 27.8205 147.313 27.8132 147.262 27.8498C147.255 27.8645 147.152 27.901 147.042 27.9742C146.903 28.0474 146.727 28.1718 146.544 28.3621C146.164 28.7427 146.01 29.2623 146.017 29.416C146.017 29.5843 146.068 29.5404 146.076 29.416C146.105 29.1525 146.046 28.6475 145.936 28.1279L146.01 28.3402C145.167 25.9031 144.362 23.4514 143.63 20.9704C142.919 18.4821 142.231 15.9865 141.747 13.4104C141.564 12.4224 142.209 11.471 143.205 11.2807C143.959 11.1416 144.699 11.4856 145.087 12.1004C146.478 14.3179 147.68 16.6159 148.844 18.9285C149.994 21.2485 151.07 23.5904 152.103 25.9543L152.176 26.1739C152.462 26.9204 152.733 27.7034 152.901 28.7646C152.975 29.2916 153.033 29.9283 152.909 30.748C152.799 31.5457 152.359 32.6947 151.488 33.5436C151.063 33.9681 150.609 34.2682 150.17 34.495C149.752 34.7 149.342 34.8536 149.012 34.9415C148.317 35.1318 147.789 35.1903 147.328 35.2415C146.413 35.3293 145.739 35.3293 145.153 35.3659H145.058L144.545 35.3147C142.853 35.1391 141.161 34.9341 139.477 34.7219C137.792 34.4731 136.108 34.2682 134.431 33.9754C132.204 33.5802 130.718 31.4505 131.121 29.2257C131.509 27.0521 133.552 25.5884 135.72 25.8885L135.742 25.8738Z" fill="white"/>
</g>
<path d="M166.023 10.124L187.98 9.4507L187.643 2.57129L165.73 4.01304L166.023 10.124Z" fill="#0A97D9"/>
<path d="M149.43 10.3873L167.19 9.81641L166.919 4.17383L149.195 5.32284L149.43 10.3873Z" fill="#0A97D9"/>
<path d="M164.845 9.95634L166.002 10.0808L165.716 4.05762L164.566 4.29181L164.845 9.95634Z" fill="#263238"/>
<path opacity="0.2" d="M164.845 9.95634L166.002 10.0808L165.716 4.05762L164.566 4.29181L164.845 9.95634Z" fill="#19486A"/>
<path d="M166.012 10.1246L167.198 10.088L166.905 3.94043L165.719 4.02093L166.012 10.1246Z" fill="#263238"/>
<path d="M146.674 9.55295L148.432 10.3653L148.204 5.43262L146.527 6.4133L146.674 9.55295Z" fill="#263238"/>
<path d="M137.653 9.48773L142.875 9.21695L142.765 6.9043L137.543 7.21899L137.653 9.48773Z" fill="#263238"/>
<path opacity="0.2" d="M137.653 9.48773L142.875 9.21695L142.765 6.9043L137.543 7.21899L137.653 9.48773Z" fill="#19486A"/>
<path d="M142.158 9.68481L147.966 9.46526L147.819 6.23047L142.012 6.56712L142.158 9.68481Z" fill="#263238"/>
<path opacity="0.2" d="M146.674 9.55295L148.432 10.3653L148.204 5.43262L146.527 6.4133L146.674 9.55295Z" fill="#19486A"/>
<path d="M148.468 10.4169L149.428 10.3877L149.193 5.32324L148.227 5.38179L148.468 10.4169Z" fill="#263238"/>
<path d="M187.235 9.47305L190.685 9.34863L190.341 2.44727L186.898 2.62291L187.235 9.47305Z" fill="#263238"/>
<path d="M188.767 9.95589L193.161 9.83148L193.271 9.53142C194.208 6.92602 194.025 4.04984 192.758 1.59082L188.371 1.89088L188.466 2.11775C189.506 4.60605 189.616 7.38709 188.767 9.94857V9.95589Z" fill="#0A97D9"/>
<g opacity="0.4">
<path d="M184.088 3.33927L185.867 3.22949L185.904 3.9833L184.095 4.08576C184.051 3.83693 184.066 3.5881 184.088 3.33195V3.33927Z" fill="white"/>
<path d="M183.012 3.41943C182.99 3.66826 182.983 3.92441 183.02 4.16592L167.603 5.03682L167.566 4.34888L183.012 3.41211V3.41943Z" fill="white"/>
</g>
<g opacity="0.4">
<path d="M149.57 5.71853L149.6 6.33328L164.086 5.47702L164.049 4.80371L149.57 5.71853Z" fill="white"/>
</g>
<g opacity="0.4">
<path d="M188.758 2.13214L188.802 2.90058L192.237 2.67371L192.2 1.89062L188.758 2.13214Z" fill="white"/>
</g>
<path opacity="0.3" d="M192.713 8.82227C192.691 9.08573 192.676 9.3492 192.713 9.60535L189.153 9.72976L189.109 8.96132L192.705 8.82227H192.713Z" fill="#19486A"/>
<path opacity="0.3" d="M186.345 8.39746C186.323 8.65361 186.316 8.90244 186.353 9.15859L167.501 9.83189L167.465 9.15127L186.345 8.40478V8.39746Z" fill="#19486A"/>
<path opacity="0.3" d="M163.907 9.05566C163.893 9.28254 163.885 9.5021 163.915 9.72897L149.904 10.2193L149.875 9.60455L163.907 9.05566Z" fill="#19486A"/>
<path d="M136.481 7.30701L136.525 9.51721C136.532 9.89045 136.876 10.1905 137.286 10.1832L139.081 10.1539L139.007 6.53125L137.213 6.59712C136.803 6.61175 136.473 6.92645 136.481 7.30701Z" fill="#0A97D9"/>
<path d="M145.759 13.4393L146.44 9.31893C146.469 9.1506 146.477 8.97496 146.462 8.79931L146.264 6.61839C146.235 6.33297 146.03 6.06218 145.722 5.96704L142.427 5.93045C141.995 5.7914 141.511 6.00364 141.372 6.39152L140.779 9.09205C140.735 9.29697 140.742 9.50189 140.794 9.70681L141.768 13.4246C141.863 13.732 142.148 13.9735 142.5 14.0467L144.653 14.0686C145.158 14.1638 145.649 13.893 145.752 13.4612L145.759 13.4393Z" fill="#CE7A63"/>
<path d="M147.693 15.174L142.09 17.1427L141.16 13.703L145.965 12.2393L147.693 15.174Z" fill="#0A97D9"/>
<path opacity="0.3" d="M147.693 15.174L142.09 17.1427L141.16 13.703L145.965 12.2393L147.693 15.174Z" fill="white"/>
<path opacity="0.2" d="M140.409 41.0669L136.117 32.9727L140.475 34.3851C140.819 35.8781 140.98 37.8175 140.409 41.0596V41.0669Z" fill="#19486A"/>
<path d="M162.531 108.259L161.645 119.251L166.647 119.346L168.024 108.024L162.531 108.259Z" fill="#CE7A63"/>
<path d="M167.439 117.846L161.727 117.963C161.514 117.963 161.324 118.131 161.28 118.358L160.298 123.364C160.211 123.81 160.467 124.242 160.884 124.337C160.936 124.352 160.994 124.352 161.046 124.352C163.103 124.271 164.934 124.11 167.498 124.066C170.522 124.008 169.761 124.41 173.313 124.396C175.459 124.381 175.825 121.761 174.909 121.651C170.742 121.176 170.303 119.836 168.677 118.27C168.325 117.97 167.879 117.824 167.432 117.853L167.439 117.846Z" fill="#263238"/>
<path d="M107.853 155.368L105.824 165.468L111.214 167.107L113.807 156.795L107.853 155.368Z" fill="#CE7A63"/>
<path d="M136.657 61.8086C136.657 61.8086 128.996 106.495 124.829 119.647C121.863 129.015 113.917 159.65 113.917 159.65L106.703 158.054C106.703 158.054 105.897 137.197 109.903 126.438C111.273 122.765 113.06 119.449 113.543 117.173C115.609 107.447 111.354 89.8019 113.236 76.6359C114.254 69.5004 116.436 64.414 116.436 64.414L136.657 61.8086Z" fill="#263238"/>
<path d="M124.829 119.654C121.863 129.021 113.917 159.657 113.917 159.657L106.703 158.061C106.703 158.061 105.897 137.204 109.903 126.445C111.273 122.771 113.06 119.456 113.543 117.18C115.609 107.454 111.354 89.8088 113.236 76.6428C114.254 69.5073 116.436 64.4209 116.436 64.4209" fill="#263238"/>
<path opacity="0.2" d="M127.262 75.626L131.121 90.7607L133.941 76.2846L127.262 75.626Z" fill="#19486A"/>
<path d="M168.376 113.536L161.33 113.762C161.33 113.762 161.85 104.548 161.85 91.1116C161.85 89.0405 162.173 86.9986 162.627 85.169C163.63 81.0633 165.256 78.0041 165.256 78.0041C165.256 78.0041 164.501 78.048 163.213 78.1066C159.228 78.3115 134.533 79.5849 134.049 79.5483C133.683 79.5118 131.442 79.8118 127.414 77.8505C119.937 74.2058 119.863 63.9819 119.863 63.9819L139.117 61.3691C139.117 61.3691 139.432 61.4277 144.068 61.5082C158.123 61.7497 175.392 62.2913 178.424 67.1142C182.686 73.8984 168.376 113.536 168.376 113.536Z" fill="#263238"/>
<path d="M111.478 164.494L105.568 164.575C105.348 164.575 105.165 164.743 105.128 164.97L104.396 170.02C104.33 170.466 104.623 170.905 105.055 171.008C105.114 171.022 105.165 171.03 105.224 171.03C107.347 170.964 109.237 170.817 111.888 170.781C115.015 170.737 114.246 171.139 117.93 171.147C120.149 171.147 120.384 168.505 119.432 168.388C115.096 167.875 114.554 166.529 112.789 164.933C112.408 164.626 111.939 164.472 111.478 164.501V164.494Z" fill="#263238"/>
<path opacity="0.2" d="M162.625 85.1685C163.628 81.0628 165.254 78.0036 165.254 78.0036C165.254 78.0036 164.5 78.0475 163.211 78.1061C163.152 78.0841 163.094 78.0695 163.02 78.0695L168.154 77.6377L162.625 85.1685Z" fill="#19486A"/>
</svg>
