<svg width="284" height="210" viewBox="0 0 284 210" fill="none" xmlns="http://www.w3.org/2000/svg">
<path d="M270.184 177.737L273.751 120.97C275.078 99.8883 258.334 82.0566 237.203 82.0566C217.778 82.0566 201.736 97.2205 200.648 116.611L196.906 182.911H264.666C267.587 182.911 269.995 180.643 270.177 177.73L270.184 177.737Z" fill="#0A97D9"/>
<path opacity="0.1" d="M270.31 175.68L273.743 120.97C275.07 99.8883 258.326 82.0566 237.195 82.0566C217.77 82.0566 201.728 97.2205 200.64 116.611L196.898 182.911H262.602C266.673 182.911 270.05 179.744 270.303 175.673L270.31 175.68Z" fill="black"/>
<path d="M259.19 182.917L263.08 120.977C264.406 99.8951 247.663 82.0635 226.539 82.0635C207.114 82.0635 191.072 97.2274 189.984 116.618L186.242 182.917H259.19Z" fill="#0A97D9"/>
<path d="M260.356 193.581H261.29C261.768 193.581 262.21 193.181 262.287 192.626L263.67 182.917H257.977L259.36 192.626C259.437 193.174 259.879 193.581 260.356 193.581Z" fill="#0A97D9"/>
<path opacity="0.7" d="M260.356 193.581H261.29C261.768 193.581 262.21 193.181 262.287 192.626L263.67 182.917H257.977L259.36 192.626C259.437 193.174 259.879 193.581 260.356 193.581Z" fill="white"/>
<path d="M168.636 193.581H169.485C169.92 193.581 170.321 193.181 170.391 192.626L171.64 182.917H166.48L167.73 192.626C167.8 193.174 168.2 193.581 168.636 193.581Z" fill="#0A97D9"/>
<path opacity="0.5" d="M168.636 193.581H169.485C169.92 193.581 170.321 193.181 170.391 192.626L171.64 182.917H166.48L167.73 192.626C167.8 193.174 168.2 193.581 168.636 193.581Z" fill="white"/>
<path d="M195.038 193.581H195.888C196.323 193.581 196.723 193.181 196.793 192.626L198.043 182.917H192.883L194.132 192.626C194.203 193.174 194.603 193.581 195.038 193.581Z" fill="#0A97D9"/>
<path opacity="0.7" d="M195.038 193.581H195.888C196.323 193.581 196.723 193.181 196.793 192.626L198.043 182.917H192.883L194.132 192.626C194.203 193.174 194.603 193.581 195.038 193.581Z" fill="white"/>
<path d="M231.923 193.581H232.857C233.334 193.581 233.776 193.181 233.853 192.626L235.236 182.917H229.543L230.926 192.626C231.003 193.174 231.445 193.581 231.923 193.581Z" fill="#0A97D9"/>
<path opacity="0.5" d="M231.923 193.581H232.857C233.334 193.581 233.776 193.181 233.853 192.626L235.236 182.917H229.543L230.926 192.626C231.003 193.174 231.445 193.581 231.923 193.581Z" fill="white"/>
<path d="M201.013 159.526H176.048L174.391 135.46L174.04 130.293L173.879 127.906C173.83 127.268 173.753 126.65 173.633 126.046C173.605 125.913 173.57 125.772 173.542 125.632C173.528 125.527 173.5 125.428 173.465 125.33C172.756 122.803 171.422 120.577 169.66 118.871C167.554 116.828 164.851 115.537 161.867 115.354H185.343C185.603 115.34 185.856 115.333 186.115 115.333C189.373 115.333 192.349 116.674 194.624 118.871C196.386 120.577 197.713 122.803 198.429 125.33C198.464 125.428 198.492 125.527 198.506 125.632C198.668 126.362 198.787 127.12 198.836 127.906L198.998 130.286L201.005 159.526H201.013Z" fill="#0A97D9"/>
<path opacity="0.1" d="M201.013 159.526H176.048L174.391 135.46L174.04 130.293L173.879 127.906C173.83 127.268 173.753 126.65 173.633 126.046C173.605 125.913 173.57 125.772 173.542 125.632C173.528 125.527 173.5 125.428 173.465 125.33C172.756 122.803 171.422 120.577 169.66 118.871C167.554 116.828 164.851 115.537 161.867 115.354H185.343C185.603 115.34 185.856 115.333 186.115 115.333C189.373 115.333 192.349 116.674 194.624 118.871C196.386 120.577 197.713 122.803 198.429 125.33C198.464 125.428 198.492 125.527 198.506 125.632C198.668 126.362 198.787 127.12 198.836 127.906L198.998 130.286L201.005 159.526H201.013Z" fill="black"/>
<g opacity="0.1">
<path d="M220.797 146.706H230.822C233.258 146.706 235.238 148.251 235.238 150.153V156.085C235.238 157.988 233.265 159.532 230.822 159.532H220.797V146.706Z" fill="black"/>
</g>
<path d="M179.861 159.525H224.019C226.121 159.525 227.824 157.822 227.824 155.72V150.504C227.824 148.403 226.121 146.699 224.019 146.699H179.861C177.76 146.699 176.056 148.403 176.056 150.504V155.72C176.056 157.822 177.76 159.525 179.861 159.525Z" fill="#0A97D9"/>
<path d="M283.998 129.556C283.998 136.584 278.902 142.431 272.197 143.576L269.607 177.779C269.382 180.685 267.276 182.918 264.749 182.918H237.215C239.742 182.918 241.848 180.692 242.073 177.779L243.456 159.519L244.656 143.569C249.114 142.804 252.856 139.974 254.864 136.085C254.997 135.839 255.117 135.58 255.229 135.313C256.022 133.551 256.458 131.606 256.458 129.549C256.458 128.552 256.352 127.583 256.156 126.65C256.078 126.271 255.987 125.885 255.882 125.52C255.376 123.821 254.569 122.262 253.516 120.893H253.509C252.203 119.18 250.518 117.797 248.588 116.835C246.671 115.874 244.516 115.333 242.234 115.333H269.768C271.228 115.333 272.639 115.558 273.973 115.972C274.724 116.204 275.44 116.498 276.128 116.842C278.059 117.804 279.737 119.187 281.05 120.893H281.057C282.896 123.301 283.998 126.299 283.998 129.556Z" fill="#0A97D9"/>
<path opacity="0.1" d="M283.998 129.556C283.998 136.584 278.902 142.431 272.197 143.576L269.607 177.779C269.382 180.685 267.276 182.918 264.749 182.918H237.215C239.742 182.918 241.848 180.692 242.073 177.779L243.456 159.519L244.656 143.569C249.114 142.804 252.856 139.974 254.864 136.085C254.997 135.839 255.117 135.58 255.229 135.313C256.022 133.551 256.458 131.606 256.458 129.549C256.458 128.552 256.352 127.583 256.156 126.65C256.078 126.271 255.987 125.885 255.882 125.52C255.376 123.821 254.569 122.262 253.516 120.893H253.509C252.203 119.18 250.518 117.797 248.588 116.835C246.671 115.874 244.516 115.333 242.234 115.333H269.768C271.228 115.333 272.639 115.558 273.973 115.972C274.724 116.204 275.44 116.498 276.128 116.842C278.059 117.804 279.737 119.187 281.05 120.893H281.057C282.896 123.301 283.998 126.299 283.998 129.556Z" fill="black"/>
<path d="M256.467 129.556C256.467 136.583 251.84 142.431 245.768 143.575L243.423 177.778C243.219 180.692 241.31 182.917 239.014 182.917H165.483C163.195 182.917 161.285 180.685 161.075 177.778L158.723 143.519C152.77 142.269 148.27 136.492 148.27 129.556C148.27 126.488 149.154 123.651 150.642 121.335C151.864 119.439 153.5 117.881 155.402 116.835C157.136 115.866 159.095 115.325 161.166 115.325C164.423 115.325 167.4 116.666 169.674 118.864C171.437 120.563 172.763 122.795 173.48 125.322C173.508 125.421 173.543 125.519 173.55 125.624C173.718 126.354 173.824 127.113 173.88 127.892L174.048 130.272L176.049 159.511H228.449L230.618 127.892C230.927 123.427 233.103 119.706 236.122 117.944C238.024 116.442 240.32 115.515 242.798 115.353C243.058 115.325 243.311 115.318 243.57 115.318C245.578 115.318 247.481 115.824 249.173 116.743C249.229 116.765 249.278 116.8 249.334 116.828C251.082 117.797 252.613 119.18 253.799 120.878C255.463 123.286 256.46 126.284 256.46 129.542L256.467 129.556Z" fill="#0A97D9"/>
<path opacity="0.1" d="M227.234 182.917H165.483C163.195 182.917 161.285 180.684 161.075 177.778L158.723 143.519C152.77 142.269 148.27 136.491 148.27 129.555C148.27 126.488 149.154 123.651 150.642 121.335C151.864 119.439 153.5 117.881 155.402 116.835C157.136 115.866 159.095 115.325 161.166 115.325C164.423 115.325 167.4 116.666 169.674 118.863C171.437 120.562 172.763 122.795 173.48 125.322C173.508 125.42 173.543 125.519 173.55 125.624C173.718 126.354 173.824 127.112 173.88 127.892L174.048 130.271L176.049 159.511H228.449L227.234 182.91V182.917Z" fill="white"/>
<path d="M219.221 85.6438C217.999 86.3178 216.883 86.9285 215.732 87.5182C214.58 88.1079 213.408 88.6696 212.242 89.2101C209.884 90.2913 207.497 91.3092 205.033 92.2078C202.554 93.1345 200.034 93.9278 197.479 94.6017C194.818 95.3178 192.108 95.8022 189.363 96.055L188.788 96.1111L188.507 96.09C186.029 95.8022 183.831 95.3529 181.627 94.8966C179.422 94.4403 177.239 93.9208 175.077 93.3732C172.915 92.8256 170.766 92.2499 168.625 91.6321C166.484 91.0144 164.343 90.3755 162.223 89.6524L163.198 84.7803C167.614 85.0681 172.023 85.5104 176.39 85.9387L182.912 86.5915C185.06 86.7951 187.257 86.9847 189.181 87.0549L188.331 87.076C190.536 86.6828 192.705 86.1352 194.832 85.4332C197.036 84.7101 199.234 83.9308 201.424 82.9831C203.614 82.0354 205.798 81.0736 207.967 80.0486C209.069 79.5432 210.15 79.0026 211.203 78.4831C212.256 77.9566 213.38 77.3949 214.342 76.8965L219.235 85.6578L219.221 85.6438Z" fill="#263238"/>
<path opacity="0.1" d="M219.221 85.6438C217.999 86.3178 216.883 86.9285 215.732 87.5182C214.58 88.1079 213.408 88.6696 212.242 89.2101C209.884 90.2913 207.497 91.3092 205.033 92.2078C202.554 93.1345 200.034 93.9278 197.479 94.6017C194.818 95.3178 192.108 95.8022 189.363 96.055L188.788 96.1111L188.507 96.09C186.029 95.8022 183.831 95.3529 181.627 94.8966C179.422 94.4403 177.239 93.9208 175.077 93.3732C172.915 92.8256 170.766 92.2499 168.625 91.6321C166.484 91.0144 164.343 90.3755 162.223 89.6524L163.198 84.7803C167.614 85.0681 172.023 85.5104 176.39 85.9387L182.912 86.5915C185.06 86.7951 187.257 86.9847 189.181 87.0549L188.331 87.076C190.536 86.6828 192.705 86.1352 194.832 85.4332C197.036 84.7101 199.234 83.9308 201.424 82.9831C203.614 82.0354 205.798 81.0736 207.967 80.0486C209.069 79.5432 210.15 79.0026 211.203 78.4831C212.256 77.9566 213.38 77.3949 214.342 76.8965L219.235 85.6578L219.221 85.6438Z" fill="black"/>
<path d="M162.267 82.1197C160.624 80.9403 158.869 80.4629 158.869 80.4629L157.051 87.5604L162.499 89.8491L163.116 89.0909C164.864 86.9497 164.513 83.7344 162.267 82.1197Z" fill="#FFC3BD"/>
<path d="M157.049 87.56L158.867 80.4625L153.784 77.6895L152.254 82.6879L157.049 87.56Z" fill="#FFC3BD"/>
<path opacity="0.2" d="M202.128 92.8253H202.325L202.409 92.8323C205.091 92.5444 212.968 91.2176 218.675 85.5943C217.819 83.9516 216.653 82.6809 215.228 82.3931C211.297 81.677 206.481 84.4921 202.121 92.8253H202.128Z" fill="black"/>
<path d="M206.742 129.548C213.468 111.387 209.045 94.6854 209.887 85.4467C210.323 80.7712 213.791 76.9381 218.403 76.0535C223.001 75.1619 228.674 74.1721 234.093 73.4419C234.613 73.3717 235.139 73.3366 235.659 73.3437C241.521 73.4209 246.203 78.2368 246.126 84.0988C245.649 111.499 236.873 129.548 236.873 129.548L222.699 129.485L206.742 129.548Z" fill="#0A97D9"/>
<path opacity="0.8" d="M206.742 129.548C213.468 111.387 209.045 94.6854 209.887 85.4467C210.323 80.7712 213.791 76.9381 218.403 76.0535C223.001 75.1619 228.674 74.1721 234.093 73.4419C234.613 73.3717 235.139 73.3366 235.659 73.3437C241.521 73.4209 246.203 78.2368 246.126 84.0988C245.649 111.499 236.873 129.548 236.873 129.548L222.699 129.485L206.742 129.548Z" fill="white"/>
<path d="M152.95 191.524L151.152 203.34H156.86L160.616 191.524H152.95Z" fill="#FFC3BD"/>
<path d="M150.423 200.707L158.054 200.532C158.321 200.518 158.532 200.707 158.532 200.953L158.546 206.555C158.511 207.166 157.949 207.679 157.289 207.7C154.636 207.721 153.372 207.601 150.016 207.679C146.422 207.665 142.855 207.433 139.338 206.977C136.621 206.513 137.351 203.958 138.587 203.916C144.14 203.712 147.236 202.554 149.23 201.122C149.574 200.862 150.002 200.715 150.423 200.707Z" fill="#263238"/>
<path opacity="0.2" d="M152.227 196.263L152.95 191.524H160.616L158.77 197.429L152.227 196.263Z" fill="black"/>
<path d="M203.223 125.302C203.223 125.302 156.783 125.765 156.067 140.473C155.042 161.618 151.469 193.855 151.469 193.855L160.23 196.263C160.23 196.263 172.719 164.3 173.211 147.781C186.268 145.176 219.854 147.781 223.799 139.202C225.73 134.737 226.242 129.963 225.287 125.302H203.23H203.223Z" fill="#0A97D9"/>
<path opacity="0.6" d="M203.223 125.302C203.223 125.302 156.783 125.765 156.067 140.473C155.042 161.618 151.469 193.855 151.469 193.855L160.23 196.263C160.23 196.263 172.719 164.3 173.211 147.781C186.268 145.176 219.854 147.781 223.799 139.202C225.73 134.737 226.242 129.963 225.287 125.302H203.23H203.223Z" fill="black"/>
<path d="M193.809 196.088L196.905 204.112H203.167L201.011 195.674L193.809 196.088Z" fill="#FFC3BD"/>
<path opacity="0.2" d="M201.595 197.955L200.381 191.784L192.469 192.767L194.498 198.131L201.595 197.955Z" fill="black"/>
<path d="M195.204 201.452H203.194C203.474 201.438 203.706 201.641 203.72 201.908C203.72 201.908 203.72 201.908 203.72 201.915L204.113 207.904C204.113 208.556 203.559 209.097 202.864 209.104C200.084 209.062 198.75 208.9 195.233 208.9C193.077 208.9 188.711 209.111 185.727 209.111C182.743 209.111 182.828 206.317 184.091 206.085C189.771 204.948 191.968 203.382 193.976 201.88C194.327 201.613 194.755 201.459 195.204 201.452Z" fill="#263238"/>
<path d="M215.734 125.302C215.734 125.302 173.619 128.159 174.651 142.86C175.782 158.95 192.652 196.263 192.652 196.263H201.167C201.167 196.263 195.509 162.397 192.939 146.005C204.818 146.005 232.352 147.795 236.304 139.195C238.235 134.73 238.747 129.949 237.785 125.295H215.741L215.734 125.302Z" fill="#0A97D9"/>
<path opacity="0.5" d="M215.734 125.302C215.734 125.302 173.619 128.159 174.651 142.86C175.782 158.95 192.652 196.263 192.652 196.263H201.167C201.167 196.263 195.509 162.397 192.939 146.005C204.818 146.005 232.352 147.795 236.304 139.195C238.235 134.73 238.747 129.949 237.785 125.295H215.741L215.734 125.302Z" fill="black"/>
<path d="M222.116 65.7764C223.084 69.5252 223.393 74.1867 218.156 76.1314C216.703 78.4481 215.994 80.8841 221.589 80.0206C226.04 79.445 230.098 77.1493 232.885 73.6321C229.536 70.7047 230.147 61.7046 230.996 56.6289L222.123 65.7834L222.116 65.7764Z" fill="#FFC3BD"/>
<path d="M221.519 72.5928C216.717 73.4212 212.758 77.1349 210.637 81.5226C208.517 85.9103 208.005 90.9088 208.047 95.7879C208.089 100.66 208.644 105.532 208.517 110.404C208.37 116.035 207.008 120.001 205.07 125.294C205.07 126.551 206.973 127.26 208.587 127.59C211.943 120.268 214.148 113.269 213.916 105.216C213.747 99.3753 213.663 92.72 214.618 86.9564C215.559 81.2769 222.46 73.6809 222.13 72.6419L221.519 72.5998V72.5928Z" fill="#263238"/>
<path opacity="0.3" d="M226.202 68.5209C225.065 69.2651 223.717 69.6652 222.65 69.3844C222.657 68.4718 222.594 67.5591 222.453 66.6605L228.266 61.8867C228.392 62.5045 228.477 63.1363 228.512 63.7682C228.617 65.6426 227.775 67.496 226.202 68.5279V68.5209Z" fill="black"/>
<path d="M217.509 43.6059C211.359 47.0739 211.296 56.9024 213.191 62.5748C213.732 64.2527 214.778 65.7199 216.182 66.773C219.938 69.5951 225.273 68.837 228.095 65.0741C231.1 61.2761 230.665 57.443 230.517 50.8439C230.356 44.2588 223.651 40.1308 217.502 43.5989L217.509 43.6059Z" fill="#FFC3BD"/>
<path opacity="0.2" d="M219.49 61.2548C217.51 62.1043 215.341 63.2065 213.34 62.9678C213.908 64.4772 214.891 65.804 216.19 66.7798C219.946 69.602 225.281 68.8438 228.104 65.0809C230.561 61.9709 231.333 59.8648 230.61 54.1924C226.777 58.6994 223.723 59.4436 219.49 61.2548Z" fill="black"/>
<path d="M225.429 45.7892C224.102 47.8251 224.376 50.7526 226.054 52.5077C226.609 53.0904 227.29 53.5396 227.823 54.1434C228.645 55.0631 229.094 56.3197 229.031 57.5553C229.241 55.9476 230.744 54.6067 232.365 54.5857C231.53 57.1621 230.702 59.7316 229.866 62.308C233.173 60.8127 235.574 57.4921 235.967 53.8836C236.5 48.9203 230.351 38.2424 225.436 45.7892H225.429Z" fill="#263238"/>
<path d="M211.093 46.1685C210.651 46.709 210.237 47.3057 210.118 47.9937C209.991 48.6817 210.244 49.482 210.855 49.812C211.353 50.0788 211.964 49.9875 212.526 49.8892C214.393 49.5663 216.26 49.2363 218.128 48.9134C221.343 48.3518 224.558 47.7972 227.732 47.0319C229.157 46.688 230.757 46.1544 231.319 44.7995C233.137 40.4118 225.366 39.8431 222.775 39.9695C218.324 40.1801 213.852 42.7355 211.093 46.1614V46.1685Z" fill="#263238"/>
<path d="M231.524 53.4907C229.678 53.9049 228.898 56.5516 228.947 58.2505C228.962 60.1741 230.373 61.4307 231.973 60.2724C233.181 59.3738 234.009 58.0469 234.276 56.5656C234.606 54.7403 233.363 53.0765 231.517 53.4907H231.524Z" fill="#FFC3BD"/>
<path d="M218.527 60.1953C218.527 60.1953 217.474 60.8833 216.617 60.4831C217.326 58.8965 217.235 59.2546 217.453 56.5518L218.534 60.1883L218.527 60.1953Z" fill="#ED847E"/>
<path d="M221.765 51.4057C221.238 50.816 219.799 50.5913 219.02 50.7037C219.02 50.7037 219.006 50.7037 218.999 50.7037C218.837 50.7317 218.683 50.6194 218.655 50.4509C218.634 50.2754 218.746 50.114 218.922 50.0788C219.904 49.9314 221.54 50.2263 222.207 50.9634C222.207 50.9634 222.207 50.9634 222.207 50.9704C222.319 51.1038 222.312 51.3004 222.179 51.4127C222.137 51.4478 222.095 51.4829 222.039 51.504C221.933 51.525 221.828 51.4829 221.758 51.3987L221.765 51.4057Z" fill="#263238"/>
<path d="M212.679 52.7538C212.679 52.7538 212.665 52.7468 212.658 52.7398C212.518 52.6485 212.483 52.4589 212.574 52.3256C213.072 51.427 213.964 50.8162 214.982 50.6758C214.989 50.6758 214.996 50.6758 215.003 50.6758C215.164 50.6758 215.298 50.8092 215.298 50.9706C215.298 51.1461 215.171 51.2936 214.996 51.3076C214.196 51.434 213.494 51.9254 213.1 52.6415C213.044 52.7327 212.953 52.7889 212.848 52.8029C212.785 52.8029 212.728 52.7959 212.672 52.7608L212.679 52.7538Z" fill="#263238"/>
<path d="M217.973 63.0454C218.738 63.944 219.833 65.7482 219.833 65.7482C219.98 65.6921 220.128 65.6289 220.268 65.5657C222.248 64.7092 222.81 63.5158 222.831 62.4557C222.845 61.873 222.683 61.3254 222.515 60.9042C222.318 60.4128 222.087 60.0898 222.087 60.0898C221.378 61.3044 219.615 62.2732 218.647 62.7435C218.246 62.9471 217.98 63.0454 217.98 63.0454H217.973Z" fill="#2E353A"/>
<path d="M218.641 62.7437L218.921 63.1369C219.083 63.3615 219.392 63.4457 219.645 63.3264C221.105 62.6384 222.074 61.9083 222.425 61.129C222.495 60.9816 222.474 60.8061 222.404 60.6517C222.235 60.3006 222.081 60.083 222.081 60.083C221.372 61.2975 219.609 62.2663 218.641 62.7367V62.7437Z" fill="white"/>
<path d="M220.27 65.5661C222.249 64.7096 222.811 63.5161 222.832 62.4561C222.172 62.779 221.421 63.2564 220.873 63.9373C220.452 64.4498 220.305 65.0325 220.27 65.5661Z" fill="#DE5753"/>
<path d="M214.932 54.9786C214.588 55.0417 214.392 55.5262 214.497 56.0597C214.602 56.5932 214.968 56.9653 215.312 56.8951C215.656 56.8249 215.852 56.3475 215.747 55.814C215.656 55.2945 215.276 54.9154 214.932 54.9786Z" fill="#263238"/>
<path d="M220.956 53.9825C220.612 54.0457 220.415 54.5301 220.521 55.0636C220.626 55.5901 220.991 55.9692 221.335 55.899C221.679 55.8288 221.876 55.3514 221.77 54.8179C221.679 54.2984 221.3 53.9193 220.956 53.9825Z" fill="#263238"/>
<path opacity="0.9" d="M212.281 57.8006L216.711 56.8037L216.781 58.6852L212.667 59.668L212.281 57.8006Z" fill="white"/>
<g opacity="0.8">
<path opacity="0.9" d="M218.059 56.509L218.585 58.236L224.272 57.0145L223.935 55.0137L218.059 56.509Z" fill="white"/>
</g>
<path d="M216.739 57.4986L216.711 56.8036L218.059 56.5088L218.262 57.1617L216.739 57.4986Z" fill="#263238"/>
<path d="M215.121 128.741C215.121 128.741 223.117 131.837 224.943 132.448C227.098 133.164 229.281 133.887 231.528 133.957C233.774 134.028 236.126 133.361 237.755 131.634C239.664 129.598 240.254 126.509 240.752 123.61C242.22 115.094 243.687 106.578 245.147 98.0625C245.87 93.8644 247.695 87.5531 247.541 85.1522C247.253 80.7294 244.438 75.5133 237.27 72.6349C234.483 71.5187 231.738 71.9469 229.386 74.7551C227.982 76.4329 223.896 80.4556 222.893 87.5531C222.085 93.2396 220.843 100.604 220.92 106.382C221.018 113.964 217.999 123.539 215.121 128.734V128.741Z" fill="#263238"/>
<path d="M247.156 82.8211C247.97 90.2205 243.878 108.874 243.091 109.997C239.736 120.822 230.525 114.988 229.184 114.49C226.86 113.633 224.495 111.955 222.283 110.839C217.994 108.712 213.929 106.992 209.941 104.338L212.188 99.9015C216.555 101.397 228.938 104.591 230.974 105.09C231.859 105.321 235.306 107.132 235.271 104.746C235.762 103.952 236.436 88.5005 237.917 83.0457C238.086 82.4279 238.381 81.8663 238.781 81.3679L238.914 81.1994C241.308 78.2017 246.082 79.1494 247.156 82.8281V82.8211Z" fill="#263238"/>
<path opacity="0.1" d="M247.156 82.8211C247.97 90.2205 243.878 108.874 243.091 109.997C239.736 120.822 230.525 114.988 229.184 114.49C226.86 113.633 224.495 111.955 222.283 110.839C217.994 108.712 213.929 106.992 209.941 104.338L212.188 99.9015C216.555 101.397 228.938 104.591 230.974 105.09C231.859 105.321 235.306 107.132 235.271 104.746C235.762 103.952 236.436 88.5005 237.917 83.0457C238.086 82.4279 238.381 81.8663 238.781 81.3679L238.914 81.1994C241.308 78.2017 246.082 79.1494 247.156 82.8281V82.8211Z" fill="white"/>
<path d="M210.427 110.762H189.654L187.281 83.6494H208.061L210.427 110.762Z" fill="#263238"/>
<path opacity="0.5" d="M210.427 110.762H189.654L187.281 83.6494H208.061L210.427 110.762Z" fill="white"/>
<path d="M209.696 110.628H188.916L186.543 83.5088H207.323L209.696 110.628Z" fill="#0A97D9"/>
<path opacity="0.8" d="M209.696 110.628H188.916L186.543 83.5088H207.323L209.696 110.628Z" fill="white"/>
<path d="M201.453 85.2082H192.713L192.418 81.8174H201.158L201.453 85.2082Z" fill="#0A97D9"/>
<path d="M192.418 81.8173L193.274 81.5225H202.324L202.45 82.9616L201.776 83.7409L201.734 84.9203L201.453 85.2081L201.158 81.8173H192.418Z" fill="#0A97D9"/>
<path opacity="0.5" d="M192.418 81.8173L193.274 81.5225H202.324L202.45 82.9616L201.776 83.7409L201.734 84.9203L201.453 85.2081L201.158 81.8173H192.418Z" fill="black"/>
<path d="M213.847 101.37L214.324 103.904C213.201 106.824 206.756 106.052 206.756 106.052L206.742 98.5615L212.422 99.8813C213.145 100.05 213.699 100.633 213.84 101.363L213.847 101.37Z" fill="#FFC3BD"/>
<path d="M206.74 98.5684L206.775 106.073L201.067 106.214L199.762 99.6074L206.74 98.5684Z" fill="#FFC3BD"/>
<path d="M228.449 159.526L230.618 127.906C230.927 123.441 233.103 119.721 236.122 117.959C238.025 116.456 240.32 115.53 242.798 115.368C243.058 115.34 243.311 115.333 243.571 115.333C245.578 115.333 247.481 115.838 249.173 116.758C249.229 116.779 249.278 116.814 249.334 116.842C251.082 117.811 252.613 119.194 253.799 120.893C255.463 123.301 256.46 126.299 256.46 129.556C256.46 136.584 251.834 142.431 245.761 143.576L243.416 177.779C243.213 180.692 241.303 182.918 239.007 182.918H227.234L228.449 159.519V159.526Z" fill="#0A97D9"/>
<path opacity="0.1" d="M228.449 159.526L230.618 127.906C230.927 123.441 233.103 119.721 236.122 117.959C238.025 116.456 240.32 115.53 242.798 115.368C243.058 115.34 243.311 115.333 243.571 115.333C245.578 115.333 247.481 115.838 249.173 116.758C249.229 116.779 249.278 116.814 249.334 116.842C251.082 117.811 252.613 119.194 253.799 120.893C255.463 123.301 256.46 126.299 256.46 129.556C256.46 136.584 251.834 142.431 245.761 143.576L243.416 177.779C243.213 180.692 241.303 182.918 239.007 182.918H227.234L228.449 159.519V159.526Z" fill="white"/>
<path d="M121.319 12.5481V41.9001C121.319 43.4305 120.077 44.6731 118.546 44.6731H88.4501L77.709 52.9781C77.358 53.2449 76.9228 53.3923 76.4805 53.3923C75.3432 53.3923 74.4235 52.4727 74.4235 51.3354V44.6731H72.7457C71.2153 44.6731 69.9727 43.4305 69.9727 41.9001V12.5411C69.9727 11.0176 71.2223 9.78207 72.7457 9.78909H118.56C120.084 9.78909 121.319 11.0247 121.319 12.5481Z" stroke="#0A97D9" stroke-miterlimit="10"/>
<path d="M93.1653 5.65332H87.4297V6.35535H93.1653V5.65332Z" fill="#0A97D9"/>
<path d="M66.3348 13.9234H65.6328V10.4624C65.6328 7.80172 67.7951 5.64648 70.4558 5.64648H83.2538V6.34852H70.4558C68.1812 6.34852 66.3419 8.18784 66.3348 10.4624V13.9234Z" fill="#0A97D9"/>
<path d="M106.904 31.2921C105.613 31.2921 104.574 30.2039 104.686 28.9192C104.686 28.9122 104.686 28.8982 104.686 28.8911C105.437 20.3334 112.219 19.5471 113.068 9.80989C113.314 7.0158 112.289 5.94871 110.33 5.94871C108.372 5.94871 107.157 7.00878 106.918 9.80989L106.778 11.4175C106.645 12.9129 105.395 14.0642 103.893 14.0642C102.194 14.0642 100.86 12.604 101.007 10.9121L101.07 10.203C101.618 3.93388 105.009 0.353516 110.997 0.353516C116.986 0.353516 119.744 3.93388 119.197 10.203C118.305 20.3895 110.899 21.9551 110.267 29.1158C110.267 29.1509 110.267 29.186 110.26 29.2211C110.169 30.3865 109.214 31.2991 108.042 31.2991H106.911L106.904 31.2921ZM109.944 37.2453V37.2664C109.811 38.7898 108.533 39.9622 107.003 39.9622C105.269 39.9622 103.907 38.4739 104.061 36.7539V36.7328C104.194 35.2094 105.472 34.037 107.003 34.037C108.737 34.037 110.099 35.5253 109.944 37.2453Z" fill="#0A97D9"/>
<path d="M98.9915 24.4195H82.8728C82.1006 24.4195 81.4688 23.7876 81.4688 23.0154C81.4688 22.2432 82.1006 21.6113 82.8728 21.6113H98.9915C99.7637 21.6113 100.396 22.2432 100.396 23.0154C100.396 23.7876 99.7637 24.4195 98.9915 24.4195Z" fill="#0A97D9"/>
<path d="M96.759 29.9722H82.8728C82.1006 29.9722 81.4688 29.3404 81.4688 28.5681C81.4688 27.7959 82.1006 27.1641 82.8728 27.1641H96.759C97.5313 27.1641 98.1631 27.7959 98.1631 28.5681C98.1631 29.3404 97.5313 29.9722 96.759 29.9722Z" fill="#0A97D9"/>
<path d="M94.5266 35.5327H82.8728C82.1006 35.5327 81.4688 34.9009 81.4688 34.1287C81.4688 33.3564 82.1006 32.7246 82.8728 32.7246H94.5266C95.2988 32.7246 95.9306 33.3564 95.9306 34.1287C95.9306 34.9009 95.2988 35.5327 94.5266 35.5327Z" fill="#0A97D9"/>
<path d="M61.4926 150.083H51.2289C48.7367 150.083 46.7148 151.663 46.7148 153.607V159.673C46.7148 161.618 48.7367 163.197 51.2289 163.197H61.4926V150.076V150.083Z" fill="#0A97D9"/>
<path d="M13.8237 178.649L10.2574 121.882C8.93051 100.8 25.674 82.9688 46.8052 82.9688C66.2234 82.9688 82.2718 98.1326 83.36 117.523L87.1018 183.823H19.3417C16.4212 183.823 14.0132 181.555 13.8307 178.642L13.8237 178.649Z" fill="#0A97D9"/>
<path opacity="0.1" d="M13.6903 176.592L10.2574 121.882C8.93051 100.8 25.674 82.9688 46.8052 82.9688C66.2234 82.9688 82.2718 98.1326 83.36 117.523L87.1018 183.823H21.3986C17.3268 183.823 13.95 180.657 13.6973 176.585L13.6903 176.592Z" fill="black"/>
<path d="M24.8185 183.823L20.9292 121.882C19.6024 100.8 36.3459 82.9688 57.477 82.9688C76.8952 82.9688 92.9437 98.1326 94.0318 117.523L97.7737 183.823H24.8255H24.8185Z" fill="#0A97D9"/>
<path d="M23.6495 194.486H22.7158C22.2384 194.486 21.7962 194.086 21.7189 193.531L20.3359 183.822H26.0294L24.6464 193.531C24.5692 194.079 24.1269 194.486 23.6495 194.486Z" fill="#0A97D9"/>
<path opacity="0.7" d="M23.6495 194.486H22.7158C22.2384 194.486 21.7962 194.086 21.7189 193.531L20.3359 183.822H26.0294L24.6464 193.531C24.5692 194.079 24.1269 194.486 23.6495 194.486Z" fill="white"/>
<path d="M115.372 194.486H114.522C114.087 194.486 113.687 194.086 113.617 193.531L112.367 183.822H117.527L116.278 193.531C116.207 194.079 115.807 194.486 115.372 194.486Z" fill="#0A97D9"/>
<path opacity="0.5" d="M115.372 194.486H114.522C114.087 194.486 113.687 194.086 113.617 193.531L112.367 183.822H117.527L116.278 193.531C116.207 194.079 115.807 194.486 115.372 194.486Z" fill="white"/>
<path d="M88.9695 194.486H88.1201C87.6848 194.486 87.2847 194.086 87.2145 193.531L85.9648 183.822H91.1248L89.8752 193.531C89.805 194.079 89.4048 194.486 88.9695 194.486Z" fill="#0A97D9"/>
<path opacity="0.7" d="M88.9695 194.486H88.1201C87.6848 194.486 87.2847 194.086 87.2145 193.531L85.9648 183.822H91.1248L89.8752 193.531C89.805 194.079 89.4048 194.486 88.9695 194.486Z" fill="white"/>
<path d="M52.0831 194.486H51.1494C50.672 194.486 50.2298 194.086 50.1525 193.531L48.7695 183.822H54.463L53.08 193.531C53.0028 194.079 52.5605 194.486 52.0831 194.486Z" fill="#0A97D9"/>
<path opacity="0.5" d="M52.0831 194.486H51.1494C50.672 194.486 50.2298 194.086 50.1525 193.531L48.7695 183.822H54.463L53.08 193.531C53.0028 194.079 52.5605 194.486 52.0831 194.486Z" fill="white"/>
<path d="M82.9961 160.431H107.96L109.617 136.366L109.968 131.199L110.13 128.812C110.179 128.173 110.256 127.555 110.375 126.951C110.403 126.818 110.439 126.678 110.467 126.537C110.481 126.432 110.509 126.334 110.544 126.235C111.253 123.708 112.587 121.482 114.349 119.777C116.455 117.734 119.158 116.442 122.141 116.259H98.6655C98.4057 116.245 98.153 116.238 97.8932 116.238C94.6358 116.238 91.6592 117.579 89.3846 119.777C87.6225 121.482 86.2956 123.708 85.5796 126.235C85.5445 126.334 85.5164 126.432 85.5023 126.537C85.3409 127.267 85.2215 128.025 85.1724 128.812L85.0109 131.192L83.0031 160.431H82.9961Z" fill="#0A97D9"/>
<path opacity="0.1" d="M82.9961 160.431H107.96L109.617 136.366L109.968 131.199L110.13 128.812C110.179 128.173 110.256 127.555 110.375 126.951C110.403 126.818 110.439 126.678 110.467 126.537C110.481 126.432 110.509 126.334 110.544 126.235C111.253 123.708 112.587 121.482 114.349 119.777C116.455 117.734 119.158 116.442 122.141 116.259H98.6655C98.4057 116.245 98.153 116.238 97.8932 116.238C94.6358 116.238 91.6592 117.579 89.3846 119.777C87.6225 121.482 86.2956 123.708 85.5796 126.235C85.5445 126.334 85.5164 126.432 85.5023 126.537C85.3409 127.267 85.2215 128.025 85.1724 128.812L85.0109 131.192L83.0031 160.431H82.9961Z" fill="black"/>
<g opacity="0.1">
<path d="M63.2103 147.612H53.1853C50.7493 147.612 48.7695 149.157 48.7695 151.059V156.991C48.7695 158.894 50.7422 160.438 53.1853 160.438H63.2103V147.612Z" fill="black"/>
</g>
<path d="M104.146 147.612H59.9886C57.8872 147.612 56.1836 149.316 56.1836 151.417V156.633C56.1836 158.735 57.8872 160.438 59.9886 160.438H104.146C106.248 160.438 107.951 158.735 107.951 156.633V151.417C107.951 149.316 106.248 147.612 104.146 147.612Z" fill="#0A97D9"/>
<path d="M0.00701914 130.461C0.00701914 137.489 5.10377 143.337 11.8082 144.481L14.3917 178.684C14.6163 181.59 16.7224 183.823 19.2497 183.823H46.7834C44.2561 183.823 42.15 181.597 41.9254 178.684L40.5424 160.424L39.3419 144.474C34.884 143.709 31.1422 140.88 29.1343 136.99C29.001 136.745 28.8816 136.485 28.7693 136.218C27.976 134.456 27.5407 132.511 27.5407 130.454C27.5407 129.458 27.646 128.489 27.8426 127.555C27.9198 127.176 28.0111 126.79 28.1164 126.425C28.6219 124.726 29.4292 123.167 30.4822 121.798H30.4893C31.795 120.085 33.4799 118.702 35.4105 117.741C37.3271 116.779 39.4823 116.238 41.7639 116.238H14.2302C12.77 116.238 11.3589 116.463 10.025 116.877C9.28087 117.109 8.55777 117.404 7.86978 117.748C5.93919 118.709 4.26133 120.092 2.94853 121.798H2.94151C1.10219 124.206 0 127.204 0 130.461H0.00701914Z" fill="#0A97D9"/>
<path opacity="0.1" d="M0.00701914 130.461C0.00701914 137.489 5.10377 143.337 11.8082 144.481L14.3917 178.684C14.6163 181.59 16.7224 183.823 19.2497 183.823H46.7834C44.2561 183.823 42.15 181.597 41.9254 178.684L40.5424 160.424L39.3419 144.474C34.884 143.709 31.1422 140.88 29.1343 136.99C29.001 136.745 28.8816 136.485 28.7693 136.218C27.976 134.456 27.5407 132.511 27.5407 130.454C27.5407 129.458 27.646 128.489 27.8426 127.555C27.9198 127.176 28.0111 126.79 28.1164 126.425C28.6219 124.726 29.4292 123.167 30.4822 121.798H30.4893C31.795 120.085 33.4799 118.702 35.4105 117.741C37.3271 116.779 39.4823 116.238 41.7639 116.238H14.2302C12.77 116.238 11.3589 116.463 10.025 116.877C9.28087 117.109 8.55777 117.404 7.86978 117.748C5.93919 118.709 4.26133 120.092 2.94853 121.798H2.94151C1.10219 124.206 0 127.204 0 130.461H0.00701914Z" fill="black"/>
<path d="M27.5391 130.469C27.5391 137.496 32.1655 143.344 38.238 144.488L40.5828 178.691C40.7864 181.605 42.6959 183.83 44.9916 183.83H118.522C120.811 183.83 122.721 181.598 122.931 178.691L125.283 144.432C131.236 143.182 135.736 137.405 135.736 130.469C135.736 127.401 134.852 124.565 133.363 122.248C132.142 120.352 130.506 118.794 128.604 117.748C126.87 116.779 124.911 116.238 122.84 116.238C119.583 116.238 116.606 117.579 114.331 119.777C112.569 121.476 111.242 123.708 110.526 126.235C110.498 126.334 110.463 126.432 110.456 126.537C110.288 127.267 110.182 128.026 110.126 128.805L109.958 131.185L107.957 160.424H55.5572L53.3879 128.805C53.079 124.34 50.9027 120.619 47.884 118.857C45.9815 117.355 43.6858 116.428 41.2076 116.267C40.9479 116.238 40.6951 116.231 40.4354 116.231C38.4276 116.231 36.5251 116.737 34.8332 117.657C34.777 117.678 34.7279 117.713 34.6717 117.741C32.9236 118.71 31.3932 120.093 30.2068 121.792C28.543 124.2 27.5461 127.197 27.5461 130.455L27.5391 130.469Z" fill="#0A97D9"/>
<path opacity="0.1" d="M56.7653 183.83H118.516C120.805 183.83 122.714 181.597 122.925 178.691L125.277 144.432C131.23 143.182 135.73 137.405 135.73 130.468C135.73 127.401 134.845 124.564 133.357 122.248C132.135 120.352 130.5 118.794 128.597 117.748C126.863 116.779 124.905 116.238 122.834 116.238C119.576 116.238 116.6 117.579 114.325 119.777C112.563 121.475 111.236 123.708 110.52 126.235C110.492 126.333 110.457 126.432 110.45 126.537C110.281 127.267 110.176 128.025 110.12 128.805L109.951 131.185L107.95 160.424H55.5508L56.7653 183.823V183.83Z" fill="white"/>
<path d="M75.5703 195.912L81.5586 197.569L86.9362 183.493L80.9479 181.829L75.5703 195.912Z" fill="#FFC3BD"/>
<path d="M84.2413 195.701C83.778 195.083 83.083 194.683 82.3248 194.536L76.1539 193.335C75.8661 193.265 75.5782 193.434 75.487 193.714L73.5774 199.338C73.3528 199.976 73.6898 200.686 74.3286 200.91C74.3427 200.91 74.3567 200.917 74.3707 200.924C76.6453 201.823 78.1828 201.514 81.7421 202.202C83.9324 202.63 88.5378 204.083 91.6127 203.964C94.6876 203.838 94.6805 200.798 93.3888 200.573C88.7975 199.85 85.2873 197.098 84.2413 195.708V195.701Z" fill="#263238"/>
<g opacity="0.2">
<path d="M86.9372 183.493L84.1641 190.752L78.1758 189.088L80.9418 181.829L86.9372 183.493Z" fill="black"/>
</g>
<path d="M66.9484 130.097C66.9484 130.097 103.005 129.9 101.874 141.975C101.116 150.125 97.1989 158.704 94.1451 166.981C89.7153 178.979 85.8822 189.425 85.8822 189.425L77.6684 186.582C77.6684 186.582 85.0468 151.888 90.0172 148.335H59.5349C49.4467 148.335 45.0871 137.257 54.9085 124.34C60.9109 124.34 66.9554 130.089 66.9554 130.089L66.9484 130.097Z" fill="#0A97D9"/>
<path opacity="0.6" d="M66.9484 130.096C66.9484 130.096 103.005 129.9 101.874 141.975C102.436 149.472 85.8822 189.432 85.8822 189.432L77.6684 186.589C77.6684 186.589 85.0468 151.894 90.0172 148.342H59.5349C49.4467 148.342 45.0871 137.264 54.9085 124.347C60.9109 124.347 66.9554 130.096 66.9554 130.096H66.9484Z" fill="black"/>
<path d="M92.3738 108.143C87.937 112.201 79.2248 102.604 77.8207 101.467C74.816 99.0169 65.9774 90.768 66.4478 87.9037C67.8237 79.4723 81.6678 91.4139 85.6554 99.6417L92.3738 108.143Z" fill="#263238"/>
<path d="M53.5448 82.7936C51.3194 83.264 48.9114 82.4636 47.3529 84.1134C45.7874 85.7632 45.1345 88.0799 44.9028 90.3475C44.5869 93.4926 44.9871 96.6587 45.3942 99.7968C45.8857 103.595 46.3701 107.4 46.8615 111.198C47.1985 113.795 47.037 118.022 46.5035 120.584V120.605C46.3701 121.258 46.7492 121.974 47.3599 122.241C47.3599 122.241 64.6229 122.838 69.6424 122.648C72.3102 122.55 70.4779 115.529 71.2992 111.437C71.4818 110.531 73.2649 106.775 73.5317 105.813C74.7743 101.285 73.9529 98.1681 72.8016 93.6189C71.9662 90.3124 71.6222 85.5456 69.9373 85.1805C66.9396 84.5276 59.7438 81.4808 53.5448 82.8006V82.7936Z" fill="#0A97D9"/>
<path opacity="0.8" d="M53.5448 82.7936C51.3194 83.264 48.9114 82.4636 47.3529 84.1134C45.7874 85.7632 45.1345 88.0799 44.9028 90.3475C44.5869 93.4926 44.9871 96.6587 45.3942 99.7968C45.8857 103.595 46.3701 107.4 46.8615 111.198C47.1985 113.795 47.037 118.022 46.5035 120.584V120.605C46.3701 121.258 46.7492 121.974 47.3599 122.241C47.3599 122.241 64.6229 122.838 69.6424 122.648C72.3102 122.55 70.4779 115.529 71.2992 111.437C71.4818 110.531 73.2649 106.775 73.5317 105.813C74.7743 101.285 73.9529 98.1681 72.8016 93.6189C71.9662 90.3124 71.6222 85.5456 69.9373 85.1805C66.9396 84.5276 59.7438 81.4808 53.5448 82.8006V82.7936Z" fill="white"/>
<path d="M51.0802 86.0292C50.8485 85.6782 44.7829 80.5674 43.6737 86.4715C42.1363 94.6923 45.3165 102.78 45.3165 102.78C45.3165 102.78 46.0466 111.674 48.6301 112.566C51.2135 113.458 53.6707 113.675 54.5412 112.152C55.4117 110.628 55.4117 108.354 55.4117 108.354C55.4117 108.354 55.1028 92.172 51.0802 86.0292Z" fill="#263238"/>
<path d="M55.2859 71.5119C55.9177 75.2959 56.4442 82.2109 53.7344 84.6469C53.7344 84.6469 60.3475 88.1079 64.6791 94.1454C67.1853 92.1657 67.1994 89.6524 66.6869 87.7569C66.2867 86.2897 65.2337 85.1243 63.8998 84.3942C61.3304 82.9831 61.5761 80.3364 62.2851 77.8513L55.2859 71.5049V71.5119Z" fill="#E8BFBF"/>
<path opacity="0.2" d="M56.1484 77.9348L58.6126 78.8825C59.6656 79.2897 60.7959 79.4722 61.9262 79.416C61.863 79.9636 61.6453 81.1079 61.9262 81.7538C60.4028 82.3084 57.9878 81.5783 57.026 80.1813C56.6258 79.6337 56.331 78.5806 56.1484 77.9277V77.9348Z" fill="black"/>
<path d="M117.318 183.801H124.03L117.002 166.974L112.453 174.703L117.318 183.801Z" fill="#FFC3BD"/>
<path d="M123.473 182.215L115.603 180.425C115.323 180.348 115.035 180.502 114.944 180.776L112.746 186.828C112.564 187.467 112.929 188.14 113.568 188.323C113.582 188.323 113.596 188.33 113.603 188.33C116.362 188.906 117.717 189.046 121.178 189.832C123.312 190.317 128.703 191.735 131.638 192.402C134.579 193.069 135.352 190.19 134.179 189.643C128.928 187.214 126.085 184.89 124.561 182.91C124.288 182.559 123.902 182.307 123.466 182.208L123.473 182.215Z" fill="#263238"/>
<g opacity="0.2">
<path d="M117.002 166.98L119.993 174.148L113.955 177.518L112.453 174.71L117.002 166.98Z" fill="black"/>
</g>
<path d="M46.3691 122.296L45.6461 124.585C45.5478 124.76 45.7514 124.95 46.0532 124.957L72.0565 125.743C72.2882 125.743 72.4848 125.645 72.5058 125.49L72.8077 123.195C72.8077 123.033 72.6322 122.893 72.3794 122.886L46.8255 122.114C46.65 122.085 46.4815 122.156 46.3691 122.296Z" fill="#263238"/>
<path d="M78.8602 141.076C70.3165 144.719 61.0426 148.356 56.009 148.356C45.9138 148.356 36.9489 141.069 46.5105 124.494C52.5129 124.473 62.9521 124.662 62.9521 124.662C62.9521 124.662 82.6371 119.074 96.9165 120.703C103.881 121.496 109.511 126.726 110.88 133.599C114.502 151.838 120.084 171.593 120.084 171.593L112.902 176.479C112.902 176.479 101.704 152.933 95.2597 134.252C91.8548 135.34 85.5857 138.205 78.8672 141.069L78.8602 141.076Z" fill="#0A97D9"/>
<path opacity="0.5" d="M110.88 133.606C109.511 126.733 103.881 121.503 96.9168 120.71C82.6375 119.081 62.9525 124.669 62.9525 124.669C62.9525 124.669 52.5133 124.48 46.5109 124.501C36.7948 141.019 45.9212 148.363 56.0094 148.363C61.05 148.363 70.3168 144.719 78.8606 141.083C85.579 138.218 91.8482 135.361 95.253 134.266C101.698 152.947 112.895 176.493 112.895 176.493L120.077 171.607C120.077 171.607 114.496 151.852 110.873 133.613L110.88 133.606Z" fill="black"/>
<path d="M101.882 141.975C101.671 144.221 101.306 146.566 100.829 148.96C100.794 148.883 100.766 148.813 100.738 148.743C100.724 148.721 100.724 148.707 100.709 148.686C100.674 148.609 100.653 148.532 100.618 148.462C98.7017 143.716 96.8413 138.851 95.2617 134.267C95.2758 134.267 95.2898 134.281 95.3109 134.281C99.4248 136.022 102.212 138.479 101.882 141.975Z" fill="#0A97D9"/>
<path opacity="0.6" d="M101.882 141.975C101.671 144.221 101.306 146.566 100.829 148.96C100.794 148.883 100.766 148.813 100.738 148.743C100.724 148.721 100.724 148.707 100.709 148.686C100.674 148.609 100.653 148.532 100.618 148.462C98.7017 143.716 96.8413 138.851 95.2617 134.267C95.2758 134.267 95.2898 134.281 95.3109 134.281C99.4248 136.022 102.212 138.479 101.882 141.975Z" fill="black"/>
<path d="M50.6779 67.8748C52.784 73.8069 53.5492 76.3623 57.4946 78.5878C63.4408 81.9435 70.2506 78.0402 69.9557 71.5955C69.6889 65.7967 66.2841 57.0634 59.685 56.3614C54.9673 55.8349 50.72 59.2327 50.1935 63.9434C50.0461 65.2702 50.2075 66.6181 50.6709 67.8677L50.6779 67.8748Z" fill="#E8BFBF"/>
<path d="M61.3434 67.1021C61.4908 67.6216 61.8629 67.9235 62.1858 67.8252C62.5087 67.7269 62.6351 67.2636 62.5087 66.7651C62.3824 66.2667 61.9963 65.9508 61.6663 66.042C61.3434 66.1333 61.203 66.6107 61.3434 67.1021Z" fill="#263238"/>
<path d="M66.8542 65.3619C66.9946 65.8814 67.3737 66.1833 67.6896 66.085C68.0055 65.9867 68.1389 65.5233 68.0125 65.0249C67.8862 64.5265 67.5 64.2105 67.1771 64.3018C66.8542 64.3931 66.7068 64.8705 66.8542 65.3619Z" fill="#263238"/>
<path d="M67.0352 64.3782L68.1163 63.6973C68.1163 63.6973 67.7863 64.7924 67.0352 64.3782Z" fill="#263238"/>
<path d="M64.8828 66.4844C65.641 67.4813 66.5326 68.3658 67.5365 69.124C67.0661 69.9103 65.8727 69.9314 65.8727 69.9314L64.8828 66.4844Z" fill="#ED847E"/>
<path d="M46.8041 71.8268C47.134 72.929 47.6746 73.989 47.7799 75.1333C47.9835 77.3939 46.1441 79.6474 43.8906 79.9072C45.8282 80.4828 48.1098 79.4508 48.9593 77.6185C48.4258 79.0296 47.3236 80.2161 45.9546 80.8619C47.9062 80.897 49.8509 79.9633 51.0443 78.4118C50.7144 79.2683 50.3774 80.1178 50.0474 80.9742C51.7042 79.9774 53.0943 78.5241 54.0139 76.8182C54.393 76.1232 54.6738 75.2035 54.1824 74.5858C53.7401 74.0241 52.9117 74.0101 52.1886 73.996C51.4726 73.982 50.6161 73.8135 50.3493 73.1466C50.0966 72.5077 50.567 71.8127 51.0865 71.3564C51.606 70.9001 52.2308 70.4789 52.4203 69.8189C52.5537 69.3486 52.4414 68.8501 52.322 68.3728C52.0061 67.081 51.6902 65.7823 51.3743 64.4905C51.262 64.0342 51.1496 63.5709 50.8899 63.1847C49.4788 61.0857 47.9203 64.1676 47.4008 65.2136C46.3969 67.2425 46.1582 69.6575 46.8041 71.8338V71.8268Z" fill="#263238"/>
<path d="M50.2632 73.681C51.0565 74.72 52.2289 75.401 53.5276 75.5695C55.2476 75.7801 55.8513 74.1794 55.1634 72.6982C54.5385 71.3573 52.8958 69.6373 51.2741 70.0866C49.6524 70.5359 49.3014 72.3893 50.2702 73.681H50.2632Z" fill="#E8BFBF"/>
<path d="M61.4327 62.8623C61.4116 62.9957 61.3063 63.101 61.1729 63.1221C59.7478 63.3889 58.9545 65.0878 58.9475 65.1018C58.8773 65.2563 58.6877 65.3265 58.5333 65.2563C58.3788 65.1861 58.3086 64.9965 58.3788 64.8421C58.442 64.7789 59.3126 62.8343 61.0536 62.5043C61.2221 62.4762 61.3835 62.5885 61.4186 62.757C61.4327 62.7921 61.4397 62.8272 61.4327 62.8623Z" fill="#263238"/>
<path d="M65.1816 61.4587C65.0693 61.4446 64.971 61.4727 64.9149 61.5289C64.8376 61.6131 64.5849 61.7605 64.7253 61.8307C65.5818 62.273 66.7682 62.9821 67.6809 62.8417C67.8353 62.8136 68.2004 62.6802 68.1231 62.5679C68.0459 62.4626 67.8564 62.3994 67.7019 62.4275C66.9788 62.5328 66.01 61.8518 65.3361 61.5008C65.2869 61.4797 65.2308 61.4657 65.1746 61.4587H65.1816Z" fill="#263238"/>
<path d="M61.5312 66.1126L62.6124 65.4316C62.6124 65.4316 62.2684 66.5268 61.5312 66.1126Z" fill="#263238"/>
<path d="M61.4339 53.7427C59.0329 53.3074 58.731 53.146 56.295 53.3004C53.8589 53.4479 51.4088 54.1499 49.4923 55.6593C47.6249 57.1335 46.3753 59.2958 45.7785 61.5985C45.1818 63.9011 45.2099 66.3301 45.596 68.6749C45.7785 69.7701 46.0874 70.9425 46.9579 71.6305C47.0843 70.3738 47.2177 69.1032 47.6038 67.9027C47.9899 66.7022 48.6569 65.5509 49.6818 64.8067C50.089 64.5119 50.5734 64.2591 50.8051 63.8098C51.0087 63.4237 50.9876 62.9674 51.0578 62.5322C51.2263 61.5493 51.8932 60.7139 52.6936 60.1242C53.4939 59.5345 54.4276 59.1554 55.3402 58.7622C58.2958 57.4845 61.5181 56.7614 64.242 55.0485C63.568 54.4658 61.4268 53.7357 61.4268 53.7357L61.4339 53.7427Z" fill="#263238"/>
<path d="M49.1844 63.1363C49.8232 63.9085 50.7148 64.4701 51.6907 64.6948C52.856 64.9615 55.7695 64.8984 55.945 64.5895C56.1556 64.2244 55.0885 61.0161 53.9091 60.8196C54.7726 61.5427 55.6712 62.2868 56.7593 62.5887C57.8475 62.8906 59.6798 62.7431 60.4099 62.5746C61.0207 62.4342 59.6447 59.8788 58.6408 59.1487C61.6665 59.7806 64.8608 60.5036 67.0932 62.6448C69.3889 64.8492 70.2313 68.219 70.119 71.3922C71.158 70.5778 71.7758 69.258 71.7407 67.9382C72.8218 71.2096 72.4919 74.9234 70.8491 77.9562C74.0714 75.3165 75.2719 70.7042 74.4225 66.6254C73.573 62.5466 70.9263 59.0153 67.6759 56.4108C64.8959 54.1854 61.5261 52.5215 57.9668 52.4373C53.2702 52.325 44.6212 57.6394 49.1844 63.1363Z" fill="#263238"/>
<path d="M52.9704 81.9013C52.9985 81.6696 53.0266 81.3677 53.0547 81.0378C53.1811 79.5003 52.128 78.1173 50.6186 77.8435C50.6046 77.8435 50.5906 77.8435 50.5835 77.8435C50.1413 77.7593 49.7762 77.4504 49.6288 77.0292C49.0812 75.4566 48.8776 74.9792 48.3511 73.4347C46.933 73.0908 45.2621 73.6173 43.7879 73.7717C43.3807 75.5268 43.3526 77.3661 43.7106 79.1352C43.7879 79.5284 43.8932 79.9356 44.1599 80.2374C44.4267 80.5393 47.291 82.5612 48.5406 82.9332C49.8394 83.3194 51.6225 82.0417 52.9775 81.9153L52.9704 81.9013Z" fill="#E8BFBF"/>
<path d="M48.7156 82.9618C48.7156 82.9618 44.8474 107.919 48.835 111.717C51.1798 113.949 53.1946 112.721 54.4653 111.324C55.406 110.285 55.8342 108.874 55.6868 107.477L52.9699 81.9017C52.9699 81.9017 50.2882 80.3432 48.7156 82.9618Z" fill="#E8BFBF"/>
<path d="M90.2755 105.477C91.827 104.283 93.2029 101.805 93.5469 100.232C93.6593 99.7269 93.7014 98.9687 93.6873 98.0491C93.6522 93.528 92.3745 85.237 92.3745 85.237L88.7029 84.0225C88.7029 84.0225 87.5586 90.3267 87.3059 93.7947C87.2567 94.4757 87.1795 95.276 87.0953 96.1255C86.9338 97.67 86.7302 99.3689 86.5547 100.78L90.2684 105.477H90.2755Z" fill="#E8BFBF"/>
<path d="M92.3757 108.144C93.499 107.112 93.6955 105.863 94.2782 103.202C94.8328 100.689 94.208 97.6138 93.6885 98.056C93.6394 98.0911 93.5902 98.1684 93.5481 98.2737C92.6565 100.38 89.1885 98.5334 88.2056 97.4804C87.8195 97.0662 87.3632 96.6099 87.1035 96.1325C86.8648 95.7042 86.7875 95.269 87.0754 94.8548C86.0083 94.4125 85.1518 98.6107 85.6643 99.6426L85.924 100.422C86.3453 101.686 87.0052 102.865 87.8546 103.89L89.7852 106.214L92.3827 108.144H92.3757Z" fill="#263238"/>
<path d="M88.6063 84.5697L88.1641 78.1602C88.1641 78.1602 88.9152 78.5744 91.7093 79.5221C93.4995 80.1329 95.9005 79.0588 95.3669 80.2171C94.4964 82.1056 92.3763 85.2437 92.3763 85.2437L88.6063 84.5697Z" fill="#E8BFBF"/>
<path d="M88.1719 78.1531L90.9098 71.7295L94.5042 73.9269C95.4941 76.0751 95.3747 80.21 95.3747 80.21C95.3747 80.21 90.3973 80.4347 88.1719 78.1531Z" fill="#E8BFBF"/>
<path d="M64.4631 73.2038C64.5543 73.6601 64.8843 73.983 65.1792 73.9199C65.481 73.8567 65.6355 73.4355 65.5372 72.9721C65.4389 72.5088 65.116 72.1999 64.8211 72.2631C64.5193 72.3263 64.3648 72.7685 64.4631 73.2038Z" fill="#263238"/>
<path d="M55.558 160.431L53.3887 128.812C53.0798 124.347 50.9035 120.626 47.8847 118.864C45.9822 117.362 43.6866 116.435 41.2084 116.273C40.9487 116.245 40.6959 116.238 40.4362 116.238C38.4284 116.238 36.5259 116.744 34.834 117.663C34.7778 117.684 34.7287 117.72 34.6725 117.748C32.9244 118.716 31.394 120.099 30.2076 121.798C28.5438 124.206 27.5469 127.204 27.5469 130.461C27.5469 137.489 32.1733 143.337 38.2458 144.481L40.5906 178.684C40.7942 181.597 42.7037 183.823 44.9994 183.823H56.7725L55.558 160.424V160.431Z" fill="#0A97D9"/>
<path opacity="0.1" d="M55.558 160.431L53.3887 128.812C53.0798 124.347 50.9035 120.626 47.8847 118.864C45.9822 117.362 43.6866 116.435 41.2084 116.273C40.9487 116.245 40.6959 116.238 40.4362 116.238C38.4284 116.238 36.5259 116.744 34.834 117.663C34.7778 117.684 34.7287 117.72 34.6725 117.748C32.9244 118.716 31.394 120.099 30.2076 121.798C28.5438 124.206 27.5469 127.204 27.5469 130.461C27.5469 137.489 32.1733 143.337 38.2458 144.481L40.5906 178.684C40.7942 181.597 42.7037 183.823 44.9994 183.823H56.7725L55.558 160.424V160.431Z" fill="white"/>
</svg>
