<svg width="244" height="250" viewBox="0 0 244 250" fill="none" xmlns="http://www.w3.org/2000/svg">
<g clip-path="url(#clip0_5706_15509)">
<path d="M207.056 134.742C252.692 161.09 252.692 203.811 207.056 230.159C161.421 256.507 87.4231 256.507 41.7878 230.159C-10.5191 199.959 0.837037 158.381 41.7878 134.742C87.4231 108.395 161.421 108.395 207.056 134.742Z" fill="#F5F5F5"/>
<path d="M186.344 180.006L109.016 224.653L31.6875 180.006L109.016 135.364L186.344 180.006Z" fill="#E0E0E0"/>
<path d="M53.9988 178.963L0.964844 209.623L10.0342 214.857L22.1951 207.83L43.3143 220.025L31.1534 227.051L39.0627 231.619L92.0967 200.959L53.9988 178.968V178.963ZM48.1876 217.211L27.0683 205.016L40.8666 197.046L61.9859 209.24L48.1876 217.211ZM45.1016 194.604L58.8998 186.634L80.0191 198.828L66.2208 206.798L45.1016 194.604Z" fill="#E0E0E0"/>
<path d="M233.339 185.59C246.265 193.055 246.265 205.155 233.339 212.621C220.412 220.086 199.448 220.086 186.515 212.621C173.589 205.155 173.589 193.055 186.515 185.59C199.442 178.125 220.406 178.125 233.339 185.59Z" fill="#E0E0E0"/>
<path d="M109.015 217.849L42.5273 179.457V166.402L109.015 128.016L175.504 166.402V179.462L109.015 217.849Z" fill="#0A97D9"/>
<path opacity="0.5" d="M109.015 204.789L42.5273 166.402V179.457L109.015 217.849V204.789Z" fill="white"/>
<path d="M109.015 204.789L42.5273 166.402L109.015 128.016L175.504 166.402L109.015 204.789Z" fill="#0A97D9"/>
<path opacity="0.8" d="M109.015 204.789L42.5273 166.402L109.015 128.016L175.504 166.402L109.015 204.789Z" fill="white"/>
<path opacity="0.65" d="M109.016 217.849V204.789L175.504 166.402V179.462L109.016 217.849Z" fill="white"/>
<path d="M109.016 200.659L48.8945 165.953V158.571L109.016 123.858L169.138 158.571V165.953L109.016 200.659Z" fill="#0A97D9"/>
<path opacity="0.5" d="M48.8945 158.57L109.016 193.282V200.659L48.8945 165.952V158.57Z" fill="white"/>
<path d="M109.016 193.283L48.8945 158.571L109.016 123.858L169.138 158.571L109.016 193.283Z" fill="#0A97D9"/>
<path opacity="0.8" d="M109.016 193.283L48.8945 158.571L109.016 123.858L169.138 158.571L109.016 193.283Z" fill="white"/>
<path opacity="0.65" d="M109.016 200.659V193.282L169.137 158.57V165.952L109.016 200.659Z" fill="white"/>
<path d="M136.252 135.575C121.21 126.889 96.8219 126.889 81.7803 135.575C74.2484 139.921 70.5186 145.622 70.5352 151.322C70.5352 152.487 70.5352 157.139 70.5352 158.31C70.5241 163.999 74.2595 169.694 81.7803 174.034C96.8219 182.72 121.21 182.72 136.252 174.034C143.773 169.694 147.508 163.999 147.497 158.31C147.497 157.139 147.508 152.393 147.497 151.177C147.453 145.527 143.723 139.888 136.252 135.575Z" fill="#0A97D9"/>
<path opacity="0.5" d="M136.252 135.575C121.21 126.889 96.8219 126.889 81.7803 135.575C74.2484 139.921 70.5186 145.622 70.5352 151.322C70.5352 152.487 70.5352 157.139 70.5352 158.31C70.5241 163.999 74.2595 169.694 81.7803 174.034C96.8219 182.72 121.21 182.72 136.252 174.034C143.773 169.694 147.508 163.999 147.497 158.31C147.497 157.139 147.508 152.393 147.497 151.177C147.453 145.527 143.723 139.888 136.252 135.575Z" fill="white"/>
<path d="M130.279 68.8203C136.906 69.7195 141.563 70.9239 145.309 73.9211C149.889 77.5844 155.528 86.0265 163.842 111.625C167.822 123.88 171.541 142.307 166.9 146.798C163.87 149.734 157.837 150.078 154.018 149.967C151.67 149.623 150.593 149.717 150.593 149.717L146.32 136.357L130.273 68.8203H130.279Z" fill="#0A97D9"/>
<path opacity="0.3" d="M130.279 68.8203C136.906 69.7195 141.563 70.9239 145.309 73.9211C149.889 77.5844 155.528 86.0265 163.842 111.625C167.822 123.88 171.541 142.307 166.9 146.798C163.87 149.734 157.837 150.078 154.018 149.967C151.67 149.623 150.593 149.717 150.593 149.717L146.32 136.357L130.273 68.8203H130.279Z" fill="white"/>
<path d="M147.533 147.825C147.533 121.661 146.45 125.829 145.651 108.173C144.563 84.0847 135.522 72.9284 130.277 68.8211L115.518 66.8008H92.0288C92.0288 66.8008 83.1315 68.749 73.2518 72.0792C73.2518 72.0792 63.5886 97.0116 67.7458 116.299C68.7005 120.739 69.6163 130.664 70.3212 140.055C71.0316 149.524 70.743 137.89 70.5599 146.615C69.9882 152.704 73.7236 158.898 81.7772 163.55C96.8188 172.236 121.207 172.236 136.249 163.55C143.77 159.209 147.527 153.515 147.527 147.825H147.533Z" fill="#0A97D9"/>
<path opacity="0.1" d="M147.533 147.825C147.533 121.661 146.45 125.829 145.651 108.173C144.563 84.0847 135.522 72.9284 130.277 68.8211L115.518 66.8008H92.0288C92.0288 66.8008 83.1315 68.749 73.2518 72.0792C73.2518 72.0792 63.5886 97.0116 67.7458 116.299C68.7005 120.739 69.6163 130.664 70.3212 140.055C71.0316 149.524 70.743 137.89 70.5599 146.615C69.9882 152.704 73.7236 158.898 81.7772 163.55C96.8188 172.236 121.207 172.236 136.249 163.55C143.77 159.209 147.527 153.515 147.527 147.825H147.533Z" fill="white"/>
<path d="M140.676 139.749C138.378 136.291 139.988 131.657 139.427 127.544C139.328 126.811 139.139 126.056 138.65 125.501C138.007 124.774 136.985 124.536 136.031 124.341C129.664 123.037 123.298 121.733 116.932 120.428C111.842 119.385 104.749 119.451 101.235 115.2C99.2038 112.741 98.571 109.439 98.1437 106.28C97.5054 101.54 97.1723 96.7615 97.1723 91.9826C97.1723 88.4303 97.4166 84.706 99.2759 81.6811C101.08 78.7449 104.16 76.8744 107.124 75.115L105.692 66.7949H92.0327C92.0327 66.7949 83.1354 68.7431 73.2557 72.0733C73.2557 72.0733 63.5925 97.0057 67.7497 116.293C68.7044 120.734 69.6202 130.658 70.3251 140.049C70.4861 142.158 70.5915 143.218 70.6637 143.69C70.6304 144.195 70.5971 145.083 70.5638 146.604C69.9921 152.693 73.7275 158.887 81.7811 163.538C92.8874 169.949 109.083 171.62 122.86 168.567C122.36 168.017 121.916 167.418 121.577 166.73C119.679 162.856 121.922 157.949 125.502 155.535C129.082 153.12 133.583 152.615 137.896 152.399C140.926 152.249 144.018 152.177 146.976 151.583C147.342 150.339 147.542 149.079 147.542 147.814C147.542 146.487 147.542 145.244 147.537 144.067C144.928 142.963 142.214 142.036 140.687 139.733L140.676 139.749Z" fill="#0A97D9"/>
<path d="M109.324 0.512053C102.208 0.234533 97.063 1.10595 91.9345 4.43063C87.8161 7.10037 85.2296 10.3196 84.4303 14.5379C81.5275 15.0929 79.0298 18.2678 77.9031 21.0041C76.5654 24.2622 76.0548 29.9458 77.3036 34.3916C78.8411 39.8588 81.7994 43.8107 85.1519 48.3009C85.8013 49.1723 93.8327 58.8245 93.15 59.4295C97.7346 55.3333 102.319 51.2371 106.904 47.1409C110.7 43.7496 114.497 40.3583 118.288 36.967C120.991 34.5526 124.071 32.4324 125.997 29.313C126.846 27.9421 127.951 26.721 128.722 25.2946C129.072 24.6452 130.709 21.2705 130.099 20.61C130.932 21.5147 131.531 22.6359 131.808 23.8293C133.912 18.8228 131.881 12.8173 128.14 8.88204C123.544 4.02545 116.023 0.772921 109.324 0.512053Z" fill="#0A97D9"/>
<path opacity="0.3" d="M109.324 0.512053C102.208 0.234533 97.063 1.10595 91.9345 4.43063C87.8161 7.10037 85.2296 10.3196 84.4303 14.5379C81.5275 15.0929 79.0298 18.2678 77.9031 21.0041C76.5654 24.2622 76.0548 29.9458 77.3036 34.3916C78.8411 39.8588 81.7994 43.8107 85.1519 48.3009C85.8013 49.1723 93.8327 58.8245 93.15 59.4295C97.7346 55.3333 102.319 51.2371 106.904 47.1409C110.7 43.7496 114.497 40.3583 118.288 36.967C120.991 34.5526 124.071 32.4324 125.997 29.313C126.846 27.9421 127.951 26.721 128.722 25.2946C129.072 24.6452 130.709 21.2705 130.099 20.61C130.932 21.5147 131.531 22.6359 131.808 23.8293C133.912 18.8228 131.881 12.8173 128.14 8.88204C123.544 4.02545 116.023 0.772921 109.324 0.512053Z" fill="white"/>
<path d="M129.717 51.7751C128.84 55.7881 125.666 59.6678 121.514 61.1387C118.378 62.2487 115.847 62.221 115.847 62.221L115.453 67.8269C117.068 68.887 120.798 74.3097 110.513 75.059C96.2707 76.097 89.7601 67.6826 89.7601 67.6826L90.7314 50.221C90.7314 50.221 88.378 53.5013 84.2707 51.6974C80.9904 50.2543 77.8434 45.1258 80.0913 40.5578C82.3281 36.0065 87.1514 35.3793 89.2661 38.16C90.4261 39.6808 90.5482 41.9621 92.1856 41.6346C95.8988 40.8853 94.822 34.0583 94.1615 31.05C94.1005 30.7725 94.0339 30.4727 94.1393 30.2063C94.2503 29.9121 94.539 29.7345 94.7998 29.5625C96.8202 28.2082 98.1134 25.9603 98.7184 23.6014C99.3234 21.248 99.3012 18.7781 99.1236 16.3525C102.421 17.9955 105.817 19.4996 109.397 20.3655C113.333 21.3146 117.412 21.4645 121.458 21.6143C122.824 21.6643 124.622 21.2535 125.788 22.2804C127.142 23.4792 127.669 24.9501 128.019 26.5708C128.724 29.8122 128.674 33.4255 129.257 36.6892C130.25 42.2673 130.722 47.1128 129.706 51.7696L129.717 51.7751Z" fill="#0A97D9"/>
<path opacity="0.6" d="M129.717 51.7751C128.84 55.7881 125.666 59.6678 121.514 61.1387C118.378 62.2487 115.847 62.221 115.847 62.221L115.453 67.8269C117.068 68.887 120.798 74.3097 110.513 75.059C96.2707 76.097 89.7601 67.6826 89.7601 67.6826L90.7314 50.221C90.7314 50.221 88.378 53.5013 84.2707 51.6974C80.9904 50.2543 77.8434 45.1258 80.0913 40.5578C82.3281 36.0065 87.1514 35.3793 89.2661 38.16C90.4261 39.6808 90.5482 41.9621 92.1856 41.6346C95.8988 40.8853 94.822 34.0583 94.1615 31.05C94.1005 30.7725 94.0339 30.4727 94.1393 30.2063C94.2503 29.9121 94.539 29.7345 94.7998 29.5625C96.8202 28.2082 98.1134 25.9603 98.7184 23.6014C99.3234 21.248 99.3012 18.7781 99.1236 16.3525C102.421 17.9955 105.817 19.4996 109.397 20.3655C113.333 21.3146 117.412 21.4645 121.458 21.6143C122.824 21.6643 124.622 21.2535 125.788 22.2804C127.142 23.4792 127.669 24.9501 128.019 26.5708C128.724 29.8122 128.674 33.4255 129.257 36.6892C130.25 42.2673 130.722 47.1128 129.706 51.7696L129.717 51.7751Z" fill="white"/>
<path opacity="0.6" d="M123.811 26.3602C122.551 25.8773 121.164 26.5378 120.709 27.8421L125.265 29.596C125.721 28.2917 125.071 26.843 123.817 26.3602H123.811ZM102.259 28.4305C101.188 29.2464 100.966 30.8171 101.765 31.9439L105.656 28.9911C104.857 27.8643 103.336 27.6146 102.259 28.4305ZM105.673 33.1316C104.485 33.3981 103.736 34.5747 103.996 35.7625C104.257 36.9503 104.84 34.9966 106.028 34.7357C107.216 34.4693 108.57 35.9956 108.304 34.8079C108.037 33.6201 106.86 32.8708 105.673 33.1316ZM122.657 31.744C121.441 31.7218 120.437 32.6932 120.414 33.9087C120.392 35.1242 121.414 33.3648 122.629 33.387C123.845 33.4092 124.805 35.2075 124.821 33.9864C124.844 32.7709 123.872 31.7662 122.657 31.744Z" fill="#0A97D9"/>
<path opacity="0.6" d="M115.846 62.2151C111.023 62.4427 101.848 61.3881 97.9796 57.8303C95.2599 55.3271 93.4727 50.2207 93.4727 50.2207C93.4727 50.2207 94.5772 56.9589 96.875 59.7452C99.1785 62.5315 104.346 63.858 107.465 64.3298C111.628 64.957 115.669 64.7405 115.669 64.7405L115.846 62.2206V62.2151Z" fill="#0A97D9"/>
<g opacity="0.6">
<path d="M115.923 44.6429L122.927 40.0361L113.375 31.1943L115.923 44.6429Z" fill="#0A97D9"/>
<path d="M115.552 49.0946C115.457 49.1057 115.363 49.1168 115.269 49.1334C115.108 49.1612 114.941 49.1945 114.78 49.2167C114.492 49.2611 114.197 49.2833 113.909 49.2889C113.298 49.3055 112.682 49.2445 112.094 49.089C111.583 48.9558 111.095 48.756 110.64 48.5007C110.162 48.2343 109.752 47.8735 109.28 47.6015C109.147 47.5238 109.08 47.6848 109.108 47.7903C109.258 48.3175 109.874 48.7283 110.312 49.0058C110.801 49.3111 111.339 49.5331 111.889 49.694C112.488 49.8661 113.115 49.9494 113.742 49.9494C114.408 49.9494 115.136 49.8939 115.768 49.6663C116.135 49.5331 115.879 49.0613 115.552 49.1001V49.0946Z" fill="#0A97D9"/>
</g>
<g opacity="0.6">
<path d="M145.754 125.562C156.96 127.76 162.966 134.26 162.966 134.26C162.966 134.26 160.474 125.973 145.821 121.766L145.754 125.562Z" fill="#0A97D9"/>
</g>
<path d="M131.668 127.777C134.637 123.009 138.617 116.948 140.521 113.501C142.486 109.938 142.808 109.511 145.683 107.879C148.558 106.247 151.322 104.826 154.042 103.688C155.501 103.078 155.751 104.782 154.597 106.819C153.586 108.611 149.057 110.798 149.057 110.798C149.057 110.798 152.937 110.815 154.685 110.948C155.923 111.043 157.549 111.992 159.459 112.969C161.368 113.945 161.501 114.611 160.974 115.2C160.447 115.788 159.525 116.277 157.549 115.916C155.573 115.555 153.753 115.061 153.753 115.061L149.374 115.205L148.858 115.766C148.858 115.766 151.755 116.327 154.064 117.054C156.373 117.781 156.789 118.308 158.504 119.573C160.214 120.839 161.279 121.483 161.329 121.96C161.379 122.437 161.057 123.747 158.704 123.376C156.351 123.004 154.241 121.472 154.241 121.472L149.213 120.484L146.698 122.31C146.698 122.31 149.562 122.676 151.211 123.004C152.859 123.326 155.773 124.68 156.423 125.135C157.072 125.59 156.001 127.011 154.663 127.316C153.326 127.616 149.984 126.117 148.114 126.334C146.249 126.55 142.863 127.622 142.863 127.622L131.674 127.788L131.668 127.777Z" fill="#0A97D9"/>
<path opacity="0.6" d="M131.668 127.777C134.637 123.009 138.617 116.948 140.521 113.501C142.486 109.938 142.808 109.511 145.683 107.879C148.558 106.247 151.322 104.826 154.042 103.688C155.501 103.078 155.751 104.782 154.597 106.819C153.586 108.611 149.057 110.798 149.057 110.798C149.057 110.798 152.937 110.815 154.685 110.948C155.923 111.043 157.549 111.992 159.459 112.969C161.368 113.945 161.501 114.611 160.974 115.2C160.447 115.788 159.525 116.277 157.549 115.916C155.573 115.555 153.753 115.061 153.753 115.061L149.374 115.205L148.858 115.766C148.858 115.766 151.755 116.327 154.064 117.054C156.373 117.781 156.789 118.308 158.504 119.573C160.214 120.839 161.279 121.483 161.329 121.96C161.379 122.437 161.057 123.747 158.704 123.376C156.351 123.004 154.241 121.472 154.241 121.472L149.213 120.484L146.698 122.31C146.698 122.31 149.562 122.676 151.211 123.004C152.859 123.326 155.773 124.68 156.423 125.135C157.072 125.59 156.001 127.011 154.663 127.316C153.326 127.616 149.984 126.117 148.114 126.334C146.249 126.55 142.863 127.622 142.863 127.622L131.674 127.788L131.668 127.777Z" fill="white"/>
<path opacity="0.3" d="M143.263 125.767C140.876 125.962 134.943 125.856 132.972 125.695C132.717 126.095 131.907 127.388 131.668 127.771L142.858 127.604C142.858 127.604 147.043 126.539 148.913 126.328C148.913 126.328 149.024 126.317 149.551 126.4C146.293 125.784 144.878 125.634 143.263 125.767ZM141.847 116.426C142.53 115.593 143.124 114.7 143.79 113.878C144.412 113.024 145.15 112.296 146.066 111.797C146.97 111.286 148.003 111.003 149.057 110.798C147.986 110.798 146.893 110.987 145.894 111.458C144.883 111.913 144.056 112.729 143.401 113.573C142.752 114.439 142.158 115.327 141.548 116.193C140.937 117.064 140.288 117.908 139.633 118.757C140.438 118.047 141.17 117.253 141.847 116.42V116.426ZM143.829 118.641C144.617 118.024 145.377 117.347 146.16 116.753C146.937 116.176 147.836 115.66 148.858 115.76C147.858 115.444 146.782 115.899 145.944 116.443C145.078 117.003 144.34 117.664 143.524 118.258C141.964 119.529 140.454 120.822 138.828 122.015C139.749 121.599 140.604 121.044 141.431 120.472C142.258 119.895 143.035 119.257 143.834 118.652L143.829 118.641ZM145.211 122.137C144.706 122.182 144.217 122.348 143.757 122.542C142.858 122.992 142.064 123.558 141.348 124.241C142.28 123.902 143.096 123.358 143.962 122.992C144.384 122.781 144.822 122.631 145.278 122.515C145.733 122.398 146.204 122.343 146.698 122.304C146.227 122.143 145.722 122.093 145.216 122.137H145.211Z" fill="#0A97D9"/>
<path d="M56.5048 110.899C57.1153 99.659 57.4317 93.2094 58.625 88.1752C60.3123 81.043 62.144 76.6471 73.2558 72.0791C83.2854 74.8432 86.5712 89.6516 85.278 106.647L82.6915 132.084C82.6915 132.084 94.4639 131.219 100.353 130.908C105.015 130.663 124.808 128.715 129.476 128.699L144.19 140.76C139.827 143.041 128.205 146.787 122.21 148.486C113.835 150.856 98.9042 153.881 73.883 153.986C61.8886 154.036 56.2383 151.3 55.7111 140.005C55.2115 129.176 55.8998 122.144 56.5048 110.904V110.899Z" fill="#0A97D9"/>
<path opacity="0.3" d="M56.5048 110.899C57.1153 99.659 57.4317 93.2094 58.625 88.1752C60.3123 81.043 62.144 76.6471 73.2558 72.0791C83.2854 74.8432 86.5712 89.6516 85.278 106.647L82.6915 132.084C82.6915 132.084 94.4639 131.219 100.353 130.908C105.015 130.663 124.808 128.715 129.476 128.699L144.19 140.76C139.827 143.041 128.205 146.787 122.21 148.486C113.835 150.856 98.9042 153.881 73.883 153.986C61.8886 154.036 56.2383 151.3 55.7111 140.005C55.2115 129.176 55.8998 122.144 56.5048 110.904V110.899Z" fill="white"/>
<path opacity="0.6" d="M121.788 148.597C111.897 144.873 100.375 140.771 95.3962 138.862C89.2575 136.508 88.386 135.892 84.4508 135.132C78.362 133.955 70.7025 135.642 68.6211 139.317C68.6211 139.317 71.252 132.828 82.6969 132.079C82.6969 132.079 94.4693 131.213 100.358 130.902C105.021 130.658 124.813 128.71 129.481 128.693L144.195 140.754C139.833 143.036 128.21 146.782 122.216 148.481C122.082 148.519 121.933 148.558 121.794 148.597H121.788Z" fill="#0A97D9"/>
<path d="M116.57 125.446C127.221 126.051 136.701 127.028 148.907 126.329C151.693 128.671 153.569 131.535 154.923 137.957C155.889 142.547 155.784 147.37 154.024 149.962C138.267 149.241 121.86 144.695 111.27 141.287C116.559 137.591 117.902 131.668 116.576 125.446H116.57Z" fill="#0A97D9"/>
<path opacity="0.3" d="M116.57 125.446C127.221 126.051 136.701 127.028 148.907 126.329C151.693 128.671 153.569 131.535 154.923 137.957C155.889 142.547 155.784 147.37 154.024 149.962C138.267 149.241 121.86 144.695 111.27 141.287C116.559 137.591 117.902 131.668 116.576 125.446H116.57Z" fill="white"/>
<path d="M82.6931 132.084L83.0094 129.587C83.0094 129.587 93.1888 125.141 100.71 125.041C106.504 124.963 111.661 125.169 116.573 125.446C117.905 131.668 116.556 137.59 111.266 141.287C106.737 139.833 103.263 138.584 101.37 137.935C95.0538 135.77 82.6875 132.084 82.6875 132.084H82.6931Z" fill="#0A97D9"/>
<path opacity="0.6" d="M82.6931 132.084L83.0094 129.587C83.0094 129.587 93.1888 125.141 100.71 125.041C106.504 124.963 111.661 125.169 116.573 125.446C117.905 131.668 116.556 137.59 111.266 141.287C106.737 139.833 103.263 138.584 101.37 137.935C95.0538 135.77 82.6875 132.084 82.6875 132.084H82.6931Z" fill="white"/>
<path opacity="0.3" d="M110.508 75.0648C110.747 75.0481 110.969 75.0259 111.191 75.0037C110.608 74.1934 109.975 73.3886 109.537 72.5116C108.083 69.6032 108.865 66.1231 108.521 62.8928C108.477 62.4543 108.399 61.9991 108.161 61.6273C107.9 61.2221 107.472 60.9612 107.073 60.6893C104.886 59.2295 103.054 57.2369 101.783 54.9335C99.674 51.1093 99.1633 46.6468 98.303 42.3674C97.5815 38.8041 96.2494 34.8633 92.9469 33.3369C90.8211 32.3545 88.3401 32.6209 86.0866 31.9993C82.8063 31.0946 80.2254 28.2694 79.2208 25.0169C78.6324 23.1131 78.5603 21.0983 78.8711 19.1279C78.4881 19.7551 78.1607 20.3934 77.9109 21.0095C76.5732 24.2676 76.0626 29.9512 77.3114 34.3971C77.9719 36.7504 78.91 38.8096 80.0145 40.7634C77.9497 45.2814 81.0413 50.2823 84.2772 51.7032C85.8257 52.3859 87.1245 52.3415 88.1403 52.0251C88.9062 52.9853 89.7166 54.0288 90.4659 55.0223L89.761 67.6939C89.761 67.6939 96.2716 76.1082 110.514 75.0703L110.508 75.0648Z" fill="#0A97D9"/>
<path opacity="0.2" d="M102.951 5.32957C102.701 5.53494 102.441 5.81246 102.491 6.12883C102.657 7.0946 105.654 6.51736 106.326 6.54511C108.041 6.61726 109.756 6.80598 111.443 7.15565C114.757 7.8439 117.976 9.17044 120.563 11.3851C117.893 10.9632 114.957 10.6191 112.676 12.0622C112.576 12.1288 112.465 12.2065 112.448 12.3286C112.42 12.5506 112.709 12.6616 112.931 12.6894C117.626 13.361 121.956 15.5867 126.002 18.0677C126.635 18.4562 127.528 18.8337 128.05 18.2953C128.339 17.9956 128.361 17.5349 128.339 17.1186C128.117 12.4896 124.864 8.36564 121.029 6.05668C119.253 4.98545 117.404 4.26945 115.367 3.74771C111.26 2.69314 106.42 2.48777 102.951 5.32957Z" fill="white"/>
<path opacity="0.3" d="M101.759 152.399C96.4412 151.455 91.0962 150.623 85.9066 149.152C81.7993 147.986 77.4978 146.177 75.3387 142.491C74.1564 140.477 73.7512 138.107 73.5181 135.787C73.1074 131.724 73.1629 127.627 73.2239 123.542C73.3794 112.275 73.5403 100.997 74.6282 89.7848C74.9501 86.4657 75.3886 83.0578 77.0482 80.166C77.7864 78.8839 78.8187 77.7239 80.0343 76.8691C78.2526 74.5046 76.0158 72.834 73.2628 72.0791C62.1509 76.6471 60.3248 81.043 58.632 88.1752C57.4386 93.2094 57.1223 99.659 56.5117 110.899C55.9012 122.138 55.2129 129.17 55.718 139.999C56.2398 151.294 61.8956 154.031 73.89 153.981C85.1018 153.936 94.2821 153.298 101.764 152.399H101.759Z" fill="#0A97D9"/>
<path opacity="0.2" d="M94.2685 127.688C92.8532 128.199 91.4878 128.854 90.189 129.675C89.8948 129.864 89.5674 130.214 89.7616 130.508C90.2168 131.179 93.6636 130.369 94.424 130.297C96.3388 130.119 98.2537 129.947 100.174 129.77C102.566 129.548 104.964 129.331 107.356 129.109C108.589 128.998 109.821 128.904 111.053 128.771C112.285 128.637 113.734 128.104 111.675 127.616C109.793 127.172 107.834 126.894 105.913 126.678C102.006 126.234 98.004 126.334 94.2685 127.683V127.688Z" fill="white"/>
<path d="M128.006 186.844L157.485 169.832C157.718 169.699 157.934 169.682 158.084 169.771C158.228 169.854 158.756 170.16 158.9 170.243C159.05 170.332 159.144 170.52 159.144 170.792V191.59C159.144 192.139 158.761 192.805 158.284 193.077L128.806 210.089C128.567 210.228 128.356 210.239 128.201 210.15C128.056 210.067 127.535 209.767 127.39 209.684C127.235 209.595 127.141 209.406 127.141 209.129V188.332C127.141 187.782 127.524 187.116 128.001 186.844H128.006Z" fill="#0A97D9"/>
<g opacity="0.3">
<path d="M128.006 186.844L157.485 169.832C157.718 169.699 157.934 169.682 158.084 169.771C158.228 169.854 158.756 170.16 158.9 170.243C159.05 170.332 159.144 170.52 159.144 170.792V191.59C159.144 192.139 158.761 192.805 158.284 193.077L128.806 210.089C128.567 210.228 128.356 210.239 128.201 210.15C128.056 210.067 127.535 209.767 127.39 209.684C127.235 209.595 127.141 209.406 127.141 209.129V188.332C127.141 187.782 127.524 187.116 128.001 186.844H128.006Z" fill="white"/>
</g>
<path d="M127.949 188.798V209.596C127.949 209.84 128.027 210.017 128.149 210.117C127.96 210.006 127.522 209.756 127.394 209.684C127.239 209.596 127.145 209.401 127.145 209.129V188.332C127.145 188.054 127.239 187.755 127.394 187.488L128.199 187.955C128.044 188.226 127.949 188.526 127.949 188.804V188.798Z" fill="#0A97D9"/>
<g opacity="0.3">
<path d="M127.949 188.798V209.596C127.949 209.84 128.027 210.017 128.149 210.117C127.96 210.006 127.522 209.756 127.394 209.684C127.239 209.596 127.145 209.401 127.145 209.129V188.332C127.145 188.054 127.239 187.755 127.394 187.488L128.199 187.955C128.044 188.226 127.949 188.526 127.949 188.804V188.798Z" fill="black"/>
</g>
<path d="M158.288 170.292L128.81 187.304C128.332 187.576 127.949 188.248 127.949 188.792V209.589C127.949 210.139 128.332 210.361 128.81 210.083L158.288 193.071C158.765 192.799 159.148 192.128 159.148 191.584V170.786C159.148 170.237 158.765 170.015 158.288 170.292Z" fill="#0A97D9"/>
<g opacity="0.5">
<path d="M156.602 175.827C155.841 175.827 155.142 175.216 155.142 174.367L131.769 187.855C131.769 189.287 131.003 190.608 129.766 191.324V204.911C129.999 204.778 130.249 204.711 130.493 204.711C131.253 204.711 131.952 205.322 131.952 206.171L155.325 192.684C155.325 191.413 156.224 189.853 157.329 189.215V175.627C157.096 175.76 156.846 175.827 156.602 175.827ZM156.963 189.015C155.902 189.731 155.053 191.196 154.964 192.473L132.224 205.599C131.98 204.878 131.298 204.35 130.493 204.35C130.371 204.35 130.249 204.362 130.132 204.389V191.535C131.314 190.774 132.063 189.481 132.13 188.077L154.87 174.95C155.114 175.672 155.797 176.199 156.602 176.199C156.724 176.199 156.846 176.188 156.963 176.16V189.02V189.015ZM130.432 189.958C130.798 189.747 131.098 189.176 131.098 188.687C131.098 188.199 130.798 187.971 130.432 188.188C130.065 188.399 129.766 188.97 129.766 189.459C129.766 189.947 130.065 190.175 130.432 189.958ZM156.657 175.017C157.024 174.806 157.323 174.234 157.323 173.746C157.323 173.257 157.024 173.03 156.657 173.246C156.291 173.463 155.991 174.029 155.991 174.517C155.991 175.006 156.291 175.233 156.657 175.017ZM156.657 190.475C156.291 190.685 155.991 191.257 155.991 191.746C155.991 192.234 156.291 192.462 156.657 192.245C157.024 192.029 157.323 191.462 157.323 190.974C157.323 190.486 157.024 190.258 156.657 190.475ZM130.432 205.416C130.065 205.627 129.766 206.199 129.766 206.687C129.766 207.176 130.065 207.403 130.432 207.187C130.798 206.976 131.098 206.404 131.098 205.916C131.098 205.427 130.798 205.2 130.432 205.416Z" fill="white"/>
</g>
<path d="M140.633 193.887L144.026 199.763L142.532 200.626L140.704 197.461L140.639 200.644L140.488 200.731L137.712 199.2L139.535 202.356L138.032 203.224L134.639 197.348L136.142 196.48L139.085 198.127L139.139 194.75L140.633 193.887ZM144.72 211.338L146.995 210.025L147.81 211.435L144.032 213.616L140.639 207.74L144.375 205.583L145.184 206.985L142.951 208.274L143.422 209.089L145.445 207.921L146.244 209.306L144.221 210.474L144.72 211.338Z" fill="#FAFAFA"/>
<path d="M37.8353 67.6495C37.9019 67.3331 38.2349 67.0389 38.8177 66.8502C39.9833 66.4673 41.715 66.6227 42.6807 67.2055C43.1636 67.4941 43.3634 67.8382 43.3024 68.1546C43.2635 68.3488 14.0518 209.395 14.013 209.59C13.9464 209.906 13.6133 210.2 13.0306 210.394C11.865 210.777 10.1332 210.622 9.16748 210.039C8.6846 209.751 8.48478 209.406 8.54584 209.09C8.58469 208.896 37.7964 67.8493 37.8353 67.655V67.6495Z" fill="#455A64"/>
<path d="M42.6804 67.2003C43.1633 67.4889 43.3631 67.833 43.302 68.1494C43.2354 68.4658 42.9024 68.7599 42.3196 68.9486C41.154 69.3316 39.4223 69.1762 38.4565 68.5934C37.9737 68.3048 37.7738 67.9607 37.8349 67.6443C37.9015 67.3279 38.2345 67.0338 38.8173 66.8395C39.9829 66.4565 41.7146 66.6119 42.6804 67.1947V67.2003Z" fill="#263238"/>
<path d="M46.1211 193.172C46.3598 193.316 46.7317 193.333 47.1702 193.188C48.0527 192.894 48.8963 192.067 49.0462 191.334C49.1239 190.968 49.0129 190.696 48.7742 190.552C48.6299 190.463 20.5838 173.595 20.4339 173.507C20.1953 173.362 19.8234 173.346 19.3849 173.49C18.5024 173.784 17.6587 174.611 17.5089 175.344C17.4312 175.71 17.5422 175.982 17.7864 176.126C17.9307 176.215 45.9768 193.083 46.1267 193.172H46.1211Z" fill="#37474F"/>
<path d="M49.0513 191.329C49.129 190.963 49.018 190.691 48.7793 190.547C48.5407 190.402 48.1688 190.386 47.7248 190.53C46.8422 190.824 45.9986 191.651 45.8487 192.384C45.771 192.75 45.882 193.022 46.1262 193.166C46.3649 193.311 46.7368 193.327 47.1753 193.183C48.0578 192.889 48.9014 192.062 49.0513 191.329Z" fill="#455A64"/>
<path d="M42.1485 212.365C42.3872 212.509 42.7591 212.526 43.1976 212.382C44.0801 212.087 44.9237 211.26 45.0736 210.528C45.1513 210.161 45.0403 209.889 44.8016 209.745C44.6573 209.656 16.6112 192.789 16.4613 192.7C16.2227 192.556 15.8508 192.539 15.4123 192.683C14.5298 192.977 13.6861 193.804 13.5363 194.537C13.4586 194.903 13.5696 195.175 13.8082 195.32C13.9526 195.409 41.9987 212.276 42.1485 212.365Z" fill="#37474F"/>
<path d="M45.0787 210.523C45.1564 210.156 45.0454 209.884 44.8012 209.74C44.5625 209.596 44.1906 209.579 43.7522 209.723C42.8696 210.017 42.026 210.844 41.8761 211.577C41.7984 211.943 41.9094 212.215 42.1481 212.36C42.3868 212.504 42.7586 212.521 43.1971 212.376C44.0796 212.082 44.9233 211.255 45.0731 210.523H45.0787Z" fill="#455A64"/>
<path d="M50.1016 173.978C50.3403 174.123 50.7122 174.139 51.1506 173.995C52.0332 173.701 52.8768 172.874 53.0267 172.141C53.1044 171.775 52.9934 171.503 52.7547 171.358C52.6104 171.27 24.5643 154.402 24.4144 154.313C24.1757 154.169 23.8039 154.152 23.3654 154.297C22.4829 154.591 21.6392 155.418 21.4893 156.15C21.4116 156.517 21.5227 156.789 21.7669 156.933C21.9112 157.022 49.9573 173.889 50.1072 173.978H50.1016Z" fill="#37474F"/>
<path d="M53.0279 172.141C53.1056 171.774 52.9946 171.502 52.7504 171.358C52.5117 171.214 52.1399 171.197 51.7014 171.341C50.8189 171.636 49.9752 172.463 49.8253 173.195C49.7476 173.562 49.8586 173.834 50.0973 173.978C50.336 174.122 50.7079 174.139 51.1463 173.995C52.0288 173.7 52.8725 172.873 53.0224 172.141H53.0279Z" fill="#455A64"/>
<path d="M54.0782 154.791C54.3168 154.935 54.6887 154.952 55.1272 154.807C56.0097 154.513 56.8534 153.686 57.0032 152.954C57.0809 152.587 56.9699 152.315 56.7313 152.171C56.587 152.082 28.5408 135.215 28.391 135.126C28.1523 134.981 27.7804 134.965 27.3419 135.109C26.4594 135.403 25.6158 136.23 25.4659 136.963C25.3882 137.329 25.4992 137.601 25.7434 137.745C25.8877 137.834 53.9339 154.702 54.0837 154.791H54.0782Z" fill="#37474F"/>
<path d="M57.0028 152.948C57.0805 152.582 56.9695 152.31 56.7309 152.166C56.4922 152.021 56.1203 152.005 55.6818 152.149C54.7993 152.443 53.9557 153.27 53.8058 154.003C53.7281 154.369 53.8391 154.641 54.0778 154.786C54.3164 154.93 54.6883 154.946 55.1268 154.802C56.0093 154.508 56.853 153.681 57.0028 152.948Z" fill="#455A64"/>
<path d="M58.0492 135.597C58.2879 135.742 58.6598 135.758 59.1038 135.614C59.9863 135.32 60.83 134.493 60.9799 133.76C61.0576 133.394 60.9466 133.122 60.7079 132.978C60.5636 132.889 32.5174 116.021 32.3676 115.932C32.1289 115.788 31.757 115.771 31.3186 115.916C30.436 116.21 29.5924 117.037 29.4425 117.77C29.3648 118.136 29.4758 118.408 29.7145 118.552C29.8588 118.641 57.9049 135.509 58.0548 135.597H58.0492Z" fill="#37474F"/>
<path d="M60.9755 133.76C61.0532 133.394 60.9422 133.122 60.7035 132.977C60.4649 132.833 60.093 132.816 59.6545 132.961C58.772 133.255 57.9283 134.082 57.7785 134.814C57.7008 135.181 57.8118 135.453 58.0504 135.597C58.2891 135.741 58.661 135.758 59.0995 135.614C59.982 135.32 60.8256 134.493 60.9755 133.76Z" fill="#455A64"/>
<path d="M62.0235 116.41C62.2622 116.554 62.6341 116.571 63.0726 116.427C63.9551 116.132 64.7987 115.305 64.9486 114.573C65.0263 114.206 64.9153 113.934 64.6766 113.79C64.5323 113.701 36.4862 96.8337 36.3363 96.7448C36.0977 96.6005 35.7258 96.5839 35.2873 96.7282C34.4048 97.0224 33.5611 97.8494 33.4113 98.582C33.3336 98.9484 33.4446 99.2203 33.6832 99.3646C33.8276 99.4534 61.8737 116.321 62.0235 116.41Z" fill="#37474F"/>
<path d="M64.9481 114.567C65.0258 114.201 64.9148 113.929 64.6761 113.785C64.4375 113.641 64.0656 113.624 63.6271 113.768C62.7446 114.062 61.9009 114.889 61.7511 115.622C61.6734 115.988 61.7844 116.26 62.0286 116.405C62.2673 116.549 62.6391 116.566 63.0776 116.421C63.9601 116.127 64.8038 115.3 64.9536 114.567H64.9481Z" fill="#455A64"/>
<path d="M66 97.2165C66.2387 97.3608 66.6106 97.3775 67.0491 97.2332C67.9316 96.939 68.7752 96.112 68.9251 95.3793C69.0028 95.013 68.8918 94.7411 68.6531 94.5967C68.5088 94.5079 40.4627 77.6403 40.3128 77.5515C40.0742 77.4072 39.7023 77.3905 39.2638 77.5348C38.3813 77.829 37.5376 78.656 37.3878 79.3887C37.3101 79.755 37.4211 80.027 37.6653 80.1713C37.8096 80.2601 65.8557 97.1277 66.0056 97.2165H66Z" fill="#37474F"/>
<path d="M68.9263 95.3741C69.004 95.0078 68.893 94.7358 68.6488 94.5915C68.4101 94.4472 68.0382 94.4306 67.5998 94.5749C66.7172 94.869 65.8736 95.6961 65.7237 96.4287C65.646 96.795 65.757 97.067 66.0012 97.2113C66.2399 97.3556 66.6118 97.3723 67.0503 97.228C67.9328 96.9338 68.7764 96.1068 68.9263 95.3741Z" fill="#455A64"/>
<path d="M66.386 84.739C66.4526 84.4227 66.7857 84.1285 67.3685 83.9342C68.534 83.5512 70.2658 83.7067 71.2315 84.2894C71.7144 84.5781 71.9142 84.9222 71.8532 85.2386C71.8143 85.4328 42.6026 226.479 42.5638 226.674C42.4971 226.99 42.1641 227.284 41.5813 227.478C40.4158 227.861 38.684 227.706 37.7183 227.123C37.2354 226.835 37.0356 226.49 37.0966 226.174C37.1355 225.98 66.3472 84.9333 66.386 84.739Z" fill="#455A64"/>
<path d="M71.239 84.2894C71.7219 84.5781 71.9217 84.9222 71.8606 85.2386C71.794 85.5549 71.461 85.8491 70.8782 86.0434C69.7126 86.4263 67.9809 86.2709 67.0151 85.6881C66.5323 85.3995 66.3324 85.0554 66.3935 84.739C66.4601 84.4227 66.7931 84.1285 67.3759 83.9342C68.5415 83.5512 70.2732 83.7067 71.239 84.2894Z" fill="#263238"/>
<path d="M204.841 182.137L205.485 173.839L196.327 174.727C196.327 174.727 196.582 179.217 196.782 181.754C196.899 183.252 195.012 186.1 195.012 186.1C195.012 186.1 199.385 188.359 201.672 187.46C203.959 186.56 205.102 183.558 205.052 182.914C205.002 182.27 204.847 182.142 204.847 182.142L204.841 182.137Z" fill="#FFA8A7"/>
<path d="M183.089 195.697C182.945 195.697 182.739 197.245 183.533 197.889C184.449 198.633 187.124 199.848 190.643 199.371C194.162 198.894 196.055 197.817 197.453 196.662C198.852 195.508 200.806 193.876 202.399 193.521C203.875 193.188 205.474 192.522 205.945 192.078C206.412 191.628 206.328 189.669 206.328 189.669L183.094 195.697H183.089Z" fill="#263238"/>
<path d="M204.841 182.12C204.841 182.12 205.285 182.12 205.379 182.575C205.496 183.113 205.629 184.69 205.867 185.572C206.206 186.804 206.445 189.33 206.262 190.34C206.078 191.35 203.675 192.077 202.138 192.66C200.567 193.259 198.763 194.469 197.176 195.763C195.533 197.1 192.069 198.51 189.771 198.516C187.057 198.527 183.988 197.711 183.277 196.501C182.395 195.008 181.745 193.265 185.753 191.417C186.513 191.067 189.172 189.507 190.077 188.941C192.53 187.415 194.25 186.016 195.361 183.346C195.488 183.036 195.627 182.691 195.932 182.525C196.165 182.403 196.448 182.414 196.715 182.447C197.386 182.531 200.067 182.858 200.678 183.13C201.222 183.374 201.988 183.652 201.988 184.323C201.988 184.556 201.921 184.784 201.843 185.006C201.799 185.145 201.76 185.322 201.882 185.406C201.999 185.483 202.154 185.395 202.26 185.3C202.676 184.928 202.981 184.462 203.331 184.029C203.52 183.802 203.725 183.58 203.964 183.396C204.18 183.23 204.458 183.147 204.646 182.958C204.891 182.719 204.83 182.431 204.835 182.114L204.841 182.12Z" fill="#455A64"/>
<path d="M197.182 195.763C197.875 195.197 198.619 194.647 199.363 194.153C199.363 194.153 194.656 196.984 192.73 195.741C191.487 194.941 192.064 193.948 192.092 193.632C192.12 193.315 187.74 191.134 186.547 191.012C186.214 191.195 185.937 191.339 185.765 191.422C181.757 193.271 182.407 195.014 183.289 196.507C184.005 197.717 186.225 198.638 189.739 198.599C192.031 198.571 195.55 197.1 197.187 195.763H197.182Z" fill="#37474F"/>
<path d="M192.412 192.71C189.92 193.704 190.991 194.148 191.696 194.237C192.395 194.325 196.586 191.9 199.134 189.907C201.792 187.826 203.457 185.572 204.445 184.807C204.812 184.523 205.211 184.174 205.561 183.846C205.489 183.313 205.433 182.831 205.378 182.575C205.283 182.12 204.839 182.12 204.839 182.12C204.834 182.436 204.895 182.725 204.651 182.964C204.456 183.152 204.184 183.236 203.968 183.402C203.729 183.585 203.524 183.807 203.335 184.035C202.986 184.468 202.68 184.934 202.264 185.306C200.105 188.009 194.904 191.711 192.412 192.71Z" fill="#37474F"/>
<path d="M191.862 193.876C191.918 193.876 191.973 193.859 192.017 193.82C192.123 193.737 192.14 193.587 192.051 193.482C191.335 192.655 187.966 190.706 186.129 190.923C185.99 190.94 185.895 191.056 185.912 191.189C185.929 191.323 186.04 191.411 186.19 191.4C187.91 191.2 191.107 193.138 191.679 193.792C191.729 193.848 191.801 193.881 191.873 193.876H191.862Z" fill="#263238"/>
<path d="M194.034 192.555C194.089 192.555 194.145 192.539 194.189 192.5C194.295 192.417 194.306 192.267 194.223 192.161C193.507 191.334 190.138 189.386 188.3 189.603C188.162 189.619 188.067 189.736 188.084 189.869C188.101 190.002 188.217 190.091 188.361 190.08C190.082 189.886 193.279 191.812 193.851 192.472C193.901 192.528 193.973 192.561 194.045 192.555H194.034Z" fill="#263238"/>
<path d="M196.207 191.301C196.263 191.301 196.318 191.284 196.363 191.245C196.468 191.162 196.479 191.012 196.396 190.906C195.68 190.079 192.311 188.131 190.468 188.348C190.33 188.364 190.235 188.481 190.252 188.614C190.269 188.747 190.385 188.836 190.529 188.825C192.25 188.625 195.447 190.557 196.019 191.217C196.069 191.273 196.141 191.306 196.213 191.301H196.207Z" fill="#263238"/>
<path d="M198.218 189.875C198.273 189.875 198.329 189.858 198.373 189.819C198.478 189.736 198.49 189.586 198.406 189.481C197.69 188.654 194.316 186.705 192.484 186.922C192.345 186.939 192.251 187.055 192.268 187.188C192.284 187.322 192.401 187.41 192.545 187.399C194.26 187.205 197.463 189.131 198.034 189.791C198.084 189.847 198.156 189.88 198.229 189.875H198.218Z" fill="#263238"/>
<path d="M200.182 188.448C200.238 188.448 200.288 188.431 200.338 188.392C200.443 188.309 200.46 188.159 200.377 188.054C199.394 186.877 195.87 185.262 194.027 185.473C193.888 185.489 193.794 185.606 193.81 185.739C193.827 185.872 193.944 185.961 194.088 185.95C195.742 185.756 199.117 187.316 199.994 188.353C200.044 188.415 200.116 188.442 200.188 188.442L200.182 188.448Z" fill="#263238"/>
<path d="M220.236 187.41L218.555 179.395L228.035 178.446L228.046 186.106C228.046 186.106 228.901 188.892 228.273 189.863C227.646 190.835 221.335 191.606 220.791 190.918C220.242 190.23 220.242 187.416 220.242 187.416L220.236 187.41Z" fill="#FFA8A7"/>
<path d="M220.273 204.677C220.451 207.142 220.884 208.746 221.855 210.122C222.827 211.493 224.647 211.804 226.484 211.227C228.322 210.649 230.669 209.323 231.18 207.142C231.691 204.96 231.574 203.506 231.141 201.247L220.279 204.677H220.273Z" fill="#263238"/>
<path d="M228.046 186.111C228.806 186.105 228.473 189.452 228.934 192.744C229.428 196.274 230.604 197.656 231.043 200.542C231.542 203.845 231.365 205.354 230.094 207.48C228.823 209.606 224.299 211.959 222.04 209.245C220.197 207.036 220.103 204.427 220.247 201.075C220.397 197.611 220.53 195.175 220.358 192.566C220.192 190.074 219.581 187.837 220.242 187.51C220.297 187.87 220.347 188.337 220.403 188.692C220.447 188.964 220.53 190.313 220.958 190.29C220.997 189.969 220.986 189.669 220.958 189.347C220.936 189.064 220.958 188.753 221.158 188.525C221.357 188.292 222.09 188.02 222.401 187.943C223.145 187.748 224.471 187.521 225.226 187.399C225.603 187.338 225.981 187.288 226.358 187.26C226.664 187.238 227.03 187.232 227.319 187.304C227.496 187.349 227.663 187.454 227.729 187.61C227.779 187.726 227.768 187.859 227.774 187.987C227.774 188.22 227.807 188.448 227.874 188.664C227.901 188.759 227.979 188.875 228.084 188.842C228.173 188.814 228.207 188.714 228.207 188.631C228.207 188.226 228.151 187.937 228.123 187.471C228.112 187.254 228.073 186.96 228.068 186.744C228.068 186.527 228.057 186.316 228.04 186.105L228.046 186.111Z" fill="#455A64"/>
<path d="M230.861 199.604C230.939 200.082 231.405 203.234 230.462 203.889C229.435 204.594 228.852 202.135 228.852 202.135C228.852 202.135 226.432 201.658 222.919 203.351C223.102 203.856 222.574 205.604 221.603 205.327C220.643 205.049 220.238 201.419 220.232 201.37C220.11 204.583 220.249 207.103 222.036 209.251C224.295 211.96 228.824 209.612 230.09 207.486C231.361 205.36 231.538 203.851 231.039 200.548C230.989 200.215 230.928 199.91 230.861 199.61V199.604Z" fill="#37474F"/>
<path d="M228.58 202.374C228.602 203.579 229.906 203.068 229.951 201.359C229.995 199.649 228.946 195.686 228.935 192.75C228.879 188.72 228.802 186.106 228.047 186.117C228.047 186.156 228.047 186.2 228.047 186.239L228.158 187.921C228.18 188.165 228.208 188.382 228.208 188.643C228.247 191.107 228.08 195.88 228.33 198.112C228.58 200.343 228.552 201.17 228.58 202.38V202.374Z" fill="#37474F"/>
<path d="M223.33 203.284C223.075 202.119 222.858 201.331 222.581 199.105C222.303 196.89 221.21 192.439 220.677 190.047C220.488 189.647 220.433 188.892 220.405 188.692C220.355 188.359 220.305 187.937 220.255 187.588C220.255 187.566 220.244 187.538 220.238 187.516C219.767 187.765 219.85 189.675 220.05 190.668C220.255 191.667 220.51 192.733 220.76 194.159C221.432 196.979 221.337 201.17 221.776 202.796C222.214 204.422 223.591 204.45 223.336 203.284H223.33Z" fill="#37474F"/>
<path d="M222.846 203.451C222.879 203.445 222.912 203.434 222.945 203.417C222.973 203.401 225.715 201.896 228.779 202.39C228.929 202.413 229.084 202.318 229.123 202.18C229.162 202.041 229.073 201.908 228.923 201.88C225.643 201.353 222.807 202.918 222.685 202.984C222.546 203.062 222.496 203.217 222.568 203.34C222.624 203.428 222.735 203.473 222.846 203.451Z" fill="#263238"/>
<path d="M222.196 200.881C222.23 200.875 222.257 200.864 222.291 200.847C222.319 200.831 225.405 199.254 228.818 199.699C228.968 199.715 229.118 199.621 229.151 199.476C229.184 199.338 229.09 199.205 228.94 199.188C225.327 198.722 222.174 200.337 222.041 200.403C221.902 200.476 221.841 200.637 221.913 200.759C221.969 200.853 222.08 200.897 222.196 200.881Z" fill="#263238"/>
<path d="M228.617 197.229C228.723 197.212 228.817 197.14 228.856 197.035C228.906 196.896 228.822 196.757 228.678 196.724C225.276 195.953 221.929 197.801 221.79 197.879C221.651 197.956 221.601 198.112 221.674 198.234C221.746 198.35 221.918 198.384 222.051 198.311C222.084 198.295 225.331 196.502 228.501 197.224C228.539 197.235 228.578 197.235 228.617 197.224V197.229Z" fill="#263238"/>
<path d="M228.405 194.892C228.51 194.875 228.604 194.803 228.638 194.703C228.688 194.564 228.61 194.426 228.466 194.387C224.719 193.471 221.572 195.452 221.439 195.536C221.306 195.619 221.267 195.78 221.344 195.896C221.428 196.013 221.6 196.035 221.733 195.952C221.761 195.935 224.797 194.037 228.277 194.886C228.316 194.897 228.36 194.897 228.399 194.886L228.405 194.892Z" fill="#263238"/>
<path d="M228.156 192.272C228.256 192.256 228.35 192.183 228.389 192.089C228.445 191.95 228.367 191.812 228.223 191.773C224.715 190.862 221.29 192.911 221.146 192.999C221.013 193.083 220.968 193.244 221.046 193.36C221.124 193.477 221.296 193.504 221.429 193.421C221.462 193.399 224.77 191.423 228.028 192.272C228.073 192.283 228.112 192.283 228.156 192.272Z" fill="#263238"/>
<path d="M227.274 107.745C229.033 127.011 227.74 151.144 227.74 151.144C227.895 152.603 229.128 157.299 229.1 164.559C229.061 174.772 228.4 182.526 228.4 182.526C226.141 184.435 221.418 184.812 219.02 183.602C219.02 183.602 215.612 167.334 213.52 158.143C211.427 148.951 209.124 138.894 209.124 138.894L207.609 150.683C207.609 150.683 208.053 156.761 207.825 161.04C207.548 166.285 205.472 179.334 205.472 179.334C204.167 180.983 198.134 181.288 196.125 179.301C196.125 179.301 193.544 156.122 193.205 149.462C192.506 135.741 192.378 122.171 193.106 107.984L227.268 107.745H227.274Z" fill="#455A64"/>
<path d="M209.131 138.888L206.839 123.708C206.839 123.708 201.832 123.131 199.207 119.634C199.207 119.634 200.567 124.191 205.246 125.351L207.866 139.643L207.621 150.672L209.137 138.883L209.131 138.888Z" fill="#37474F"/>
<path d="M167.493 77.9954C168.27 80.2489 169.175 80.815 171.095 82.1249L164.656 85.8325C161.759 84.173 160.227 82.1748 161.049 78.4949L163.313 72.8779C163.313 72.8779 167.015 76.6078 167.498 77.9954H167.493Z" fill="#FFA8A7"/>
<path d="M153.739 99.1196C153.217 99.1862 152.534 98.8976 152.218 98.4813C152.057 98.2704 158.678 82.252 158.678 82.252L160.826 83.1567C160.826 83.1567 154.005 99.0863 153.739 99.1196Z" fill="#455A64"/>
<path d="M159.378 82.5461L158.678 82.252C158.678 82.252 152.062 98.2704 152.218 98.4813C152.301 98.5923 152.417 98.6978 152.545 98.7866L159.378 82.5517V82.5461Z" fill="#37474F"/>
<path d="M161.35 83.4348C160.312 83.5625 158.957 82.9963 158.325 82.1582C158.003 81.7364 157.931 81.3312 158.075 81.0093L162.981 69.3701L167.25 71.174L162.349 82.8076C162.221 83.1295 161.877 83.3682 161.35 83.4348Z" fill="#0A97D9"/>
<path d="M166.171 72.6283C164.978 72.7782 163.418 72.1232 162.691 71.163C162.325 70.6801 162.241 70.2084 162.402 69.842L162.713 69.1094L167.625 71.1797L167.32 71.9068C167.17 72.2786 166.776 72.5506 166.171 72.6283Z" fill="#0A97D9"/>
<path opacity="0.2" d="M166.171 72.6283C164.978 72.7782 163.418 72.1232 162.691 71.163C162.325 70.6801 162.241 70.2084 162.402 69.842L162.713 69.1094L167.625 71.1797L167.32 71.9068C167.17 72.2786 166.776 72.5506 166.171 72.6283Z" fill="white"/>
<path d="M163.007 70.4134C162.28 69.4532 162.657 68.554 163.85 68.4042C165.044 68.2543 166.603 68.9092 167.33 69.8695C168.058 70.8297 167.68 71.7288 166.487 71.8787C165.293 72.0286 163.734 71.3736 163.007 70.4134Z" fill="#0A97D9"/>
<path opacity="0.2" d="M160.031 82.3414C159.809 82.2471 159.709 81.9973 159.798 81.7753L163.5 72.989C163.594 72.767 163.844 72.6671 164.066 72.7559C164.288 72.8503 164.388 73.1 164.299 73.322L160.597 82.1083C160.503 82.3303 160.253 82.4302 160.031 82.3414Z" fill="black"/>
<path opacity="0.2" d="M161.491 82.674C161.269 82.6629 161.158 82.5019 161.236 82.3077L164.982 73.4159C165.06 73.2272 165.304 73.0774 165.526 73.0885C165.748 73.0996 165.859 73.2605 165.781 73.4548L162.035 82.3465C161.957 82.5352 161.713 82.6851 161.491 82.674Z" fill="black"/>
<path opacity="0.2" d="M158.772 81.5255C158.933 81.6754 159.127 81.6421 159.21 81.4533L162.957 72.5616C163.034 72.3729 162.973 72.0954 162.812 71.9455C162.651 71.7957 162.457 71.829 162.374 72.0177L158.627 80.9094C158.55 81.0981 158.611 81.3756 158.772 81.5255Z" fill="black"/>
<path d="M167.491 77.9955C167.292 77.4516 167.147 76.8854 166.892 76.3637C166.598 75.7531 166.265 75.1648 165.898 74.5987C165.754 74.3766 165.599 74.1491 165.377 74.0048C165.227 73.9104 165.055 73.8549 164.883 73.7994C163.639 73.4109 162.391 73.0168 161.147 72.6283C160.897 72.5506 160.609 72.4729 160.387 72.6116C160.087 72.7892 160.082 73.2277 160.204 73.5552C160.637 74.7041 162.057 75.187 162.662 76.2582C162.929 76.73 163.012 77.2739 163.19 77.7846C163.367 78.2952 163.684 78.8059 164.194 78.9779C164.522 79.0834 164.877 79.0334 165.21 78.9557C165.682 78.8447 166.198 78.7004 166.603 78.4229C166.892 78.2231 167.153 78.1009 167.491 77.9899V77.9955Z" fill="#FFA8A7"/>
<path d="M161.482 72.9551C160.521 72.9884 158.579 73.2548 158.473 74.4814C158.473 74.4981 158.473 74.5203 158.473 74.5369C158.462 74.7368 158.473 74.9366 158.423 75.1253C158.34 75.4306 158.096 75.6692 157.974 75.9689C157.824 76.3408 157.891 76.7571 157.852 77.1567C157.802 77.6341 157.608 78.0781 157.53 78.5499C157.463 78.9551 157.497 79.3769 157.619 79.771C157.785 80.3204 158.124 80.8033 158.468 81.2696C158.695 81.5804 159.217 81.758 159.55 81.5526C159.733 81.4361 159.889 81.314 160 81.1197C160.028 81.0753 160.183 80.5702 160.155 80.5758C160.361 80.5314 160.577 80.4814 160.744 80.3482C160.932 80.1983 161.032 79.9597 161.054 79.721C161.077 79.4823 161.027 79.2437 160.966 79.0106C161.587 78.8829 161.626 78.1835 161.443 77.7007C161.149 76.9236 160.244 75.8968 160.621 75.0087L161.493 72.9551H161.482Z" fill="#FFA8A7"/>
<path d="M185.004 98.4043C183.328 99.8363 180.752 99.7585 178.155 98.0324C174.303 95.4736 169.735 90.6892 164.656 85.8326L171.095 82.125C177.372 85.9825 180.625 87.9418 180.625 87.9418C180.625 87.9418 190.482 76.4525 191.759 74.915C195.117 70.8799 198.453 70.6689 198.453 70.6689L198.741 85.0944C198.741 85.0944 187.047 96.6559 185.004 98.4043Z" fill="#FFA8A7"/>
<path d="M198.859 70.3249C195.606 71.0076 194.235 71.6292 190.888 75.3813C187.541 79.1334 185.16 81.9696 185.16 81.9696C185.16 81.9696 186.165 86.2323 188.474 88.9964C190.788 91.7605 192.004 92.26 192.004 92.26L200.773 84.0677L198.853 70.3193L198.859 70.3249Z" fill="#0A97D9"/>
<path d="M217.295 68.5762C217.295 68.5762 221.152 69.4198 225.432 70.8629C225.432 70.8629 229.617 81.6695 227.818 90.0284C227.402 91.9489 226.769 97.2162 226.886 101.296C227.008 105.642 227.824 112.33 227.824 112.33C227.824 112.33 220.686 117.198 207.282 116.187C196.758 115.394 192.734 111.592 192.734 111.592C193.073 100.458 193.711 94.1524 194.055 86.5039C194.527 76.0637 196.581 72.1062 198.851 70.3245L206.86 68.5762H217.295Z" fill="#37474F"/>
<path d="M207.726 39.9585C210.795 39.6089 213.043 39.8198 215.368 41.0908C217.233 42.1121 218.46 43.4164 218.937 45.2148C220.208 45.3591 221.391 46.6523 221.968 47.7957C222.651 49.1611 222.373 52.1416 221.979 54.1009C221.491 56.5154 221.024 57.7753 219.72 59.8234C219.47 60.2175 216.306 64.6522 216.623 64.8909C214.508 63.2702 212.393 61.6495 210.279 60.0232C208.53 58.68 206.776 57.3368 205.028 55.9936C203.779 55.039 202.381 54.2175 201.448 52.9354C201.037 52.3692 200.521 51.8808 200.138 51.2869C199.966 51.0205 199.15 49.6107 199.389 49.3054C199.056 49.7217 198.834 50.2268 198.756 50.7541C197.685 48.6616 198.368 45.9974 199.855 44.1768C201.692 41.9289 204.834 40.2805 207.72 39.953L207.726 39.9585Z" fill="#263238"/>
<path d="M200.572 62.7761C201.077 64.4801 202.581 66.0564 204.418 66.5559C205.811 66.9334 206.899 66.839 206.899 66.839L206.849 68.9204C206.183 69.431 205.156 72.0508 209.619 72.2173C214.081 72.3838 217.306 69.4199 217.306 69.4199L217.14 61.111C217.14 61.111 218.255 62.4264 220.198 61.2664C221.53 60.4616 222.762 58.2192 221.641 56.3155C220.525 54.4228 218.422 54.3062 217.6 55.5773C217.151 56.2711 217.167 57.2646 216.451 57.1758C214.825 56.9704 215.064 53.9898 215.253 52.6633C215.269 52.5412 215.291 52.408 215.236 52.297C215.175 52.1749 215.047 52.1083 214.931 52.0417C214.015 51.5199 213.382 50.593 213.043 49.5939C212.705 48.5949 212.638 47.5292 212.633 46.4746C211.262 47.2905 209.841 48.0509 208.326 48.5394C206.655 49.0777 204.896 49.272 203.153 49.4663C202.564 49.5329 201.771 49.4108 201.304 49.8936C200.76 50.4542 200.577 51.1092 200.477 51.8196C200.278 53.2461 200.416 54.8002 200.272 56.2322C200.022 58.6744 199.978 60.7835 200.566 62.765L200.572 62.7761Z" fill="#FFA8A7"/>
<path d="M203.752 51.6642L201.76 52.3802C201.571 51.814 201.871 51.1924 202.42 50.9926C202.97 50.7928 203.564 51.0925 203.752 51.6642Z" fill="#263238"/>
<path d="M209.973 52.0136L211.876 52.9349C212.121 52.391 211.893 51.7416 211.366 51.4863C210.839 51.231 210.217 51.4696 209.973 52.0136Z" fill="#263238"/>
<path d="M210.974 54.9607C210.974 55.4602 210.569 55.8598 210.075 55.8598C209.581 55.8598 209.176 55.4547 209.176 54.9607C209.176 54.4667 209.581 54.0615 210.075 54.0615C210.569 54.0615 210.974 54.4667 210.974 54.9607Z" fill="#263238"/>
<path d="M203.958 54.4558C203.958 54.9553 203.553 55.355 203.059 55.355C202.565 55.355 202.16 54.9498 202.16 54.4558C202.16 53.9618 202.565 53.5566 203.059 53.5566C203.553 53.5566 203.958 53.9618 203.958 54.4558Z" fill="#263238"/>
<path d="M206.903 66.8389C208.996 66.7834 212.926 66.0285 214.485 64.3634C215.579 63.1923 216.189 60.9277 216.189 60.9277C216.189 60.9277 215.928 63.875 215.024 65.1516C214.119 66.4282 211.926 67.1719 210.594 67.4772C208.818 67.8824 206.887 67.8824 206.887 67.8824L206.903 66.8389Z" fill="#F28F8F"/>
<path d="M206.299 59.2464L203.457 57.6645L206.887 53.3574L206.299 59.2464Z" fill="#F28F8F"/>
<path d="M209.424 60.2402L206.332 61.2393C206.593 62.1274 207.498 62.6214 208.352 62.3438C209.207 62.0663 209.69 61.1283 209.429 60.2402H209.424Z" fill="#B16668"/>
<path d="M208.346 62.3434C208.28 62.3656 208.219 62.3712 208.152 62.3823C208.097 61.583 208.69 60.8837 209.484 60.8115C209.451 61.4998 209.018 62.127 208.346 62.3434Z" fill="#F28F8F"/>
<path d="M201.195 105.415C200.718 106.319 199.497 107.091 198.475 107.13C197.959 107.152 197.587 106.98 197.41 106.691L190.805 96.212L194.651 93.792L201.251 104.266C201.439 104.549 201.434 104.959 201.195 105.42V105.415Z" fill="#0A97D9"/>
<path d="M195.217 95.4737C194.668 96.5171 193.263 97.3997 192.087 97.4441C191.493 97.4663 191.065 97.272 190.865 96.939L190.449 96.2785L194.873 93.4922L195.284 94.1471C195.5 94.4746 195.495 94.9408 195.217 95.4737Z" fill="#0A97D9"/>
<path opacity="0.2" d="M195.217 95.4737C194.668 96.5171 193.263 97.3997 192.087 97.4441C191.493 97.4663 191.065 97.272 190.865 96.939L190.449 96.2785L194.873 93.4922L195.284 94.1471C195.5 94.4746 195.495 94.9408 195.217 95.4737Z" fill="white"/>
<path d="M191.664 96.7728C190.487 96.8172 189.976 96.0068 190.526 94.9633C191.075 93.9199 192.479 93.0374 193.656 92.993C194.833 92.9485 195.343 93.7589 194.794 94.8024C194.244 95.8459 192.84 96.7284 191.664 96.7728Z" fill="#0A97D9"/>
<path d="M193.591 94.8412C193.352 95.2963 192.736 95.6849 192.22 95.7015C191.959 95.7126 191.776 95.6238 191.687 95.4795L182.801 81.3982L184.732 80.1826L193.613 94.2584C193.707 94.4027 193.707 94.6081 193.585 94.8356L193.591 94.8412Z" fill="#455A64"/>
<path d="M183.432 81.0039L182.805 81.398L191.691 95.4793C191.78 95.6236 191.963 95.7124 192.224 95.7013C192.362 95.7013 192.507 95.6625 192.651 95.6125L183.432 81.0039Z" fill="#37474F"/>
<path d="M188.263 77.5962C187.88 75.7424 186.115 73.7609 184.323 73.167C183.418 72.8673 182.674 72.9783 182.213 73.4056L176.047 78.845L181.619 85.1003L187.775 79.672C188.252 79.2613 188.458 78.5398 188.263 77.6017V77.5962Z" fill="#263238"/>
<path d="M178.132 78.6178C176.34 78.0239 175.191 79.0396 175.574 80.8934C175.957 82.7473 177.722 84.7288 179.514 85.3227C181.307 85.9165 182.456 84.9008 182.073 83.047C181.69 81.1932 179.925 79.2117 178.132 78.6178Z" fill="#455A64"/>
<path opacity="0.2" d="M199.577 105.864C199.377 105.987 199.116 105.931 198.994 105.731L194.01 97.822C193.888 97.6222 193.943 97.3613 194.143 97.2392C194.343 97.1171 194.604 97.1726 194.726 97.3724L199.71 105.282C199.832 105.482 199.777 105.742 199.577 105.864Z" fill="black"/>
<path opacity="0.2" d="M200.668 104.876C200.535 105.048 200.341 105.048 200.235 104.876L195.19 96.8728C195.084 96.7007 195.101 96.4232 195.234 96.2511C195.367 96.0791 195.562 96.0791 195.667 96.2511L200.712 104.255C200.818 104.427 200.801 104.704 200.668 104.876Z" fill="black"/>
<path opacity="0.2" d="M198.215 106.419C198.426 106.375 198.509 106.197 198.404 106.025L193.358 98.0213C193.253 97.8492 192.992 97.7493 192.781 97.7937C192.57 97.8381 192.487 98.0157 192.593 98.1878L197.638 106.191C197.743 106.364 198.004 106.463 198.215 106.419Z" fill="black"/>
<path d="M225.76 71.2627C231.826 73.8381 231.71 77.8066 229.223 87.098C227.353 94.0748 225.898 97.677 225.221 99.2755C224.55 100.874 223.578 102.101 218.322 102.75C213.626 103.327 203.02 104.482 202.009 104.648C201.338 104.759 199.095 105.675 198.396 106.025C197.858 106.297 196.892 106.719 196.293 106.813C195.538 106.93 194.833 106.646 193.823 106.28C193.445 106.141 192.907 105.897 192.646 105.592C192.374 105.276 192.28 104.626 192.063 104.265C191.752 103.744 191.536 103.566 191.392 102.972C191.286 102.539 191.497 102.056 191.308 101.657C191.253 101.529 191.158 101.424 191.086 101.307C190.848 100.918 190.842 100.413 190.97 99.9749C191.103 99.5253 191.336 99.1923 191.503 98.8759C191.675 98.5595 192.013 98.1266 192.013 98.1266L193.012 99.714C193.012 99.714 194.283 100.363 195.621 99.714C197.009 99.0424 197.147 97.7603 197.147 97.7603L196.054 96.0285C196.054 96.0285 196.87 95.7122 198.274 96.4226C199.578 97.0831 200.572 97.7048 202.387 97.3828C204.901 96.9388 216.796 93.7917 216.796 93.7917L220.559 81.7474C220.559 81.7474 222.54 73.8214 225.748 71.2627H225.76Z" fill="#FFA8A7"/>
<path d="M225.433 70.8633C229.44 72.4285 230.795 74.4155 231.039 77.4183C231.283 80.4211 229.751 86.6208 228.519 90.7448C228.519 90.7448 226.243 91.7161 222.702 90.7448C219.167 89.7735 218.195 88.1028 218.195 88.1028C218.195 88.1028 219.844 82.3026 220.715 79.3776C221.587 76.4525 222.736 72.595 225.433 70.8633Z" fill="#0A97D9"/>
<path d="M181.797 27.6532C184.683 29.9843 186.393 33.2313 186.876 36.6448L187.003 38.2489C187.087 41.4681 186.071 44.7317 183.895 47.4292C179.022 53.4625 170.152 54.4061 164.125 49.5328C161.427 47.3571 159.751 44.3765 159.157 41.2128L158.952 39.6198C158.702 36.1841 159.695 32.6485 162.027 29.7623C166.9 23.7291 175.769 22.7855 181.797 27.6587V27.6532Z" fill="white"/>
<path d="M161.1 29.0076C155.816 35.5515 156.837 45.1759 163.381 50.4544C169.248 55.1944 177.596 54.8558 183.063 50.0103L187.575 51.4534C188.347 51.6976 189.018 50.8706 188.613 50.1657L186.254 46.0584C189.84 39.6921 188.413 31.4609 182.546 26.7209C176.003 21.4369 166.384 22.4582 161.094 29.0021L161.1 29.0076ZM181.797 27.6533C184.683 29.9845 186.393 33.2315 186.876 36.645L187.003 38.249C187.087 41.4683 186.071 44.7319 183.895 47.4294C179.022 53.4627 170.152 54.4062 164.125 49.533C161.427 47.3572 159.751 44.3767 159.157 41.2129L158.952 39.6144C158.702 36.1787 159.696 32.6431 162.027 29.7569C166.9 23.7237 175.769 22.7801 181.797 27.6533Z" fill="#455A64"/>
<path d="M181.242 33.7532L176.147 37.3554L172.888 30.4951L169.825 37.6107L164.324 33.953L166.017 43.8272C170.718 45.4035 176.79 45.0205 180.176 43.1833L181.231 33.7587L181.242 33.7532Z" fill="#0A97D9"/>
<path opacity="0.3" d="M180.326 41.94L180.382 41.4238C178.456 42.3563 176.297 42.8003 174.171 42.8836C172.733 42.9391 171.301 42.8614 169.869 42.7448C168.482 42.6283 167.089 42.4673 165.734 42.1343L165.845 42.7837C166.983 43.039 168.143 43.1833 169.253 43.2888C172.123 43.5496 175.098 43.6717 177.906 42.9113C178.767 42.6782 179.566 42.3507 180.326 41.94Z" fill="black"/>
</g>
<defs>
<clipPath id="clip0_5706_15509">
<rect width="242.069" height="249.462" fill="white" transform="translate(0.964844 0.461914)"/>
</clipPath>
</defs>
</svg>
